<svg width="15" height="15" viewBox="0 0 15 15" fill="none" xmlns="http://www.w3.org/2000/svg">
<g clip-path="url(#clip0)">
<path d="M4.87414 6.25789L3.89414 7.23789L7.04414 10.3879L14.0441 3.38789L13.0641 2.40789L7.04414 8.42789L4.87414 6.25789ZM13.3441 7.58789C13.3441 10.6679 10.8241 13.1879 7.74414 13.1879C4.66414 13.1879 2.14414 10.6679 2.14414 7.58789C2.14414 4.50789 4.66414 1.98789 7.74414 1.98789C8.30414 1.98789 8.79414 2.05789 9.28414 2.19789L10.4042 1.07789C9.56414 0.797891 8.65414 0.587891 7.74414 0.587891C3.89414 0.587891 0.744141 3.73789 0.744141 7.58789C0.744141 11.4379 3.89414 14.5879 7.74414 14.5879C11.5941 14.5879 14.7441 11.4379 14.7441 7.58789H13.3441Z" fill="url(#paint0_linear)"/>
</g>
<defs>
<linearGradient id="paint0_linear" x1="1.14847" y1="7.58788" x2="14.7441" y2="7.58788" gradientUnits="userSpaceOnUse">
<stop stop-color="#2933F2"/>
<stop offset="1" stop-color="#FA00FF"/>
</linearGradient>
<clipPath id="clip0">
<rect width="14" height="14" fill="white" transform="translate(0.744141 0.587891)"/>
</clipPath>
</defs>
</svg>
