<svg width="65" height="65" viewBox="0 0 65 65" fill="none" xmlns="http://www.w3.org/2000/svg">
<g clip-path="url(#clip0)">
<path d="M12.0005 50.0815C11.1045 50.0815 10.2432 50.3052 9.479 50.7251C5.45361 45.5649 3.24414 39.1548 3.24414 32.5879C3.24414 16.3213 16.4775 3.08789 32.7441 3.08789C34.7217 3.08789 36.6982 3.28467 38.6191 3.67285C39.2949 3.80957 39.9551 3.37207 40.0918 2.69531C40.2285 2.01855 39.791 1.35938 39.1143 1.22217C37.0308 0.80127 34.8877 0.587891 32.7441 0.587891C24.1968 0.587891 16.1606 3.9165 10.1167 9.96045C4.07275 16.0044 0.744141 24.0405 0.744141 32.5879C0.744141 39.7778 3.18555 46.7944 7.63037 52.4194C7.05811 53.2744 6.75049 54.2793 6.75049 55.3315C6.75049 56.7339 7.29688 58.0522 8.28857 59.0435C9.27979 60.0352 10.5981 60.5815 12.0005 60.5815C13.4028 60.5815 14.7212 60.0352 15.7129 59.0435C16.7046 58.0522 17.2505 56.7334 17.2505 55.3311C17.2505 53.9292 16.7046 52.6104 15.7129 51.6191C14.7212 50.6274 13.4028 50.0815 12.0005 50.0815ZM13.9448 57.2759C13.4258 57.7954 12.7349 58.0815 12.0005 58.0815C11.2661 58.0815 10.5757 57.7954 10.0562 57.2759C9.53662 56.7563 9.25049 56.0659 9.25049 55.3315C9.25049 54.5967 9.53662 53.9062 10.0562 53.3867C10.5752 52.8672 11.2661 52.5815 12.0005 52.5815C12.7349 52.5815 13.4253 52.8677 13.9448 53.3867C14.4644 53.9062 14.7505 54.5967 14.7505 55.3315C14.7505 56.0659 14.4644 56.7563 13.9448 57.2759Z" fill="url(#paint0_linear)"/>
<path d="M57.857 12.7549C59.2159 10.7163 58.9976 7.9292 57.2003 6.13184C56.2086 5.14063 54.8902 4.59424 53.4878 4.59424C52.0855 4.59424 50.7671 5.14063 49.7754 6.13184C48.7837 7.12354 48.2379 8.44189 48.2379 9.84424C48.2379 11.2466 48.7837 12.5649 49.7754 13.5566C50.7671 14.5483 52.0855 15.0942 53.4878 15.0942C54.3838 15.0942 55.2452 14.8706 56.0093 14.4507C60.0347 19.6113 62.2442 26.021 62.2442 32.5879C62.2442 48.8545 49.0108 62.0879 32.7442 62.0879C30.7862 62.0879 28.8282 61.895 26.9254 61.5142C26.2486 61.3789 25.5899 61.8179 25.4542 62.4946C25.3189 63.1719 25.7579 63.8301 26.4346 63.9658C28.4986 64.3784 30.6216 64.5879 32.7442 64.5879C41.2916 64.5879 49.3277 61.2593 55.3716 55.2153C61.4156 49.1714 64.7442 41.1353 64.7442 32.5879C64.7442 25.3975 62.3023 18.3804 57.857 12.7549ZM51.5435 11.7891C51.024 11.2695 50.7378 10.5791 50.7378 9.84424C50.7378 9.10986 51.024 8.41943 51.5435 7.8999C52.0626 7.38037 52.7535 7.09424 53.4878 7.09424C54.2222 7.09424 54.9131 7.38037 55.4327 7.8999C56.5044 8.97217 56.5044 10.7168 55.4327 11.7891C54.9131 12.3081 54.2222 12.5942 53.4878 12.5942C52.753 12.5942 52.0626 12.3081 51.5435 11.7891Z" fill="url(#paint1_linear)"/>
<path d="M27.5859 54.0879C27.5859 54.7783 28.146 55.3379 28.8359 55.3379H36.6519C37.3423 55.3379 37.9019 54.7783 37.9019 54.0879V51.6646C39.5454 51.2222 41.1167 50.5708 42.5933 49.7202L44.3042 51.4312C44.5386 51.6655 44.8564 51.7974 45.1885 51.7974C45.5195 51.7974 45.8379 51.6655 46.0723 51.4307L51.5967 45.9023C52.0845 45.4141 52.0845 44.6226 51.5967 44.1348L49.8877 42.4258C50.7383 40.9492 51.3896 39.3779 51.832 37.7344H54.2461C54.9365 37.7344 55.4961 37.1748 55.4961 36.4844V28.6685C55.4961 27.978 54.9365 27.4185 54.2461 27.4185H51.8315C51.3892 25.7754 50.7383 24.2041 49.8877 22.7275L51.5874 21.0278C51.8218 20.7935 51.9536 20.4751 51.9536 20.1436C51.9531 19.812 51.8213 19.4937 51.5869 19.2593L46.0581 13.7349C45.5703 13.2471 44.7788 13.2471 44.2905 13.7354L42.5933 15.4331C41.1167 14.5825 39.5454 13.9312 37.9019 13.4888V11.0879C37.9019 10.3975 37.3423 9.83789 36.6519 9.83789H28.8359C28.146 9.83789 27.5859 10.3975 27.5859 11.0879V13.4893C25.9429 13.9312 24.3716 14.5825 22.895 15.4331L21.1973 13.7354C20.7095 13.2476 19.918 13.2471 19.4297 13.7349L13.9014 19.2598C13.6665 19.4941 13.5347 19.812 13.5347 20.1436C13.5347 20.4751 13.6665 20.7935 13.9009 21.0278L15.6006 22.7275C14.75 24.2041 14.0986 25.7749 13.6563 27.4185H11.2466C10.5562 27.4185 9.99658 27.978 9.99658 28.668L9.99219 36.4839C9.9917 36.8154 10.1235 37.1338 10.3579 37.3682C10.5923 37.6025 10.9102 37.7344 11.2422 37.7344H13.6563C14.0986 39.3779 14.75 40.9492 15.6006 42.4258L13.8916 44.1348C13.4038 44.6226 13.4033 45.4141 13.8916 45.9023L19.416 51.4307C19.6504 51.665 19.9683 51.7974 20.2998 51.7974H20.3003C20.6318 51.7974 20.9497 51.6655 21.1841 51.4312L22.8945 49.7202C24.3716 50.5708 25.9429 51.2222 27.5859 51.6646V54.0879ZM23.3848 47.0913C22.8901 46.7715 22.2393 46.8408 21.8223 47.2573L20.3003 48.7793L16.543 45.019L18.0635 43.498C18.48 43.0815 18.5493 42.4307 18.2295 41.936C17.0962 40.1821 16.2993 38.2598 15.8618 36.2217C15.7378 35.646 15.229 35.2344 14.6396 35.2344H12.4927L12.4956 29.9185H14.6396C15.229 29.9185 15.7378 29.5073 15.8618 28.9312C16.2993 26.8936 17.0962 24.9712 18.2295 23.2173C18.5493 22.7227 18.48 22.0718 18.0635 21.6553L16.5527 20.144L20.313 16.3867L21.8223 17.8965C22.2393 18.313 22.8896 18.3818 23.3848 18.0625C25.1382 16.9292 27.0605 16.1323 29.0986 15.6948C29.6743 15.5708 30.0859 15.0615 30.0859 14.4727V12.3379H35.4019V14.4722C35.4019 15.0615 35.813 15.5708 36.3892 15.6943C38.4268 16.1323 40.3496 16.9287 42.103 18.062C42.5977 18.3818 43.2485 18.313 43.665 17.896L45.1748 16.3867L48.9351 20.144L47.4243 21.6548C47.0073 22.0718 46.9385 22.7227 47.2583 23.2173C48.3916 24.9712 49.188 26.8936 49.626 28.9312C49.7495 29.5073 50.2588 29.9185 50.8481 29.9185H52.9961V35.2344H50.8481C50.2588 35.2344 49.75 35.646 49.626 36.2217C49.1885 38.2593 48.3916 40.1821 47.2583 41.9355C46.9385 42.4307 47.0078 43.0815 47.4243 43.498L48.9448 45.0186L45.1875 48.7788L43.6655 47.2573C43.2485 46.8403 42.5977 46.7715 42.103 47.0913C40.3491 48.2246 38.4268 49.021 36.3892 49.459C35.813 49.583 35.4019 50.0918 35.4019 50.6812V52.8379H30.0859V50.6812C30.0859 50.0923 29.6743 49.583 29.0986 49.459C27.061 49.0215 25.1387 48.2246 23.3848 47.0913Z" fill="url(#paint2_linear)"/>
<path d="M43.0728 32.5879C43.0728 26.8926 38.4395 22.2593 32.7441 22.2593C27.0488 22.2593 22.4155 26.8926 22.4155 32.5879C22.4155 38.2832 27.0488 42.9165 32.7441 42.9165C38.4395 42.9165 43.0728 38.2832 43.0728 32.5879ZM24.9155 32.5879C24.9155 28.271 28.4272 24.7593 32.7441 24.7593C37.061 24.7593 40.5728 28.2715 40.5728 32.5879C40.5728 36.9043 37.061 40.4165 32.7441 40.4165C28.4272 40.4165 24.9155 36.9048 24.9155 32.5879Z" fill="url(#paint3_linear)"/>
<path d="M44.2539 5.31543C44.583 5.31543 44.9053 5.18164 45.1377 4.94922C45.3701 4.71533 45.5039 4.39307 45.5039 4.06396C45.5039 3.73682 45.3706 3.41406 45.1377 3.18018C44.9053 2.94775 44.583 2.81396 44.2539 2.81396C43.9238 2.81396 43.603 2.94775 43.3706 3.18018C43.1377 3.41406 43.0039 3.73535 43.0039 4.06396C43.0039 4.39404 43.1377 4.71533 43.3706 4.94922C43.603 5.18164 43.9238 5.31543 44.2539 5.31543Z" fill="url(#paint4_linear)"/>
<path d="M21.2891 59.8828C20.9604 59.8828 20.6377 60.0166 20.4053 60.249C20.1729 60.4814 20.0391 60.8042 20.0391 61.1328C20.0391 61.4629 20.1729 61.7842 20.4053 62.0166C20.6377 62.249 20.9604 62.3828 21.2891 62.3828C21.6177 62.3828 21.9404 62.249 22.1729 62.0166C22.4053 61.7842 22.5391 61.4614 22.5391 61.1328C22.5391 60.8042 22.4053 60.4814 22.1729 60.249C21.9404 60.0166 21.6177 59.8828 21.2891 59.8828Z" fill="url(#paint5_linear)"/>
</g>
<defs>
<linearGradient id="paint0_linear" x1="1.88126" y1="30.5847" x2="40.1168" y2="30.5847" gradientUnits="userSpaceOnUse">
<stop stop-color="#2933F2"/>
<stop offset="1" stop-color="#FA00FF"/>
</linearGradient>
<linearGradient id="paint1_linear" x1="26.5651" y1="34.591" x2="64.7442" y2="34.591" gradientUnits="userSpaceOnUse">
<stop stop-color="#2933F2"/>
<stop offset="1" stop-color="#FA00FF"/>
</linearGradient>
<linearGradient id="paint2_linear" x1="11.3064" y1="32.5879" x2="55.4961" y2="32.5879" gradientUnits="userSpaceOnUse">
<stop stop-color="#2933F2"/>
<stop offset="1" stop-color="#FA00FF"/>
</linearGradient>
<linearGradient id="paint3_linear" x1="23.0121" y1="32.5879" x2="43.0728" y2="32.5879" gradientUnits="userSpaceOnUse">
<stop stop-color="#2933F2"/>
<stop offset="1" stop-color="#FA00FF"/>
</linearGradient>
<linearGradient id="paint4_linear" x1="43.0761" y1="4.0647" x2="45.5039" y2="4.0647" gradientUnits="userSpaceOnUse">
<stop stop-color="#2933F2"/>
<stop offset="1" stop-color="#FA00FF"/>
</linearGradient>
<linearGradient id="paint5_linear" x1="20.1113" y1="61.1328" x2="22.5391" y2="61.1328" gradientUnits="userSpaceOnUse">
<stop stop-color="#2933F2"/>
<stop offset="1" stop-color="#FA00FF"/>
</linearGradient>
<clipPath id="clip0">
<rect width="64" height="64" fill="white" transform="translate(0.744141 0.587891)"/>
</clipPath>
</defs>
</svg>
