<svg width="61" height="61" viewBox="0 0 61 61" fill="none" xmlns="http://www.w3.org/2000/svg">
<g clip-path="url(#clip0)">
<path d="M44.0954 33.4588L40.0968 37.4574L36.094 33.4546L45.698 23.8506C46.7538 24.1478 47.8316 24.2932 48.9033 24.2931C51.9872 24.2928 55.0149 23.0879 57.2769 20.826C60.6042 17.4987 61.6444 12.516 59.9271 8.13187L58.9476 5.63142L52.6617 11.9174L50.1237 11.2373L49.4435 8.69912L55.7293 2.41321L53.2292 1.4339C48.8455 -0.283192 43.8626 0.756905 40.5351 4.08416C37.4871 7.13218 36.3583 11.5693 37.5106 15.663L27.9066 25.267L15.0097 12.3701L18.4314 8.9486L7.82605 0.589294L0.744141 7.67109L9.10333 18.2766L12.5251 14.8549L25.422 27.7518L16.9438 36.2299C12.5407 34.8506 7.73692 36.0029 4.42278 39.3171C2.06933 41.6705 0.773188 44.7996 0.773188 48.1278C0.773188 51.456 2.06933 54.5851 4.42278 56.9385C6.8519 59.3676 10.0426 60.5822 13.2335 60.5822C16.4243 60.5822 19.6151 59.3676 22.0442 56.9385C25.3584 53.6244 26.5107 48.8205 25.1314 44.4175L33.6096 35.9394L37.6124 39.9422L33.6138 43.9408L48.09 58.417C49.4899 59.817 51.3512 60.5879 53.331 60.5879C55.3107 60.5879 57.172 59.817 58.5719 58.417C61.4617 55.5271 61.4617 50.8252 58.5719 47.9353L44.0954 33.4588ZM5.43664 7.9481L8.10306 5.28168L13.1505 9.26017L9.41513 12.9955L5.43664 7.9481ZM41.576 16.5668L41.1567 15.4964C39.9488 12.4129 40.68 8.90855 43.0197 6.56868C44.643 4.94552 46.8261 4.09693 49.0415 4.13183L45.5244 7.64907L47.2546 14.1062L53.7119 15.8366L57.2289 12.3194C57.2644 14.5343 56.4153 16.7181 54.7922 18.3412C52.4523 20.6808 48.9481 21.4123 45.8644 20.2041L44.7941 19.7849L33.6093 30.9697L30.3911 27.7515L41.576 16.5668ZM21.0191 43.5602L21.478 44.6492C22.8983 48.0195 22.1452 51.8681 19.5595 54.4538C17.8151 56.198 15.5246 57.0701 13.2334 57.0698C10.9427 57.0697 8.65122 56.1977 6.9073 54.4538C5.21761 52.764 4.28691 50.5175 4.28691 48.1277C4.28691 45.7379 5.21749 43.4914 6.9073 41.8016C8.62557 40.0835 10.9007 39.1745 13.2232 39.1745C14.3959 39.1745 15.581 39.4065 16.7117 39.883L17.8008 40.342L27.9065 30.2363L31.1247 33.4545L21.0191 43.5602ZM44.0954 38.428L47.3138 41.6463L41.8013 47.1588L38.5831 43.9406L44.0954 38.428ZM56.0873 55.9324C55.351 56.6685 54.3721 57.074 53.331 57.074C52.2898 57.074 51.3109 56.6685 50.5747 55.9324L44.2859 49.6436L49.7984 44.1311L56.0873 50.4199C57.607 51.9396 57.607 54.4125 56.0873 55.9324Z" fill="url(#paint0_linear)"/>
<path d="M13.2334 42.3375C11.6869 42.3375 10.233 42.9397 9.13963 44.0332C8.04612 45.1267 7.44385 46.5805 7.44385 48.127C7.44385 49.6734 8.04612 51.1272 9.13951 52.2207C10.233 53.3142 11.6869 53.9165 13.2334 53.9165C14.7798 53.9165 16.2336 53.3142 17.3272 52.2207C19.5844 49.9634 19.5844 46.2904 17.3272 44.0332C16.2337 42.9397 14.7798 42.3375 13.2334 42.3375ZM14.8426 49.7361C14.4127 50.1658 13.8413 50.4025 13.2335 50.4025C12.6256 50.4025 12.0542 50.1658 11.6244 49.7361C11.1946 49.3062 10.9579 48.7348 10.9579 48.127C10.9579 47.5192 11.1946 46.9477 11.6245 46.5179C12.0542 46.088 12.6257 45.8514 13.2336 45.8514C13.8414 45.8514 14.4128 46.0881 14.8427 46.5179C15.7297 47.4051 15.7297 48.8488 14.8426 49.7361Z" fill="url(#paint1_linear)"/>
</g>
<defs>
<linearGradient id="paint0_linear" x1="2.47699" y1="30.5886" x2="60.744" y2="30.5886" gradientUnits="userSpaceOnUse">
<stop stop-color="#2933F2"/>
<stop offset="1" stop-color="#FA00FF"/>
</linearGradient>
<linearGradient id="paint1_linear" x1="7.77818" y1="48.127" x2="19.0201" y2="48.127" gradientUnits="userSpaceOnUse">
<stop stop-color="#2933F2"/>
<stop offset="1" stop-color="#FA00FF"/>
</linearGradient>
<clipPath id="clip0">
<rect width="60" height="60" fill="white" transform="translate(0.744141 0.587891)"/>
</clipPath>
</defs>
</svg>
