<svg width="65" height="65" viewBox="0 0 65 65" fill="none" xmlns="http://www.w3.org/2000/svg">
<g clip-path="url(#clip0)">
<path d="M38.736 1.19973C38.067 1.02883 37.3859 1.43069 37.214 2.09914C37.0421 2.76809 37.445 3.44924 38.1134 3.62112C47.3908 6.0054 53.8703 14.3697 53.8703 23.962C53.8703 29.9088 51.3317 35.6016 46.9059 39.5811C44.4147 41.8209 42.5578 44.7052 41.5016 47.9625H39.6198V30.4805L42.5548 27.546C43.2438 27.9356 44.0387 28.1592 44.8854 28.1592C47.5045 28.1592 49.6359 26.0284 49.6359 23.4092C49.6359 20.7901 47.5045 18.6592 44.8854 18.6592C42.2663 18.6592 40.1354 20.7901 40.1354 23.4092C40.1354 24.2755 40.3698 25.088 40.7765 25.7882L37.486 29.0792C37.2516 29.3135 37.1198 29.6314 37.1198 29.963V47.9625H34.1198V17.94C36.1344 17.3897 37.6198 15.5445 37.6198 13.358C37.6198 10.7388 35.4889 8.60746 32.8697 8.60746C30.2506 8.60746 28.1193 10.7388 28.1193 13.358C28.1193 15.5445 29.6051 17.3897 31.6197 17.94V47.9625H28.6193V35.1588C28.6193 34.8272 28.4879 34.5089 28.2535 34.2745L24.9625 30.984C25.3692 30.2838 25.6036 29.4713 25.6036 28.6051C25.6036 25.9859 23.4728 23.8546 20.8536 23.8546C18.2345 23.8546 16.1036 25.9859 16.1036 28.6051C16.1036 31.2242 18.2345 33.3551 20.8536 33.3551C21.7003 33.3551 22.4952 33.1314 23.1847 32.7418L26.1192 35.6763V47.9625H24.2369C23.1852 44.7447 21.2867 41.8228 18.712 39.4713C14.4317 35.5626 11.9381 30.001 11.8707 24.2134C11.7594 14.7413 18.3717 6.09183 27.5929 3.64797C28.2599 3.47073 28.6578 2.78664 28.4811 2.11916C28.3038 1.45168 27.6188 1.05422 26.9523 1.23098C21.9928 2.54592 17.5035 5.53421 14.3126 9.64554C11.0645 13.8311 9.30965 19.0152 9.37068 24.2423C9.40925 27.5489 10.1221 30.7403 11.4884 33.7271C12.8092 36.6139 14.6724 39.1676 17.0265 41.3175C19.1783 43.2828 20.7882 45.6983 21.7286 48.3561C20.7696 48.8898 20.1192 49.9142 20.1192 51.0875V55.3375C20.1192 57.0192 21.4537 58.3937 23.1192 58.4596V58.9625C23.1192 61.9957 25.5865 64.463 28.6193 64.463H37.1198C40.1525 64.463 42.6198 61.9957 42.6198 58.9625V58.4596C44.2853 58.3937 45.6198 57.0192 45.6198 55.3375V51.0875C45.6198 49.9132 44.9689 48.8888 44.0084 48.3546C44.9469 45.6715 46.5114 43.2975 48.5773 41.44C53.5299 36.9869 56.3703 30.6163 56.3703 23.962C56.3703 13.2281 49.1188 3.86819 38.736 1.19973ZM44.8854 21.1592C46.1261 21.1592 47.1354 22.1685 47.1354 23.4092C47.1354 24.65 46.1261 25.6592 44.8854 25.6592C43.6447 25.6592 42.6354 24.65 42.6354 23.4092C42.6354 22.1685 43.6447 21.1592 44.8854 21.1592ZM30.6197 13.3575C30.6197 12.1167 31.629 11.1075 32.8697 11.1075C34.1105 11.1075 35.1198 12.1167 35.1198 13.3575C35.1198 14.5982 34.1105 15.6075 32.8697 15.6075C31.629 15.6075 30.6197 14.5982 30.6197 13.3575ZM18.6036 28.6051C18.6036 27.3643 19.6129 26.355 20.8536 26.355C22.0943 26.355 23.1036 27.3643 23.1036 28.6051C23.1036 29.8458 22.0943 30.8551 20.8536 30.8551C19.6129 30.8551 18.6036 29.8458 18.6036 28.6051ZM40.1198 58.963C40.1198 60.6168 38.7741 61.963 37.1198 61.963H28.6193C26.9654 61.963 25.6192 60.6168 25.6192 58.963V58.463H40.1198V58.963ZM43.1198 55.338C43.1198 55.6822 42.8395 55.963 42.4948 55.963H23.2442C22.8995 55.963 22.6192 55.6822 22.6192 55.338V51.0875C22.6192 50.7428 22.8995 50.4625 23.2442 50.4625H42.4948C42.8395 50.4625 43.1198 50.7428 43.1198 51.0875V55.338Z" fill="url(#paint0_linear)"/>
<path d="M32.8262 2.96436C33.5166 2.96436 34.0762 2.40479 34.0762 1.71436V1.71143C34.0762 1.021 33.5166 0.462891 32.8262 0.462891C32.1357 0.462891 31.5762 1.02393 31.5762 1.71436C31.5762 2.40479 32.1357 2.96436 32.8262 2.96436Z" fill="url(#paint1_linear)"/>
</g>
<defs>
<linearGradient id="paint0_linear" x1="10.7266" y1="32.8117" x2="56.3703" y2="32.8117" gradientUnits="userSpaceOnUse">
<stop stop-color="#2933F2"/>
<stop offset="1" stop-color="#FA00FF"/>
</linearGradient>
<linearGradient id="paint1_linear" x1="31.6484" y1="1.71362" x2="34.0762" y2="1.71362" gradientUnits="userSpaceOnUse">
<stop stop-color="#2933F2"/>
<stop offset="1" stop-color="#FA00FF"/>
</linearGradient>
<clipPath id="clip0">
<rect width="64" height="64" fill="white" transform="translate(0.744141 0.587891)"/>
</clipPath>
</defs>
</svg>
