<svg width="137" height="41" viewBox="0 0 137 41" fill="none" xmlns="http://www.w3.org/2000/svg">
<path d="M131.337 40.1265H5.71281C3.15414 40.1265 1.09473 38.0675 1.09473 35.5094V5.81C1.09473 3.25186 3.15414 1.19287 5.71281 1.19287H131.275C133.834 1.19287 135.893 3.25186 135.893 5.81V35.5718C135.955 38.0675 133.896 40.1265 131.337 40.1265Z" fill="black"/>
<path d="M131.337 40.6882H5.7128C2.9045 40.6882 0.595459 38.3796 0.595459 35.5719V5.81013C0.595459 3.00241 2.9045 0.693848 5.7128 0.693848H131.275C134.083 0.693848 136.392 3.00241 136.392 5.81013V35.5719C136.455 38.3796 134.146 40.6882 131.337 40.6882ZM5.7128 1.69215C3.46616 1.69215 1.59396 3.50156 1.59396 5.81013V35.5719C1.59396 37.8181 3.40375 39.6899 5.7128 39.6899H131.275C133.521 39.6899 135.394 37.8805 135.394 35.5719V5.81013C135.394 3.56396 133.584 1.69215 131.275 1.69215H5.7128Z" fill="#A7A9AC"/>
<path d="M45.8402 12.0496L45.2785 13.9215H44.0304L46.1522 7.37012H47.7124L49.8342 13.9215H48.5237L47.8996 12.0496H45.8402ZM47.7124 11.1761L47.2131 9.5539C47.0883 9.17953 46.9635 8.68038 46.9011 8.30602C46.7763 8.68038 46.7139 9.11714 46.5891 9.5539L46.0898 11.1761H47.7124Z" fill="white"/>
<path d="M51.5816 9.1792L52.3304 11.6126C52.4553 12.0493 52.5801 12.4237 52.6425 12.798C52.7049 12.4237 52.8297 12.0493 52.9545 11.6126L53.7034 9.1792H54.9515L53.1417 13.9211H51.956L50.2086 9.1792H51.5816Z" fill="white"/>
<path d="M59.8193 12.7984C59.8193 13.2352 59.8193 13.6719 59.8817 13.9215H58.8208L58.7584 13.4224C58.4464 13.7967 58.0095 14.0463 57.3855 14.0463C56.4494 14.0463 55.8877 13.36 55.8877 12.6112C55.8877 11.4258 56.9486 10.8018 58.696 10.8018V10.7394C58.696 10.4275 58.5712 9.9283 57.7599 9.9283C57.323 9.9283 56.8238 10.0531 56.5118 10.3027L56.2621 9.55394C56.6366 9.36676 57.1982 9.11719 57.9471 9.11719C59.4449 9.11719 59.8817 10.0531 59.8817 11.1138V12.7984H59.8193ZM58.696 11.6129C57.8223 11.6129 57.011 11.8001 57.011 12.4864C57.011 12.9232 57.323 13.1728 57.6975 13.1728C58.1967 13.1728 58.5088 12.8608 58.6336 12.5488C58.6336 12.4864 58.6336 12.3617 58.6336 12.2993V11.6129H58.696Z" fill="white"/>
<path d="M62.1282 8.49299C61.7538 8.49299 61.4418 8.18102 61.4418 7.86905C61.4418 7.49469 61.6914 7.24512 62.1282 7.24512C62.5651 7.24512 62.8147 7.55709 62.8147 7.86905C62.8147 8.18102 62.5651 8.49299 62.1282 8.49299ZM61.5042 13.9212V9.17932H62.6899V13.9212H61.5042Z" fill="white"/>
<path d="M64.4374 6.99561H65.6231V13.9213H64.4374V6.99561Z" fill="white"/>
<path d="M71.0525 12.7984C71.0525 13.2352 71.0525 13.6719 71.1149 13.9215H70.054L69.9916 13.4224C69.6795 13.7967 69.2427 14.0463 68.6186 14.0463C67.6825 14.0463 67.1208 13.36 67.1208 12.6112C67.1208 11.4258 68.1818 10.8018 69.9291 10.8018V10.7394C69.9291 10.4275 69.8043 9.9283 68.993 9.9283C68.5562 9.9283 68.0569 10.0531 67.7449 10.3027L67.4953 9.55394C67.8697 9.36676 68.4314 9.11719 69.1803 9.11719C70.678 9.11719 71.1149 10.0531 71.1149 11.1138V12.7984H71.0525ZM69.9291 11.6129C69.0555 11.6129 68.2442 11.8001 68.2442 12.4864C68.2442 12.9232 68.5562 13.1728 68.9306 13.1728C69.4299 13.1728 69.7419 12.8608 69.8667 12.5488C69.8667 12.4864 69.8667 12.3617 69.8667 12.2993V11.6129H69.9291Z" fill="white"/>
<path d="M72.7374 6.99561H73.9231V9.80332C74.2352 9.36656 74.7344 9.0546 75.4209 9.0546C76.6066 9.0546 77.4179 9.9905 77.4179 11.4879C77.4179 13.1726 76.357 14.0461 75.2961 14.0461C74.672 14.0461 74.1104 13.7965 73.7983 13.235L73.7359 13.9213H72.7374C72.7374 13.6093 72.7998 13.0478 72.7998 12.611V6.99561H72.7374ZM73.9856 11.9871C73.9856 12.1119 73.9856 12.1743 73.9856 12.2991C74.1104 12.7982 74.5472 13.1102 75.0465 13.1102C75.7953 13.1102 76.2322 12.4862 76.2322 11.5503C76.2322 10.7392 75.8577 10.0529 75.0465 10.0529C74.5472 10.0529 74.1104 10.4273 73.9856 10.9264C73.9856 10.9888 73.9231 11.1136 73.9231 11.2384V11.9871H73.9856Z" fill="white"/>
<path d="M78.9156 6.99561H80.1014V13.9213H78.9156V6.99561Z" fill="white"/>
<path d="M82.6601 11.8625C82.6601 12.736 83.3466 13.1104 84.0954 13.1104C84.6571 13.1104 85.0315 13.048 85.406 12.9232L85.5932 13.7343C85.1564 13.9215 84.5947 14.0463 83.9082 14.0463C82.3481 14.0463 81.4744 13.1104 81.4744 11.6753C81.4744 10.3651 82.2856 9.11719 83.7834 9.11719C85.3436 9.11719 85.8428 10.3651 85.8428 11.4258C85.8428 11.6753 85.8428 11.8001 85.7804 11.9249H82.6601V11.8625ZM84.7819 11.0514C84.7819 10.6146 84.5947 9.86591 83.7834 9.86591C83.0345 9.86591 82.7225 10.5522 82.6601 11.0514H84.7819Z" fill="white"/>
<path d="M91.7715 14.0463C90.4609 14.0463 89.4 13.1104 89.4 11.6129C89.4 10.0531 90.3985 9.11719 91.8339 9.11719C93.2693 9.11719 94.2053 10.1155 94.2053 11.5505C94.2053 13.2352 93.0196 14.0463 91.7715 14.0463ZM91.8339 13.1728C92.5204 13.1728 93.0196 12.4864 93.0196 11.5505C93.0196 10.8018 92.7076 9.9283 91.8963 9.9283C91.0226 9.9283 90.7106 10.7394 90.7106 11.5505C90.6482 12.4864 91.085 13.1728 91.8339 13.1728Z" fill="white"/>
<path d="M95.6406 10.6145C95.6406 10.053 95.6407 9.61623 95.5782 9.17947H96.6392L96.7016 9.8658C96.8888 9.49144 97.4504 9.05469 98.1993 9.05469C99.0106 9.05469 99.8843 9.61623 99.8843 11.1137V13.9214H98.6986V11.2385C98.6986 10.5521 98.4489 10.053 97.7625 10.053C97.2632 10.053 96.9512 10.365 96.8264 10.7393C96.764 10.8641 96.764 10.9889 96.764 11.1137V13.9214H95.5782V10.6145H95.6406Z" fill="white"/>
<path d="M105.438 7.93164V9.17951H106.562V10.053H105.438V12.112C105.438 12.6736 105.626 12.9855 106.063 12.9855C106.25 12.9855 106.375 12.9855 106.499 12.9231V13.859C106.312 13.9214 106 13.9838 105.626 13.9838C105.189 13.9838 104.814 13.859 104.565 13.6095C104.315 13.3599 104.19 12.9231 104.19 12.2992V10.053H103.504V9.17951H104.19V8.306L105.438 7.93164Z" fill="white"/>
<path d="M107.935 6.99561H109.12V9.80332C109.245 9.55375 109.495 9.36656 109.744 9.24178C109.994 9.11699 110.244 9.0546 110.556 9.0546C111.367 9.0546 112.241 9.61614 112.241 11.1136V13.9213H111.055V11.2384C111.055 10.552 110.805 10.0529 110.119 10.0529C109.682 10.0529 109.308 10.3649 109.183 10.7392C109.12 10.864 109.12 10.9888 109.12 11.1136V13.9213H107.935V6.99561Z" fill="white"/>
<path d="M114.799 11.8625C114.799 12.736 115.486 13.1104 116.235 13.1104C116.797 13.1104 117.171 13.048 117.545 12.9232L117.733 13.7343C117.296 13.9215 116.734 14.0463 116.048 14.0463C114.487 14.0463 113.614 13.1104 113.614 11.6753C113.614 10.3651 114.425 9.11719 115.923 9.11719C117.483 9.11719 117.982 10.3651 117.982 11.4258C117.982 11.6753 117.982 11.8001 117.92 11.9249H114.799V11.8625ZM116.859 11.0514C116.859 10.6146 116.672 9.86591 115.86 9.86591C115.112 9.86591 114.799 10.5522 114.737 11.0514H116.859Z" fill="white"/>
<path d="M30.925 20.2855C30.925 17.0411 33.6085 15.4812 33.7333 15.3564C32.2356 13.1103 29.8641 12.8607 28.9904 12.7983C26.9934 12.6111 25.0588 13.9838 24.0603 13.9838C22.9994 13.9838 21.5016 12.7983 19.8167 12.8607C17.6324 12.9231 15.6354 14.171 14.5121 16.1052C12.2031 20.036 13.9505 25.901 16.1347 29.083C17.258 30.6429 18.5061 32.3899 20.1911 32.3275C21.8137 32.2651 22.4377 31.2668 24.4348 31.2668C26.3694 31.2668 26.9934 32.3275 28.6784 32.2651C30.4258 32.2651 31.5491 30.7053 32.61 29.083C33.8581 27.2736 34.3574 25.5266 34.4198 25.4018C34.3574 25.4642 30.9874 24.1539 30.925 20.2855Z" fill="white"/>
<path d="M27.7423 10.7391C28.616 9.61599 29.2401 8.11854 29.0529 6.62109C27.8048 6.68349 26.1822 7.49461 25.2461 8.5553C24.4348 9.4912 23.6859 11.051 23.8731 12.5485C25.3085 12.6733 26.8063 11.7998 27.7423 10.7391Z" fill="white"/>
<path d="M54.6395 32.0778H52.3304L51.0823 28.147H46.7139L45.5281 32.0778H43.2815L47.5875 18.7256H50.271L54.6395 32.0778ZM50.7079 26.4624L49.5846 22.9684C49.4597 22.594 49.2101 21.7829 48.8981 20.4726H48.8357C48.7109 21.0341 48.4612 21.9077 48.2116 22.9684L47.0883 26.4624H50.7079Z" fill="white"/>
<path d="M65.6855 27.1487C65.6855 28.771 65.2487 30.0812 64.375 31.0171C63.5637 31.8906 62.5652 32.265 61.4419 32.265C60.1937 32.265 59.2576 31.8282 58.696 30.8923H58.6336V35.9462H56.5117V25.5889C56.5117 24.5282 56.5117 23.5299 56.4493 22.4068H58.3215L58.4464 23.9042H58.5088C59.1952 22.7812 60.3186 22.1572 61.7539 22.1572C62.8772 22.1572 63.8133 22.594 64.6246 23.5299C65.3111 24.4658 65.6855 25.6513 65.6855 27.1487ZM63.5013 27.2111C63.5013 26.2752 63.3141 25.5265 62.8772 24.9025C62.4404 24.2786 61.8163 23.9666 61.005 23.9666C60.5058 23.9666 60.0065 24.1538 59.5697 24.4658C59.1328 24.8402 58.8832 25.2769 58.696 25.8385C58.6336 26.088 58.5712 26.3376 58.5712 26.4624V28.0846C58.5712 28.771 58.7584 29.3949 59.1952 29.8316C59.6321 30.3308 60.1937 30.5804 60.8802 30.5804C61.6915 30.5804 62.3156 30.2684 62.7524 29.6445C63.3141 29.0205 63.5013 28.2094 63.5013 27.2111Z" fill="white"/>
<path d="M76.7938 27.1487C76.7938 28.771 76.3569 30.0812 75.4832 31.0171C74.672 31.8906 73.7359 32.265 72.5501 32.265C71.302 32.265 70.3659 31.8282 69.8043 30.8923H69.7418V35.9462H67.62V25.5889C67.62 24.5282 67.62 23.5299 67.5576 22.4068H69.4298L69.5546 23.9042H69.617C70.3035 22.7812 71.4268 22.1572 72.8622 22.1572C73.9855 22.1572 74.9216 22.594 75.7329 23.5299C76.4193 24.4658 76.7938 25.6513 76.7938 27.1487ZM74.6096 27.2111C74.6096 26.2752 74.4223 25.5265 73.9855 24.9025C73.5486 24.2786 72.9246 23.9666 72.1133 23.9666C71.614 23.9666 71.1148 24.1538 70.6779 24.4658C70.2411 24.8402 69.9915 25.2769 69.8667 25.8385C69.8043 26.088 69.7418 26.3376 69.7418 26.4624V28.0846C69.7418 28.771 69.9291 29.3949 70.3659 29.8316C70.8028 30.3308 71.3644 30.5804 72.0509 30.5804C72.8622 30.5804 73.4862 30.2684 73.9231 29.6445C74.3599 29.0205 74.6096 28.2094 74.6096 27.2111Z" fill="white"/>
<path d="M89.2127 28.334C89.2127 29.4571 88.8382 30.393 88.0269 31.1417C87.1532 31.9528 85.9675 32.3272 84.4074 32.3272C82.972 32.3272 81.7863 32.0776 80.9126 31.5161L81.4118 29.7067C82.3479 30.2682 83.4088 30.5802 84.5322 30.5802C85.3435 30.5802 85.9675 30.393 86.4044 30.0186C86.8412 29.6443 87.0908 29.1451 87.0908 28.5836C87.0908 28.022 86.9036 27.5853 86.5292 27.2109C86.1547 26.8365 85.5307 26.5246 84.657 26.1502C82.2855 25.2767 81.1622 23.9664 81.1622 22.3442C81.1622 21.2211 81.5991 20.3476 82.4103 19.6613C83.2216 18.9749 84.3449 18.6006 85.6555 18.6006C86.9036 18.6006 87.9021 18.7878 88.7134 19.2245L88.1517 20.9715C87.4029 20.5348 86.5292 20.3476 85.5931 20.3476C84.8442 20.3476 84.2201 20.5348 83.8457 20.9092C83.4713 21.2211 83.284 21.6579 83.284 22.0946C83.284 22.5938 83.4713 23.0305 83.9081 23.4049C84.2825 23.7169 84.9066 24.0912 85.8427 24.4656C86.966 24.9023 87.8397 25.4639 88.4014 26.0878C88.9006 26.587 89.2127 27.3981 89.2127 28.334Z" fill="white"/>
<path d="M96.2647 24.0288H93.8932V28.7084C93.8932 29.8938 94.3301 30.5178 95.1414 30.5178C95.5158 30.5178 95.8278 30.4554 96.0775 30.393L96.1399 32.0152C95.703 32.2024 95.1414 32.2648 94.4549 32.2648C93.5812 32.2648 92.9571 32.0152 92.4579 31.5161C91.9586 31.0169 91.7714 30.1434 91.7714 28.8955V24.0288H90.3361V22.4066H91.7714V20.6596L93.8932 20.0356V22.4066H96.2647V24.0288Z" fill="white"/>
<path d="M106.936 27.1483C106.936 28.6458 106.499 29.8313 105.688 30.8296C104.814 31.8279 103.629 32.327 102.131 32.327C100.696 32.327 99.5722 31.8279 98.7609 30.892C97.9497 29.956 97.5128 28.7706 97.5128 27.3355C97.5128 25.8381 97.9497 24.5902 98.8234 23.6543C99.697 22.7184 100.883 22.2192 102.318 22.2192C103.753 22.2192 104.877 22.7184 105.75 23.6543C106.562 24.5278 106.936 25.7133 106.936 27.1483ZM104.69 27.2107C104.69 26.3372 104.502 25.5885 104.128 24.9022C103.691 24.1534 103.067 23.7167 102.193 23.7167C101.32 23.7167 100.696 24.091 100.259 24.9022C99.8843 25.5261 99.697 26.3372 99.697 27.2107C99.697 28.0842 99.8843 28.833 100.259 29.5193C100.696 30.268 101.382 30.6424 102.193 30.6424C103.005 30.6424 103.629 30.268 104.128 29.4569C104.502 28.8954 104.69 28.1466 104.69 27.2107Z" fill="white"/>
<path d="M113.926 24.2783C113.739 24.2159 113.489 24.2159 113.239 24.2159C112.49 24.2159 111.929 24.5279 111.492 25.0895C111.117 25.5886 110.93 26.2125 110.93 27.0237V32.0775H108.808V25.4638C108.808 24.3407 108.808 23.3424 108.746 22.4065H110.618L110.681 24.2783H110.743C110.993 23.6544 111.305 23.1552 111.804 22.7809C112.303 22.4065 112.802 22.2817 113.364 22.2817C113.551 22.2817 113.739 22.2817 113.926 22.3441V24.2783Z" fill="white"/>
<path d="M123.474 26.7741C123.474 27.1484 123.474 27.4604 123.411 27.7724H116.984C116.984 28.7083 117.296 29.457 117.92 29.9562C118.481 30.3929 119.168 30.6425 120.042 30.6425C120.978 30.6425 121.851 30.5177 122.663 30.2057L122.975 31.7032C122.039 32.0775 120.978 32.3271 119.729 32.3271C118.232 32.3271 117.046 31.8904 116.235 31.0168C115.361 30.1433 114.924 28.9579 114.924 27.4604C114.924 26.0254 115.299 24.7775 116.11 23.8416C116.921 22.7809 118.045 22.2817 119.48 22.2817C120.853 22.2817 121.914 22.7809 122.663 23.8416C123.224 24.5903 123.474 25.5886 123.474 26.7741ZM121.477 26.2125C121.477 25.5886 121.352 25.0271 121.04 24.5903C120.666 23.9664 120.104 23.7168 119.355 23.7168C118.669 23.7168 118.107 24.0288 117.67 24.5903C117.296 25.0271 117.108 25.5886 117.046 26.2749H121.477V26.2125Z" fill="white"/>
</svg>
