<svg width="239" height="130" viewBox="0 0 239 130" fill="none" xmlns="http://www.w3.org/2000/svg">
<g clip-path="url(#clip0)">
<path d="M26.7754 35.581L26.4779 35.4327L0.744141 50.2603V77.6913L4.76039 75.4672V52.781L24.2466 64.0499L24.8416 63.7534L4.90914 52.3362L26.1804 40.0293V62.8637L26.7754 62.5672V40.1775L46.2616 51.4465L0.744141 77.6913V79.9155L2.67789 81.1017L26.4779 94.743L52.2116 79.9155V79.6189L28.7091 66.1258L28.1141 66.4224L51.3191 79.7672L26.7754 94.0017V67.312L48.3441 54.8568V77.3948L52.3604 79.6189V50.5568L26.7754 35.581ZM26.1804 67.4603V94.0017L3.27289 80.8051L26.7754 67.312L26.1804 67.4603Z" fill="#00A3FF"/>
<path d="M75.1191 79.9155L87.7629 50.112H92.9691L105.613 79.9155H100.555L97.8779 73.5396H82.8541L80.1766 79.9155H75.1191ZM84.4904 69.2396H96.0929L90.8866 56.4879C90.7379 56.043 90.5891 55.5982 90.2916 54.8568C90.1429 55.5982 89.8454 56.043 89.6966 56.4879L84.4904 69.2396Z" fill="#00A3FF"/>
<path d="M132.09 50.2603V54.7086H122.273V79.9155H117.364V54.7086H107.547V50.2603H132.09Z" fill="#00A3FF"/>
<path d="M153.064 49.6672C163.477 49.6672 168.683 57.2293 168.683 65.0879C168.683 72.9465 163.477 80.5086 153.064 80.5086C142.503 80.5086 137.445 72.9465 137.445 65.0879C137.445 57.2293 142.652 49.6672 153.064 49.6672ZM153.064 54.2637C145.924 54.2637 142.354 59.4534 142.354 65.0879C142.354 70.7224 145.924 75.912 153.064 75.912C160.353 75.912 163.774 70.7224 163.774 65.0879C163.923 59.4534 160.353 54.2637 153.064 54.2637Z" fill="#00A3FF"/>
<path d="M199.028 79.9155V61.381C199.028 60.3431 199.028 59.1569 199.028 58.1189L182.963 79.9155H178.352V50.2603H183.26V68.7948C183.26 69.8327 183.26 71.0189 183.26 72.0569L199.325 50.2603H203.937V80.0638H199.028V79.9155Z" fill="#00A3FF"/>
<path d="M225.952 50.2603C233.092 50.2603 238.744 52.4845 238.744 60.0465C238.744 67.6086 233.092 69.8327 225.952 69.8327H220.15V80.0638H215.242V50.2603H225.952ZM226.249 54.7086H220.15V65.3845H226.249C230.414 65.3845 233.835 64.3465 233.835 60.0465C233.835 55.5982 230.414 54.7086 226.249 54.7086Z" fill="#00A3FF"/>
</g>
<defs>
<clipPath id="clip0">
<rect width="238" height="129" fill="white" transform="translate(0.744141 0.587891)"/>
</clipPath>
</defs>
</svg>
