<svg width="25" height="25" viewBox="0 0 25 25" fill="none" xmlns="http://www.w3.org/2000/svg">
<g clip-path="url(#clip0)">
<path d="M12.7442 0.587891C8.33303 0.587891 4.74414 4.17678 4.74414 8.58791C4.74414 9.91213 5.07522 11.2251 5.70461 12.3897L12.3067 24.3301C12.3946 24.4893 12.562 24.5879 12.7442 24.5879C12.9263 24.5879 13.0937 24.4893 13.1816 24.3301L19.7861 12.3857C20.4131 11.2251 20.7442 9.91208 20.7442 8.58786C20.7442 4.17678 17.1553 0.587891 12.7442 0.587891ZM12.7442 12.5879C10.5386 12.5879 8.74417 10.7935 8.74417 8.58791C8.74417 6.38234 10.5386 4.58792 12.7442 4.58792C14.9497 4.58792 16.7441 6.38234 16.7441 8.58791C16.7441 10.7935 14.9497 12.5879 12.7442 12.5879Z" fill="url(#paint0_linear)"/>
</g>
<defs>
<linearGradient id="paint0_linear" x1="5.20624" y1="12.5879" x2="20.7442" y2="12.5879" gradientUnits="userSpaceOnUse">
<stop stop-color="#2933F2"/>
<stop offset="1" stop-color="#FA00FF"/>
</linearGradient>
<clipPath id="clip0">
<rect width="24" height="24" fill="white" transform="translate(0.744141 0.587891)"/>
</clipPath>
</defs>
</svg>
