<svg width="24" height="24" viewBox="0 0 24 24" fill="none" xmlns="http://www.w3.org/2000/svg">
<g clip-path="url(#clip0)">
<path d="M20.2299 15.8027C19.4785 15.0608 18.5404 15.0608 17.7938 15.8027C17.2242 16.3674 16.6547 16.9322 16.0947 17.5065C15.9416 17.6645 15.8123 17.698 15.6257 17.5927C15.2571 17.3917 14.8647 17.2289 14.5105 17.0088C12.8593 15.9702 11.4761 14.6349 10.2509 13.132C9.64307 12.3854 9.10225 11.5861 8.72415 10.6864C8.64757 10.5045 8.66193 10.3848 8.8103 10.2365C9.37984 9.68607 9.93503 9.12131 10.495 8.55655C11.2751 7.77163 11.2751 6.8527 10.4902 6.063C10.0451 5.61311 9.6 5.17279 9.15489 4.7229C8.69543 4.26343 8.24075 3.79918 7.7765 3.3445C7.02509 2.61223 6.08701 2.61223 5.34039 3.34929C4.76606 3.91405 4.21566 4.49316 3.63175 5.04835C3.09093 5.56046 2.81812 6.18744 2.76069 6.91971C2.66975 8.11144 2.9617 9.23617 3.37331 10.3322C4.21566 12.6008 5.49833 14.6157 7.0538 16.4632C9.15489 18.9615 11.6628 20.9381 14.5967 22.3644C15.9176 23.0057 17.2864 23.4987 18.7749 23.5801C19.7991 23.6375 20.6894 23.379 21.4025 22.5798C21.8907 22.0342 22.4411 21.5364 22.958 21.0147C23.7237 20.2394 23.7285 19.3013 22.9675 18.5355C22.0582 17.6214 21.144 16.712 20.2299 15.8027Z" fill="url(#paint0_linear)"/>
<path d="M19.3159 11.9884L21.082 11.6869C20.8044 10.0644 20.0386 8.59509 18.8756 7.42729C17.6456 6.19727 16.0901 5.42192 14.3767 5.18262L14.1278 6.95825C15.4536 7.14491 16.6596 7.74317 17.6121 8.6956C18.5119 9.59539 19.1005 10.7345 19.3159 11.9884Z" fill="url(#paint1_linear)"/>
<path d="M22.0773 4.31146C20.0385 2.27259 17.4588 0.985135 14.6111 0.587891L14.3622 2.36353C16.8222 2.70813 19.0525 3.82328 20.8138 5.57977C22.4842 7.25012 23.5802 9.36078 23.9774 11.682L25.7435 11.3805C25.2792 8.69073 24.0109 6.24983 22.0773 4.31146Z" fill="url(#paint2_linear)"/>
</g>
<defs>
<linearGradient id="paint0_linear" x1="3.34449" y1="13.1918" x2="23.5353" y2="13.1918" gradientUnits="userSpaceOnUse">
<stop stop-color="#2933F2"/>
<stop offset="1" stop-color="#FA00FF"/>
</linearGradient>
<linearGradient id="paint1_linear" x1="14.3287" y1="8.58552" x2="21.082" y2="8.58552" gradientUnits="userSpaceOnUse">
<stop stop-color="#2933F2"/>
<stop offset="1" stop-color="#FA00FF"/>
</linearGradient>
<linearGradient id="paint2_linear" x1="14.6909" y1="6.13496" x2="25.7435" y2="6.13496" gradientUnits="userSpaceOnUse">
<stop stop-color="#2933F2"/>
<stop offset="1" stop-color="#FA00FF"/>
</linearGradient>
<clipPath id="clip0">
<rect width="23" height="23" fill="white" transform="translate(0.744141 0.587891)"/>
</clipPath>
</defs>
</svg>
