<svg width="34" height="35" viewBox="0 0 34 35" fill="none" xmlns="http://www.w3.org/2000/svg">
<path d="M20.744 9.0879C20.4386 9.39945 20.2676 9.81831 20.2676 10.2546C20.2676 10.6908 20.4386 11.1097 20.744 11.4212L23.4107 14.0879C23.7222 14.3933 24.1411 14.5643 24.5774 14.5643C25.0136 14.5643 25.4325 14.3933 25.744 14.0879L32.0274 7.80456C32.8654 9.65655 33.1192 11.72 32.7548 13.7198C32.3904 15.7197 31.4252 17.561 29.9878 18.9984C28.5504 20.4358 26.7091 21.401 24.7093 21.7653C22.7094 22.1297 20.646 21.876 18.794 21.0379L7.27735 32.5546C6.61431 33.2176 5.71504 33.5901 4.77735 33.5901C3.83967 33.5901 2.9404 33.2176 2.27736 32.5546C1.61431 31.8915 1.24182 30.9922 1.24182 30.0546C1.24182 29.1169 1.61431 28.2176 2.27736 27.5546L13.794 16.0379C12.956 14.1859 12.7022 12.1225 13.0666 10.1227C13.431 8.1228 14.3962 6.28149 15.8336 4.8441C17.2709 3.40671 19.1123 2.44151 21.1121 2.07713C23.112 1.71276 25.1754 1.96651 27.0274 2.80456L20.7607 9.07123L20.744 9.0879Z" stroke="url(#paint0_linear)" stroke-width="2" stroke-linecap="round" stroke-linejoin="round"/>
<defs>
<linearGradient id="paint0_linear" x1="2.15662" y1="17.7526" x2="32.9168" y2="17.7526" gradientUnits="userSpaceOnUse">
<stop stop-color="#2933F2"/>
<stop offset="1" stop-color="#FA00FF"/>
</linearGradient>
</defs>
</svg>
