<svg width="137" height="41" viewBox="0 0 137 41" fill="none" xmlns="http://www.w3.org/2000/svg">
<path d="M131.337 40.0449H5.71281C3.15414 40.0449 1.09473 37.9859 1.09473 35.4277V5.66595C1.09473 3.10781 3.15414 1.04883 5.71281 1.04883H131.275C133.834 1.04883 135.893 3.10781 135.893 5.66595V35.4277C135.955 37.9859 133.896 40.0449 131.337 40.0449Z" fill="black"/>
<path d="M131.337 40.5441H5.7128C2.9045 40.5441 0.595459 38.2356 0.595459 35.4279V5.66608C0.595459 2.85837 2.9045 0.549805 5.7128 0.549805H131.275C134.083 0.549805 136.392 2.85837 136.392 5.66608V35.4279C136.455 38.298 134.146 40.5441 131.337 40.5441ZM5.7128 1.61049C3.46616 1.61049 1.59396 3.41991 1.59396 5.72848V35.4902C1.59396 37.7364 3.40375 39.6082 5.7128 39.6082H131.275C133.521 39.6082 135.394 37.7988 135.394 35.4902V5.72848C135.394 3.48231 133.584 1.61049 131.275 1.61049H5.7128Z" fill="#A7A9AC"/>
<path d="M69.1179 22.4501C66.7464 22.4501 64.8118 24.2596 64.8118 26.6929C64.8118 29.1263 66.7464 30.9357 69.1179 30.9357C71.4893 30.9357 73.424 29.1263 73.424 26.6929C73.424 24.2596 71.4893 22.4501 69.1179 22.4501ZM69.1179 29.3134C67.8074 29.3134 66.684 28.2527 66.684 26.7553C66.684 25.1955 67.8074 24.1972 69.1179 24.1972C70.4284 24.1972 71.5518 25.2579 71.5518 26.7553C71.5518 28.2527 70.4284 29.3134 69.1179 29.3134ZM59.8193 22.4501C57.4479 22.4501 55.5133 24.2596 55.5133 26.6929C55.5133 29.1263 57.4479 30.9357 59.8193 30.9357C62.1908 30.9357 64.1254 29.1263 64.1254 26.6929C64.063 24.2596 62.1284 22.4501 59.8193 22.4501ZM59.8193 29.3134C58.5088 29.3134 57.3855 28.2527 57.3855 26.7553C57.3855 25.1955 58.5088 24.1972 59.8193 24.1972C61.1299 24.1972 62.2532 25.2579 62.2532 26.7553C62.1908 28.2527 61.0674 29.3134 59.8193 29.3134ZM48.6485 23.7604V25.5698H52.9546C52.8298 26.5681 52.4553 27.3168 51.9561 27.8784C51.332 28.5023 50.3335 29.1886 48.5861 29.1886C45.9026 29.1886 43.8432 27.0673 43.8432 24.3843C43.8432 21.7014 45.9026 19.58 48.5861 19.58C50.0215 19.58 51.0824 20.1416 51.8313 20.8903L53.0794 19.6424C52.0185 18.5817 50.5831 17.833 48.5237 17.833C44.8417 17.833 41.7838 20.8279 41.7838 24.4467C41.7838 28.128 44.8417 31.0605 48.5237 31.0605C50.5207 31.0605 51.9561 30.4365 53.1418 29.1886C54.3275 28.0032 54.702 26.3185 54.702 24.9459C54.702 24.5091 54.6396 24.1348 54.5772 23.8228H48.6485V23.7604ZM94.1429 25.1955C93.7685 24.2596 92.7076 22.4501 90.4609 22.4501C88.2767 22.4501 86.4045 24.1972 86.4045 26.6929C86.4045 29.0639 88.2143 30.9357 90.6482 30.9357C92.5828 30.9357 93.7061 29.7502 94.2053 29.0639L92.77 28.0656C92.2707 28.7519 91.6467 29.251 90.6482 29.251C89.7121 29.251 89.0256 28.8143 88.5887 27.9408L94.2677 25.5698L94.1429 25.1955ZM88.3391 26.6305C88.2767 25.0083 89.5873 24.1348 90.5858 24.1348C91.3346 24.1348 91.9587 24.5091 92.1459 25.0707L88.3391 26.6305ZM83.6586 30.7485H85.5308V18.2074H83.6586V30.7485ZM80.6007 23.386H80.5383C80.1015 22.8869 79.2902 22.4501 78.2917 22.4501C76.1698 22.4501 74.1728 24.3219 74.1728 26.7553C74.1728 29.1263 76.1074 30.9981 78.2917 30.9981C79.2902 30.9981 80.1015 30.5613 80.5383 29.9998H80.6007V30.6237C80.6007 32.2459 79.727 33.1194 78.2917 33.1194C77.1683 33.1194 76.4195 32.3083 76.1698 31.622L74.5473 32.3083C75.0465 33.4314 76.2322 34.8041 78.3541 34.8041C80.5383 34.8041 82.4105 33.4938 82.4105 30.3741V22.6997H80.6007V23.386ZM78.4789 29.3134C77.1683 29.3134 76.1074 28.2527 76.1074 26.7553C76.1074 25.2579 77.1683 24.1348 78.4789 24.1348C79.727 24.1348 80.7879 25.2579 80.7879 26.7553C80.7255 28.2527 79.727 29.3134 78.4789 29.3134ZM102.942 18.2074H98.449V30.7485H100.321V26.0066H102.942C105.002 26.0066 107.061 24.5091 107.061 22.1382C107.061 19.7672 105.002 18.2074 102.942 18.2074ZM103.005 24.2596H100.321V19.9544H103.005C104.378 19.9544 105.189 21.1399 105.189 22.0758C105.189 23.0741 104.378 24.2596 103.005 24.2596ZM114.55 22.4501C113.177 22.4501 111.804 23.0741 111.18 24.3843L112.865 25.0707C113.239 24.3843 113.863 24.1348 114.55 24.1348C115.548 24.1348 116.484 24.6963 116.547 25.757V25.8818C116.235 25.6946 115.486 25.3826 114.612 25.3826C112.802 25.3826 110.993 26.3809 110.993 28.1904C110.993 29.875 112.49 30.9357 114.113 30.9357C115.361 30.9357 116.048 30.3741 116.484 29.6878H116.547V30.6861H118.357V25.8818C118.357 23.698 116.734 22.4501 114.55 22.4501ZM114.363 29.3134C113.739 29.3134 112.865 29.0015 112.865 28.2527C112.865 27.2544 113.926 26.9425 114.862 26.9425C115.673 26.9425 116.048 27.1297 116.547 27.3792C116.422 28.5023 115.424 29.3134 114.363 29.3134ZM124.972 22.6997L122.85 28.128H122.788L120.541 22.6997H118.544L121.914 30.3117L119.979 34.5545H121.914L127.094 22.6997H124.972ZM108.06 30.7485H109.932V18.2074H108.06V30.7485Z" fill="white"/>
<path d="M11.2045 8.22451C10.8925 8.53648 10.7677 9.03562 10.7677 9.65956V31.8093C10.7677 32.4333 10.9549 32.9324 11.2045 33.2444L11.267 33.3068L23.7483 20.828V20.7032V20.5785L11.3294 8.16211L11.2045 8.22451Z" fill="#5BC9F4"/>
<path d="M27.8671 25.0085L23.7483 20.8905V20.7657V20.6409L27.8671 16.5229L27.9295 16.5853L32.8596 19.3931C34.2326 20.2042 34.2326 21.5144 32.8596 22.2632L27.9295 25.0709L27.8671 25.0085Z" fill="url(#paint0_linear)"/>
<path d="M27.9295 24.9459L23.6859 20.7031L11.2046 33.1818C11.6414 33.681 12.4527 33.7434 13.264 33.2442L27.9295 24.9459Z" fill="url(#paint1_linear)"/>
<path d="M27.9295 16.4604L13.264 8.162C12.3903 7.66286 11.6414 7.72525 11.2046 8.2244L23.6859 20.7031L27.9295 16.4604Z" fill="url(#paint2_linear)"/>
<path d="M46.7764 8.91075C46.4019 8.59878 45.9027 8.3492 45.341 8.3492C44.0929 8.3492 43.1568 9.3475 43.1568 10.5954C43.1568 11.8432 44.0929 12.8415 45.341 12.8415C46.4019 12.8415 47.1508 12.2176 47.2132 11.2193H45.5282V10.533H48.0869C48.0869 12.592 46.9636 13.5903 45.2786 13.5903C43.5936 13.5903 42.2831 12.2176 42.2831 10.5954C42.2831 8.91075 43.5936 7.53809 45.2786 7.53809C46.0275 7.53809 46.7764 7.85006 47.2756 8.3492L46.7764 8.91075Z" fill="white"/>
<path d="M52.7049 7.66309V8.41181H50.0215V10.2836H52.3929V11.0323H50.0215V12.8418H52.8298V13.5905H49.2726V7.66309H52.7049Z" fill="white"/>
<path d="M57.8847 7.66309V8.41181H56.0749V13.5905H55.2636V8.41181H53.4539V7.66309H57.8847Z" fill="white"/>
<path d="M61.6915 7.66309V13.5905H60.8802V7.66309H61.6915Z" fill="white"/>
<path d="M67.1209 7.66309V8.41181H65.3111V13.5905H64.4998V8.41181H62.7524V7.66309H67.1209Z" fill="white"/>
<path d="M72.8 7.60059C74.4849 7.60059 75.7955 8.97324 75.7955 10.6579C75.7955 12.3425 74.4849 13.6528 72.8 13.6528C71.115 13.6528 69.8044 12.2801 69.8044 10.6579C69.8044 8.97324 71.115 7.60059 72.8 7.60059ZM72.8 12.904C74.0481 12.904 74.9842 11.9057 74.9842 10.6579C74.9842 9.41 74.0481 8.4117 72.8 8.4117C71.5518 8.4117 70.6157 9.41 70.6157 10.6579C70.6157 11.9057 71.5518 12.904 72.8 12.904Z" fill="white"/>
<path d="M80.476 13.5905L77.7925 9.16053V13.5905H76.9812V7.66309H77.7925L80.476 12.093V7.66309H81.2872V13.5905H80.476Z" fill="white"/>
<defs>
<linearGradient id="paint0_linear" x1="31.9543" y1="20.7042" x2="7.68715" y2="20.7042" gradientUnits="userSpaceOnUse">
<stop stop-color="#FEE000"/>
<stop offset="0.1941" stop-color="#FCCF0B"/>
<stop offset="0.5469" stop-color="#FAB318"/>
<stop offset="0.8279" stop-color="#F9A21B"/>
<stop offset="1" stop-color="#F99B1C"/>
</linearGradient>
<linearGradient id="paint1_linear" x1="25.6567" y1="23.0049" x2="2.83712" y2="45.8292" gradientUnits="userSpaceOnUse">
<stop stop-color="#EF4547"/>
<stop offset="1" stop-color="#C6186D"/>
</linearGradient>
<linearGradient id="paint2_linear" x1="2.73065" y1="-4.51901" x2="21.3623" y2="14.1165" gradientUnits="userSpaceOnUse">
<stop stop-color="#279E6F"/>
<stop offset="0.3168" stop-color="#4DAB6D"/>
<stop offset="0.7398" stop-color="#6ABA6A"/>
<stop offset="1" stop-color="#74C169"/>
</linearGradient>
</defs>
</svg>
