<svg width="217" height="52" viewBox="0 0 217 52" fill="none" xmlns="http://www.w3.org/2000/svg">
<path d="M78.5741 37.7879V47.5879H77.5801V39.7479L73.7301 46.3419H73.2401L69.3901 39.7899V47.5879H68.3961V37.7879H69.2501L73.5061 45.0539L77.7201 37.7879H78.5741ZM88.7786 44.2139H82.6186C82.6746 44.9792 82.9686 45.5999 83.5006 46.0759C84.0326 46.5426 84.7046 46.7759 85.5166 46.7759C85.9739 46.7759 86.3939 46.6966 86.7766 46.5379C87.1593 46.3699 87.4906 46.1272 87.7706 45.8099L88.3306 46.4539C88.0039 46.8459 87.5933 47.1446 87.0986 47.3499C86.6133 47.5552 86.0766 47.6579 85.4886 47.6579C84.7326 47.6579 84.0606 47.4992 83.4726 47.1819C82.8939 46.8552 82.4413 46.4072 82.1146 45.8379C81.7879 45.2686 81.6246 44.6246 81.6246 43.9059C81.6246 43.1872 81.7786 42.5432 82.0866 41.9739C82.4039 41.4046 82.8333 40.9612 83.3746 40.6439C83.9253 40.3266 84.5413 40.1679 85.2226 40.1679C85.9039 40.1679 86.5153 40.3266 87.0566 40.6439C87.5979 40.9612 88.0226 41.4046 88.3306 41.9739C88.6386 42.5339 88.7926 43.1779 88.7926 43.9059L88.7786 44.2139ZM85.2226 41.0219C84.5133 41.0219 83.9159 41.2506 83.4306 41.7079C82.9546 42.1559 82.6839 42.7439 82.6186 43.4719H87.8406C87.7753 42.7439 87.4999 42.1559 87.0146 41.7079C86.5386 41.2506 85.9413 41.0219 85.2226 41.0219ZM98.7245 46.7199V49.3659H97.7865V47.5879H91.1925V49.3659H90.2545V46.7199H90.6745C91.1692 46.6919 91.5052 46.3279 91.6825 45.6279C91.8598 44.9279 91.9812 43.9479 92.0465 42.6879L92.1445 40.2239H97.5765V46.7199H98.7245ZM92.9565 42.7439C92.9098 43.7892 92.8212 44.6526 92.6905 45.3339C92.5598 46.0059 92.3265 46.4679 91.9905 46.7199H96.5825V41.1059H93.0405L92.9565 42.7439ZM104.386 47.6579C103.658 47.6579 103.004 47.4992 102.426 47.1819C101.856 46.8646 101.408 46.4212 101.082 45.8519C100.755 45.2732 100.592 44.6246 100.592 43.9059C100.592 43.1872 100.755 42.5432 101.082 41.9739C101.408 41.4046 101.856 40.9612 102.426 40.6439C103.004 40.3266 103.658 40.1679 104.386 40.1679C105.02 40.1679 105.585 40.2939 106.08 40.5459C106.584 40.7886 106.98 41.1479 107.27 41.6239L106.528 42.1279C106.285 41.7639 105.977 41.4932 105.604 41.3159C105.23 41.1292 104.824 41.0359 104.386 41.0359C103.854 41.0359 103.373 41.1572 102.944 41.3999C102.524 41.6332 102.192 41.9692 101.95 42.4079C101.716 42.8466 101.6 43.3459 101.6 43.9059C101.6 44.4752 101.716 44.9792 101.95 45.4179C102.192 45.8472 102.524 46.1832 102.944 46.4259C103.373 46.6592 103.854 46.7759 104.386 46.7759C104.824 46.7759 105.23 46.6872 105.604 46.5099C105.977 46.3326 106.285 46.0619 106.528 45.6979L107.27 46.2019C106.98 46.6779 106.584 47.0419 106.08 47.2939C105.576 47.5366 105.011 47.6579 104.386 47.6579ZM116.267 44.2139H110.107C110.163 44.9792 110.457 45.5999 110.989 46.0759C111.521 46.5426 112.193 46.7759 113.005 46.7759C113.463 46.7759 113.883 46.6966 114.265 46.5379C114.648 46.3699 114.979 46.1272 115.259 45.8099L115.819 46.4539C115.493 46.8459 115.082 47.1446 114.587 47.3499C114.102 47.5552 113.565 47.6579 112.977 47.6579C112.221 47.6579 111.549 47.4992 110.961 47.1819C110.383 46.8552 109.93 46.4072 109.603 45.8379C109.277 45.2686 109.113 44.6246 109.113 43.9059C109.113 43.1872 109.267 42.5432 109.575 41.9739C109.893 41.4046 110.322 40.9612 110.863 40.6439C111.414 40.3266 112.03 40.1679 112.711 40.1679C113.393 40.1679 114.004 40.3266 114.545 40.6439C115.087 40.9612 115.511 41.4046 115.819 41.9739C116.127 42.5339 116.281 43.1779 116.281 43.9059L116.267 44.2139ZM112.711 41.0219C112.002 41.0219 111.405 41.2506 110.919 41.7079C110.443 42.1559 110.173 42.7439 110.107 43.4719H115.329C115.264 42.7439 114.989 42.1559 114.503 41.7079C114.027 41.2506 113.43 41.0219 112.711 41.0219ZM122.976 40.1679C123.666 40.1679 124.292 40.3266 124.852 40.6439C125.412 40.9519 125.85 41.3906 126.168 41.9599C126.485 42.5292 126.644 43.1779 126.644 43.9059C126.644 44.6432 126.485 45.2966 126.168 45.8659C125.85 46.4352 125.412 46.8786 124.852 47.1959C124.301 47.5039 123.676 47.6579 122.976 47.6579C122.378 47.6579 121.837 47.5366 121.352 47.2939C120.876 47.0419 120.484 46.6779 120.176 46.2019V50.3039H119.182V40.2239H120.134V41.6799C120.432 41.1946 120.824 40.8212 121.31 40.5599C121.804 40.2986 122.36 40.1679 122.976 40.1679ZM122.906 46.7759C123.419 46.7759 123.886 46.6592 124.306 46.4259C124.726 46.1832 125.052 45.8426 125.286 45.4039C125.528 44.9652 125.65 44.4659 125.65 43.9059C125.65 43.3459 125.528 42.8512 125.286 42.4219C125.052 41.9832 124.726 41.6426 124.306 41.3999C123.886 41.1572 123.419 41.0359 122.906 41.0359C122.383 41.0359 121.912 41.1572 121.492 41.3999C121.081 41.6426 120.754 41.9832 120.512 42.4219C120.278 42.8512 120.162 43.3459 120.162 43.9059C120.162 44.4659 120.278 44.9652 120.512 45.4039C120.754 45.8426 121.081 46.1832 121.492 46.4259C121.912 46.6592 122.383 46.7759 122.906 46.7759ZM134.169 43.7799C135.168 44.0132 135.667 44.6152 135.667 45.5859C135.667 46.2299 135.429 46.7246 134.953 47.0699C134.477 47.4152 133.768 47.5879 132.825 47.5879H129.479V40.2239H132.727C133.567 40.2239 134.225 40.3872 134.701 40.7139C135.177 41.0406 135.415 41.5072 135.415 42.1139C135.415 42.5152 135.303 42.8606 135.079 43.1499C134.865 43.4299 134.561 43.6399 134.169 43.7799ZM130.445 43.4999H132.657C133.227 43.4999 133.661 43.3926 133.959 43.1779C134.267 42.9632 134.421 42.6506 134.421 42.2399C134.421 41.8292 134.267 41.5212 133.959 41.3159C133.661 41.1106 133.227 41.0079 132.657 41.0079H130.445V43.4999ZM132.783 46.8039C133.418 46.8039 133.894 46.7012 134.211 46.4959C134.529 46.2906 134.687 45.9686 134.687 45.5299C134.687 45.0912 134.543 44.7692 134.253 44.5639C133.964 44.3492 133.507 44.2419 132.881 44.2419H130.445V46.8039H132.783ZM138.697 40.2239H139.691V46.0759L144.605 40.2239H145.487V47.5879H144.493V41.7359L139.593 47.5879H138.697V40.2239ZM152.115 47.6579C151.387 47.6579 150.734 47.4992 150.155 47.1819C149.586 46.8646 149.138 46.4212 148.811 45.8519C148.485 45.2732 148.321 44.6246 148.321 43.9059C148.321 43.1872 148.485 42.5432 148.811 41.9739C149.138 41.4046 149.586 40.9612 150.155 40.6439C150.734 40.3266 151.387 40.1679 152.115 40.1679C152.75 40.1679 153.315 40.2939 153.809 40.5459C154.313 40.7886 154.71 41.1479 154.999 41.6239L154.257 42.1279C154.015 41.7639 153.707 41.4932 153.333 41.3159C152.96 41.1292 152.554 41.0359 152.115 41.0359C151.583 41.0359 151.103 41.1572 150.673 41.3999C150.253 41.6332 149.922 41.9692 149.679 42.4079C149.446 42.8466 149.329 43.3459 149.329 43.9059C149.329 44.4752 149.446 44.9792 149.679 45.4179C149.922 45.8472 150.253 46.1832 150.673 46.4259C151.103 46.6592 151.583 46.7759 152.115 46.7759C152.554 46.7759 152.96 46.6872 153.333 46.5099C153.707 46.3326 154.015 46.0619 154.257 45.6979L154.999 46.2019C154.71 46.6779 154.313 47.0419 153.809 47.2939C153.305 47.5366 152.741 47.6579 152.115 47.6579Z" fill="white"/>
<path d="M78.7141 8.58789C80.6541 8.58789 82.3441 8.90789 83.7841 9.54789C85.2241 10.1879 86.3341 11.1079 87.1141 12.3079C87.8941 13.5079 88.2841 14.9079 88.2841 16.5079C88.2841 18.1079 87.8941 19.5079 87.1141 20.7079C86.3341 21.9079 85.2241 22.8279 83.7841 23.4679C82.3441 24.1079 80.6541 24.4279 78.7141 24.4279H75.6841V29.5879H68.6041V8.58789H78.7141ZM78.2641 18.9679C79.2241 18.9679 79.9441 18.7579 80.4241 18.3379C80.9041 17.8979 81.1441 17.2879 81.1441 16.5079C81.1441 15.7279 80.9041 15.1279 80.4241 14.7079C79.9441 14.2679 79.2241 14.0479 78.2641 14.0479H75.6841V18.9679H78.2641ZM109.593 13.1779L102.843 29.9179C101.983 32.0579 100.913 33.5579 99.6333 34.4179C98.3533 35.2779 96.7833 35.7079 94.9233 35.7079C94.0033 35.7079 93.0733 35.5679 92.1333 35.2879C91.2133 35.0279 90.4833 34.6779 89.9433 34.2379L92.1933 29.5879C92.5333 29.8479 92.9133 30.0579 93.3333 30.2179C93.7733 30.3779 94.1933 30.4579 94.5933 30.4579C95.3333 30.4579 95.8933 30.2379 96.2733 29.7979L89.3733 13.1779H96.3333L99.7233 21.9679L103.173 13.1779H109.593ZM119.863 29.8879C118.003 29.8879 116.333 29.5279 114.853 28.8079C113.393 28.0879 112.243 27.0779 111.403 25.7779C110.583 24.4779 110.173 23.0079 110.173 21.3679C110.173 19.7279 110.583 18.2679 111.403 16.9879C112.243 15.6879 113.393 14.6779 114.853 13.9579C116.333 13.2379 118.003 12.8779 119.863 12.8779C121.863 12.8779 123.573 13.3079 124.993 14.1679C126.413 15.0279 127.393 16.2179 127.933 17.7379L122.683 20.3179C122.043 18.8779 121.093 18.1579 119.833 18.1579C119.033 18.1579 118.363 18.4379 117.823 18.9979C117.303 19.5579 117.043 20.3479 117.043 21.3679C117.043 22.4079 117.303 23.2079 117.823 23.7679C118.363 24.3279 119.033 24.6079 119.833 24.6079C121.093 24.6079 122.043 23.8879 122.683 22.4479L127.933 25.0279C127.393 26.5479 126.413 27.7379 124.993 28.5979C123.573 29.4579 121.863 29.8879 119.863 29.8879ZM145.488 25.9279H137.508L136.098 29.5879H128.898L138.078 8.58789H145.038L154.218 29.5879H146.898L145.488 25.9279ZM143.538 20.8279L141.498 15.5479L139.458 20.8279H143.538ZM170.385 18.4579H165.375V29.5879H158.625V18.4579H153.615V13.1779H170.385V18.4579ZM180.81 29.8879C178.99 29.8879 177.35 29.5279 175.89 28.8079C174.45 28.0679 173.32 27.0579 172.5 25.7779C171.68 24.4779 171.27 23.0079 171.27 21.3679C171.27 19.7279 171.68 18.2679 172.5 16.9879C173.32 15.6879 174.45 14.6779 175.89 13.9579C177.35 13.2379 178.99 12.8779 180.81 12.8779C182.65 12.8779 184.29 13.2379 185.73 13.9579C187.19 14.6779 188.32 15.6879 189.12 16.9879C189.94 18.2679 190.35 19.7279 190.35 21.3679C190.35 23.0079 189.94 24.4779 189.12 25.7779C188.32 27.0579 187.19 28.0679 185.73 28.8079C184.29 29.5279 182.65 29.8879 180.81 29.8879ZM180.81 24.6079C181.59 24.6079 182.23 24.3279 182.73 23.7679C183.23 23.1879 183.48 22.3879 183.48 21.3679C183.48 20.3479 183.23 19.5579 182.73 18.9979C182.23 18.4379 181.59 18.1579 180.81 18.1579C180.03 18.1579 179.39 18.4379 178.89 18.9979C178.39 19.5579 178.14 20.3479 178.14 21.3679C178.14 22.3879 178.39 23.1879 178.89 23.7679C179.39 24.3279 180.03 24.6079 180.81 24.6079ZM208.857 29.5879L208.827 22.2379L205.347 28.2979H202.497L199.137 22.0879V29.5879H193.047V13.1779H200.217L204.117 20.8279L208.527 13.1779H214.887L214.947 29.5879H208.857Z" fill="white"/>
<g clip-path="url(#clip0)">
<path d="M47.1556 5.16681C42.8357 0.845177 34.2658 2.13449 25.2441 7.69288C16.2224 2.13624 7.65263 0.846923 3.33274 5.16681C-0.987247 9.4868 0.302068 18.0566 5.86056 27.0765C0.302068 36.0982 -0.987247 44.668 3.33274 48.988C5.25363 50.775 7.81604 51.7084 10.4362 51.5753C15.7384 51.2229 20.8504 49.4612 25.2442 46.4724C29.6379 49.4613 34.7499 51.2229 40.0522 51.5753C42.6724 51.7083 45.2348 50.7749 47.1557 48.988C51.4756 44.6681 50.1863 36.0982 44.6279 27.0765C50.1863 18.0566 51.4756 9.4868 47.1556 5.16681ZM39.975 6.05499C41.692 5.93808 43.3848 6.51052 44.6786 7.64567C47.3447 10.3118 46.6598 16.5659 42.4941 23.8761C40.5427 21.1814 38.3788 18.6472 36.023 16.2979C33.672 13.9379 31.1355 11.7704 28.4377 9.81618C31.9117 7.62421 35.8766 6.33161 39.975 6.05499ZM5.80975 7.64382C7.10369 6.50939 8.7965 5.93756 10.5133 6.05499C14.6123 6.3351 18.5772 7.63058 22.0506 9.8248C16.6551 13.7406 11.9113 18.4833 7.99423 23.8777C3.82841 16.5658 3.14347 10.3118 5.80975 7.64382ZM5.80975 46.511C3.14357 43.8429 3.82851 37.5873 7.99423 30.2788C9.9456 32.9735 12.1095 35.5077 14.4653 37.857C16.8135 40.2128 19.3465 42.3768 22.0401 44.3282C14.7333 48.494 8.47594 49.1789 5.80975 46.511ZM16.9424 35.3748C14.3788 32.8284 12.056 30.0505 10.0036 27.0765C14.1406 21.1334 19.3011 15.9729 25.2442 11.8359C28.2194 13.8915 30.9983 16.2172 33.546 18.7835C36.109 21.3286 38.4318 24.1047 40.4848 27.0765C38.4311 30.0525 36.1064 32.8322 33.5407 35.38C30.9945 37.9428 28.2173 40.265 25.2442 42.3171C22.2691 40.2635 19.49 37.9396 16.9424 35.3748ZM44.6786 46.511C42.0105 49.1808 35.7549 48.494 28.4481 44.3283C31.1417 42.3769 33.6748 40.2128 36.0229 37.8572C38.3787 35.5078 40.5427 32.9736 42.494 30.2789C46.6598 37.5873 47.3447 43.8429 44.6786 46.511Z" fill="white"/>
<g filter="url(#filter0_d)">
<path d="M25.244 34.0838C29.114 34.0838 32.2513 30.9465 32.2513 27.0766C32.2513 23.2066 29.114 20.0693 25.244 20.0693C21.3741 20.0693 18.2368 23.2066 18.2368 27.0766C18.2368 30.9465 21.3741 34.0838 25.244 34.0838Z" fill="white"/>
</g>
</g>
<defs>
<filter id="filter0_d" x="14.2368" y="20.0693" width="22.0144" height="22.0144" filterUnits="userSpaceOnUse" color-interpolation-filters="sRGB">
<feFlood flood-opacity="0" result="BackgroundImageFix"/>
<feColorMatrix in="SourceAlpha" type="matrix" values="0 0 0 0 0 0 0 0 0 0 0 0 0 0 0 0 0 0 127 0"/>
<feOffset dy="4"/>
<feGaussianBlur stdDeviation="2"/>
<feColorMatrix type="matrix" values="0 0 0 0 0 0 0 0 0 0 0 0 0 0 0 0 0 0 0.25 0"/>
<feBlend mode="normal" in2="BackgroundImageFix" result="effect1_dropShadow"/>
<feBlend mode="normal" in="SourceGraphic" in2="effect1_dropShadow" result="shape"/>
</filter>
<clipPath id="clip0">
<rect width="49" height="49" fill="white" transform="translate(0.744141 2.58789)"/>
</clipPath>
</defs>
</svg>
