<svg width="217" height="52" viewBox="0 0 217 52" fill="none" xmlns="http://www.w3.org/2000/svg">
<path d="M77.7761 47.5879L77.7621 39.2019L73.6601 46.2859H73.3101L69.2081 39.2299V47.5879H68.5081V37.7879H69.1101L73.4921 45.3619L77.8741 37.7879H78.4621L78.4761 47.5879H77.7761ZM88.6803 44.1019H82.3943C82.4129 44.6712 82.5576 45.1799 82.8283 45.6279C83.0989 46.0666 83.4629 46.4072 83.9203 46.6499C84.3869 46.8926 84.9096 47.0139 85.4883 47.0139C85.9643 47.0139 86.4029 46.9299 86.8043 46.7619C87.2149 46.5846 87.5556 46.3279 87.8263 45.9919L88.2323 46.4539C87.9149 46.8366 87.5136 47.1306 87.0283 47.3359C86.5523 47.5412 86.0343 47.6439 85.4743 47.6439C84.7463 47.6439 84.0976 47.4852 83.5283 47.1679C82.9589 46.8506 82.5109 46.4119 82.1843 45.8519C81.8669 45.2919 81.7083 44.6526 81.7083 43.9339C81.7083 43.2246 81.8576 42.5899 82.1563 42.0299C82.4643 41.4606 82.8843 41.0172 83.4163 40.6999C83.9483 40.3826 84.5456 40.2239 85.2083 40.2239C85.8709 40.2239 86.4636 40.3826 86.9863 40.6999C87.5183 41.0079 87.9336 41.4419 88.2323 42.0019C88.5403 42.5619 88.6943 43.1966 88.6943 43.9059L88.6803 44.1019ZM85.2083 40.8399C84.6949 40.8399 84.2329 40.9566 83.8223 41.1899C83.4116 41.4139 83.0803 41.7359 82.8283 42.1559C82.5856 42.5666 82.4456 43.0332 82.4083 43.5559H88.0083C87.9803 43.0332 87.8403 42.5666 87.5883 42.1559C87.3363 41.7452 87.0049 41.4232 86.5943 41.1899C86.1836 40.9566 85.7216 40.8399 85.2083 40.8399ZM98.3778 46.9719V49.4079H97.7198V47.5879H90.8038V49.4079H90.1318V46.9719H90.5658C91.0605 46.9439 91.3965 46.5612 91.5738 45.8239C91.7605 45.0772 91.8911 44.0319 91.9658 42.6879L92.0638 40.2799H97.2018V46.9719H98.3778ZM92.6098 42.7299C92.5631 43.8406 92.4698 44.7646 92.3298 45.5019C92.1898 46.2392 91.9378 46.7292 91.5738 46.9719H96.5018V40.9099H92.6938L92.6098 42.7299ZM104.015 47.6439C103.306 47.6439 102.671 47.4852 102.111 47.1679C101.551 46.8506 101.113 46.4119 100.795 45.8519C100.478 45.2826 100.319 44.6432 100.319 43.9339C100.319 43.2152 100.478 42.5759 100.795 42.0159C101.113 41.4466 101.551 41.0079 102.111 40.6999C102.671 40.3826 103.306 40.2239 104.015 40.2239C104.603 40.2239 105.135 40.3406 105.611 40.5739C106.097 40.7979 106.489 41.1292 106.787 41.5679L106.269 41.9459C106.008 41.5819 105.681 41.3112 105.289 41.1339C104.907 40.9472 104.482 40.8539 104.015 40.8539C103.446 40.8539 102.933 40.9846 102.475 41.2459C102.027 41.4979 101.673 41.8572 101.411 42.3239C101.159 42.7906 101.033 43.3272 101.033 43.9339C101.033 44.5406 101.159 45.0772 101.411 45.5439C101.673 46.0106 102.027 46.3746 102.475 46.6359C102.933 46.8879 103.446 47.0139 104.015 47.0139C104.482 47.0139 104.907 46.9252 105.289 46.7479C105.681 46.5612 106.008 46.2859 106.269 45.9219L106.787 46.2999C106.489 46.7386 106.097 47.0746 105.611 47.3079C105.135 47.5319 104.603 47.6439 104.015 47.6439ZM115.718 44.1019H109.432C109.45 44.6712 109.595 45.1799 109.866 45.6279C110.136 46.0666 110.5 46.4072 110.958 46.6499C111.424 46.8926 111.947 47.0139 112.526 47.0139C113.002 47.0139 113.44 46.9299 113.842 46.7619C114.252 46.5846 114.593 46.3279 114.864 45.9919L115.27 46.4539C114.952 46.8366 114.551 47.1306 114.066 47.3359C113.59 47.5412 113.072 47.6439 112.512 47.6439C111.784 47.6439 111.135 47.4852 110.566 47.1679C109.996 46.8506 109.548 46.4119 109.222 45.8519C108.904 45.2919 108.746 44.6526 108.746 43.9339C108.746 43.2246 108.895 42.5899 109.194 42.0299C109.502 41.4606 109.922 41.0172 110.454 40.6999C110.986 40.3826 111.583 40.2239 112.246 40.2239C112.908 40.2239 113.501 40.3826 114.024 40.6999C114.556 41.0079 114.971 41.4419 115.27 42.0019C115.578 42.5619 115.732 43.1966 115.732 43.9059L115.718 44.1019ZM112.246 40.8399C111.732 40.8399 111.27 40.9566 110.86 41.1899C110.449 41.4139 110.118 41.7359 109.866 42.1559C109.623 42.5666 109.483 43.0332 109.446 43.5559H115.046C115.018 43.0332 114.878 42.5666 114.626 42.1559C114.374 41.7452 114.042 41.4232 113.632 41.1899C113.221 40.9566 112.759 40.8399 112.246 40.8399ZM122.401 40.2239C123.082 40.2239 123.698 40.3826 124.249 40.6999C124.8 41.0172 125.229 41.4559 125.537 42.0159C125.854 42.5759 126.013 43.2152 126.013 43.9339C126.013 44.6526 125.854 45.2966 125.537 45.8659C125.229 46.4259 124.8 46.8646 124.249 47.1819C123.698 47.4899 123.082 47.6439 122.401 47.6439C121.757 47.6439 121.174 47.4946 120.651 47.1959C120.128 46.8879 119.722 46.4632 119.433 45.9219V50.3039H118.733V40.2799H119.405V42.0019C119.694 41.4419 120.1 41.0079 120.623 40.6999C121.155 40.3826 121.748 40.2239 122.401 40.2239ZM122.359 47.0139C122.919 47.0139 123.423 46.8832 123.871 46.6219C124.319 46.3606 124.669 45.9966 124.921 45.5299C125.182 45.0632 125.313 44.5312 125.313 43.9339C125.313 43.3366 125.182 42.8046 124.921 42.3379C124.669 41.8712 124.319 41.5072 123.871 41.2459C123.423 40.9846 122.919 40.8539 122.359 40.8539C121.799 40.8539 121.295 40.9846 120.847 41.2459C120.408 41.5072 120.058 41.8712 119.797 42.3379C119.545 42.8046 119.419 43.3366 119.419 43.9339C119.419 44.5312 119.545 45.0632 119.797 45.5299C120.058 45.9966 120.408 46.3606 120.847 46.6219C121.295 46.8832 121.799 47.0139 122.359 47.0139ZM133.315 43.8219C134.389 44.0086 134.925 44.6106 134.925 45.6279C134.925 46.2626 134.692 46.7479 134.225 47.0839C133.768 47.4199 133.077 47.5879 132.153 47.5879H128.989V40.2799H132.069C132.881 40.2799 133.516 40.4432 133.973 40.7699C134.44 41.0872 134.673 41.5446 134.673 42.1419C134.673 42.5712 134.552 42.9306 134.309 43.2199C134.076 43.4999 133.745 43.7006 133.315 43.8219ZM129.675 43.6119H132.027C132.653 43.6119 133.133 43.4952 133.469 43.2619C133.805 43.0192 133.973 42.6739 133.973 42.2259C133.973 41.7686 133.805 41.4279 133.469 41.2039C133.143 40.9706 132.662 40.8539 132.027 40.8539H129.675V43.6119ZM132.139 47.0139C133.53 47.0139 134.225 46.5426 134.225 45.5999C134.225 45.1052 134.067 44.7412 133.749 44.5079C133.432 44.2746 132.933 44.1579 132.251 44.1579H129.675V47.0139H132.139ZM138.111 40.2799H138.811V46.5099L144.019 40.2799H144.635V47.5879H143.935V41.3579L138.727 47.5879H138.111V40.2799ZM151.308 47.6439C150.599 47.6439 149.964 47.4852 149.404 47.1679C148.844 46.8506 148.406 46.4119 148.088 45.8519C147.771 45.2826 147.612 44.6432 147.612 43.9339C147.612 43.2152 147.771 42.5759 148.088 42.0159C148.406 41.4466 148.844 41.0079 149.404 40.6999C149.964 40.3826 150.599 40.2239 151.308 40.2239C151.896 40.2239 152.428 40.3406 152.904 40.5739C153.39 40.7979 153.782 41.1292 154.08 41.5679L153.562 41.9459C153.301 41.5819 152.974 41.3112 152.582 41.1339C152.2 40.9472 151.775 40.8539 151.308 40.8539C150.739 40.8539 150.226 40.9846 149.768 41.2459C149.32 41.4979 148.966 41.8572 148.704 42.3239C148.452 42.7906 148.326 43.3272 148.326 43.9339C148.326 44.5406 148.452 45.0772 148.704 45.5439C148.966 46.0106 149.32 46.3746 149.768 46.6359C150.226 46.8879 150.739 47.0139 151.308 47.0139C151.775 47.0139 152.2 46.9252 152.582 46.7479C152.974 46.5612 153.301 46.2859 153.562 45.9219L154.08 46.2999C153.782 46.7386 153.39 47.0746 152.904 47.3079C152.428 47.5319 151.896 47.6439 151.308 47.6439Z" fill="black"/>
<path d="M78.7141 8.58789C80.6541 8.58789 82.3441 8.90789 83.7841 9.54789C85.2241 10.1879 86.3341 11.1079 87.1141 12.3079C87.8941 13.5079 88.2841 14.9079 88.2841 16.5079C88.2841 18.1079 87.8941 19.5079 87.1141 20.7079C86.3341 21.9079 85.2241 22.8279 83.7841 23.4679C82.3441 24.1079 80.6541 24.4279 78.7141 24.4279H75.6841V29.5879H68.6041V8.58789H78.7141ZM78.2641 18.9679C79.2241 18.9679 79.9441 18.7579 80.4241 18.3379C80.9041 17.8979 81.1441 17.2879 81.1441 16.5079C81.1441 15.7279 80.9041 15.1279 80.4241 14.7079C79.9441 14.2679 79.2241 14.0479 78.2641 14.0479H75.6841V18.9679H78.2641ZM109.593 13.1779L102.843 29.9179C101.983 32.0579 100.913 33.5579 99.6333 34.4179C98.3533 35.2779 96.7833 35.7079 94.9233 35.7079C94.0033 35.7079 93.0733 35.5679 92.1333 35.2879C91.2133 35.0279 90.4833 34.6779 89.9433 34.2379L92.1933 29.5879C92.5333 29.8479 92.9133 30.0579 93.3333 30.2179C93.7733 30.3779 94.1933 30.4579 94.5933 30.4579C95.3333 30.4579 95.8933 30.2379 96.2733 29.7979L89.3733 13.1779H96.3333L99.7233 21.9679L103.173 13.1779H109.593ZM119.863 29.8879C118.003 29.8879 116.333 29.5279 114.853 28.8079C113.393 28.0879 112.243 27.0779 111.403 25.7779C110.583 24.4779 110.173 23.0079 110.173 21.3679C110.173 19.7279 110.583 18.2679 111.403 16.9879C112.243 15.6879 113.393 14.6779 114.853 13.9579C116.333 13.2379 118.003 12.8779 119.863 12.8779C121.863 12.8779 123.573 13.3079 124.993 14.1679C126.413 15.0279 127.393 16.2179 127.933 17.7379L122.683 20.3179C122.043 18.8779 121.093 18.1579 119.833 18.1579C119.033 18.1579 118.363 18.4379 117.823 18.9979C117.303 19.5579 117.043 20.3479 117.043 21.3679C117.043 22.4079 117.303 23.2079 117.823 23.7679C118.363 24.3279 119.033 24.6079 119.833 24.6079C121.093 24.6079 122.043 23.8879 122.683 22.4479L127.933 25.0279C127.393 26.5479 126.413 27.7379 124.993 28.5979C123.573 29.4579 121.863 29.8879 119.863 29.8879ZM145.488 25.9279H137.508L136.098 29.5879H128.898L138.078 8.58789H145.038L154.218 29.5879H146.898L145.488 25.9279ZM143.538 20.8279L141.498 15.5479L139.458 20.8279H143.538ZM170.385 18.4579H165.375V29.5879H158.625V18.4579H153.615V13.1779H170.385V18.4579ZM180.81 29.8879C178.99 29.8879 177.35 29.5279 175.89 28.8079C174.45 28.0679 173.32 27.0579 172.5 25.7779C171.68 24.4779 171.27 23.0079 171.27 21.3679C171.27 19.7279 171.68 18.2679 172.5 16.9879C173.32 15.6879 174.45 14.6779 175.89 13.9579C177.35 13.2379 178.99 12.8779 180.81 12.8779C182.65 12.8779 184.29 13.2379 185.73 13.9579C187.19 14.6779 188.32 15.6879 189.12 16.9879C189.94 18.2679 190.35 19.7279 190.35 21.3679C190.35 23.0079 189.94 24.4779 189.12 25.7779C188.32 27.0579 187.19 28.0679 185.73 28.8079C184.29 29.5279 182.65 29.8879 180.81 29.8879ZM180.81 24.6079C181.59 24.6079 182.23 24.3279 182.73 23.7679C183.23 23.1879 183.48 22.3879 183.48 21.3679C183.48 20.3479 183.23 19.5579 182.73 18.9979C182.23 18.4379 181.59 18.1579 180.81 18.1579C180.03 18.1579 179.39 18.4379 178.89 18.9979C178.39 19.5579 178.14 20.3479 178.14 21.3679C178.14 22.3879 178.39 23.1879 178.89 23.7679C179.39 24.3279 180.03 24.6079 180.81 24.6079ZM208.857 29.5879L208.827 22.2379L205.347 28.2979H202.497L199.137 22.0879V29.5879H193.047V13.1779H200.217L204.117 20.8279L208.527 13.1779H214.887L214.947 29.5879H208.857Z" fill="#00A3FF"/>
<g clip-path="url(#clip0)">
<path d="M47.1556 5.16681C42.8357 0.845177 34.2658 2.13449 25.2441 7.69288C16.2224 2.13624 7.65263 0.846923 3.33274 5.16681C-0.987247 9.4868 0.302068 18.0566 5.86056 27.0765C0.302068 36.0982 -0.987247 44.668 3.33274 48.988C5.25363 50.775 7.81604 51.7084 10.4362 51.5753C15.7384 51.2229 20.8504 49.4612 25.2442 46.4724C29.6379 49.4613 34.7499 51.2229 40.0522 51.5753C42.6724 51.7083 45.2348 50.7749 47.1557 48.988C51.4756 44.6681 50.1863 36.0982 44.6279 27.0765C50.1863 18.0566 51.4756 9.4868 47.1556 5.16681ZM39.975 6.05499C41.692 5.93808 43.3848 6.51052 44.6786 7.64567C47.3447 10.3118 46.6598 16.5659 42.4941 23.8761C40.5427 21.1814 38.3788 18.6472 36.023 16.2979C33.672 13.9379 31.1355 11.7704 28.4377 9.81618C31.9117 7.62421 35.8766 6.33161 39.975 6.05499ZM5.80975 7.64382C7.10369 6.50939 8.7965 5.93756 10.5133 6.05499C14.6123 6.3351 18.5772 7.63058 22.0506 9.8248C16.6551 13.7406 11.9113 18.4833 7.99423 23.8777C3.82841 16.5658 3.14347 10.3118 5.80975 7.64382ZM5.80975 46.511C3.14357 43.8429 3.82851 37.5873 7.99423 30.2788C9.9456 32.9735 12.1095 35.5077 14.4653 37.857C16.8135 40.2128 19.3465 42.3768 22.0401 44.3282C14.7333 48.494 8.47594 49.1789 5.80975 46.511ZM16.9424 35.3748C14.3788 32.8284 12.056 30.0505 10.0036 27.0765C14.1406 21.1334 19.3011 15.9729 25.2442 11.8359C28.2194 13.8915 30.9983 16.2172 33.546 18.7835C36.109 21.3286 38.4318 24.1047 40.4848 27.0765C38.4311 30.0525 36.1064 32.8322 33.5407 35.38C30.9945 37.9428 28.2173 40.265 25.2442 42.3171C22.2691 40.2635 19.49 37.9396 16.9424 35.3748ZM44.6786 46.511C42.0105 49.1808 35.7549 48.494 28.4481 44.3283C31.1417 42.3769 33.6748 40.2128 36.0229 37.8572C38.3787 35.5078 40.5427 32.9736 42.494 30.2789C46.6598 37.5873 47.3447 43.8429 44.6786 46.511Z" fill="url(#paint0_radial)"/>
<g filter="url(#filter0_d)">
<path d="M25.244 34.0838C29.114 34.0838 32.2513 30.9465 32.2513 27.0766C32.2513 23.2066 29.114 20.0693 25.244 20.0693C21.3741 20.0693 18.2368 23.2066 18.2368 27.0766C18.2368 30.9465 21.3741 34.0838 25.244 34.0838Z" fill="url(#paint1_radial)"/>
</g>
</g>
<defs>
<filter id="filter0_d" x="14.2368" y="20.0693" width="22.0144" height="22.0144" filterUnits="userSpaceOnUse" color-interpolation-filters="sRGB">
<feFlood flood-opacity="0" result="BackgroundImageFix"/>
<feColorMatrix in="SourceAlpha" type="matrix" values="0 0 0 0 0 0 0 0 0 0 0 0 0 0 0 0 0 0 127 0"/>
<feOffset dy="4"/>
<feGaussianBlur stdDeviation="2"/>
<feColorMatrix type="matrix" values="0 0 0 0 0 0 0 0 0 0 0 0 0 0 0 0 0 0 0.25 0"/>
<feBlend mode="normal" in2="BackgroundImageFix" result="effect1_dropShadow"/>
<feBlend mode="normal" in="SourceGraphic" in2="effect1_dropShadow" result="shape"/>
</filter>
<radialGradient id="paint0_radial" cx="0" cy="0" r="1" gradientUnits="userSpaceOnUse" gradientTransform="translate(25.2442 27.0879) rotate(90) scale(31.1111 31.0973)">
<stop stop-color="#0066FF"/>
<stop offset="1" stop-color="#FA00FF"/>
</radialGradient>
<radialGradient id="paint1_radial" cx="0" cy="0" r="1" gradientUnits="userSpaceOnUse" gradientTransform="translate(25.244 27.0766) rotate(90) scale(7.00721)">
<stop stop-color="#00A3FF"/>
<stop offset="1" stop-color="#00A3FF"/>
</radialGradient>
<clipPath id="clip0">
<rect width="49" height="49" fill="white" transform="translate(0.744141 2.58789)"/>
</clipPath>
</defs>
</svg>
