<svg width="18" height="18" viewBox="0 0 18 18" fill="none" xmlns="http://www.w3.org/2000/svg">
<g clip-path="url(#clip0)">
<path d="M13.6686 11.8339C13.1132 11.2856 12.4199 11.2856 11.868 11.8339C11.447 12.2514 11.0261 12.6688 10.6122 13.0933C10.499 13.21 10.4035 13.2348 10.2655 13.157C9.9931 13.0084 9.70302 12.8881 9.44124 12.7254C8.22079 11.9577 7.19844 10.9708 6.29283 9.85997C5.84356 9.30812 5.44382 8.71735 5.16436 8.05229C5.10776 7.91787 5.11837 7.82943 5.22803 7.71976C5.649 7.31295 6.05935 6.89552 6.47325 6.47809C7.04986 5.89793 7.04987 5.21872 6.46971 4.63503C6.14072 4.3025 5.81173 3.97705 5.48274 3.64452C5.14313 3.30491 4.80707 2.96177 4.46392 2.62571C3.90853 2.08446 3.21517 2.08446 2.66332 2.62924C2.23881 3.04667 1.83199 3.47472 1.40041 3.88507C1.00067 4.26359 0.799033 4.72701 0.756583 5.26825C0.689369 6.1491 0.905159 6.98042 1.20939 7.79051C1.83199 9.46731 2.78006 10.9566 3.92976 12.3221C5.48274 14.1687 7.33641 15.6297 9.50492 16.6839C10.4813 17.1579 11.493 17.5223 12.5932 17.5824C13.3502 17.6249 14.0082 17.4338 14.5353 16.8431C14.8961 16.4398 15.3029 16.0719 15.685 15.6863C16.251 15.1132 16.2545 14.4199 15.6921 13.8539C15.0199 13.1782 14.3443 12.5061 13.6686 11.8339Z" fill="#FA00FF"/>
<path d="M12.993 9.01427L14.2984 8.7914C14.0932 7.59218 13.5272 6.50615 12.6676 5.64299C11.7584 4.73384 10.6087 4.16076 9.34228 3.98389L9.15833 5.29631C10.1382 5.43428 11.0297 5.87647 11.7337 6.58044C12.3987 7.2455 12.8338 8.08743 12.993 9.01427Z" fill="#FA00FF"/>
<path d="M15.0341 3.3401C13.5271 1.8331 11.6203 0.881506 9.51549 0.587891L9.33154 1.90032C11.1498 2.15502 12.7983 2.97927 14.1001 4.27754C15.3347 5.51215 16.1448 7.0722 16.4385 8.78791L17.7438 8.56504C17.4007 6.57695 16.4632 4.7728 15.0341 3.3401Z" fill="#FA00FF"/>
</g>
<defs>
<clipPath id="clip0">
<rect width="17" height="17" fill="white" transform="translate(0.744141 0.587891)"/>
</clipPath>
</defs>
</svg>
