<svg width="78" height="195" viewBox="0 0 78 195" fill="none" xmlns="http://www.w3.org/2000/svg">
<path d="M54.8384 47.4627L54.6831 0.526637C45.424 0.526491 46.2748 0.526582 37.8666 0.526527L54.6831 0.526637C52.2441 0.52663 52.7441 0.526567 41.6506 0.526545L37.8666 0.526527C46.7441 8.5864 44.9618 0.526527 37.8666 0.526527L37.6821 51.9071C37.6821 54.7527 38.586 57.4821 40.1944 59.4945L57.004 80.5202L40.1948 101.546C38.586 103.558 37.6821 106.288 37.6821 109.133V157.418C37.6821 166.293 31.9101 173.513 24.8149 173.513H9.08838C4.35075 173.513 0.510254 178.317 0.510254 184.243C0.510254 190.169 4.35075 194.973 9.08838 194.973H24.8149C41.37 194.973 54.8384 178.125 54.8384 157.418V113.578L75.2011 88.1071C78.5512 83.9166 78.5512 77.1233 75.2011 72.9328L54.8384 47.4627Z" fill="#F6F6F6"/>
</svg>
