<svg width="78" height="229" viewBox="0 0 78 229" fill="none" xmlns="http://www.w3.org/2000/svg">
<path d="M23.6187 191.182C23.6187 211.807 37.087 228.588 53.6421 228.588H69.3687C74.1063 228.588 77.9468 223.803 77.9468 217.9C77.9468 211.998 74.1063 207.213 69.3687 207.213H53.6421C46.5469 207.213 40.7749 200.022 40.7749 191.182V143.088C40.7749 140.253 39.871 137.535 38.2626 135.53L21.4531 114.588L38.2623 93.6453C39.871 91.6409 40.7749 88.9223 40.7749 86.0879V37.9941C40.7749 29.1542 46.5469 21.9629 53.6421 21.9629H69.3687C74.1063 21.9629 77.9468 17.178 77.9468 11.2754C77.9468 5.37277 74.1063 0.587891 69.3687 0.587891H53.6421C37.087 0.587891 23.6187 17.3686 23.6187 37.9941V81.661L3.25599 107.03C-0.0941208 111.204 -0.0941208 117.971 3.25599 122.145L23.6187 147.515V191.182Z" fill="#F6F6F6"/>
</svg>
