<?xml version="1.0" encoding="utf-8"?>
<!-- Generator: Adobe Illustrator 21.0.0, SVG Export Plug-In . SVG Version: 6.00 Build 0)  -->
<svg version="1.1" id="speech_bubbles_copy_1_" xmlns="http://www.w3.org/2000/svg" xmlns:xlink="http://www.w3.org/1999/xlink"
	 x="0px" y="0px" viewBox="0 0 16 16.2" style="enable-background:new 0 0 16 16.2;" xml:space="preserve">
<style type="text/css">
	.st0{fill-rule:evenodd;clip-rule:evenodd;fill:#DDDDDD;}
</style>
<g id="speech_bubbles_copy">
	<path class="st0" d="M5,10c-1.1,0-2-0.9-2-2V3H2C0.9,3,0,3.9,0,5v5c0,1.1,0.9,2,2,2h0.1v4.2L5.9,12H10c0.4,0,0.8-0.1,1.1-0.3
		L9.5,10H5z M14,0H6C4.9,0,4,0.9,4,2v5c0,1.1,0.9,2,2,2h4.1l0.2,0.3l0.1,0l3.5,3.7L14,13V9c1.1,0,2-0.9,2-2V2C16,0.9,15.1,0,14,0z"
		/>
</g>
</svg>
