<?xml version="1.0" encoding="utf-8"?>
<!-- Generator: Adobe Illustrator 21.0.0, SVG Export Plug-In . SVG Version: 6.00 Build 0)  -->
<svg version="1.1" id="Facebook_2_" xmlns="http://www.w3.org/2000/svg" xmlns:xlink="http://www.w3.org/1999/xlink" x="0px"
	 y="0px" viewBox="0 0 16 16" style="enable-background:new 0 0 16 16;" xml:space="preserve">
<style type="text/css">
	.st0{enable-background:new    ;}
</style>
<defs>
	<path id="SVGID_1_" class="st0" d="M14,0H2C0.9,0,0,0.9,0,2v12c0,1.1,0.9,2,2,2h12c1.1,0,2-0.9,2-2V2C16,0.9,15.1,0,14,0z M12.8,8
		H11v5H9V8H8l0-2h1V5.7C9,5,9.1,4.6,9.3,4.2c0.2-0.4,0.4-0.6,0.9-0.9C10.6,3.1,11,3,11.7,3c0.7,0,0.5,0,1.2,0l0,2
		c0,0-1.6-0.1-1.8,0.1C10.9,5.4,11,6,11,6h2L12.8,8z"/>
</defs>
<use xlink:href="#SVGID_1_"  style="overflow:visible;"/>
<clipPath id="SVGID_2_">
	<use xlink:href="#SVGID_1_"  style="overflow:visible;"/>
</clipPath>
</svg>
