<?xml version="1.0" encoding="utf-8"?>
<!-- Generator: Adobe Illustrator 21.0.0, SVG Export Plug-In . SVG Version: 6.00 Build 0)  -->
<svg version="1.1" id="Forma_1_1_" xmlns="http://www.w3.org/2000/svg" xmlns:xlink="http://www.w3.org/1999/xlink" x="0px" y="0px"
	 viewBox="0 0 8 16" style="enable-background:new 0 0 8 16;" xml:space="preserve">
<style type="text/css">
	.st0{fill-rule:evenodd;clip-rule:evenodd;fill:#FFFFFF;}
</style>
<g id="Forma_1">
	<path class="st0" d="M7.7,0L5.8,0C3.6,0,2.2,1.5,2.2,3.9v1.8H0.3C0.1,5.8,0,5.9,0,6.1v2.6C0,8.9,0.1,9,0.3,9h1.9v6.6
		c0,0.2,0.1,0.3,0.3,0.3H5c0.2,0,0.3-0.1,0.3-0.3V9h2.3c0.2,0,0.3-0.1,0.3-0.3l0-2.6c0-0.1,0-0.2-0.1-0.2C7.8,5.8,7.7,5.8,7.6,5.8
		H5.4V4.2c0-0.7,0.2-1.1,1.1-1.1l1.3,0C7.9,3.1,8,3,8,2.8V0.3C8,0.1,7.9,0,7.7,0z"/>
</g>
</svg>
