<?xml version="1.0" encoding="utf-8"?>
<!-- Generator: Adobe Illustrator 21.0.0, SVG Export Plug-In . SVG Version: 6.00 Build 0)  -->
<svg version="1.1" id="Shape_1_1_" xmlns="http://www.w3.org/2000/svg" xmlns:xlink="http://www.w3.org/1999/xlink" x="0px" y="0px"
	 viewBox="0 0 16 11" style="enable-background:new 0 0 16 11;" xml:space="preserve">
<style type="text/css">
	.st0{fill-rule:evenodd;clip-rule:evenodd;fill:#FFC925;}
</style>
<g id="Shape_1">
	<path class="st0" d="M15.4,0.9C14.8,0.3,13.7,0,11.7,0H4.3C2.2,0,1.1,0.3,0.6,1C0,1.7,0,2.7,0,4.1v2.7C0,9.6,0.7,11,4.3,11h7.4
		c1.8,0,2.7-0.2,3.4-0.8C15.7,9.6,16,8.6,16,6.9V4.1C16,2.6,16,1.6,15.4,0.9z M10.3,5.9L6.9,7.6c-0.1,0-0.2,0.1-0.2,0.1
		c-0.1,0-0.2,0-0.3-0.1C6.3,7.5,6.2,7.3,6.2,7.1V3.7c0-0.2,0.1-0.3,0.2-0.4c0.2-0.1,0.3-0.1,0.5,0L10.3,5c0.2,0.1,0.3,0.3,0.3,0.4
		C10.5,5.6,10.4,5.8,10.3,5.9z"/>
</g>
</svg>
