<?xml version="1.0" encoding="UTF-8"?>
<svg width="13px" height="11px" viewBox="0 0 13 11" version="1.1" xmlns="http://www.w3.org/2000/svg" xmlns:xlink="http://www.w3.org/1999/xlink">
    <!-- Generator: Sketch 49.2 (51160) - http://www.bohemiancoding.com/sketch -->
    <title>left-arrow</title>
    <desc>Created with Sketch.</desc>
    <defs></defs>
    <g id="Page-1" stroke="none" stroke-width="1" fill="none" fill-rule="evenodd">
        <g id="Desktop-HD" transform="translate(-1126.000000, -210.000000)" fill="#000000" fill-rule="nonzero">
            <g id="left-arrow" transform="translate(1132.500000, 215.500000) rotate(-180.000000) translate(-1132.500000, -215.500000) translate(1126.000000, 210.000000)">
                <path d="M12.2692522,4.46145865 L12.2895449,4.46598083 L3.59053863,4.46598083 L6.32518845,1.6739622 C6.45909899,1.53765062 6.53255425,1.35299472 6.53255425,1.15918679 C6.53255425,0.965378855 6.45909899,0.782015015 6.32518845,0.645380421 L5.89967634,0.211681333 C5.76587149,0.0753697523 5.58757072,0 5.39743255,0 C5.20718869,0 5.02878222,0.0748313969 4.89497738,0.211142977 L0.207262949,4.98624747 C0.072929645,5.1230974 -0.000525623562,5.30538453 2.83160714e-06,5.49930014 C-0.000525623562,5.69429245 0.072929645,5.87668725 0.207262949,6.01332185 L4.89497738,10.788857 C5.02878222,10.9250609 5.207083,11 5.39743255,11 C5.58757072,11 5.76587149,10.9249533 5.89967634,10.788857 L6.32518845,10.3551579 C6.45909899,10.2190617 6.53255425,10.0373129 6.53255425,9.84350499 C6.53255425,9.64980472 6.45909899,9.47763868 6.32518845,9.34143477 L3.55967685,6.53380382 L12.2789758,6.53380382 C12.6707724,6.53380382 13,6.18979474 13,5.79087341 L13,5.1774713 C13,4.77854996 12.6610489,4.46145865 12.2692522,4.46145865 Z" id="Shape"></path>
            </g>
        </g>
    </g>
</svg>