<?xml version="1.0" encoding="UTF-8"?>
<svg width="65px" height="43px" viewBox="0 0 65 43" version="1.1" xmlns="http://www.w3.org/2000/svg" xmlns:xlink="http://www.w3.org/1999/xlink">
    <!-- Generator: Sketch 49.2 (51160) - http://www.bohemiancoding.com/sketch -->
    <title>speedometer</title>
    <desc>Created with Sketch.</desc>
    <defs></defs>
    <g id="Page-1" stroke="none" stroke-width="1" fill="none" fill-rule="evenodd">
        <g id="Desktop-HD-Copy-2" transform="translate(-17.000000, -105.000000)" fill-rule="nonzero">
            <g id="speedometer" transform="translate(17.000000, 105.000000)">
                <path d="M64.9907744,39.9025977 C64.9857877,39.7637122 64.9807319,39.6240865 64.9757453,39.4839898 C64.9705509,39.3438931 64.965218,39.2033927 64.9598851,39.0622193 L64.9557295,38.9565748 L64.9536518,38.903618 L64.9530977,38.890362 L64.9517126,38.7719325 L64.951297,38.7664147 L64.9495655,38.7444784 L64.9356446,38.5690547 C64.9168755,38.3349546 64.8981065,38.0998451 64.8793374,37.8647356 L64.8650009,37.6867549 L64.8433922,37.455952 C64.8284324,37.3024647 64.8135418,37.1490447 64.7986512,36.9959611 C64.7832066,36.8431467 64.7676927,36.6905341 64.7523173,36.5384599 C64.7443526,36.46249 64.7364571,36.3866548 64.7285616,36.3109541 C64.7190039,36.2409058 64.7094463,36.170992 64.6998886,36.1010782 C64.6210031,35.5464783 64.5505672,35.0014334 64.4500039,34.4774502 C64.4024925,34.2152904 64.3586519,33.9575044 64.3093398,33.7062454 C64.2555259,33.4555921 64.2028895,33.2105238 64.1516382,32.971848 C64.0545377,32.4942272 63.9325735,32.0481652 63.8297938,31.6358153 C63.8034756,31.5329296 63.7777114,31.4319954 63.7525706,31.3335509 C63.7245902,31.2355101 63.6971638,31.139959 63.6704993,31.0466285 C63.6163391,30.8605058 63.5650185,30.6838709 63.5166761,30.5180696 C63.4675025,30.3524702 63.4241467,30.1970315 63.3788516,30.0545123 C63.3321714,29.9124642 63.2893696,29.7819226 63.2506541,29.6640315 C63.1932388,29.4908283 63.1448271,29.3449447 63.1066657,29.2296778 C63.05022,29.0595027 62.8651612,28.9638171 62.6881365,29.0128038 L51.5643184,32.0927109 C51.3948428,32.1396116 51.2897776,32.3036634 51.3220521,32.4720217 C51.3341031,32.5348701 51.3478855,32.6068698 51.3632609,32.6874153 C51.3791211,32.7684992 51.3967128,32.8583979 51.4158281,32.9561695 C51.4339046,33.0542103 51.4481026,33.1616043 51.4663176,33.2751217 C51.4841863,33.3887736 51.5031631,33.5098274 51.5231788,33.637341 C51.5329443,33.7010641 51.5445105,33.7659985 51.5535833,33.8331534 C51.5614788,33.9004429 51.5695128,33.9694146 51.5778238,34.0397321 C51.6087824,34.3212713 51.655047,34.623132 51.6756861,34.9467944 C51.68933,35.1078181 51.7034587,35.273283 51.7178645,35.4421123 C51.7286688,35.6115472 51.734071,35.7851541 51.7433517,35.9608469 C51.7674536,36.311627 51.7628826,36.6768743 51.7698084,37.045217 L51.7714014,37.1824202 L51.7664147,37.3038778 C51.7635751,37.384827 51.7606663,37.4659109 51.7578267,37.5472638 C51.7556104,37.6282131 51.7533249,37.7094315 51.7510394,37.7907845 L51.7484075,37.9123766 L51.7407891,38.0874638 C51.7305388,38.3231116 51.7200808,38.5586248 51.7097613,38.7933305 L51.7020736,38.969158 L51.7010347,38.9910943 L51.7008269,38.9964775 C51.7009654,39.0229223 51.6987492,38.7871399 51.6994418,38.8889489 L51.6985414,38.8976292 L51.695217,38.9323506 L51.6886374,39.0017261 C51.6800494,39.0941145 51.6714613,39.1859647 51.6629425,39.2777475 C51.6547008,39.3691939 51.646459,39.4604385 51.6383557,39.5510774 C51.6272744,39.6413799 51.6162623,39.7312787 51.6051809,39.8205045 C51.5815638,39.9988217 51.5670195,40.1754566 51.5377924,40.3475158 C51.5121667,40.5197096 51.4869566,40.688808 51.4623006,40.854542 C51.4327965,41.0190648 51.4039849,41.1800886 51.3760045,41.3367385 C51.3506559,41.493523 51.3167192,41.6445206 51.2865225,41.7906734 C51.2549406,41.936557 51.2297998,42.0782013 51.1970405,42.2126457 C51.1651123,42.3470901 51.1345,42.4757476 51.1053422,42.5982145 C51.0909364,42.6586404 51.0769462,42.7175187 51.0633715,42.7748494 C51.0493813,42.8239707 51.0358759,42.8716117 51.0226475,42.9178395 C51.0148906,42.9461011 51.0075492,42.9726132 51,43 L64.6050737,43 C64.7874314,43 64.9393153,42.8609799 64.9462411,42.6839413 C64.9463104,42.6828647 64.9463104,42.6818553 64.9463796,42.6807787 C64.9576688,42.4346337 64.9693042,42.1818944 64.9812167,41.9235028 C64.9862726,41.6653803 64.9913977,41.4016056 64.9967306,41.1333897 C65.0044875,40.8654429 64.9961073,40.5931224 64.9953454,40.3177738 C64.9937525,40.1801668 64.992298,40.0417524 64.9907744,39.9025977 Z" id="Shape" fill="#C0392B"></path>
                <path d="M60.7902761,25.8859409 C60.9687119,25.8136816 61.0501084,25.6058257 60.9678315,25.4310005 C60.9312641,25.3532929 60.8885343,25.2624411 60.8401162,25.1596709 C60.7944069,25.0630982 60.7438896,24.9561736 60.6890383,24.8397825 C60.6180026,24.6942424 60.5412109,24.5369203 60.4590695,24.3687694 C60.3763186,24.2012996 60.2883535,24.0230693 60.195445,23.8352361 C60.1483813,23.7375738 60.1021302,23.6570058 60.0537122,23.5653367 C60.0054973,23.4757107 59.9561312,23.3840416 59.9056816,23.2903974 C59.8043084,23.1035178 59.7006328,22.908125 59.5893728,22.708033 C59.4744561,22.5101203 59.3556795,22.3053972 59.2335848,22.0949532 C59.1723681,21.9900037 59.1102711,21.8835558 59.0474292,21.7759502 C58.9816754,21.6699791 58.9151091,21.5627139 58.8478655,21.454291 C58.7126336,21.2383306 58.574422,21.0176028 58.4339758,20.7932655 C58.137576,20.3539893 57.8425306,19.8945541 57.5132201,19.4474458 C57.4323654,19.3348685 57.3510366,19.2218826 57.2695723,19.1085562 L57.1470035,18.9387027 L57.0194237,18.7716415 C56.8487754,18.5494155 56.67745,18.3264402 56.5061245,18.1033969 C56.3317518,17.8829415 56.1513522,17.6671173 55.9745417,17.4504758 C55.8851545,17.3428702 55.7985437,17.2336981 55.7073282,17.1285443 C55.6158418,17.0237309 55.5246939,16.91919 55.4337492,16.8150577 C55.3428046,16.711334 55.2522662,16.6078147 55.1621341,16.5049083 C55.0725438,16.4015932 54.9822085,16.3000489 54.8890292,16.2018418 C54.7045665,16.0042696 54.5224063,15.8091493 54.3432256,15.6171617 C54.1637741,15.4257871 53.9779571,15.2459223 53.8011465,15.0661255 C53.6230494,14.8872822 53.4499633,14.7116398 53.2732204,14.5485287 C53.0984414,14.3839875 52.9283349,14.2239411 52.7639166,14.0690707 C52.6001756,13.9138598 52.4329809,13.7728828 52.2772305,13.6332679 C52.1201935,13.4951512 51.9696574,13.3628235 51.8265024,13.2369658 C51.6796908,13.1152625 51.5403957,12.9998929 51.4095654,12.89147 C51.2785996,12.7834557 51.1560986,12.6823881 51.0428071,12.5889483 C50.9293125,12.495849 50.8207612,12.4151448 50.7250763,12.3398889 C50.5857136,12.2323514 50.4680204,12.1414995 50.3745025,12.0693084 C50.231957,11.959251 50.0287366,11.9827471 49.9141585,12.1221577 L44.0766338,19.228625 C43.9665928,19.3626553 43.9760055,19.5585248 44.0987774,19.6808411 C44.1476018,19.7293318 44.2039428,19.7854501 44.2673265,19.8485833 C44.3280691,19.9099458 44.3976828,19.9749178 44.4690571,20.0507866 C44.5404314,20.1265873 44.617494,20.2086536 44.6999062,20.2962364 C44.7824539,20.3834106 44.8702159,20.4761694 44.9626504,20.5739679 C45.0518344,20.6748993 45.1456232,20.7812109 45.2434751,20.8920175 C45.3401081,21.0038457 45.4457475,21.1148565 45.5462403,21.2386711 C45.6476135,21.3612598 45.7523726,21.4879348 45.8601789,21.6182194 C45.9699491,21.7461203 46.0747082,21.884986 46.1831917,22.025282 C46.290524,22.1665314 46.4052376,22.3058058 46.513044,22.4551597 C46.620918,22.6040369 46.7305528,22.7553658 46.8415418,22.9086017 C46.8981537,22.9839938 46.9518538,23.0626549 47.0047412,23.1424737 C47.058238,23.2217478 47.1120058,23.3012942 47.1659767,23.3812493 C47.2200153,23.4607957 47.2743925,23.5407508 47.3287697,23.6209783 C47.3830792,23.7012058 47.4328516,23.785111 47.4853327,23.8671773 C47.5883988,24.0328083 47.6952572,24.1959874 47.7965626,24.3627762 C47.8952948,24.5311994 47.9940948,24.6996908 48.0924206,24.867433 L48.1662328,24.9926097 L48.2353724,25.1204425 C48.2815558,25.2053011 48.327536,25.2900235 48.3733808,25.3742692 C48.5626514,25.7072338 48.7223971,26.0505502 48.8895918,26.3730947 C48.9661126,26.5384533 49.0413468,26.7009514 49.1150235,26.8601805 C49.1518619,26.9394546 49.188294,27.0179113 49.2243197,27.0953465 C49.2577045,27.1742119 49.2906152,27.2520558 49.3231196,27.3289461 C49.3884671,27.4819096 49.4519861,27.630923 49.5135414,27.7748285 C49.5703564,27.9207771 49.6252077,28.0617542 49.6778919,28.1970104 C49.7043018,28.2645704 49.7300344,28.3307002 49.7552254,28.3953316 C49.779062,28.4583967 49.8085868,28.5266378 49.8244327,28.5791466 C49.862016,28.6894083 49.8975677,28.7940855 49.9310202,28.8924288 C49.9651498,28.9900912 49.9971802,29.0814198 50.0267051,29.1659379 C50.0655072,29.2824652 50.1011267,29.3892536 50.1332925,29.4858263 C50.1691151,29.5937043 50.2006715,29.6890511 50.2277585,29.7707769 C50.2885689,29.9541832 50.4905027,30.0476912 50.6689384,29.9756363 L60.7902761,25.8859409 Z" id="Shape" fill="#E74C3C"></path>
                <path d="M31.5792705,12.7568274 C31.6736509,12.7689486 31.7780041,12.7823636 31.891752,12.7970044 C32.0047772,12.8155266 32.1270525,12.8356151 32.2576385,12.8570655 C32.3880078,12.8781754 32.52676,12.9005791 32.6729556,12.9242767 C32.8000006,12.9441609 32.9315983,12.9730338 33.0683993,13 L37,5.42208688 C36.8050966,5.39341826 36.611783,5.36495393 36.4223718,5.33710247 C36.2925807,5.31892071 36.1648131,5.29801509 36.0375513,5.28303386 C35.9102896,5.26852931 35.7845454,5.25416095 35.6604634,5.23999688 C35.4126607,5.21228161 35.171651,5.18524731 34.9385907,5.15916635 C34.70488,5.14030363 34.4790464,5.12205377 34.2623184,5.10455297 C34.0455181,5.08889078 33.8387629,5.06825755 33.6408243,5.059405 C33.443247,5.05028007 33.255787,5.04156372 33.0796729,5.03339214 C32.9037034,5.02556105 32.7390797,5.01827473 32.5869582,5.01146508 C32.4346921,5.0091498 32.2947837,5.0070388 32.1683891,5.0051321 C31.9906129,5.00308921 31.8397199,5.0013868 31.7187453,5.00002487 C31.5268771,4.99784578 31.368107,5.13914599 31.3589291,5.31973787 L31.0004138,12.3729676 C30.9915972,12.5467498 31.1246403,12.6980602 31.3075475,12.7216897 C31.385451,12.7317679 31.4762904,12.7435486 31.5792705,12.7568274 Z" id="Shape" fill="#D35400"></path>
                <path d="M41.678736,17.1206498 C41.776907,17.1976666 41.8699747,17.2706986 41.9574019,17.3394559 C42.0449634,17.4071264 42.1269516,17.4704497 42.2027621,17.5290636 C42.2355977,17.5534076 42.2897864,17.5977485 42.3340372,17.6332501 C42.379631,17.6699834 42.423076,17.7049779 42.464238,17.7381611 C42.5541497,17.810541 42.6335191,17.8744439 42.7014733,17.9291455 C42.854303,18.0521695 43.0711924,18.0105819 43.1758767,17.83858 L47.9454275,9.99952681 C48.050179,9.82752496 47.9993477,9.59618465 47.833894,9.49380949 C47.7602994,9.44830942 47.6744166,9.39512941 47.5771857,9.33492151 C47.532532,9.30724472 47.4855281,9.27819133 47.4361069,9.24761645 C47.382321,9.21479554 47.3261178,9.18045313 47.2674973,9.14466167 C47.1317903,9.06394977 46.9850039,8.9767896 46.8282124,8.88354344 C46.6713538,8.79131162 46.5043557,8.69321115 46.3284269,8.58967676 C46.1607573,8.49903888 45.9845599,8.40376406 45.8006405,8.304287 C45.6159824,8.20705596 45.427564,8.09888462 45.2255144,8.0007117 C45.024405,7.90130709 44.8165135,7.79849722 44.6028473,7.69278926 C44.3905913,7.58469037 44.1665842,7.48651745 43.9392197,7.38349023 C43.7109152,7.28263657 43.4812005,7.17236411 43.2412793,7.07506062 C43.18051,7.05020947 43.1188006,7.02506851 43.0575612,7 L41,16.6360161 C41.1137494,16.7131054 41.2209182,16.7948316 41.3264755,16.8685881 C41.4493571,16.9564728 41.5668668,17.04059 41.678736,17.1206498 Z" id="Shape" fill="#D35400"></path>
                <path d="M25.3125894,12.7956611 C25.4064702,12.7828807 25.4986404,12.7670641 25.5906737,12.7570375 C25.682707,12.7474345 25.7736455,12.7379022 25.8632838,12.7284404 C26.0422185,12.7093051 26.2162264,12.6906641 26.3846234,12.6725879 C26.5534993,12.6609373 26.7166959,12.6496397 26.8733236,12.6387657 C26.9514664,12.6332581 27.0279669,12.6278918 27.1027568,12.622596 C27.1773414,12.6174415 27.2520629,12.6108748 27.3161098,12.6108042 C27.448104,12.6072031 27.5733925,12.6038844 27.6910172,12.6007069 C27.8082998,12.596894 27.9179186,12.5932929 28.0194632,12.5899742 C28.1446148,12.5891269 28.2595709,12.5883502 28.363305,12.5876441 C28.4775769,12.5870086 28.578574,12.5864437 28.6649279,12.5859494 C28.8592584,12.5848903 29.0119858,12.4150732 28.9992585,12.2149645 L28.5617411,5.32554702 C28.5489454,5.12543828 28.3761007,4.97765156 28.183344,5.00278872 C28.0976059,5.0139451 27.9974983,5.02700795 27.8841161,5.04176544 C27.7790134,5.05553439 27.6626203,5.07085676 27.5358949,5.08752072 C27.3861783,5.11046897 27.2242818,5.13518246 27.0512318,5.16166121 C26.8787293,5.18877545 26.6950732,5.21765494 26.5014954,5.24808785 C26.4024142,5.26249229 26.311202,5.2816276 26.2154737,5.30026864 C26.1200191,5.3190509 26.0223749,5.33832743 25.9226778,5.35795701 C25.7236259,5.39763983 25.5163628,5.43901729 25.3016412,5.48180694 C25.0886304,5.53186943 24.8682979,5.58369717 24.6418754,5.6368665 C24.5289037,5.66362769 24.4143582,5.69081254 24.2984441,5.71835044 C24.1826669,5.746312 24.0665476,5.78048724 23.948786,5.81190868 C23.7137419,5.87651683 23.473771,5.94253718 23.2296262,6.00961668 C22.9879447,6.08481633 22.7422261,6.16121634 22.4935651,6.2386049 C22.3695768,6.27821711 22.2442883,6.3155698 22.1197525,6.35786519 C21.9957642,6.40157278 21.8708863,6.44542159 21.7456663,6.48955283 C21.6206515,6.53375469 21.4951578,6.57809777 21.3693219,6.62265268 C21.2434177,6.66685454 21.1173081,6.71126823 20.9929092,6.7618956 C20.7434955,6.8601141 20.4931239,6.95875627 20.2427523,7.05739844 C19.9934755,7.15808829 19.7483043,7.26965209 19.5025856,7.37521404 C19.3801027,7.42908947 19.2572776,7.48105842 19.1362315,7.53634605 C19.0160066,7.59361076 18.8961923,7.65066364 18.7767885,7.7075753 C18.6576584,7.76448696 18.5389389,7.82125739 18.4209036,7.87767478 C18.3028683,7.93402156 18.185312,7.98952102 18.0710402,8.05073989 C17.8416754,8.170212 17.6151162,8.28827192 17.3923203,8.40435476 C17.169456,8.51966088 16.957061,8.6469001 16.7461029,8.76404209 C16.5361027,8.88337298 16.3295923,8.9971963 16.1347828,9.11984587 C15.9388785,9.23974164 15.7483114,9.35645997 15.5639711,9.46929475 C15.3790834,9.5805761 15.2076072,9.70075432 15.0395524,9.80935249 C14.8726608,9.91971592 14.7127487,10.0255603 14.5606371,10.1261796 C14.4118101,10.2316003 14.2705783,10.331584 14.1378998,10.4255659 C14.0055634,10.5196185 13.881712,10.6075985 13.7671664,10.6890118 C13.6527577,10.7704252 13.5515553,10.8511324 13.4582904,10.9208951 C13.3319071,11.0172071 13.2239989,11.0993972 13.136687,11.1659118 C12.9908707,11.2769813 12.9566576,11.4867636 13.0586127,11.6414701 L15.8309019,15.8474252 C15.9295725,15.9971184 16.1224661,16.0440741 16.2752619,15.9550349 C16.3456725,15.9140811 16.4288788,15.865572 16.523786,15.810355 C16.6065133,15.7631169 16.6960149,15.707335 16.7970804,15.6530359 C16.8980776,15.5986662 17.0072858,15.5400599 17.1239526,15.4773582 C17.2402772,15.414586 17.3641287,15.3477889 17.4946175,15.2773907 C17.6273645,15.2117234 17.7668856,15.1426669 17.9124966,15.0706447 C18.0587919,15.0003171 18.2072084,14.9197511 18.3672574,14.8494941 C18.5260747,14.7775426 18.6902977,14.7031902 18.8591737,14.6267196 C19.026339,14.5472834 19.2034261,14.4778737 19.382566,14.4037332 C19.5626639,14.331711 19.7430354,14.2502271 19.9319603,14.1813823 C20.120064,14.1114078 20.3113838,14.0403036 20.5049617,13.9682814 C20.6009637,13.9306462 20.6997712,13.8988011 20.7987839,13.8661793 C20.8975914,13.8333457 20.9969463,13.8003708 21.0966434,13.7672547 C21.1961351,13.734068 21.2960374,13.7007401 21.3962135,13.6672709 C21.4969369,13.6357083 21.5990973,13.6074643 21.7005734,13.5772432 C21.9044152,13.5190606 22.1068884,13.454523 22.3121671,13.4004358 C22.5175827,13.3479725 22.7229983,13.2955093 22.9275928,13.2433285 C23.0291373,13.2154376 23.1321872,13.1936191 23.2347582,13.1718006 C23.3371238,13.1495584 23.4392158,13.1273869 23.5409656,13.105286 C23.6423733,13.0830438 23.7434389,13.0609429 23.8440254,13.0389126 C23.9448173,13.0181532 24.0461566,13.0021248 24.1461273,12.9835543 C24.3460688,12.9477551 24.5435469,12.9123089 24.7378774,12.8775687 C24.9328922,12.849819 25.124691,12.8224223 25.3125894,12.7956611 Z" id="Shape" fill="#E67E22"></path>
                <path d="M6.48193575,17.6879161 C6.40848785,17.7929586 6.3347633,17.8984906 6.26069295,18.0044423 C6.18683008,18.110324 6.11269057,18.2166254 6.03827442,18.3232764 C5.96420407,18.4300673 5.89490576,18.5408445 5.82284105,18.6498034 C5.68078643,18.8691897 5.53541213,19.0868977 5.39626224,19.3087318 C5.26036286,19.5324542 5.12446348,19.7561766 4.98911738,19.9790597 L4.88814379,20.1459248 L4.79228804,20.3155174 C4.72859169,20.4282528 4.66510282,20.5407784 4.60182143,20.6527445 C4.34316307,21.0970421 4.11846226,21.5512006 3.89009598,21.9825603 C3.78379707,22.2025061 3.67922717,22.4188154 3.57687038,22.6305789 C3.52610695,22.7363207 3.47582764,22.8410835 3.42623993,22.9444476 C3.37955693,23.0492103 3.33349638,23.1527842 3.28798911,23.2550293 C3.19738952,23.4590999 3.10927969,23.6577156 3.02400543,23.8497574 C2.94447144,24.0442469 2.86756553,24.2320925 2.79377182,24.4123852 C2.72143047,24.5932373 2.64832836,24.7643685 2.58601521,24.9304644 C2.52453198,25.0967001 2.46616095,25.2544737 2.41124792,25.4026661 C2.35661152,25.5507187 2.30550229,25.6892601 2.25826602,25.8173812 C2.21462607,25.9467612 2.17458243,26.0655809 2.1383426,26.1729313 C2.0913138,26.3140603 2.05092437,26.4351879 2.01793505,26.5343558 C1.95949486,26.7096132 2.04836545,26.8997667 2.21919062,26.9659952 L4.82721384,27.9770469 C4.99319781,28.0413872 5.18013727,27.9662769 5.2568357,27.8040974 C5.29487369,27.7238119 5.3403118,27.6276512 5.3925276,27.5172236 C5.43582175,27.4262381 5.48368046,27.3254616 5.53589625,27.2157334 C5.59136257,27.1075439 5.65132428,26.9907522 5.71543559,26.8657782 C5.77933942,26.7412238 5.84725453,26.6084171 5.91890428,26.4685469 C5.99110731,26.3290963 6.07423762,26.1860791 6.15674548,26.0350193 C6.24029075,25.8847987 6.32736318,25.728214 6.41747864,25.5661044 C6.51243531,25.407142 6.61057334,25.2426546 6.71154692,25.0735516 C6.76182623,24.9891399 6.81279715,24.9036093 6.8643905,24.8170296 C6.91868109,24.7320585 6.97366328,24.6461782 7.02919875,24.559109 C7.1402697,24.38567 7.25376124,24.2085943 7.36918926,24.0283017 C7.61443059,23.6772275 7.85427743,23.3074806 8.12531543,22.9508816 C8.19150154,22.8607353 8.25796429,22.7703092 8.32463452,22.6796034 L8.42457071,22.5434397 L8.52927893,22.4102833 C8.66870547,22.2327181 8.80868529,22.0545934 8.94866511,21.8764687 C9.09120385,21.700512 9.23913707,21.5291011 9.38292069,21.3562216 C9.45581532,21.2704112 9.52580523,21.1828525 9.60042885,21.0994199 C9.67512164,21.0161272 9.74953779,20.9330443 9.8236773,20.8503111 C9.89767849,20.7676478 9.97133388,20.6853342 10.0446435,20.6033703 C10.1172615,20.5209867 10.190571,20.4400718 10.2667162,20.3625138 C10.4165167,20.2056494 10.5645191,20.0506732 10.7101009,19.8981448 C10.855406,19.7458961 11.0070739,19.6046272 11.1502351,19.4618197 C11.2945028,19.3200613 11.4340677,19.1801911 11.5777821,19.0520001 C11.7191451,18.9219208 11.8566352,18.7954082 11.989699,18.6729519 C12.1216563,18.5497962 12.2576248,18.4398582 12.3832194,18.3295006 C12.5096438,18.2206117 12.6308121,18.1162685 12.7460327,18.0170306 C12.8591784,17.9264647 12.9665147,17.8405844 13.06735,17.7597394 C13.167632,17.6790343 13.2614821,17.6034345 13.3482779,17.5334994 C13.388114,17.5002103 13.4420588,17.4603473 13.4876352,17.4253098 C13.5343874,17.389573 13.5789956,17.3555845 13.6213215,17.3233444 C13.7135118,17.2529198 13.7949131,17.1908174 13.8646263,17.1376667 C14.021412,17.0180078 14.0456872,16.7898795 13.9181562,16.6388197 L10.948772,13.1211544 C10.821241,12.9700946 10.5946037,12.9585553 10.4531715,13.0963275 C10.3903051,13.1575906 10.316788,13.2291342 10.2336577,13.310189 C10.1954814,13.3473245 10.1552303,13.3865581 10.1130427,13.42761 C10.0700943,13.4697809 10.0292208,13.5081752 9.9759676,13.5632141 C9.87416409,13.6670678 9.76413055,13.7794535 9.64648941,13.8994621 C9.5294707,14.0195406 9.40491356,14.1473121 9.27357874,14.282007 C9.15151136,14.4157229 9.02315042,14.5562925 8.88925668,14.7029464 C8.75702278,14.8507192 8.61441488,14.999611 8.4764407,15.1628396 C8.33791324,15.3252288 8.19475206,15.493143 8.04751044,15.6656729 C7.89847067,15.8361746 7.75427209,16.0193347 7.60592391,16.2051522 C7.45868229,16.3919488 7.30348727,16.5783259 7.15541574,16.7758226 C7.00775916,16.9733193 6.85768198,17.1741029 6.70580664,17.3774742 C6.62862409,17.4782507 6.55483038,17.5823141 6.48193575,17.6879161 Z" id="Shape" fill="#F39C12"></path>
                <path d="M0.762935469,30.2702588 C0.744078078,30.3549565 0.721990139,30.4541817 0.696972166,30.5662897 C0.674057807,30.6692153 0.648664189,30.783242 0.6210167,30.907342 C0.593895114,31.0342516 0.567374561,31.1841172 0.537773716,31.3370666 C0.508623646,31.4915234 0.477670479,31.655848 0.445064473,31.8290809 C0.429287373,31.9154233 0.411256402,32.0046437 0.396305721,32.0946179 C0.38300788,32.1840439 0.369484652,32.2754572 0.355585778,32.3687206 C0.302694929,32.7423912 0.233050303,33.1444313 0.192931392,33.5739503 C0.169641387,33.787956 0.145750351,34.0077178 0.12133341,34.2324135 C0.101198826,34.4573833 0.0877507265,34.6877667 0.0703959168,34.9213022 C0.0298262315,35.3880306 0.0223884559,35.872096 0.00548442041,36.3617805 L0,36.5458404 L0.000976677607,36.7306542 C0.00172796807,36.8540689 0.00247925854,36.9776893 0.00323054901,37.1016522 C0.00405696852,37.2254781 0.00488338803,37.3495096 0.0056346785,37.4736096 L0.0069118723,37.6597939 L0.0147252932,37.8461152 C0.025769263,38.0939726 0.0368132329,38.341967 0.0478572027,38.5889335 L0.0561965269,38.7736102 L0.0587509145,38.8334332 L0.0623571088,38.8779749 L0.0695694972,38.9669897 C0.0791860152,39.0856762 0.0887274041,39.20402 0.0982687931,39.3219527 C0.107810182,39.4398854 0.117351571,39.5572699 0.126742702,39.6741062 C0.139740027,39.7958763 0.152587094,39.9173038 0.16550929,40.037909 C0.178506615,40.1583772 0.191428811,40.278023 0.204275878,40.3969836 C0.210736976,40.4562583 0.217198074,40.5154645 0.223659172,40.574328 C0.23169798,40.6323008 0.239736788,40.6900679 0.247700467,40.7476295 C0.279705441,40.9771905 0.311184511,41.2029826 0.341987421,41.4240464 C0.379176299,41.6440824 0.415538757,41.8594586 0.450849409,42.0690101 C0.48390619,42.2784931 0.526504359,42.4811236 0.565646593,42.6770385 C0.568877142,42.6927309 0.572107691,42.7082177 0.575263111,42.723773 C0.607944246,42.883986 0.760756727,43 0.939338471,43 L1.93787863,43 C2.15109486,43 2.32028548,42.8362922 2.30773893,42.6422274 C2.30435812,42.590422 2.30090218,42.5380684 2.2970706,42.4852351 C2.28459918,42.2963783 2.26957337,42.1016284 2.26476511,41.9006425 C2.25755272,41.6999994 2.25019008,41.4938741 2.24260204,41.2832262 C2.24117459,41.0727153 2.23974714,40.8576132 2.23831969,40.6388107 C2.23794404,40.5841957 2.2375684,40.5293067 2.23719275,40.4743491 C2.23846995,40.4201453 2.23982227,40.3656673 2.24117459,40.3109153 C2.24380411,40.2018224 2.24643363,40.0918387 2.24913827,39.9811698 C2.25176779,39.8707749 2.25447243,39.7595577 2.25717708,39.6477923 C2.2631874,39.530819 2.2691226,39.4131604 2.27520805,39.2951592 C2.28121837,39.1770894 2.28730383,39.05854 2.29331415,38.939648 L2.29789702,38.850359 L2.30015089,38.8056803 L2.30045141,38.8000612 C2.30045141,38.7858763 2.30075193,38.8131496 2.30090218,38.8084898 L2.30180373,38.7976628 L2.30368196,38.7761457 L2.31885803,38.6032554 C2.33899261,38.3726665 2.35920232,38.1413923 2.37948717,37.9099811 L2.39496375,37.7368167 L2.4168263,37.5640635 C2.43140134,37.4490774 2.44590124,37.3342284 2.46040115,37.2195849 C2.47482593,37.10501 2.4892507,36.9907091 2.50360035,36.8768195 L2.52501213,36.7063276 L2.55273475,36.5370006 C2.62876534,36.0867869 2.69337632,35.6439055 2.78803892,35.2198686 C2.83244019,35.007439 2.87218346,34.7984356 2.91778679,34.5949829 C2.96744709,34.3923525 3.01598045,34.1941077 3.06323662,34.0011394 C3.15068683,33.614586 3.26405656,33.2552373 3.35631503,32.922134 C3.37998068,32.8390124 3.40312043,32.7575353 3.42573427,32.6780456 C3.44962531,32.5997207 3.47539457,32.5255759 3.49913535,32.4521164 C3.54699255,32.3059511 3.59244563,32.1673237 3.63511892,32.0369193 C3.6787689,31.9054871 3.71460546,31.7879655 3.75637721,31.6700328 C3.80017744,31.5497017 3.84029635,31.4394439 3.87665881,31.3397391 C3.91617669,31.2310573 3.95111169,31.1351214 3.98101306,31.0528906 C4.04825355,30.8683509 3.93082685,30.6705173 3.72467275,30.620425 L1.22144804,30.0115744 C1.01521881,29.961345 0.80545851,30.0795518 0.762935469,30.2702588 Z" id="Shape" fill="#F1C40F"></path>
                <path d="M26.9485457,41.4703723 C27.6914482,41.8296729 28.4784178,42 29.2531884,42 C31.1980305,42 33.0670746,40.9279294 33.978775,39.0828097 C34.1543577,38.7276452 34.2902595,38.3355268 34.3786676,37.9662588 L39.6952867,15.1350392 L41.7200388,6.44015369 L42.9744064,1.05389881 C43.1203826,0.427038197 42.6163877,0 42.1107479,0 C41.814752,0 41.5181392,0.146391786 41.3509176,0.484672758 L38.7983895,5.65028898 L35.0328879,13.2706629 L24.5352775,34.51483 C23.2603498,37.094892 24.3408481,40.2090569 26.9485457,41.4703723 Z M29.4480975,34.1179652 C30.8707833,34.1179652 32.0241326,35.2589939 32.0241326,36.6666333 C32.0241326,38.0741371 30.8707833,39.2153014 29.4480975,39.2153014 C28.0254117,39.2153014 26.8720624,38.0741371 26.8720624,36.6666333 C26.8720624,35.2588583 28.0254117,34.1179652 29.4480975,34.1179652 Z" id="Shape" fill="#000000"></path>
            </g>
        </g>
    </g>
</svg>