<?xml version="1.0"?>
<svg xmlns="http://www.w3.org/2000/svg" width="512" height="512" viewBox="0 0 512 512"><g><path d="M240,32A104,104,0,1,0,344,136,104.112,104.112,0,0,0,240,32Zm0,192a88,88,0,1,1,88-88A88.1,88.1,0,0,1,240,224Z"/><path d="M464,488H368V448a8,8,0,0,0-8-8H312V408H448a8,8,0,0,0,8-8V352a8,8,0,0,0-8-8H392V304a8,8,0,0,0-8-8H328V256a8,8,0,0,0-8-8H301.91a128,128,0,1,0-123.82,0H80a8,8,0,0,0-8,8v48a8,8,0,0,0,8,8h56v40a8,8,0,0,0,8,8h56v32H64a8,8,0,0,0-8,8v48a8,8,0,0,0,8,8h48v32H16a8,8,0,0,0,0,16H464a8,8,0,0,0,0-16ZM96,440H72V408H96Zm224-48H296V360h24Zm-88-48V312h24v32Zm8,16v32H216V360Zm-32-64V264h24v32Zm48,64h24v32H256Zm16-16V312h24v32Zm88,48H336V360h24Zm80-32v32H416V376a8,8,0,0,0-16,0v16H376V360Zm-64-48v32H352V328a8,8,0,0,0-16,0v16H312V312Zm-64-48v32H288V280a8,8,0,0,0-16,0v16H248V264ZM128,136A112,112,0,1,1,240,248,112.123,112.123,0,0,1,128,136Zm40,128h24v32H168Zm-56,32H88V264h24Zm16,0V264h24v32Zm48,48H152V312h24Zm16,0V312h24v32Zm-80,64h24v32H112Zm40,80H128V456h24Zm0-80h24v32H152Zm40,80H168V456h24Zm0-80h24v32H192Zm40,80H208V456h24Zm40,0H248V456h24Zm-8-72a8,8,0,0,0-8,8v16H232V408h64v32H272V424A8,8,0,0,0,264,416Zm88,72H328V472a8,8,0,0,0-16,0v16H288V456h64Z"/><path d="M268.9,131.78A23.974,23.974,0,0,0,256,97.38V97a8,8,0,0,0-15.93-1H232V88a8,8,0,0,0-16,0v8h-8a8,8,0,0,0,0,16v48a8,8,0,0,0,0,16h8v8a8,8,0,0,0,16,0v-8h8a8,8,0,0,0,16,0,23.988,23.988,0,0,0,12.9-44.22ZM224,112h24a8,8,0,0,1,0,16H224Zm32,48H224V144h32a8,8,0,0,1,0,16Z"/><path d="M496,488h-8a8,8,0,0,0,0,16h8a8,8,0,0,0,0-16Z"/></g></svg>
