<?xml version="1.0"?>
<svg xmlns="http://www.w3.org/2000/svg" width="512" height="512" viewBox="0 0 512 512"><g><path d="M296,88a210.52,210.52,0,0,0-27.28,1.79A136.486,136.486,0,0,0,250.7,59.77a7.665,7.665,0,0,0-1.23-1.52,135.811,135.811,0,0,0-210.94,0,7.665,7.665,0,0,0-1.23,1.52,135.72,135.72,0,0,0,0,168.46,7.665,7.665,0,0,0,1.23,1.52,136.785,136.785,0,0,0,51.26,38.97A210.52,210.52,0,0,0,88,296c0,114.69,93.31,208,208,208s208-93.31,208-208S410.69,88,296,88ZM243.39,76.82A119.348,119.348,0,0,1,263.73,136H215.79a165.963,165.963,0,0,0-5.02-33.46A136.076,136.076,0,0,0,243.39,76.82ZM210.77,185.46A165.963,165.963,0,0,0,215.79,152h47.94a119.348,119.348,0,0,1-20.34,59.18A136.076,136.076,0,0,0,210.77,185.46Zm22.63,38.5a120.063,120.063,0,0,1-65.73,37.69,169.874,169.874,0,0,0,38.25-60.48A119.869,119.869,0,0,1,233.4,223.96Zm0-159.92a119.869,119.869,0,0,1-27.48,22.79,169.874,169.874,0,0,0-38.25-60.48A120.063,120.063,0,0,1,233.4,64.04ZM152,33.38a154.25,154.25,0,0,1,39.55,60.85,119.673,119.673,0,0,1-39.55,9.5Zm0,86.39a135.872,135.872,0,0,0,44.06-10.06A150.553,150.553,0,0,1,199.78,136H152ZM152,152h47.78a150.553,150.553,0,0,1-3.72,26.29A135.872,135.872,0,0,0,152,168.23Zm0,32.27a119.673,119.673,0,0,1,39.55,9.5A154.25,154.25,0,0,1,152,254.62ZM143.99,280h.02a135,135,0,0,0,59.31-13.64,136.7,136.7,0,0,0,46.15-36.61,7.665,7.665,0,0,0,1.23-1.52A135.322,135.322,0,0,0,280,144q0-3.6-.19-7.17A161.772,161.772,0,0,1,296,136c88.22,0,160,71.78,160,160S384.22,456,296,456,136,384.22,136,296a161.772,161.772,0,0,1,.83-16.19Q140.385,280.005,143.99,280ZM136,152v16.23a135.872,135.872,0,0,0-44.06,10.06A150.553,150.553,0,0,1,88.22,152ZM88.22,136a150.553,150.553,0,0,1,3.72-26.29A135.872,135.872,0,0,0,136,119.77V136ZM136,184.27v70.35a154.25,154.25,0,0,1-39.55-60.85A119.673,119.673,0,0,1,136,184.27Zm0-150.89v70.35a119.673,119.673,0,0,1-39.55-9.5A154.25,154.25,0,0,1,136,33.38Zm-15.67-7.03A169.874,169.874,0,0,0,82.08,86.83,119.869,119.869,0,0,1,54.6,64.04,120.063,120.063,0,0,1,120.33,26.35ZM44.61,76.82a136.076,136.076,0,0,0,32.62,25.72A165.963,165.963,0,0,0,72.21,136H24.27A119.348,119.348,0,0,1,44.61,76.82Zm0,134.36A119.348,119.348,0,0,1,24.27,152H72.21a165.963,165.963,0,0,0,5.02,33.46A136.076,136.076,0,0,0,44.61,211.18Zm9.99,12.78a119.869,119.869,0,0,1,27.48-22.79,169.874,169.874,0,0,0,38.25,60.48A120.063,120.063,0,0,1,54.6,223.96ZM296,488c-105.87,0-192-86.13-192-192a195.377,195.377,0,0,1,1.22-21.64,135.75,135.75,0,0,0,15.7,3.67A176.528,176.528,0,0,0,120,296c0,97.05,78.95,176,176,176s176-78.95,176-176S393.05,120,296,120a176.528,176.528,0,0,0-17.97.92,135.75,135.75,0,0,0-3.67-15.7A195.377,195.377,0,0,1,296,104c105.87,0,192,86.13,192,192S401.87,488,296,488Z"/><path d="M256,352a8,8,0,0,0,0,16h16v8a8,8,0,0,0,16,0v-8h8v8a8,8,0,0,0,16,0v-8h8a39.994,39.994,0,0,0,17.08-76.16A31.974,31.974,0,0,0,312,240v-8a8,8,0,0,0-16,0v8h-8v-8a8,8,0,0,0-16,0v8H256a8,8,0,0,0,0,16Zm16-96h40a16,16,0,0,1,0,32H272Zm0,48h48a24,24,0,0,1,0,48H272Z"/></g></svg>
