<?xml version="1.0"?>
<svg xmlns="http://www.w3.org/2000/svg" width="512" height="512" viewBox="0 0 512 512"><g><path d="M432,184C432,86.95,353.05,8,256,8S80,86.95,80,184a175.98,175.98,0,0,0,88,152.45V368h-8a24.032,24.032,0,0,0-24,24v16a24.032,24.032,0,0,0,24,24h8v32a40.04,40.04,0,0,0,40,40h96a40.04,40.04,0,0,0,40-40V432h8a24.032,24.032,0,0,0,24-24V392a24.032,24.032,0,0,0-24-24h-8V336.45A175.98,175.98,0,0,0,432,184ZM328,464a24.032,24.032,0,0,1-24,24H208a23.937,23.937,0,0,1-17.87-8H280a8,8,0,0,0,0-16H184v-8H328Zm0-24H184v-8H328Zm24-56a8.011,8.011,0,0,1,8,8v16a8.011,8.011,0,0,1-8,8H160a8.011,8.011,0,0,1-8-8V392a8.011,8.011,0,0,1,8-8Zm-19.81-59.27a8.005,8.005,0,0,0-4.19,7.03V368H184V331.76a8.005,8.005,0,0,0-4.19-7.03A160.015,160.015,0,0,1,96,184C96,95.78,167.78,24,256,24S416,95.78,416,184A160.015,160.015,0,0,1,332.19,324.73Z"/><path d="M304,480h8a8,8,0,0,0,0-16h-8a8,8,0,0,0,0,16Z"/><path d="M256,96a88,88,0,1,0,88,88A88.1,88.1,0,0,0,256,96Zm0,160a72,72,0,1,1,72-72A72.083,72.083,0,0,1,256,256Z"/><path d="M256,64A120,120,0,1,0,376,184,120.134,120.134,0,0,0,256,64Zm0,224A104,104,0,1,1,360,184,104.112,104.112,0,0,1,256,288Z"/><path d="M279.85,178.07A15.758,15.758,0,0,0,280,176v-8a15.991,15.991,0,0,0-8-13.83V152a8,8,0,0,0-16,0h-8v-8a8,8,0,0,0-16,0v8a8,8,0,0,0,0,16v32a8,8,0,0,0,0,16v8a8,8,0,0,0,16,0v-8h8a8,8,0,0,0,16,0,16.021,16.021,0,0,0,16-16v-8A16,16,0,0,0,279.85,178.07ZM248,168h16l.01,8H248Zm24,32H248v-8h24l.01,8Z"/><path d="M472,176H456a8,8,0,0,0,0,16h16a8,8,0,0,0,0-16Z"/><path d="M432,88a7.974,7.974,0,0,0,5.657-2.343l16-16a8,8,0,0,0-11.314-11.314l-16,16A8,8,0,0,0,432,88Z"/><path d="M82.343,93.657A8,8,0,0,0,93.657,82.343l-20-20A8,8,0,0,0,62.343,73.657Z"/><path d="M64,184H32a8,8,0,0,0,0,16H64a8,8,0,0,0,0-16Z"/><path d="M421.657,298.343a8,8,0,0,0-11.314,11.314l20,20a8,8,0,0,0,11.314-11.314Z"/><path d="M90.343,290.343l-12,12a8,8,0,0,0,11.314,11.314l12-12a8,8,0,0,0-11.314-11.314Z"/></g></svg>
