<?xml version="1.0" encoding="utf-8"?>
<!-- Generator: Adobe Illustrator 22.1.0, SVG Export Plug-In . SVG Version: 6.00 Build 0)  -->
<svg version="1.1" id="Слой_1" xmlns="http://www.w3.org/2000/svg" xmlns:xlink="http://www.w3.org/1999/xlink" x="0px" y="0px"
	 viewBox="0 0 134 134" style="enable-background:new 0 0 134 134;" xml:space="preserve">
<g id="surface1">
	<path d="M45.4,134C30.5,84.9,61.9,67,61.9,67c-2.2,26.2,12.7,46.6,12.7,46.6c5.5-1.7,15.9-9.4,15.9-9.4c0,9.4-5.5,29.8-5.5,29.8
		s19.3-14.9,25.4-39.7c6.1-24.8-11.6-49.7-11.6-49.7c1.1,17.5-4.9,34.8-16.5,48c0.6-0.7,1.1-1.4,1.4-2.2c2.1-4.2,5.4-15,3.5-40.2
		C84.5,14.9,52.5,0,52.5,0c2.8,21.5-5.5,26.5-24.9,67.3C8.3,108.1,45.4,134,45.4,134z"/>
</g>
</svg>
