<?xml version="1.0"?>
<svg xmlns="http://www.w3.org/2000/svg" width="512" height="512" viewBox="0 0 512 512"><g><path d="M136,272A104,104,0,1,0,240,376,104.112,104.112,0,0,0,136,272Zm0,192a88,88,0,1,1,88-88A88.1,88.1,0,0,1,136,464Z"/><path d="M496,464H228.86A127.934,127.934,0,1,0,40,291.44V16a8,8,0,0,0-16,0v8H16a8,8,0,0,0,0,16h8V56H16a8,8,0,0,0,0,16h8V88H16a8,8,0,0,0,0,16h8v16H16a8,8,0,0,0,0,16h8v16H16a8,8,0,0,0,0,16h8v16H16a8,8,0,0,0,0,16h8v16H16a8,8,0,0,0,0,16h8v16H16a8,8,0,0,0,0,16h8v48a7.671,7.671,0,0,0,.2,1.74A127.937,127.937,0,0,0,210.53,480H496a8,8,0,0,0,0-16ZM136,488A112,112,0,1,1,248,376,112.123,112.123,0,0,1,136,488Z"/><path d="M164.9,370.78a23.974,23.974,0,0,0-12.9-34.4V336a8,8,0,0,0-15.93-1H128v-8a8,8,0,0,0-16,0v8h-8a8,8,0,0,0,0,16v48a8,8,0,0,0,0,16h8v8a8,8,0,0,0,16,0v-8h8a8,8,0,0,0,16,0,23.988,23.988,0,0,0,12.9-44.22ZM120,351h24a8,8,0,0,1,0,16H120Zm32,48H120V383h32a8,8,0,0,1,0,16Z"/><path d="M240,488H218a8,8,0,0,0,0,16h22a8,8,0,0,0,0-16Z"/><path d="M302,488H280a8,8,0,0,0,0,16h22a8,8,0,0,0,0-16Z"/><path d="M366,488H344a8,8,0,0,0,0,16h22a8,8,0,0,0,0-16Z"/><path d="M430,488H408a8,8,0,0,0,0,16h22a8,8,0,0,0,0-16Z"/><path d="M494,488H472a8,8,0,0,0,0,16h22a8,8,0,0,0,0-16Z"/><path d="M88,240a24.037,24.037,0,0,0,23.557-19.423l84.009-56.007a23.988,23.988,0,0,0,42.1-2.249l83.1,27.7a24,24,0,0,0,46.842-1.727l88.473-66.355a23.96,23.96,0,1,0-7.781-14.163L364.107,170.92a23.984,23.984,0,0,0-41.771,2.759l-83.1-27.7a24,24,0,0,0-46.791,1.444L108.434,203.43A24,24,0,1,0,88,240ZM472,96a8,8,0,1,1-8,8A8.009,8.009,0,0,1,472,96ZM344,176a8,8,0,1,1-8,8A8.009,8.009,0,0,1,344,176ZM216,144a8,8,0,1,1-8,8A8.009,8.009,0,0,1,216,144ZM88,208a8,8,0,1,1-8,8A8.009,8.009,0,0,1,88,208Z"/><path d="M488,320H376a8,8,0,0,0,0,16H488a8,8,0,0,0,0-16Z"/><path d="M488,296H376a8,8,0,0,0,0,16H488a8,8,0,0,0,0-16Z"/><path d="M488,344H376a8,8,0,0,0,0,16H488a8,8,0,0,0,0-16Z"/><path d="M488,368H440a8,8,0,0,0,0,16h48a8,8,0,0,0,0-16Z"/><path d="M408,368a8,8,0,0,0,0,16h8a8,8,0,0,0,0-16Z"/></g></svg>
