<svg width="84" height="107" viewBox="0 0 84 107" fill="none" xmlns="http://www.w3.org/2000/svg">
<path d="M82.7551 26.7709C83.4699 27.4857 83.875 28.4508 83.875 29.4635V102.938C83.875 105.046 82.1713 106.75 80.0625 106.75H3.8125C1.70371 106.75 0 105.046 0 102.938V3.8125C0 1.70371 1.70371 0 3.8125 0H54.4115C55.4242 0 56.4012 0.405078 57.116 1.11992L82.7551 26.7709ZM75.0824 31.2148L52.6602 8.79258V31.2148H75.0824ZM56.3797 68.2986C54.5712 68.239 52.6482 68.3784 50.4644 68.6512C47.5693 66.8653 45.6201 64.4122 44.2357 60.8082L44.3632 60.2864L44.5109 59.6692C45.0232 57.5092 45.2985 55.9329 45.3807 54.3436C45.4426 53.1439 45.3759 52.0371 45.1626 51.0112C44.7695 48.7964 43.2028 47.5014 41.2286 47.4215C39.3879 47.3465 37.6961 48.3747 37.2636 49.9676C36.5595 52.5434 36.9717 55.9329 38.4646 61.7136C36.5631 66.2469 34.0504 71.5618 32.3646 74.526C30.114 75.6865 28.3614 76.7421 26.8888 77.912C24.9469 79.4573 23.734 81.0454 23.4004 82.7134C23.2384 83.4866 23.4826 84.4969 24.039 85.3249C24.6704 86.2638 25.6212 86.8738 26.7614 86.9619C29.6386 87.1847 33.1747 84.2181 37.0789 77.5189C37.4709 77.3878 37.8855 77.2496 38.3919 77.078L39.8097 76.5991C40.7068 76.2965 41.3573 76.0796 42.0006 75.8711C44.7885 74.9633 46.8973 74.3902 48.8155 74.0638C52.149 75.8485 56.0021 77.0185 58.5969 77.0185C60.7391 77.0185 62.1866 75.9081 62.7097 74.1603C63.1684 72.6257 62.805 70.8458 61.8185 69.8617C60.7987 68.8597 58.9234 68.3808 56.3797 68.2986ZM26.834 83.5986V83.5557L26.8495 83.5152C27.0239 83.0645 27.2476 82.6346 27.5167 82.2332C28.0266 81.4493 28.7284 80.6248 29.5981 79.7468C30.0651 79.2762 30.5512 78.8175 31.1219 78.3028C31.2494 78.1884 32.0643 77.4629 32.2168 77.3199L33.5476 76.0808L32.5802 77.6213C31.1124 79.9612 29.7852 81.6459 28.6486 82.7444C28.2304 83.1494 27.8622 83.4473 27.5644 83.6391C27.466 83.7048 27.362 83.7614 27.2534 83.8083C27.2046 83.8285 27.1617 83.8404 27.1188 83.844C27.0735 83.8498 27.0275 83.8436 26.9854 83.8262C26.9405 83.8074 26.9022 83.7757 26.8753 83.7352C26.8484 83.6948 26.834 83.6472 26.834 83.5986ZM41.8386 57.5926L41.5694 58.0691L41.4026 57.5473C41.0332 56.3762 40.7616 54.6117 40.6865 53.02C40.6007 51.209 40.7449 50.1225 41.3168 50.1225C42.1198 50.1225 42.4879 51.4092 42.5165 53.3452C42.5427 55.0465 42.2747 56.817 41.8374 57.5926H41.8386ZM41.1464 64.5575L41.3287 64.075L41.5777 64.5278C42.9705 67.0583 44.7778 69.1695 46.7651 70.6409L47.194 70.9578L46.671 71.065C44.7254 71.4677 42.9133 72.0729 40.4351 73.0725C40.6937 72.9677 37.8593 74.1281 37.1421 74.4033L36.5166 74.6428L36.8502 74.0614C38.3216 71.4999 39.681 68.4237 41.1452 64.5575H41.1464ZM59.9254 73.6432C58.9889 74.0125 56.973 73.6825 53.4238 72.167L52.5231 71.7834L53.5001 71.7119C56.2761 71.5058 58.2419 71.6583 59.388 72.0777C59.8765 72.2564 60.2018 72.4816 60.3459 72.7389C60.4218 72.8608 60.4473 73.0073 60.4171 73.1476C60.3868 73.2879 60.3032 73.4109 60.1839 73.4907C60.1081 73.5574 60.0204 73.6092 59.9254 73.6432Z" fill="#216EC9"/>
</svg>
