<svg width="32" height="30" viewBox="0 0 32 30" fill="none" xmlns="http://www.w3.org/2000/svg">
<path opacity="0.5" d="M24 26.2778H27.2V13.3889H17.6V26.2778H20.8V16.6111H24V26.2778ZM1.6 26.2778V2.11111C1.6 1.68382 1.76857 1.27403 2.06863 0.971883C2.36869 0.669742 2.77565 0.5 3.2 0.5H25.6C26.0243 0.5 26.4313 0.669742 26.7314 0.971883C27.0314 1.27403 27.2 1.68382 27.2 2.11111V10.1667H30.4V26.2778H32V29.5H0V26.2778H1.6ZM8 13.3889V16.6111H11.2V13.3889H8ZM8 19.8333V23.0556H11.2V19.8333H8ZM8 6.94444V10.1667H11.2V6.94444H8Z" fill="#131313"/>
</svg>
