<svg width="32" height="45" viewBox="0 0 32 45" fill="none" xmlns="http://www.w3.org/2000/svg">
<path opacity="0.5" d="M31.75 15.75C31.75 13.6817 31.3426 11.6336 30.5511 9.72274C29.7596 7.81186 28.5995 6.07559 27.1369 4.61307C25.6744 3.15055 23.9381 1.99041 22.0273 1.1989C20.1164 0.407386 18.0683 0 16 0C13.9317 0 11.8836 0.407386 9.97274 1.1989C8.06186 1.99041 6.32559 3.15055 4.86307 4.61307C3.40055 6.07559 2.24041 7.81186 1.4489 9.72274C0.657385 11.6336 0.25 13.6817 0.25 15.75C0.25 18.8708 1.1725 21.7733 2.73625 24.2213H2.71825C8.02825 32.535 16 45 16 45L29.2817 24.2213H29.266C30.8869 21.6931 31.749 18.7532 31.75 15.75ZM16 22.5C14.2098 22.5 12.4929 21.7888 11.227 20.523C9.96116 19.2571 9.25 17.5402 9.25 15.75C9.25 13.9598 9.96116 12.2429 11.227 10.977C12.4929 9.71116 14.2098 9 16 9C17.7902 9 19.5071 9.71116 20.773 10.977C22.0388 12.2429 22.75 13.9598 22.75 15.75C22.75 17.5402 22.0388 19.2571 20.773 20.523C19.5071 21.7888 17.7902 22.5 16 22.5Z" fill="#131313"/>
</svg>
