<svg width="31" height="36" viewBox="0 0 31 36" fill="none" xmlns="http://www.w3.org/2000/svg">
<path opacity="0.5" d="M30.875 31.6666V7.74996C30.875 5.86567 29.3426 4.33329 27.4583 4.33329H24.0417V0.916626H20.625V4.33329H10.375V0.916626H6.95833V4.33329H3.54167C1.65737 4.33329 0.125 5.86567 0.125 7.74996V31.6666C0.125 33.5509 1.65737 35.0833 3.54167 35.0833H27.4583C29.3426 35.0833 30.875 33.5509 30.875 31.6666ZM10.375 28.25H6.95833V24.8333H10.375V28.25ZM10.375 21.4166H6.95833V18H10.375V21.4166ZM17.2083 28.25H13.7917V24.8333H17.2083V28.25ZM17.2083 21.4166H13.7917V18H17.2083V21.4166ZM24.0417 28.25H20.625V24.8333H24.0417V28.25ZM24.0417 21.4166H20.625V18H24.0417V21.4166ZM27.4583 12.875H3.54167V9.45829H27.4583V12.875Z" fill="#131313"/>
</svg>
