<svg width="32" height="33" viewBox="0 0 32 33" fill="none" xmlns="http://www.w3.org/2000/svg">
<path opacity="0.5" d="M16 0.5C11.7565 0.5 7.68687 2.18571 4.68629 5.18629C1.68571 8.18687 0 12.2565 0 16.5C0 20.7435 1.68571 24.8131 4.68629 27.8137C7.68687 30.8143 11.7565 32.5 16 32.5C20.2435 32.5 24.3131 30.8143 27.3137 27.8137C30.3143 24.8131 32 20.7435 32 16.5C32 12.2565 30.3143 8.18687 27.3137 5.18629C24.3131 2.18571 20.2435 0.5 16 0.5V0.5ZM1.97333 17.7089H6.43556C6.50667 19.3267 6.73244 20.9338 7.11111 22.5089H3.27111C2.55503 20.9993 2.11548 19.3736 1.97333 17.7089ZM17.2089 8.10889V2.61556C18.9221 3.26662 20.3299 4.53489 21.1556 6.17111C21.52 6.788 21.8418 7.42978 22.1156 8.09111L17.2089 8.10889ZM22.9333 10.5089C23.3458 12.0787 23.5911 13.6876 23.6622 15.3089H17.2089V10.5089H22.9333ZM14.7911 2.61556V8.10889H9.88444C10.1587 7.44702 10.4795 6.80541 10.8444 6.18889C11.6666 4.54596 13.0748 3.27095 14.7911 2.61556ZM14.7911 10.5089V15.3089H8.35556C8.42667 13.6876 8.672 12.0787 9.08444 10.5089H14.7911ZM6.43556 15.2911H1.97333C2.11548 13.6264 2.55503 12.0007 3.27111 10.4911H7.11111C6.73172 12.0656 6.50548 13.6731 6.43556 15.2911ZM8.35556 17.7089H14.7911V22.5089H9.08444C8.67206 20.9392 8.42773 19.3302 8.35556 17.7089ZM14.8089 24.82V30.3133C13.0957 29.6623 11.6879 28.394 10.8622 26.7578C10.4973 26.1413 10.1765 25.4997 9.90222 24.8378L14.8089 24.82ZM17.2089 30.3133V24.9089H22.1156C21.8413 25.5708 21.5205 26.2124 21.1556 26.8289C20.3299 28.4651 18.9221 29.7334 17.2089 30.3844V30.3133ZM17.2089 22.42V17.62H23.6444C23.5723 19.2413 23.3279 20.8504 22.9156 22.42H17.2089ZM25.5822 17.62H30.0444C29.9023 19.2847 29.4627 20.9105 28.7467 22.42H24.8889C25.2622 20.8733 25.488 19.2964 25.5644 17.7089L25.5822 17.62ZM25.5822 15.22C25.5008 13.6312 25.2687 12.0538 24.8889 10.5089H28.7289C29.4453 12.02 29.8844 13.6449 30.0267 15.3089L25.5822 15.22ZM27.36 8.10889H24.1778C23.602 6.49164 22.7674 4.97862 21.7067 3.62889C23.9189 4.62192 25.8405 6.16409 27.2889 8.10889H27.36ZM10.2933 3.62889C9.23257 4.97862 8.39801 6.49164 7.82222 8.10889H4.71111C6.15951 6.16409 8.0811 4.62192 10.2933 3.62889ZM4.69333 24.9622H7.82222C8.39801 26.5795 9.23257 28.0925 10.2933 29.4422C8.07498 28.4342 6.15279 26.8732 4.71111 24.9089L4.69333 24.9622ZM21.6889 29.4422C22.7497 28.0925 23.5842 26.5795 24.16 24.9622H27.2889C25.8316 26.881 23.9108 28.398 21.7067 29.3711L21.6889 29.4422Z" fill="#131313"/>
</svg>
