<svg width="30" height="31" viewBox="0 0 30 31" fill="none" xmlns="http://www.w3.org/2000/svg">
<path opacity="0.5" d="M15 30.5C6.7155 30.5 0 23.7845 0 15.5C0 7.2155 6.7155 0.5 15 0.5C23.2845 0.5 30 7.2155 30 15.5C30 23.7845 23.2845 30.5 15 30.5ZM24.5325 21.428V21.2705C24.5325 19.8875 24.5325 19.256 23.5545 18.6965C23.2402 18.5183 22.9173 18.3556 22.587 18.209C22.0365 17.9585 21.672 17.795 21.18 17.075C21.1213 16.9895 21.0633 16.9035 21.006 16.817C20.4885 16.0295 20.115 15.4625 18.693 15.6875C15.8955 16.1315 15.6885 16.6235 15.5655 17.4545L15.546 17.591C15.3645 18.806 15.3315 19.214 15.8385 19.7465C17.736 21.737 18.873 23.1725 19.218 24.0125C19.386 24.422 19.818 25.6625 19.521 26.8895C21.3417 26.1643 22.9624 25.0137 24.2475 23.534C24.4125 22.973 24.5325 22.274 24.5325 21.428ZM15 3.2495C11.5245 3.2495 8.385 4.6985 6.156 7.0235C6.4215 7.208 6.6525 7.4675 6.8115 7.8245C7.1175 8.51 7.1175 9.2165 7.1175 9.842C7.1175 10.334 7.1175 10.802 7.275 11.1395C7.491 11.6015 8.424 11.7995 9.2475 11.9705C9.543 12.0335 9.846 12.0965 10.122 12.173C10.881 12.383 11.469 13.0655 11.9385 13.613C12.1335 13.8395 12.423 14.174 12.5685 14.258C12.6435 14.204 12.885 13.9415 13.0035 13.511C13.0965 13.181 13.0695 12.89 12.936 12.731C12.096 11.741 12.1425 9.836 12.402 9.1325C12.81 8.024 14.085 8.1065 15.018 8.1665C15.366 8.189 15.693 8.2115 15.939 8.18C16.872 8.063 17.16 6.6425 17.3625 6.365C17.8005 5.765 19.1415 4.8605 19.9725 4.3025C18.4072 3.60649 16.713 3.24771 15 3.2495Z" fill="#131313"/>
</svg>
