<svg width="84" height="111" viewBox="0 0 84 111" fill="none" xmlns="http://www.w3.org/2000/svg">
<g style="mix-blend-mode:darken">
<path d="M-522.282 110.481L-521.445 110.459L-523.04 110.127L-522.282 110.481ZM-522.272 110.858L-523.109 110.88L-523.087 111.717L-522.25 111.695L-522.272 110.858ZM-498.796 110.243L-498.774 111.08L-497.937 111.058L-497.959 110.221L-498.796 110.243ZM-498.806 109.867L-497.969 109.845L-497.986 109.205L-498.607 109.053L-498.806 109.867ZM-501.984 108.442L-502.503 109.099L-501.984 108.442ZM-503.708 104.97L-502.894 104.773L-502.894 104.773L-503.708 104.97ZM-504.668 97.0807L-505.504 97.1325L-504.668 97.0807ZM-506.437 29.5411L-507.274 29.5331L-506.437 29.5411ZM-505.891 21.6124L-505.068 21.7663L-505.068 21.7663L-505.891 21.6124ZM-501.252 16.466L-501.01 17.2676L-500.398 17.0833L-500.415 16.444L-501.252 16.466ZM-501.262 16.0893L-500.425 16.0674L-500.447 15.2305L-501.284 15.2524L-501.262 16.0893ZM-524.737 16.7041L-524.759 15.8672L-525.596 15.8891L-525.574 16.726L-524.737 16.7041ZM-524.727 17.0807L-525.564 17.1026L-525.548 17.7253L-524.947 17.8886L-524.727 17.0807ZM-518.987 29.9953L-518.152 29.9436L-518.987 29.9953ZM-517.219 97.535L-516.382 97.543L-517.219 97.535ZM-517.765 105.464L-518.588 105.31L-517.765 105.464ZM-519.427 109.15L-519.98 108.521L-519.427 109.15ZM-522.401 110.736L-523.159 110.381L-523.98 112.136L-522.139 111.531L-522.401 110.736ZM-523.119 110.503L-523.109 110.88L-521.435 110.836L-521.445 110.459L-523.119 110.503ZM-522.25 111.695L-498.774 111.08L-498.818 109.406L-522.294 110.021L-522.25 111.695ZM-497.959 110.221L-497.969 109.845L-499.643 109.888L-499.633 110.265L-497.959 110.221ZM-498.607 109.053C-499.915 108.733 -500.814 108.3 -501.465 107.785L-502.503 109.099C-501.615 109.801 -500.478 110.319 -499.005 110.68L-498.607 109.053ZM-501.465 107.785C-502 107.362 -502.479 106.489 -502.894 104.773L-504.522 105.167C-504.091 106.946 -503.507 108.306 -502.503 109.099L-501.465 107.785ZM-502.894 104.773C-503.299 103.099 -503.616 100.529 -503.833 97.0289L-505.504 97.1325C-505.286 100.656 -504.962 103.345 -504.522 105.167L-502.894 104.773ZM-503.833 97.0289C-504.049 93.5357 -504.177 88.6578 -504.338 82.4996L-506.012 82.5435C-505.851 88.688 -505.723 93.6021 -505.504 97.1325L-503.833 97.0289ZM-504.338 82.4996L-505.344 44.0849L-507.018 44.1287L-506.012 82.5435L-504.338 82.4996ZM-505.344 44.0849C-505.505 37.9267 -505.633 33.0488 -505.6 29.549L-507.274 29.5331C-507.308 33.0701 -507.179 37.9842 -507.018 44.1287L-505.344 44.0849ZM-505.6 29.549C-505.566 26.0426 -505.384 23.4593 -505.068 21.7663L-506.714 21.4585C-507.058 23.3003 -507.24 26.0028 -507.274 29.5331L-505.6 29.549ZM-505.068 21.7663C-504.743 20.0309 -504.311 19.1339 -503.798 18.6835L-504.903 17.4257C-505.864 18.2702 -506.377 19.6591 -506.714 21.4585L-505.068 21.7663ZM-503.798 18.6835C-503.175 18.1358 -502.3 17.656 -501.01 17.2676L-501.493 15.6643C-502.945 16.1015 -504.053 16.6786 -504.903 17.4257L-503.798 18.6835ZM-500.415 16.444L-500.425 16.0674L-502.099 16.1113L-502.089 16.4879L-500.415 16.444ZM-501.284 15.2524L-524.759 15.8672L-524.715 17.541L-501.24 16.9263L-501.284 15.2524ZM-525.574 16.726L-525.564 17.1026L-523.89 17.0588L-523.9 16.6822L-525.574 16.726ZM-524.947 17.8886C-523.756 18.2122 -522.851 18.6466 -522.194 19.1652L-521.156 17.8513C-522.039 17.154 -523.168 16.6367 -524.508 16.2728L-524.947 17.8886ZM-522.194 19.1652C-521.949 19.3589 -521.692 19.6951 -521.44 20.2343C-521.19 20.7696 -520.966 21.458 -520.761 22.3029L-519.134 21.9093C-519.352 21.0066 -519.607 20.2001 -519.923 19.5253C-520.236 18.8545 -520.632 18.2655 -521.156 17.8513L-522.194 19.1652ZM-520.761 22.3029C-520.357 23.977 -520.04 26.5472 -519.823 30.0471L-518.152 29.9436C-518.37 26.4198 -518.694 23.7306 -519.134 21.9093L-520.761 22.3029ZM-519.823 30.0471C-519.607 33.5403 -519.479 38.4182 -519.317 44.5764L-517.644 44.5326C-517.804 38.388 -517.933 33.4739 -518.152 29.9436L-519.823 30.0471ZM-519.317 44.5764L-518.312 82.9912L-516.638 82.9473L-517.644 44.5326L-519.317 44.5764ZM-518.312 82.9912C-518.15 89.1494 -518.023 94.0273 -518.056 97.527L-516.382 97.543C-516.348 94.006 -516.477 89.0919 -516.638 82.9473L-518.312 82.9912ZM-518.056 97.527C-518.089 101.033 -518.271 103.617 -518.588 105.31L-516.942 105.618C-516.597 103.776 -516.415 101.073 -516.382 97.543L-518.056 97.527ZM-518.588 105.31C-518.906 107.011 -519.453 108.059 -519.98 108.521L-518.875 109.779C-517.928 108.947 -517.285 107.451 -516.942 105.618L-518.588 105.31ZM-519.98 108.521C-520.608 109.074 -521.49 109.555 -522.662 109.94L-522.139 111.531C-520.82 111.097 -519.72 110.522 -518.875 109.779L-519.98 108.521ZM-521.642 111.09L-521.523 110.836L-523.04 110.127L-523.159 110.381L-521.642 111.09ZM-495.791 110.164L-496.628 110.186L-496.606 111.023L-495.769 111.001L-495.791 110.164ZM-484.116 109.859L-484.094 110.696L-483.257 110.674L-483.279 109.837L-484.116 109.859ZM-484.126 109.482L-483.289 109.46L-483.304 108.874L-483.86 108.688L-484.126 109.482ZM-487.31 107.807L-486.791 107.15L-487.31 107.807ZM-489.038 104.209L-488.224 104.012L-489.038 104.209ZM-489.995 96.4452L-489.159 96.3923L-489.995 96.4452ZM-492.158 18.6147L-491.431 18.1995L-492.995 18.6366L-492.158 18.6147ZM-440.415 109.217L-441.142 109.632L-440.894 110.067L-440.394 110.054L-440.415 109.217ZM-438.658 109.171L-438.636 110.008L-437.799 109.986L-437.821 109.149L-438.658 109.171ZM-440.649 28.3208L-439.812 28.3299L-440.649 28.3208ZM-440.1 20.5177L-439.277 20.6717L-439.277 20.6717L-440.1 20.5177ZM-438.563 16.8344L-438.011 17.4633L-438.011 17.4633L-438.563 16.8344ZM-435.596 14.998L-435.265 15.7669L-434.745 15.5427L-434.76 14.976L-435.596 14.998ZM-435.606 14.6213L-434.769 14.5994L-434.791 13.7625L-435.628 13.7844L-435.606 14.6213ZM-447.281 14.9271L-447.303 14.0901L-448.14 14.1121L-448.118 14.949L-447.281 14.9271ZM-447.272 15.3037L-448.108 15.3256L-448.093 15.9118L-447.537 16.0977L-447.272 15.3037ZM-444.087 16.979L-444.606 17.636L-444.606 17.636L-444.087 16.979ZM-442.36 20.5769L-441.546 20.3801L-441.546 20.3801L-442.36 20.5769ZM-441.403 28.3406L-442.238 28.3934L-441.403 28.3406ZM-439.808 84.4529L-440.534 84.8702L-438.971 84.431L-439.808 84.4529ZM-477.583 18.7355L-476.857 18.3183L-476.859 18.3155L-477.583 18.7355ZM-479.409 16.1452L-478.833 15.538L-478.833 15.5379L-479.409 16.1452ZM-498.128 16.1329L-498.15 15.296L-498.987 15.3179L-498.965 16.1548L-498.128 16.1329ZM-498.118 16.5095L-498.955 16.5314L-498.938 17.1541L-498.337 17.3174L-498.118 16.5095ZM-495.065 17.9371L-495.584 18.5941L-495.065 17.9371ZM-493.338 21.535L-494.152 21.7317L-493.338 21.535ZM-492.378 29.4242L-493.213 29.4759L-492.378 29.4242ZM-490.619 96.5872L-491.456 96.5781L-490.619 96.5872ZM-491.168 104.39L-491.991 104.236L-491.168 104.39ZM-492.831 108.077L-492.278 108.706L-492.831 108.077ZM-495.798 109.913L-496.635 109.935L-496.602 111.171L-495.466 110.682L-495.798 109.913ZM-496.638 109.81L-496.628 110.186L-494.954 110.143L-494.964 109.766L-496.638 109.81ZM-495.769 111.001L-484.094 110.696L-484.138 109.022L-495.813 109.328L-495.769 111.001ZM-483.279 109.837L-483.289 109.46L-484.963 109.504L-484.953 109.881L-483.279 109.837ZM-483.86 108.688C-485.162 108.253 -486.097 107.698 -486.791 107.15L-487.829 108.464C-486.984 109.131 -485.878 109.779 -484.391 110.276L-483.86 108.688ZM-486.791 107.15C-487.037 106.956 -487.294 106.62 -487.546 106.081C-487.796 105.545 -488.02 104.857 -488.224 104.012L-489.851 104.406C-489.633 105.308 -489.378 106.115 -489.063 106.79C-488.749 107.46 -488.354 108.049 -487.829 108.464L-486.791 107.15ZM-488.224 104.012C-488.629 102.337 -488.946 99.7664 -489.159 96.3923L-490.83 96.4981C-490.615 99.8966 -490.292 102.585 -489.851 104.406L-488.224 104.012ZM-489.159 96.3923C-489.372 93.0254 -489.497 88.2738 -489.655 82.2408L-491.329 82.2846C-491.171 88.3032 -491.046 93.0925 -490.83 96.4981L-489.159 96.3923ZM-489.655 82.2408L-491.321 18.5928L-492.995 18.6366L-491.329 82.2846L-489.655 82.2408ZM-492.885 19.0299L-441.142 109.632L-439.688 108.802L-491.431 18.1995L-492.885 19.0299ZM-440.394 110.054L-438.636 110.008L-438.68 108.334L-440.437 108.38L-440.394 110.054ZM-437.821 109.149L-439.567 42.4881L-441.24 42.5319L-439.495 109.193L-437.821 109.149ZM-439.567 42.4881C-439.725 36.455 -439.849 31.7034 -439.812 28.3299L-441.487 28.3118C-441.524 31.7239 -441.398 36.5132 -441.24 42.5319L-439.567 42.4881ZM-439.812 28.3299C-439.776 24.9493 -439.594 22.3654 -439.277 20.6717L-440.923 20.3638C-441.267 22.2049 -441.45 24.9067 -441.487 28.3118L-439.812 28.3299ZM-439.277 20.6717C-439.117 19.8172 -438.93 19.118 -438.708 18.5704C-438.485 18.0187 -438.245 17.6696 -438.011 17.4633L-439.116 16.2055C-439.618 16.6466 -439.982 17.2555 -440.26 17.9417C-440.54 18.6321 -440.752 19.4509 -440.923 20.3638L-439.277 20.6717ZM-438.011 17.4633C-437.341 16.8752 -436.429 16.268 -435.265 15.7669L-435.928 14.229C-437.249 14.798 -438.312 15.4987 -439.116 16.2055L-438.011 17.4633ZM-434.76 14.976L-434.769 14.5994L-436.443 14.6433L-436.433 15.0199L-434.76 14.976ZM-435.628 13.7844L-447.303 14.0901L-447.259 15.764L-435.584 15.4583L-435.628 13.7844ZM-448.118 14.949L-448.108 15.3256L-446.435 15.2818L-446.444 14.9052L-448.118 14.949ZM-447.537 16.0977C-446.235 16.5328 -445.3 17.0876 -444.606 17.636L-443.568 16.3221C-444.413 15.6546 -445.52 15.0066 -447.006 14.5097L-447.537 16.0977ZM-444.606 17.636C-444.361 17.8297 -444.104 18.1658 -443.852 18.7051C-443.601 19.2404 -443.378 19.9288 -443.173 20.7737L-441.546 20.3801C-441.764 19.4774 -442.019 18.6708 -442.335 17.9961C-442.648 17.3253 -443.044 16.7363 -443.568 16.3221L-444.606 17.636ZM-443.173 20.7737C-442.768 22.4486 -442.452 25.0194 -442.238 28.3934L-440.567 28.2877C-440.782 24.8892 -441.106 22.2006 -441.546 20.3801L-443.173 20.7737ZM-442.238 28.3934C-442.025 31.7604 -441.901 36.512 -441.743 42.545L-440.069 42.5012C-440.226 36.4826 -440.352 31.6932 -440.567 28.2877L-442.238 28.3934ZM-441.743 42.545L-440.645 84.4749L-438.971 84.431L-440.069 42.5012L-441.743 42.545ZM-439.082 84.0357L-476.857 18.3183L-478.309 19.1527L-440.534 84.8702L-439.082 84.0357ZM-476.859 18.3155C-477.658 16.9374 -478.357 15.9898 -478.833 15.538L-479.986 16.7525C-479.689 17.0342 -479.087 17.8113 -478.307 19.1555L-476.859 18.3155ZM-478.833 15.5379C-479.487 14.9178 -480.436 14.8321 -481.327 14.8555L-481.284 16.5293C-480.417 16.5066 -480.105 16.6392 -479.986 16.7525L-478.833 15.5379ZM-481.327 14.8555L-498.15 15.296L-498.106 16.9698L-481.284 16.5293L-481.327 14.8555ZM-498.965 16.1548L-498.955 16.5314L-497.281 16.4876L-497.291 16.111L-498.965 16.1548ZM-498.337 17.3174C-497.146 17.641 -496.241 18.0754 -495.584 18.5941L-494.547 17.2801C-495.429 16.5829 -496.559 16.0655 -497.898 15.7016L-498.337 17.3174ZM-495.584 18.5941C-495.339 18.7878 -495.082 19.1239 -494.83 19.6631C-494.58 20.1984 -494.356 20.8868 -494.152 21.7317L-492.524 21.3382C-492.743 20.4354 -492.998 19.6289 -493.313 18.9541C-493.627 18.2834 -494.022 17.6944 -494.547 17.2801L-495.584 18.5941ZM-494.152 21.7317C-493.747 23.4059 -493.43 25.9761 -493.213 29.4759L-491.542 29.3724C-491.761 25.8487 -492.084 23.1594 -492.524 21.3382L-494.152 21.7317ZM-493.213 29.4759C-492.997 32.9691 -492.869 37.847 -492.708 44.0052L-491.034 43.9614C-491.195 37.8168 -491.323 32.9028 -491.542 29.3724L-493.213 29.4759ZM-492.708 44.0052L-491.702 82.42L-490.028 82.3761L-491.034 43.9614L-492.708 44.0052ZM-491.702 82.42C-491.544 88.453 -491.42 93.2046 -491.456 96.5781L-489.782 96.5963C-489.745 93.1841 -489.87 88.3948 -490.028 82.3761L-491.702 82.42ZM-491.456 96.5781C-491.493 99.9587 -491.675 102.543 -491.991 104.236L-490.346 104.544C-490.001 102.703 -489.819 100.001 -489.782 96.5963L-491.456 96.5781ZM-491.991 104.236C-492.31 105.938 -492.857 106.985 -493.383 107.448L-492.278 108.706C-491.331 107.874 -490.688 106.377 -490.346 104.544L-491.991 104.236ZM-493.383 107.448C-494.053 108.036 -494.965 108.643 -496.129 109.144L-495.466 110.682C-494.145 110.113 -493.082 109.413 -492.278 108.706L-493.383 107.448ZM-494.961 109.891L-494.964 109.766L-496.638 109.81L-496.635 109.935L-494.961 109.891ZM-430.702 108.083L-430.724 107.246L-431.561 107.268L-431.539 108.105L-430.702 108.083ZM-430.693 108.46L-431.529 108.482L-431.508 109.319L-430.671 109.297L-430.693 108.46ZM-407.217 107.845L-407.195 108.682L-406.358 108.66L-406.38 107.823L-407.217 107.845ZM-407.227 107.468L-406.39 107.447L-406.407 106.807L-407.028 106.655L-407.227 107.468ZM-410.405 106.044L-410.924 106.701L-410.405 106.044ZM-412.129 102.572L-411.315 102.375L-411.315 102.375L-412.129 102.572ZM-413.089 94.6826L-413.925 94.7344L-413.089 94.6826ZM-414.204 56.8989L-413.5 56.4453L-415.119 53.9334L-415.041 56.9208L-414.204 56.8989ZM-388.408 96.9257L-387.694 96.4885L-387.699 96.4803L-387.704 96.4722L-388.408 96.9257ZM-385.208 104.002L-384.375 103.911L-384.375 103.911L-385.208 104.002ZM-387.762 107.21L-388.047 106.423L-388.614 106.629L-388.599 107.232L-387.762 107.21ZM-387.755 107.461L-388.592 107.483L-388.57 108.32L-387.733 108.298L-387.755 107.461ZM-365.535 106.879L-365.513 107.716L-364.676 107.694L-364.698 106.857L-365.535 106.879ZM-365.541 106.628L-364.704 106.606L-364.718 106.089L-365.187 105.87L-365.541 106.628ZM-367.457 105.422L-366.881 104.815L-367.457 105.422ZM-369.264 103.585L-368.635 103.032L-368.635 103.032L-369.264 103.585ZM-371.22 100.872L-371.941 101.298L-371.22 100.872ZM-373.588 96.7889L-372.861 96.3728L-372.87 96.3576L-372.879 96.3429L-373.588 96.7889ZM-404.784 47.2304L-405.415 46.6801L-405.824 47.1494L-405.493 47.6764L-404.784 47.2304ZM-382.587 21.7755L-383.218 21.2249L-383.218 21.2252L-382.587 21.7755ZM-375.979 15.0699L-376.507 14.4199L-376.507 14.4199L-375.979 15.0699ZM-372.275 12.5861L-371.925 13.3467L-371.424 13.116L-371.438 12.5642L-372.275 12.5861ZM-372.282 12.335L-371.445 12.3131L-371.467 11.4762L-372.304 11.4981L-372.282 12.335ZM-384.333 12.6506L-384.355 11.8137L-385.192 11.8356L-385.17 12.6725L-384.333 12.6506ZM-384.327 12.9017L-385.164 12.9236L-385.147 13.5463L-384.546 13.7096L-384.327 12.9017ZM-381.403 14.207L-381.909 14.8742L-381.909 14.8742L-381.403 14.207ZM-380.594 16.3214L-381.426 16.2247L-381.426 16.2248L-380.594 16.3214ZM-385.908 24.5005L-386.534 23.9455L-386.538 23.95L-385.908 24.5005ZM-413.96 56.6412L-414.796 56.6631L-414.74 58.8089L-413.329 57.1917L-413.96 56.6412ZM-414.067 18.9567L-414.89 18.8027L-414.89 18.8027L-414.067 18.9567ZM-412.527 15.3989L-411.974 16.0278L-412.527 15.3989ZM-409.428 13.8102L-409.187 14.6119L-408.574 14.4275L-408.591 13.7883L-409.428 13.8102ZM-409.438 13.4336L-408.601 13.4117L-408.623 12.5748L-409.46 12.5967L-409.438 13.4336ZM-432.914 14.0483L-432.935 13.2114L-433.772 13.2333L-433.75 14.0703L-432.914 14.0483ZM-432.904 14.425L-433.741 14.4469L-433.724 15.0696L-433.123 15.2329L-432.904 14.425ZM-428.124 19.4504L-428.938 19.6472L-428.938 19.6472L-428.124 19.4504ZM-427.164 27.3396L-426.328 27.2878L-427.164 27.3396ZM-425.395 94.8792L-424.558 94.8872L-425.395 94.8792ZM-425.941 102.808L-425.118 102.962L-425.941 102.808ZM-427.603 106.495L-428.156 105.866L-427.603 106.495ZM-430.577 108.08L-430.555 108.917L-430.432 108.914L-430.315 108.875L-430.577 108.08ZM-431.539 108.105L-431.529 108.482L-429.856 108.438L-429.865 108.061L-431.539 108.105ZM-430.671 109.297L-407.195 108.682L-407.239 107.008L-430.714 107.623L-430.671 109.297ZM-406.38 107.823L-406.39 107.447L-408.064 107.49L-408.054 107.867L-406.38 107.823ZM-407.028 106.655C-408.336 106.335 -409.234 105.902 -409.886 105.387L-410.924 106.701C-410.035 107.403 -408.899 107.921 -407.426 108.282L-407.028 106.655ZM-409.886 105.387C-410.421 104.964 -410.9 104.091 -411.315 102.375L-412.942 102.769C-412.512 104.548 -411.928 105.908 -410.924 106.701L-409.886 105.387ZM-411.315 102.375C-411.72 100.701 -412.037 98.1307 -412.253 94.6308L-413.925 94.7344C-413.706 98.2581 -413.383 100.947 -412.942 102.769L-411.315 102.375ZM-412.253 94.6308C-412.47 91.1376 -412.598 86.2597 -412.759 80.1015L-414.433 80.1454C-414.272 86.2899 -414.143 91.204 -413.925 94.7344L-412.253 94.6308ZM-412.759 80.1015L-413.367 56.8769L-415.041 56.9208L-414.433 80.1454L-412.759 80.1015ZM-414.908 57.3524L-389.112 97.3792L-387.704 96.4722L-413.5 56.4453L-414.908 57.3524ZM-389.122 97.3629C-388.148 98.9526 -387.408 100.314 -386.894 101.451C-386.375 102.599 -386.108 103.471 -386.04 104.094L-384.375 103.911C-384.472 103.031 -384.821 101.972 -385.369 100.761C-385.921 99.539 -386.699 98.1134 -387.694 96.4885L-389.122 97.3629ZM-386.04 104.094C-385.979 104.65 -386.104 105.054 -386.375 105.391C-386.668 105.755 -387.19 106.112 -388.047 106.423L-387.476 107.997C-386.467 107.631 -385.629 107.135 -385.07 106.441C-384.49 105.719 -384.271 104.859 -384.375 103.911L-386.04 104.094ZM-388.599 107.232L-388.592 107.483L-386.918 107.439L-386.925 107.188L-388.599 107.232ZM-387.733 108.298L-365.513 107.716L-365.557 106.042L-387.777 106.624L-387.733 108.298ZM-364.698 106.857L-364.704 106.606L-366.378 106.65L-366.372 106.901L-364.698 106.857ZM-365.187 105.87C-365.925 105.524 -366.465 105.21 -366.881 104.815L-368.034 106.029C-367.419 106.612 -366.684 107.018 -365.896 107.386L-365.187 105.87ZM-366.881 104.815C-367.397 104.325 -368.016 103.737 -368.635 103.032L-369.893 104.138C-369.218 104.906 -368.548 105.541 -368.034 106.029L-366.881 104.815ZM-368.635 103.032C-369.25 102.333 -369.87 101.512 -370.499 100.447L-371.941 101.298C-371.255 102.459 -370.573 103.364 -369.893 104.138L-368.635 103.032ZM-370.499 100.447C-371.153 99.3376 -371.941 97.9798 -372.861 96.3728L-374.314 97.2049C-373.392 98.8159 -372.6 100.18 -371.941 101.298L-370.499 100.447ZM-372.879 96.3429L-404.076 46.7843L-405.493 47.6764L-374.296 97.2349L-372.879 96.3429ZM-404.153 47.7806L-381.956 22.3257L-383.218 21.2252L-405.415 46.6801L-404.153 47.7806ZM-381.956 22.326C-379.164 19.1262 -376.996 16.974 -375.451 15.7199L-376.507 14.4199C-378.16 15.7621 -380.4 17.9966 -383.218 21.2249L-381.956 22.326ZM-375.451 15.7199C-373.879 14.4437 -372.705 13.7052 -371.925 13.3467L-372.625 11.8255C-373.583 12.2662 -374.88 13.1 -376.507 14.4199L-375.451 15.7199ZM-371.438 12.5642L-371.445 12.3131L-373.119 12.3569L-373.112 12.608L-371.438 12.5642ZM-372.304 11.4981L-384.355 11.8137L-384.312 13.4875L-372.26 13.1719L-372.304 11.4981ZM-385.17 12.6725L-385.164 12.9236L-383.49 12.8798L-383.497 12.6287L-385.17 12.6725ZM-384.546 13.7096C-383.346 14.0357 -382.437 14.4737 -381.909 14.8742L-380.898 13.5398C-381.651 12.9688 -382.777 12.4551 -384.107 12.0938L-384.546 13.7096ZM-381.909 14.8742C-381.546 15.1493 -381.351 15.581 -381.426 16.2247L-379.763 16.4181C-379.632 15.2977 -379.979 14.2361 -380.898 13.5398L-381.909 14.8742ZM-381.426 16.2248C-381.507 16.923 -381.903 17.9384 -382.713 19.1629L-381.317 20.0869C-380.435 18.7546 -379.886 17.4839 -379.763 16.4181L-381.426 16.2248ZM-382.713 19.1629C-383.527 20.3928 -384.835 22.0269 -386.534 23.9455L-385.281 25.0555C-383.563 23.1159 -382.195 21.4137 -381.317 20.0869L-382.713 19.1629ZM-386.538 23.95L-414.59 56.0907L-413.329 57.1917L-385.277 25.051L-386.538 23.95ZM-413.123 56.6193L-413.52 41.4291L-415.194 41.473L-414.796 56.6631L-413.123 56.6193ZM-413.52 41.4291C-413.682 35.2709 -413.809 30.393 -413.776 26.8933L-415.45 26.8773C-415.484 30.4143 -415.355 35.3284 -415.194 41.473L-413.52 41.4291ZM-413.776 26.8933C-413.743 23.3869 -413.561 20.8036 -413.244 19.1106L-414.89 18.8027C-415.234 20.6445 -415.417 23.347 -415.45 26.8773L-413.776 26.8933ZM-413.244 19.1106C-412.919 17.3752 -412.487 16.4781 -411.974 16.0278L-413.08 14.7699C-414.041 15.6144 -414.553 17.0034 -414.89 18.8027L-413.244 19.1106ZM-411.974 16.0278C-411.351 15.48 -410.477 15.0003 -409.187 14.6119L-409.669 13.0086C-411.121 13.4457 -412.229 14.0229 -413.08 14.77L-411.974 16.0278ZM-408.591 13.7883L-408.601 13.4117L-410.275 13.4555L-410.265 13.8321L-408.591 13.7883ZM-409.46 12.5967L-432.935 13.2114L-432.892 14.8853L-409.416 14.2705L-409.46 12.5967ZM-433.75 14.0703L-433.741 14.4469L-432.067 14.403L-432.077 14.0264L-433.75 14.0703ZM-433.123 15.2329C-431.932 15.5564 -431.027 15.9908 -430.37 16.5095L-429.332 15.1955C-430.215 14.4983 -431.345 13.9809 -432.684 13.617L-433.123 15.2329ZM-430.37 16.5095C-430.125 16.7032 -429.868 17.0393 -429.616 17.5786C-429.366 18.1138 -429.142 18.8023 -428.938 19.6472L-427.31 19.2536C-427.529 18.3509 -427.784 17.5443 -428.099 16.8696C-428.413 16.1988 -428.808 15.6098 -429.332 15.1955L-430.37 16.5095ZM-428.938 19.6472C-428.533 21.3213 -428.216 23.8915 -427.999 27.3914L-426.328 27.2878C-426.546 23.7641 -426.87 21.0749 -427.31 19.2536L-428.938 19.6472ZM-427.999 27.3914C-427.783 30.8846 -427.655 35.7625 -427.494 41.9207L-425.82 41.8768C-425.981 35.7323 -426.109 30.8182 -426.328 27.2878L-427.999 27.3914ZM-427.494 41.9207L-426.488 80.3354L-424.814 80.2916L-425.82 41.8768L-427.494 41.9207ZM-426.488 80.3354C-426.326 86.4936 -426.199 91.3715 -426.232 94.8713L-424.558 94.8872C-424.524 91.3502 -424.653 86.4361 -424.814 80.2916L-426.488 80.3354ZM-426.232 94.8713C-426.266 98.3777 -426.447 100.961 -426.764 102.654L-425.118 102.962C-424.774 101.12 -424.591 98.4175 -424.558 94.8872L-426.232 94.8713ZM-426.764 102.654C-427.082 104.356 -427.629 105.403 -428.156 105.866L-427.051 107.123C-426.104 106.291 -425.461 104.795 -425.118 102.962L-426.764 102.654ZM-428.156 105.866C-428.785 106.418 -429.666 106.899 -430.838 107.285L-430.315 108.875C-428.997 108.442 -427.896 107.866 -427.051 107.123L-428.156 105.866ZM-430.599 107.243L-430.724 107.246L-430.68 108.92L-430.555 108.917L-430.599 107.243ZM-342.311 105.769L-341.474 105.747L-343.069 105.414L-342.311 105.769ZM-342.301 106.145L-343.138 106.167L-343.116 107.004L-342.279 106.982L-342.301 106.145ZM-290.737 103.539L-289.912 103.681L-289.909 103.664L-289.907 103.646L-290.737 103.539ZM-288.753 88.1605L-287.923 88.2677L-287.798 87.298L-288.775 87.3236L-288.753 88.1605ZM-289.13 88.1704L-289.152 87.3335L-289.777 87.3498L-289.938 87.9536L-289.13 88.1704ZM-292.302 96.5447L-291.57 96.9501L-292.302 96.5447ZM-296.694 101.559L-296.223 102.251L-296.694 101.559ZM-302.66 103.977L-302.819 103.155L-302.66 103.977ZM-324.362 105.173L-325.199 105.195L-325.177 106.032L-324.34 106.01L-324.362 105.173ZM-325.794 16.8964L-326.617 16.7425L-326.617 16.7425L-325.794 16.8964ZM-321.155 11.75L-320.914 12.5516L-320.302 12.3673L-320.318 11.728L-321.155 11.75ZM-321.165 11.3733L-320.328 11.3514L-320.35 10.5145L-321.187 10.5364L-321.165 11.3733ZM-344.766 11.9914L-344.788 11.1544L-345.625 11.1764L-345.603 12.0133L-344.766 11.9914ZM-344.756 12.368L-345.593 12.3899L-345.577 13.0126L-344.976 13.1759L-344.756 12.368ZM-339.016 25.2826L-338.181 25.2309L-339.016 25.2826ZM-337.248 92.8223L-336.411 92.8302L-337.248 92.8223ZM-337.794 100.751L-338.617 100.597L-337.794 100.751ZM-339.456 104.438L-340.009 103.809L-339.456 104.438ZM-342.43 106.023L-343.188 105.668L-344.009 107.423L-342.168 106.818L-342.43 106.023ZM-343.148 105.79L-343.138 106.167L-341.464 106.123L-341.474 105.747L-343.148 105.79ZM-342.279 106.982L-292.063 105.667L-292.107 103.993L-342.323 105.308L-342.279 106.982ZM-292.063 105.667C-291.833 105.661 -291.388 105.662 -290.942 105.424L-291.729 103.946C-291.779 103.972 -291.835 103.986 -292.107 103.993L-292.063 105.667ZM-290.942 105.424C-290.347 105.107 -290.036 104.396 -289.912 103.681L-291.562 103.396C-291.605 103.641 -291.667 103.803 -291.718 103.896C-291.774 103.998 -291.794 103.981 -291.729 103.946L-290.942 105.424ZM-289.907 103.646L-287.923 88.2677L-289.583 88.0534L-291.568 103.432L-289.907 103.646ZM-288.775 87.3236L-289.152 87.3335L-289.108 89.0073L-288.731 88.9975L-288.775 87.3236ZM-289.938 87.9536C-290.843 91.3292 -291.879 94.0511 -293.035 96.1392L-291.57 96.9501C-290.327 94.7042 -289.247 91.8433 -288.321 88.3871L-289.938 87.9536ZM-293.035 96.1392C-294.183 98.2126 -295.563 99.7773 -297.165 100.867L-296.223 102.251C-294.368 100.989 -292.821 99.2108 -291.57 96.9501L-293.035 96.1392ZM-297.165 100.867C-298.79 101.973 -300.67 102.738 -302.819 103.155L-302.501 104.798C-300.15 104.343 -298.053 103.497 -296.223 102.251L-297.165 100.867ZM-302.819 103.155C-305.025 103.582 -307.608 103.897 -310.575 103.974L-310.531 105.648C-307.471 105.568 -304.795 105.243 -302.501 104.798L-302.819 103.155ZM-310.575 103.974L-324.384 104.336L-324.34 106.01L-310.531 105.648L-310.575 103.974ZM-323.525 105.151L-325.248 39.3689L-326.921 39.4127L-325.199 105.195L-323.525 105.151ZM-325.248 39.3689C-325.409 33.2107 -325.536 28.3328 -325.503 24.833L-327.177 24.8171C-327.211 28.3541 -327.082 33.2682 -326.921 39.4127L-325.248 39.3689ZM-325.503 24.833C-325.47 21.3266 -325.288 18.7433 -324.971 17.0504L-326.617 16.7425C-326.962 18.5843 -327.144 21.2868 -327.177 24.8171L-325.503 24.833ZM-324.971 17.0504C-324.647 15.3149 -324.214 14.4179 -323.702 13.9675L-324.807 12.7097C-325.768 13.5542 -326.28 14.9431 -326.617 16.7425L-324.971 17.0504ZM-323.702 13.9675C-323.078 13.4198 -322.204 12.94 -320.914 12.5516L-321.397 10.9483C-322.849 11.3855 -323.957 11.9626 -324.807 12.7097L-323.702 13.9675ZM-320.318 11.728L-320.328 11.3514L-322.002 11.3953L-321.992 11.7719L-320.318 11.728ZM-321.187 10.5364L-344.788 11.1544L-344.744 12.8283L-321.143 12.2103L-321.187 10.5364ZM-345.603 12.0133L-345.593 12.3899L-343.919 12.3461L-343.929 11.9694L-345.603 12.0133ZM-344.976 13.1759C-343.785 13.4995 -342.88 13.9339 -342.223 14.4525L-341.185 13.1386C-342.068 12.4413 -343.197 11.924 -344.537 11.5601L-344.976 13.1759ZM-342.223 14.4525C-341.978 14.6462 -341.721 14.9823 -341.469 15.5216C-341.218 16.0569 -340.995 16.7453 -340.79 17.5902L-339.163 17.1966C-339.381 16.2939 -339.636 15.4874 -339.952 14.8126C-340.265 14.1418 -340.661 13.5528 -341.185 13.1386L-342.223 14.4525ZM-340.79 17.5902C-340.386 19.2643 -340.069 21.8345 -339.852 25.3344L-338.181 25.2309C-338.399 21.7071 -338.723 19.0179 -339.163 17.1966L-340.79 17.5902ZM-339.852 25.3344C-339.636 28.8276 -339.508 33.7055 -339.346 39.8637L-337.673 39.8199C-337.833 33.6753 -337.962 28.7612 -338.181 25.2309L-339.852 25.3344ZM-339.346 39.8637L-338.34 78.2784L-336.667 78.2346L-337.673 39.8199L-339.346 39.8637ZM-338.34 78.2784C-338.179 84.4367 -338.052 89.3146 -338.085 92.8143L-336.411 92.8302C-336.377 89.2933 -336.506 84.3792 -336.667 78.2346L-338.34 78.2784ZM-338.085 92.8143C-338.118 96.3207 -338.3 98.904 -338.617 100.597L-336.971 100.905C-336.626 99.063 -336.444 96.3606 -336.411 92.8302L-338.085 92.8143ZM-338.617 100.597C-338.935 102.299 -339.482 103.346 -340.009 103.809L-338.903 105.066C-337.956 104.234 -337.314 102.738 -336.971 100.905L-338.617 100.597ZM-340.009 103.809C-340.637 104.361 -341.519 104.842 -342.691 105.228L-342.168 106.818C-340.849 106.385 -339.748 105.809 -338.903 105.066L-340.009 103.809ZM-341.671 106.378L-341.552 106.123L-343.069 105.414L-343.188 105.668L-341.671 106.378ZM-285.916 104.292L-285.079 104.27L-286.675 103.937L-285.916 104.292ZM-285.907 104.668L-286.743 104.69L-286.722 105.527L-285.885 105.505L-285.907 104.668ZM-262.431 104.054L-262.409 104.891L-261.572 104.869L-261.594 104.032L-262.431 104.054ZM-262.441 103.677L-261.604 103.655L-261.621 103.016L-262.242 102.864L-262.441 103.677ZM-265.619 102.253L-266.138 102.91L-265.619 102.253ZM-267.343 98.7805L-266.529 98.5837L-266.529 98.5837L-267.343 98.7805ZM-268.303 90.8913L-269.139 90.943L-268.303 90.8913ZM-270.072 23.3516L-270.909 23.3436L-270.072 23.3516ZM-269.525 15.423L-268.703 15.5769L-268.703 15.5769L-269.525 15.423ZM-264.887 10.2765L-264.645 11.0782L-264.033 10.8938L-264.05 10.2546L-264.887 10.2765ZM-264.896 9.8999L-264.059 9.87798L-264.081 9.04106L-264.918 9.06298L-264.896 9.8999ZM-288.372 10.5146L-288.394 9.67771L-289.231 9.69962L-289.209 10.5365L-288.372 10.5146ZM-288.362 10.8912L-289.199 10.9132L-289.183 11.5359L-288.582 11.6992L-288.362 10.8912ZM-282.622 23.8059L-281.787 23.7541L-282.622 23.8059ZM-280.854 91.3455L-280.016 91.3535L-280.854 91.3455ZM-281.4 99.2742L-282.223 99.1203L-281.4 99.2742ZM-283.062 102.961L-283.615 102.332L-283.062 102.961ZM-286.035 104.546L-286.794 104.191L-287.615 105.947L-285.774 105.342L-286.035 104.546ZM-286.753 104.314L-286.743 104.69L-285.07 104.647L-285.079 104.27L-286.753 104.314ZM-285.885 105.505L-262.409 104.891L-262.453 103.217L-285.928 103.831L-285.885 105.505ZM-261.594 104.032L-261.604 103.655L-263.278 103.699L-263.268 104.076L-261.594 104.032ZM-262.242 102.864C-263.55 102.544 -264.449 102.11 -265.1 101.596L-266.138 102.91C-265.249 103.611 -264.113 104.13 -262.64 104.49L-262.242 102.864ZM-265.1 101.596C-265.635 101.173 -266.114 100.3 -266.529 98.5837L-268.156 98.9773C-267.726 100.757 -267.142 102.117 -266.138 102.91L-265.1 101.596ZM-266.529 98.5837C-266.934 96.9096 -267.251 94.3394 -267.467 90.8395L-269.139 90.943C-268.92 94.4668 -268.597 97.156 -268.156 98.9773L-266.529 98.5837ZM-267.467 90.8395C-267.684 87.3463 -267.812 82.4684 -267.973 76.3102L-269.647 76.354C-269.486 82.4986 -269.357 87.4127 -269.139 90.943L-267.467 90.8395ZM-267.973 76.3102L-268.979 37.8954L-270.653 37.9393L-269.647 76.354L-267.973 76.3102ZM-268.979 37.8954C-269.14 31.7372 -269.268 26.8593 -269.234 23.3596L-270.909 23.3436C-270.942 26.8806 -270.814 31.7947 -270.653 37.9393L-268.979 37.8954ZM-269.234 23.3596C-269.201 19.8532 -269.019 17.2699 -268.703 15.5769L-270.348 15.269C-270.693 17.1108 -270.875 19.8133 -270.909 23.3436L-269.234 23.3596ZM-268.703 15.5769C-268.378 13.8415 -267.945 12.9444 -267.433 12.4941L-268.538 11.2363C-269.499 12.0807 -270.012 13.4697 -270.348 15.269L-268.703 15.5769ZM-267.433 12.4941C-266.81 11.9463 -265.935 11.4666 -264.645 11.0782L-265.128 9.47485C-266.58 9.91203 -267.688 10.4892 -268.538 11.2363L-267.433 12.4941ZM-264.05 10.2546L-264.059 9.87798L-265.733 9.92181L-265.723 10.2984L-264.05 10.2546ZM-264.918 9.06298L-288.394 9.67771L-288.35 11.3516L-264.874 10.7368L-264.918 9.06298ZM-289.209 10.5365L-289.199 10.9132L-287.525 10.8693L-287.535 10.4927L-289.209 10.5365ZM-288.582 11.6992C-287.391 12.0227 -286.485 12.4571 -285.829 12.9758L-284.791 11.6618C-285.674 10.9646 -286.803 10.4472 -288.143 10.0833L-288.582 11.6992ZM-285.829 12.9758C-285.584 13.1695 -285.327 13.5056 -285.074 14.0449C-284.824 14.5801 -284.601 15.2686 -284.396 16.1135L-282.769 15.7199C-282.987 14.8172 -283.242 14.0106 -283.558 13.3359C-283.871 12.6651 -284.266 12.0761 -284.791 11.6618L-285.829 12.9758ZM-284.396 16.1135C-283.991 17.7876 -283.675 20.3578 -283.458 23.8577L-281.787 23.7541C-282.005 20.2304 -282.328 17.5412 -282.769 15.7199L-284.396 16.1135ZM-283.458 23.8577C-283.241 27.3509 -283.113 32.2288 -282.952 38.387L-281.278 38.3431C-281.439 32.1986 -281.568 27.2845 -281.787 23.7541L-283.458 23.8577ZM-282.952 38.387L-281.946 76.8017L-280.272 76.7579L-281.278 38.3431L-282.952 38.387ZM-281.946 76.8017C-281.785 82.9599 -281.657 87.8378 -281.691 91.3376L-280.016 91.3535C-279.983 87.8165 -280.112 82.9024 -280.272 76.7579L-281.946 76.8017ZM-281.691 91.3376C-281.724 94.844 -281.906 97.4273 -282.223 99.1203L-280.577 99.4281C-280.232 97.5863 -280.05 94.8838 -280.016 91.3535L-281.691 91.3376ZM-282.223 99.1203C-282.541 100.822 -283.088 101.869 -283.615 102.332L-282.509 103.59C-281.562 102.758 -280.92 101.261 -280.577 99.4281L-282.223 99.1203ZM-283.615 102.332C-284.243 102.884 -285.124 103.365 -286.297 103.751L-285.774 105.342C-284.455 104.908 -283.354 104.332 -282.509 103.59L-283.615 102.332ZM-285.277 104.901L-285.158 104.646L-286.675 103.937L-286.794 104.191L-285.277 104.901ZM-259.426 103.975L-260.263 103.997L-260.241 104.834L-259.404 104.812L-259.426 103.975ZM-247.751 103.669L-247.729 104.506L-246.892 104.484L-246.914 103.647L-247.751 103.669ZM-247.761 103.293L-246.924 103.271L-246.939 102.685L-247.495 102.499L-247.761 103.293ZM-250.945 101.617L-250.426 100.96L-250.945 101.617ZM-252.672 98.0194L-251.859 97.8226L-252.672 98.0194ZM-253.629 90.2558L-252.794 90.2029L-253.629 90.2558ZM-255.793 12.4253L-255.066 12.0101L-256.63 12.4472L-255.793 12.4253ZM-204.05 103.027L-204.777 103.443L-204.529 103.877L-204.028 103.864L-204.05 103.027ZM-202.293 102.981L-202.271 103.818L-201.434 103.796L-201.456 102.96L-202.293 102.981ZM-204.284 22.1314L-203.447 22.1405L-204.284 22.1314ZM-203.735 14.3283L-202.912 14.4822L-202.912 14.4822L-203.735 14.3283ZM-202.198 10.645L-201.645 11.2739L-201.645 11.2739L-202.198 10.645ZM-199.231 8.80852L-198.9 9.57744L-198.379 9.35323L-198.394 8.7866L-199.231 8.80852ZM-199.241 8.43191L-198.404 8.40999L-198.426 7.57307L-199.263 7.59498L-199.241 8.43191ZM-210.916 8.73763L-210.938 7.90071L-211.775 7.92262L-211.753 8.75955L-210.916 8.73763ZM-210.906 9.11424L-211.743 9.13616L-211.728 9.72236L-211.172 9.90826L-210.906 9.11424ZM-207.722 10.7896L-208.241 11.4466L-208.241 11.4466L-207.722 10.7896ZM-205.994 14.3875L-205.181 14.1907L-205.181 14.1907L-205.994 14.3875ZM-205.037 22.1511L-205.873 22.204L-205.037 22.1511ZM-203.442 78.2635L-204.168 78.6807L-202.605 78.2416L-203.442 78.2635ZM-241.218 12.5461L-240.492 12.1289L-240.493 12.1261L-241.218 12.5461ZM-243.044 9.9558L-242.468 9.34851L-242.468 9.34851L-243.044 9.9558ZM-261.762 9.94347L-261.784 9.10654L-262.621 9.12846L-262.599 9.96538L-261.762 9.94347ZM-261.753 10.3201L-262.59 10.342L-262.573 10.9647L-261.972 11.128L-261.753 10.3201ZM-258.7 11.7476L-259.219 12.4046L-258.7 11.7476ZM-256.973 15.3455L-257.787 15.5423L-256.973 15.3455ZM-256.013 23.2347L-256.848 23.2865L-256.013 23.2347ZM-254.254 90.3978L-255.091 90.3887L-254.254 90.3978ZM-254.803 98.2009L-255.626 98.0469L-254.803 98.2009ZM-256.465 101.887L-255.913 102.516L-256.465 101.887ZM-259.432 103.724L-260.269 103.746L-260.237 104.982L-259.101 104.493L-259.432 103.724ZM-260.273 103.62L-260.263 103.997L-258.589 103.953L-258.599 103.576L-260.273 103.62ZM-259.404 104.812L-247.729 104.506L-247.773 102.832L-259.448 103.138L-259.404 104.812ZM-246.914 103.647L-246.924 103.271L-248.597 103.315L-248.588 103.691L-246.914 103.647ZM-247.495 102.499C-248.797 102.064 -249.732 101.509 -250.426 100.96L-251.464 102.274C-250.619 102.942 -249.513 103.59 -248.026 104.087L-247.495 102.499ZM-250.426 100.96C-250.671 100.767 -250.928 100.431 -251.18 99.8912C-251.431 99.356 -251.654 98.6676 -251.859 97.8226L-253.486 98.2162C-253.268 99.119 -253.013 99.9255 -252.697 100.6C-252.384 101.271 -251.988 101.86 -251.464 102.274L-250.426 100.96ZM-251.859 97.8226C-252.264 96.1478 -252.58 93.5769 -252.794 90.2029L-254.465 90.3087C-254.25 93.7071 -253.926 96.3957 -253.486 98.2162L-251.859 97.8226ZM-252.794 90.2029C-253.007 86.836 -253.132 82.0844 -253.29 76.0513L-254.963 76.0951C-254.806 82.1138 -254.68 86.9031 -254.465 90.3087L-252.794 90.2029ZM-253.29 76.0513L-254.956 12.4033L-256.63 12.4472L-254.963 76.0951L-253.29 76.0513ZM-256.52 12.8405L-204.777 103.443L-203.323 102.612L-255.066 12.0101L-256.52 12.8405ZM-204.028 103.864L-202.271 103.818L-202.315 102.144L-204.072 102.191L-204.028 103.864ZM-201.456 102.96L-203.201 36.2986L-204.875 36.3424L-203.13 103.003L-201.456 102.96ZM-203.201 36.2986C-203.359 30.2656 -203.484 25.514 -203.447 22.1405L-205.121 22.1223C-205.158 25.5345 -205.033 30.3238 -204.875 36.3424L-203.201 36.2986ZM-203.447 22.1405C-203.41 18.7599 -203.229 16.176 -202.912 14.4822L-204.558 14.1744C-204.902 16.0154 -205.084 18.7173 -205.121 22.1223L-203.447 22.1405ZM-202.912 14.4822C-202.752 13.6278 -202.565 12.9286 -202.343 12.381C-202.119 11.8293 -201.88 11.4801 -201.645 11.2739L-202.751 10.016C-203.253 10.4572 -203.617 11.066 -203.895 11.7523C-204.174 12.4427 -204.387 13.2614 -204.558 14.1744L-202.912 14.4822ZM-201.645 11.2739C-200.976 10.6858 -200.063 10.0785 -198.9 9.57744L-199.562 8.03959C-200.883 8.60857 -201.946 9.30928 -202.751 10.016L-201.645 11.2739ZM-198.394 8.7866L-198.404 8.40999L-200.078 8.45382L-200.068 8.83043L-198.394 8.7866ZM-199.263 7.59498L-210.938 7.90071L-210.894 9.57455L-199.219 9.26883L-199.263 7.59498ZM-211.753 8.75955L-211.743 9.13616L-210.069 9.09233L-210.079 8.71571L-211.753 8.75955ZM-211.172 9.90826C-209.87 10.3433 -208.935 10.8981 -208.241 11.4466L-207.203 10.1326C-208.048 9.46512 -209.154 8.81713 -210.641 8.32022L-211.172 9.90826ZM-208.241 11.4466C-207.996 11.6403 -207.738 11.9764 -207.486 12.5157C-207.236 13.0509 -207.013 13.7393 -206.808 14.5843L-205.181 14.1907C-205.399 13.2879 -205.654 12.4814 -205.97 11.8066C-206.283 11.1359 -206.678 10.5469 -207.203 10.1326L-208.241 11.4466ZM-206.808 14.5843C-206.403 16.2591 -206.086 18.83 -205.873 22.204L-204.202 22.0983C-204.417 18.6998 -204.74 16.0112 -205.181 14.1907L-206.808 14.5843ZM-205.873 22.204C-205.66 25.571 -205.535 30.3226 -205.377 36.3556L-203.703 36.3118C-203.861 30.2931 -203.986 25.5038 -204.202 22.0983L-205.873 22.204ZM-205.377 36.3556L-204.279 78.2854L-202.605 78.2416L-203.703 36.3118L-205.377 36.3556ZM-202.717 77.8463L-240.492 12.1289L-241.943 12.9633L-204.168 78.6807L-202.717 77.8463ZM-240.493 12.1261C-241.292 10.748 -241.992 9.8004 -242.468 9.34851L-243.62 10.5631C-243.324 10.8447 -242.721 11.6218 -241.942 12.9661L-240.493 12.1261ZM-242.468 9.34851C-243.121 8.72837 -244.071 8.6427 -244.962 8.66604L-244.918 10.3399C-244.052 10.3172 -243.74 10.4497 -243.62 10.5631L-242.468 9.34851ZM-244.962 8.66604L-261.784 9.10654L-261.741 10.7804L-244.918 10.3399L-244.962 8.66604ZM-262.599 9.96538L-262.59 10.342L-260.916 10.2982L-260.926 9.92155L-262.599 9.96538ZM-261.972 11.128C-260.781 11.4516 -259.876 11.8859 -259.219 12.4046L-258.181 11.0907C-259.064 10.3934 -260.194 9.87607 -261.533 9.51215L-261.972 11.128ZM-259.219 12.4046C-258.974 12.5983 -258.717 12.9344 -258.465 13.4737C-258.215 14.009 -257.991 14.6974 -257.787 15.5423L-256.159 15.1487C-256.377 14.246 -256.633 13.4394 -256.948 12.7647C-257.262 12.0939 -257.657 11.5049 -258.181 11.0907L-259.219 12.4046ZM-257.787 15.5423C-257.382 17.2164 -257.065 19.7866 -256.848 23.2865L-255.177 23.1829C-255.395 19.6592 -255.719 16.97 -256.159 15.1487L-257.787 15.5423ZM-256.848 23.2865C-256.632 26.7797 -256.504 31.6576 -256.343 37.8158L-254.669 37.772C-254.83 31.6274 -254.958 26.7133 -255.177 23.1829L-256.848 23.2865ZM-256.343 37.8158L-255.337 76.2305L-253.663 76.1867L-254.669 37.772L-256.343 37.8158ZM-255.337 76.2305C-255.179 82.2636 -255.054 87.0152 -255.091 90.3887L-253.417 90.4068C-253.38 86.9947 -253.505 82.2054 -253.663 76.1867L-255.337 76.2305ZM-255.091 90.3887C-255.128 93.7692 -255.309 96.3532 -255.626 98.0469L-253.98 98.3548C-253.636 96.5137 -253.454 93.8119 -253.417 90.4068L-255.091 90.3887ZM-255.626 98.0469C-255.944 99.7485 -256.491 100.796 -257.018 101.259L-255.913 102.516C-254.966 101.684 -254.323 100.188 -253.98 98.3548L-255.626 98.0469ZM-257.018 101.259C-257.687 101.847 -258.6 102.454 -259.764 102.955L-259.101 104.493C-257.78 103.924 -256.717 103.223 -255.913 102.516L-257.018 101.259ZM-258.595 103.702L-258.599 103.576L-260.273 103.62L-260.269 103.746L-258.595 103.702ZM-157.016 102.298L-157.038 101.461L-157.306 101.468L-157.52 101.63L-157.016 102.298ZM-148.01 100.806L-148.285 100.015L-148.01 100.806ZM-131.13 88.1786L-130.422 88.6246L-130.287 88.4101L-130.293 88.1567L-131.13 88.1786ZM-131.504 69.0935L-130.667 69.1134L-131.504 69.0935ZM-130.899 63.4246L-130.091 63.6441L-130.091 63.6441L-130.899 63.4246ZM-129.211 60.7422L-128.728 61.4264L-128.728 61.4264L-129.211 60.7422ZM-126.105 59.4047L-125.864 60.2063L-125.251 60.022L-125.268 59.3828L-126.105 59.4047ZM-126.115 59.0281L-125.278 59.0061L-125.3 58.1692L-126.137 58.1911L-126.115 59.0281ZM-149.34 59.6362L-149.361 58.7993L-150.198 58.8212L-150.176 59.6581L-149.34 59.6362ZM-149.33 60.0128L-150.167 60.0347L-150.15 60.6574L-149.549 60.8208L-149.33 60.0128ZM-146.284 61.1893L-146.73 61.8978L-146.73 61.8978L-146.284 61.1893ZM-144.457 63.7796L-145.253 64.0411L-144.457 63.7796ZM-143.566 69.0325L-144.4 69.1008L-143.566 69.0325ZM-143.513 90.2616L-142.681 90.3583L-143.513 90.2616ZM-145.598 96.9743L-144.882 97.4085L-145.598 96.9743ZM-150.019 100.859L-150.35 100.09L-150.019 100.859ZM-173.893 91.0572L-174.632 91.451L-173.893 91.0572ZM-178.817 75.7343L-179.64 75.8882L-178.817 75.7343ZM-175.568 17.4851L-174.831 17.8813L-175.568 17.4851ZM-168.61 9.76542L-168.19 10.4897L-168.19 10.4897L-168.61 9.76542ZM-152.068 8.20164L-152.299 9.00632L-152.299 9.00632L-152.068 8.20164ZM-145.57 11.6746L-145.039 11.0278L-145.57 11.6746ZM-140.507 17.9488L-141.238 18.3566L-140.507 17.9488ZM-137.247 27.2853L-138.068 27.4491L-137.93 28.1407L-137.225 28.1223L-137.247 27.2853ZM-136.871 27.2755L-136.849 28.1124L-136.012 28.0905L-136.034 27.2536L-136.871 27.2755ZM-137.387 7.56594L-136.55 7.54403L-136.572 6.7071L-137.409 6.72902L-137.387 7.56594ZM-137.763 7.5758L-137.785 6.73888L-138.421 6.75554L-138.576 7.37292L-137.763 7.5758ZM-144.473 10.3896L-144.154 9.61594L-144.154 9.61594L-144.473 10.3896ZM-148.279 8.98179L-148.014 8.18776L-148.014 8.18776L-148.279 8.98179ZM-153.089 7.60024L-152.88 6.7895L-153.089 7.60024ZM-172.746 10.125L-173.104 9.3681L-172.746 10.125ZM-191.97 33.9945L-192.764 33.7304L-191.97 33.9945ZM-191.512 75.4386L-190.71 75.1987L-191.512 75.4386ZM-184.081 90.5702L-184.745 91.0802L-184.081 90.5702ZM-172.655 99.9441L-173.018 100.698L-172.655 99.9441ZM-157.878 102.949L-157.856 103.786L-157.588 103.779L-157.374 103.617L-157.878 102.949ZM-156.994 103.135C-153.667 103.048 -150.575 102.583 -147.736 101.597L-148.285 100.015C-150.923 100.931 -153.837 101.378 -157.038 101.461L-156.994 103.135ZM-147.736 101.597C-144.963 100.634 -142.424 99.5429 -140.134 98.1915L-140.986 96.7496C-143.15 98.0273 -145.58 99.076 -148.285 100.015L-147.736 101.597ZM-140.134 98.1915C-137.831 96.8317 -135.928 95.2243 -134.293 93.5018L-135.508 92.3492C-137.052 93.9762 -138.835 95.4802 -140.986 96.7496L-140.134 98.1915ZM-134.293 93.5018C-132.674 91.7956 -131.422 90.2131 -130.422 88.6246L-131.839 87.7326C-132.769 89.2097 -133.948 90.7058 -135.508 92.3492L-134.293 93.5018ZM-130.293 88.1567L-130.527 79.2435L-132.201 79.2873L-131.967 88.2006L-130.293 88.1567ZM-130.527 79.2435C-130.639 74.9661 -130.727 71.6015 -130.667 69.1134L-132.341 69.0736C-132.402 71.6136 -132.312 75.0282 -132.201 79.2873L-130.527 79.2435ZM-130.667 69.1134C-130.608 66.6172 -130.408 64.8093 -130.091 63.6441L-131.707 63.2051C-132.078 64.5703 -132.281 66.5417 -132.341 69.0736L-130.667 69.1134ZM-130.091 63.6441C-129.785 62.5174 -129.272 61.8096 -128.728 61.4264L-129.693 60.058C-130.63 60.7186 -131.326 61.8013 -131.707 63.2051L-130.091 63.6441ZM-128.728 61.4264C-128.102 60.9848 -127.214 60.6128 -125.864 60.2063L-126.346 58.603C-127.739 59.0221 -128.839 59.4559 -129.693 60.058L-128.728 61.4264ZM-125.268 59.3828L-125.278 59.0061L-126.952 59.05L-126.942 59.4266L-125.268 59.3828ZM-126.137 58.1911L-149.361 58.7993L-149.318 60.4731L-126.093 59.865L-126.137 58.1911ZM-150.176 59.6581L-150.167 60.0347L-148.493 59.9909L-148.503 59.6143L-150.176 59.6581ZM-149.549 60.8208C-148.295 61.1616 -147.384 61.4861 -146.73 61.8978L-145.838 60.4808C-146.717 59.9277 -147.834 59.5516 -149.11 59.2049L-149.549 60.8208ZM-146.73 61.8978C-146.167 62.2521 -145.617 62.9319 -145.253 64.0411L-143.662 63.5181C-144.116 62.1362 -144.868 61.0914 -145.838 60.4808L-146.73 61.8978ZM-145.253 64.0411C-144.873 65.1948 -144.583 66.87 -144.4 69.1008L-142.732 68.9642C-142.918 66.6822 -143.222 64.8555 -143.662 63.5181L-145.253 64.0411ZM-144.4 69.1008C-144.218 71.3285 -144.14 74.3136 -144.037 78.2154L-142.364 78.1716C-142.465 74.29 -142.544 71.2493 -142.732 68.9642L-144.4 69.1008ZM-144.037 78.2154L-143.978 80.4751L-142.304 80.4313L-142.364 78.1716L-144.037 78.2154ZM-143.978 80.4751C-143.877 84.3315 -144.042 87.5622 -144.344 90.165L-142.681 90.3583C-142.368 87.6687 -142.202 84.3583 -142.304 80.4313L-143.978 80.4751ZM-144.344 90.165C-144.642 92.7288 -145.309 94.8838 -146.314 96.5402L-144.882 97.4085C-143.719 95.4906 -142.998 93.0867 -142.681 90.3583L-144.344 90.165ZM-146.314 96.5402C-147.31 98.1832 -148.652 99.3584 -150.35 100.09L-149.688 101.628C-147.659 100.754 -146.053 99.3397 -144.882 97.4085L-146.314 96.5402ZM-150.35 100.09C-152.078 100.834 -154.462 101.268 -157.418 101.346L-157.374 103.02C-154.304 102.939 -151.686 102.488 -149.688 101.628L-150.35 100.09ZM-157.418 101.346C-160.521 101.427 -163.39 100.67 -166.054 98.9536L-166.96 100.361C-164.002 102.267 -160.799 103.109 -157.374 103.02L-157.418 101.346ZM-166.054 98.9536C-168.715 97.2394 -171.088 94.5375 -173.154 90.6633L-174.632 91.451C-172.47 95.5061 -169.921 98.454 -166.96 100.361L-166.054 98.9536ZM-173.154 90.6633C-175.215 86.798 -176.835 81.7791 -177.994 75.5804L-179.64 75.8882C-178.461 82.1908 -176.798 87.3871 -174.632 91.451L-173.154 90.6633ZM-177.994 75.5804C-179.152 69.3865 -179.848 61.9141 -180.081 53.0294L-181.755 53.0732C-181.521 62.0149 -180.819 69.5808 -179.64 75.8882L-177.994 75.5804ZM-180.081 53.0294C-180.304 44.519 -179.989 37.4101 -179.023 31.6807L-180.674 31.4023C-181.665 37.2816 -181.979 44.5104 -181.755 53.0732L-180.081 53.0294ZM-179.023 31.6807C-178.052 25.9211 -176.687 21.3364 -174.831 17.8813L-176.306 17.0889C-178.283 20.7692 -179.688 25.5532 -180.674 31.4023L-179.023 31.6807ZM-174.831 17.8813C-172.967 14.4117 -170.744 11.9712 -168.19 10.4897L-169.03 9.04118C-171.92 10.7172 -174.336 13.4232 -176.306 17.0889L-174.831 17.8813ZM-168.19 10.4897C-165.593 8.98383 -162.738 8.18791 -159.608 8.10596L-159.652 6.43211C-163.051 6.52111 -166.182 7.38943 -169.03 9.04118L-168.19 10.4897ZM-159.608 8.10596C-157.053 8.03904 -154.618 8.3404 -152.299 9.00632L-151.837 7.39697C-154.329 6.68133 -156.935 6.36096 -159.652 6.43211L-159.608 8.10596ZM-152.299 9.00632C-150.016 9.66223 -147.949 10.8033 -146.102 12.3214L-145.039 11.0278C-147.043 9.3805 -149.311 8.12259 -151.837 7.39697L-152.299 9.00632ZM-146.102 12.3214C-144.271 13.826 -142.647 15.8306 -141.238 18.3566L-139.776 17.5411C-141.267 14.8668 -143.018 12.6885 -145.039 11.0278L-146.102 12.3214ZM-141.238 18.3566C-139.839 20.8648 -138.778 23.8907 -138.068 27.4491L-136.426 27.1215C-137.162 23.4316 -138.274 20.2332 -139.776 17.5411L-141.238 18.3566ZM-137.225 28.1223L-136.849 28.1124L-136.893 26.4385L-137.269 26.4484L-137.225 28.1223ZM-136.034 27.2536L-136.55 7.54403L-138.224 7.58786L-137.708 27.2974L-136.034 27.2536ZM-137.409 6.72902L-137.785 6.73888L-137.742 8.41273L-137.365 8.40286L-137.409 6.72902ZM-138.576 7.37292C-138.84 8.4314 -139.208 9.14398 -139.615 9.58438C-140.002 10.004 -140.442 10.2003 -140.961 10.2139L-140.917 11.8877C-139.929 11.8619 -139.066 11.4587 -138.384 10.7198C-137.721 10.0015 -137.255 8.99634 -136.951 7.77869L-138.576 7.37292ZM-140.961 10.2139C-142.095 10.2436 -143.115 10.0454 -144.154 9.61594L-144.793 11.1633C-143.546 11.679 -142.294 11.9238 -140.917 11.8877L-140.961 10.2139ZM-144.154 9.61594C-145.317 9.13474 -146.605 8.6588 -148.014 8.18776L-148.545 9.77581C-147.166 10.2368 -145.915 10.6994 -144.793 11.1633L-144.154 9.61594ZM-148.014 8.18776C-149.435 7.71261 -151.102 7.24752 -152.88 6.7895L-153.298 8.41098C-151.534 8.86522 -149.911 9.31897 -148.545 9.77581L-148.014 8.18776ZM-152.88 6.7895C-154.753 6.30712 -157.103 6.11412 -159.784 6.18432L-159.74 7.85817C-157.149 7.7903 -154.967 7.98111 -153.298 8.41098L-152.88 6.7895ZM-159.784 6.18432C-164.292 6.30236 -168.777 7.32252 -173.104 9.3681L-172.388 10.8818C-168.276 8.93774 -164.02 7.97024 -159.74 7.85817L-159.784 6.18432ZM-173.104 9.3681C-177.441 11.419 -181.354 14.4877 -184.714 18.5564L-183.423 19.6227C-180.208 15.7305 -176.488 12.8206 -172.388 10.8818L-173.104 9.3681ZM-184.714 18.5564C-188.08 22.6317 -190.759 27.6967 -192.764 33.7304L-191.175 34.2586C-189.221 28.3799 -186.632 23.5083 -183.423 19.6227L-184.714 18.5564ZM-192.764 33.7304C-194.783 39.8058 -195.608 46.9653 -195.393 55.1891L-193.719 55.1452C-193.931 47.049 -193.115 40.0956 -191.175 34.2586L-192.764 33.7304ZM-195.393 55.1891C-195.194 62.7861 -194.128 69.6164 -192.315 75.6786L-190.71 75.1987C-192.476 69.2946 -193.523 62.6128 -193.719 55.1452L-195.393 55.1891ZM-192.315 75.6786C-190.501 81.7419 -187.939 86.9222 -184.745 91.0802L-183.417 90.0602C-186.466 86.0905 -188.945 81.1016 -190.71 75.1987L-192.315 75.6786ZM-184.745 91.0802C-181.548 95.2433 -177.594 98.4945 -173.018 100.698L-172.292 99.1898C-176.622 97.1044 -180.372 94.0248 -183.417 90.0602L-184.745 91.0802ZM-173.018 100.698C-168.435 102.906 -163.375 103.93 -157.856 103.786L-157.9 102.112C-163.178 102.25 -167.97 101.271 -172.292 99.1898L-173.018 100.698ZM-157.374 103.617L-156.512 102.967L-157.52 101.63L-158.383 102.281L-157.374 103.617ZM-122.864 100.022L-122.027 100L-122.057 98.839L-123.149 99.2351L-122.864 100.022ZM-122.854 100.399L-123.691 100.421L-123.669 101.258L-122.832 101.236L-122.854 100.399ZM-68.403 97.7166L-67.578 97.8593L-67.572 97.8244L-67.5689 97.789L-68.403 97.7166ZM-67.245 84.3701L-66.4109 84.4425L-66.3299 83.5087L-67.2669 83.5332L-67.245 84.3701ZM-67.7471 84.3833L-67.769 83.5464L-68.4289 83.5636L-68.5661 84.2093L-67.7471 84.3833ZM-74.5938 96.3713L-75.0281 95.6555L-74.5938 96.3713ZM-80.6959 98.4154L-80.5865 99.2455L-80.6959 98.4154ZM-105.04 99.4298L-105.877 99.4517L-105.855 100.289L-105.019 100.267L-105.04 99.4298ZM-106.372 48.5867L-106.394 47.7498L-107.231 47.7717L-107.209 48.6087L-106.372 48.5867ZM-89.9697 51.2978L-90.5909 51.8591L-90.5908 51.8591L-89.9697 51.2978ZM-88.2588 54.268L-87.4717 53.9826L-88.2588 54.268ZM-87.2912 57.6346L-88.1035 57.8375L-87.9407 58.4891L-87.2693 58.4715L-87.2912 57.6346ZM-87.0402 57.628L-87.0182 58.4649L-86.1813 58.443L-86.2032 57.6061L-87.0402 57.628ZM-87.5628 37.6674L-86.7259 37.6455L-86.7478 36.8085L-87.5848 36.8305L-87.5628 37.6674ZM-87.8139 37.6739L-87.8358 36.837L-88.5072 36.8546L-88.6357 37.5138L-87.8139 37.6739ZM-88.6039 41.0865L-87.803 41.3304L-88.6039 41.0865ZM-90.157 44.1422L-90.8067 43.6141L-90.157 44.1422ZM-93.3619 46.4873L-92.9956 47.2402L-93.3619 46.4873ZM-106.395 47.708L-107.232 47.7299L-107.21 48.5668L-106.373 48.5449L-106.395 47.708ZM-107.49 5.90369L-107.511 5.06676L-108.348 5.08868L-108.326 5.9256L-107.49 5.90369ZM-85.6294 5.95938L-85.7454 6.78852L-85.6294 5.95938ZM-79.8021 7.81677L-80.222 8.54103L-79.8021 7.81677ZM-75.5574 11.6L-76.233 12.0944L-76.233 12.0944L-75.5574 11.6ZM-72.6345 17.679L-73.4298 17.9405L-73.2352 18.5323L-72.6125 18.516L-72.6345 17.679ZM-72.1323 17.6659L-72.1104 18.5028L-71.1096 18.4766L-71.3125 17.4962L-72.1323 17.6659ZM-74.4335 6.54557L-75.2589 6.68563L-75.2564 6.70048L-75.2533 6.71523L-74.4335 6.54557ZM-75.1006 5.05555L-75.4553 5.81391L-75.4553 5.81392L-75.1006 5.05555ZM-125.574 6.12598L-125.596 5.28906L-126.432 5.31098L-126.411 6.1479L-125.574 6.12598ZM-125.564 6.5026L-126.401 6.52452L-126.384 7.14721L-125.783 7.31052L-125.564 6.5026ZM-122.511 7.93016L-121.992 7.27319L-121.992 7.27319L-122.511 7.93016ZM-119.824 19.4172L-118.988 19.3655L-119.824 19.4172ZM-118.055 86.9569L-117.218 86.9649L-118.055 86.9569ZM-118.601 94.8855L-117.778 95.0395L-118.601 94.8855ZM-120.263 98.5722L-120.816 97.9433L-120.263 98.5722ZM-123.237 100.158L-123.522 99.3705L-122.975 100.953L-123.237 100.158ZM-123.701 100.044L-123.691 100.421L-122.017 100.377L-122.027 100L-123.701 100.044ZM-122.832 101.236L-69.6036 99.8418L-69.6474 98.168L-122.876 99.5618L-122.832 101.236ZM-69.6036 99.8418C-69.3736 99.8358 -68.928 99.8364 -68.4816 99.5984L-69.2694 98.1209C-69.3187 98.1471 -69.3752 98.1609 -69.6474 98.168L-69.6036 99.8418ZM-68.4816 99.5984C-68.0992 99.3945 -67.9101 99.0458 -67.8063 98.7769C-67.7009 98.504 -67.6337 98.1814 -67.578 97.8593L-69.2279 97.574C-69.2813 97.8829 -69.3266 98.0657 -69.3682 98.1736C-69.4114 98.2854 -69.4041 98.1927 -69.2694 98.1209L-68.4816 99.5984ZM-67.5689 97.789L-66.4109 84.4425L-68.0791 84.2978L-69.237 97.6443L-67.5689 97.789ZM-67.2669 83.5332L-67.769 83.5464L-67.7252 85.2202L-67.223 85.2071L-67.2669 83.5332ZM-68.5661 84.2093C-69.2239 87.3055 -70.1371 89.7579 -71.1662 91.5794L-69.7083 92.403C-68.5763 90.3992 -67.6124 87.7774 -66.9282 84.5573L-68.5661 84.2093ZM-71.1662 91.5794C-72.1823 93.3781 -73.4297 94.6858 -75.0281 95.6555L-74.1595 97.087C-72.2954 95.9561 -70.8533 94.4297 -69.7083 92.403L-71.1662 91.5794ZM-75.0281 95.6555C-76.6474 96.6379 -78.5259 97.2849 -80.8053 97.5854L-80.5865 99.2455C-78.1085 98.9188 -76.0027 98.2053 -74.1595 97.087L-75.0281 95.6555ZM-80.8053 97.5854C-83.1462 97.894 -85.9995 98.0937 -89.2446 98.1787L-89.2007 99.8525C-85.9177 99.7665 -83.0028 99.564 -80.5865 99.2455L-80.8053 97.5854ZM-89.2446 98.1787L-105.062 98.5929L-105.019 100.267L-89.2007 99.8525L-89.2446 98.1787ZM-104.204 99.4079L-105.535 48.5648L-107.209 48.6087L-105.877 99.4517L-104.204 99.4079ZM-106.35 49.4237L-98.9432 49.2297L-98.987 47.5559L-106.394 47.7498L-106.35 49.4237ZM-98.9432 49.2297C-96.5929 49.1682 -94.8489 49.3741 -93.6192 49.8946L-92.9664 48.3526C-94.5315 47.6901 -96.5667 47.4925 -98.987 47.5559L-98.9432 49.2297ZM-93.6192 49.8946C-92.2842 50.4598 -91.2553 51.1238 -90.5909 51.8591L-89.3485 50.7365C-90.2365 49.7538 -91.5068 48.9706 -92.9664 48.3526L-93.6192 49.8946ZM-90.5908 51.8591C-89.9063 52.6167 -89.4262 53.5046 -89.0458 54.5535L-87.4717 53.9826C-87.9037 52.7915 -88.4805 51.6971 -89.3485 50.7365L-90.5908 51.8591ZM-89.0458 54.5535C-88.6567 55.6264 -88.3857 56.7081 -88.1035 57.8375L-86.479 57.4316C-86.7581 56.3145 -87.0485 55.1496 -87.4717 53.9826L-89.0458 54.5535ZM-87.2693 58.4715L-87.0182 58.4649L-87.0621 56.7911L-87.3131 56.7976L-87.2693 58.4715ZM-86.2032 57.6061L-86.7259 37.6455L-88.3998 37.6893L-87.8771 57.6499L-86.2032 57.6061ZM-87.5848 36.8305L-87.8358 36.837L-87.792 38.5109L-87.5409 38.5043L-87.5848 36.8305ZM-88.6357 37.5138C-88.8584 38.6564 -89.0724 39.7508 -89.4048 40.8426L-87.803 41.3304C-87.4414 40.1427 -87.2125 38.9643 -86.9922 37.8341L-88.6357 37.5138ZM-89.4048 40.8426C-89.7298 41.91 -90.1628 42.8218 -90.8067 43.6141L-89.5073 44.6702C-88.6909 43.6656 -88.1721 42.5425 -87.803 41.3304L-89.4048 40.8426ZM-90.8067 43.6141C-91.4318 44.3833 -92.4245 45.1002 -93.7281 45.7345L-92.9956 47.2402C-91.5702 46.5467 -90.3427 45.698 -89.5073 44.6702L-90.8067 43.6141ZM-93.7281 45.7345C-94.9289 46.3187 -96.6598 46.6155 -99.01 46.6771L-98.9662 48.3509C-96.5459 48.2876 -94.5238 47.9837 -92.9956 47.2402L-93.7281 45.7345ZM-99.01 46.6771L-106.417 46.871L-106.373 48.5449L-98.9662 48.3509L-99.01 46.6771ZM-105.558 47.6861L-106.653 5.88177L-108.326 5.9256L-107.232 47.7299L-105.558 47.6861ZM-107.468 6.74061L-93.5328 6.37571L-93.5767 4.70187L-107.511 5.06676L-107.468 6.74061ZM-93.5328 6.37571C-90.5667 6.29804 -87.9699 6.47737 -85.7454 6.78852L-85.5134 5.13024C-87.828 4.8065 -90.517 4.62175 -93.5767 4.70187L-93.5328 6.37571ZM-85.7454 6.78852C-83.5507 7.09549 -81.7621 7.648 -80.222 8.54103L-79.3821 7.09252C-81.1586 6.0624 -83.169 5.45815 -85.5134 5.13024L-85.7454 6.78852ZM-80.222 8.54103C-78.6555 9.44936 -77.3317 10.593 -76.233 12.0944L-74.8817 11.1056C-76.1282 9.40217 -77.632 8.10733 -79.3821 7.09252L-80.222 8.54103ZM-76.233 12.0944C-75.1298 13.602 -74.2324 15.4991 -73.4298 17.9405L-71.8391 17.4176C-72.6744 14.8769 -73.6398 12.8028 -74.8817 11.1056L-76.233 12.0944ZM-72.6125 18.516L-72.1104 18.5028L-72.1542 16.829L-72.6564 16.8421L-72.6125 18.516ZM-71.3125 17.4962L-73.6136 6.37592L-75.2533 6.71523L-72.9521 17.8356L-71.3125 17.4962ZM-73.6081 6.40552C-73.6906 5.91901 -73.8114 5.49819 -73.9694 5.16134C-74.1114 4.8586 -74.3485 4.48308 -74.7459 4.29718L-75.4553 5.81392C-75.539 5.77476 -75.5689 5.73217 -75.558 5.74544C-75.5497 5.75572 -75.5225 5.79319 -75.4853 5.8724C-75.4105 6.03195 -75.3249 6.29666 -75.2589 6.68563L-73.6081 6.40552ZM-74.7459 4.29719C-75.0797 4.1411 -75.5903 3.97963 -76.1334 3.99385L-76.0896 5.66769C-75.8795 5.66219 -75.6303 5.73207 -75.4553 5.81391L-74.7459 4.29719ZM-76.1334 3.99385L-125.596 5.28906L-125.552 6.9629L-76.0896 5.66769L-76.1334 3.99385ZM-126.411 6.1479L-126.401 6.52452L-124.727 6.48068L-124.737 6.10407L-126.411 6.1479ZM-125.783 7.31052C-124.592 7.63408 -123.687 8.06846 -123.03 8.58713L-121.992 7.27319C-122.875 6.57592 -124.005 6.05859 -125.344 5.69468L-125.783 7.31052ZM-123.03 8.58713C-122.785 8.78084 -122.528 9.11696 -122.276 9.65623C-122.026 10.1915 -121.802 10.8799 -121.598 11.7248L-119.97 11.3313C-120.189 10.4285 -120.444 9.62197 -120.759 8.9472C-121.073 8.27643 -121.468 7.68746 -121.992 7.27319L-123.03 8.58713ZM-121.598 11.7248C-121.193 13.3989 -120.876 15.9691 -120.659 19.469L-118.988 19.3655C-119.206 15.8417 -119.53 13.1525 -119.97 11.3313L-121.598 11.7248ZM-120.659 19.469C-120.443 22.9622 -120.315 27.8401 -120.154 33.9983L-118.48 33.9545C-118.641 27.8099 -118.769 22.8958 -118.988 19.3655L-120.659 19.469ZM-120.154 33.9983L-119.148 72.4131L-117.474 72.3692L-118.48 33.9545L-120.154 33.9983ZM-119.148 72.4131C-118.987 78.5713 -118.859 83.4492 -118.892 86.9489L-117.218 86.9649C-117.184 83.4279 -117.313 78.5138 -117.474 72.3692L-119.148 72.4131ZM-118.892 86.9489C-118.926 90.4553 -119.108 93.0386 -119.424 94.7316L-117.778 95.0395C-117.434 93.1977 -117.252 90.4952 -117.218 86.9649L-118.892 86.9489ZM-119.424 94.7316C-119.743 96.4332 -120.289 97.4805 -120.816 97.9433L-119.711 99.2011C-118.764 98.369 -118.121 96.8727 -117.778 95.0395L-119.424 94.7316ZM-120.816 97.9433C-121.445 98.4956 -122.326 98.9767 -123.498 99.3622L-122.975 100.953C-121.657 100.519 -120.556 99.9436 -119.711 99.2011L-120.816 97.9433ZM-122.951 100.945L-122.578 100.809L-123.149 99.2351L-123.522 99.3705L-122.951 100.945ZM-64.2528 98.8642L-65.0898 98.8861L-65.0679 99.7231L-64.2309 99.7011L-64.2528 98.8642ZM-40.6516 98.2462L-40.6297 99.0831L-39.7928 99.0612L-39.8147 98.2243L-40.6516 98.2462ZM-40.6615 97.8696L-39.8246 97.8477L-39.8413 97.2084L-40.4624 97.0564L-40.6615 97.8696ZM-43.8394 96.4453L-44.3584 97.1023L-43.8394 96.4453ZM-45.5635 92.973L-46.3772 93.1698L-45.5635 92.973ZM-46.5238 85.0838L-45.6882 85.032L-46.5238 85.0838ZM-47.5369 51.1917L-47.5588 50.3548L-48.3957 50.3767L-48.3738 51.2136L-47.5369 51.1917ZM-38.4817 51.5827L-38.2826 50.7695L-38.4817 51.5827ZM-34.8877 54.5036L-34.1864 54.0463L-34.8877 54.5036ZM-32.0542 61.9668L-31.2419 61.7639L-32.0542 61.9668ZM-28.9209 76.0804L-29.7394 76.2561L-29.7391 76.2575L-28.9209 76.0804ZM-25.48 87.5477L-26.2441 87.8898L-25.48 87.5477ZM-21.0276 94.4661L-20.4513 93.8588L-20.4513 93.8588L-21.0276 94.4661ZM-15.2896 97.7077L-15.5047 98.5168L-15.2896 97.7077ZM-1.74129 96.976L-1.32522 97.7025L-1.74129 96.976ZM1.94927 93.99L2.59355 94.5247L3.09369 93.9219L2.52555 93.3827L1.94927 93.99ZM1.56276 93.6233L2.13904 93.016L1.48325 92.3937L0.913039 93.0953L1.56276 93.6233ZM-0.769868 95.6944L-1.20416 94.9786L-0.769868 95.6944ZM-8.06099 95.5084L-8.50695 96.2169L-8.06099 95.5084ZM-11.1725 91.8212L-11.9113 92.215L-11.1725 91.8212ZM-13.8641 84.9823L-14.6684 85.2148L-13.8641 84.9823ZM-16.3999 74.4962L-17.2211 74.6593L-17.2194 74.6675L-16.3999 74.4962ZM-19.6988 63.6533L-18.94 63.2995L-19.6988 63.6533ZM-24.4056 56.616L-23.8087 56.0289L-24.4056 56.616ZM-30.5399 52.631L-30.257 51.843L-30.5399 52.631ZM-38.1149 51.1962L-38.095 50.3592L-38.1689 52.0317L-38.1149 51.1962ZM-35.6009 51.256L-35.6208 52.093L-35.5999 52.0935L-35.579 52.0929L-35.6009 51.256ZM-24.2163 49.4504L-24.46 48.6494L-24.2163 49.4504ZM-14.7938 44.6812L-15.3037 44.0172L-14.7938 44.6812ZM-8.46631 36.8524L-9.21897 36.4857L-8.46631 36.8524ZM-14.9741 9.00856L-15.4125 9.72186L-14.9741 9.00856ZM-66.5829 5.08376L-66.6049 4.24683L-67.4418 4.26875L-67.4199 5.10567L-66.5829 5.08376ZM-66.5731 5.46037L-67.41 5.48229L-67.3937 6.10499L-66.7926 6.2683L-66.5731 5.46037ZM-63.5207 6.88793L-64.0397 7.54491L-64.0397 7.54491L-63.5207 6.88793ZM-61.7934 10.4858L-62.6071 10.6826L-61.7934 10.4858ZM-60.8331 18.375L-61.6687 18.4268L-61.6687 18.4268L-60.8331 18.375ZM-59.0645 85.9147L-59.9016 85.9067L-59.0645 85.9147ZM-59.6106 93.8433L-60.4335 93.6894L-59.6106 93.8433ZM-61.2728 97.5299L-61.8254 96.901L-61.2728 97.5299ZM-64.2463 99.1153L-65.0832 99.1372L-65.0537 100.262L-63.9848 99.9106L-64.2463 99.1153ZM-48.6112 5.36689L-48.6332 4.52997L-49.4678 4.55183L-49.4482 5.38652L-48.6112 5.36689ZM-30.2465 6.26787L-30.4793 7.07204L-30.2465 6.26787ZM-23.61 10.2397L-24.2281 10.8044L-23.61 10.2397ZM-22.3326 44.6274L-21.6403 45.098L-22.3326 44.6274ZM-47.5336 51.3172L-48.3706 51.3369L-48.3509 52.1761L-47.5117 52.1542L-47.5336 51.3172ZM-65.0996 98.5095L-65.0898 98.8861L-63.4159 98.8423L-63.4258 98.4657L-65.0996 98.5095ZM-64.2309 99.7011L-40.6297 99.0831L-40.6736 97.4093L-64.2748 98.0273L-64.2309 99.7011ZM-39.8147 98.2243L-39.8246 97.8477L-41.4984 97.8915L-41.4885 98.2681L-39.8147 98.2243ZM-40.4624 97.0564C-41.771 96.7361 -42.6693 96.3027 -43.3204 95.7883L-44.3584 97.1023C-43.4702 97.8038 -42.3336 98.3222 -40.8606 98.6828L-40.4624 97.0564ZM-43.3204 95.7883C-43.8558 95.3654 -44.3347 94.4923 -44.7497 92.7762L-46.3772 93.1698C-45.9469 94.949 -45.3623 96.3092 -44.3584 97.1023L-43.3204 95.7883ZM-44.7497 92.7762C-45.1545 91.1021 -45.4713 88.5319 -45.6882 85.032L-47.3594 85.1355C-47.1411 88.6593 -46.8176 91.3485 -46.3772 93.1698L-44.7497 92.7762ZM-45.6882 85.032C-45.9046 81.5388 -46.0325 76.6609 -46.1937 70.5027L-47.8676 70.5465C-47.7067 76.6911 -47.5781 81.6052 -47.3594 85.1355L-45.6882 85.032ZM-46.1937 70.5027L-46.7 51.1698L-48.3738 51.2136L-47.8676 70.5465L-46.1937 70.5027ZM-47.515 52.0286L-44.3765 51.9464L-44.4204 50.2726L-47.5588 50.3548L-47.515 52.0286ZM-44.3765 51.9464C-41.9127 51.8819 -39.9768 52.0786 -38.6807 52.3959L-38.2826 50.7695C-39.7682 50.4058 -41.8626 50.2056 -44.4204 50.2726L-44.3765 51.9464ZM-38.6807 52.3959C-37.5712 52.6675 -36.5701 53.4563 -35.589 54.9609L-34.1864 54.0463C-35.2994 52.3395 -36.6106 51.1788 -38.2826 50.7695L-38.6807 52.3959ZM-35.589 54.9609C-34.6185 56.4492 -33.7011 58.8294 -32.8664 62.1698L-31.2419 61.7639C-32.0913 58.3646 -33.0629 55.7693 -34.1864 54.0463L-35.589 54.9609ZM-32.8664 62.1698C-32.0288 65.5222 -31.029 70.2507 -29.7394 76.2561L-28.1023 75.9046C-29.388 69.9175 -30.3956 65.1511 -31.2419 61.7639L-32.8664 62.1698ZM-29.7391 76.2575C-28.7342 80.9002 -27.6134 84.8314 -26.2441 87.8898L-24.7159 87.2056C-26.015 84.3039 -27.1067 80.5043 -28.1026 75.9032L-29.7391 76.2575ZM-26.2441 87.8898C-24.8911 90.9116 -23.3938 93.3748 -21.6039 95.0734L-20.4513 93.8588C-22.0108 92.3788 -23.4003 90.1439 -24.7159 87.2056L-26.2441 87.8898ZM-21.6039 95.0734C-19.8315 96.7553 -17.7959 97.9076 -15.5047 98.5168L-15.0745 96.8986C-17.0845 96.3642 -18.8742 95.3554 -20.4513 93.8588L-21.6039 95.0734ZM-15.5047 98.5168C-13.2776 99.1089 -10.8027 99.4327 -8.08568 99.3615L-8.12951 97.6877C-10.6851 97.7546 -13.0004 97.4501 -15.0745 96.8986L-15.5047 98.5168ZM-8.08568 99.3615C-5.3473 99.2898 -3.08249 98.709 -1.32522 97.7025L-2.15736 96.2495C-3.61808 97.0861 -5.59535 97.6213 -8.12951 97.6877L-8.08568 99.3615ZM-1.32522 97.7025C0.356746 96.7392 1.66755 95.6405 2.59355 94.5247L1.30499 93.4554C0.525948 94.3942 -0.621391 95.3699 -2.15736 96.2495L-1.32522 97.7025ZM2.52555 93.3827L2.13904 93.016L0.986484 94.2306L1.37293 94.5973L2.52555 93.3827ZM0.913039 93.0953C0.237483 93.9265 -0.428131 94.5078 -1.20416 94.9786L-0.335638 96.4101C0.619612 95.8306 1.42757 95.1171 2.21249 94.1513L0.913039 93.0953ZM-1.20416 94.9786C-1.9032 95.4027 -2.86778 95.6656 -4.28715 95.7027L-4.24332 97.3766C-2.64975 97.3348 -1.36776 97.0364 -0.335638 96.4101L-1.20416 94.9786ZM-4.28715 95.7027C-5.50579 95.7346 -6.60779 95.4339 -7.61496 94.7999L-8.50695 96.2169C-7.21501 97.0302 -5.78649 97.417 -4.24332 97.3766L-4.28715 95.7027ZM-7.61496 94.7999C-8.59818 94.181 -9.54877 93.0871 -10.4337 91.4273L-11.9113 92.215C-10.9467 94.0242 -9.82291 95.3886 -8.50695 96.2169L-7.61496 94.7999ZM-10.4337 91.4273C-11.3285 89.7491 -12.2455 87.5672 -13.0598 84.7498L-14.6684 85.2148C-13.825 88.1327 -12.8661 90.4242 -11.9113 92.215L-10.4337 91.4273ZM-13.0598 84.7498C-13.881 81.9087 -14.7214 78.4351 -15.5804 74.325L-17.2194 74.6675C-16.355 78.8035 -15.5049 82.3206 -14.6684 85.2148L-13.0598 84.7498ZM-15.5787 74.3332C-16.4551 69.9181 -17.5716 66.2342 -18.94 63.2995L-20.4576 64.0071C-19.164 66.7814 -18.0813 70.3261 -17.2211 74.6593L-15.5787 74.3332ZM-18.94 63.2995C-20.3027 60.3771 -21.922 57.9471 -23.8087 56.0289L-25.0025 57.203C-23.2755 58.9589 -21.7569 61.2204 -20.4576 64.0071L-18.94 63.2995ZM-23.8087 56.0289C-25.6981 54.1079 -27.8485 52.7078 -30.257 51.843L-30.8228 53.4189C-28.6659 54.1934 -26.7267 55.45 -25.0025 57.203L-23.8087 56.0289ZM-30.257 51.843C-32.6344 50.9894 -35.2403 50.5429 -38.061 50.3608L-38.1689 52.0317C-35.4527 52.2071 -33.0108 52.6333 -30.8228 53.4189L-30.257 51.843ZM-38.1348 52.0332L-35.6208 52.093L-35.581 50.419L-38.095 50.3592L-38.1348 52.0332ZM-35.579 52.0929C-31.4901 51.9859 -27.6622 51.3739 -23.9727 50.2514L-24.46 48.6494C-27.999 49.7262 -31.6772 50.3158 -35.6228 50.4191L-35.579 52.0929ZM-23.9727 50.2514C-20.2679 49.1242 -17.0776 47.491 -14.2838 45.3451L-15.3037 44.0172C-17.9284 46.0332 -20.9361 47.5773 -24.46 48.6494L-23.9727 50.2514ZM-14.2838 45.3451C-11.4671 43.1817 -9.3176 40.5114 -7.71366 37.2191L-9.21897 36.4857C-10.7146 39.5558 -12.702 42.0188 -15.3037 44.0172L-14.2838 45.3451ZM-7.71366 37.2191C-6.09187 33.8902 -5.41902 30.09 -5.53015 25.8462L-7.20401 25.89C-7.09818 29.9317 -7.74104 33.4522 -9.21897 36.4857L-7.71366 37.2191ZM-5.53015 25.8462C-5.74297 17.7189 -8.75406 11.8481 -14.5358 8.29526L-15.4125 9.72186C-10.2138 12.9164 -7.4054 18.1995 -7.20401 25.89L-5.53015 25.8462ZM-14.5358 8.29526C-20.2302 4.79605 -28.6305 3.25244 -39.6141 3.54006L-39.5703 5.2139C-28.7102 4.92952 -20.6984 6.47362 -15.4125 9.72186L-14.5358 8.29526ZM-39.6141 3.54006L-66.6049 4.24683L-66.561 5.92068L-39.5703 5.2139L-39.6141 3.54006ZM-67.4199 5.10567L-67.41 5.48229L-65.7362 5.43846L-65.746 5.06184L-67.4199 5.10567ZM-66.7926 6.2683C-65.6016 6.59186 -64.6963 7.02623 -64.0397 7.54491L-63.0018 6.23096C-63.8845 5.5337 -65.0141 5.01636 -66.3536 4.65245L-66.7926 6.2683ZM-64.0397 7.54491C-63.7944 7.73861 -63.5374 8.07473 -63.2854 8.614C-63.0352 9.14925 -62.8115 9.83768 -62.6071 10.6826L-60.9796 10.289C-61.1979 9.38628 -61.4531 8.57975 -61.7685 7.90497C-62.082 7.23421 -62.4773 6.64522 -63.0018 6.23096L-64.0397 7.54491ZM-62.6071 10.6826C-62.2023 12.3567 -61.8855 14.9269 -61.6687 18.4268L-59.9975 18.3232C-60.2158 14.7995 -60.5392 12.1103 -60.9796 10.289L-62.6071 10.6826ZM-61.6687 18.4268C-61.4522 21.92 -61.3244 26.7979 -61.1631 32.9561L-59.4893 32.9123C-59.6502 26.7677 -59.7787 21.8536 -59.9975 18.3232L-61.6687 18.4268ZM-61.1631 32.9561L-60.1572 71.3708L-58.4833 71.327L-59.4893 32.9123L-61.1631 32.9561ZM-60.1572 71.3708C-59.9959 77.529 -59.8683 82.407 -59.9016 85.9067L-58.2273 85.9226C-58.1936 82.3856 -58.3224 77.4716 -58.4833 71.327L-60.1572 71.3708ZM-59.9016 85.9067C-59.935 89.4131 -60.1169 91.9964 -60.4335 93.6894L-58.7877 93.9972C-58.4432 92.1554 -58.2609 89.4529 -58.2273 85.9226L-59.9016 85.9067ZM-60.4335 93.6894C-60.7518 95.3909 -61.2988 96.4383 -61.8254 96.901L-60.7202 98.1588C-59.7732 97.3267 -59.1306 95.8305 -58.7877 93.9972L-60.4335 93.6894ZM-61.8254 96.901C-62.454 97.4534 -63.3353 97.9345 -64.5077 98.32L-63.9848 99.9106C-62.6661 99.4771 -61.5652 98.9014 -60.7202 98.1588L-61.8254 96.901ZM-63.4094 99.0934L-63.4258 98.4657L-65.0996 98.5095L-65.0832 99.1372L-63.4094 99.0934ZM-48.5893 6.20382L-40.1782 5.98356L-40.2221 4.30972L-48.6332 4.52997L-48.5893 6.20382ZM-40.1782 5.98356C-36.3584 5.88354 -33.1688 6.29321 -30.4793 7.07204L-30.0136 5.4637C-32.8938 4.62963 -36.2585 4.20593 -40.2221 4.30972L-40.1782 5.98356ZM-30.4793 7.07204C-27.8257 7.8405 -25.7943 9.09006 -24.2281 10.8044L-22.9919 9.67501C-24.7883 7.70865 -27.0976 6.30813 -30.0136 5.4637L-30.4793 7.07204ZM-24.2281 10.8044C-22.6415 12.5411 -21.3828 14.7766 -20.5863 17.5325L-18.9777 17.0676C-19.8388 14.0882 -21.2159 11.619 -22.9919 9.67501L-24.2281 10.8044ZM-20.5863 17.5325C-19.783 20.3118 -19.3202 23.742 -19.2162 27.7121L-17.5424 27.6682C-17.6488 23.6038 -18.1233 20.0236 -18.9777 17.0676L-20.5863 17.5325ZM-19.2162 27.7121C-19.0316 34.7622 -20.3745 40.2575 -23.025 44.1567L-21.6403 45.098C-18.7264 40.8115 -17.3522 34.9295 -17.5424 27.6682L-19.2162 27.7121ZM-23.025 44.1567C-25.6066 47.9543 -30.0228 50.0212 -36.5081 50.191L-36.4643 51.8649C-29.6426 51.6862 -24.6231 49.486 -21.6403 45.098L-23.025 44.1567ZM-36.5081 50.191L-47.5555 50.4803L-47.5117 52.1542L-36.4643 51.8649L-36.5081 50.191ZM-46.6966 51.2976L-47.7742 5.34727L-49.4482 5.38652L-48.3706 51.3369L-46.6966 51.2976ZM1.20357 96.7733L2.0405 96.7514L0.445247 96.4186L1.20357 96.7733ZM1.21343 97.1499L0.3765 97.1718L0.398416 98.0088L1.23535 97.9868L1.21343 97.1499ZM24.6892 96.5352L24.7111 97.3721L25.548 97.3502L25.5261 96.5133L24.6892 96.5352ZM24.6793 96.1586L25.5162 96.1367L25.4995 95.4974L24.8783 95.3454L24.6793 96.1586ZM21.5014 94.7343L20.9824 95.3913L21.5014 94.7343ZM19.7773 91.262L20.5911 91.0652L20.5911 91.0652L19.7773 91.262ZM18.817 83.3728L17.9814 83.4245L18.817 83.3728ZM17.0484 15.8331L16.2112 15.8251L17.0484 15.8331ZM17.5945 7.90447L18.4175 8.0584L18.4175 8.0584L17.5945 7.90447ZM22.2335 2.75802L22.4749 3.55968L23.0872 3.37534L23.0704 2.7361L22.2335 2.75802ZM22.2236 2.3814L23.0606 2.35948L23.0387 1.52256L22.2017 1.54447L22.2236 2.3814ZM-1.25207 2.99613L-1.27399 2.15921L-2.11092 2.18112L-2.089 3.01805L-1.25207 2.99613ZM-1.24221 3.37275L-2.07914 3.39466L-2.06284 4.01736L-1.46167 4.18067L-1.24221 3.37275ZM4.49785 16.2874L5.33345 16.2356L4.49785 16.2874ZM6.26644 83.827L7.1036 83.835L6.26644 83.827ZM5.72032 91.7557L4.89734 91.6018L5.72032 91.7557ZM4.05807 95.4423L3.50547 94.8134L4.05807 95.4423ZM1.08464 97.0277L0.326254 96.673L-0.494598 98.4282L1.34609 97.823L1.08464 97.0277ZM0.366638 96.7952L0.3765 97.1718L2.05037 97.128L2.0405 96.7514L0.366638 96.7952ZM1.23535 97.9868L24.7111 97.3721L24.6672 95.6983L1.19152 96.313L1.23535 97.9868ZM25.5261 96.5133L25.5162 96.1367L23.8424 96.1805L23.8522 96.5571L25.5261 96.5133ZM24.8783 95.3454C23.5698 95.025 22.6715 94.5917 22.0203 94.0773L20.9824 95.3913C21.8706 96.0928 23.0072 96.6112 24.4802 96.9718L24.8783 95.3454ZM22.0203 94.0773C21.485 93.6544 21.0061 92.7812 20.5911 91.0652L18.9635 91.4588C19.3938 93.238 19.9784 94.5982 20.9824 95.3913L22.0203 94.0773ZM20.5911 91.0652C20.1862 89.3911 19.8694 86.8209 19.6526 83.321L17.9814 83.4245C18.1997 86.9483 18.5231 89.6375 18.9635 91.4588L20.5911 91.0652ZM19.6526 83.321C19.4362 79.8278 19.3083 74.9499 19.147 68.7917L17.4732 68.8355C17.6341 74.9801 17.7626 79.8942 17.9814 83.4245L19.6526 83.321ZM19.147 68.7917L18.1411 30.3769L16.4673 30.4208L17.4732 68.8355L19.147 68.7917ZM18.1411 30.3769C17.9799 24.2187 17.8523 19.3408 17.8856 15.8411L16.2112 15.8251C16.1776 19.3621 16.3064 24.2762 16.4673 30.4208L18.1411 30.3769ZM17.8856 15.8411C17.9189 12.3347 18.1008 9.7514 18.4175 8.0584L16.7716 7.75054C16.4271 9.59234 16.2448 12.2948 16.2112 15.8251L17.8856 15.8411ZM18.4175 8.0584C18.7421 6.32296 19.1746 5.42592 19.6871 4.97557L18.5818 3.71775C17.6208 4.56224 17.1081 5.95119 16.7716 7.75054L18.4175 8.0584ZM19.6871 4.97557C20.3104 4.42783 21.1848 3.94806 22.4749 3.55968L21.9922 1.95635C20.54 2.39353 19.4321 2.97067 18.5818 3.71775L19.6871 4.97557ZM23.0704 2.7361L23.0606 2.35948L21.3867 2.40331L21.3966 2.77993L23.0704 2.7361ZM22.2017 1.54447L-1.27399 2.15921L-1.23016 3.83305L22.2456 3.21832L22.2017 1.54447ZM-2.089 3.01805L-2.07914 3.39466L-0.405277 3.35083L-0.415139 2.97421L-2.089 3.01805ZM-1.46167 4.18067C-0.270729 4.50424 0.634629 4.93862 1.29125 5.45729L2.32911 4.14334C1.44642 3.44608 0.316832 2.92875 -1.02268 2.56482L-1.46167 4.18067ZM1.29125 5.45729C1.53646 5.65099 1.79345 5.98711 2.04551 6.52638C2.29575 7.06163 2.51942 7.75005 2.72373 8.59498L4.35126 8.2014C4.13297 7.29866 3.87782 6.49212 3.56244 5.81735C3.24888 5.14658 2.85356 4.5576 2.32911 4.14334L1.29125 5.45729ZM2.72373 8.59498C3.1286 10.2691 3.44537 12.8393 3.66225 16.3392L5.33345 16.2356C5.11516 12.7119 4.79172 10.0226 4.35126 8.2014L2.72373 8.59498ZM3.66225 16.3392C3.87864 19.8324 4.00656 24.7103 4.16781 30.8685L5.84162 30.8246C5.68072 24.6801 5.55216 19.766 5.33345 16.2356L3.66225 16.3392ZM4.16781 30.8685L5.17374 69.2832L6.84754 69.2394L5.84162 30.8246L4.16781 30.8685ZM5.17374 69.2832C5.335 75.4414 5.46255 80.3193 5.42927 83.8191L7.1036 83.835C7.13725 80.298 7.00844 75.3839 6.84754 69.2394L5.17374 69.2832ZM5.42927 83.8191C5.39586 87.3255 5.21403 89.9088 4.89734 91.6018L6.54323 91.9096C6.88778 90.0678 7.07003 87.3653 7.1036 83.835L5.42927 83.8191ZM4.89734 91.6018C4.5791 93.3033 4.03205 94.3507 3.50547 94.8134L4.61074 96.0712C5.55772 95.2391 6.20036 93.7428 6.54323 91.9096L4.89734 91.6018ZM3.50547 94.8134C2.87689 95.3657 1.99557 95.8469 0.82313 96.2323L1.34609 97.823C2.66472 97.3895 3.76569 96.8137 4.61074 96.0712L3.50547 94.8134ZM1.84302 97.3824L1.96196 97.128L0.445247 96.4186L0.326254 96.673L1.84302 97.3824ZM27.6843 96.0799L28.5212 96.058L28.4908 94.8968L27.3989 95.2928L27.6843 96.0799ZM27.6942 96.4565L26.8572 96.4784L26.8791 97.3153L27.7161 97.2934L27.6942 96.4565ZM82.145 93.7744L82.9699 93.9171L82.976 93.8821L82.979 93.8468L82.145 93.7744ZM83.303 80.4279L84.1371 80.5003L84.2181 79.5664L83.2811 79.591L83.303 80.4279ZM82.8008 80.441L82.7789 79.6041L82.119 79.6214L81.9819 80.267L82.8008 80.441ZM75.9542 92.429L75.5199 91.7133L75.9542 92.429ZM69.8521 94.4732L69.9615 95.3032L69.8521 94.4732ZM45.5075 95.4875L44.6706 95.5095L44.6925 96.3464L45.5294 96.3245L45.5075 95.4875ZM44.1761 44.6445L44.1542 43.8076L43.3173 43.8295L43.3392 44.6664L44.1761 44.6445ZM60.5783 47.3556L59.9571 47.9169L59.9571 47.9169L60.5783 47.3556ZM62.2892 50.3258L63.0762 50.0403L62.2892 50.3258ZM63.2567 53.6923L62.4445 53.8953L62.6073 54.5468L63.2786 54.5292L63.2567 53.6923ZM63.5078 53.6857L63.5297 54.5227L64.3666 54.5007L64.3447 53.6638L63.5078 53.6857ZM62.9851 33.7251L63.822 33.7032L63.8001 32.8663L62.9632 32.8882L62.9851 33.7251ZM62.734 33.7317L62.7121 32.8948L62.0408 32.9124L61.9123 33.5716L62.734 33.7317ZM61.944 37.1443L62.7449 37.3881L61.944 37.1443ZM60.3909 40.1999L59.7412 39.6719L60.3909 40.1999ZM57.1861 42.5451L57.5524 43.2979L57.1861 42.5451ZM44.1531 43.7657L43.3162 43.7876L43.3381 44.6246L44.175 44.6027L44.1531 43.7657ZM43.0584 1.96145L43.0365 1.12453L42.1996 1.14644L42.2215 1.98337L43.0584 1.96145ZM64.9186 2.01714L64.8025 2.84628L64.8026 2.84628L64.9186 2.01714ZM70.7459 3.87454L70.3259 4.59879L70.7459 3.87454ZM74.9906 7.65775L74.3149 8.15215L74.3149 8.15215L74.9906 7.65775ZM77.9135 13.7368L77.1181 13.9983L77.3127 14.59L77.9354 14.5737L77.9135 13.7368ZM78.4157 13.7237L78.4376 14.5606L79.4383 14.5344L79.2355 13.554L78.4157 13.7237ZM76.1144 2.60334L75.289 2.74339L75.2916 2.75824L75.2946 2.77299L76.1144 2.60334ZM75.4473 1.11332L75.0926 1.87168L75.0926 1.87169L75.4473 1.11332ZM24.9743 2.18375L24.9524 1.34682L24.1155 1.36874L24.1374 2.20566L24.9743 2.18375ZM24.9842 2.56036L24.1472 2.58228L24.1635 3.20498L24.7647 3.36829L24.9842 2.56036ZM28.0366 3.98792L28.5555 3.33095L28.5555 3.33095L28.0366 3.98792ZM30.7242 15.475L31.5598 15.4232L30.7242 15.475ZM32.4928 83.0147L33.33 83.0226L32.4928 83.0147ZM31.9467 90.9433L32.7696 91.0972L31.9467 90.9433ZM30.2844 94.6299L29.7318 94.001L30.2844 94.6299ZM27.311 96.2153L27.0255 95.4282L27.5725 97.0106L27.311 96.2153ZM26.8474 96.1018L26.8572 96.4784L28.5311 96.4346L28.5212 96.058L26.8474 96.1018ZM27.7161 97.2934L80.9444 95.8996L80.9005 94.2257L27.6722 95.6196L27.7161 97.2934ZM80.9444 95.8996C81.1744 95.8936 81.62 95.8941 82.0663 95.6562L81.2785 94.1786C81.2293 94.2049 81.1727 94.2186 80.9005 94.2257L80.9444 95.8996ZM82.0663 95.6562C82.4487 95.4523 82.6378 95.1036 82.7417 94.8346C82.8471 94.5617 82.9143 94.2392 82.9699 93.9171L81.32 93.6318C81.2666 93.9407 81.2214 94.1235 81.1797 94.2313C81.1365 94.3431 81.1439 94.2504 81.2785 94.1786L82.0663 95.6562ZM82.979 93.8468L84.1371 80.5003L82.4689 80.3555L81.3109 93.702L82.979 93.8468ZM83.2811 79.591L82.7789 79.6041L82.8227 81.278L83.3249 81.2648L83.2811 79.591ZM81.9819 80.267C81.324 83.3633 80.4108 85.8156 79.3818 87.6372L80.8396 88.4608C81.9716 86.457 82.9355 83.8352 83.6198 80.615L81.9819 80.267ZM79.3818 87.6372C78.3656 89.4358 77.1182 90.7436 75.5199 91.7133L76.3884 93.1448C78.2525 92.0138 79.6946 90.4874 80.8396 88.4608L79.3818 87.6372ZM75.5199 91.7133C73.9006 92.6957 72.0221 93.3427 69.7427 93.6432L69.9615 95.3032C72.4394 94.9766 74.5452 94.2631 76.3884 93.1448L75.5199 91.7133ZM69.7427 93.6432C67.4017 93.9517 64.5484 94.1514 61.3034 94.2364L61.3472 95.9103C64.6302 95.8243 67.5452 95.6217 69.9615 95.3032L69.7427 93.6432ZM61.3034 94.2364L45.4856 94.6506L45.5294 96.3245L61.3472 95.9103L61.3034 94.2364ZM46.3444 95.4656L45.013 44.6226L43.3392 44.6664L44.6706 95.5095L46.3444 95.4656ZM44.198 45.4814L51.6048 45.2875L51.561 43.6136L44.1542 43.8076L44.198 45.4814ZM51.6048 45.2875C53.955 45.2259 55.6991 45.4318 56.9288 45.9524L57.5815 44.4104C56.0164 43.7479 53.9812 43.5502 51.561 43.6136L51.6048 45.2875ZM56.9288 45.9524C58.2638 46.5175 59.2926 47.1815 59.9571 47.9169L61.1995 46.7943C60.3114 45.8116 59.0412 45.0283 57.5815 44.4104L56.9288 45.9524ZM59.9571 47.9169C60.6417 48.6745 61.1217 49.5624 61.5021 50.6112L63.0762 50.0403C62.6443 48.8492 62.0674 47.7548 61.1995 46.7943L59.9571 47.9169ZM61.5021 50.6112C61.8912 51.6841 62.1623 52.7659 62.4445 53.8953L64.0689 53.4894C63.7898 52.3722 63.4995 51.2074 63.0762 50.0403L61.5021 50.6112ZM63.2786 54.5292L63.5297 54.5227L63.4859 52.8488L63.2348 52.8554L63.2786 54.5292ZM64.3447 53.6638L63.822 33.7032L62.1482 33.7471L62.6709 53.7077L64.3447 53.6638ZM62.9632 32.8882L62.7121 32.8948L62.7559 34.5686L63.007 34.5621L62.9632 32.8882ZM61.9123 33.5716C61.6896 34.7142 61.4755 35.8086 61.1431 36.9004L62.7449 37.3881C63.1065 36.2005 63.3355 35.0221 63.5558 33.8919L61.9123 33.5716ZM61.1431 36.9004C60.8181 37.9677 60.3852 38.8795 59.7412 39.6719L61.0406 40.7279C61.8571 39.7233 62.3759 38.6002 62.7449 37.3881L61.1431 36.9004ZM59.7412 39.6719C59.1161 40.441 58.1234 41.158 56.8198 41.7922L57.5524 43.2979C58.9777 42.6045 60.2052 41.7558 61.0406 40.7279L59.7412 39.6719ZM56.8198 41.7922C55.6191 42.3764 53.8882 42.6733 51.5379 42.7349L51.5818 44.4087C54.002 44.3453 56.0241 44.0414 57.5524 43.2979L56.8198 41.7922ZM51.5379 42.7349L44.1312 42.9288L44.175 44.6027L51.5818 44.4087L51.5379 42.7349ZM44.99 43.7438L43.8953 1.93953L42.2215 1.98337L43.3162 43.7876L44.99 43.7438ZM43.0803 2.79837L57.0151 2.43348L56.9712 0.759633L43.0365 1.12453L43.0803 2.79837ZM57.0151 2.43348C59.9813 2.35581 62.578 2.53514 64.8025 2.84628L65.0345 1.18801C62.7199 0.864261 60.0309 0.679513 56.9712 0.759633L57.0151 2.43348ZM64.8026 2.84628C66.9973 3.15325 68.7859 3.70576 70.3259 4.59879L71.1659 3.15028C69.3893 2.12016 67.3789 1.51591 65.0345 1.18801L64.8026 2.84628ZM70.3259 4.59879C71.8924 5.50713 73.2163 6.65074 74.3149 8.15215L75.6662 7.16335C74.4197 5.45993 72.916 4.16509 71.1659 3.15028L70.3259 4.59879ZM74.3149 8.15215C75.4181 9.65977 76.3155 11.5569 77.1181 13.9983L78.7088 13.4753C77.8735 10.9346 76.9081 8.86055 75.6662 7.16334L74.3149 8.15215ZM77.9354 14.5737L78.4376 14.5606L78.3937 12.8867L77.8916 12.8999L77.9354 14.5737ZM79.2355 13.554L76.9343 2.43368L75.2946 2.77299L77.5958 13.8933L79.2355 13.554ZM76.9399 2.46328C76.8573 1.97678 76.7365 1.55595 76.5785 1.2191C76.4365 0.916362 76.1995 0.540842 75.802 0.354947L75.0926 1.87169C75.0089 1.83253 74.979 1.78994 74.9899 1.8032C74.9983 1.81348 75.0255 1.85095 75.0626 1.93017C75.1375 2.08971 75.223 2.35442 75.289 2.74339L76.9399 2.46328ZM75.802 0.354956C75.4683 0.198861 74.9576 0.0373897 74.4145 0.0516126L74.4583 1.72546C74.6685 1.71996 74.9176 1.78983 75.0926 1.87168L75.802 0.354956ZM74.4145 0.0516126L24.9524 1.34682L24.9962 3.02067L74.4583 1.72546L74.4145 0.0516126ZM24.1374 2.20566L24.1472 2.58228L25.8211 2.53845L25.8112 2.16183L24.1374 2.20566ZM24.7647 3.36829C25.9556 3.69185 26.861 4.12622 27.5176 4.64489L28.5555 3.33095C27.6728 2.63369 26.5432 2.11635 25.2037 1.75244L24.7647 3.36829ZM27.5176 4.64489C27.7628 4.8386 28.0198 5.17473 28.2719 5.71399C28.5221 6.24925 28.7458 6.93767 28.9501 7.7826L30.5776 7.38902C30.3593 6.48627 30.1042 5.67974 29.7888 5.00496C29.4752 4.3342 29.0799 3.74522 28.5555 3.33095L27.5176 4.64489ZM28.9501 7.7826C29.355 9.4567 29.6717 12.0269 29.8886 15.5268L31.5598 15.4232C31.3415 11.8995 31.0181 9.21026 30.5776 7.38902L28.9501 7.7826ZM29.8886 15.5268C30.105 19.02 30.2329 23.8979 30.3942 30.0561L32.068 30.0123C31.9071 23.8677 31.7785 18.9536 31.5598 15.4232L29.8886 15.5268ZM30.3942 30.0561L31.4001 68.4708L33.0739 68.427L32.068 30.0123L30.3942 30.0561ZM31.4001 68.4708C31.5614 74.629 31.6889 79.5069 31.6556 83.0067L33.33 83.0226C33.3636 79.4856 33.2348 74.5716 33.0739 68.427L31.4001 68.4708ZM31.6556 83.0067C31.6222 86.5131 31.4404 89.0964 31.1237 90.7894L32.7696 91.0972C33.1141 89.2554 33.2963 86.5529 33.33 83.0226L31.6556 83.0067ZM31.1237 90.7894C30.8055 92.4909 30.2584 93.5383 29.7318 94.001L30.8371 95.2588C31.7841 94.4267 32.4267 92.9304 32.7696 91.0972L31.1237 90.7894ZM29.7318 94.001C29.1033 94.5533 28.2219 95.0345 27.0495 95.42L27.5725 97.0106C28.8911 96.5771 29.9921 96.0013 30.8371 95.2588L29.7318 94.001ZM27.5964 97.0023L27.9698 96.8669L27.3989 95.2928L27.0255 95.4282L27.5964 97.0023Z" fill="#580300"/>
</g>
</svg>
