<svg width="32" height="85" viewBox="0 0 32 85" fill="none" xmlns="http://www.w3.org/2000/svg">
<g style="mix-blend-mode:darken">
<path d="M-431.476 83.8452L-430.639 83.8233L-432.234 83.4905L-431.476 83.8452ZM-431.468 84.1331L-432.305 84.155L-432.283 84.9919L-431.446 84.97L-431.468 84.1331ZM-413.522 83.6632L-413.5 84.5001L-412.663 84.4782L-412.685 83.6412L-413.522 83.6632ZM-413.53 83.3752L-412.693 83.3533L-412.71 82.7141L-413.331 82.562L-413.53 83.3752ZM-415.959 82.2865L-416.478 82.9434L-415.959 82.2865ZM-417.277 79.6321L-416.463 79.4353L-416.463 79.4353L-417.277 79.6321ZM-418.011 73.6012L-418.847 73.653L-418.011 73.6012ZM-419.363 21.9709L-420.2 21.9629L-419.363 21.9709ZM-418.946 15.9099L-418.123 16.0638L-418.123 16.0638L-418.946 15.9099ZM-415.399 11.9757L-415.158 12.7774L-414.546 12.593L-414.562 11.9538L-415.399 11.9757ZM-415.407 11.6878L-414.57 11.6659L-414.592 10.829L-415.429 10.8509L-415.407 11.6878ZM-433.353 12.1577L-433.375 11.3208L-434.212 11.3427L-434.19 12.1797L-433.353 12.1577ZM-433.345 12.4456L-434.182 12.4676L-434.166 13.0903L-433.565 13.2536L-433.345 12.4456ZM-428.957 22.3182L-428.122 22.2664L-428.957 22.3182ZM-427.605 73.9485L-426.768 73.9564L-427.605 73.9485ZM-428.023 80.0095L-428.846 79.8555L-428.846 79.8555L-428.023 80.0095ZM-429.293 82.8277L-429.846 82.1988L-429.293 82.8277ZM-431.567 84.0396L-432.325 83.6849L-433.146 85.4401L-431.305 84.835L-431.567 84.0396ZM-432.312 83.8671L-432.305 84.155L-430.631 84.1112L-430.639 83.8233L-432.312 83.8671ZM-431.446 84.97L-413.5 84.5001L-413.544 82.8262L-431.49 83.2962L-431.446 84.97ZM-412.685 83.6412L-412.693 83.3533L-414.367 83.3972L-414.359 83.6851L-412.685 83.6412ZM-413.331 82.562C-414.312 82.3219 -414.97 82.0007 -415.44 81.6295L-416.478 82.9434C-415.771 83.5018 -414.874 83.9081 -413.729 84.1884L-413.331 82.562ZM-415.44 81.6295C-415.794 81.3498 -416.148 80.7397 -416.463 79.4353L-418.091 79.8288C-417.76 81.1964 -417.301 82.2936 -416.478 82.9434L-415.44 81.6295ZM-416.463 79.4353C-416.769 78.1728 -417.01 76.2221 -417.175 73.5494L-418.847 73.653C-418.68 76.3495 -418.432 78.4193 -418.091 79.8288L-416.463 79.4353ZM-417.175 73.5494C-417.341 70.8835 -417.438 67.1588 -417.562 62.4496L-419.235 62.4935C-419.113 67.189 -419.014 70.9498 -418.847 73.653L-417.175 73.5494ZM-417.562 62.4496L-418.331 33.0837L-420.004 33.1275L-419.235 62.4935L-417.562 62.4496ZM-418.331 33.0837C-418.454 28.3745 -418.551 24.6498 -418.526 21.9789L-420.2 21.9629C-420.226 24.6712 -420.127 28.432 -420.004 33.1275L-418.331 33.0837ZM-418.526 21.9789C-418.5 19.3012 -418.361 17.3405 -418.123 16.0638L-419.769 15.756C-420.035 17.1815 -420.175 19.2614 -420.2 21.9629L-418.526 21.9789ZM-418.123 16.0638C-417.876 14.7447 -417.555 14.1169 -417.216 13.8191L-418.321 12.5612C-419.109 13.2532 -419.51 14.3729 -419.769 15.756L-418.123 16.0638ZM-417.216 13.8191C-416.766 13.4238 -416.125 13.0685 -415.158 12.7774L-415.641 11.1741C-416.77 11.514 -417.644 11.9667 -418.321 12.5612L-417.216 13.8191ZM-414.562 11.9538L-414.57 11.6659L-416.244 11.7097L-416.236 11.9976L-414.562 11.9538ZM-415.429 10.8509L-433.375 11.3208L-433.331 12.9947L-415.385 12.5247L-415.429 10.8509ZM-434.19 12.1797L-434.182 12.4676L-432.508 12.4237L-432.516 12.1358L-434.19 12.1797ZM-433.565 13.2536C-432.672 13.4962 -432.006 13.8185 -431.531 14.1939L-430.493 12.88C-431.194 12.3259 -432.084 11.9207 -433.126 11.6377L-433.565 13.2536ZM-431.531 14.1939C-431.376 14.316 -431.196 14.5432 -431.011 14.9399C-430.827 15.3327 -430.66 15.845 -430.505 16.4841L-428.878 16.0905C-429.046 15.3936 -429.245 14.7632 -429.494 14.2309C-429.741 13.7027 -430.059 13.2226 -430.493 12.88L-431.531 14.1939ZM-430.505 16.4841C-430.2 17.7465 -429.958 19.6973 -429.793 22.3699L-428.122 22.2664C-428.289 19.5699 -428.537 17.5001 -428.878 16.0905L-430.505 16.4841ZM-429.793 22.3699C-429.628 25.0359 -429.53 28.7605 -429.407 33.4698L-427.733 33.4259C-427.856 28.7304 -427.954 24.9696 -428.122 22.2664L-429.793 22.3699ZM-429.407 33.4698L-428.638 62.8357L-426.964 62.7919L-427.733 33.4259L-429.407 33.4698ZM-428.638 62.8357C-428.514 67.5449 -428.417 71.2695 -428.442 73.9405L-426.768 73.9564C-426.742 71.2482 -426.841 67.4874 -426.964 62.7919L-428.638 62.8357ZM-428.442 73.9405C-428.468 76.6181 -428.607 78.5789 -428.846 79.8555L-427.2 80.1634C-426.933 78.7379 -426.794 76.658 -426.768 73.9564L-428.442 73.9405ZM-428.846 79.8555C-429.086 81.1408 -429.493 81.8886 -429.846 82.1988L-428.741 83.4566C-427.967 82.777 -427.465 81.5803 -427.2 80.1634L-428.846 79.8555ZM-429.846 82.1988C-430.301 82.5986 -430.949 82.9553 -431.828 83.2443L-431.305 84.835C-430.28 84.4979 -429.412 84.0466 -428.741 83.4566L-429.846 82.1988ZM-430.808 84.3943L-430.717 84.1999L-432.234 83.4905L-432.325 83.6849L-430.808 84.3943ZM-411.225 83.603L-412.062 83.6249L-412.04 84.4618L-411.203 84.4399L-411.225 83.603ZM-402.3 83.3693L-402.278 84.2062L-401.441 84.1843L-401.463 83.3474L-402.3 83.3693ZM-402.308 83.0814L-401.471 83.0595L-401.486 82.4733L-402.042 82.2874L-402.308 83.0814ZM-404.742 81.8007L-404.223 81.1437L-404.742 81.8007ZM-406.062 79.0503L-405.249 78.8535L-406.062 79.0503ZM-406.794 73.1154L-405.958 73.0625L-406.794 73.1154ZM-408.448 13.6183L-407.721 13.2031L-409.285 13.6402L-408.448 13.6183ZM-368.893 82.8786L-369.62 83.2938L-369.372 83.7287L-368.872 83.7156L-368.893 82.8786ZM-367.55 82.8435L-367.528 83.6804L-366.691 83.6585L-366.713 82.8215L-367.55 82.8435ZM-369.072 21.0381L-368.235 21.0472L-369.072 21.0381ZM-368.652 15.0731L-367.829 15.227L-367.829 15.227L-368.652 15.0731ZM-367.478 12.2574L-366.925 12.8863L-366.925 12.8863L-367.478 12.2574ZM-365.21 10.8535L-364.878 11.6224L-364.358 11.3982L-364.373 10.8316L-365.21 10.8535ZM-365.217 10.5656L-364.38 10.5437L-364.402 9.70678L-365.239 9.7287L-365.217 10.5656ZM-374.142 10.7993L-374.164 9.9624L-375.001 9.98432L-374.979 10.8212L-374.142 10.7993ZM-374.134 11.0872L-374.971 11.1091L-374.956 11.6953L-374.4 11.8812L-374.134 11.0872ZM-371.7 12.3679L-372.219 13.0249L-372.219 13.0249L-371.7 12.3679ZM-370.38 15.1183L-369.566 14.9215L-369.566 14.9215L-370.38 15.1183ZM-369.648 21.0532L-370.484 21.1061L-369.648 21.0532ZM-368.429 63.948L-369.155 64.3652L-367.592 63.9261L-368.429 63.948ZM-397.306 13.7107L-396.58 13.2935L-396.582 13.2907L-397.306 13.7107ZM-398.702 11.7305L-398.126 11.1233L-398.126 11.1233L-398.702 11.7305ZM-413.011 11.7211L-413.033 10.8842L-413.87 10.9061L-413.848 11.743L-413.011 11.7211ZM-413.004 12.009L-413.841 12.0309L-413.824 12.6536L-413.223 12.8169L-413.004 12.009ZM-410.67 13.1003L-411.189 13.7573L-410.67 13.1003ZM-409.35 15.8507L-410.164 16.0475L-409.35 15.8507ZM-408.616 21.8815L-409.451 21.9333L-408.616 21.8815ZM-407.271 73.2239L-408.108 73.2149L-407.271 73.2239ZM-407.691 79.189L-408.514 79.035L-407.691 79.189ZM-408.962 82.0072L-408.409 82.6361L-408.962 82.0072ZM-411.23 83.4111L-412.067 83.433L-412.035 84.6691L-410.899 84.18L-411.23 83.4111ZM-412.069 83.337L-412.062 83.6249L-410.388 83.5811L-410.396 83.2932L-412.069 83.337ZM-411.203 84.4399L-402.278 84.2062L-402.322 82.5324L-411.247 82.7661L-411.203 84.4399ZM-401.463 83.3474L-401.471 83.0595L-403.144 83.1033L-403.137 83.3912L-401.463 83.3474ZM-402.042 82.2874C-403.015 81.9621 -403.71 81.5489 -404.223 81.1437L-405.261 82.4576C-404.597 82.9819 -403.731 83.4883 -402.573 83.8754L-402.042 82.2874ZM-404.223 81.1437C-404.378 81.0216 -404.558 80.7944 -404.743 80.3977C-404.927 80.0049 -405.094 79.4926 -405.249 78.8535L-406.876 79.2471C-406.708 79.944 -406.509 80.5745 -406.26 81.1067C-406.013 81.635 -405.695 82.115 -405.261 82.4576L-404.223 81.1437ZM-405.249 78.8535C-405.554 77.5903 -405.795 75.6389 -405.958 73.0625L-407.63 73.1683C-407.465 75.7691 -407.217 77.8383 -406.876 79.2471L-405.249 78.8535ZM-405.958 73.0625C-406.121 70.4932 -406.216 66.8653 -406.337 62.2517L-408.011 62.2956C-407.89 66.8948 -407.795 70.5604 -407.63 73.1683L-405.958 73.0625ZM-406.337 62.2517L-407.611 13.5964L-409.285 13.6402L-408.011 62.2956L-406.337 62.2517ZM-409.175 14.0335L-369.62 83.2938L-368.166 82.4634L-407.721 13.2031L-409.175 14.0335ZM-368.872 83.7156L-367.528 83.6804L-367.572 82.0065L-368.915 82.0417L-368.872 83.7156ZM-366.713 82.8215L-368.047 31.863L-369.721 31.9068L-368.387 82.8654L-366.713 82.8215ZM-368.047 31.863C-368.168 27.2494 -368.263 23.6215 -368.235 21.0472L-369.909 21.029C-369.938 23.642 -369.842 27.3076 -369.721 31.9068L-368.047 31.863ZM-368.235 21.0472C-368.207 18.4658 -368.068 16.5045 -367.829 15.227L-369.475 14.9192C-369.742 16.3439 -369.881 18.4232 -369.909 21.029L-368.235 21.0472ZM-367.829 15.227C-367.708 14.5807 -367.568 14.0603 -367.405 13.6585C-367.241 13.2526 -367.073 13.0163 -366.925 12.8863L-368.03 11.6285C-368.445 11.9934 -368.738 12.4894 -368.957 13.0298C-369.178 13.5744 -369.343 14.2144 -369.475 14.9192L-367.829 15.227ZM-366.925 12.8863C-366.429 12.4507 -365.749 11.9975 -364.878 11.6224L-365.541 10.0846C-366.569 10.5275 -367.399 11.0742 -368.03 11.6285L-366.925 12.8863ZM-364.373 10.8316L-364.38 10.5437L-366.054 10.5875L-366.046 10.8754L-364.373 10.8316ZM-365.239 9.7287L-374.164 9.9624L-374.12 11.6363L-365.195 11.4025L-365.239 9.7287ZM-374.979 10.8212L-374.971 11.1091L-373.298 11.0653L-373.305 10.7774L-374.979 10.8212ZM-374.4 11.8812C-373.427 12.2066 -372.732 12.6197 -372.219 13.0249L-371.181 11.711C-371.845 11.1867 -372.711 10.6803 -373.869 10.2932L-374.4 11.8812ZM-372.219 13.0249C-372.065 13.147 -371.884 13.3742 -371.699 13.7709C-371.515 14.1637 -371.348 14.676 -371.193 15.3151L-369.566 14.9215C-369.734 14.2246 -369.933 13.5942 -370.182 13.0619C-370.429 12.5337 -370.747 12.0536 -371.181 11.711L-372.219 13.0249ZM-371.193 15.3151C-370.888 16.5783 -370.647 18.5297 -370.484 21.1061L-368.813 21.0003C-368.977 18.3995 -369.225 16.3304 -369.566 14.9215L-371.193 15.3151ZM-370.484 21.1061C-370.321 23.6754 -370.226 27.3033 -370.105 31.9169L-368.431 31.8731C-368.552 27.2738 -368.647 23.6082 -368.813 21.0003L-370.484 21.1061ZM-370.105 31.9169L-369.266 63.9699L-367.592 63.9261L-368.431 31.8731L-370.105 31.9169ZM-367.703 63.5308L-396.58 13.2935L-398.032 14.1279L-369.155 64.3652L-367.703 63.5308ZM-396.582 13.2907C-397.195 12.2332 -397.741 11.4888 -398.126 11.1233L-399.278 12.3378C-399.073 12.5331 -398.624 13.107 -398.03 14.1307L-396.582 13.2907ZM-398.126 11.1233C-398.688 10.5895 -399.489 10.5295 -400.174 10.5475L-400.13 12.2213C-399.47 12.204 -399.307 12.3109 -399.278 12.3378L-398.126 11.1233ZM-400.174 10.5475L-413.033 10.8842L-412.989 12.558L-400.13 12.2213L-400.174 10.5475ZM-413.848 11.743L-413.841 12.0309L-412.167 11.9871L-412.174 11.6992L-413.848 11.743ZM-413.223 12.8169C-412.33 13.0595 -411.665 13.3818 -411.189 13.7573L-410.151 12.4433C-410.853 11.8893 -411.743 11.484 -412.784 11.2011L-413.223 12.8169ZM-411.189 13.7573C-411.035 13.8794 -410.855 14.1066 -410.669 14.5033C-410.485 14.896 -410.318 15.4084 -410.164 16.0475L-408.536 15.6539C-408.705 14.957 -408.903 14.3265 -409.152 13.7943C-409.399 13.266 -409.718 12.786 -410.151 12.4433L-411.189 13.7573ZM-410.164 16.0475C-409.858 17.3099 -409.617 19.2607 -409.451 21.9333L-407.78 21.8298C-407.947 19.1333 -408.195 17.0635 -408.536 15.6539L-410.164 16.0475ZM-409.451 21.9333C-409.286 24.5993 -409.189 28.3239 -409.065 33.0331L-407.391 32.9893C-407.514 28.2937 -407.613 24.5329 -407.78 21.8298L-409.451 21.9333ZM-409.065 33.0331L-408.296 62.3991L-406.622 62.3552L-407.391 32.9893L-409.065 33.0331ZM-408.296 62.3991C-408.175 67.0127 -408.081 70.6406 -408.108 73.2149L-406.434 73.233C-406.406 70.6201 -406.502 66.9545 -406.622 62.3552L-408.296 62.3991ZM-408.108 73.2149C-408.136 75.7962 -408.275 77.7576 -408.514 79.035L-406.868 79.3429C-406.602 77.9182 -406.462 75.8389 -406.434 73.233L-408.108 73.2149ZM-408.514 79.035C-408.755 80.3203 -409.162 81.0681 -409.515 81.3783L-408.409 82.6361C-407.636 81.9565 -407.133 80.7598 -406.868 79.3429L-408.514 79.035ZM-409.515 81.3783C-410.01 81.8139 -410.69 82.2671 -411.561 82.6421L-410.899 84.18C-409.87 83.737 -409.04 83.1904 -408.409 82.6361L-409.515 81.3783ZM-410.393 83.3891L-410.396 83.2932L-412.069 83.337L-412.067 83.433L-410.393 83.3891ZM-361.468 82.012L-361.49 81.1751L-362.327 81.197L-362.305 82.0339L-361.468 82.012ZM-361.461 82.2999L-362.298 82.3218L-362.276 83.1587L-361.439 83.1368L-361.461 82.2999ZM-343.515 81.8299L-343.493 82.6669L-342.656 82.645L-342.678 81.808L-343.515 81.8299ZM-343.522 81.542L-342.686 81.5201L-342.702 80.8809L-343.323 80.7288L-343.522 81.542ZM-345.952 80.4533L-346.471 81.1102L-345.952 80.4533ZM-347.27 77.7989L-346.456 77.6021L-347.27 77.7989ZM-348.004 71.768L-348.839 71.8198L-348.004 71.768ZM-348.856 42.8844L-348.152 42.4309L-349.771 39.9189L-349.693 42.9063L-348.856 42.8844ZM-329.137 73.4827L-328.423 73.0455L-328.428 73.0373L-328.433 73.0292L-329.137 73.4827ZM-326.69 78.8925L-325.858 78.8012L-326.69 78.8925ZM-328.643 81.3445L-328.928 80.5574L-329.495 80.7632L-329.479 81.3664L-328.643 81.3445ZM-328.638 81.5364L-329.474 81.5583L-329.453 82.3952L-328.616 82.3733L-328.638 81.5364ZM-311.651 81.0916L-311.629 81.9285L-310.792 81.9066L-310.814 81.0697L-311.651 81.0916ZM-311.656 80.8997L-310.819 80.8778L-310.833 80.3605L-311.302 80.1413L-311.656 80.8997ZM-313.121 79.9777L-312.545 79.3704L-313.121 79.9777ZM-314.502 78.5734L-313.873 78.0207L-314.502 78.5734ZM-315.997 76.4998L-316.718 76.9254L-315.997 76.4998ZM-317.807 73.3781L-317.081 72.962L-317.09 72.9469L-317.099 72.9321L-317.807 73.3781ZM-341.655 35.4934L-342.286 34.9431L-342.695 35.4124L-342.364 35.9394L-341.655 35.4934ZM-324.687 16.0345L-325.318 15.484L-325.318 15.4843L-324.687 16.0345ZM-319.635 10.9085L-320.163 10.2585L-319.635 10.9085ZM-316.804 9.00978L-316.454 9.7704L-315.953 9.53972L-315.967 8.98786L-316.804 9.00978ZM-316.809 8.81785L-315.972 8.79593L-315.994 7.95901L-316.831 7.98092L-316.809 8.81785ZM-326.022 9.05909L-326.044 8.22217L-326.881 8.24408L-326.859 9.08101L-326.022 9.05909ZM-326.017 9.25102L-326.854 9.27294L-326.837 9.89563L-326.236 10.0589L-326.017 9.25102ZM-323.782 10.2489L-324.288 10.9161L-324.288 10.9161L-323.782 10.2489ZM-323.163 11.8652L-323.995 11.7686L-323.995 11.7686L-323.163 11.8652ZM-327.225 18.1177L-327.852 17.5627L-327.856 17.5672L-327.225 18.1177ZM-348.669 42.6875L-349.506 42.7094L-349.45 44.8552L-348.039 43.238L-348.669 42.6875ZM-348.751 13.8797L-349.574 13.7258L-349.574 13.7258L-348.751 13.8797ZM-347.574 11.16L-347.022 11.7889L-347.574 11.16ZM-345.205 9.94556L-344.964 10.7472L-344.352 10.5629L-344.368 9.92364L-345.205 9.94556ZM-345.213 9.65766L-344.376 9.63574L-344.398 8.79882L-345.235 8.82073L-345.213 9.65766ZM-363.159 10.1276L-363.181 9.29066L-364.017 9.31258L-363.996 10.1495L-363.159 10.1276ZM-363.151 10.4155L-363.988 10.4374L-363.972 11.0601L-363.371 11.2234L-363.151 10.4155ZM-359.497 14.2572L-360.311 14.4539L-360.311 14.4539L-359.497 14.2572ZM-358.763 20.288L-357.928 20.2362L-358.763 20.288ZM-357.411 71.9183L-356.574 71.9263L-357.411 71.9183ZM-357.829 77.9793L-357.006 78.1332L-357.829 77.9793ZM-359.099 80.7975L-359.652 80.1686L-359.099 80.7975ZM-361.372 82.0095L-361.35 82.8464L-361.228 82.8432L-361.111 82.8048L-361.372 82.0095ZM-362.305 82.0339L-362.298 82.3218L-360.624 82.278L-360.631 81.9901L-362.305 82.0339ZM-361.439 83.1368L-343.493 82.6669L-343.537 80.993L-361.483 81.463L-361.439 83.1368ZM-342.678 81.808L-342.686 81.5201L-344.359 81.564L-344.352 81.8519L-342.678 81.808ZM-343.323 80.7288C-344.304 80.4887 -344.963 80.1675 -345.433 79.7963L-346.471 81.1102C-345.764 81.6686 -344.867 82.0749 -343.722 82.3552L-343.323 80.7288ZM-345.433 79.7963C-345.787 79.5166 -346.141 78.9065 -346.456 77.6021L-348.083 77.9956C-347.753 79.3632 -347.293 80.4604 -346.471 81.1102L-345.433 79.7963ZM-346.456 77.6021C-346.761 76.3396 -347.003 74.3889 -347.168 71.7162L-348.839 71.8198C-348.672 74.5163 -348.424 76.5861 -348.083 77.9956L-346.456 77.6021ZM-347.168 71.7162C-347.333 69.0503 -347.431 65.3256 -347.554 60.6164L-349.228 60.6602C-349.105 65.3558 -349.007 69.1166 -348.839 71.8198L-347.168 71.7162ZM-347.554 60.6164L-348.019 42.8625L-349.693 42.9063L-349.228 60.6602L-347.554 60.6164ZM-349.56 43.3379L-329.84 73.9362L-328.433 73.0292L-348.152 42.4309L-349.56 43.3379ZM-329.85 73.9199C-329.109 75.131 -328.548 76.164 -328.159 77.0232C-327.766 77.8931 -327.571 78.5377 -327.522 78.9839L-325.858 78.8012C-325.935 78.0982 -326.211 77.2667 -326.633 76.3333C-327.06 75.3892 -327.659 74.2918 -328.423 73.0455L-329.85 73.9199ZM-327.522 78.9839C-327.481 79.3625 -327.565 79.618 -327.736 79.8306C-327.929 80.07 -328.291 80.3263 -328.928 80.5574L-328.357 82.1315C-327.567 81.8451 -326.89 81.45 -326.432 80.8801C-325.951 80.2833 -325.773 79.5716 -325.858 78.8012L-327.522 78.9839ZM-329.479 81.3664L-329.474 81.5583L-327.801 81.5145L-327.806 81.3226L-329.479 81.3664ZM-328.616 82.3733L-311.629 81.9285L-311.673 80.2547L-328.659 80.6995L-328.616 82.3733ZM-310.814 81.0697L-310.819 80.8778L-312.493 80.9216L-312.488 81.1135L-310.814 81.0697ZM-311.302 80.1413C-311.86 79.8801 -312.25 79.6504 -312.545 79.3704L-313.697 80.585C-313.204 81.0526 -312.619 81.3736 -312.011 81.658L-311.302 80.1413ZM-312.545 79.3704C-312.94 78.9956 -313.406 78.552 -313.873 78.0207L-315.131 79.126C-314.608 79.7212 -314.09 80.2122 -313.697 80.585L-312.545 79.3704ZM-313.873 78.0207C-314.336 77.4944 -314.802 76.8775 -315.276 76.0742L-316.718 76.9254C-316.187 77.8243 -315.659 78.5258 -315.131 79.126L-313.873 78.0207ZM-315.276 76.0742C-315.776 75.2272 -316.378 74.1901 -317.081 72.962L-318.534 73.7942C-317.828 75.0261 -317.223 76.0701 -316.718 76.9254L-315.276 76.0742ZM-317.099 72.9321L-340.947 35.0474L-342.364 35.9394L-318.516 73.8241L-317.099 72.9321ZM-341.024 36.0436L-324.056 16.5848L-325.318 15.4843L-342.286 34.9431L-341.024 36.0436ZM-324.056 16.5851C-321.924 14.1424 -320.276 12.5068 -319.108 11.5585L-320.163 10.2585C-321.44 11.295 -323.161 13.0127 -325.318 15.484L-324.056 16.5851ZM-319.108 11.5585C-317.912 10.5881 -317.029 10.0348 -316.454 9.7704L-317.154 8.24916C-317.907 8.59575 -318.914 9.24435 -320.163 10.2585L-319.108 11.5585ZM-315.967 8.98786L-315.972 8.79593L-317.646 8.83976L-317.641 9.03169L-315.967 8.98786ZM-316.831 7.98092L-326.044 8.22217L-326 9.89601L-316.787 9.65477L-316.831 7.98092ZM-326.859 9.08101L-326.854 9.27294L-325.18 9.22911L-325.185 9.03718L-326.859 9.08101ZM-326.236 10.0589C-325.334 10.3041 -324.665 10.63 -324.288 10.9161L-323.276 9.58165C-323.879 9.12512 -324.765 8.72353 -325.797 8.4431L-326.236 10.0589ZM-324.288 10.9161C-324.076 11.0767 -323.944 11.3326 -323.995 11.7686L-322.332 11.9619C-322.226 11.0493 -322.508 10.1636 -323.276 9.58165L-324.288 10.9161ZM-323.995 11.7686C-324.052 12.2591 -324.337 13.0052 -324.948 13.9285L-323.551 14.8525C-322.869 13.8214 -322.432 12.8199 -322.332 11.9619L-323.995 11.7686ZM-324.948 13.9285C-325.562 14.8574 -326.555 16.0985 -327.852 17.5627L-326.598 18.6727C-325.283 17.1875 -324.23 15.8782 -323.551 14.8525L-324.948 13.9285ZM-327.856 17.5672L-349.3 42.1369L-348.039 43.238L-326.594 18.6682L-327.856 17.5672ZM-347.832 42.6655L-348.136 31.0535L-349.81 31.0974L-349.506 42.7094L-347.832 42.6655ZM-348.136 31.0535C-348.26 26.3443 -348.357 22.6197 -348.332 19.9487L-350.006 19.9328C-350.032 22.641 -349.933 26.4018 -349.81 31.0974L-348.136 31.0535ZM-348.332 19.9487C-348.306 17.2711 -348.167 15.3103 -347.929 14.0337L-349.574 13.7258C-349.841 15.1513 -349.98 17.2312 -350.006 19.9328L-348.332 19.9487ZM-347.929 14.0337C-347.682 12.7145 -347.361 12.0867 -347.022 11.7889L-348.127 10.5311C-348.914 11.2231 -349.316 12.3428 -349.574 13.7258L-347.929 14.0337ZM-347.022 11.7889C-346.572 11.3937 -345.931 11.0384 -344.964 10.7472L-345.447 9.14389C-346.576 9.48384 -347.45 9.93649 -348.127 10.5311L-347.022 11.7889ZM-344.368 9.92364L-344.376 9.63574L-346.05 9.67957L-346.042 9.96747L-344.368 9.92364ZM-345.235 8.82073L-363.181 9.29066L-363.137 10.9645L-345.191 10.4946L-345.235 8.82073ZM-363.996 10.1495L-363.988 10.4374L-362.314 10.3936L-362.322 10.1057L-363.996 10.1495ZM-363.371 11.2234C-362.478 11.466 -361.812 11.7883 -361.337 12.1637L-360.299 10.8498C-361 10.2958 -361.89 9.89051 -362.932 9.60756L-363.371 11.2234ZM-361.337 12.1637C-361.182 12.2858 -361.002 12.513 -360.816 12.9098C-360.633 13.3025 -360.466 13.8149 -360.311 14.4539L-358.683 14.0604C-358.852 13.3635 -359.051 12.733 -359.3 12.2007C-359.546 11.6725 -359.865 11.1925 -360.299 10.8498L-361.337 12.1637ZM-360.311 14.4539C-360.006 15.7164 -359.764 17.6671 -359.599 20.3398L-357.928 20.2362C-358.095 17.5397 -358.343 15.4699 -358.683 14.0604L-360.311 14.4539ZM-359.599 20.3398C-359.434 23.0058 -359.336 26.7304 -359.213 31.4396L-357.539 31.3958C-357.662 26.7002 -357.76 22.9394 -357.928 20.2362L-359.599 20.3398ZM-359.213 31.4396L-358.444 60.8055L-356.77 60.7617L-357.539 31.3958L-359.213 31.4396ZM-358.444 60.8055C-358.32 65.5147 -358.223 69.2394 -358.248 71.9103L-356.574 71.9263C-356.548 69.2181 -356.647 65.4573 -356.77 60.7617L-358.444 60.8055ZM-358.248 71.9103C-358.274 74.588 -358.413 76.5487 -358.652 77.8254L-357.006 78.1332C-356.739 76.7078 -356.6 74.6278 -356.574 71.9263L-358.248 71.9103ZM-358.652 77.8254C-358.892 79.1106 -359.299 79.8584 -359.652 80.1686L-358.547 81.4265C-357.773 80.7469 -357.271 79.5502 -357.006 78.1332L-358.652 77.8254ZM-359.652 80.1686C-360.107 80.5685 -360.755 80.9251 -361.634 81.2141L-361.111 82.8048C-360.086 82.4677 -359.218 82.0165 -358.547 81.4265L-359.652 80.1686ZM-361.394 81.1725L-361.49 81.1751L-361.446 82.8489L-361.35 82.8464L-361.394 81.1725ZM-293.898 80.2426L-293.061 80.2207L-294.656 79.8879L-293.898 80.2426ZM-293.89 80.5305L-294.727 80.5524L-294.705 81.3893L-293.868 81.3674L-293.89 80.5305ZM-254.473 78.538L-253.648 78.6806L-253.645 78.6629L-253.643 78.6451L-254.473 78.538ZM-252.956 66.7822L-252.126 66.8894L-252.001 65.9197L-252.978 65.9453L-252.956 66.7822ZM-253.244 66.7898L-253.266 65.9529L-253.891 65.9692L-254.053 66.573L-253.244 66.7898ZM-255.669 73.1915L-254.937 73.5969L-254.937 73.5969L-255.669 73.1915ZM-259.026 77.0246L-258.555 77.7168L-259.026 77.0246ZM-263.587 78.8727L-263.746 78.0507L-263.587 78.8727ZM-280.177 79.7872L-281.014 79.8092L-280.992 80.6461L-280.155 80.6242L-280.177 79.7872ZM-281.272 12.3048L-282.095 12.1509L-282.095 12.1509L-281.272 12.3048ZM-277.726 8.37061L-277.484 9.17227L-276.872 8.98793L-276.889 8.34869L-277.726 8.37061ZM-277.733 8.0827L-276.896 8.06079L-276.918 7.22386L-277.755 7.24578L-277.733 8.0827ZM-295.775 8.55514L-295.797 7.71822L-296.634 7.74014L-296.612 8.57706L-295.775 8.55514ZM-295.767 8.84305L-296.604 8.86496L-296.588 9.48766L-295.987 9.65097L-295.767 8.84305ZM-291.379 18.7156L-290.544 18.6638L-291.379 18.7156ZM-290.027 70.3459L-289.19 70.3538L-290.027 70.3459ZM-290.445 76.4069L-291.268 76.2529L-290.445 76.4069ZM-291.716 79.2251L-292.268 78.5962L-291.716 79.2251ZM-293.989 80.437L-294.747 80.0823L-295.568 81.8375L-293.727 81.2324L-293.989 80.437ZM-294.735 80.2645L-294.727 80.5524L-293.053 80.5086L-293.061 80.2207L-294.735 80.2645ZM-293.868 81.3674L-255.481 80.3622L-255.525 78.6884L-293.912 79.6936L-293.868 81.3674ZM-255.481 80.3622C-255.311 80.3577 -254.924 80.3598 -254.536 80.153L-255.324 78.6755C-255.316 78.6714 -255.316 78.6742 -255.341 78.678C-255.356 78.6802 -255.376 78.6824 -255.407 78.6842C-255.44 78.6861 -255.475 78.687 -255.525 78.6884L-255.481 80.3622ZM-254.536 80.153C-254 79.8672 -253.746 79.2466 -253.648 78.6806L-255.298 78.3953C-255.327 78.5662 -255.369 78.6679 -255.396 78.7163C-255.409 78.7398 -255.414 78.7438 -255.407 78.736C-255.4 78.7285 -255.374 78.7022 -255.324 78.6755L-254.536 80.153ZM-253.643 78.6451L-252.126 66.8894L-253.786 66.6751L-255.303 78.4308L-253.643 78.6451ZM-252.978 65.9453L-253.266 65.9529L-253.222 67.6267L-252.934 67.6192L-252.978 65.9453ZM-254.053 66.573C-254.742 69.144 -255.528 71.2084 -256.402 72.786L-254.937 73.5969C-253.976 71.8614 -253.146 69.658 -252.435 67.0065L-254.053 66.573ZM-256.402 72.786C-257.267 74.349 -258.303 75.5198 -259.497 76.3325L-258.555 77.7168C-257.107 76.7317 -255.905 75.3471 -254.937 73.5969L-256.402 72.786ZM-259.497 76.3325C-260.715 77.1614 -262.127 77.7371 -263.746 78.0507L-263.428 79.6946C-261.607 79.3419 -259.979 78.6856 -258.555 77.7168L-259.497 76.3325ZM-263.746 78.0507C-265.422 78.3752 -267.386 78.6148 -269.642 78.6739L-269.599 80.3477C-267.249 80.2862 -265.192 80.0364 -263.428 79.6946L-263.746 78.0507ZM-269.642 78.6739L-280.199 78.9503L-280.155 80.6242L-269.599 80.3477L-269.642 78.6739ZM-279.34 79.7653L-280.657 29.4786L-282.331 29.5224L-281.014 79.8092L-279.34 79.7653ZM-280.657 29.4786C-280.78 24.7694 -280.878 21.0447 -280.852 18.3738L-282.526 18.3578C-282.552 21.066 -282.454 24.8268 -282.331 29.5224L-280.657 29.4786ZM-280.852 18.3738C-280.827 15.6961 -280.688 13.7354 -280.449 12.4587L-282.095 12.1509C-282.361 13.5763 -282.501 15.6563 -282.526 18.3578L-280.852 18.3738ZM-280.449 12.4587C-280.202 11.1396 -279.881 10.5118 -279.542 10.2139L-280.647 8.95613C-281.435 9.64811 -281.836 10.7678 -282.095 12.1509L-280.449 12.4587ZM-279.542 10.2139C-279.092 9.8187 -278.451 9.46341 -277.484 9.17227L-277.967 7.56894C-279.096 7.90889 -279.971 8.36154 -280.647 8.95613L-279.542 10.2139ZM-276.889 8.34869L-276.896 8.06079L-278.57 8.10462L-278.562 8.39252L-276.889 8.34869ZM-277.755 7.24578L-295.797 7.71822L-295.753 9.39207L-277.711 8.91962L-277.755 7.24578ZM-296.612 8.57706L-296.604 8.86496L-294.93 8.82113L-294.938 8.53323L-296.612 8.57706ZM-295.987 9.65097C-295.094 9.89357 -294.428 10.2159 -293.953 10.5913L-292.915 9.27737C-293.616 8.72332 -294.506 8.31807 -295.548 8.03512L-295.987 9.65097ZM-293.953 10.5913C-293.798 10.7134 -293.618 10.9406 -293.433 11.3373C-293.249 11.7301 -293.082 12.2424 -292.927 12.8815L-291.3 12.4879C-291.468 11.791 -291.667 11.1606 -291.916 10.6283C-292.163 10.1001 -292.481 9.62003 -292.915 9.27737L-293.953 10.5913ZM-292.927 12.8815C-292.622 14.1439 -292.381 16.0947 -292.215 18.7673L-290.544 18.6638C-290.711 15.9673 -290.959 13.8975 -291.3 12.4879L-292.927 12.8815ZM-292.215 18.7673C-292.05 21.4333 -291.952 25.1579 -291.829 29.8672L-290.155 29.8233C-290.278 25.1278 -290.376 21.367 -290.544 18.6638L-292.215 18.7673ZM-291.829 29.8672L-291.06 59.2331L-289.386 59.1893L-290.155 29.8233L-291.829 29.8672ZM-291.06 59.2331C-290.937 63.9423 -290.839 67.6669 -290.865 70.3379L-289.19 70.3538C-289.165 67.6456 -289.263 63.8848 -289.386 59.1893L-291.06 59.2331ZM-290.865 70.3379C-290.89 73.0155 -291.029 74.9763 -291.268 76.2529L-289.622 76.5608C-289.355 75.1353 -289.216 73.0554 -289.19 70.3538L-290.865 70.3379ZM-291.268 76.2529C-291.508 77.5382 -291.915 78.286 -292.268 78.5962L-291.163 79.854C-290.39 79.1744 -289.887 77.9777 -289.622 76.5608L-291.268 76.2529ZM-292.268 78.5962C-292.723 78.996 -293.371 79.3527 -294.25 79.6417L-293.727 81.2324C-292.702 80.8953 -291.834 80.444 -291.163 79.854L-292.268 78.5962ZM-293.23 80.7917L-293.139 80.5973L-294.656 79.8879L-294.747 80.0823L-293.23 80.7917ZM-250.788 79.1137L-249.951 79.0918L-251.546 78.759L-250.788 79.1137ZM-250.78 79.4016L-251.617 79.4235L-251.595 80.2604L-250.758 80.2385L-250.78 79.4016ZM-232.834 78.9317L-232.812 79.7686L-231.975 79.7467L-231.997 78.9098L-232.834 78.9317ZM-232.842 78.6438L-232.005 78.6218L-232.021 77.9826L-232.643 77.8306L-232.842 78.6438ZM-235.271 77.555L-235.79 78.212L-235.271 77.555ZM-236.589 74.9006L-235.775 74.7038L-236.589 74.9006ZM-237.323 68.8697L-238.159 68.9215L-237.323 68.8697ZM-238.675 17.2394L-239.512 17.2315L-238.675 17.2394ZM-238.258 11.1784L-237.435 11.3323L-237.435 11.3323L-238.258 11.1784ZM-234.711 7.24424L-234.47 8.0459L-233.858 7.86156L-233.874 7.22232L-234.711 7.24424ZM-234.719 6.95633L-233.882 6.93442L-233.904 6.0975L-234.741 6.11941L-234.719 6.95633ZM-252.665 7.42626L-252.687 6.58934L-253.524 6.61126L-253.502 7.44818L-252.665 7.42626ZM-252.657 7.71417L-253.494 7.73608L-253.478 8.35878L-252.877 8.52209L-252.657 7.71417ZM-248.269 17.5867L-247.434 17.5349L-248.269 17.5867ZM-246.917 69.217L-246.08 69.225L-246.917 69.217ZM-247.335 75.278L-248.158 75.1241L-247.335 75.278ZM-248.605 78.0962L-249.158 77.4673L-248.605 78.0962ZM-250.878 79.3081L-251.637 78.9535L-252.458 80.7086L-250.617 80.1035L-250.878 79.3081ZM-251.624 79.1356L-251.617 79.4235L-249.943 79.3797L-249.951 79.0918L-251.624 79.1356ZM-250.758 80.2385L-232.812 79.7686L-232.856 78.0947L-250.802 78.5647L-250.758 80.2385ZM-231.997 78.9098L-232.005 78.6218L-233.679 78.6657L-233.671 78.9536L-231.997 78.9098ZM-232.643 77.8306C-233.624 77.5904 -234.282 77.2692 -234.752 76.898L-235.79 78.212C-235.083 78.7703 -234.186 79.1766 -233.041 79.457L-232.643 77.8306ZM-234.752 76.898C-235.106 76.6183 -235.46 76.0082 -235.775 74.7038L-237.403 75.0974C-237.072 76.465 -236.613 77.5621 -235.79 78.212L-234.752 76.898ZM-235.775 74.7038C-236.08 73.4414 -236.322 71.4906 -236.487 68.818L-238.159 68.9215C-237.992 71.618 -237.744 73.6878 -237.403 75.0974L-235.775 74.7038ZM-236.487 68.818C-236.653 66.152 -236.75 62.4273 -236.874 57.7181L-238.547 57.762C-238.424 62.4575 -238.326 66.2183 -238.159 68.9215L-236.487 68.818ZM-236.874 57.7181L-237.643 28.3522L-239.316 28.396L-238.547 57.762L-236.874 57.7181ZM-237.643 28.3522C-237.766 23.643 -237.863 19.9184 -237.838 17.2474L-239.512 17.2315C-239.538 19.9397 -239.439 23.7005 -239.316 28.396L-237.643 28.3522ZM-237.838 17.2474C-237.812 14.5697 -237.673 12.609 -237.435 11.3323L-239.08 11.0245C-239.347 12.45 -239.486 14.5299 -239.512 17.2315L-237.838 17.2474ZM-237.435 11.3323C-237.188 10.0132 -236.867 9.38542 -236.528 9.08758L-237.633 7.82976C-238.42 8.52174 -238.822 9.64146 -239.08 11.0245L-237.435 11.3323ZM-236.528 9.08758C-236.078 8.69234 -235.437 8.33705 -234.47 8.0459L-234.953 6.44257C-236.082 6.78252 -236.956 7.23518 -237.633 7.82976L-236.528 9.08758ZM-233.874 7.22232L-233.882 6.93442L-235.556 6.97825L-235.548 7.26615L-233.874 7.22232ZM-234.741 6.11941L-252.687 6.58934L-252.643 8.26319L-234.697 7.79326L-234.741 6.11941ZM-253.502 7.44818L-253.494 7.73608L-251.82 7.69225L-251.828 7.40435L-253.502 7.44818ZM-252.877 8.52209C-251.984 8.76469 -251.318 9.08697 -250.843 9.46243L-249.805 8.14849C-250.506 7.59444 -251.396 7.18919 -252.438 6.90624L-252.877 8.52209ZM-250.843 9.46243C-250.688 9.58453 -250.508 9.8117 -250.323 10.2084C-250.139 10.6012 -249.972 11.1135 -249.817 11.7526L-248.19 11.359C-248.358 10.6621 -248.557 10.0317 -248.806 9.49942C-249.053 8.97117 -249.371 8.49115 -249.805 8.14849L-250.843 9.46243ZM-249.817 11.7526C-249.512 13.0151 -249.27 14.9658 -249.105 17.6385L-247.434 17.5349C-247.601 14.8384 -247.849 12.7686 -248.19 11.359L-249.817 11.7526ZM-249.105 17.6385C-248.94 20.3044 -248.842 24.0291 -248.719 28.7383L-247.045 28.6944C-247.168 23.9989 -247.266 20.2381 -247.434 17.5349L-249.105 17.6385ZM-248.719 28.7383L-247.95 58.1042L-246.276 58.0604L-247.045 28.6944L-248.719 28.7383ZM-247.95 58.1042C-247.826 62.8134 -247.729 66.5381 -247.754 69.209L-246.08 69.225C-246.054 66.5167 -246.153 62.7559 -246.276 58.0604L-247.95 58.1042ZM-247.754 69.209C-247.78 71.8867 -247.919 73.8474 -248.158 75.1241L-246.512 75.4319C-246.245 74.0064 -246.106 71.9265 -246.08 69.225L-247.754 69.209ZM-248.158 75.1241C-248.398 76.4093 -248.805 77.1571 -249.158 77.4673L-248.053 78.7251C-247.279 78.0455 -246.777 76.8488 -246.512 75.4319L-248.158 75.1241ZM-249.158 77.4673C-249.613 77.8671 -250.261 78.2238 -251.14 78.5128L-250.617 80.1035C-249.592 79.7664 -248.724 79.3151 -248.053 78.7251L-249.158 77.4673ZM-250.12 79.6628L-250.029 79.4684L-251.546 78.759L-251.637 78.9535L-250.12 79.6628ZM-230.537 78.8715L-231.374 78.8934L-231.352 79.7304L-230.515 79.7084L-230.537 78.8715ZM-221.612 78.6378L-221.59 79.4747L-220.753 79.4528L-220.775 78.6159L-221.612 78.6378ZM-221.619 78.3499L-220.783 78.328L-220.798 77.7418L-221.354 77.5559L-221.619 78.3499ZM-224.054 77.0692L-223.535 76.4122L-224.054 77.0692ZM-225.374 74.3188L-224.561 74.122L-225.374 74.3188ZM-226.106 68.3839L-225.27 68.3311L-226.106 68.3839ZM-227.76 8.88683L-227.033 8.47164L-228.597 8.90875L-227.76 8.88683ZM-188.205 78.1472L-188.932 78.5623L-188.684 78.9972L-188.183 78.9841L-188.205 78.1472ZM-186.862 78.112L-186.84 78.9489L-186.003 78.927L-186.025 78.0901L-186.862 78.112ZM-188.384 16.3066L-187.547 16.3157L-188.384 16.3066ZM-187.964 10.3416L-187.141 10.4955L-187.141 10.4955L-187.964 10.3416ZM-186.79 7.52589L-186.237 8.1548L-186.237 8.1548L-186.79 7.52589ZM-184.521 6.12203L-184.19 6.89096L-183.67 6.66674L-183.685 6.10012L-184.521 6.12203ZM-184.529 5.83414L-183.692 5.81222L-183.714 4.9753L-184.551 4.99721L-184.529 5.83414ZM-193.454 6.06784L-193.476 5.23092L-194.313 5.25284L-194.291 6.08976L-193.454 6.06784ZM-193.446 6.35574L-194.283 6.37766L-194.268 6.96386L-193.712 7.14977L-193.446 6.35574ZM-191.012 7.63646L-191.531 8.29343L-191.531 8.29343L-191.012 7.63646ZM-189.692 10.3868L-188.878 10.19L-188.878 10.19L-189.692 10.3868ZM-188.96 16.3217L-189.796 16.3746L-188.96 16.3217ZM-187.741 59.2165L-188.467 59.6337L-186.904 59.1946L-187.741 59.2165ZM-216.618 8.9792L-215.892 8.56197L-215.893 8.55919L-216.618 8.9792ZM-218.014 6.99907L-217.438 6.39178L-217.438 6.39177L-218.014 6.99907ZM-232.323 6.98964L-232.345 6.15271L-233.182 6.17463L-233.16 7.01155L-232.323 6.98964ZM-232.316 7.27754L-233.153 7.29945L-233.136 7.92215L-232.535 8.08546L-232.316 7.27754ZM-229.982 8.36883L-230.501 9.0258L-229.982 8.36883ZM-228.662 11.1192L-229.476 11.316L-228.662 11.1192ZM-227.928 17.1501L-228.763 17.2018L-227.928 17.1501ZM-226.583 68.4925L-227.42 68.4834L-226.583 68.4925ZM-227.003 74.4575L-227.826 74.3036L-227.003 74.4575ZM-228.274 77.2757L-227.721 77.9046L-228.274 77.2757ZM-230.542 78.6796L-231.379 78.7015L-231.346 79.9377L-230.211 79.4485L-230.542 78.6796ZM-231.381 78.6055L-231.374 78.8934L-229.7 78.8496L-229.708 78.5617L-231.381 78.6055ZM-230.515 79.7084L-221.59 79.4747L-221.634 77.8009L-230.559 78.0346L-230.515 79.7084ZM-220.775 78.6159L-220.783 78.328L-222.456 78.3718L-222.449 78.6597L-220.775 78.6159ZM-221.354 77.5559C-222.327 77.2306 -223.022 76.8174 -223.535 76.4122L-224.573 77.7262C-223.909 78.2505 -223.043 78.7568 -221.885 79.1439L-221.354 77.5559ZM-223.535 76.4122C-223.689 76.2901 -223.87 76.063 -224.055 75.6662C-224.239 75.2735 -224.406 74.7611 -224.561 74.122L-226.188 74.5156C-226.02 75.2125 -225.821 75.843 -225.572 76.3752C-225.325 76.9035 -225.007 77.3835 -224.573 77.7262L-223.535 76.4122ZM-224.561 74.122C-224.866 72.8588 -225.107 70.9074 -225.27 68.3311L-226.941 68.4368C-226.777 71.0376 -226.529 73.1068 -226.188 74.5156L-224.561 74.122ZM-225.27 68.3311C-225.433 65.7618 -225.528 62.1339 -225.649 57.5202L-227.323 57.5641C-227.202 62.1633 -227.106 65.8289 -226.941 68.4368L-225.27 68.3311ZM-225.649 57.5202L-226.923 8.86492L-228.597 8.90875L-227.323 57.5641L-225.649 57.5202ZM-228.487 9.30203L-188.932 78.5623L-187.478 77.732L-227.033 8.47164L-228.487 9.30203ZM-188.183 78.9841L-186.84 78.9489L-186.884 77.2751L-188.227 77.3102L-188.183 78.9841ZM-186.025 78.0901L-187.359 27.1315L-189.033 27.1754L-187.699 78.1339L-186.025 78.0901ZM-187.359 27.1315C-187.48 22.5179 -187.575 18.89 -187.547 16.3157L-189.221 16.2976C-189.25 18.9105 -189.154 22.5761 -189.033 27.1754L-187.359 27.1315ZM-187.547 16.3157C-187.519 13.7343 -187.38 11.773 -187.141 10.4955L-188.787 10.1877C-189.054 11.6124 -189.193 13.6917 -189.221 16.2976L-187.547 16.3157ZM-187.141 10.4955C-187.02 9.84923 -186.88 9.32883 -186.717 8.92702C-186.553 8.52111 -186.385 8.28483 -186.237 8.1548L-187.342 6.89698C-187.757 7.26187 -188.05 7.7579 -188.269 8.29835C-188.49 8.8429 -188.655 9.4829 -188.787 10.1877L-187.141 10.4955ZM-186.237 8.1548C-185.741 7.71923 -185.061 7.26601 -184.19 6.89096L-184.853 5.35311C-185.881 5.79605 -186.711 6.34271 -187.342 6.89698L-186.237 8.1548ZM-183.685 6.10012L-183.692 5.81222L-185.366 5.85605L-185.358 6.14395L-183.685 6.10012ZM-184.551 4.99721L-193.476 5.23092L-193.432 6.90477L-184.507 6.67106L-184.551 4.99721ZM-194.291 6.08976L-194.283 6.37766L-192.61 6.33383L-192.617 6.04593L-194.291 6.08976ZM-193.712 7.14977C-192.739 7.47507 -192.044 7.88821 -191.531 8.29343L-190.493 6.97949C-191.157 6.45519 -192.023 5.94886 -193.181 5.56172L-193.712 7.14977ZM-191.531 8.29343C-191.376 8.41554 -191.196 8.6427 -191.011 9.03945C-190.827 9.43219 -190.66 9.94454 -190.505 10.5836L-188.878 10.19C-189.046 9.49314 -189.245 8.86268 -189.494 8.33042C-189.741 7.80217 -190.059 7.32215 -190.493 6.97949L-191.531 8.29343ZM-190.505 10.5836C-190.2 11.8468 -189.959 13.7982 -189.796 16.3746L-188.124 16.2688C-188.289 13.668 -188.537 11.5989 -188.878 10.19L-190.505 10.5836ZM-189.796 16.3746C-189.633 18.9439 -189.538 22.5718 -189.417 27.1854L-187.743 27.1416C-187.864 22.5424 -187.959 18.8767 -188.124 16.2688L-189.796 16.3746ZM-189.417 27.1854L-188.578 59.2384L-186.904 59.1946L-187.743 27.1416L-189.417 27.1854ZM-187.015 58.7993L-215.892 8.56197L-217.344 9.39642L-188.467 59.6337L-187.015 58.7993ZM-215.893 8.55919C-216.507 7.50171 -217.053 6.75727 -217.438 6.39178L-218.59 7.60636C-218.385 7.80159 -217.936 8.37556 -217.342 9.3992L-215.893 8.55919ZM-217.438 6.39177C-218 5.85803 -218.801 5.79806 -219.485 5.81597L-219.442 7.48982C-218.782 7.47256 -218.619 7.57939 -218.59 7.60636L-217.438 6.39177ZM-219.485 5.81597L-232.345 6.15271L-232.301 7.82656L-219.442 7.48982L-219.485 5.81597ZM-233.16 7.01155L-233.153 7.29945L-231.479 7.25562L-231.486 6.96772L-233.16 7.01155ZM-232.535 8.08546C-231.642 8.32806 -230.977 8.65034 -230.501 9.0258L-229.463 7.71186C-230.165 7.15781 -231.055 6.75256 -232.096 6.46961L-232.535 8.08546ZM-230.501 9.0258C-230.347 9.1479 -230.166 9.37507 -229.981 9.77182C-229.797 10.1646 -229.63 10.6769 -229.476 11.316L-227.848 10.9224C-228.017 10.2255 -228.215 9.59505 -228.464 9.06279C-228.711 8.53454 -229.03 8.05452 -229.463 7.71186L-230.501 9.0258ZM-229.476 11.316C-229.17 12.5784 -228.929 14.5292 -228.763 17.2018L-227.092 17.0983C-227.259 14.4018 -227.507 12.332 -227.848 10.9224L-229.476 11.316ZM-228.763 17.2018C-228.598 19.8678 -228.5 23.5924 -228.377 28.3016L-226.703 28.2578C-226.826 23.5622 -226.925 19.8014 -227.092 17.0983L-228.763 17.2018ZM-228.377 28.3016L-227.608 57.6676L-225.934 57.6237L-226.703 28.2578L-228.377 28.3016ZM-227.608 57.6676C-227.487 62.2812 -227.392 65.9091 -227.42 68.4834L-225.746 68.5015C-225.718 65.8886 -225.814 62.223 -225.934 57.6237L-227.608 57.6676ZM-227.42 68.4834C-227.448 71.0648 -227.587 73.0261 -227.826 74.3036L-226.18 74.6114C-225.914 73.1867 -225.774 71.1074 -225.746 68.5015L-227.42 68.4834ZM-227.826 74.3036C-228.067 75.5888 -228.473 76.3366 -228.827 76.6468L-227.721 77.9046C-226.948 77.225 -226.445 76.0283 -226.18 74.6114L-227.826 74.3036ZM-228.827 76.6468C-229.322 77.0824 -230.002 77.5356 -230.873 77.9107L-230.211 79.4485C-229.182 79.0056 -228.352 78.4589 -227.721 77.9046L-228.827 76.6468ZM-229.705 78.6577L-229.708 78.5617L-231.381 78.6055L-231.379 78.7015L-229.705 78.6577ZM-152.25 77.5898L-152.272 76.7529L-152.541 76.7599L-152.755 76.9215L-152.25 77.5898ZM-145.366 76.4492L-145.641 75.6583L-145.366 76.4492ZM-132.462 66.7961L-131.754 67.2421L-131.619 67.0276L-131.625 66.7742L-132.462 66.7961ZM-132.748 52.2066L-131.911 52.2265L-131.911 52.2265L-132.748 52.2066ZM-132.285 47.873L-131.478 48.0925L-131.478 48.0925L-132.285 47.873ZM-130.995 45.8225L-130.512 46.5067L-130.995 45.8225ZM-128.621 44.8L-128.379 45.6016L-127.767 45.4173L-127.784 44.7781L-128.621 44.8ZM-128.628 44.5121L-127.791 44.4902L-127.813 43.6532L-128.65 43.6752L-128.628 44.5121ZM-146.382 44.977L-146.404 44.1401L-147.241 44.162L-147.219 44.9989L-146.382 44.977ZM-146.375 45.2649L-147.211 45.2868L-147.195 45.9095L-146.594 46.0728L-146.375 45.2649ZM-144.046 46.1642L-144.492 46.8728L-144.046 46.1642ZM-142.65 48.1444L-143.445 48.4058L-142.65 48.1444ZM-141.969 52.1599L-142.803 52.2282L-142.803 52.2282L-141.969 52.1599ZM-141.928 68.3884L-141.096 68.4851L-141.928 68.3884ZM-143.522 73.5199L-142.806 73.954L-143.522 73.5199ZM-146.901 76.4894L-147.233 75.7204L-146.901 76.4894ZM-165.152 68.9965L-165.891 69.3904L-165.152 68.9965ZM-168.916 57.2831L-169.739 57.4369L-168.916 57.2831ZM-166.432 12.7548L-165.695 13.151L-166.432 12.7548ZM-161.113 6.85353L-160.693 7.57777L-160.693 7.57776L-161.113 6.85353ZM-148.468 5.65811L-148.699 6.46278L-148.468 5.65811ZM-143.501 8.31299L-142.969 7.66619L-142.969 7.66619L-143.501 8.31299ZM-139.63 13.1093L-140.361 13.5171L-139.63 13.1093ZM-137.138 20.2465L-137.959 20.4103L-137.821 21.1019L-137.116 21.0835L-137.138 20.2465ZM-136.85 20.239L-136.828 21.0759L-135.992 21.054L-136.013 20.2171L-136.85 20.239ZM-137.245 5.17215L-136.408 5.15024L-136.43 4.31331L-137.267 4.33523L-137.245 5.17215ZM-137.533 5.17969L-137.555 4.34277L-138.191 4.35943L-138.345 4.97681L-137.533 5.17969ZM-142.662 7.33071L-142.342 6.55702L-142.342 6.55701L-142.662 7.33071ZM-145.571 6.25449L-145.306 5.46046L-145.571 6.25449ZM-149.248 5.19837L-149.039 4.38763L-149.039 4.38763L-149.248 5.19837ZM-164.275 7.12839L-164.633 6.37152L-164.275 7.12839ZM-178.97 25.3753L-179.765 25.1113L-178.97 25.3753ZM-178.621 57.057L-177.819 56.8171L-178.621 57.057ZM-172.94 68.6243L-173.604 69.1343L-172.94 68.6243ZM-164.206 75.7901L-164.569 76.5444L-164.206 75.7901ZM-152.91 78.0872L-152.888 78.9241L-152.619 78.9171L-152.405 78.7555L-152.91 78.0872ZM-152.228 78.4267C-149.671 78.3597 -147.286 78.0021 -145.091 77.24L-145.641 75.6583C-147.633 76.3503 -149.84 76.6892 -152.272 76.7529L-152.228 78.4267ZM-145.091 77.24C-142.964 76.5013 -141.01 75.6619 -139.245 74.6202L-140.096 73.1782C-141.736 74.1463 -143.581 74.943 -145.641 75.6583L-145.091 77.24ZM-139.245 74.6202C-137.466 73.5701 -135.997 72.329 -134.737 71.0011L-135.951 69.8485C-137.121 71.081 -138.471 72.2185 -140.096 73.1782L-139.245 74.6202ZM-134.737 71.0011C-133.492 69.6894 -132.526 68.4695 -131.754 67.2421L-133.171 66.3501C-133.873 67.4661 -134.766 68.5996 -135.951 69.8485L-134.737 71.0011ZM-131.625 66.7742L-131.804 59.9605L-133.477 60.0043L-133.299 66.818L-131.625 66.7742ZM-131.804 59.9605C-131.889 56.6885 -131.956 54.1224 -131.911 52.2265L-133.585 52.1867C-133.631 54.1345 -133.563 56.7506 -133.477 60.0043L-131.804 59.9605ZM-131.911 52.2265C-131.866 50.3224 -131.713 48.9597 -131.478 48.0925L-133.093 47.6535C-133.383 48.7207 -133.539 50.247 -133.585 52.1867L-131.911 52.2265ZM-131.478 48.0925C-131.252 47.2638 -130.881 46.7669 -130.512 46.5067L-131.477 45.1383C-132.24 45.6759 -132.793 46.5477 -133.093 47.6535L-131.478 48.0925ZM-130.512 46.5067C-130.06 46.188 -129.406 45.9108 -128.379 45.6016L-128.862 43.9983C-129.931 44.3202 -130.798 44.6591 -131.477 45.1383L-130.512 46.5067ZM-127.784 44.7781L-127.791 44.4902L-129.465 44.534L-129.458 44.8219L-127.784 44.7781ZM-128.65 43.6752L-146.404 44.1401L-146.36 45.8139L-128.606 45.349L-128.65 43.6752ZM-147.219 44.9989L-147.211 45.2868L-145.538 45.243L-145.545 44.9551L-147.219 44.9989ZM-146.594 46.0728C-145.638 46.3326 -144.966 46.5747 -144.492 46.8728L-143.6 45.4557C-144.298 45.0162 -145.177 44.7227 -146.155 44.457L-146.594 46.0728ZM-144.492 46.8728C-144.11 47.1133 -143.713 47.5901 -143.445 48.4058L-141.855 47.8829C-142.212 46.7944 -142.811 45.9527 -143.6 45.4557L-144.492 46.8728ZM-143.445 48.4058C-143.162 49.2661 -142.942 50.5289 -142.803 52.2282L-141.134 52.0916C-141.277 50.3411 -141.511 48.9269 -141.855 47.8829L-143.445 48.4058ZM-142.803 52.2282C-142.664 53.9244 -142.604 56.1998 -142.526 59.1849L-140.852 59.1411C-140.93 56.1762 -140.991 53.8452 -141.134 52.0916L-142.803 52.2282ZM-142.526 59.1849L-142.481 60.9123L-140.807 60.8685L-140.852 59.1411L-142.526 59.1849ZM-142.481 60.9123C-142.404 63.852 -142.529 66.3123 -142.759 68.2917L-141.096 68.4851C-140.856 66.4188 -140.728 63.8788 -140.807 60.8685L-142.481 60.9123ZM-142.759 68.2917C-142.985 70.2323 -143.489 71.8503 -144.238 73.0858L-142.806 73.954C-141.898 72.4572 -141.341 70.5902 -141.096 68.4851L-142.759 68.2917ZM-144.238 73.0858C-144.979 74.3078 -145.973 75.178 -147.233 75.7204L-146.57 77.2583C-144.981 76.5737 -143.722 75.4643 -142.806 73.954L-144.238 73.0858ZM-147.233 75.7204C-148.522 76.2759 -150.316 76.6056 -152.563 76.6644L-152.519 78.3383C-150.159 78.2765 -148.129 77.9299 -146.57 77.2583L-147.233 75.7204ZM-152.563 76.6644C-154.897 76.7255 -157.051 76.1566 -159.052 74.8672L-159.959 76.2748C-157.663 77.7538 -155.175 78.4078 -152.519 78.3383L-152.563 76.6644ZM-159.052 74.8672C-161.051 73.5795 -162.845 71.543 -164.413 68.6027L-165.891 69.3904C-164.226 72.5116 -162.258 74.7941 -159.959 76.2748L-159.052 74.8672ZM-164.413 68.6027C-165.976 65.6712 -167.209 61.8555 -168.093 57.1292L-169.739 57.4369C-168.835 62.2672 -167.559 66.2604 -165.891 69.3904L-164.413 68.6027ZM-168.093 57.1292C-168.975 52.4077 -169.507 46.7064 -169.685 39.9213L-171.359 39.9651C-171.18 46.8072 -170.643 52.602 -169.739 57.4369L-168.093 57.1292ZM-169.685 39.9213C-169.855 33.4217 -169.614 28.0015 -168.879 23.6393L-170.53 23.3609C-171.291 27.873 -171.531 33.4131 -171.359 39.9651L-169.685 39.9213ZM-168.879 23.6393C-168.138 19.2469 -167.1 15.7657 -165.695 13.151L-167.17 12.3586C-168.696 15.1985 -169.774 18.8791 -170.53 23.3609L-168.879 23.6393ZM-165.695 13.151C-164.282 10.5218 -162.607 8.68745 -160.693 7.57777L-161.533 6.12929C-163.782 7.43338 -165.652 9.53324 -167.17 12.3586L-165.695 13.151ZM-160.693 7.57776C-158.738 6.44383 -156.587 5.84392 -154.227 5.78211L-154.271 4.10826C-156.9 4.17712 -159.326 4.84944 -161.533 6.12929L-160.693 7.57776ZM-154.227 5.78211C-152.292 5.73145 -150.451 5.95958 -148.699 6.46278L-148.237 4.85344C-150.162 4.30052 -152.174 4.05337 -154.271 4.10826L-154.227 5.78211ZM-148.699 6.46278C-146.982 6.95599 -145.426 7.81452 -144.032 8.9598L-142.969 7.66619C-144.52 6.3917 -146.277 5.41634 -148.237 4.85344L-148.699 6.46278ZM-144.032 8.9598C-142.655 10.0916 -141.428 11.6035 -140.361 13.5171L-138.899 12.7016C-140.048 10.6398 -141.402 8.95412 -142.969 7.66619L-144.032 8.9598ZM-140.361 13.5171C-139.304 15.4128 -138.499 17.7056 -137.959 20.4103L-136.317 20.0827C-136.883 17.2465 -137.739 14.7812 -138.899 12.7016L-140.361 13.5171ZM-137.116 21.0835L-136.828 21.0759L-136.872 19.4021L-137.16 19.4096L-137.116 21.0835ZM-136.013 20.2171L-136.408 5.15024L-138.082 5.19407L-137.687 20.2609L-136.013 20.2171ZM-137.267 4.33523L-137.555 4.34277L-137.511 6.01662L-137.223 6.00908L-137.267 4.33523ZM-138.345 4.97681C-138.542 5.76721 -138.813 6.27747 -139.093 6.58141C-139.354 6.86463 -139.641 6.99029 -139.982 6.99922L-139.938 8.67307C-139.128 8.65184 -138.418 8.31926 -137.862 7.71679C-137.326 7.13503 -136.958 6.33215 -136.721 5.38257L-138.345 4.97681ZM-139.982 6.99922C-140.82 7.02117 -141.573 6.87519 -142.342 6.55702L-142.982 8.10439C-142.004 8.50872 -141.019 8.70137 -139.938 8.67307L-139.982 6.99922ZM-142.342 6.55701C-143.237 6.18714 -144.225 5.82173 -145.306 5.46046L-145.837 7.04851C-144.786 7.3997 -143.835 7.75177 -142.982 8.1044L-142.342 6.55701ZM-145.306 5.46046C-146.399 5.09508 -147.679 4.73821 -149.039 4.38763L-149.457 6.00912C-148.111 6.35591 -146.875 6.70144 -145.837 7.04851L-145.306 5.46046ZM-149.039 4.38763C-150.495 4.0127 -152.312 3.8649 -154.372 3.91884L-154.328 5.59268C-152.357 5.54108 -150.709 5.68669 -149.457 6.00912L-149.039 4.38763ZM-154.372 3.91884C-157.844 4.00978 -161.3 4.79583 -164.633 6.37152L-163.917 7.88526C-160.799 6.41106 -157.573 5.67765 -154.328 5.59268L-154.372 3.91884ZM-164.633 6.37152C-167.977 7.95254 -170.99 10.3171 -173.576 13.4482L-172.285 14.5145C-169.845 11.5599 -167.024 9.35413 -163.917 7.88526L-164.633 6.37152ZM-173.576 13.4482C-176.168 16.5859 -178.226 20.4805 -179.765 25.1113L-178.176 25.6394C-176.688 21.1638 -174.72 17.4624 -172.285 14.5145L-173.576 13.4482ZM-179.765 25.1113C-181.318 29.7836 -181.949 35.2809 -181.784 41.5825L-180.11 41.5387C-180.272 35.3646 -179.65 30.0734 -178.176 25.6394L-179.765 25.1113ZM-181.784 41.5825C-181.632 47.4053 -180.815 52.6441 -179.423 57.297L-177.819 56.8171C-179.163 52.3224 -179.961 47.232 -180.11 41.5387L-181.784 41.5825ZM-179.423 57.297C-178.031 61.9509 -176.063 65.9335 -173.604 69.1343L-172.276 68.1143C-174.59 65.1019 -176.475 61.3106 -177.819 56.8171L-179.423 57.297ZM-173.604 69.1343C-171.142 72.3402 -168.096 74.8457 -164.569 76.5444L-163.842 75.0358C-167.123 73.4556 -169.966 71.1216 -172.276 68.1143L-173.604 69.1343ZM-164.569 76.5444C-161.034 78.2469 -157.135 79.0353 -152.888 78.9241L-152.931 77.2503C-156.938 77.3552 -160.569 76.6123 -163.842 75.0358L-164.569 76.5444ZM-152.405 78.7555L-151.746 78.2581L-152.755 76.9215L-153.414 77.4189L-152.405 78.7555ZM-126.143 75.8498L-125.306 75.8278L-125.336 74.6667L-126.428 75.0627L-126.143 75.8498ZM-126.135 76.1377L-126.972 76.1596L-126.95 76.9965L-126.113 76.9746L-126.135 76.1377ZM-84.5106 74.0874L-83.6856 74.23L-83.6796 74.195L-83.6765 74.1597L-84.5106 74.0874ZM-83.6253 63.8847L-82.7913 63.957L-82.7103 63.0232L-83.6473 63.0478L-83.6253 63.8847ZM-84.0092 63.8947L-84.0311 63.0578L-84.691 63.0751L-84.8282 63.7207L-84.0092 63.8947ZM-89.2431 73.0589L-89.6774 72.3431L-89.6774 72.3431L-89.2431 73.0589ZM-93.9078 74.6215L-93.7984 75.4516L-93.9078 74.6215ZM-112.518 75.3969L-113.355 75.4189L-113.333 76.2558L-112.496 76.2339L-112.518 75.3969ZM-113.536 36.5303L-113.558 35.6933L-114.395 35.7153L-114.373 36.5522L-113.536 36.5303ZM-100.997 38.6028L-101.618 39.1641L-100.997 38.6028ZM-99.6892 40.8733L-98.9022 40.5879L-98.9022 40.5878L-99.6892 40.8733ZM-98.9496 43.4468L-99.7619 43.6498L-99.5991 44.3013L-98.9277 44.2837L-98.9496 43.4468ZM-98.7577 43.4418L-98.7358 44.2787L-97.8988 44.2568L-97.9207 43.4199L-98.7577 43.4418ZM-99.1572 28.183L-98.3203 28.1611L-98.3422 27.3242L-99.1792 27.3461L-99.1572 28.183ZM-99.3492 28.188L-99.3711 27.3511L-100.042 27.3687L-100.171 28.0279L-99.3492 28.188ZM-99.9531 30.7968L-99.1522 31.0406L-99.1522 31.0406L-99.9531 30.7968ZM-101.14 33.1326L-101.79 32.6046L-101.79 32.6046L-101.14 33.1326ZM-103.59 34.9254L-103.224 35.6782L-103.59 34.9254ZM-113.553 35.8585L-114.39 35.8804L-114.368 36.7173L-113.531 36.6954L-113.553 35.8585ZM-114.39 3.90145L-114.412 3.06453L-115.249 3.08644L-115.227 3.92337L-114.39 3.90145ZM-97.6792 3.94403L-97.7952 4.77316L-97.7952 4.77317L-97.6792 3.94403ZM-93.2246 5.3639L-93.6445 6.08816L-93.6445 6.08816L-93.2246 5.3639ZM-89.9797 8.25595L-90.6554 8.75036L-90.6554 8.75036L-89.9797 8.25595ZM-87.7453 12.9031L-88.5406 13.1645L-88.3461 13.7563L-87.7234 13.74L-87.7453 12.9031ZM-87.3615 12.893L-87.3395 13.7299L-86.3387 13.7037L-86.5416 12.7234L-87.3615 12.893ZM-89.1206 4.39214L-89.946 4.53219L-89.9435 4.54704L-89.9404 4.56179L-89.1206 4.39214ZM-89.6306 3.2531L-89.9853 4.01146L-89.9853 4.01147L-89.6306 3.2531ZM-128.214 4.07138L-128.236 3.23446L-129.073 3.25638L-129.051 4.0933L-128.214 4.07138ZM-128.207 4.35929L-129.044 4.3812L-129.027 5.0039L-128.426 5.16721L-128.207 4.35929ZM-125.873 5.45058L-125.355 4.79361L-125.355 4.79361L-125.873 5.45058ZM-123.819 14.2318L-122.983 14.18L-123.819 14.2318ZM-122.467 65.8621L-121.63 65.8701L-122.467 65.8621ZM-122.884 71.9231L-122.061 72.077L-122.884 71.9231ZM-124.155 74.7413L-124.708 74.1124L-124.155 74.7413ZM-126.428 75.9533L-126.714 75.1662L-126.167 76.7486L-126.428 75.9533ZM-126.98 75.8717L-126.972 76.1596L-125.298 76.1157L-125.306 75.8278L-126.98 75.8717ZM-126.113 76.9746L-85.4232 75.9091L-85.4671 74.2352L-126.157 75.3007L-126.113 76.9746ZM-85.4232 75.9091C-85.2524 75.9046 -84.8659 75.9067 -84.4779 75.6999L-85.2657 74.2223C-85.258 74.2182 -85.2578 74.221 -85.2831 74.2249C-85.2975 74.2271 -85.3181 74.2293 -85.3493 74.2311C-85.382 74.2329 -85.4169 74.2339 -85.4671 74.2352L-85.4232 75.9091ZM-84.4779 75.6999C-84.1247 75.5115 -83.957 75.193 -83.8705 74.9689C-83.7824 74.7408 -83.7285 74.4778 -83.6856 74.23L-85.3356 73.9447C-85.3548 74.0561 -85.3726 74.1461 -85.3901 74.2195C-85.4078 74.2939 -85.4224 74.3396 -85.4324 74.3656C-85.4429 74.3926 -85.4418 74.381 -85.4202 74.3518C-85.3956 74.3186 -85.3462 74.2652 -85.2657 74.2223L-84.4779 75.6999ZM-83.6765 74.1597L-82.7913 63.957L-84.4594 63.8123L-85.3447 74.015L-83.6765 74.1597ZM-83.6473 63.0478L-84.0311 63.0578L-83.9873 64.7317L-83.6034 64.7216L-83.6473 63.0478ZM-84.8282 63.7207C-85.328 66.073 -86.0201 67.9278 -86.7946 69.2988L-85.3368 70.1224C-84.4593 68.5691 -83.7164 66.545 -83.1903 64.0687L-84.8282 63.7207ZM-86.7946 69.2988C-87.5562 70.6469 -88.4869 71.6208 -89.6774 72.3431L-88.8089 73.7747C-87.3525 72.8911 -86.2272 71.6985 -85.3368 70.1224L-86.7946 69.2988ZM-89.6774 72.3431C-90.8889 73.0781 -92.2981 73.5649 -94.0172 73.7915L-93.7984 75.4516C-91.8808 75.1988 -90.2443 74.6455 -88.8089 73.7747L-89.6774 72.3431ZM-94.0172 73.7915C-95.7979 74.0262 -97.9718 74.1785 -100.448 74.2434L-100.404 75.9172C-97.89 75.8514 -95.6544 75.6962 -93.7984 75.4516L-94.0172 73.7915ZM-100.448 74.2434L-112.54 74.56L-112.496 76.2339L-100.404 75.9172L-100.448 74.2434ZM-111.681 75.375L-112.699 36.5084L-114.373 36.5522L-113.355 75.4189L-111.681 75.375ZM-113.514 37.3672L-107.852 37.2189L-107.896 35.5451L-113.558 35.6933L-113.514 37.3672ZM-107.852 37.2189C-106.063 37.1721 -104.764 37.3305 -103.864 37.7117L-103.211 36.1697C-104.447 35.6465 -106.037 35.4964 -107.896 35.5451L-107.852 37.2189ZM-103.864 37.7117C-102.858 38.1375 -102.1 38.631 -101.618 39.1641L-100.376 38.0415C-101.081 37.2611 -102.081 36.6483 -103.211 36.1697L-103.864 37.7117ZM-101.618 39.1641C-101.117 39.7193 -100.761 40.3737 -100.476 41.1587L-98.9022 40.5878C-99.2385 39.6606 -99.6909 38.7996 -100.376 38.0415L-101.618 39.1641ZM-100.476 41.1587C-100.183 41.9678 -99.9779 42.785 -99.7619 43.6498L-98.1374 43.2439C-98.3504 42.3913 -98.5746 41.4911 -98.9022 40.5879L-100.476 41.1587ZM-98.9277 44.2837L-98.7358 44.2787L-98.7796 42.6049L-98.9715 42.6099L-98.9277 44.2837ZM-97.9207 43.4199L-98.3203 28.1611L-99.9942 28.2049L-99.5946 43.4637L-97.9207 43.4199ZM-99.1792 27.3461L-99.3711 27.3511L-99.3273 29.025L-99.1353 29.0199L-99.1792 27.3461ZM-100.171 28.0279C-100.341 28.9028 -100.503 29.7295 -100.754 30.5529L-99.1522 31.0406C-98.8723 30.1215 -98.6955 29.2107 -98.5274 28.3482L-100.171 28.0279ZM-100.754 30.5529C-100.997 31.3517 -101.318 32.0239 -101.79 32.6046L-100.491 33.6607C-99.8462 32.8677 -99.4395 31.9842 -99.1522 31.0406L-100.754 30.5529ZM-101.79 32.6046C-102.243 33.1621 -102.974 33.6947 -103.957 34.1725L-103.224 35.6782C-102.12 35.1411 -101.154 34.4769 -100.491 33.6607L-101.79 32.6046ZM-103.957 34.1725C-104.836 34.6003 -106.125 34.8265 -107.913 34.8733L-107.869 36.5472C-106.011 36.4985 -104.431 36.2654 -103.224 35.6782L-103.957 34.1725ZM-107.913 34.8733L-113.575 35.0216L-113.531 36.6954L-107.869 36.5472L-107.913 34.8733ZM-112.716 35.8366L-113.553 3.87954L-115.227 3.92337L-114.39 35.8804L-112.716 35.8366ZM-114.368 4.73837L-103.716 4.45943L-103.76 2.78559L-114.412 3.06453L-114.368 4.73837ZM-103.716 4.45943C-101.459 4.40034 -99.4851 4.5368 -97.7952 4.77316L-97.5633 3.11489C-99.3433 2.86592 -101.41 2.72405 -103.76 2.78559L-103.716 4.45943ZM-97.7952 4.77317C-96.1351 5.00536 -94.794 5.42163 -93.6445 6.08816L-92.8046 4.63964C-94.1905 3.83603 -95.7535 3.36802 -97.5633 3.11489L-97.7952 4.77317ZM-93.6445 6.08816C-92.4687 6.76999 -91.4778 7.6264 -90.6554 8.75036L-89.3041 7.76155C-90.2744 6.43559 -91.4451 5.42795 -92.8046 4.63964L-93.6445 6.08816ZM-90.6554 8.75036C-89.8284 9.88052 -89.1504 11.3099 -88.5406 13.1645L-86.95 12.6416C-87.5924 10.6877 -88.3383 9.0813 -89.3041 7.76155L-90.6554 8.75036ZM-87.7234 13.74L-87.3395 13.7299L-87.3834 12.0561L-87.7672 12.0661L-87.7234 13.74ZM-86.5416 12.7234L-88.3008 4.22248L-89.9404 4.56179L-88.1813 13.0627L-86.5416 12.7234ZM-88.2952 4.25208C-88.3602 3.86869 -88.4567 3.52861 -88.5873 3.25022C-88.7018 3.00595 -88.9084 2.66662 -89.2759 2.49473L-89.9853 4.01147C-90.0839 3.96531 -90.129 3.91016 -90.1329 3.90532C-90.1393 3.8975 -90.1267 3.91131 -90.1032 3.96128C-90.0558 4.06237 -89.9945 4.24633 -89.946 4.53219L-88.2952 4.25208ZM-89.2759 2.49474C-89.5497 2.36667 -89.9708 2.23244 -90.4253 2.24434L-90.3814 3.91819C-90.3275 3.91678 -90.2586 3.92445 -90.181 3.94345C-90.104 3.96229 -90.0348 3.98828 -89.9853 4.01146L-89.2759 2.49474ZM-90.4253 2.24434L-128.236 3.23446L-128.192 4.90831L-90.3814 3.91819L-90.4253 2.24434ZM-129.051 4.0933L-129.044 4.3812L-127.37 4.33737L-127.377 4.04947L-129.051 4.0933ZM-128.426 5.16721C-127.533 5.4098 -126.868 5.73209 -126.392 6.10755L-125.355 4.79361C-126.056 4.23955 -126.946 3.83431 -127.987 3.55136L-128.426 5.16721ZM-126.392 6.10755C-126.238 6.22965 -126.058 6.45682 -125.872 6.85357C-125.689 7.24631 -125.521 7.75866 -125.367 8.39775L-123.739 8.00417C-123.908 7.30726 -124.107 6.6768 -124.355 6.14454C-124.602 5.61629 -124.921 5.13627 -125.355 4.79361L-126.392 6.10755ZM-125.367 8.39775C-125.061 9.66018 -124.82 11.6109 -124.655 14.2836L-122.983 14.18C-123.15 11.4835 -123.398 9.41374 -123.739 8.00417L-125.367 8.39775ZM-124.655 14.2836C-124.489 16.9496 -124.392 20.6742 -124.268 25.3834L-122.595 25.3396C-122.717 20.644 -122.816 16.8832 -122.983 14.18L-124.655 14.2836ZM-124.268 25.3834L-123.499 54.7493L-121.826 54.7055L-122.595 25.3396L-124.268 25.3834ZM-123.499 54.7493C-123.376 59.4585 -123.279 63.1832 -123.304 65.8541L-121.63 65.8701C-121.604 63.1619 -121.703 59.4011 -121.826 54.7055L-123.499 54.7493ZM-123.304 65.8541C-123.33 68.5318 -123.469 70.4925 -123.707 71.7692L-122.061 72.077C-121.795 70.6516 -121.655 68.5716 -121.63 65.8701L-123.304 65.8541ZM-123.707 71.7692C-123.948 73.0544 -124.355 73.8022 -124.708 74.1124L-123.602 75.3703C-122.829 74.6907 -122.326 73.4939 -122.061 72.077L-123.707 71.7692ZM-124.708 74.1124C-125.163 74.5123 -125.811 74.8689 -126.69 75.1579L-126.167 76.7486C-125.141 76.4115 -124.274 75.9603 -123.602 75.3703L-124.708 74.1124ZM-126.143 76.7403L-125.857 76.6368L-126.428 75.0627L-126.714 75.1662L-126.143 76.7403ZM-81.338 74.9646L-82.175 74.9865L-82.1531 75.8234L-81.3161 75.8015L-81.338 74.9646ZM-63.2962 74.4922L-63.2743 75.3291L-62.4374 75.3072L-62.4593 74.4702L-63.2962 74.4922ZM-63.3038 74.2043L-62.4669 74.1823L-62.4836 73.5431L-63.1047 73.3911L-63.3038 74.2043ZM-65.7331 73.1155L-66.252 73.7725L-65.7331 73.1155ZM-67.051 70.4611L-67.8648 70.6579L-67.051 70.4611ZM-67.7851 64.4302L-66.9495 64.3784L-67.7851 64.4302ZM-68.5596 38.5216L-68.5815 37.6847L-69.4185 37.7066L-69.3966 38.5435L-68.5596 38.5216ZM-61.6374 38.8205L-61.4384 38.0073L-61.6374 38.8205ZM-58.89 41.0534L-58.1887 40.5961L-58.89 41.0534ZM-56.724 46.7586L-55.9117 46.5557L-56.724 46.7586ZM-54.3287 57.5476L-55.1473 57.7234L-55.147 57.7247L-54.3287 57.5476ZM-51.6983 66.3138L-52.4624 66.6559L-51.6983 66.3138ZM-48.2947 71.6025L-47.7184 70.9952L-48.2947 71.6025ZM-43.9083 74.0805L-44.1235 74.8896L-43.9083 74.0805ZM-33.5515 73.5212L-33.1354 74.2477L-33.5515 73.5212ZM-30.7302 71.2386L-30.086 71.7732L-29.5858 71.1704L-30.1539 70.6313L-30.7302 71.2386ZM-31.0257 70.9582L-30.4494 70.3509L-31.1052 69.7286L-31.6754 70.4302L-31.0257 70.9582ZM-32.8088 72.5414L-33.2431 71.8257L-32.8088 72.5414ZM-38.3825 72.3993L-38.8285 73.1078L-38.3825 72.3993ZM-40.7611 69.5806L-41.4998 69.9745L-40.7611 69.5806ZM-42.8186 64.3526L-43.6229 64.5851L-42.8186 64.3526ZM-44.7571 56.3366L-45.5784 56.4997L-45.5766 56.5079L-44.7571 56.3366ZM-47.279 48.0478L-46.5202 47.694L-47.279 48.0478ZM-50.877 42.6682L-50.2801 42.0811L-50.877 42.6682ZM-55.5664 39.6219L-55.2835 38.8339L-55.5664 39.6219ZM-61.3571 38.5251L-61.3372 37.6881L-61.411 39.3605L-61.3571 38.5251ZM-59.4352 38.5708L-59.4551 39.4078L-59.4342 39.4082L-59.4133 39.4077L-59.4352 38.5708ZM-50.7324 37.1905L-50.976 36.3895L-50.7324 37.1905ZM-43.5293 33.5447L-44.0393 32.8807L-43.5293 33.5447ZM-38.6923 27.56L-39.445 27.1933L-39.445 27.1934L-38.6923 27.56ZM-43.6672 6.27495L-44.1055 6.98825L-43.6672 6.27495ZM-83.1193 3.27466L-83.1412 2.43774L-83.9781 2.45965L-83.9562 3.29658L-83.1193 3.27466ZM-83.1118 3.56256L-83.9487 3.58448L-83.9323 4.20718L-83.3312 4.37049L-83.1118 3.56256ZM-80.7784 4.65385L-81.2973 5.31083L-80.7784 4.65385ZM-79.4579 7.40424L-80.2717 7.60102L-79.4579 7.40424ZM-78.7238 13.4351L-79.5594 13.4869L-78.7238 13.4351ZM-77.3718 65.0654L-78.209 65.0574L-77.3718 65.0654ZM-77.7893 71.1264L-78.6122 70.9725L-77.7893 71.1264ZM-79.06 73.9446L-79.6126 73.3157L-79.06 73.9446ZM-81.333 75.1565L-82.1699 75.1785L-82.1405 76.3033L-81.0715 75.9519L-81.333 75.1565ZM-69.3809 3.4911L-69.4028 2.65418L-70.2374 2.67604L-70.2179 3.51073L-69.3809 3.4911ZM-55.3421 4.17985L-55.5749 4.98402L-55.5749 4.98402L-55.3421 4.17985ZM-50.2688 7.21609L-50.887 7.78078L-50.887 7.78078L-50.2688 7.21609ZM-49.2924 33.5035L-48.6 33.9742L-49.2924 33.5035ZM-68.5571 38.6176L-69.3941 38.6372L-69.3744 39.4765L-68.5352 39.4545L-68.5571 38.6176ZM-82.1825 74.6986L-82.175 74.9865L-80.5011 74.9427L-80.5087 74.6548L-82.1825 74.6986ZM-81.3161 75.8015L-63.2743 75.3291L-63.3181 73.6552L-81.3599 74.1277L-81.3161 75.8015ZM-62.4593 74.4702L-62.4669 74.1823L-64.1407 74.2262L-64.1331 74.5141L-62.4593 74.4702ZM-63.1047 73.3911C-64.0857 73.1509 -64.7443 72.8297 -65.2142 72.4585L-66.252 73.7725C-65.5452 74.3308 -64.6482 74.7371 -63.5028 75.0175L-63.1047 73.3911ZM-65.2142 72.4585C-65.5682 72.1788 -65.9218 71.5687 -66.2373 70.2643L-67.8648 70.6579C-67.5341 72.0255 -67.0747 73.1226 -66.252 73.7725L-65.2142 72.4585ZM-66.2373 70.2643C-66.5426 69.0018 -66.7839 67.0511 -66.9495 64.3784L-68.6208 64.482C-68.4537 67.1785 -68.2057 69.2483 -67.8648 70.6579L-66.2373 70.2643ZM-66.9495 64.3784C-67.1147 61.7125 -67.2124 57.9878 -67.3357 53.2786L-69.0096 53.3225C-68.8866 58.018 -68.7882 61.7788 -68.6208 64.482L-66.9495 64.3784ZM-67.3357 53.2786L-67.7227 38.4997L-69.3966 38.5435L-69.0096 53.3225L-67.3357 53.2786ZM-68.5377 39.3585L-66.1385 39.2957L-66.1824 37.6219L-68.5815 37.6847L-68.5377 39.3585ZM-66.1385 39.2957C-64.2662 39.2467 -62.8049 39.3967 -61.8365 39.6337L-61.4384 38.0073C-62.5963 37.7239 -64.2161 37.5704 -66.1824 37.6219L-66.1385 39.2957ZM-61.8365 39.6337C-61.0545 39.8251 -60.3258 40.3843 -59.5913 41.5107L-58.1887 40.5961C-59.0551 39.2675 -60.094 38.3364 -61.4384 38.0073L-61.8365 39.6337ZM-59.5913 41.5107C-58.8674 42.6208 -58.1725 44.415 -57.5362 46.9616L-55.9117 46.5557C-56.5627 43.9502 -57.3118 41.9409 -58.1887 40.5961L-59.5913 41.5107ZM-57.5362 46.9616C-56.8969 49.5202 -56.1336 53.1304 -55.1473 57.7234L-53.5102 57.3718C-54.4925 52.7973 -55.2637 49.1491 -55.9117 46.5557L-57.5362 46.9616ZM-55.147 57.7247C-54.3777 61.2787 -53.5175 64.2994 -52.4624 66.6559L-50.9342 65.9716C-51.9191 63.7719 -52.7502 60.8829 -53.5105 57.3705L-55.147 57.7247ZM-52.4624 66.6559C-51.4238 68.9757 -50.2664 70.8856 -48.871 72.2098L-47.7184 70.9952C-48.8835 69.8896 -49.9329 68.208 -50.9342 65.9716L-52.4624 66.6559ZM-48.871 72.2098C-47.4931 73.5173 -45.9081 74.4151 -44.1235 74.8896L-43.6932 73.2714C-45.1967 72.8717 -46.5358 72.1174 -47.7184 70.9952L-48.871 72.2098ZM-44.1235 74.8896C-42.403 75.3471 -40.4923 75.5968 -38.3962 75.5419L-38.4401 73.8681C-40.3746 73.9187 -42.1257 73.6882 -43.6932 73.2714L-44.1235 74.8896ZM-38.3962 75.5419C-36.2788 75.4865 -34.5136 75.0371 -33.1354 74.2477L-33.9675 72.7947C-35.0492 73.4142 -36.5269 73.818 -38.4401 73.8681L-38.3962 75.5419ZM-33.1354 74.2477C-31.8324 73.5015 -30.8111 72.6471 -30.086 71.7732L-31.3745 70.7039C-31.9527 71.4007 -32.8106 72.1321 -33.9675 72.7947L-33.1354 74.2477ZM-30.1539 70.6313L-30.4494 70.3509L-31.602 71.5655L-31.3065 71.8459L-30.1539 70.6313ZM-31.6754 70.4302C-32.1789 71.0498 -32.671 71.4786 -33.2431 71.8257L-32.3746 73.2572C-31.6233 72.8014 -30.9889 72.2403 -30.376 71.4862L-31.6754 70.4302ZM-33.2431 71.8257C-33.7383 72.1261 -34.4382 72.3228 -35.5028 72.3507L-35.4589 74.0245C-34.2202 73.9921 -33.2028 73.7597 -32.3746 73.2572L-33.2431 71.8257ZM-35.5028 72.3507C-36.3962 72.3741 -37.2001 72.1543 -37.9365 71.6908L-38.8285 73.1078C-37.8073 73.7506 -36.6768 74.0564 -35.4589 74.0245L-35.5028 72.3507ZM-37.9365 71.6908C-38.6489 71.2423 -39.3552 70.438 -40.0223 69.1867L-41.4998 69.9745C-40.7531 71.3751 -39.8736 72.4499 -38.8285 73.1078L-37.9365 71.6908ZM-40.0223 69.1867C-40.6992 67.9171 -41.3953 66.2621 -42.0143 64.1202L-43.6229 64.5851C-42.9748 66.8275 -42.2368 68.5922 -41.4998 69.9745L-40.0223 69.1867ZM-42.0143 64.1202C-42.6403 61.9545 -43.2816 59.3042 -43.9376 56.1654L-45.5766 56.5079C-44.9152 59.6727 -44.2642 62.3664 -43.6229 64.5851L-42.0143 64.1202ZM-43.9359 56.1736C-44.6078 52.7889 -45.4653 49.9563 -46.5202 47.694L-48.0377 48.4016C-47.0577 50.5035 -46.234 53.1969 -45.5783 56.4997L-43.9359 56.1736ZM-46.5202 47.694C-47.5693 45.444 -48.8191 43.5666 -50.2801 42.0811L-51.4739 43.2552C-50.1725 44.5784 -49.0236 46.2874 -48.0377 48.4016L-46.5202 47.694ZM-50.2801 42.0811C-51.744 40.5928 -53.4127 39.5056 -55.2835 38.8339L-55.8493 40.4098C-54.2301 40.9912 -52.7725 41.9349 -51.4739 43.2552L-50.2801 42.0811ZM-55.2835 38.8339C-57.1232 38.1734 -59.1345 37.8296 -61.3031 37.6896L-61.411 39.3605C-59.347 39.4938 -57.4996 39.8173 -55.8493 40.4098L-55.2835 38.8339ZM-61.377 39.362L-59.4551 39.4078L-59.4153 37.7338L-61.3372 37.6881L-61.377 39.362ZM-59.4133 39.4077C-56.2707 39.3254 -53.3269 38.855 -50.4887 37.9915L-50.976 36.3895C-53.6637 37.2072 -56.4579 37.6553 -59.4571 37.7339L-59.4133 39.4077ZM-50.4887 37.9915C-47.6353 37.1233 -45.1749 35.8643 -43.0194 34.2086L-44.0393 32.8807C-46.0258 34.4066 -48.3035 35.5764 -50.976 36.3895L-50.4887 37.9915ZM-43.0194 34.2086C-40.8408 32.5353 -39.1786 30.4697 -37.9397 27.9267L-39.445 27.1934C-40.5756 29.5141 -42.0757 31.3725 -44.0393 32.8807L-43.0194 34.2086ZM-37.9397 27.9267C-36.683 25.3472 -36.1651 22.4092 -36.2507 19.1412L-37.9245 19.1851C-37.8442 22.2509 -38.3322 24.9092 -39.445 27.1933L-37.9397 27.9267ZM-36.2507 19.1412C-36.4147 12.8769 -38.7404 8.31984 -43.2289 5.56165L-44.1055 6.98825C-40.2002 9.3881 -38.0771 13.3575 -37.9245 19.1851L-36.2507 19.1412ZM-43.2289 5.56165C-47.6301 2.85715 -54.0973 1.6772 -62.5083 1.89745L-62.4644 3.57129C-54.1771 3.35428 -48.0983 4.53472 -44.1055 6.98825L-43.2289 5.56165ZM-62.5083 1.89745L-83.1412 2.43774L-83.0974 4.11158L-62.4644 3.57129L-62.5083 1.89745ZM-83.9562 3.29658L-83.9487 3.58448L-82.2748 3.54065L-82.2824 3.25274L-83.9562 3.29658ZM-83.3312 4.37049C-82.4383 4.61308 -81.7727 4.93536 -81.2973 5.31083L-80.2594 3.99688C-80.9608 3.44283 -81.8508 3.03758 -82.8923 2.75464L-83.3312 4.37049ZM-81.2973 5.31083C-81.1427 5.43293 -80.9626 5.66009 -80.7771 6.05684C-80.5935 6.44958 -80.4262 6.96193 -80.2717 7.60102L-78.6442 7.20745C-78.8127 6.51054 -79.0114 5.88007 -79.2602 5.34782C-79.5071 4.81956 -79.8256 4.33954 -80.2594 3.99688L-81.2973 5.31083ZM-80.2717 7.60102C-79.9664 8.86345 -79.725 10.8142 -79.5594 13.4869L-77.8882 13.3833C-78.0553 10.6868 -78.3033 8.61702 -78.6442 7.20745L-80.2717 7.60102ZM-79.5594 13.4869C-79.3942 16.1528 -79.2966 19.8775 -79.1732 24.5867L-77.4994 24.5428C-77.6224 19.8473 -77.7207 16.0865 -77.8882 13.3833L-79.5594 13.4869ZM-79.1732 24.5867L-78.4043 53.9526L-76.7304 53.9088L-77.4994 24.5428L-79.1732 24.5867ZM-78.4043 53.9526C-78.281 58.6618 -78.1835 62.3864 -78.209 65.0574L-76.5346 65.0734C-76.5089 62.3651 -76.6075 58.6043 -76.7304 53.9088L-78.4043 53.9526ZM-78.209 65.0574C-78.2345 67.7351 -78.3734 69.6958 -78.6122 70.9725L-76.9664 71.2803C-76.6997 69.8548 -76.5604 67.7749 -76.5346 65.0734L-78.209 65.0574ZM-78.6122 70.9725C-78.8527 72.2577 -79.2595 73.0055 -79.6126 73.3157L-78.5073 74.5735C-77.7339 73.8939 -77.2314 72.6972 -76.9664 71.2803L-78.6122 70.9725ZM-79.6126 73.3157C-80.0676 73.7155 -80.7155 74.0722 -81.5945 74.3612L-81.0715 75.9519C-80.0463 75.6148 -79.1788 75.1635 -78.5073 74.5735L-79.6126 73.3157ZM-80.4961 75.1346L-80.5087 74.6548L-82.1825 74.6986L-82.1699 75.1785L-80.4961 75.1346ZM-69.359 4.32803L-62.9292 4.15966L-62.973 2.48581L-69.4028 2.65418L-69.359 4.32803ZM-62.9292 4.15966C-60.0261 4.08364 -57.6084 4.39515 -55.5749 4.98402L-55.1092 3.37568C-57.3334 2.73157 -59.9262 2.40603 -62.973 2.48581L-62.9292 4.15966ZM-55.5749 4.98402C-53.5773 5.56251 -52.0571 6.49996 -50.887 7.78078L-49.6507 6.6514C-51.0512 5.11854 -52.8492 4.03015 -55.1092 3.37568L-55.5749 4.98402ZM-50.887 7.78078C-49.6964 9.08394 -48.7482 10.7654 -48.1468 12.8458L-46.5383 12.3809C-47.2042 10.077 -48.2708 8.16191 -49.6507 6.6514L-50.887 7.78078ZM-48.1468 12.8458C-47.5388 14.9496 -47.1864 17.5541 -47.1072 20.5779L-45.4334 20.5341C-45.515 17.416 -45.8791 14.6614 -46.5383 12.3809L-48.1468 12.8458ZM-47.1072 20.5779C-46.9667 25.9425 -47.9896 30.0978 -49.9848 33.0329L-48.6 33.9742C-46.3415 30.6518 -45.2874 26.1098 -45.4334 20.5341L-47.1072 20.5779ZM-49.9848 33.0329C-51.9109 35.8664 -55.2158 37.4307 -60.1339 37.5595L-60.0901 39.2334C-54.8357 39.0958 -50.9275 37.3981 -48.6 33.9742L-49.9848 33.0329ZM-60.1339 37.5595L-68.579 37.7807L-68.5352 39.4545L-60.0901 39.2334L-60.1339 37.5595ZM-67.7201 38.598L-68.5439 3.47148L-70.2179 3.51073L-69.3941 38.6372L-67.7201 38.598ZM-31.3002 73.3662L-30.4633 73.3443L-32.0586 73.0115L-31.3002 73.3662ZM-31.2927 73.6541L-32.1296 73.676L-32.1077 74.513L-31.2708 74.491L-31.2927 73.6541ZM-13.3468 73.1842L-13.3249 74.0211L-12.488 73.9992L-12.5099 73.1623L-13.3468 73.1842ZM-13.3544 72.8963L-12.5175 72.8744L-12.5342 72.2351L-13.1553 72.0831L-13.3544 72.8963ZM-15.7837 71.8075L-16.3027 72.4645L-15.7837 71.8075ZM-17.1017 69.1531L-16.2879 68.9563L-17.1017 69.1531ZM-17.8358 63.1222L-18.6714 63.174L-17.8358 63.1222ZM-19.1878 11.4919L-20.0249 11.484L-19.1878 11.4919ZM-18.7703 5.43094L-17.9473 5.58487L-17.9473 5.58487L-18.7703 5.43094ZM-15.224 1.49676L-14.9827 2.29843L-14.3704 2.11408L-14.3871 1.47485L-15.224 1.49676ZM-15.2316 1.20886L-14.3947 1.18694L-14.4166 0.350019L-15.2535 0.371935L-15.2316 1.20886ZM-33.1774 1.67879L-33.1993 0.841863L-34.0363 0.863779L-34.0144 1.7007L-33.1774 1.67879ZM-33.1699 1.96669L-34.0068 1.98861L-33.9905 2.6113L-33.3894 2.77461L-33.1699 1.96669ZM-28.782 11.8392L-27.9464 11.7874L-28.782 11.8392ZM-27.43 63.4695L-26.5928 63.4775L-27.43 63.4695ZM-27.8474 69.5305L-28.6704 69.3766L-27.8474 69.5305ZM-29.1181 72.3487L-29.6707 71.7198L-29.1181 72.3487ZM-31.3912 73.5607L-32.1495 73.206L-32.9704 74.9612L-31.1297 74.356L-31.3912 73.5607ZM-32.1372 73.3881L-32.1296 73.676L-30.4558 73.6322L-30.4633 73.3443L-32.1372 73.3881ZM-31.2708 74.491L-13.3249 74.0211L-13.3688 72.3473L-31.3146 72.8172L-31.2708 74.491ZM-12.5099 73.1623L-12.5175 72.8744L-14.1913 72.9182L-14.1838 73.2061L-12.5099 73.1623ZM-13.1553 72.0831C-14.1363 71.843 -14.7949 71.5217 -15.2648 71.1505L-16.3027 72.4645C-15.5958 73.0228 -14.6988 73.4291 -13.5534 73.7095L-13.1553 72.0831ZM-15.2648 71.1505C-15.6188 70.8708 -15.9725 70.2607 -16.2879 68.9563L-17.9154 69.3499C-17.5847 70.7175 -17.1253 71.8147 -16.3027 72.4645L-15.2648 71.1505ZM-16.2879 68.9563C-16.5932 67.6939 -16.8346 65.7431 -17.0002 63.0705L-18.6714 63.174C-18.5043 65.8705 -18.2563 67.9403 -17.9154 69.3499L-16.2879 68.9563ZM-17.0002 63.0705C-17.1654 60.4045 -17.263 56.6799 -17.3863 51.9707L-19.0602 52.0145C-18.9372 56.7101 -18.8389 60.4709 -18.6714 63.174L-17.0002 63.0705ZM-17.3863 51.9707L-18.1553 22.6047L-19.8292 22.6486L-19.0602 52.0145L-17.3863 51.9707ZM-18.1553 22.6047C-18.2786 17.8955 -18.376 14.1709 -18.3506 11.4999L-20.0249 11.484C-20.0507 14.1922 -19.9521 17.953 -19.8292 22.6486L-18.1553 22.6047ZM-18.3506 11.4999C-18.3251 8.82227 -18.1862 6.86155 -17.9473 5.58487L-19.5932 5.27701C-19.8598 6.70249 -19.9992 8.78243 -20.0249 11.484L-18.3506 11.4999ZM-17.9473 5.58487C-17.7006 4.26575 -17.3794 3.63795 -17.0405 3.34011L-18.1457 2.08228C-18.9332 2.77427 -19.3345 3.89398 -19.5932 5.27701L-17.9473 5.58487ZM-17.0405 3.34011C-16.5906 2.94486 -15.9497 2.58957 -14.9827 2.29843L-15.4654 0.695095C-16.5945 1.03504 -17.469 1.4877 -18.1457 2.08228L-17.0405 3.34011ZM-14.3871 1.47485L-14.3947 1.18694L-16.0685 1.23077L-16.061 1.51868L-14.3871 1.47485ZM-15.2535 0.371935L-33.1993 0.841863L-33.1555 2.51571L-15.2097 2.04578L-15.2535 0.371935ZM-34.0144 1.7007L-34.0068 1.98861L-32.333 1.94477L-32.3405 1.65687L-34.0144 1.7007ZM-33.3894 2.77461C-32.4965 3.01721 -31.8308 3.33949 -31.3555 3.71496L-30.3176 2.40101C-31.019 1.84696 -31.9089 1.44172 -32.9504 1.15877L-33.3894 2.77461ZM-31.3555 3.71496C-31.2009 3.83706 -31.0207 4.06422 -30.8353 4.46097C-30.6517 4.85371 -30.4844 5.36606 -30.3298 6.00515L-28.7023 5.61157C-28.8709 4.91466 -29.0696 4.2842 -29.3184 3.75194C-29.5653 3.22369 -29.8838 2.74367 -30.3176 2.40101L-31.3555 3.71496ZM-30.3298 6.00515C-30.0246 7.26758 -29.7832 9.21835 -29.6176 11.891L-27.9464 11.7874C-28.1134 9.09094 -28.3615 7.02115 -28.7023 5.61157L-30.3298 6.00515ZM-29.6176 11.891C-29.4524 14.557 -29.3547 18.2816 -29.2314 22.9908L-27.5576 22.947C-27.6805 18.2514 -27.7789 14.4906 -27.9464 11.7874L-29.6176 11.891ZM-29.2314 22.9908L-28.4624 52.3567L-26.7886 52.3129L-27.5576 22.947L-29.2314 22.9908ZM-28.4624 52.3567C-28.3391 57.0659 -28.2417 60.7906 -28.2671 63.4615L-26.5928 63.4775C-26.567 60.7693 -26.6656 57.0085 -26.7886 52.3129L-28.4624 52.3567ZM-28.2671 63.4615C-28.2926 66.1392 -28.4316 68.0999 -28.6704 69.3766L-27.0245 69.6844C-26.7579 68.259 -26.6185 66.179 -26.5928 63.4775L-28.2671 63.4615ZM-28.6704 69.3766C-28.9108 70.6618 -29.3177 71.4096 -29.6707 71.7198L-28.5655 72.9777C-27.7921 72.2981 -27.2896 71.1014 -27.0245 69.6844L-28.6704 69.3766ZM-29.6707 71.7198C-30.1258 72.1197 -30.7736 72.4763 -31.6527 72.7653L-31.1297 74.356C-30.1044 74.0189 -29.237 73.5677 -28.5655 72.9777L-29.6707 71.7198ZM-30.6328 73.9153L-30.5419 73.7209L-32.0586 73.0115L-32.1495 73.206L-30.6328 73.9153ZM-11.0572 72.8361L-10.2203 72.8142L-10.2507 71.653L-11.3426 72.0491L-11.0572 72.8361ZM-11.0496 73.124L-11.8866 73.146L-11.8646 73.9829L-11.0277 73.961L-11.0496 73.124ZM30.575 71.0737L31.3999 71.2164L31.406 71.1814L31.409 71.1461L30.575 71.0737ZM31.4602 60.8711L32.2943 60.9434L32.3753 60.0096L31.4383 60.0341L31.4602 60.8711ZM31.0763 60.8811L31.0544 60.0442L30.3946 60.0615L30.2574 60.7071L31.0763 60.8811ZM25.8424 70.0453L25.4082 69.3295L25.4082 69.3295L25.8424 70.0453ZM21.1777 71.6079L21.2871 72.4379L21.1777 71.6079ZM2.56764 72.3833L1.73071 72.4052L1.75262 73.2422L2.58955 73.2202L2.56764 72.3833ZM1.54988 33.5166L1.52796 32.6797L0.69103 32.7016L0.712945 33.5386L1.54988 33.5166ZM14.0884 35.5891L13.4673 36.1504L14.0884 35.5891ZM15.3963 37.8597L16.1834 37.5742L16.1834 37.5742L15.3963 37.8597ZM16.1359 40.4332L15.3237 40.6361L15.4865 41.2877L16.1578 41.2701L16.1359 40.4332ZM16.3279 40.4282L16.3498 41.2651L17.1867 41.2432L17.1648 40.4063L16.3279 40.4282ZM15.9283 25.1694L16.7652 25.1475L16.7433 24.3106L15.9064 24.3325L15.9283 25.1694ZM15.7364 25.1744L15.7144 24.3375L15.0431 24.3551L14.9146 25.0143L15.7364 25.1744ZM15.1324 27.7831L15.9334 28.027L15.9334 28.027L15.1324 27.7831ZM13.9452 30.119L13.2955 29.591L13.2955 29.591L13.9452 30.119ZM11.4953 31.9118L11.8616 32.6646L11.4953 31.9118ZM1.53229 32.8449L0.695355 32.8668L0.71727 33.7037L1.5542 33.6818L1.53229 32.8449ZM0.695462 0.887831L0.673547 0.0509078L-0.163386 0.0728236L-0.14147 0.909746L0.695462 0.887831ZM17.4063 0.930406L17.2903 1.75954L17.2903 1.75954L17.4063 0.930406ZM21.861 2.35028L21.441 3.07454L21.441 3.07454L21.861 2.35028ZM25.1058 5.24233L24.4302 5.73673L24.4302 5.73674L25.1058 5.24233ZM27.3402 9.88944L26.5449 10.1509L26.7395 10.7427L27.3621 10.7264L27.3402 9.88944ZM27.7241 9.87939L27.746 10.7163L28.7468 10.6901L28.5439 9.70973L27.7241 9.87939ZM25.965 1.37852L25.1396 1.51857L25.1421 1.53342L25.1451 1.54817L25.965 1.37852ZM25.455 0.23948L25.1003 0.99784L25.1003 0.997849L25.455 0.23948ZM-13.1288 1.05776L-13.1507 0.220841L-13.9876 0.242756L-13.9657 1.07968L-13.1288 1.05776ZM-13.1213 1.34567L-13.9582 1.36758L-13.9419 1.99028L-13.3408 2.15359L-13.1213 1.34567ZM-10.7879 2.43696L-10.269 1.77999L-10.269 1.77999L-10.7879 2.43696ZM-8.73334 11.2182L-7.89773 11.1664L-8.73334 11.2182ZM-7.38135 62.8485L-6.54418 62.8565L-7.38135 62.8485ZM-7.79885 68.9095L-6.97591 69.0634L-7.79885 68.9095ZM-9.06951 71.7277L-9.62214 71.0988L-9.06951 71.7277ZM-11.3425 72.9396L-11.628 72.1526L-11.0811 73.735L-11.3425 72.9396ZM-11.8941 72.858L-11.8866 73.146L-10.2127 73.1021L-10.2203 72.8142L-11.8941 72.858ZM-11.0277 73.961L29.6623 72.8955L29.6185 71.2216L-11.0715 72.2871L-11.0277 73.961ZM29.6623 72.8955C29.8332 72.891 30.2197 72.8931 30.6076 72.6863L29.8198 71.2087C29.8275 71.2046 29.8278 71.2074 29.8025 71.2113C29.788 71.2134 29.7675 71.2156 29.7363 71.2174C29.7036 71.2193 29.6687 71.2203 29.6185 71.2216L29.6623 72.8955ZM30.6076 72.6863C30.9609 72.4979 31.1285 72.1793 31.2151 71.9553C31.3032 71.7272 31.3571 71.4642 31.3999 71.2164L29.75 70.9311C29.7307 71.0425 29.7129 71.1325 29.6955 71.2059C29.6778 71.2802 29.6632 71.326 29.6531 71.352C29.6427 71.379 29.6438 71.3674 29.6653 71.3382C29.6899 71.305 29.7394 71.2516 29.8198 71.2087L30.6076 72.6863ZM31.409 71.1461L32.2943 60.9434L30.6261 60.7987L29.7409 71.0014L31.409 71.1461ZM31.4383 60.0341L31.0544 60.0442L31.0982 61.718L31.4821 61.708L31.4383 60.0341ZM30.2574 60.7071C29.7576 63.0594 29.0654 64.9142 28.2909 66.2851L29.7488 67.1087C30.6263 65.5555 31.3691 63.5313 31.8953 61.0551L30.2574 60.7071ZM28.2909 66.2851C27.5293 67.6333 26.5987 68.6072 25.4082 69.3295L26.2767 70.761C27.733 69.8775 28.8584 68.6849 29.7488 67.1087L28.2909 66.2851ZM25.4082 69.3295C24.1967 70.0645 22.7874 70.5513 21.0683 70.7779L21.2871 72.4379C23.2047 72.1852 24.8413 71.6319 26.2767 70.761L25.4082 69.3295ZM21.0683 70.7779C19.2877 71.0126 17.1138 71.1649 14.6376 71.2298L14.6814 72.9036C17.1955 72.8378 19.4311 72.6826 21.2871 72.4379L21.0683 70.7779ZM14.6376 71.2298L2.54572 71.5464L2.58955 73.2202L14.6814 72.9036L14.6376 71.2298ZM3.40457 72.3614L2.38681 33.4947L0.712945 33.5386L1.73071 72.4052L3.40457 72.3614ZM1.57179 34.3536L7.23385 34.2053L7.19002 32.5315L1.52796 32.6797L1.57179 34.3536ZM7.23385 34.2053C9.02221 34.1585 10.3212 34.3168 11.2217 34.698L11.8744 33.1561C10.6385 32.6329 9.04843 32.4828 7.19002 32.5315L7.23385 34.2053ZM11.2217 34.698C12.2276 35.1239 12.9856 35.6174 13.4673 36.1504L14.7096 35.0278C14.0045 34.2475 13.0049 33.6347 11.8744 33.1561L11.2217 34.698ZM13.4673 36.1504C13.969 36.7057 14.3245 37.3601 14.6093 38.1451L16.1834 37.5742C15.847 36.6469 15.3947 35.786 14.7096 35.0278L13.4673 36.1504ZM14.6093 38.1451C14.9027 38.9542 15.1076 39.7713 15.3237 40.6361L16.9482 40.2303C16.7351 39.3777 16.5109 38.4775 16.1834 37.5742L14.6093 38.1451ZM16.1578 41.2701L16.3498 41.2651L16.306 39.5912L16.114 39.5963L16.1578 41.2701ZM17.1648 40.4063L16.7652 25.1475L15.0914 25.1913L15.4909 40.4501L17.1648 40.4063ZM15.9064 24.3325L15.7144 24.3375L15.7583 26.0114L15.9502 26.0063L15.9064 24.3325ZM14.9146 25.0143C14.7441 25.8892 14.5823 26.7159 14.3315 27.5393L15.9334 28.027C16.2132 27.1078 16.39 26.1971 16.5581 25.3346L14.9146 25.0143ZM14.3315 27.5393C14.0883 28.3381 13.7675 29.0103 13.2955 29.591L14.5949 30.647C15.2394 29.8541 15.646 28.9706 15.9334 28.027L14.3315 27.5393ZM13.2955 29.591C12.8424 30.1485 12.1112 30.681 11.129 31.1589L11.8616 32.6646C12.9655 32.1275 13.9316 31.4632 14.5949 30.647L13.2955 29.591ZM11.129 31.1589C10.2497 31.5867 8.96079 31.8129 7.17243 31.8597L7.21626 33.5335C9.07467 33.4849 10.6547 33.2517 11.8616 32.6646L11.129 31.1589ZM7.17243 31.8597L1.51037 32.008L1.5542 33.6818L7.21626 33.5335L7.17243 31.8597ZM2.36922 32.823L1.53239 0.865915L-0.14147 0.909746L0.695355 32.8668L2.36922 32.823ZM0.717378 1.72475L11.3697 1.44581L11.3259 -0.228034L0.673547 0.0509078L0.717378 1.72475ZM11.3697 1.44581C13.6262 1.38672 15.6004 1.52317 17.2903 1.75954L17.5223 0.101268C15.7423 -0.147702 13.6758 -0.289569 11.3259 -0.228034L11.3697 1.44581ZM17.2903 1.75954C18.9504 1.99174 20.2916 2.40801 21.441 3.07454L22.281 1.62602C20.8951 0.82241 19.3321 0.354399 17.5223 0.101267L17.2903 1.75954ZM21.441 3.07454C22.6169 3.75636 23.6077 4.61278 24.4302 5.73673L25.7815 4.74793C24.8112 3.42197 23.6405 2.41433 22.281 1.62602L21.441 3.07454ZM24.4302 5.73674C25.2572 6.8669 25.9352 8.2963 26.5449 10.1509L28.1356 9.62796C27.4932 7.67404 26.7472 6.06768 25.7815 4.74793L24.4302 5.73674ZM27.3621 10.7264L27.746 10.7163L27.7022 9.04246L27.3183 9.05252L27.3621 10.7264ZM28.5439 9.70973L26.7848 1.20886L25.1451 1.54817L26.9042 10.049L28.5439 9.70973ZM26.7904 1.23846C26.7253 0.855069 26.6289 0.514987 26.4983 0.236598C26.3837 -0.00767483 26.1772 -0.347006 25.8097 -0.51889L25.1003 0.997849C25.0016 0.951685 24.9566 0.896544 24.9526 0.891703C24.9463 0.883876 24.9589 0.897685 24.9823 0.947663C25.0298 1.04874 25.0911 1.23271 25.1396 1.51857L26.7904 1.23846ZM25.8097 -0.518881C25.5358 -0.646951 25.1147 -0.781176 24.6603 -0.769276L24.7041 0.904569C24.758 0.903158 24.827 0.910832 24.9046 0.92983C24.9815 0.948667 25.0507 0.97466 25.1003 0.99784L25.8097 -0.518881ZM24.6603 -0.769276L-13.1507 0.220841L-13.1069 1.89469L24.7041 0.904569L24.6603 -0.769276ZM-13.9657 1.07968L-13.9582 1.36758L-12.2844 1.32375L-12.2919 1.03585L-13.9657 1.07968ZM-13.3408 2.15359C-12.4478 2.39618 -11.7822 2.71847 -11.3069 3.09393L-10.269 1.77999C-10.9704 1.22593 -11.8603 0.820687 -12.9018 0.537742L-13.3408 2.15359ZM-11.3069 3.09393C-11.1523 3.21603 -10.9721 3.4432 -10.7866 3.83994C-10.6031 4.23269 -10.4358 4.74504 -10.2812 5.38413L-8.65371 4.99055C-8.82225 4.29364 -9.02098 3.66318 -9.26977 3.13092C-9.51669 2.60267 -9.83518 2.12265 -10.269 1.77999L-11.3069 3.09393ZM-10.2812 5.38413C-9.97593 6.64655 -9.73454 8.59732 -9.56897 11.27L-7.89773 11.1664C-8.06481 8.46992 -8.31284 6.40012 -8.65371 4.99055L-10.2812 5.38413ZM-9.56897 11.27C-9.40379 13.9359 -9.3061 17.6606 -9.18279 22.3698L-7.50895 22.3259C-7.63191 17.6304 -7.73027 13.8696 -7.89773 11.1664L-9.56897 11.27ZM-9.18279 22.3698L-8.41381 51.7357L-6.73998 51.6919L-7.50895 22.3259L-9.18279 22.3698ZM-8.41381 51.7357C-8.2905 56.4449 -8.19312 60.1696 -8.21854 62.8405L-6.54418 62.8565C-6.51842 60.1482 -6.61702 56.3874 -6.73998 51.6919L-8.41381 51.7357ZM-8.21854 62.8405C-8.24401 65.5182 -8.38298 67.4789 -8.62177 68.7556L-6.97591 69.0634C-6.70927 67.6379 -6.56991 65.558 -6.54418 62.8565L-8.21854 62.8405ZM-8.62177 68.7556C-8.86219 70.0408 -9.26909 70.7886 -9.62214 71.0988L-8.51688 72.3566C-7.74345 71.677 -7.24094 70.4803 -6.97591 69.0634L-8.62177 68.7556ZM-9.62214 71.0988C-10.0772 71.4986 -10.725 71.8553 -11.604 72.1443L-11.0811 73.735C-10.0559 73.3979 -9.18834 72.9466 -8.51688 72.3566L-9.62214 71.0988ZM-11.0571 73.7267L-10.7717 73.6232L-11.3426 72.0491L-11.628 72.1526L-11.0571 73.7267Z" fill="#580300"/>
</g>
</svg>
