<svg width="27" height="43" viewBox="0 0 27 43" fill="none" xmlns="http://www.w3.org/2000/svg">
<g style="mix-blend-mode:darken">
<path d="M0.833764 35.8619L1.67069 35.8838L0.0949986 35.468L0.833764 35.8619ZM0.829995 36.0058L-0.00692798 35.9839L-0.0288435 36.8208L0.808079 36.8427L0.829995 36.0058ZM9.80292 36.2408L9.781 37.0777L10.6179 37.0996L10.6398 36.2627L9.80292 36.2408ZM9.80669 36.0968L10.6436 36.1187L10.6604 35.4795L10.048 35.2952L9.80669 36.0968ZM8.62218 35.4896L8.06956 36.1185L8.62218 35.4896ZM8.03357 34.1297L8.85651 33.9758L8.85651 33.9758L8.03357 34.1297ZM7.82483 31.0992L6.98766 31.1072L7.82483 31.0992ZM8.50082 5.28407L7.66522 5.2323L7.66522 5.2323L8.50082 5.28407ZM8.86789 2.26865L9.68164 2.46544L9.68164 2.46544L8.86789 2.26865ZM10.7415 0.397053L10.9406 1.21025L11.5617 1.05821L11.5784 0.418969L10.7415 0.397053ZM10.7453 0.253102L11.5822 0.275017L11.6041 -0.561905L10.7672 -0.583821L10.7453 0.253102ZM1.77236 0.0181372L1.79428 -0.818785L0.957358 -0.840701L0.935442 -0.00377838L1.77236 0.0181372ZM1.7686 0.162089L0.931673 0.140173L0.915367 0.762868L1.50711 0.957418L1.7686 0.162089ZM3.70121 5.20641L4.53838 5.19844L3.70121 5.20641ZM3.02522 31.0216L3.86083 31.0733L3.02522 31.0216ZM2.65816 34.037L1.84441 33.8402L2.65816 34.037ZM1.94995 35.4109L1.431 34.7539L1.94995 35.4109ZM0.783268 35.9566L0.0445021 35.5627L-0.867115 37.2725L1.00276 36.7645L0.783268 35.9566ZM-0.00315848 35.8399L-0.00692798 35.9839L1.66692 36.0277L1.67069 35.8838L-0.00315848 35.8399ZM0.808079 36.8427L9.781 37.0777L9.82484 35.4038L0.85191 35.1689L0.808079 36.8427ZM10.6398 36.2627L10.6436 36.1187L8.96977 36.0749L8.966 36.2189L10.6398 36.2627ZM10.048 35.2952C9.60505 35.1618 9.34299 35.0085 9.1748 34.8607L8.06956 36.1185C8.4646 36.4656 8.96023 36.7163 9.56534 36.8985L10.048 35.2952ZM9.1748 34.8607C9.11746 34.8103 8.97689 34.6194 8.85651 33.9758L7.21064 34.2837C7.34297 34.9912 7.56366 35.674 8.06956 36.1185L9.1748 34.8607ZM8.85651 33.9758C8.74407 33.3747 8.67469 32.4241 8.662 31.0913L6.98766 31.1072C7.00057 32.4639 7.07036 33.5337 7.21064 34.2837L8.85651 33.9758ZM8.662 31.0913C8.64938 29.7651 8.69778 27.9118 8.75952 25.5538L7.08568 25.51C7.02429 27.8543 6.97468 29.7438 6.98766 31.1072L8.662 31.0913ZM8.75952 25.5538L9.14401 10.8708L7.47017 10.827L7.08568 25.51L8.75952 25.5538ZM9.14401 10.8708C9.20576 8.51281 9.25442 6.65954 9.33643 5.33584L7.66522 5.2323C7.5809 6.59317 7.53156 8.48262 7.47017 10.827L9.14401 10.8708ZM9.33643 5.33585C9.41886 4.00549 9.53789 3.05987 9.68164 2.46544L8.05413 2.07186C7.8748 2.81343 7.74912 3.87809 7.66522 5.2323L9.33643 5.33585ZM9.68164 2.46544C9.83554 1.82903 9.9859 1.64573 10.0458 1.59842L9.0079 0.284473C8.47944 0.701915 8.22331 1.37227 8.05413 2.07186L9.68164 2.46544ZM10.0458 1.59842C10.2215 1.45963 10.4912 1.32025 10.9406 1.21025L10.5425 -0.416145C9.92864 -0.265888 9.42058 -0.0415011 9.0079 0.284473L10.0458 1.59842ZM11.5784 0.418969L11.5822 0.275017L9.90837 0.231186L9.9046 0.375138L11.5784 0.418969ZM10.7672 -0.583821L1.79428 -0.818785L1.75045 0.85506L10.7234 1.09002L10.7672 -0.583821ZM0.935442 -0.00377838L0.931673 0.140173L2.60552 0.184004L2.60929 0.0400528L0.935442 -0.00377838ZM1.50711 0.957418C1.91007 1.0899 2.1791 1.24459 2.3525 1.39696L3.45774 0.139136C3.06791 -0.203409 2.57925 -0.452687 2.03008 -0.63324L1.50711 0.957418ZM2.3525 1.39696C2.35967 1.40326 2.41247 1.45646 2.48106 1.62578C2.54799 1.791 2.61182 2.0213 2.66953 2.32984L4.31541 2.02197C4.24676 1.65497 4.15773 1.30507 4.03298 0.997114C3.90989 0.693253 3.7322 0.380298 3.45774 0.139136L2.3525 1.39696ZM2.66953 2.32984C2.78198 2.93097 2.85135 3.88153 2.86404 5.21438L4.53838 5.19844C4.52547 3.84169 4.45568 2.77192 4.31541 2.02197L2.66953 2.32984ZM2.86404 5.21438C2.87667 6.54055 2.82827 8.39382 2.76652 10.7518L4.44037 10.7957C4.50176 8.4513 4.55136 6.56186 4.53838 5.19844L2.86404 5.21438ZM2.76652 10.7518L2.38203 25.4348L4.05588 25.4786L4.44037 10.7957L2.76652 10.7518ZM2.38203 25.4348C2.32029 27.7928 2.27163 29.6461 2.18961 30.9698L3.86083 31.0733C3.94514 29.7125 3.99449 27.823 4.05588 25.4786L2.38203 25.4348ZM2.18961 30.9698C2.10719 32.3001 1.98816 33.2458 1.84441 33.8402L3.47191 34.2338C3.65125 33.4922 3.77692 32.4275 3.86083 31.0733L2.18961 30.9698ZM1.84441 33.8402C1.6986 34.4431 1.50562 34.695 1.431 34.7539L2.4689 36.0679C2.98265 35.6621 3.29463 34.9669 3.47191 34.2338L1.84441 33.8402ZM1.431 34.7539C1.24986 34.897 0.973108 35.0374 0.563771 35.1486L1.00276 36.7645C1.56064 36.6129 2.06167 36.3896 2.4689 36.0679L1.431 34.7539ZM1.52203 36.3504L1.57253 36.2557L0.0949986 35.468L0.0445021 35.5627L1.52203 36.3504ZM10.9515 36.2708L10.1146 36.2489L10.0927 37.0859L10.9296 37.1078L10.9515 36.2708ZM15.414 36.3877L15.3921 37.2246L16.229 37.2465L16.2509 36.4096L15.414 36.3877ZM15.4178 36.2437L16.2547 36.2657L16.27 35.6795L15.7244 35.4647L15.4178 36.2437ZM14.2358 35.5406L14.7884 34.9117L14.2358 35.5406ZM13.6484 34.1327L14.4714 33.9788L14.4714 33.9788L13.6484 34.1327ZM13.4384 31.1502L14.2756 31.1411L13.4384 31.1502ZM14.1695 1.39913L14.9172 1.02255L13.3325 1.37721L14.1695 1.39913ZM32.1072 37.0169L31.3595 37.3935L31.5847 37.8407L32.0853 37.8538L32.1072 37.0169ZM32.779 37.0345L32.7571 37.8714L33.594 37.8933L33.6159 37.0564L32.779 37.0345ZM33.6362 6.13433L34.4717 6.18721L34.4717 6.18721L33.6362 6.13433ZM34.002 3.16689L34.8157 3.36368L34.8157 3.36368L34.002 3.16689ZM34.6622 1.7917L35.1812 2.44867L35.1812 2.44867L34.6622 1.7917ZM35.8314 1.15009L36.1219 1.93529L36.6535 1.73863L36.6683 1.172L35.8314 1.15009ZM35.8352 1.00614L36.6721 1.02805L36.694 0.191131L35.8571 0.169215L35.8352 1.00614ZM31.3727 0.889284L31.3946 0.0523614L30.5577 0.0304458L30.5358 0.867368L31.3727 0.889284ZM31.3689 1.03323L30.532 1.01132L30.5167 1.59752L31.0623 1.81228L31.3689 1.03323ZM32.5509 1.73642L31.9983 2.36533L31.9983 2.36533L32.5509 1.73642ZM33.1383 3.14427L33.9612 2.99034L33.9612 2.99034L33.1383 3.14427ZM33.3483 6.12679L32.5111 6.13587L32.5111 6.13587L33.3483 6.12679ZM32.8346 27.5767L32.0879 27.9554L33.6715 27.5986L32.8346 27.5767ZM19.7305 1.73682L20.4772 1.35815L20.4758 1.35529L19.7305 1.73682ZM19.0851 0.71157L19.6924 0.135275L19.6924 0.13527L19.0851 0.71157ZM11.9406 0.332421L11.9625 -0.504501L11.1256 -0.526417L11.1037 0.310506L11.9406 0.332421ZM11.9369 0.47637L11.0999 0.454454L11.0836 1.07715L11.6754 1.2717L11.9369 0.47637ZM13.0734 1.08233L12.5208 1.71124L13.0734 1.08233ZM13.6607 2.49019L12.8378 2.64412L13.6607 2.49019ZM13.8695 5.52069L13.0323 5.52866L13.8695 5.52069ZM13.1972 31.1919L12.3617 31.139L13.1972 31.1919ZM12.8314 34.1593L12.0177 33.9625L12.8314 34.1593ZM12.1232 35.5333L12.6422 36.1902L12.6422 36.1902L12.1232 35.5333ZM10.954 36.1749L10.1171 36.153L10.0847 37.3891L11.2445 36.9601L10.954 36.1749ZM10.1184 36.105L10.1146 36.2489L11.7884 36.2928L11.7922 36.1488L10.1184 36.105ZM10.9296 37.1078L15.3921 37.2246L15.4359 35.5508L10.9734 35.4339L10.9296 37.1078ZM16.2509 36.4096L16.2547 36.2657L14.5808 36.2218L14.5771 36.3658L16.2509 36.4096ZM15.7244 35.4647C15.2923 35.2947 14.9979 35.0957 14.7884 34.9117L13.6831 36.1695C14.0369 36.4803 14.4976 36.7813 15.1112 37.0228L15.7244 35.4647ZM14.7884 34.9117C14.7812 34.9054 14.7284 34.8522 14.6598 34.6828C14.5929 34.5176 14.5291 34.2873 14.4714 33.9788L12.8255 34.2866C12.8941 34.6536 12.9832 35.0035 13.1079 35.3115C13.231 35.6154 13.4087 35.9283 13.6831 36.1695L14.7884 34.9117ZM14.4714 33.9788C14.3588 33.3769 14.2895 32.4257 14.2756 31.1411L12.6013 31.1593C12.6155 32.4683 12.6853 33.5375 12.8255 34.2866L14.4714 33.9788ZM14.2756 31.1411C14.2617 29.8636 14.3088 28.0591 14.3693 25.7487L12.6955 25.7049C12.6354 28.0009 12.587 29.8431 12.6013 31.1593L14.2756 31.1411ZM14.3693 25.7487L15.0064 1.42104L13.3325 1.37721L12.6955 25.7049L14.3693 25.7487ZM13.4217 1.7757L31.3595 37.3935L32.855 36.6403L14.9172 1.02255L13.4217 1.7757ZM32.0853 37.8538L32.7571 37.8714L32.8009 36.1976L32.1292 36.18L32.0853 37.8538ZM33.6159 37.0564L34.2831 11.5771L32.6093 11.5333L31.9421 37.0126L33.6159 37.0564ZM34.2831 11.5771C34.3436 9.26672 34.391 7.4622 34.4717 6.18721L32.8006 6.08145C32.7175 7.39506 32.6694 9.23729 32.6093 11.5333L34.2831 11.5771ZM34.4717 6.18721C34.5529 4.90514 34.6718 3.95886 34.8157 3.36368L33.1882 2.9701C33.0091 3.71092 32.8833 4.77493 32.8006 6.08146L34.4717 6.18721ZM34.8157 3.36368C34.8895 3.05859 34.9653 2.83194 35.0408 2.67045C35.1182 2.50495 35.1737 2.45459 35.1812 2.44867L34.1433 1.13473C33.8566 1.3612 33.6627 1.66442 33.5239 1.96143C33.3832 2.26243 33.276 2.60719 33.1882 2.9701L34.8157 3.36368ZM35.1812 2.44867C35.4048 2.27202 35.7175 2.08488 36.1219 1.93529L35.5409 0.364885C34.9756 0.574028 34.508 0.84662 34.1433 1.13473L35.1812 2.44867ZM36.6683 1.172L36.6721 1.02805L34.9983 0.984222L34.9945 1.12817L36.6683 1.172ZM35.8571 0.169215L31.3946 0.0523614L31.3508 1.72621L35.8133 1.84306L35.8571 0.169215ZM30.5358 0.867368L30.532 1.01132L32.2059 1.05515L32.2096 0.9112L30.5358 0.867368ZM31.0623 1.81228C31.4944 1.98232 31.7888 2.18127 31.9983 2.36533L33.1036 1.10751C32.7498 0.796644 32.2891 0.49566 31.6755 0.254188L31.0623 1.81228ZM31.9983 2.36533C32.0055 2.37162 32.0583 2.42483 32.1269 2.59415C32.1938 2.75937 32.2576 2.98967 32.3153 3.29821L33.9612 2.99034C33.8926 2.62334 33.8035 2.27344 33.6788 1.96548C33.5557 1.66162 33.378 1.34867 33.1036 1.10751L31.9983 2.36533ZM32.3153 3.2982C32.4279 3.9001 32.4972 4.85131 32.5111 6.13587L34.1854 6.11772C34.1713 4.80865 34.1014 3.73953 33.9612 2.99034L32.3153 3.2982ZM32.5111 6.13587C32.525 7.41334 32.4779 9.21786 32.4174 11.5283L34.0912 11.5721C34.1513 9.27609 34.1997 7.43387 34.1854 6.11772L32.5111 6.13587ZM32.4174 11.5283L31.9977 27.5548L33.6715 27.5986L34.0912 11.5721L32.4174 11.5283ZM33.5813 27.198L20.4772 1.35815L18.9838 2.11548L32.0879 27.9554L33.5813 27.198ZM20.4758 1.35529C20.1928 0.802525 19.9177 0.372705 19.6924 0.135275L18.4779 1.28787C18.5329 1.34588 18.7201 1.6004 18.9853 2.11834L20.4758 1.35529ZM19.6924 0.13527C19.2989 -0.279462 18.7407 -0.32701 18.3923 -0.336131L18.3485 1.33771C18.4134 1.33941 18.4644 1.34311 18.5041 1.34789C18.5442 1.3527 18.5669 1.35793 18.5769 1.3607C18.5966 1.36618 18.5412 1.35462 18.4779 1.28787L19.6924 0.13527ZM18.3923 -0.336131L11.9625 -0.504501L11.9187 1.16934L18.3485 1.33771L18.3923 -0.336131ZM11.1037 0.310506L11.0999 0.454454L12.7738 0.498285L12.7775 0.354337L11.1037 0.310506ZM11.6754 1.2717C12.0783 1.40418 12.3474 1.55887 12.5208 1.71124L13.626 0.453418C13.2362 0.110872 12.7475 -0.138406 12.1983 -0.318959L11.6754 1.2717ZM12.5208 1.71124C12.5279 1.71754 12.5807 1.77074 12.6493 1.94006C12.7162 2.10528 12.7801 2.33558 12.8378 2.64412L14.4837 2.33626C14.415 1.96925 14.326 1.61935 14.2012 1.31139C14.0781 1.00753 13.9005 0.694579 13.626 0.453417L12.5208 1.71124ZM12.8378 2.64412C12.9502 3.24525 13.0196 4.19582 13.0323 5.52866L14.7066 5.51272C14.6937 4.15597 14.6239 3.0862 14.4837 2.33626L12.8378 2.64412ZM13.0323 5.52866C13.0449 6.85483 12.9965 8.70811 12.9348 11.0661L14.6086 11.11C14.67 8.76558 14.7196 6.87614 14.7066 5.51272L13.0323 5.52866ZM12.9348 11.0661L12.5503 25.7491L14.2241 25.7929L14.6086 11.11L12.9348 11.0661ZM12.5503 25.7491C12.4898 28.0595 12.4424 29.864 12.3617 31.139L14.0328 31.2448C14.1159 29.9312 14.164 28.0889 14.2241 25.7929L12.5503 25.7491ZM12.3617 31.139C12.2806 32.4211 12.1616 33.3674 12.0177 33.9625L13.6452 34.3561C13.8243 33.6153 13.9501 32.5513 14.0328 31.2448L12.3617 31.139ZM12.0177 33.9625C11.8719 34.5655 11.6789 34.8174 11.6043 34.8763L12.6422 36.1902C13.1559 35.7844 13.4679 35.0892 13.6452 34.3561L12.0177 33.9625ZM11.6043 34.8763C11.3807 35.0529 11.0679 35.2401 10.6636 35.3897L11.2445 36.9601C11.8099 36.7509 12.2774 36.4783 12.6422 36.1902L11.6043 34.8763ZM11.791 36.1968L11.7922 36.1488L10.1184 36.105L10.1171 36.153L11.791 36.1968ZM35.8374 36.7785L35.8593 35.9415L35.0224 35.9196L35.0005 36.7565L35.8374 36.7785ZM35.8336 36.9224L34.9967 36.9005L34.9748 37.7374L35.8117 37.7593L35.8336 36.9224ZM44.8065 37.1574L44.7846 37.9943L45.6216 38.0162L45.6435 37.1793L44.8065 37.1574ZM44.8103 37.0134L45.6472 37.0353L45.664 36.3961L45.0517 36.2118L44.8103 37.0134ZM43.6258 36.4062L43.0732 37.0351L43.6258 36.4062ZM43.0372 35.0463L43.8601 34.8924L43.8601 34.8924L43.0372 35.0463ZM42.8285 32.0158L41.9913 32.0238L42.8285 32.0158ZM43.1587 17.5715L43.8852 17.1554L42.4 14.5622L42.3218 17.5496L43.1587 17.5715ZM52.2043 33.3657L52.9402 32.9665L52.9356 32.958L52.9308 32.9496L52.2043 33.3657ZM53.2843 36.1309L54.1202 36.0833L54.1202 36.0833L53.2843 36.1309ZM52.2453 37.3041L52.0014 36.5032L51.4241 36.679L51.4083 37.2822L52.2453 37.3041ZM52.2427 37.4001L51.4058 37.3782L51.3839 38.2151L52.2208 38.237L52.2427 37.4001ZM60.7358 37.6225L60.7139 38.4594L61.5508 38.4813L61.5728 37.6444L60.7358 37.6225ZM60.7383 37.5265L61.5753 37.5485L61.5888 37.0312L61.1322 36.7878L60.7383 37.5265ZM60.0312 37.0279L60.6384 36.4516L60.0312 37.0279ZM59.3782 36.2905L60.0352 35.7716L59.3782 36.2905ZM58.6861 35.216L57.9439 35.6033L58.6861 35.216ZM57.8639 33.61L58.6112 33.2325L58.6033 33.2169L58.5948 33.2016L57.8639 33.61ZM46.9476 14.0695L46.3463 13.487L45.9131 13.9342L46.2168 14.4778L46.9476 14.0695ZM55.9294 4.79744L55.3284 4.21467L55.3281 4.21494L55.9294 4.79744ZM58.5859 2.37015L58.093 1.69342L58.093 1.69342L58.5859 2.37015ZM60.0493 1.49616L60.3588 2.27404L60.8717 2.06993L60.8862 1.51807L60.0493 1.49616ZM60.0518 1.40019L60.8887 1.42211L60.9106 0.585183L60.0737 0.563267L60.0518 1.40019ZM55.4454 1.27957L55.4673 0.442644L54.6304 0.420728L54.6084 1.25765L55.4454 1.27957ZM55.4429 1.37553L54.6059 1.35362L54.5896 1.97631L55.1814 2.17086L55.4429 1.37553ZM56.5327 1.93225L55.9927 2.57209L55.9927 2.57209L56.5327 1.93225ZM56.7992 2.75551L55.9738 2.61545L55.9738 2.61546L56.7992 2.75551ZM54.6075 5.77117L54.0106 5.18409L54.0064 5.1884L54.6075 5.77117ZM43.2572 17.4781L42.4202 17.4562L42.364 19.602L43.8582 18.0608L43.2572 17.4781ZM43.97 3.0918L43.1562 2.89501L43.1562 2.89501L43.97 3.0918ZM44.629 1.76459L45.1479 2.42156L45.1479 2.42156L44.629 1.76459ZM45.8436 1.2202L46.0427 2.0334L46.6638 1.88136L46.6805 1.24212L45.8436 1.2202ZM45.8474 1.07625L46.6843 1.09817L46.7062 0.261244L45.8693 0.239328L45.8474 1.07625ZM36.8745 0.841287L36.8964 0.00436397L36.0595 -0.0175517L36.0375 0.819371L36.8745 0.841287ZM36.8707 0.985238L36.0338 0.963323L36.0175 1.58602L36.6092 1.78057L36.8707 0.985238ZM38.5946 2.99905L37.7716 3.15298L37.7716 3.15299L38.5946 2.99905ZM38.8033 6.02956L39.6405 6.02159L38.8033 6.02956ZM38.1273 31.8447L38.9629 31.8965L38.1273 31.8447ZM37.7603 34.8601L38.574 35.0569L37.7603 34.8601ZM37.0521 36.2341L36.5331 35.5771L37.0521 36.2341ZM35.8854 36.7797L35.8635 37.6166L35.9863 37.6199L36.1049 37.5876L35.8854 36.7797ZM35.0005 36.7565L34.9967 36.9005L36.6705 36.9443L36.6743 36.8004L35.0005 36.7565ZM35.8117 37.7593L44.7846 37.9943L44.8285 36.3204L35.8555 36.0855L35.8117 37.7593ZM45.6435 37.1793L45.6472 37.0353L43.9734 36.9915L43.9696 37.1355L45.6435 37.1793ZM45.0517 36.2118C44.6087 36.0784 44.3466 35.9251 44.1784 35.7773L43.0732 37.0351C43.4682 37.3822 43.9639 37.6329 44.569 37.8151L45.0517 36.2118ZM44.1784 35.7773C44.1211 35.7269 43.9805 35.536 43.8601 34.8924L42.2143 35.2003C42.3466 35.9078 42.5673 36.5906 43.0732 37.0351L44.1784 35.7773ZM43.8601 34.8924C43.7477 34.2913 43.6783 33.3407 43.6656 32.0079L41.9913 32.0238C42.0042 33.3805 42.074 34.4503 42.2143 35.2003L43.8601 34.8924ZM43.6656 32.0079C43.653 30.6817 43.7014 28.8284 43.7631 26.4704L42.0893 26.4266C42.0279 28.7709 41.9783 30.6604 41.9913 32.0238L43.6656 32.0079ZM43.7631 26.4704L43.9956 17.5934L42.3218 17.5496L42.0893 26.4266L43.7631 26.4704ZM42.4322 17.9876L51.4778 33.7818L52.9308 32.9496L43.8852 17.1554L42.4322 17.9876ZM51.4685 33.765C51.8021 34.38 52.0468 34.8939 52.2098 35.3114C52.3771 35.7398 52.4394 36.019 52.4485 36.1786L54.1202 36.0833C54.0964 35.6658 53.9622 35.1956 53.7695 34.7023C53.5725 34.198 53.2936 33.6178 52.9402 32.9665L51.4685 33.765ZM52.4485 36.1786C52.4516 36.2336 52.4445 36.2592 52.4422 36.2665C52.4404 36.2719 52.4377 36.2792 52.4254 36.2929C52.3937 36.3283 52.2869 36.4163 52.0014 36.5032L52.4891 38.105C52.9296 37.9709 53.3589 37.7608 53.6734 37.4092C54.0109 37.0319 54.1478 36.5686 54.1202 36.0833L52.4485 36.1786ZM51.4083 37.2822L51.4058 37.3782L53.0797 37.422L53.0822 37.3261L51.4083 37.2822ZM52.2208 38.237L60.7139 38.4594L60.7577 36.7856L52.2647 36.5632L52.2208 38.237ZM61.5728 37.6444L61.5753 37.5485L59.9014 37.5046L59.8989 37.6006L61.5728 37.6444ZM61.1322 36.7878C60.8723 36.6492 60.7315 36.5496 60.6384 36.4516L59.4239 37.6042C59.7046 37.9 60.0361 38.1009 60.3445 38.2653L61.1322 36.7878ZM60.6384 36.4516C60.4505 36.2535 60.2412 36.0324 60.0352 35.7716L58.7213 36.8095C58.98 37.137 59.238 37.4083 59.4239 37.6042L60.6384 36.4516ZM60.0352 35.7716C59.8333 35.516 59.6313 35.2176 59.4284 34.8287L57.9439 35.6033C58.1982 36.0907 58.4584 36.4767 58.7213 36.8095L60.0352 35.7716ZM59.4284 34.8287C59.202 34.3949 58.9297 33.863 58.6112 33.2325L57.1166 33.9874C57.4372 34.622 57.713 35.1609 57.9439 35.6033L59.4284 34.8287ZM58.5948 33.2016L47.6785 13.6612L46.2168 14.4778L57.133 34.0183L58.5948 33.2016ZM47.549 14.652L56.5308 5.37995L55.3281 4.21494L46.3463 13.487L47.549 14.652ZM56.5305 5.38022C57.6523 4.22315 58.499 3.46918 59.0788 3.04688L58.093 1.69342C57.4001 2.19811 56.4766 3.03036 55.3284 4.21467L56.5305 5.38022ZM59.0788 3.04688C59.6871 2.60378 60.1105 2.37284 60.3588 2.27404L59.7397 0.718271C59.3087 0.889789 58.7574 1.20951 58.093 1.69342L59.0788 3.04688ZM60.8862 1.51807L60.8887 1.42211L59.2149 1.37827L59.2123 1.47424L60.8862 1.51807ZM60.0737 0.563267L55.4673 0.442644L55.4234 2.11649L60.0299 2.23711L60.0737 0.563267ZM54.6084 1.25765L54.6059 1.35362L56.2798 1.39745L56.2823 1.30148L54.6084 1.25765ZM55.1814 2.17086C55.5935 2.30635 55.8656 2.46486 55.9927 2.57209L57.0726 1.29242C56.7299 1.00321 56.2444 0.757749 55.7043 0.580204L55.1814 2.17086ZM55.9927 2.57209C55.9937 2.5729 55.9904 2.57018 55.9859 2.56357C55.9815 2.55694 55.9788 2.55072 55.9776 2.54697C55.9751 2.53896 55.9836 2.55766 55.9738 2.61545L57.6246 2.89557C57.7215 2.32441 57.574 1.71554 57.0726 1.29241L55.9927 2.57209ZM55.9738 2.61546C55.948 2.76768 55.8277 3.07103 55.5177 3.49011L56.8638 4.4859C57.2507 3.9629 57.5369 3.4126 57.6246 2.89556L55.9738 2.61546ZM55.5177 3.49011C55.2037 3.91446 54.6914 4.49196 54.0106 5.1841L55.2044 6.35824C55.9049 5.64606 56.4808 5.00363 56.8638 4.4859L55.5177 3.49011ZM54.0064 5.1884L42.6561 16.8953L43.8582 18.0608L55.2086 6.35394L54.0064 5.1884ZM44.0941 17.5L44.2461 11.694L42.5723 11.6501L42.4202 17.4562L44.0941 17.5ZM44.2461 11.694C44.3079 9.33596 44.3565 7.48269 44.4385 6.15899L42.7673 6.05545C42.683 7.41632 42.6337 9.30577 42.5723 11.6501L44.2461 11.694ZM44.4385 6.15899C44.521 4.82864 44.64 3.88301 44.7837 3.28858L43.1562 2.89501C42.9769 3.63658 42.8512 4.70124 42.7673 6.05545L44.4385 6.15899ZM44.7837 3.28859C44.9376 2.65218 45.088 2.46888 45.1479 2.42156L44.11 1.10762C43.5815 1.52506 43.3254 2.19541 43.1562 2.89501L44.7837 3.28859ZM45.1479 2.42156C45.3236 2.28278 45.5933 2.1434 46.0427 2.0334L45.6446 0.407003C45.0308 0.557258 44.5227 0.781645 44.11 1.10762L45.1479 2.42156ZM46.6805 1.24212L46.6843 1.09817L45.0105 1.05434L45.0067 1.19829L46.6805 1.24212ZM45.8693 0.239328L36.8964 0.00436397L36.8526 1.67821L45.8255 1.91317L45.8693 0.239328ZM36.0375 0.819371L36.0338 0.963323L37.7076 1.00715L37.7114 0.863202L36.0375 0.819371ZM36.6092 1.78057C37.0122 1.91305 37.2812 2.06774 37.4546 2.22011L38.5599 0.962283C38.17 0.619737 37.6814 0.370459 37.1322 0.189908L36.6092 1.78057ZM37.4546 2.22011C37.4618 2.2264 37.5146 2.27961 37.5832 2.44892C37.6501 2.61415 37.7139 2.84445 37.7716 3.15298L39.4175 2.84512C39.3489 2.47812 39.2598 2.12822 39.1351 1.82026C39.012 1.5164 38.8343 1.20344 38.5599 0.962283L37.4546 2.22011ZM37.7716 3.15299C37.8841 3.75412 37.9535 4.70468 37.9661 6.03753L39.6405 6.02159C39.6276 4.66484 39.5578 3.59507 39.4175 2.84512L37.7716 3.15299ZM37.9661 6.03753C37.9788 7.3637 37.9304 9.21697 37.8686 11.575L39.5425 11.6188C39.6039 9.27445 39.6535 7.38501 39.6405 6.02159L37.9661 6.03753ZM37.8686 11.575L37.4841 26.258L39.158 26.3018L39.5425 11.6188L37.8686 11.575ZM37.4841 26.258C37.4224 28.616 37.3737 30.4692 37.2917 31.7929L38.9629 31.8965C39.0473 30.5356 39.0966 28.6462 39.158 26.3018L37.4841 26.258ZM37.2917 31.7929C37.2093 33.1233 37.0903 34.0689 36.9465 34.6633L38.574 35.0569C38.7534 34.3153 38.879 33.2507 38.9629 31.8965L37.2917 31.7929ZM36.9465 34.6633C36.8007 35.2663 36.6077 35.5182 36.5331 35.5771L37.571 36.891C38.0848 36.4852 38.3967 35.79 38.574 35.0569L36.9465 34.6633ZM36.5331 35.5771C36.352 35.7202 36.0752 35.8606 35.6659 35.9718L36.1049 37.5876C36.6627 37.4361 37.1638 37.2127 37.571 36.891L36.5331 35.5771ZM35.9073 35.9428L35.8593 35.9415L35.8155 37.6154L35.8635 37.6166L35.9073 35.9428ZM69.6227 37.6632L70.4596 37.6851L68.8839 37.2693L69.6227 37.6632ZM69.6189 37.8071L68.782 37.7852L68.7601 38.6221L69.597 38.644L69.6189 37.8071ZM89.3527 37.8437L90.1691 38.0293L90.1731 38.0118L90.1763 37.9941L89.3527 37.8437ZM90.4177 32.0136L91.2413 32.164L91.417 31.2022L90.4396 31.1766L90.4177 32.0136ZM90.2737 32.0098L90.2957 31.1729L89.6708 31.1565L89.4775 31.751L90.2737 32.0098ZM88.8953 35.1428L89.6055 35.586L88.8953 35.1428ZM87.1189 36.9689L87.553 37.6848L87.1189 36.9689ZM84.793 37.7723L84.6771 36.9432L84.793 37.7723ZM76.4856 37.7948L75.6487 37.7729L75.6268 38.6099L76.4637 38.6318L76.4856 37.7948ZM77.7048 4.07121L76.891 3.87442L76.891 3.87442L77.7048 4.07121ZM79.5784 2.19961L79.7775 3.01281L80.3986 2.86076L80.4153 2.22153L79.5784 2.19961ZM79.5822 2.05566L80.4191 2.07757L80.441 1.24065L79.6041 1.21874L79.5822 2.05566ZM70.5613 1.81944L70.5832 0.982516L69.7463 0.9606L69.7244 1.79752L70.5613 1.81944ZM70.5575 1.96339L69.7206 1.94147L69.7043 2.56417L70.296 2.75872L70.5575 1.96339ZM72.4901 7.00771L73.3273 6.99974L72.4901 7.00771ZM71.8141 32.8229L72.6497 32.8746L71.8141 32.8229ZM71.4471 35.8383L70.6333 35.6415L71.4471 35.8383ZM70.7389 37.2122L70.2199 36.5552L70.7389 37.2122ZM69.5722 37.7579L68.8334 37.364L67.9218 39.0738L69.7917 38.5658L69.5722 37.7579ZM68.7858 37.6412L68.782 37.7852L70.4558 37.829L70.4596 37.6851L68.7858 37.6412ZM69.597 38.644L88.7904 39.1466L88.8343 37.4728L69.6408 36.9702L69.597 38.644ZM88.7904 39.1466C88.8653 39.1486 89.1552 39.1684 89.4562 39.0276L88.7468 37.5109C88.8033 37.4845 88.8517 37.4765 88.8744 37.4743C88.8839 37.4734 88.8873 37.4736 88.8801 37.4736C88.8713 37.4737 88.8604 37.4735 88.8343 37.4728L88.7904 39.1466ZM89.4562 39.0276C89.9091 38.8158 90.096 38.3507 90.1691 38.0293L88.5363 37.6581C88.525 37.7078 88.5165 37.7122 88.5313 37.6883C88.5392 37.6756 88.5568 37.6499 88.5883 37.6191C88.6194 37.5886 88.671 37.5463 88.7468 37.5109L89.4562 39.0276ZM90.1763 37.9941L91.2413 32.164L89.5941 31.8631L88.5291 37.6932L90.1763 37.9941ZM90.4396 31.1766L90.2957 31.1729L90.2518 32.8467L90.3958 32.8505L90.4396 31.1766ZM89.4775 31.751C89.0726 32.9969 88.6384 33.9729 88.185 34.6996L89.6055 35.586C90.1545 34.7063 90.6393 33.5937 91.07 32.2686L89.4775 31.751ZM88.185 34.6996C87.7405 35.4119 87.2367 35.9183 86.6847 36.2531L87.553 37.6848C88.3671 37.191 89.0477 36.4799 89.6055 35.586L88.185 34.6996ZM86.6847 36.2531C86.1079 36.6029 85.4428 36.8361 84.6771 36.9432L84.909 38.6014C85.8782 38.4659 86.7636 38.1635 87.553 37.6848L86.6847 36.2531ZM84.6771 36.9432C83.8546 37.0582 82.8906 37.1251 81.7857 37.0961L81.7419 38.77C82.9402 38.8014 83.9965 38.7291 84.909 38.6014L84.6771 36.9432ZM81.7857 37.0961L76.5075 36.9579L76.4637 38.6318L81.7419 38.77L81.7857 37.0961ZM77.3225 37.8168L77.9809 12.6734L76.3071 12.6296L75.6487 37.7729L77.3225 37.8168ZM77.9809 12.6734C78.0427 10.3154 78.0913 8.4621 78.1733 7.1384L76.5021 7.03486C76.4178 8.39573 76.3685 10.2852 76.3071 12.6296L77.9809 12.6734ZM78.1733 7.1384C78.2558 5.80805 78.3748 4.86242 78.5185 4.268L76.891 3.87442C76.7117 4.61599 76.586 5.68064 76.5021 7.03486L78.1733 7.1384ZM78.5185 4.268C78.6724 3.63159 78.8228 3.44829 78.8827 3.40097L77.8448 2.08703C77.3163 2.50447 77.0602 3.17482 76.891 3.87442L78.5185 4.268ZM78.8827 3.40097C79.0584 3.26219 79.3281 3.12281 79.7775 3.01281L79.3794 1.38641C78.7655 1.53667 78.2575 1.76106 77.8448 2.08703L78.8827 3.40097ZM80.4153 2.22153L80.4191 2.07757L78.7453 2.03374L78.7415 2.1777L80.4153 2.22153ZM79.6041 1.21874L70.5832 0.982516L70.5394 2.65636L79.5603 2.89258L79.6041 1.21874ZM69.7244 1.79752L69.7206 1.94147L71.3944 1.98531L71.3982 1.84135L69.7244 1.79752ZM70.296 2.75872C70.699 2.8912 70.968 3.04589 71.1414 3.19826L72.2467 1.94044C71.8568 1.59789 71.3682 1.34861 70.819 1.16806L70.296 2.75872ZM71.1414 3.19826C71.1486 3.20456 71.2014 3.25776 71.27 3.42708C71.3369 3.5923 71.4007 3.8226 71.4585 4.13114L73.1043 3.82328C73.0357 3.45627 72.9466 3.10637 72.8219 2.79841C72.6988 2.49455 72.5211 2.1816 72.2467 1.94044L71.1414 3.19826ZM71.4585 4.13114C71.5709 4.73227 71.6403 5.68284 71.653 7.01568L73.3273 6.99974C73.3144 5.64299 73.2446 4.57322 73.1043 3.82328L71.4585 4.13114ZM71.653 7.01568C71.6656 8.34185 71.6172 10.1951 71.5554 12.5531L73.2293 12.597C73.2907 10.2526 73.3403 8.36316 73.3273 6.99974L71.653 7.01568ZM71.5554 12.5531L71.171 27.2361L72.8448 27.2799L73.2293 12.597L71.5554 12.5531ZM71.171 27.2361C71.1092 29.5941 71.0605 31.4474 70.9785 32.7711L72.6497 32.8746C72.7341 31.5138 72.7834 29.6243 72.8448 27.2799L71.171 27.2361ZM70.9785 32.7711C70.8961 34.1014 70.7771 35.0471 70.6333 35.6415L72.2608 36.0351C72.4402 35.2935 72.5658 34.2288 72.6497 32.8746L70.9785 32.7711ZM70.6333 35.6415C70.4875 36.2444 70.2945 36.4963 70.2199 36.5552L71.2578 37.8692C71.7716 37.4634 72.0836 36.7682 72.2608 36.0351L70.6333 35.6415ZM70.2199 36.5552C70.0388 36.6983 69.762 36.8387 69.3527 36.9499L69.7917 38.5658C70.3496 38.4142 70.8506 38.1909 71.2578 37.8692L70.2199 36.5552ZM70.311 38.1518L70.3614 38.057L68.8839 37.2693L68.8334 37.364L70.311 38.1518ZM91.1778 38.2276L92.0147 38.2495L90.439 37.8337L91.1778 38.2276ZM91.174 38.3715L90.3371 38.3496L90.3152 39.1866L91.1521 39.2085L91.174 38.3715ZM100.147 38.6065L100.125 39.4434L100.962 39.4653L100.984 38.6284L100.147 38.6065ZM100.151 38.4626L100.988 38.4845L101.004 37.8452L100.392 37.6609L100.151 38.4626ZM98.9662 37.8553L98.4136 38.4843L98.9662 37.8553ZM98.3776 36.4955L99.2005 36.3415L99.2005 36.3415L98.3776 36.4955ZM98.1689 33.465L97.3317 33.4729L98.1689 33.465ZM98.8449 7.64981L98.0092 7.59804L98.0092 7.59804L98.8449 7.64981ZM99.2119 4.63439L100.026 4.83118L100.026 4.83118L99.2119 4.63439ZM101.086 2.76279L101.285 3.57599L101.906 3.42395L101.922 2.78471L101.086 2.76279ZM101.089 2.61884L101.926 2.64076L101.948 1.80384L101.111 1.78192L101.089 2.61884ZM92.1164 2.38388L92.1383 1.54696L91.3014 1.52504L91.2795 2.36196L92.1164 2.38388ZM92.1126 2.52783L91.2757 2.50592L91.2594 3.12861L91.8511 3.32316L92.1126 2.52783ZM94.0452 7.57215L94.8824 7.56418L94.0452 7.57215ZM93.3693 33.3873L94.2049 33.4391L93.3693 33.3873ZM93.0022 36.4027L92.1884 36.2059L93.0022 36.4027ZM92.294 37.7767L91.775 37.1197L92.294 37.7767ZM91.1273 38.3223L90.3885 37.9284L89.4769 39.6382L91.3468 39.1302L91.1273 38.3223ZM90.3409 38.2057L90.3371 38.3496L92.0109 38.3935L92.0147 38.2495L90.3409 38.2057ZM91.1521 39.2085L100.125 39.4434L100.169 37.7696L91.1959 37.5346L91.1521 39.2085ZM100.984 38.6284L100.988 38.4845L99.3138 38.4406L99.31 38.5846L100.984 38.6284ZM100.392 37.6609C99.9491 37.5275 99.687 37.3742 99.5188 37.2264L98.4136 38.4843C98.8086 38.8314 99.3043 39.0821 99.9094 39.2642L100.392 37.6609ZM99.5188 37.2264C99.4615 37.176 99.3209 36.9851 99.2005 36.3415L97.5547 36.6494C97.687 37.3569 97.9077 38.0397 98.4136 38.4843L99.5188 37.2264ZM99.2005 36.3415C99.0881 35.7404 99.0187 34.7898 99.006 33.457L97.3317 33.4729C97.3446 34.8297 97.4144 35.8995 97.5547 36.6494L99.2005 36.3415ZM99.006 33.457C98.9934 32.1308 99.0418 30.2776 99.1036 27.9195L97.4297 27.8757C97.3683 30.2201 97.3187 32.1095 97.3317 33.4729L99.006 33.457ZM99.1036 27.9195L99.488 13.2366L97.8142 13.1927L97.4297 27.8757L99.1036 27.9195ZM99.488 13.2366C99.5498 10.8786 99.5984 9.02528 99.6805 7.70159L98.0092 7.59804C97.9249 8.95891 97.8756 10.8484 97.8142 13.1927L99.488 13.2366ZM99.6805 7.70159C99.7629 6.37123 99.8819 5.42561 100.026 4.83118L98.3982 4.4376C98.2188 5.17917 98.0932 6.24383 98.0092 7.59804L99.6805 7.70159ZM100.026 4.83118C100.18 4.19478 100.33 4.01147 100.39 3.96416L99.3519 2.65021C98.8235 3.06766 98.5673 3.73801 98.3982 4.4376L100.026 4.83118ZM100.39 3.96416C100.566 3.82537 100.835 3.686 101.285 3.57599L100.886 1.9496C100.273 2.09985 99.7646 2.32424 99.3519 2.65021L100.39 3.96416ZM101.922 2.78471L101.926 2.64076L100.252 2.59693L100.249 2.74088L101.922 2.78471ZM101.111 1.78192L92.1383 1.54696L92.0945 3.2208L101.067 3.45577L101.111 1.78192ZM91.2795 2.36196L91.2757 2.50592L92.9495 2.54975L92.9533 2.40579L91.2795 2.36196ZM91.8511 3.32316C92.2541 3.45564 92.5231 3.61034 92.6965 3.7627L93.8018 2.50488C93.4119 2.16233 92.9233 1.91306 92.3741 1.7325L91.8511 3.32316ZM92.6965 3.7627C92.7037 3.769 92.7565 3.8222 92.8251 3.99152C92.892 4.15674 92.9559 4.38704 93.0136 4.69558L94.6594 4.38772C94.5908 4.02071 94.5018 3.67081 94.377 3.36286C94.2539 3.05899 94.0762 2.74604 93.8018 2.50488L92.6965 3.7627ZM93.0136 4.69558C93.126 5.29671 93.1954 6.24728 93.2081 7.58012L94.8824 7.56418C94.8695 6.20743 94.7997 5.13766 94.6594 4.38772L93.0136 4.69558ZM93.2081 7.58012C93.2207 8.90629 93.1723 10.7596 93.1106 13.1176L94.7844 13.1614C94.8458 10.817 94.8954 8.9276 94.8824 7.56418L93.2081 7.58012ZM93.1106 13.1176L92.7261 27.8005L94.3999 27.8444L94.7844 13.1614L93.1106 13.1176ZM92.7261 27.8005C92.6643 30.1586 92.6157 32.0118 92.5336 33.3355L94.2049 33.4391C94.2892 32.0782 94.3385 30.1888 94.3999 27.8444L92.7261 27.8005ZM92.5336 33.3355C92.4512 34.6659 92.3322 35.6115 92.1884 36.2059L93.8159 36.5995C93.9953 35.8579 94.121 34.7933 94.2049 33.4391L92.5336 33.3355ZM92.1884 36.2059C92.0426 36.8089 91.8496 37.0607 91.775 37.1197L92.8129 38.4336C93.3267 38.0278 93.6387 37.3326 93.8159 36.5995L92.1884 36.2059ZM91.775 37.1197C91.5939 37.2628 91.3171 37.4032 90.9078 37.5144L91.3468 39.1302C91.9047 38.9787 92.4057 38.7553 92.8129 38.4336L91.775 37.1197ZM91.8661 38.7162L91.9166 38.6215L90.439 37.8337L90.3885 37.9284L91.8661 38.7162ZM101.296 38.6366L100.459 38.6147L100.437 39.4516L101.274 39.4735L101.296 38.6366ZM105.758 38.7534L105.736 39.5904L106.573 39.6123L106.595 38.7754L105.758 38.7534ZM105.762 38.6095L106.599 38.6314L106.614 38.0452L106.068 37.8304L105.762 38.6095ZM104.58 37.9063L105.132 37.2774L104.58 37.9063ZM103.992 36.4985L104.815 36.3445L103.992 36.4985ZM103.782 33.5159L104.62 33.5069L103.782 33.5159ZM104.513 3.76487L105.261 3.3883L103.677 3.74296L104.513 3.76487ZM122.451 39.3826L121.704 39.7592L121.929 40.2064L122.429 40.2196L122.451 39.3826ZM123.123 39.4002L123.101 40.2371L123.938 40.2591L123.96 39.4221L123.123 39.4002ZM123.98 8.50007L124.816 8.55295L124.816 8.55295L123.98 8.50007ZM124.346 5.53263L125.16 5.72942L125.16 5.72942L124.346 5.53263ZM125.006 4.15744L125.525 4.81442L125.525 4.81441L125.006 4.15744ZM126.175 3.51583L126.466 4.30103L126.998 4.10437L127.012 3.53774L126.175 3.51583ZM126.179 3.37188L127.016 3.3938L127.038 2.55687L126.201 2.53496L126.179 3.37188ZM121.717 3.25503L121.739 2.4181L120.902 2.39619L120.88 3.23311L121.717 3.25503ZM121.713 3.39897L120.876 3.37706L120.861 3.96326L121.406 4.17802L121.713 3.39897ZM122.895 4.10216L122.342 4.73107L122.342 4.73107L122.895 4.10216ZM123.482 5.51002L124.305 5.35609L124.305 5.35608L123.482 5.51002ZM123.692 8.49253L122.855 8.50161L122.855 8.50161L123.692 8.49253ZM123.179 29.9424L122.432 30.3211L124.016 29.9644L123.179 29.9424ZM110.075 4.10256L110.821 3.72389L110.82 3.72104L110.075 4.10256ZM109.429 3.07731L110.036 2.50102L110.036 2.50101L109.429 3.07731ZM102.285 2.69816L102.307 1.86124L101.47 1.83932L101.448 2.67625L102.285 2.69816ZM102.281 2.84211L101.444 2.8202L101.428 3.44289L102.019 3.63744L102.281 2.84211ZM103.417 3.44807L102.865 4.07698L103.417 3.44807ZM104.005 4.85593L103.182 5.00986L104.005 4.85593ZM104.214 7.88643L103.376 7.8944L104.214 7.88643ZM103.541 33.5576L102.706 33.5048L103.541 33.5576ZM103.175 36.5251L102.362 36.3283L103.175 36.5251ZM102.467 37.899L102.986 38.556L102.986 38.556L102.467 37.899ZM101.298 38.5406L100.461 38.5187L100.429 39.7549L101.589 39.3258L101.298 38.5406ZM100.462 38.4707L100.459 38.6147L102.132 38.6585L102.136 38.5146L100.462 38.4707ZM101.274 39.4735L105.736 39.5904L105.78 37.9165L101.317 37.7997L101.274 39.4735ZM106.595 38.7754L106.599 38.6314L104.925 38.5876L104.921 38.7315L106.595 38.7754ZM106.068 37.8304C105.636 37.6604 105.342 37.4615 105.132 37.2774L104.027 38.5352C104.381 38.8461 104.842 39.1471 105.455 39.3885L106.068 37.8304ZM105.132 37.2774C105.125 37.2711 105.072 37.2179 105.004 37.0486C104.937 36.8834 104.873 36.6531 104.815 36.3445L103.17 36.6524C103.238 37.0194 103.327 37.3693 103.452 37.6772C103.575 37.9811 103.753 38.2941 104.027 38.5352L105.132 37.2774ZM104.815 36.3445C104.703 35.7426 104.634 34.7914 104.62 33.5069L102.945 33.525C102.959 34.8341 103.029 35.9032 103.17 36.6524L104.815 36.3445ZM104.62 33.5069C104.606 32.2294 104.653 30.4249 104.713 28.1144L103.04 28.0706C102.979 30.3666 102.931 32.2089 102.945 33.525L104.62 33.5069ZM104.713 28.1144L105.35 3.78679L103.677 3.74296L103.04 28.0706L104.713 28.1144ZM103.766 4.14145L121.704 39.7592L123.199 39.0061L105.261 3.3883L103.766 4.14145ZM122.429 40.2196L123.101 40.2371L123.145 38.5633L122.473 38.5457L122.429 40.2196ZM123.96 39.4221L124.627 13.9429L122.953 13.899L122.286 39.3783L123.96 39.4221ZM124.627 13.9429C124.688 11.6325 124.735 9.82795 124.816 8.55295L123.145 8.4472C123.062 9.7608 123.013 11.603 122.953 13.899L124.627 13.9429ZM124.816 8.55295C124.897 7.27088 125.016 6.3246 125.16 5.72942L123.532 5.33584C123.353 6.07667 123.227 7.14067 123.145 8.4472L124.816 8.55295ZM125.16 5.72942C125.234 5.42433 125.309 5.19769 125.385 5.03619C125.462 4.8707 125.518 4.82033 125.525 4.81442L124.487 3.50047C124.201 3.72694 124.007 4.03017 123.868 4.32717C123.727 4.62818 123.62 4.97294 123.532 5.33584L125.16 5.72942ZM125.525 4.81441C125.749 4.63777 126.062 4.45063 126.466 4.30103L125.885 2.73063C125.32 2.93977 124.852 3.21236 124.487 3.50048L125.525 4.81441ZM127.012 3.53774L127.016 3.3938L125.342 3.34996L125.339 3.49391L127.012 3.53774ZM126.201 2.53496L121.739 2.4181L121.695 4.09195L126.157 4.2088L126.201 2.53496ZM120.88 3.23311L120.876 3.37706L122.55 3.42089L122.554 3.27694L120.88 3.23311ZM121.406 4.17802C121.838 4.34806 122.133 4.54701 122.342 4.73107L123.448 3.47325C123.094 3.16239 122.633 2.8614 122.02 2.61993L121.406 4.17802ZM122.342 4.73107C122.35 4.73737 122.402 4.79057 122.471 4.95989C122.538 5.12511 122.602 5.35541 122.659 5.66395L124.305 5.35608C124.237 4.98908 124.148 4.63918 124.023 4.33122C123.9 4.02736 123.722 3.71441 123.448 3.47325L122.342 4.73107ZM122.659 5.66395C122.772 6.26584 122.841 7.21705 122.855 8.50161L124.529 8.48346C124.515 7.17439 124.445 6.10527 124.305 5.35609L122.659 5.66395ZM122.855 8.50161C122.869 9.77908 122.822 11.5836 122.761 13.894L124.435 13.9378C124.495 11.6418 124.544 9.79961 124.529 8.48346L122.855 8.50161ZM122.761 13.894L122.342 29.9205L124.016 29.9644L124.435 13.9378L122.761 13.894ZM123.925 29.5638L110.821 3.7239L109.328 4.48122L122.432 30.3211L123.925 29.5638ZM110.82 3.72104C110.537 3.16827 110.262 2.73845 110.036 2.50102L108.822 3.65361C108.877 3.71162 109.064 3.96614 109.329 4.48408L110.82 3.72104ZM110.036 2.50101C109.643 2.08628 109.085 2.03873 108.736 2.02961L108.693 3.70346C108.757 3.70515 108.808 3.70885 108.848 3.71363C108.888 3.71844 108.911 3.72367 108.921 3.72645C108.941 3.73192 108.885 3.72036 108.822 3.65361L110.036 2.50101ZM108.736 2.02961L102.307 1.86124L102.263 3.53509L108.693 3.70346L108.736 2.02961ZM101.448 2.67625L101.444 2.8202L103.118 2.86403L103.122 2.72008L101.448 2.67625ZM102.019 3.63744C102.422 3.76992 102.691 3.92462 102.865 4.07698L103.97 2.81916C103.58 2.47661 103.092 2.22734 102.542 2.04678L102.019 3.63744ZM102.865 4.07698C102.872 4.08328 102.925 4.13648 102.993 4.3058C103.06 4.47102 103.124 4.70132 103.182 5.00986L104.828 4.702C104.759 4.33499 104.67 3.98509 104.545 3.67714C104.422 3.37328 104.244 3.06032 103.97 2.81916L102.865 4.07698ZM103.182 5.00986C103.294 5.61099 103.364 6.56156 103.376 7.8944L105.051 7.87846C105.038 6.52171 104.968 5.45194 104.828 4.702L103.182 5.00986ZM103.376 7.8944C103.389 9.22057 103.341 11.0738 103.279 13.4319L104.953 13.4757C105.014 11.1313 105.064 9.24188 105.051 7.87846L103.376 7.8944ZM103.279 13.4319L102.894 28.1148L104.568 28.1587L104.953 13.4757L103.279 13.4319ZM102.894 28.1148C102.834 30.4252 102.786 32.2298 102.706 33.5048L104.377 33.6105C104.46 32.2969 104.508 30.4547 104.568 28.1587L102.894 28.1148ZM102.706 33.5048C102.625 34.7868 102.506 35.7331 102.362 36.3283L103.989 36.7219C104.168 35.981 104.294 34.917 104.377 33.6105L102.706 33.5048ZM102.362 36.3283C102.216 36.9312 102.023 37.1831 101.948 37.242L102.986 38.556C103.5 38.1502 103.812 37.4549 103.989 36.7219L102.362 36.3283ZM101.948 37.242C101.725 37.4187 101.412 37.6058 101.008 37.7554L101.589 39.3258C102.154 39.1167 102.621 38.8441 102.986 38.556L101.948 37.242ZM102.135 38.5625L102.136 38.5146L100.462 38.4707L100.461 38.5187L102.135 38.5625ZM140.419 40.0452L140.441 39.2083L140.172 39.2012L139.95 39.3514L140.419 40.0452ZM143.886 39.6558L143.653 38.8517L143.886 39.6558ZM150.582 35.1736L151.266 35.656L151.412 35.4489L151.419 35.1955L150.582 35.1736ZM150.821 27.8813L151.655 27.945L151.655 27.945L150.821 27.8813ZM151.165 25.7296L151.96 25.9911L151.96 25.9911L151.165 25.7296ZM151.863 24.7395L152.309 25.4481L152.309 25.4481L151.863 24.7395ZM153.075 24.2911L153.275 25.1043L153.896 24.9523L153.912 24.313L153.075 24.2911ZM153.079 24.1472L153.916 24.1691L153.938 23.3322L153.101 23.3102L153.079 24.1472ZM144.202 23.9147L144.224 23.0778L143.387 23.0559L143.365 23.8928L144.202 23.9147ZM144.198 24.0587L143.362 24.0367L143.345 24.6594L143.937 24.854L144.198 24.0587ZM145.338 24.5687L144.855 25.2529L145.338 24.5687ZM145.983 25.5939L145.175 25.8134L145.983 25.5939ZM146.218 27.6167L145.381 27.6413L145.381 27.6413L146.218 27.6167ZM145.814 35.7209L146.639 35.861L145.814 35.7209ZM144.883 38.2415L145.576 38.7125L144.883 38.2415ZM143.118 39.6357L142.828 38.8505L143.118 39.6357ZM134.202 35.4169L133.443 35.7715L134.202 35.4169ZM132.629 29.4697L131.799 29.5802L132.629 29.4697ZM135.034 7.30102L135.75 7.73528L135.75 7.73528L135.034 7.30102ZM137.844 4.49363L138.226 5.23885L138.226 5.23885L137.844 4.49363ZM144.19 4.22763L143.917 5.01911L143.917 5.01911L144.19 4.22763ZM146.6 5.68323L147.165 5.06513L147.165 5.06513L146.6 5.68323ZM148.408 8.1794L147.656 8.54832L147.656 8.54832L148.408 8.1794ZM149.465 11.8083L148.636 11.9289L148.738 12.6268L149.443 12.6452L149.465 11.8083ZM149.609 11.8121L149.587 12.649L150.424 12.6709L150.446 11.834L149.609 11.8121ZM149.806 4.27867L150.643 4.30059L150.665 3.46366L149.828 3.44175L149.806 4.27867ZM149.662 4.2749L149.684 3.43798L149.048 3.42132L148.862 4.02979L149.662 4.2749ZM147.045 5.21471L147.405 4.45882L147.405 4.45882L147.045 5.21471ZM145.62 4.60121L145.927 3.82216L145.927 3.82216L145.62 4.60121ZM143.812 3.97766L144.063 3.17896L144.063 3.17896L143.812 3.97766ZM136.258 4.54813L135.941 3.77357L135.941 3.77357L136.258 4.54813ZM128.443 13.2745L127.664 12.9693L128.443 13.2745ZM127.789 29.1028L128.602 28.9052L127.789 29.1028ZM130.323 35.0272L129.633 35.5017L130.323 35.0272ZM134.496 38.8338L134.094 39.568L134.496 38.8338ZM140.077 40.2763L140.055 41.1132L140.323 41.1203L140.545 40.9701L140.077 40.2763ZM140.397 40.8821C141.707 40.9164 142.952 40.7979 144.119 40.46L143.653 38.8517C142.691 39.1302 141.625 39.2393 140.441 39.2083L140.397 40.8821ZM144.119 40.46C145.218 40.1418 146.243 39.7646 147.184 39.2739L146.409 37.7894C145.597 38.2131 144.683 38.5534 143.653 38.8517L144.119 40.46ZM147.184 39.2739C148.139 38.7755 148.936 38.1701 149.624 37.5173L148.471 36.3027C147.879 36.8649 147.207 37.3733 146.409 37.7894L147.184 39.2739ZM149.624 37.5173C150.296 36.88 150.829 36.2756 151.266 35.656L149.898 34.6911C149.537 35.203 149.08 35.7251 148.471 36.3027L149.624 37.5173ZM151.419 35.1955L151.508 31.7886L149.834 31.7448L149.745 35.1516L151.419 35.1955ZM151.508 31.7886C151.551 30.1481 151.584 28.8775 151.655 27.945L149.986 27.8176C149.911 28.8019 149.876 30.1225 149.834 31.7448L151.508 31.7886ZM151.655 27.945C151.727 27.0044 151.836 26.3687 151.96 25.9911L150.37 25.4681C150.181 26.0426 150.06 26.8414 149.986 27.8176L151.655 27.945ZM151.96 25.9911C152.072 25.6514 152.22 25.5042 152.309 25.4481L151.417 24.031C150.921 24.3436 150.571 24.8557 150.37 25.4681L151.96 25.9911ZM152.309 25.4481C152.484 25.3378 152.764 25.2292 153.275 25.1043L152.876 23.4779C152.323 23.6133 151.828 23.7724 151.417 24.031L152.309 25.4481ZM153.912 24.313L153.916 24.1691L152.242 24.1252L152.239 24.2692L153.912 24.313ZM153.101 23.3102L144.224 23.0778L144.18 24.7516L153.057 24.9841L153.101 23.3102ZM143.365 23.8928L143.362 24.0367L145.035 24.0806L145.039 23.9366L143.365 23.8928ZM143.937 24.854C144.402 25.007 144.681 25.1299 144.855 25.2529L145.82 23.8844C145.429 23.6085 144.947 23.4233 144.46 23.2633L143.937 24.854ZM144.855 25.2529C144.941 25.3136 145.081 25.4683 145.175 25.8134L146.791 25.3744C146.622 24.7522 146.3 24.2226 145.82 23.8844L144.855 25.2529ZM145.175 25.8134C145.281 26.2037 145.357 26.802 145.381 27.6413L147.055 27.5922C147.029 26.7016 146.948 25.9513 146.791 25.3744L145.175 25.8134ZM145.381 27.6413C145.406 28.4774 145.377 29.6013 145.337 31.0989L147.011 31.1427C147.05 29.6653 147.081 28.486 147.055 27.5922L145.381 27.6413ZM145.337 31.0989L145.315 31.9626L146.989 32.0064L147.011 31.1427L145.337 31.0989ZM145.315 31.9626C145.277 33.4148 145.151 34.6201 144.988 35.5809L146.639 35.861C146.817 34.814 146.949 33.5292 146.989 32.0064L145.315 31.9626ZM144.988 35.5809C144.832 36.5031 144.555 37.2364 144.191 37.7704L145.576 38.7125C146.111 37.9256 146.455 36.9465 146.639 35.861L144.988 35.5809ZM144.191 37.7704C143.837 38.2916 143.387 38.6438 142.828 38.8505L143.409 40.4209C144.305 40.0895 145.031 39.5122 145.576 38.7125L144.191 37.7704ZM142.828 38.8505C142.238 39.0686 141.393 39.1852 140.298 39.1565L140.254 40.8304C141.463 40.862 142.544 40.7409 143.409 40.4209L142.828 38.8505ZM140.298 39.1565C139.212 39.1281 138.233 38.8132 137.338 38.1682L136.359 39.5265C137.538 40.3762 138.845 40.7935 140.254 40.8304L140.298 39.1565ZM137.338 38.1682C136.446 37.525 135.644 36.525 134.96 35.0622L133.443 35.7715C134.214 37.4199 135.178 38.6748 136.359 39.5265L137.338 38.1682ZM134.96 35.0622C134.28 33.6086 133.773 31.7159 133.459 29.3591L131.799 29.5802C132.127 32.0419 132.668 34.114 133.443 35.7715L134.96 35.0622ZM133.459 29.3591C133.145 27.007 133.029 24.1698 133.117 20.7915L131.444 20.7476C131.354 24.183 131.47 27.1138 131.799 29.5802L133.459 29.3591ZM133.117 20.7915C133.202 17.5548 133.463 14.8847 133.936 12.7629L132.302 12.3985C131.796 14.6686 131.53 17.4585 131.444 20.7476L133.117 20.7915ZM133.936 12.7629C134.416 10.6112 135.013 8.94943 135.75 7.73528L134.318 6.86676C133.449 8.29948 132.802 10.1583 132.302 12.3985L133.936 12.7629ZM135.75 7.73528C136.495 6.50701 137.328 5.69871 138.226 5.23885L137.463 3.7484C136.22 4.38485 135.179 5.44815 134.318 6.86676L135.75 7.73528ZM138.226 5.23885C139.167 4.75697 140.187 4.52817 141.3 4.55731L141.344 2.88347C139.962 2.84727 138.663 3.13396 137.463 3.7484L138.226 5.23885ZM141.3 4.55731C142.227 4.58158 143.098 4.73668 143.917 5.01911L144.463 3.43616C143.473 3.09503 142.432 2.91197 141.344 2.88347L141.3 4.55731ZM143.917 5.01911C144.701 5.28973 145.407 5.72733 146.036 6.30133L147.165 5.06513C146.386 4.35387 145.486 3.78908 144.463 3.43616L143.917 5.01911ZM146.036 6.30133C146.648 6.86105 147.192 7.60301 147.656 8.54832L149.159 7.81047C148.62 6.71283 147.959 5.79068 147.165 5.06513L146.036 6.30133ZM147.656 8.54832C148.111 9.47529 148.443 10.5975 148.636 11.9289L150.293 11.6877C150.08 10.2236 149.707 8.92645 149.159 7.81047L147.656 8.54832ZM149.443 12.6452L149.587 12.649L149.631 10.9752L149.487 10.9714L149.443 12.6452ZM150.446 11.834L150.643 4.30059L148.969 4.25676L148.772 11.7902L150.446 11.834ZM149.828 3.44175L149.684 3.43798L149.64 5.11183L149.784 5.11559L149.828 3.44175ZM148.862 4.02979C148.754 4.38006 148.635 4.556 148.554 4.63442C148.494 4.69314 148.456 4.70226 148.403 4.70087L148.359 6.37471C148.882 6.3884 149.353 6.19478 149.724 5.83265C150.075 5.49021 150.307 5.02716 150.463 4.52002L148.862 4.02979ZM148.403 4.70087C148.044 4.69148 147.73 4.61359 147.405 4.45882L146.685 5.9706C147.213 6.22231 147.758 6.35897 148.359 6.37471L148.403 4.70087ZM147.405 4.45882C146.957 4.24587 146.465 4.03374 145.927 3.82216L145.314 5.38025C145.822 5.58019 146.278 5.77706 146.685 5.9706L147.405 4.45882ZM145.927 3.82216C145.377 3.60583 144.737 3.39076 144.063 3.17896L143.561 4.77636C144.221 4.98361 144.818 5.18507 145.314 5.38025L145.927 3.82216ZM144.063 3.17896C143.296 2.93789 142.35 2.81379 141.298 2.78624L141.255 4.46009C142.218 4.48531 142.995 4.59839 143.561 4.77636L144.063 3.17896ZM141.298 2.78624C139.505 2.73928 137.701 3.05148 135.941 3.77357L136.576 5.32269C138.117 4.69071 139.689 4.41909 141.255 4.46009L141.298 2.78624ZM135.941 3.77357C134.169 4.50039 132.552 5.63934 131.141 7.17719L132.374 8.3096C133.631 6.94032 135.047 5.94993 136.576 5.32269L135.941 3.77357ZM131.141 7.17719C129.723 8.72141 128.568 10.6593 127.664 12.9693L129.223 13.5798C130.068 11.4221 131.123 9.67251 132.374 8.3096L131.141 7.17719ZM127.664 12.9693C126.743 15.3201 126.279 18.0997 126.196 21.2825L127.87 21.3263C127.95 18.2711 128.394 15.6967 129.223 13.5798L127.664 12.9693ZM126.196 21.2825C126.119 24.2262 126.392 26.9007 126.975 29.3005L128.602 28.9052C128.058 26.6659 127.796 24.1405 127.87 21.3263L126.196 21.2825ZM126.975 29.3005C127.559 31.7014 128.455 33.7903 129.633 35.5017L131.012 34.5527C129.969 33.0368 129.146 31.1434 128.602 28.9052L126.975 29.3005ZM129.633 35.5017C130.814 37.2185 132.318 38.5947 134.094 39.568L134.899 38.0995C133.362 37.2574 132.052 36.0631 131.012 34.5527L129.633 35.5017ZM134.094 39.568C135.878 40.5454 137.871 41.0561 140.055 41.1132L140.098 39.4394C138.156 39.3885 136.428 38.9374 134.899 38.0995L134.094 39.568ZM140.545 40.9701L140.887 40.739L139.95 39.3514L139.608 39.5825L140.545 40.9701ZM153.5 39.8596L154.337 39.8815L154.368 38.7203L153.256 39.0587L153.5 39.8596ZM153.496 40.0035L152.659 39.9816L152.638 40.8185L153.475 40.8404L153.496 40.0035ZM174.334 40.069L175.15 40.2546L175.158 40.22L175.163 40.1849L174.334 40.069ZM175.043 34.9978L175.872 35.1137L176.002 34.1854L175.065 34.1609L175.043 34.9978ZM174.851 34.9928L174.873 34.1559L174.213 34.1386L174.042 34.7762L174.851 34.9928ZM171.998 39.4316L171.602 38.6941L171.998 39.4316ZM169.628 40.0898L169.693 40.9244L169.628 40.0898ZM160.315 39.99L159.478 39.9681L159.456 40.805L160.293 40.8269L160.315 39.99ZM160.824 20.5567L160.846 19.7197L160.009 19.6978L159.987 20.5347L160.824 20.5567ZM167.03 21.9196L166.381 22.4476L166.381 22.4476L167.03 21.9196ZM167.624 23.0875L168.425 22.8437L168.425 22.8437L167.624 23.0875ZM167.926 24.3919L167.104 24.552L167.233 25.2112L167.904 25.2288L167.926 24.3919ZM168.022 24.3944L168 25.2313L168.837 25.2532L168.859 24.4163L168.022 24.3944ZM168.222 16.765L169.059 16.7869L169.081 15.95L168.244 15.9281L168.222 16.765ZM168.126 16.7625L168.148 15.9256L167.476 15.908L167.314 16.5596L168.126 16.7625ZM167.756 18.0493L168.543 18.3347L168.543 18.3347L167.756 18.0493ZM167.102 19.1845L166.481 18.6232L166.481 18.6232L167.102 19.1845ZM165.832 20.0156L166.158 20.7865L166.158 20.7865L165.832 20.0156ZM160.833 20.2208L159.996 20.1989L159.974 21.0358L160.811 21.0577L160.833 20.2208ZM161.251 4.24226L161.273 3.40533L160.436 3.38342L160.414 4.22034L161.251 4.24226ZM169.594 4.7008L169.435 5.52274L169.435 5.52274L169.594 4.7008ZM171.781 5.52634L171.324 6.22762L171.324 6.22762L171.781 5.52634ZM173.326 7.05529L172.625 7.51366L172.625 7.51366L173.326 7.05529ZM174.32 9.43413L173.512 9.65363L173.675 10.2547L174.298 10.2711L174.32 9.43413ZM174.512 9.43916L174.49 10.2761L175.491 10.3023L175.339 9.31264L174.512 9.43916ZM173.856 5.14851L173.024 5.24518L173.026 5.26014L173.028 5.27503L173.856 5.14851ZM173.631 4.56643L173.237 5.30519L173.237 5.3052L173.631 4.56643ZM154.344 3.96535L154.366 3.12843L153.529 3.10651L153.507 3.94344L154.344 3.96535ZM154.34 4.1093L153.503 4.08739L153.487 4.71009L154.079 4.90463L154.34 4.1093ZM155.477 4.71526L156.029 4.08635L156.029 4.08635L155.477 4.71526ZM156.273 9.15362L157.11 9.14565L156.273 9.15362ZM155.597 34.9688L156.433 35.0205L155.597 34.9688ZM155.23 37.9842L156.044 38.181L155.23 37.9842ZM154.522 39.3581L154.003 38.7012L154.522 39.3581ZM153.355 39.9038L153.111 39.1029L153.574 40.7117L153.355 39.9038ZM152.663 39.8376L152.659 39.9816L154.333 40.0254L154.337 39.8815L152.663 39.8376ZM153.475 40.8404L173.82 41.3732L173.863 39.6993L153.518 39.1666L153.475 40.8404ZM173.82 41.3732C173.894 41.3752 174.184 41.395 174.485 41.2542L173.776 39.7375C173.832 39.711 173.881 39.7031 173.903 39.7009C173.913 39.6999 173.916 39.7002 173.909 39.7002C173.9 39.7002 173.89 39.7 173.863 39.6993L173.82 41.3732ZM174.485 41.2542C174.799 41.1073 174.946 40.845 175.012 40.697C175.08 40.545 175.122 40.3805 175.15 40.2546L173.517 39.8834C173.506 39.934 173.497 39.9692 173.49 39.9939C173.482 40.0196 173.48 40.0229 173.484 40.0127C173.487 40.0071 173.559 39.8388 173.776 39.7375L174.485 41.2542ZM175.163 40.1849L175.872 35.1137L174.214 34.8819L173.505 39.9531L175.163 40.1849ZM175.065 34.1609L174.873 34.1559L174.829 35.8297L175.021 35.8347L175.065 34.1609ZM174.042 34.7762C173.739 35.907 173.36 36.7734 172.965 37.3935L174.378 38.2923C174.885 37.4955 175.324 36.4627 175.66 35.2094L174.042 34.7762ZM172.965 37.3935C172.585 37.9915 172.146 38.4014 171.602 38.6941L172.394 40.1692C173.213 39.7293 173.857 39.1112 174.378 38.2923L172.965 37.3935ZM171.602 38.6941C171.035 38.9984 170.376 39.191 169.562 39.2552L169.693 40.9244C170.708 40.8445 171.597 40.5974 172.394 40.1692L171.602 38.6941ZM169.562 39.2552C168.686 39.3243 167.612 39.3436 166.383 39.3114L166.339 40.9852C167.606 41.0184 168.741 40.9995 169.693 40.9244L169.562 39.2552ZM166.383 39.3114L160.337 39.1531L160.293 40.8269L166.339 40.9852L166.383 39.3114ZM161.152 40.0119L161.661 20.5786L159.987 20.5347L159.478 39.9681L161.152 40.0119ZM160.802 21.3936L163.633 21.4677L163.677 19.7939L160.846 19.7197L160.802 21.3936ZM163.633 21.4677C164.51 21.4907 165.081 21.602 165.439 21.7761L166.172 20.2704C165.486 19.937 164.624 19.8187 163.677 19.7939L163.633 21.4677ZM165.439 21.7761C165.9 22.0002 166.207 22.2336 166.381 22.4476L167.68 21.3916C167.296 20.9188 166.754 20.5537 166.172 20.2704L165.439 21.7761ZM166.381 22.4476C166.574 22.6849 166.713 22.9682 166.823 23.3314L168.425 22.8437C168.27 22.3357 168.045 21.8411 167.68 21.3916L166.381 22.4476ZM166.823 23.3314C166.941 23.7191 167.018 24.1115 167.104 24.552L168.748 24.2317C168.664 23.8036 168.572 23.3272 168.425 22.8437L166.823 23.3314ZM167.904 25.2288L168 25.2313L168.044 23.5575L167.948 23.555L167.904 25.2288ZM168.859 24.4163L169.059 16.7869L167.385 16.7431L167.185 24.3725L168.859 24.4163ZM168.244 15.9281L168.148 15.9256L168.104 17.5994L168.2 17.6019L168.244 15.9281ZM167.314 16.5596C167.205 16.995 167.107 17.3828 166.969 17.7638L168.543 18.3347C168.715 17.8596 168.832 17.3887 168.938 16.9655L167.314 16.5596ZM166.969 17.7638C166.839 18.1208 166.686 18.3964 166.481 18.6232L167.723 19.7458C168.112 19.316 168.362 18.8339 168.543 18.3347L166.969 17.7638ZM166.481 18.6232C166.296 18.8279 165.977 19.0449 165.506 19.2446L166.158 20.7865C166.755 20.5341 167.315 20.1979 167.723 19.7458L166.481 18.6232ZM165.506 19.2446C165.139 19.3997 164.562 19.4809 163.686 19.458L163.642 21.1318C164.589 21.1566 165.456 21.0836 166.158 20.7865L165.506 19.2446ZM163.686 19.458L160.855 19.3839L160.811 21.0577L163.642 21.1318L163.686 19.458ZM161.67 20.2427L162.088 4.26417L160.414 4.22034L159.996 20.1989L161.67 20.2427ZM161.229 5.07918L166.555 5.21865L166.599 3.5448L161.273 3.40533L161.229 5.07918ZM166.555 5.21865C167.66 5.24758 168.62 5.36482 169.435 5.52274L169.753 3.87887C168.849 3.70365 167.798 3.57618 166.599 3.5448L166.555 5.21865ZM169.435 5.52274C170.221 5.67493 170.825 5.90205 171.324 6.22762L172.238 4.82505C171.51 4.35021 170.687 4.05981 169.753 3.87887L169.435 5.52274ZM171.324 6.22762C171.849 6.56985 172.278 6.98329 172.625 7.51366L174.026 6.59693C173.542 5.8571 172.941 5.28323 172.238 4.82505L171.324 6.22762ZM172.625 7.51366C172.976 8.05046 173.263 8.73685 173.512 9.65363L175.128 9.21463C174.851 8.19699 174.506 7.33032 174.026 6.59693L172.625 7.51366ZM174.298 10.2711L174.49 10.2761L174.534 8.60223L174.342 8.59721L174.298 10.2711ZM175.339 9.31264L174.683 5.022L173.028 5.27503L173.684 9.56567L175.339 9.31264ZM174.687 5.05185C174.662 4.83415 174.616 4.62238 174.54 4.43461C174.478 4.28174 174.335 3.9933 174.025 3.82766L173.237 5.3052C173.117 5.24131 173.052 5.16227 173.026 5.12663C173.011 5.1062 173.001 5.08999 172.996 5.08048C172.993 5.07553 172.992 5.07174 172.99 5.06929C172.989 5.06683 172.989 5.06548 172.989 5.06536C172.989 5.06525 172.99 5.06902 172.993 5.07731C172.995 5.08552 172.999 5.09726 173.002 5.11286C173.01 5.14439 173.018 5.1881 173.024 5.24518L174.687 5.05185ZM174.025 3.82767C173.853 3.73595 173.582 3.63162 173.272 3.62349L173.228 5.29733C173.218 5.29707 173.212 5.29612 173.212 5.29603C173.211 5.29592 173.213 5.29627 173.217 5.29756C173.222 5.29885 173.226 5.30052 173.231 5.30236C173.235 5.30424 173.238 5.30546 173.237 5.30519L174.025 3.82767ZM173.272 3.62349L154.366 3.12843L154.322 4.80227L173.228 5.29733L173.272 3.62349ZM153.507 3.94344L153.503 4.08739L155.177 4.13122L155.181 3.98727L153.507 3.94344ZM154.079 4.90463C154.482 5.03711 154.751 5.19181 154.924 5.34417L156.029 4.08635C155.64 3.7438 155.151 3.49452 154.602 3.31397L154.079 4.90463ZM154.924 5.34417C154.931 5.35047 154.984 5.40367 155.053 5.57299C155.12 5.73821 155.184 5.96852 155.241 6.27705L156.887 5.96919C156.818 5.60218 156.729 5.25229 156.605 4.94433C156.482 4.64047 156.304 4.32751 156.029 4.08635L154.924 5.34417ZM155.241 6.27705C155.354 6.87819 155.423 7.82875 155.436 9.16159L157.11 9.14565C157.097 7.7889 157.027 6.71913 156.887 5.96919L155.241 6.27705ZM155.436 9.16159C155.448 10.4878 155.4 12.341 155.338 14.6991L157.012 14.7429C157.073 12.3985 157.123 10.5091 157.11 9.14565L155.436 9.16159ZM155.338 14.6991L154.954 29.382L156.628 29.4259L157.012 14.7429L155.338 14.6991ZM154.954 29.382C154.892 31.74 154.843 33.5933 154.761 34.917L156.433 35.0205C156.517 33.6597 156.566 31.7702 156.628 29.4259L154.954 29.382ZM154.761 34.917C154.679 36.2474 154.56 37.193 154.416 37.7874L156.044 38.181C156.223 37.4394 156.349 36.3748 156.433 35.0205L154.761 34.917ZM154.416 37.7874C154.27 38.3903 154.077 38.6422 154.003 38.7012L155.041 40.0151C155.554 39.6093 155.866 38.9141 156.044 38.181L154.416 37.7874ZM154.003 38.7012C153.822 38.8442 153.545 38.9846 153.135 39.0959L153.574 40.7117C154.132 40.5601 154.633 40.3368 155.041 40.0151L154.003 38.7012ZM153.599 40.7047L153.744 40.6605L153.256 39.0587L153.111 39.1029L153.599 40.7047ZM175.895 40.59L175.058 40.5681L175.036 41.405L175.873 41.427L175.895 40.59ZM184.916 40.8263L184.894 41.6632L185.731 41.6851L185.753 40.8482L184.916 40.8263ZM184.92 40.6823L185.757 40.7042L185.773 40.065L185.161 39.8806L184.92 40.6823ZM183.735 40.0751L183.183 40.704L183.735 40.0751ZM183.147 38.7152L182.324 38.8692L182.324 38.8692L183.147 38.7152ZM182.938 35.6847L183.775 35.6768L182.938 35.6847ZM183.229 22.7279L183.251 21.891L182.414 21.8691L182.392 22.706L183.229 22.7279ZM186.678 23.0583L186.919 22.2566L186.678 23.0583ZM187.991 24.2451L188.715 23.8251L187.991 24.2451ZM188.923 27.1505L189.745 26.9903L188.923 27.1505ZM189.837 32.6003L189.01 32.733L189.011 32.7343L189.837 32.6003ZM190.921 37.0462L190.14 37.3478L190.921 37.0462ZM192.482 39.776L193.089 39.1997L192.482 39.776ZM194.607 41.1281L194.35 41.9248L194.607 41.1281ZM199.793 41.1198L200.171 41.8671L199.793 41.1198ZM201.262 40.0539L201.877 40.6215L202.408 40.0457L201.869 39.4776L201.262 40.0539ZM201.122 39.9062L201.729 39.3299L201.106 38.6741L200.5 39.3449L201.122 39.9062ZM200.19 40.65L199.794 39.9125L200.19 40.65ZM197.41 40.4332L196.928 41.1174L197.41 40.4332ZM196.297 38.9635L195.538 39.3182L196.297 38.9635ZM195.406 36.2993L194.591 36.4894L195.406 36.2993ZM194.648 32.2461L193.819 32.3659L193.82 32.3742L194.648 32.2461ZM193.606 28.0413L194.382 27.7277L193.606 28.0413ZM191.95 25.2611L192.577 24.706L191.95 25.2611ZM189.688 23.6173L190.012 22.8452L189.688 23.6173ZM186.825 22.9181L186.889 22.0833L186.728 23.7496L186.825 22.9181ZM187.784 22.9912L187.72 23.826L187.741 23.8276L187.762 23.8281L187.784 22.9912ZM192.165 22.5298L191.964 21.7171L191.964 21.7171L192.165 22.5298ZM195.857 20.8978L195.383 20.2081L195.857 20.8978ZM198.429 18.0362L197.697 17.6306L197.697 17.6306L198.429 18.0362ZM196.502 7.27805L196.027 7.96744L196.502 7.27805ZM176.882 4.74758L176.903 3.91066L176.067 3.88875L176.045 4.72567L176.882 4.74758ZM176.878 4.89153L176.041 4.86962L176.025 5.49232L176.616 5.68687L176.878 4.89153ZM178.014 5.49749L177.462 6.1264L178.014 5.49749ZM178.602 6.90535L177.779 7.05928L178.602 6.90535ZM178.81 9.93585L177.973 9.94382L178.81 9.93585ZM178.134 35.751L177.299 35.6992L178.134 35.751ZM177.767 38.7664L176.954 38.5696L177.767 38.7664ZM177.059 40.1404L176.54 39.4834L177.059 40.1404ZM175.892 40.686L175.056 40.6641L175.026 41.7889L176.112 41.4939L175.892 40.686ZM183.736 5.21516L183.758 4.37824L182.923 4.35638L182.899 5.19096L183.736 5.21516ZM190.727 5.92643L190.453 6.71731L190.453 6.71731L190.727 5.92643ZM193.181 7.57523L192.534 8.10679L192.534 8.10679L193.181 7.57523ZM192.981 20.7265L193.648 21.2327L192.981 20.7265ZM183.228 22.7759L182.391 22.7517L182.367 23.5908L183.206 23.6128L183.228 22.7759ZM175.062 40.4242L175.058 40.5681L176.732 40.612L176.736 40.468L175.062 40.4242ZM175.873 41.427L184.894 41.6632L184.938 39.9893L175.917 39.7531L175.873 41.427ZM185.753 40.8482L185.757 40.7042L184.083 40.6604L184.079 40.8043L185.753 40.8482ZM185.161 39.8806C184.718 39.7473 184.456 39.594 184.288 39.4462L183.183 40.704C183.578 41.0511 184.073 41.3018 184.678 41.484L185.161 39.8806ZM184.288 39.4462C184.23 39.3958 184.09 39.2049 183.969 38.5613L182.324 38.8692C182.456 39.5766 182.677 40.2595 183.183 40.704L184.288 39.4462ZM183.969 38.5613C183.857 37.9602 183.788 37.0096 183.775 35.6768L182.101 35.6927C182.114 37.0494 182.183 38.1192 182.324 38.8692L183.969 38.5613ZM183.775 35.6768C183.762 34.3506 183.811 32.4973 183.872 30.1393L182.199 30.0955C182.137 32.4398 182.088 34.3293 182.101 35.6927L183.775 35.6768ZM183.872 30.1393L184.066 22.7498L182.392 22.706L182.199 30.0955L183.872 30.1393ZM183.207 23.5648L184.407 23.5962L184.451 21.9224L183.251 21.891L183.207 23.5648ZM184.407 23.5962C185.319 23.6201 186.006 23.7303 186.436 23.86L186.919 22.2566C186.301 22.0707 185.457 21.9488 184.451 21.9224L184.407 23.5962ZM186.436 23.86C186.683 23.9343 186.96 24.1356 187.267 24.665L188.715 23.8251C188.287 23.0868 187.72 22.4979 186.919 22.2566L186.436 23.86ZM187.267 24.665C187.564 25.1777 187.853 26.0373 188.102 27.3106L189.745 26.9903C189.485 25.6574 189.153 24.5801 188.715 23.8251L187.267 24.665ZM188.102 27.3106C188.352 28.5961 188.637 30.4091 189.01 32.733L190.664 32.4676C190.293 30.1624 190.002 28.311 189.745 26.9903L188.102 27.3106ZM189.011 32.7343C189.303 34.5395 189.659 36.1035 190.14 37.3478L191.702 36.7445C191.283 35.6604 190.949 34.2294 190.663 32.4662L189.011 32.7343ZM190.14 37.3478C190.606 38.5547 191.158 39.597 191.875 40.3523L193.089 39.1997C192.591 38.6747 192.135 37.866 191.702 36.7445L190.14 37.3478ZM191.875 40.3523C192.575 41.09 193.402 41.6188 194.35 41.9248L194.864 40.3313C194.193 40.1147 193.604 39.7421 193.089 39.1997L191.875 40.3523ZM194.35 41.9248C195.235 42.2104 196.222 42.392 197.31 42.4205L197.354 40.7466C196.427 40.7224 195.599 40.5683 194.864 40.3313L194.35 41.9248ZM197.31 42.4205C198.42 42.4495 199.386 42.2637 200.171 41.8671L199.416 40.3725C198.936 40.615 198.26 40.7703 197.354 40.7466L197.31 42.4205ZM200.171 41.8671C200.878 41.5096 201.453 41.0812 201.877 40.6215L200.646 39.4863C200.378 39.7768 199.973 40.0909 199.416 40.3725L200.171 41.8671ZM201.869 39.4776L201.729 39.3299L200.514 40.4825L200.654 40.6302L201.869 39.4776ZM200.5 39.3449C200.262 39.6089 200.042 39.779 199.794 39.9125L200.586 41.3876C201.019 41.1548 201.388 40.8601 201.743 40.4675L200.5 39.3449ZM199.794 39.9125C199.624 40.0034 199.349 40.0786 198.861 40.0658L198.817 41.7397C199.48 41.757 200.073 41.6629 200.586 41.3876L199.794 39.9125ZM198.861 40.0658C198.495 40.0562 198.18 39.9512 197.893 39.749L196.928 41.1174C197.49 41.5136 198.127 41.7216 198.817 41.7397L198.861 40.0658ZM197.893 39.749C197.629 39.5631 197.337 39.2128 197.055 38.6089L195.538 39.3182C195.892 40.0754 196.343 40.7049 196.928 41.1174L197.893 39.749ZM197.055 38.6089C196.764 37.9861 196.468 37.1695 196.221 36.1093L194.591 36.4894C194.862 37.6515 195.193 38.5798 195.538 39.3182L197.055 38.6089ZM196.221 36.1093C195.969 35.025 195.72 33.6958 195.475 32.1179L193.82 32.3742C194.069 33.9783 194.325 35.3513 194.591 36.4894L196.221 36.1093ZM195.476 32.1263C195.227 30.398 194.866 28.926 194.382 27.7277L192.829 28.355C193.247 29.3891 193.581 30.7203 193.819 32.3659L195.476 32.1263ZM194.382 27.7277C193.903 26.5421 193.305 25.5286 192.577 24.706L191.323 25.8161C191.9 26.4682 192.406 27.3082 192.829 28.355L194.382 27.7277ZM192.577 24.706C191.846 23.8805 190.99 23.2554 190.012 22.8452L189.364 24.3894C190.096 24.6962 190.748 25.1669 191.323 25.8161L192.577 24.706ZM190.012 22.8452C189.064 22.4478 188.028 22.2163 186.923 22.0866L186.728 23.7496C187.729 23.8671 188.602 24.0698 189.364 24.3894L190.012 22.8452ZM186.762 23.7529L187.72 23.826L187.847 22.1564L186.889 22.0833L186.762 23.7529ZM187.762 23.8281C189.369 23.8702 190.889 23.7087 192.367 23.3424L191.964 21.7171C190.639 22.0456 189.269 22.1926 187.806 22.1543L187.762 23.8281ZM192.367 23.3424C193.86 22.9722 195.168 22.3881 196.332 21.5876L195.383 20.2081C194.395 20.8878 193.274 21.3925 191.964 21.7171L192.367 23.3424ZM196.332 21.5876C197.519 20.7707 198.446 19.7332 199.162 18.4417L197.697 17.6306C197.101 18.7057 196.347 19.5448 195.383 20.2081L196.332 21.5876ZM199.162 18.4417C199.896 17.1148 200.243 15.5919 200.287 13.9074L198.613 13.8636C198.574 15.346 198.272 16.5911 197.697 17.6306L199.162 18.4417ZM200.287 13.9074C200.372 10.666 199.287 8.18043 196.977 6.58867L196.027 7.96744C197.773 9.17082 198.687 11.059 198.613 13.8636L200.287 13.9074ZM196.977 6.58867C194.752 5.0551 191.456 4.29174 187.22 4.18081L187.176 5.85465C191.289 5.96235 194.196 6.70587 196.027 7.96744L196.977 6.58867ZM187.22 4.18081L176.903 3.91066L176.86 5.58451L187.176 5.85465L187.22 4.18081ZM176.045 4.72567L176.041 4.86962L177.715 4.91345L177.718 4.7695L176.045 4.72567ZM176.616 5.68687C177.019 5.81934 177.288 5.97404 177.462 6.1264L178.567 4.86858C178.177 4.52603 177.688 4.27676 177.139 4.0962L176.616 5.68687ZM177.462 6.1264C177.469 6.1327 177.522 6.1859 177.59 6.35522C177.657 6.52045 177.721 6.75075 177.779 7.05928L179.425 6.75142C179.356 6.38442 179.267 6.03452 179.142 5.72656C179.019 5.4227 178.841 5.10974 178.567 4.86858L177.462 6.1264ZM177.779 7.05928C177.891 7.66042 177.961 8.61098 177.973 9.94382L179.648 9.92788C179.635 8.57113 179.565 7.50136 179.425 6.75142L177.779 7.05928ZM177.973 9.94382C177.986 11.27 177.937 13.1233 177.876 15.4813L179.55 15.5251C179.611 13.1807 179.661 11.2913 179.648 9.92788L177.973 9.94382ZM177.876 15.4813L177.491 30.1643L179.165 30.2081L179.55 15.5251L177.876 15.4813ZM177.491 30.1643C177.429 32.5223 177.381 34.3755 177.299 35.6992L178.97 35.8028C179.054 34.4419 179.104 32.5525 179.165 30.2081L177.491 30.1643ZM177.299 35.6992C177.216 37.0296 177.097 37.9752 176.954 38.5696L178.581 38.9632C178.76 38.2216 178.886 37.157 178.97 35.8028L177.299 35.6992ZM176.954 38.5696C176.808 39.1726 176.615 39.4244 176.54 39.4834L177.578 40.7973C178.092 40.3915 178.404 39.6963 178.581 38.9632L176.954 38.5696ZM176.54 39.4834C176.359 39.6265 176.082 39.7669 175.673 39.8781L176.112 41.4939C176.67 41.3424 177.171 41.119 177.578 40.7973L176.54 39.4834ZM176.729 40.7079L176.736 40.468L175.062 40.4242L175.056 40.6641L176.729 40.7079ZM183.714 6.05209L186.929 6.13627L186.972 4.46242L183.758 4.37824L183.714 6.05209ZM186.929 6.13627C188.344 6.17334 189.5 6.38636 190.453 6.71731L191.002 5.13555C189.861 4.73945 188.532 4.50326 186.972 4.46242L186.929 6.13627ZM190.453 6.71731C191.371 7.03604 192.038 7.50258 192.534 8.10679L193.828 7.04366C193.115 6.1757 192.178 5.54388 191.002 5.13555L190.453 6.71731ZM192.534 8.10679C193.05 8.73439 193.453 9.53888 193.686 10.5368L195.316 10.1567C195.031 8.93225 194.522 7.88823 193.828 7.04366L192.534 8.10679ZM193.686 10.5368C193.924 11.5584 194.031 12.8304 193.992 14.3188L195.666 14.3626C195.707 12.7799 195.596 11.3574 195.316 10.1567L193.686 10.5368ZM193.992 14.3188C193.923 16.9483 193.316 18.9001 192.314 20.2202L193.648 21.2327C194.933 19.5397 195.591 17.2032 195.666 14.3626L193.992 14.3188ZM192.314 20.2202C191.386 21.4425 189.847 22.1117 187.472 22.0495L187.428 23.7234C190.14 23.7944 192.288 23.0236 193.648 21.2327L192.314 20.2202ZM187.472 22.0495L183.25 21.939L183.206 23.6128L187.428 23.7234L187.472 22.0495ZM184.065 22.8001L184.573 5.23936L182.899 5.19096L182.391 22.7517L184.065 22.8001ZM200.921 41.1013L201.758 41.1232L200.183 40.7074L200.921 41.1013ZM200.918 41.2453L200.081 41.2234L200.059 42.0603L200.896 42.0822L200.918 41.2453ZM209.891 41.4802L209.869 42.3172L210.706 42.3391L210.728 41.5022L209.891 41.4802ZM209.894 41.3363L210.731 41.3582L210.748 40.719L210.136 40.5346L209.894 41.3363ZM208.71 40.7291L208.157 41.358L208.71 40.7291ZM208.121 39.3692L208.944 39.2153L208.944 39.2153L208.121 39.3692ZM207.912 36.3387L207.075 36.3467L207.912 36.3387ZM208.588 10.5236L207.753 10.4718L207.753 10.4718L208.588 10.5236ZM208.956 7.50813L209.769 7.70492L209.769 7.70492L208.956 7.50813ZM210.829 5.63653L211.028 6.44973L211.649 6.29769L211.666 5.65845L210.829 5.63653ZM210.833 5.49258L211.67 5.5145L211.692 4.67757L210.855 4.65566L210.833 5.49258ZM201.86 5.25762L201.882 4.42069L201.045 4.39878L201.023 5.2357L201.86 5.25762ZM201.856 5.40157L201.019 5.37965L201.003 6.00235L201.595 6.1969L201.856 5.40157ZM203.789 10.4459L204.626 10.4379L203.789 10.4459ZM203.113 36.261L203.948 36.3128L203.113 36.261ZM202.746 39.2765L201.932 39.0797L202.746 39.2765ZM202.038 40.6504L201.519 39.9934L202.038 40.6504ZM200.871 41.196L200.132 40.8022L199.221 42.512L201.09 42.004L200.871 41.196ZM200.084 41.0794L200.081 41.2234L201.755 41.2672L201.758 41.1232L200.084 41.0794ZM200.896 42.0822L209.869 42.3172L209.912 40.6433L200.94 40.4084L200.896 42.0822ZM210.728 41.5022L210.731 41.3582L209.057 41.3144L209.054 41.4583L210.728 41.5022ZM210.136 40.5346C209.693 40.4013 209.431 40.248 209.262 40.1002L208.157 41.358C208.552 41.7051 209.048 41.9558 209.653 42.138L210.136 40.5346ZM209.262 40.1002C209.205 40.0498 209.065 39.8589 208.944 39.2153L207.298 39.5231C207.431 40.2306 207.651 40.9135 208.157 41.358L209.262 40.1002ZM208.944 39.2153C208.832 38.6141 208.762 37.6636 208.75 36.3307L207.075 36.3467C207.088 37.7034 207.158 38.7732 207.298 39.5231L208.944 39.2153ZM208.75 36.3307C208.737 35.0046 208.785 33.1513 208.847 30.7933L207.173 30.7494C207.112 33.0938 207.062 34.9833 207.075 36.3467L208.75 36.3307ZM208.847 30.7933L209.232 16.1103L207.558 16.0665L207.173 30.7494L208.847 30.7933ZM209.232 16.1103C209.293 13.7523 209.342 11.899 209.424 10.5753L207.753 10.4718C207.669 11.8327 207.619 13.7221 207.558 16.0665L209.232 16.1103ZM209.424 10.5753C209.507 9.24497 209.626 8.29935 209.769 7.70492L208.142 7.31134C207.962 8.05291 207.837 9.11757 207.753 10.4718L209.424 10.5753ZM209.769 7.70492C209.923 7.06851 210.074 6.88521 210.133 6.8379L209.096 5.52395C208.567 5.9414 208.311 6.61174 208.142 7.31134L209.769 7.70492ZM210.133 6.8379C210.309 6.69911 210.579 6.55973 211.028 6.44973L210.63 4.82333C210.016 4.97359 209.508 5.19798 209.096 5.52395L210.133 6.8379ZM211.666 5.65845L211.67 5.5145L209.996 5.47067L209.992 5.61462L211.666 5.65845ZM210.855 4.65566L201.882 4.42069L201.838 6.09454L210.811 6.3295L210.855 4.65566ZM201.023 5.2357L201.019 5.37965L202.693 5.42348L202.697 5.27953L201.023 5.2357ZM201.595 6.1969C201.998 6.32938 202.267 6.48407 202.44 6.63644L203.545 5.37862C203.156 5.03607 202.667 4.78679 202.118 4.60624L201.595 6.1969ZM202.44 6.63644C202.447 6.64274 202.5 6.69594 202.569 6.86526C202.636 7.03048 202.699 7.26078 202.757 7.56932L204.403 7.26145C204.334 6.89445 204.245 6.54455 204.121 6.23659C203.998 5.93273 203.82 5.61978 203.545 5.37862L202.44 6.63644ZM202.757 7.56932C202.87 8.17045 202.939 9.12101 202.952 10.4539L204.626 10.4379C204.613 9.08117 204.543 8.0114 204.403 7.26145L202.757 7.56932ZM202.952 10.4539C202.964 11.78 202.916 13.6333 202.854 15.9913L204.528 16.0352C204.589 13.6908 204.639 11.8013 204.626 10.4379L202.952 10.4539ZM202.854 15.9913L202.47 30.6743L204.144 30.7181L204.528 16.0352L202.854 15.9913ZM202.47 30.6743C202.408 33.0323 202.359 34.8856 202.277 36.2093L203.948 36.3128C204.033 34.9519 204.082 33.0625 204.144 30.7181L202.47 30.6743ZM202.277 36.2093C202.195 37.5396 202.076 38.4852 201.932 39.0797L203.56 39.4733C203.739 38.7317 203.865 37.667 203.948 36.3128L202.277 36.2093ZM201.932 39.0797C201.786 39.6826 201.593 39.9345 201.519 39.9934L202.557 41.3074C203.07 40.9015 203.382 40.2063 203.56 39.4733L201.932 39.0797ZM201.519 39.9934C201.338 40.1365 201.061 40.2769 200.651 40.3881L201.09 42.004C201.648 41.8524 202.149 41.629 202.557 41.3074L201.519 39.9934ZM201.61 41.5899L201.66 41.4952L200.183 40.7074L200.132 40.8022L201.61 41.5899ZM211.043 41.3664L211.88 41.3883L211.91 40.2271L210.799 40.5655L211.043 41.3664ZM211.039 41.5103L210.202 41.4884L210.18 42.3253L211.017 42.3472L211.039 41.5103ZM231.877 41.5758L232.693 41.7614L232.701 41.7268L232.706 41.6917L231.877 41.5758ZM232.586 36.5046L233.415 36.6206L233.545 35.6922L232.608 35.6677L232.586 36.5046ZM232.394 36.4996L232.416 35.6627L231.756 35.6454L231.585 36.283L232.394 36.4996ZM229.54 40.9384L229.144 40.2009L229.54 40.9384ZM227.17 41.5966L227.236 42.4312L227.17 41.5966ZM217.858 41.4968L217.021 41.4749L216.999 42.3118L217.836 42.3337L217.858 41.4968ZM218.367 22.0635L218.389 21.2266L217.552 21.2046L217.53 22.0416L218.367 22.0635ZM224.573 23.4264L223.924 23.9544L223.924 23.9544L224.573 23.4264ZM225.167 24.5943L225.968 24.3505L225.968 24.3505L225.167 24.5943ZM225.469 25.8987L224.647 26.0589L224.776 26.718L225.447 26.7356L225.469 25.8987ZM225.565 25.9012L225.543 26.7381L226.38 26.76L226.402 25.9231L225.565 25.9012ZM225.765 18.2718L226.601 18.2937L226.623 17.4568L225.786 17.4349L225.765 18.2718ZM225.669 18.2693L225.69 17.4324L225.019 17.4148L224.856 18.0664L225.669 18.2693ZM225.299 19.5561L226.086 19.8415L226.086 19.8415L225.299 19.5561ZM224.645 20.6913L224.024 20.13L224.024 20.13L224.645 20.6913ZM223.375 21.5224L223.701 22.2934L223.701 22.2934L223.375 21.5224ZM218.376 21.7276L217.539 21.7057L217.517 22.5426L218.354 22.5645L218.376 21.7276ZM218.794 5.74907L218.816 4.91214L217.979 4.89023L217.957 5.72715L218.794 5.74907ZM227.137 6.20761L226.978 7.02955L226.978 7.02955L227.137 6.20761ZM229.324 7.03315L228.867 7.73443L228.867 7.73443L229.324 7.03315ZM230.868 8.5621L230.168 9.02047L230.168 9.02047L230.868 8.5621ZM231.863 10.9409L231.055 11.1604L231.218 11.7616L231.841 11.7779L231.863 10.9409ZM232.054 10.946L232.033 11.7829L233.033 11.8091L232.882 10.8195L232.054 10.946ZM231.399 6.65533L230.567 6.75199L230.569 6.76695L230.571 6.78184L231.399 6.65533ZM231.174 6.07324L230.78 6.812L230.78 6.81201L231.174 6.07324ZM211.887 5.47216L211.909 4.63524L211.072 4.61332L211.05 5.45025L211.887 5.47216ZM211.883 5.61611L211.046 5.5942L211.03 6.2169L211.622 6.41144L211.883 5.61611ZM213.02 6.22207L213.572 5.59316L213.572 5.59316L213.02 6.22207ZM213.816 10.6604L214.653 10.6525L213.816 10.6604ZM213.14 36.4756L213.975 36.5274L213.14 36.4756ZM212.773 39.491L213.586 39.6878L212.773 39.491ZM212.064 40.8649L211.545 40.208L212.064 40.8649ZM210.898 41.4106L210.654 40.6097L211.117 42.2185L210.898 41.4106ZM210.206 41.3445L210.202 41.4884L211.876 41.5322L211.88 41.3883L210.206 41.3445ZM211.017 42.3472L231.362 42.88L231.406 41.2062L211.061 40.6734L211.017 42.3472ZM231.362 42.88C231.437 42.882 231.727 42.9018 232.028 42.761L231.319 41.2443C231.375 41.2178 231.424 41.2099 231.446 41.2077C231.456 41.2067 231.459 41.207 231.452 41.207C231.443 41.2071 231.432 41.2068 231.406 41.2062L231.362 42.88ZM232.028 42.761C232.342 42.6141 232.489 42.3518 232.555 42.2038C232.623 42.0518 232.664 41.8873 232.693 41.7614L231.06 41.3902C231.049 41.4408 231.04 41.476 231.032 41.5008C231.025 41.5264 231.022 41.5297 231.027 41.5195C231.03 41.5139 231.102 41.3457 231.319 41.2443L232.028 42.761ZM232.706 41.6917L233.415 36.6206L231.756 36.3887L231.047 41.4599L232.706 41.6917ZM232.608 35.6677L232.416 35.6627L232.372 37.3365L232.564 37.3416L232.608 35.6677ZM231.585 36.283C231.282 37.4138 230.903 38.2802 230.508 38.9003L231.921 39.7991C232.428 39.0023 232.867 37.9695 233.202 36.7162L231.585 36.283ZM230.508 38.9003C230.128 39.4983 229.689 39.9082 229.144 40.2009L229.937 41.676C230.755 41.2361 231.4 40.618 231.921 39.7991L230.508 38.9003ZM229.144 40.2009C228.578 40.5052 227.919 40.6978 227.105 40.762L227.236 42.4312C228.25 42.3513 229.14 42.1042 229.937 41.676L229.144 40.2009ZM227.105 40.762C226.228 40.8311 225.154 40.8504 223.926 40.8182L223.882 42.4921C225.148 42.5252 226.284 42.5063 227.236 42.4312L227.105 40.762ZM223.926 40.8182L217.88 40.6599L217.836 42.3337L223.882 42.4921L223.926 40.8182ZM218.695 41.5187L219.204 22.0854L217.53 22.0416L217.021 41.4749L218.695 41.5187ZM218.345 22.9004L221.176 22.9745L221.22 21.3007L218.389 21.2266L218.345 22.9004ZM221.176 22.9745C222.053 22.9975 222.624 23.1088 222.982 23.2829L223.715 21.7772C223.029 21.4438 222.166 21.3255 221.22 21.3007L221.176 22.9745ZM222.982 23.2829C223.443 23.507 223.75 23.7404 223.924 23.9544L225.223 22.8984C224.839 22.4256 224.297 22.0605 223.715 21.7772L222.982 23.2829ZM223.924 23.9544C224.116 24.1917 224.255 24.475 224.366 24.8382L225.968 24.3505C225.813 23.8425 225.588 23.3479 225.223 22.8984L223.924 23.9544ZM224.366 24.8382C224.484 25.2259 224.561 25.6183 224.647 26.0589L226.291 25.7385C226.207 25.3104 226.115 24.834 225.968 24.3505L224.366 24.8382ZM225.447 26.7356L225.543 26.7381L225.587 25.0643L225.491 25.0618L225.447 26.7356ZM226.402 25.9231L226.601 18.2937L224.928 18.2499L224.728 25.8793L226.402 25.9231ZM225.786 17.4349L225.69 17.4324L225.647 19.1062L225.743 19.1087L225.786 17.4349ZM224.856 18.0664C224.748 18.5018 224.65 18.8896 224.512 19.2706L226.086 19.8415C226.258 19.3664 226.375 18.8955 226.481 18.4723L224.856 18.0664ZM224.512 19.2706C224.382 19.6276 224.229 19.9032 224.024 20.13L225.266 21.2526C225.654 20.8228 225.905 20.3407 226.086 19.8415L224.512 19.2706ZM224.024 20.13C223.839 20.3347 223.52 20.5517 223.048 20.7514L223.701 22.2934C224.297 22.0409 224.858 21.7047 225.266 21.2526L224.024 20.13ZM223.048 20.7514C222.682 20.9065 222.105 20.9878 221.228 20.9648L221.185 22.6386C222.131 22.6634 222.999 22.5904 223.701 22.2934L223.048 20.7514ZM221.228 20.9648L218.397 20.8907L218.354 22.5645L221.185 22.6386L221.228 20.9648ZM219.212 21.7495L219.631 5.77098L217.957 5.72715L217.539 21.7057L219.212 21.7495ZM218.772 6.58599L224.098 6.72546L224.142 5.05161L218.816 4.91214L218.772 6.58599ZM224.098 6.72546C225.203 6.75439 226.162 6.87163 226.978 7.02955L227.296 5.38568C226.391 5.21046 225.34 5.08299 224.142 5.05161L224.098 6.72546ZM226.978 7.02955C227.763 7.18174 228.367 7.40886 228.867 7.73443L229.781 6.33186C229.053 5.85702 228.23 5.56662 227.296 5.38568L226.978 7.02955ZM228.867 7.73443C229.391 8.07666 229.821 8.4901 230.168 9.02047L231.569 8.10374C231.085 7.36391 230.484 6.79004 229.781 6.33186L228.867 7.73443ZM230.168 9.02047C230.519 9.55727 230.806 10.2437 231.055 11.1604L232.67 10.7214C232.394 9.7038 232.049 8.83713 231.569 8.10374L230.168 9.02047ZM231.841 11.7779L232.033 11.7829L232.076 10.109L231.884 10.104L231.841 11.7779ZM232.882 10.8195L232.226 6.52881L230.571 6.78184L231.227 11.0725L232.882 10.8195ZM232.23 6.55866C232.205 6.34096 232.159 6.12919 232.082 5.94142C232.02 5.78855 231.878 5.50011 231.568 5.33447L230.78 6.81201C230.66 6.74812 230.595 6.66908 230.568 6.63344C230.553 6.61301 230.544 6.5968 230.539 6.5873C230.536 6.58234 230.534 6.57855 230.533 6.5761C230.532 6.57364 230.531 6.57229 230.531 6.57217C230.531 6.57206 230.533 6.57583 230.535 6.58412C230.538 6.59233 230.541 6.60407 230.545 6.61967C230.552 6.6512 230.56 6.69491 230.567 6.75199L232.23 6.55866ZM231.568 5.33448C231.396 5.24276 231.125 5.13843 230.814 5.1303L230.77 6.80414C230.76 6.80388 230.755 6.80293 230.754 6.80284C230.754 6.80274 230.756 6.80308 230.76 6.80437C230.764 6.80566 230.769 6.80733 230.774 6.80917C230.778 6.81105 230.78 6.81227 230.78 6.812L231.568 5.33448ZM230.814 5.1303L211.909 4.63524L211.865 6.30909L230.77 6.80414L230.814 5.1303ZM211.05 5.45025L211.046 5.5942L212.72 5.63803L212.724 5.49408L211.05 5.45025ZM211.622 6.41144C212.025 6.54392 212.294 6.69862 212.467 6.85098L213.572 5.59316C213.182 5.25061 212.694 5.00134 212.145 4.82078L211.622 6.41144ZM212.467 6.85098C212.474 6.85728 212.527 6.91048 212.596 7.0798C212.662 7.24503 212.726 7.47533 212.784 7.78386L214.43 7.476C214.361 7.109 214.272 6.7591 214.147 6.45114C214.024 6.14728 213.847 5.83432 213.572 5.59316L212.467 6.85098ZM212.784 7.78386C212.896 8.385 212.966 9.33556 212.979 10.6684L214.653 10.6525C214.64 9.29571 214.57 8.22594 214.43 7.476L212.784 7.78386ZM212.979 10.6684C212.991 11.9946 212.943 13.8478 212.881 16.2059L214.555 16.2497C214.616 13.9053 214.666 12.0159 214.653 10.6525L212.979 10.6684ZM212.881 16.2059L212.497 30.8888L214.17 30.9327L214.555 16.2497L212.881 16.2059ZM212.497 30.8888C212.435 33.2468 212.386 35.1001 212.304 36.4238L213.975 36.5274C214.06 35.1665 214.109 33.277 214.17 30.9327L212.497 30.8888ZM212.304 36.4238C212.222 37.7542 212.103 38.6998 211.959 39.2942L213.586 39.6878C213.766 38.9462 213.891 37.8816 213.975 36.5274L212.304 36.4238ZM211.959 39.2942C211.813 39.8971 211.62 40.149 211.545 40.208L212.583 41.5219C213.097 41.1161 213.409 40.4209 213.586 39.6878L211.959 39.2942ZM211.545 40.208C211.364 40.3511 211.088 40.4915 210.678 40.6027L211.117 42.2185C211.675 42.067 212.176 41.8436 212.583 41.5219L211.545 40.208ZM211.142 42.2115L211.287 42.1673L210.799 40.5655L210.654 40.6097L211.142 42.2115Z" fill="#580300"/>
</g>
</svg>
