<?xml version="1.0" encoding="utf-8"?>
<!-- Generator: Adobe Illustrator 22.1.0, SVG Export Plug-In . SVG Version: 6.00 Build 0)  -->
<svg version="1.1" id="Слой_1" xmlns="http://www.w3.org/2000/svg" xmlns:xlink="http://www.w3.org/1999/xlink" x="0px" y="0px"
	 viewBox="0 0 67 62" style="enable-background:new 0 0 67 62;" xml:space="preserve">
<style type="text/css">
	.st0{fill:#4FC2E9;}
	.st1{fill:#EC87C0;}
	.st2{fill:#5D9CEC;}
	.st3{fill:#FFCE54;}
	.st4{fill:#A0D468;}
	.st5{fill:#ED5564;}
	.st6{fill:#434A54;}
</style>
<path class="st0" d="M22.3,39.5c0-12.5,10-22.5,22.3-22.5C57,16.9,67,27,67,39.5C67,51.9,57,62,44.7,62C32.3,62,22.3,51.9,22.3,39.5
	z"/>
<path class="st1" d="M0,39.5C0,27,10,16.9,22.3,16.9c12.3,0,22.3,10.1,22.3,22.5c0,12.5-10,22.5-22.3,22.5C10,62,0,51.9,0,39.5z"/>
<path class="st2" d="M33.5,19.9c-6.7,3.9-11.2,11.2-11.2,19.5c0,8.3,4.5,15.6,11.2,19.5c6.7-3.9,11.2-11.2,11.2-19.5
	C44.7,31.1,40.2,23.8,33.5,19.9z"/>
<path class="st3" d="M33.5,45.1c-12.3,0-22.3-10.1-22.3-22.5C11.2,10.1,21.2,0,33.5,0c12.3,0,22.3,10.1,22.3,22.5
	C55.8,35,45.8,45.1,33.5,45.1z"/>
<path class="st4" d="M22.3,39.5c0,0.9,0.1,1.8,0.2,2.7c3.2,1.9,7,2.9,11,2.9c12.3,0,22.3-10.1,22.3-22.5c0-0.9-0.1-1.8-0.2-2.7
	c-3.2-1.9-7-2.9-11-2.9C32.3,16.9,22.3,27,22.3,39.5z"/>
<path class="st5" d="M22.3,16.9c-4,0-7.8,1.1-11,2.9c-0.1,0.9-0.2,1.8-0.2,2.7c0,12.5,10,22.5,22.3,22.5c4,0,7.8-1.1,11-2.9
	c0.1-0.9,0.2-1.8,0.2-2.7C44.7,27,34.7,16.9,22.3,16.9z"/>
<path class="st6" d="M34.1,45.1c0.2,0,0.3,0,0.5,0c0,0,0,0,0.1,0c0.2,0,0.3,0,0.5,0c0,0,0.1,0,0.1,0c0.2,0,0.3,0,0.5,0
	c0,0,0.1,0,0.1,0c0.1,0,0.3,0,0.4,0c0,0,0.1,0,0.1,0c0.2,0,0.3,0,0.5-0.1c0,0,0.1,0,0.1,0c0.1,0,0.2,0,0.4-0.1c0,0,0.1,0,0.1,0
	c0.1,0,0.3-0.1,0.4-0.1c0.1,0,0.1,0,0.2,0c0.1,0,0.2,0,0.3-0.1c0.1,0,0.1,0,0.2,0c0.1,0,0.3-0.1,0.4-0.1c0.1,0,0.1,0,0.2,0
	c0.1,0,0.2-0.1,0.3-0.1c0.1,0,0.2,0,0.3-0.1c0.1,0,0.2-0.1,0.3-0.1c0.1,0,0.1,0,0.2-0.1c0.1,0,0.2-0.1,0.2-0.1
	c0.1,0,0.2-0.1,0.3-0.1c0.1,0,0.1,0,0.2-0.1c0.1,0,0.2-0.1,0.2-0.1c0.1,0,0.1,0,0.2-0.1c0.1,0,0.3-0.1,0.4-0.2c0.1,0,0.1,0,0.2-0.1
	c0.1,0,0.2-0.1,0.3-0.1c0,0,0.1,0,0.1,0c0.2-0.1,0.3-0.1,0.5-0.2c0,0,0.1,0,0.1-0.1c0.3-0.1,0.6-0.3,0.8-0.4c0,0,0.1,0,0.1-0.1
	c0.2-0.1,0.4-0.2,0.5-0.3c0,0,0,0,0,0c0.1-0.9,0.2-1.8,0.2-2.7c0-8.3-4.5-15.6-11.2-19.5c-6.7,3.9-11.2,11.2-11.2,19.5
	c0,0.9,0.1,1.8,0.2,2.7c0,0,0,0,0,0c0.2,0.1,0.3,0.2,0.5,0.3c0,0,0.1,0,0.1,0.1c0.3,0.1,0.6,0.3,0.8,0.4c0,0,0.1,0,0.1,0.1
	c0.2,0.1,0.3,0.1,0.5,0.2c0,0,0.1,0,0.1,0c0.1,0,0.2,0.1,0.3,0.1c0.1,0,0.1,0,0.2,0.1c0.1,0.1,0.3,0.1,0.4,0.2
	c0.1,0,0.1,0.1,0.2,0.1c0.1,0,0.2,0.1,0.2,0.1c0.1,0,0.1,0,0.2,0.1c0.1,0,0.2,0.1,0.3,0.1c0.1,0,0.2,0.1,0.2,0.1
	c0.1,0,0.1,0,0.2,0.1c0.1,0,0.2,0.1,0.3,0.1c0.1,0,0.2,0,0.3,0.1c0.1,0,0.2,0.1,0.3,0.1c0.1,0,0.1,0,0.2,0c0.1,0,0.3,0.1,0.4,0.1
	c0.1,0,0.1,0,0.2,0c0.1,0,0.2,0,0.3,0.1c0.1,0,0.1,0,0.2,0c0.1,0,0.3,0.1,0.4,0.1c0,0,0.1,0,0.1,0c0.1,0,0.2,0,0.4,0.1
	c0,0,0.1,0,0.1,0c0.2,0,0.3,0,0.5,0.1c0,0,0.1,0,0.1,0c0.1,0,0.3,0,0.4,0c0,0,0.1,0,0.1,0c0.2,0,0.3,0,0.5,0c0,0,0.1,0,0.1,0
	c0.2,0,0.3,0,0.5,0c0,0,0,0,0.1,0c0.2,0,0.3,0,0.5,0c0,0,0.1,0,0.1,0c0.2,0,0.3,0,0.5,0c0.2,0,0.3,0,0.5,0
	C34.1,45.1,34.1,45.1,34.1,45.1z"/>
</svg>
