<?xml version="1.0" encoding="utf-8"?>
<!-- Generator: Adobe Illustrator 21.0.0, SVG Export Plug-In . SVG Version: 6.00 Build 0)  -->
<svg version="1.1" id="Layer_4" xmlns="http://www.w3.org/2000/svg" xmlns:xlink="http://www.w3.org/1999/xlink" x="0px" y="0px"
	 viewBox="0 0 24.3 24.3" style="enable-background:new 0 0 24.3 24.3;" xml:space="preserve">
<style type="text/css">
	.st0{fill:#5B5A5A;}
</style>
<g>
	<path class="st0" d="M12.1,24.3C5.4,24.3,0,18.8,0,12.1S5.4,0,12.1,0s12.1,5.4,12.1,12.1S18.8,24.3,12.1,24.3z M12.1,2
		C6.5,2,2,6.5,2,12.1s4.5,10.1,10.1,10.1s10.1-4.5,10.1-10.1S17.7,2,12.1,2z"/>
</g>
<g>
	<path class="st0" d="M12.1,21.5c-5.1,0-9.3-4.2-9.3-9.3S7,2.8,12.1,2.8s9.3,4.2,9.3,9.3S17.3,21.5,12.1,21.5z M12.1,4.8
		c-4,0-7.3,3.3-7.3,7.3s3.3,7.3,7.3,7.3s7.3-3.3,7.3-7.3S16.2,4.8,12.1,4.8z"/>
</g>
<g>
	<path class="st0" d="M12.1,16.3c-2.3,0-4.2-1.9-4.2-4.2S9.8,8,12.1,8s4.2,1.9,4.2,4.2S14.4,16.3,12.1,16.3z M12.1,10
		c-1.2,0-2.2,1-2.2,2.2c0,1.2,1,2.2,2.2,2.2s2.2-1,2.2-2.2C14.3,10.9,13.3,10,12.1,10z"/>
</g>
<g>
	<circle class="st0" cx="12.1" cy="12.1" r="0.6"/>
</g>
<g>
	<rect x="1.7" y="13.6" transform="matrix(0.9313 -0.3641 0.3641 0.9313 -4.7713 2.9622)" class="st0" width="7.5" height="1"/>
</g>
<g>
	<rect x="18.5" y="10.4" transform="matrix(0.3639 -0.9314 0.9314 0.3639 -1.1049 26.6504)" class="st0" width="1" height="7.5"/>
</g>
<g>
	
		<rect x="8.1" y="18.8" transform="matrix(1.171795e-02 -0.9999 0.9999 1.171795e-02 -7.3305 31.12)" class="st0" width="8" height="1"/>
</g>
<g>
	<rect x="7.4" y="2.3" transform="matrix(0.8087 -0.5882 0.5882 0.8087 -2.2539 5.846)" class="st0" width="1" height="8.1"/>
</g>
<g>
	<rect x="12" y="5.9" transform="matrix(0.5881 -0.8088 0.8088 0.5881 1.4674 15.6574)" class="st0" width="8.1" height="1"/>
</g>
</svg>
