<?xml version="1.0" encoding="utf-8"?>
<!-- Generator: Adobe Illustrator 21.0.0, SVG Export Plug-In . SVG Version: 6.00 Build 0)  -->
<svg version="1.1" id="Layer_1" xmlns="http://www.w3.org/2000/svg" xmlns:xlink="http://www.w3.org/1999/xlink" x="0px" y="0px"
	 viewBox="0 0 11.8 16.3" style="enable-background:new 0 0 11.8 16.3;" xml:space="preserve">
<style type="text/css">
	.st0{fill:#FFFFFF;}
</style>
<g>
	<path class="st0" d="M3.6,1.8l1.7,3.4L4,5.8l2.8,5.6l1.4-0.7l1.8,3.4c0,0-1,0.6-2.1,0.6c-0.6,0-1.2-0.2-1.7-0.7
		c-1.3-1.4-4.4-5.5-4.5-9.2C1.5,4.8,1.4,2.3,3.6,1.8 M4.4,0L3.2,0.3C0.6,1-0.1,3.6,0,4.9c0.2,4.3,3.7,8.8,5,10.2
		c0.7,0.8,1.7,1.2,2.8,1.2c1.5,0,2.8-0.8,2.9-0.9l1.1-0.7l-0.6-1.2L9.4,10L8.8,8.7L7.4,9.4l0,0L6,6.5l0,0l1.3-0.7L6.6,4.4L5,1.1
		L4.4,0L4.4,0z"/>
</g>
</svg>
