<?xml version="1.0" encoding="utf-8"?>
<!-- Generator: Adobe Illustrator 21.0.0, SVG Export Plug-In . SVG Version: 6.00 Build 0)  -->
<svg version="1.1" id="Layer_1" xmlns="http://www.w3.org/2000/svg" xmlns:xlink="http://www.w3.org/1999/xlink" x="0px" y="0px"
	 viewBox="0 0 33.8 32.6" style="enable-background:new 0 0 33.8 32.6;" xml:space="preserve">
<style type="text/css">
	.st0{fill:none;stroke:#B4B9BF;stroke-width:3;stroke-linecap:round;stroke-linejoin:round;stroke-miterlimit:10;}
	.st1{fill:none;stroke:#FF8500;stroke-width:3;stroke-miterlimit:10;}
</style>
<path class="st0" d="M23.9,9.3l6.8,2.1c1.4,0.4,2,2.2,1.1,3.4l-4.4,5.6c-0.3,0.4-0.5,0.9-0.5,1.4l0.1,7.2c0,1.5-1.5,2.6-2.9,2
	l-6.7-2.5c-0.5-0.2-1-0.2-1.4,0l-6.8,2.3c-1.4,0.5-2.9-0.6-2.8-2.1l0.3-7.2c0-0.5-0.1-1-0.4-1.4l-4.3-5.7c-0.9-1.2-0.3-3,1.1-3.4
	L10,9.1c0.5-0.1,0.9-0.4,1.2-0.8l4.1-5.8c0.9-1.2,2.7-1.2,3.6,0l4,6C23.1,8.8,23.5,9.1,23.9,9.3z"/>
<ellipse transform="matrix(0.6074 -0.7944 0.7944 0.6074 -7.0681 20.2409)" class="st1" cx="16.9" cy="17.3" rx="4" ry="4"/>
</svg>
