<?xml version="1.0" encoding="utf-8"?>
<!-- Generator: Adobe Illustrator 21.0.0, SVG Export Plug-In . SVG Version: 6.00 Build 0)  -->
<svg version="1.1" id="Rounded_Rectangle_1_copy_2_1_"
	 xmlns="http://www.w3.org/2000/svg" xmlns:xlink="http://www.w3.org/1999/xlink" x="0px" y="0px" viewBox="0 0 42 15"
	 style="enable-background:new 0 0 42 15;" xml:space="preserve">
<style type="text/css">
	.st0{fill-rule:evenodd;clip-rule:evenodd;fill:#FFFFFF;}
</style>
<g id="Rounded_Rectangle_1_copy_2">
	<path class="st0" d="M41.2,0.8c-1.1-1.1-2.9-1.1-3.9,0l-7.1,7.3l-7-7.1C23.1,1,23,0.9,23,0.8C22.4,0.3,21.7,0,21,0
		c-0.7,0-1.4,0.3-2,0.8C19,0.9,18.9,1,18.9,1l-7,7.1L4.8,0.8c-1.1-1.1-2.9-1.1-3.9,0c-1.1,1.1-1.1,2.9,0,4l9,9.1
		c0.1,0.1,0.1,0.1,0.1,0.2c0.5,0.6,1.3,0.8,2,0.8c0.7,0,1.4-0.3,2-0.8C13.9,14.1,14,14,14,14l7-7.1l7,7.1c0.1,0.1,0.1,0.1,0.1,0.2
		c0.5,0.6,1.3,0.8,2,0.8c0.7,0,1.4-0.3,2-0.8c0.1-0.1,0.1-0.1,0.1-0.2l9-9.1C42.3,3.7,42.3,1.9,41.2,0.8z"/>
</g>
</svg>
