<svg width="95" height="111" viewBox="0 0 95 111" fill="none" xmlns="http://www.w3.org/2000/svg">
<g style="mix-blend-mode:darken">
<path d="M0.463064 94.6914L1.29999 94.7133L-0.275702 94.2975L0.463064 94.6914ZM0.453202 95.068L-0.383721 95.0461L-0.405636 95.883L0.431286 95.9049L0.453202 95.068ZM23.9289 95.6827L23.907 96.5197L24.7439 96.5416L24.7658 95.7047L23.9289 95.6827ZM23.9387 95.3061L24.7757 95.328L24.7924 94.6888L24.1801 94.5045L23.9387 95.3061ZM20.8397 93.7175L20.2871 94.3464L20.8397 93.7175ZM19.2998 90.1597L20.1227 90.0057L20.1227 90.0057L19.2998 90.1597ZM18.7536 82.231L17.9165 82.239L18.7536 82.231ZM20.5222 14.6914L19.6866 14.6396L20.5222 14.6914ZM21.4826 6.80218L22.2963 6.99897L22.2963 6.99897L21.4826 6.80218ZM26.3845 1.90556L26.5836 2.71876L27.2047 2.56671L27.2214 1.92748L26.3845 1.90556ZM26.3944 1.52894L27.2313 1.55086L27.2532 0.713937L26.4163 0.692021L26.3944 1.52894ZM2.91871 0.914212L2.94062 0.0772892L2.1037 0.0553736L2.08178 0.892296L2.91871 0.914212ZM2.90884 1.29083L2.07192 1.26891L2.05562 1.89161L2.64736 2.08616L2.90884 1.29083ZM7.96511 14.4882L8.80228 14.4802L7.96511 14.4882ZM6.19652 82.0278L7.03213 82.0796L6.19652 82.0278ZM5.23619 89.917L4.42244 89.7202L5.23619 89.917ZM3.38332 93.5116L2.86437 92.8546L3.38332 93.5116ZM0.330951 94.9392L-0.407815 94.5453L-1.31943 96.2551L0.550447 95.7471L0.330951 94.9392ZM-0.373859 94.6695L-0.383721 95.0461L1.29012 95.0899L1.29999 94.7133L-0.373859 94.6695ZM0.431286 95.9049L23.907 96.5197L23.9508 94.8458L0.475117 94.2311L0.431286 95.9049ZM24.7658 95.7047L24.7757 95.328L23.1018 95.2842L23.092 95.6608L24.7658 95.7047ZM24.1801 94.5045C22.8901 94.1161 22.0157 93.6363 21.3924 93.0886L20.2871 94.3464C21.1373 95.0935 22.2453 95.6706 23.6974 96.1078L24.1801 94.5045ZM21.3924 93.0886C20.8798 92.6382 20.4473 91.7412 20.1227 90.0057L18.4768 90.3136C18.8134 92.113 19.326 93.5019 20.2871 94.3464L21.3924 93.0886ZM20.1227 90.0057C19.806 88.3127 19.6242 85.7295 19.5908 82.2231L17.9165 82.239C17.9501 85.7693 18.1323 88.4718 18.4768 90.3136L20.1227 90.0057ZM19.5908 82.2231C19.5575 78.7233 19.6851 73.8454 19.8464 67.6872L18.1725 67.6434C18.0116 73.7879 17.8828 78.702 17.9165 82.239L19.5908 82.2231ZM19.8464 67.6872L20.8523 29.2725L19.1784 29.2286L18.1725 67.6434L19.8464 67.6872ZM20.8523 29.2725C21.0135 23.1143 21.1414 18.2363 21.3578 14.7431L19.6866 14.6396C19.4679 18.17 19.3393 23.0841 19.1784 29.2286L20.8523 29.2725ZM21.3578 14.7431C21.5747 11.2433 21.8915 8.67307 22.2963 6.99897L20.6688 6.60539C20.2284 8.42664 19.905 11.1159 19.6866 14.6396L21.3578 14.7431ZM22.2963 6.99897C22.7113 5.28289 23.1902 4.40972 23.7256 3.98681L22.6877 2.67287C21.6837 3.4659 21.0991 4.82612 20.6688 6.60539L22.2963 6.99897ZM23.7256 3.98681C24.3767 3.47244 25.275 3.03909 26.5836 2.71876L26.1855 1.09236C24.7124 1.45295 23.5758 1.97131 22.6877 2.67287L23.7256 3.98681ZM27.2214 1.92748L27.2313 1.55086L25.5575 1.50703L25.5476 1.88365L27.2214 1.92748ZM26.4163 0.692021L2.94062 0.0772892L2.89679 1.75113L26.3725 2.36587L26.4163 0.692021ZM2.08178 0.892296L2.07192 1.26891L3.74577 1.31275L3.75563 0.936127L2.08178 0.892296ZM2.64736 2.08616C3.81977 2.47161 4.70112 2.95278 5.3297 3.5051L6.43494 2.24728C5.58993 1.50477 4.48896 0.929028 3.17032 0.495501L2.64736 2.08616ZM5.3297 3.5051C5.56445 3.71138 5.80352 4.06049 6.02702 4.6122C6.24885 5.15982 6.43622 5.859 6.59605 6.71347L8.24192 6.40561C8.07116 5.49267 7.85859 4.67389 7.57894 3.98354C7.30094 3.29728 6.93698 2.68842 6.43494 2.24728L5.3297 3.5051ZM6.59605 6.71347C6.91272 8.40646 7.09456 10.9897 7.12794 14.4962L8.80228 14.4802C8.76868 10.9499 8.58643 8.24741 8.24192 6.40561L6.59605 6.71347ZM7.12794 14.4962C7.16125 17.9959 7.03365 22.8738 6.8724 29.032L8.54624 29.0758C8.70714 22.9313 8.83595 18.0172 8.80228 14.4802L7.12794 14.4962ZM6.8724 29.032L5.86647 67.4467L7.54031 67.4906L8.54624 29.0758L6.8724 29.032ZM5.86647 67.4467C5.70521 73.605 5.57735 78.4829 5.36092 81.9761L7.03213 82.0796C7.25087 78.5492 7.37941 73.6351 7.54031 67.4906L5.86647 67.4467ZM5.36092 81.9761C5.14407 85.4759 4.82728 88.0461 4.42244 89.7202L6.04994 90.1138C6.49037 88.2926 6.81381 85.6033 7.03213 82.0796L5.36092 81.9761ZM4.42244 89.7202C4.01554 91.4028 3.41447 92.4201 2.86437 92.8546L3.90227 94.1686C4.8915 93.3872 5.61157 91.9266 6.04994 90.1138L4.42244 89.7202ZM2.86437 92.8546C2.20775 93.3733 1.30243 93.8077 0.111454 94.1313L0.550447 95.7471C1.88996 95.3832 3.01956 94.8659 3.90227 94.1686L2.86437 92.8546ZM1.06972 95.3331L1.20183 95.0853L-0.275702 94.2975L-0.407815 94.5453L1.06972 95.3331ZM26.934 95.7614L26.097 95.7395L26.0751 96.5764L26.912 96.5984L26.934 95.7614ZM38.609 96.0672L38.5871 96.9041L39.424 96.926L39.4459 96.0891L38.609 96.0672ZM38.6189 95.6905L39.4558 95.7124L39.4712 95.1262L38.9255 94.9115L38.6189 95.6905ZM35.5264 93.8508L36.0791 93.2219L35.5264 93.8508ZM33.9898 90.1675L34.8127 90.0135L33.9898 90.1675ZM33.4404 82.3644L34.2775 82.3553L33.4404 82.3644ZM35.353 4.52727L36.1007 4.1507L34.5161 4.50536L35.353 4.52727ZM82.2832 97.7133L81.5355 98.0899L81.7607 98.5371L82.2613 98.5502L82.2832 97.7133ZM84.0408 97.7593L84.0189 98.5962L84.8558 98.6182L84.8777 97.7812L84.0408 97.7593ZM86.2834 16.9159L87.1189 16.9688L86.2834 16.9159ZM87.2404 9.15223L88.0542 9.34902L88.0542 9.34902L87.2404 9.15223ZM88.9677 5.55436L89.4867 6.21133L89.4867 6.21133L88.9677 5.55436ZM92.0267 3.87571L92.3172 4.66091L92.8488 4.46425L92.8636 3.89762L92.0267 3.87571ZM92.0365 3.4991L92.8735 3.52101L92.8954 2.68409L92.0585 2.66217L92.0365 3.4991ZM80.3615 3.19338L80.3834 2.35645L79.5465 2.33454L79.5245 3.17146L80.3615 3.19338ZM80.3516 3.56999L79.5147 3.54807L79.4993 4.13427L80.045 4.34903L80.3516 3.56999ZM83.444 5.40971L82.8914 6.03862L82.8914 6.03863L83.444 5.40971ZM84.9807 9.09306L85.8036 8.93913L85.8036 8.93913L84.9807 9.09306ZM85.5301 16.8962L84.693 16.9052L85.5301 16.8962ZM84.1862 73.0151L83.4395 73.3938L85.0231 73.037L84.1862 73.0151ZM49.9023 5.41076L50.649 5.03209L50.6475 5.02923L49.9023 5.41076ZM48.2138 2.72843L48.8211 2.15213L48.8211 2.15213L48.2138 2.72843ZM29.5217 1.73647L29.5436 0.899543L28.7067 0.877628L28.6848 1.71455L29.5217 1.73647ZM29.5118 2.11308L28.6749 2.09116L28.6586 2.71386L29.2504 2.90841L29.5118 2.11308ZM32.4853 3.69844L31.9327 4.32735L32.4853 3.69844ZM34.022 7.38178L33.199 7.53571L34.022 7.38178ZM34.5681 15.3104L33.7309 15.3184L34.5681 15.3104ZM32.8094 82.4735L31.9739 82.4206L32.8094 82.4735ZM31.8523 90.2371L31.0386 90.0403L31.8523 90.2371ZM29.9995 93.8317L30.5184 94.4887L29.9995 93.8317ZM26.9405 95.5104L26.1036 95.4884L26.0712 96.7246L27.231 96.2956L26.9405 95.5104ZM26.1069 95.3629L26.097 95.7395L27.7709 95.7833L27.7807 95.4067L26.1069 95.3629ZM26.912 96.5984L38.5871 96.9041L38.6309 95.2302L26.9559 94.9245L26.912 96.5984ZM39.4459 96.0891L39.4558 95.7124L37.782 95.6686L37.7721 96.0452L39.4459 96.0891ZM38.9255 94.9115C37.6485 94.4089 36.7437 93.8059 36.0791 93.2219L34.9738 94.4797C35.7828 95.1905 36.8538 95.8955 38.3123 96.4696L38.9255 94.9115ZM36.0791 93.2219C35.8443 93.0156 35.6052 92.6665 35.3818 92.1148C35.1599 91.5672 34.9725 90.868 34.8127 90.0135L33.1668 90.3214C33.3376 91.2343 33.5502 92.0531 33.8298 92.7435C34.1078 93.4297 34.4718 94.0386 34.9738 94.4797L36.0791 93.2219ZM34.8127 90.0135C34.4959 88.3198 34.3142 85.7359 34.2775 82.3553L32.6032 82.3734C32.6401 85.7785 32.8225 88.4804 33.1668 90.3214L34.8127 90.0135ZM34.2775 82.3553C34.241 78.9818 34.3652 74.2302 34.5232 68.1972L32.8494 68.1533C32.6918 74.172 32.5662 78.9613 32.6032 82.3734L34.2775 82.3553ZM34.5232 68.1972L36.1899 4.54919L34.5161 4.50536L32.8494 68.1533L34.5232 68.1972ZM34.6052 4.90385L81.5355 98.0899L83.031 97.3367L36.1007 4.1507L34.6052 4.90385ZM82.2613 98.5502L84.0189 98.5962L84.0627 96.9224L82.3051 96.8764L82.2613 98.5502ZM84.8777 97.7812L86.6233 31.1204L84.9494 31.0765L83.2038 97.7374L84.8777 97.7812ZM86.6233 31.1204C86.7813 25.0873 86.9058 20.3357 87.1189 16.9688L85.4478 16.863C85.2323 20.2686 85.107 25.0579 84.9494 31.0765L86.6233 31.1204ZM87.1189 16.9688C87.3324 13.5947 87.6491 11.0239 88.0542 9.34902L86.4267 8.95544C85.9864 10.7759 85.6629 13.4645 85.4478 16.863L87.1189 16.9688ZM88.0542 9.34902C88.2585 8.50409 88.4822 7.81567 88.7324 7.28042C88.9844 6.74115 89.2415 6.40503 89.4867 6.21133L88.4488 4.89739C87.9243 5.31165 87.529 5.90062 87.2155 6.57139C86.9001 7.24616 86.645 8.0527 86.4267 8.95544L88.0542 9.34902ZM89.4867 6.21133C90.1858 5.65908 91.1291 5.10042 92.3172 4.66091L91.7362 3.09051C90.3872 3.58956 89.289 4.23368 88.4488 4.89739L89.4867 6.21133ZM92.8636 3.89762L92.8735 3.52101L91.1996 3.47718L91.1898 3.85379L92.8636 3.89762ZM92.0585 2.66217L80.3834 2.35645L80.3396 4.0303L92.0146 4.33602L92.0585 2.66217ZM79.5245 3.17146L79.5147 3.54807L81.1885 3.5919L81.1984 3.21529L79.5245 3.17146ZM80.045 4.34903C81.322 4.85163 82.2268 5.4546 82.8914 6.03862L83.9967 4.7808C83.1877 4.06998 82.1167 3.36497 80.6582 2.79094L80.045 4.34903ZM82.8914 6.03863C83.1262 6.2449 83.3652 6.59401 83.5887 7.14572C83.8106 7.69334 83.9979 8.39253 84.1578 9.24699L85.8036 8.93913C85.6329 8.02619 85.4203 7.20741 85.1407 6.51706C84.8627 5.8308 84.4987 5.22194 83.9967 4.7808L82.8914 6.03863ZM84.1578 9.24699C84.4746 10.9407 84.6563 13.5247 84.693 16.9052L86.3673 16.8871C86.3304 13.482 86.148 10.7802 85.8036 8.93913L84.1578 9.24699ZM84.693 16.9052C84.7295 20.2787 84.6053 25.0303 84.4473 31.0634L86.1211 31.1072C86.2787 25.0886 86.4043 20.2993 86.3673 16.8871L84.693 16.9052ZM84.4473 31.0634L83.3493 72.9932L85.0231 73.037L86.1211 31.1072L84.4473 31.0634ZM84.9329 72.6364L50.649 5.0321L49.1556 5.78942L83.4395 73.3938L84.9329 72.6364ZM50.6475 5.02923C49.9215 3.61118 49.273 2.62832 48.8211 2.15213L47.6065 3.30472C47.8881 3.60149 48.4489 4.40905 49.1571 5.79228L50.6475 5.02923ZM48.8211 2.15213C48.2009 1.49864 47.257 1.36338 46.3658 1.34005L46.3219 3.01389C47.1883 3.03658 47.4931 3.18527 47.6065 3.30473L48.8211 2.15213ZM46.3658 1.34005L29.5436 0.899543L29.4998 2.57339L46.3219 3.01389L46.3658 1.34005ZM28.6848 1.71455L28.6749 2.09116L30.3488 2.13499L30.3586 1.75838L28.6848 1.71455ZM29.2504 2.90841C30.4228 3.29386 31.3041 3.77502 31.9327 4.32735L33.0379 3.06952C32.1929 2.32702 31.092 1.75128 29.7733 1.31775L29.2504 2.90841ZM31.9327 4.32735C32.1675 4.53362 32.4065 4.88273 32.63 5.43445C32.8519 5.98207 33.0392 6.68125 33.199 7.53571L34.8449 7.22785C34.6742 6.31492 34.4616 5.49614 34.1819 4.80578C33.9039 4.11953 33.54 3.51066 33.0379 3.06952L31.9327 4.32735ZM33.199 7.53571C33.5157 9.22871 33.6976 11.812 33.7309 15.3184L35.4053 15.3025C35.3717 11.7721 35.1894 9.06965 34.8449 7.22785L33.199 7.53571ZM33.7309 15.3184C33.7643 18.8181 33.6367 23.696 33.4754 29.8542L35.1492 29.8981C35.3101 23.7535 35.439 18.8394 35.4053 15.3025L33.7309 15.3184ZM33.4754 29.8542L32.4695 68.269L34.1433 68.3128L35.1492 29.8981L33.4754 29.8542ZM32.4695 68.269C32.3115 74.302 32.1869 79.0536 31.9739 82.4206L33.6449 82.5263C33.8604 79.1208 33.9857 74.3315 34.1433 68.3128L32.4695 68.269ZM31.9739 82.4206C31.7603 85.7946 31.4436 88.3655 31.0386 90.0403L32.6661 90.4339C33.1063 88.6134 33.4299 85.9248 33.6449 82.5263L31.9739 82.4206ZM31.0386 90.0403C30.6317 91.7229 30.0306 92.7402 29.4805 93.1747L30.5184 94.4887C31.5077 93.7073 32.2277 92.2467 32.6661 90.4339L31.0386 90.0403ZM29.4805 93.1747C28.7814 93.727 27.8381 94.2856 26.6501 94.7251L27.231 96.2956C28.58 95.7965 29.6782 95.1524 30.5184 94.4887L29.4805 93.1747ZM27.7775 95.5323L27.7807 95.4067L26.1069 95.3629L26.1036 95.4884L27.7775 95.5323ZM92.0423 97.0895L92.0642 96.2526L91.2273 96.2306L91.2054 97.0676L92.0423 97.0895ZM92.0325 97.4661L91.1955 97.4442L91.1736 98.2811L92.0105 98.303L92.0325 97.4661ZM115.508 98.0808L115.486 98.9177L116.323 98.9397L116.345 98.1027L115.508 98.0808ZM115.518 97.7042L116.355 97.7261L116.372 97.0869L115.759 96.9025L115.518 97.7042ZM112.419 96.1156L111.866 96.7445L112.419 96.1156ZM110.879 92.5578L111.702 92.4038L111.702 92.4038L110.879 92.5578ZM110.333 84.6291L109.496 84.6371L110.333 84.6291ZM111.197 46.8388L111.923 46.4227L110.438 43.8295L110.36 46.8169L111.197 46.8388ZM134.863 88.1608L135.599 87.7616L135.594 87.7531L135.589 87.7447L134.863 88.1608ZM137.688 95.3954L138.524 95.3477L138.524 95.3477L137.688 95.3954ZM134.97 98.4648L134.726 97.6639L134.149 97.8397L134.133 98.4429L134.97 98.4648ZM134.963 98.7159L134.126 98.694L134.104 99.5309L134.941 99.5528L134.963 98.7159ZM157.184 99.2978L157.162 100.135L157.999 100.157L158.021 99.3197L157.184 99.2978ZM157.19 99.0467L158.027 99.0686L158.041 98.5514L157.584 98.3079L157.19 99.0467ZM155.34 97.742L155.947 97.1657L155.34 97.742ZM153.632 95.8129L154.289 95.2939L154.289 95.2939L153.632 95.8129ZM151.821 93.0017L151.079 93.389L151.821 93.0017ZM149.67 88.7998L150.417 88.4223L150.409 88.4067L150.401 88.3915L149.67 88.7998ZM121.11 37.6765L120.509 37.094L120.075 37.5412L120.379 38.0848L121.11 37.6765ZM144.609 13.4182L144.008 12.8354L144.007 12.8357L144.609 13.4182ZM151.559 7.06773L151.066 6.391L151.066 6.391L151.559 7.06773ZM155.387 4.78112L155.697 5.55901L156.21 5.3549L156.224 4.80304L155.387 4.78112ZM155.394 4.53005L156.231 4.55196L156.253 3.71504L155.416 3.69313L155.394 4.53005ZM143.342 4.21446L143.364 3.37754L142.527 3.35563L142.505 4.19255L143.342 4.21446ZM143.336 4.46554L142.499 4.44362L142.482 5.06632L143.074 5.26087L143.336 4.46554ZM146.187 5.92207L145.647 6.56191L145.647 6.56191L146.187 5.92207ZM146.884 8.07594L146.059 7.93589L146.059 7.93589L146.884 8.07594ZM141.15 15.9658L140.553 15.3787L140.549 15.383L141.15 15.9658ZM111.455 46.5943L110.618 46.5724L110.561 48.7182L112.056 47.177L111.455 46.5943ZM113.319 8.95576L112.506 8.75897L112.506 8.75897L113.319 8.95576ZM115.044 5.48342L115.562 6.1404L115.044 5.48342ZM118.221 4.05915L118.42 4.87235L119.042 4.72031L119.058 4.08107L118.221 4.05915ZM118.231 3.68253L119.068 3.70445L119.09 2.86753L118.253 2.84561L118.231 3.68253ZM94.7556 3.0678L94.7775 2.23088L93.9406 2.20896L93.9187 3.04588L94.7556 3.0678ZM94.7458 3.44442L93.9088 3.4225L93.8925 4.0452L94.4843 4.23975L94.7458 3.44442ZM99.2559 8.71312L98.433 8.86705L98.433 8.86705L99.2559 8.71312ZM99.802 16.6418L100.639 16.6338L99.802 16.6418ZM98.0334 84.1814L98.869 84.2332L98.0334 84.1814ZM97.0731 92.0706L97.8869 92.2674L97.0731 92.0706ZM95.2202 95.6652L94.7013 95.0082L95.2202 95.6652ZM92.1679 97.0928L92.146 97.9297L92.2688 97.9329L92.3874 97.9007L92.1679 97.0928ZM91.2054 97.0676L91.1955 97.4442L92.8694 97.488L92.8792 97.1114L91.2054 97.0676ZM92.0105 98.303L115.486 98.9177L115.53 97.2439L92.0544 96.6292L92.0105 98.303ZM116.345 98.1027L116.355 97.7261L114.681 97.6823L114.671 98.0589L116.345 98.1027ZM115.759 96.9025C114.469 96.5142 113.595 96.0344 112.972 95.4867L111.866 96.7445C112.717 97.4916 113.825 98.0687 115.277 98.5059L115.759 96.9025ZM112.972 95.4867C112.459 95.0363 112.027 94.1393 111.702 92.4038L110.056 92.7117C110.393 94.511 110.905 95.9 111.866 96.7445L112.972 95.4867ZM111.702 92.4038C111.385 90.7108 111.203 88.1276 111.17 84.6211L109.496 84.6371C109.529 88.1674 109.712 90.8699 110.056 92.7117L111.702 92.4038ZM111.17 84.6211C111.137 81.1214 111.264 76.2435 111.426 70.0853L109.752 70.0415C109.591 76.186 109.462 81.1001 109.496 84.6371L111.17 84.6211ZM111.426 70.0853L112.034 46.8607L110.36 46.8169L109.752 70.0415L111.426 70.0853ZM110.47 47.2549L134.136 88.5769L135.589 87.7447L111.923 46.4227L110.47 47.2549ZM134.127 88.5601C135.016 90.1986 135.684 91.5967 136.138 92.759C136.596 93.9323 136.817 94.8171 136.853 95.4431L138.524 95.3477C138.474 94.4639 138.181 93.3881 137.697 92.1499C137.209 90.9007 136.507 89.4364 135.599 87.7616L134.127 88.5601ZM136.853 95.4431C136.884 96.0012 136.738 96.3986 136.45 96.7212C136.138 97.0695 135.598 97.3983 134.726 97.6639L135.214 99.2657C136.241 98.9529 137.103 98.5019 137.698 97.8376C138.315 97.1474 138.578 96.2994 138.524 95.3477L136.853 95.4431ZM134.133 98.4429L134.126 98.694L135.8 98.7378L135.807 98.4867L134.133 98.4429ZM134.941 99.5528L157.162 100.135L157.206 98.4608L134.985 97.879L134.941 99.5528ZM158.021 99.3197L158.027 99.0686L156.353 99.0248L156.347 99.2758L158.021 99.3197ZM157.584 98.3079C156.865 97.9245 156.342 97.5821 155.947 97.1657L154.733 98.3183C155.316 98.9325 156.029 99.3762 156.796 99.7854L157.584 98.3079ZM155.947 97.1657C155.457 96.6493 154.87 96.0302 154.289 95.2939L152.975 96.3318C153.609 97.1349 154.245 97.8041 154.733 98.3183L155.947 97.1657ZM154.289 95.2939C153.711 94.5629 153.136 93.7115 152.563 92.6144L151.079 93.389C151.703 94.5845 152.336 95.5236 152.975 96.3318L154.289 95.2939ZM152.563 92.6144C151.967 91.4725 151.252 90.0753 150.417 88.4223L148.923 89.1773C149.76 90.8343 150.478 92.2384 151.079 93.389L152.563 92.6144ZM150.401 88.3915L121.841 37.2682L120.379 38.0848L148.939 89.2081L150.401 88.3915ZM121.711 38.259L145.21 14.0007L144.007 12.8357L120.509 37.094L121.711 38.259ZM145.21 14.001C148.166 10.9518 150.443 8.91591 152.052 7.74446L151.066 6.391C149.344 7.64484 146.99 9.75896 144.008 12.8354L145.21 14.001ZM152.052 7.74446C153.689 6.55222 154.9 5.87625 155.697 5.55901L155.078 4.00324C154.098 4.3932 152.759 5.15794 151.066 6.391L152.052 7.74446ZM156.224 4.80304L156.231 4.55196L154.557 4.50813L154.55 4.75921L156.224 4.80304ZM155.416 3.69313L143.364 3.37754L143.32 5.05139L155.372 5.36697L155.416 3.69313ZM142.505 4.19255L142.499 4.44362L144.173 4.48745L144.179 4.23638L142.505 4.19255ZM143.074 5.26087C144.256 5.64933 145.14 6.13431 145.647 6.56191L146.727 5.28224C146.004 4.67266 144.907 4.10073 143.597 3.67021L143.074 5.26087ZM145.647 6.56191C145.995 6.85558 146.167 7.29694 146.059 7.93589L147.71 8.216C147.898 7.104 147.608 6.02573 146.727 5.28223L145.647 6.56191ZM146.059 7.93589C145.941 8.62897 145.492 9.62219 144.619 10.8026L145.965 11.7984C146.915 10.5141 147.53 9.27389 147.71 8.216L146.059 7.93589ZM144.619 10.8026C143.742 11.9883 142.35 13.5517 140.553 15.3787L141.747 16.5528C143.564 14.7058 145.019 13.0774 145.965 11.7984L144.619 10.8026ZM140.549 15.383L110.853 46.0115L112.056 47.177L141.751 16.5485L140.549 15.383ZM112.291 46.6162L112.689 31.426L111.015 31.3822L110.618 46.5724L112.291 46.6162ZM112.689 31.426C112.85 25.2678 112.978 20.3899 113.195 16.8967L111.524 16.7932C111.305 20.3236 111.176 25.2376 111.015 31.3822L112.689 31.426ZM113.195 16.8967C113.412 13.3969 113.728 10.8267 114.133 9.15255L112.506 8.75897C112.065 10.5802 111.742 13.2695 111.524 16.7932L113.195 16.8967ZM114.133 9.15255C114.548 7.43647 115.027 6.5633 115.562 6.1404L114.525 4.82645C113.521 5.61948 112.936 6.9797 112.506 8.75897L114.133 9.15255ZM115.562 6.1404C116.214 5.62602 117.112 5.19267 118.42 4.87235L118.022 3.24595C116.549 3.60653 115.413 4.12489 114.525 4.82645L115.562 6.1404ZM119.058 4.08107L119.068 3.70445L117.394 3.66062L117.385 4.03723L119.058 4.08107ZM118.253 2.84561L94.7775 2.23088L94.7337 3.90472L118.209 4.51946L118.253 2.84561ZM93.9187 3.04588L93.9088 3.4225L95.5827 3.46633L95.5925 3.08972L93.9187 3.04588ZM94.4843 4.23975C95.6567 4.62519 96.538 5.10636 97.1666 5.65868L98.2719 4.40086C97.4268 3.65835 96.3259 3.08261 95.0072 2.64909L94.4843 4.23975ZM97.1666 5.65868C97.4014 5.86496 97.6404 6.21407 97.8639 6.76578C98.0858 7.3134 98.2731 8.01259 98.433 8.86705L100.079 8.55919C99.9081 7.64626 99.6955 6.82747 99.4158 6.13712C99.1379 5.45086 98.7739 4.842 98.2719 4.40086L97.1666 5.65868ZM98.433 8.86705C98.7496 10.5601 98.9315 13.1433 98.9649 16.6497L100.639 16.6338C100.606 13.1035 100.423 10.401 100.079 8.55919L98.433 8.86705ZM98.9649 16.6497C98.9982 20.1495 98.8706 25.0274 98.7093 31.1856L100.383 31.2294C100.544 25.0849 100.673 20.1708 100.639 16.6338L98.9649 16.6497ZM98.7093 31.1856L97.7034 69.6003L99.3772 69.6442L100.383 31.2294L98.7093 31.1856ZM97.7034 69.6003C97.5421 75.7585 97.4143 80.6364 97.1978 84.1296L98.869 84.2332C99.0878 80.7028 99.2163 75.7887 99.3772 69.6442L97.7034 69.6003ZM97.1978 84.1296C96.981 87.6295 96.6642 90.1997 96.2594 91.8738L97.8869 92.2674C98.3273 90.4462 98.6507 87.7569 98.869 84.2332L97.1978 84.1296ZM96.2594 91.8738C95.8525 93.5564 95.2514 94.5737 94.7013 95.0082L95.7392 96.3222C96.7284 95.5408 97.4485 94.0802 97.8869 92.2674L96.2594 91.8738ZM94.7013 95.0082C94.0447 95.5269 93.1393 95.9613 91.9484 96.2848L92.3874 97.9007C93.7269 97.5368 94.8565 97.0194 95.7392 96.3222L94.7013 95.0082ZM92.1898 96.2558L92.0642 96.2526L92.0204 97.9264L92.146 97.9297L92.1898 96.2558ZM180.434 99.4041L181.271 99.426L179.695 99.0102L180.434 99.4041ZM180.424 99.7807L179.587 99.7588L179.565 100.596L180.402 100.618L180.424 99.7807ZM232.053 99.8764L232.87 100.062L232.874 100.045L232.877 100.027L232.053 99.8764ZM234.84 84.6232L235.663 84.7736L235.839 83.8119L234.862 83.7863L234.84 84.6232ZM234.463 84.6133L234.485 83.7764L233.86 83.7601L233.667 84.3546L234.463 84.6133ZM230.857 92.8101L231.567 93.2533L230.857 92.8101ZM226.209 97.5878L226.643 98.3036L226.209 97.5878ZM220.124 99.6897L220.008 98.8605L220.124 99.6897ZM198.389 99.7486L197.552 99.7267L197.531 100.564L198.367 100.586L198.389 99.7486ZM201.579 11.5182L200.765 11.3214L200.765 11.3214L201.579 11.5182ZM206.481 6.62156L206.68 7.43475L207.301 7.28271L207.318 6.64347L206.481 6.62156ZM206.491 6.24494L207.328 6.26685L207.35 5.42993L206.513 5.40802L206.491 6.24494ZM182.89 5.62692L182.912 4.79L182.075 4.76808L182.053 5.605L182.89 5.62692ZM182.88 6.00354L182.043 5.98162L182.027 6.60432L182.618 6.79887L182.88 6.00354ZM187.936 19.2009L188.773 19.1929L187.936 19.2009ZM186.168 86.7405L187.003 86.7923L186.168 86.7405ZM185.207 94.6297L184.393 94.4329L185.207 94.6297ZM183.354 98.2243L182.835 97.5674L183.354 98.2243ZM180.302 99.6519L179.563 99.258L178.652 100.968L180.521 100.46L180.302 99.6519ZM179.597 99.3822L179.587 99.7588L181.261 99.8026L181.271 99.426L179.597 99.3822ZM180.402 100.618L230.618 101.933L230.662 100.259L180.446 98.9438L180.402 100.618ZM230.618 101.933C230.848 101.939 231.293 101.962 231.751 101.748L231.041 100.231C230.991 100.255 230.934 100.266 230.662 100.259L230.618 101.933ZM231.751 101.748C232.361 101.463 232.709 100.769 232.87 100.062L231.237 99.6908C231.182 99.9334 231.111 100.091 231.055 100.182C230.994 100.281 230.975 100.263 231.041 100.231L231.751 101.748ZM232.877 100.027L235.663 84.7736L234.016 84.4728L231.23 99.726L232.877 100.027ZM234.862 83.7863L234.485 83.7764L234.441 85.4503L234.818 85.4601L234.862 83.7863ZM233.667 84.3546C232.587 87.6782 231.41 90.3421 230.146 92.3669L231.567 93.2533C232.926 91.0755 234.153 88.275 235.259 84.8721L233.667 84.3546ZM230.146 92.3669C228.892 94.3774 227.431 95.8676 225.775 96.8719L226.643 98.3036C228.561 97.1403 230.199 95.4454 231.567 93.2533L230.146 92.3669ZM225.775 96.8719C224.094 97.8913 222.176 98.5573 220.008 98.8605L220.24 100.519C222.611 100.187 224.75 99.4519 226.643 98.3036L225.775 96.8719ZM220.008 98.8605C217.783 99.1717 215.187 99.351 212.221 99.2733L212.177 100.947C215.236 101.027 217.925 100.843 220.24 100.519L220.008 98.8605ZM212.221 99.2733L198.411 98.9117L198.367 100.586L212.177 100.947L212.221 99.2733ZM199.226 99.7706L200.949 33.9885L199.275 33.9446L197.552 99.7267L199.226 99.7706ZM200.949 33.9885C201.11 27.8302 201.238 22.9523 201.454 19.4591L199.783 19.3556C199.564 22.886 199.436 27.8001 199.275 33.9446L200.949 33.9885ZM201.454 19.4591C201.671 15.9593 201.988 13.3891 202.393 11.715L200.765 11.3214C200.325 13.1426 200.002 15.8319 199.783 19.3556L201.454 19.4591ZM202.393 11.715C202.808 9.99888 203.287 9.12571 203.822 8.70281L202.784 7.38886C201.78 8.1819 201.196 9.54212 200.765 11.3214L202.393 11.715ZM203.822 8.70281C204.473 8.18844 205.372 7.75508 206.68 7.43475L206.282 5.80836C204.809 6.16894 203.672 6.6873 202.784 7.38886L203.822 8.70281ZM207.318 6.64347L207.328 6.26685L205.654 6.22302L205.644 6.59964L207.318 6.64347ZM206.513 5.40802L182.912 4.79L182.868 6.46384L206.469 7.08186L206.513 5.40802ZM182.053 5.605L182.043 5.98162L183.717 6.02545L183.727 5.64883L182.053 5.605ZM182.618 6.79887C183.791 7.18432 184.672 7.66548 185.301 8.21781L186.406 6.95998C185.561 6.21748 184.46 5.64174 183.141 5.20821L182.618 6.79887ZM185.301 8.21781C185.535 8.42408 185.775 8.77319 185.998 9.32491C186.22 9.87253 186.407 10.5717 186.567 11.4262L188.213 11.1183C188.042 10.2054 187.83 9.3866 187.55 8.69624C187.272 8.00999 186.908 7.40113 186.406 6.95998L185.301 8.21781ZM186.567 11.4262C186.884 13.1192 187.066 15.7024 187.099 19.2089L188.773 19.1929C188.74 15.6626 188.557 12.9601 188.213 11.1183L186.567 11.4262ZM187.099 19.2089C187.132 22.7086 187.005 27.5865 186.843 33.7447L188.517 33.7885C188.678 27.644 188.807 22.7299 188.773 19.1929L187.099 19.2089ZM186.843 33.7447L185.838 72.1595L187.511 72.2033L188.517 33.7885L186.843 33.7447ZM185.838 72.1595C185.676 78.3177 185.548 83.1956 185.332 86.6888L187.003 86.7923C187.222 83.2619 187.35 78.3478 187.511 72.2033L185.838 72.1595ZM185.332 86.6888C185.115 90.1886 184.798 92.7588 184.393 94.4329L186.021 94.8265C186.461 93.0053 186.785 90.316 187.003 86.7923L185.332 86.6888ZM184.393 94.4329C183.987 96.1155 183.386 97.1328 182.835 97.5674L183.873 98.8813C184.863 98.0999 185.583 96.6393 186.021 94.8265L184.393 94.4329ZM182.835 97.5674C182.179 98.086 181.273 98.5204 180.082 98.844L180.521 100.46C181.861 100.096 182.991 99.5786 183.873 98.8813L182.835 97.5674ZM181.041 100.046L181.173 99.798L179.695 99.0102L179.563 99.258L181.041 100.046ZM236.828 100.881L237.665 100.903L236.09 100.487L236.828 100.881ZM236.818 101.257L235.982 101.236L235.96 102.072L236.797 102.094L236.818 101.257ZM260.294 101.872L260.272 102.709L261.109 102.731L261.131 101.894L260.294 101.872ZM260.304 101.496L261.141 101.517L261.158 100.878L260.545 100.694L260.304 101.496ZM257.205 99.9069L256.652 100.536L257.205 99.9069ZM255.665 96.3491L256.488 96.1952L256.488 96.1952L255.665 96.3491ZM255.119 88.4205L254.282 88.4284L255.119 88.4205ZM256.887 20.8808L256.052 20.829L256.887 20.8808ZM257.848 12.9916L258.662 13.1884L258.662 13.1884L257.848 12.9916ZM262.75 8.095L262.949 8.9082L263.57 8.75616L263.587 8.11692L262.75 8.095ZM262.76 7.71838L263.597 7.7403L263.618 6.90338L262.782 6.88146L262.76 7.71838ZM239.284 7.10365L239.306 6.26673L238.469 6.24482L238.447 7.08174L239.284 7.10365ZM239.274 7.48027L238.437 7.45836L238.421 8.08105L239.013 8.2756L239.274 7.48027ZM244.33 20.6776L245.168 20.6697L244.33 20.6776ZM242.562 88.2173L243.397 88.269L242.562 88.2173ZM241.601 96.1065L240.788 95.9097L241.601 96.1065ZM239.749 99.7011L239.23 99.0441L239.749 99.7011ZM236.696 101.129L235.957 100.735L235.046 102.445L236.916 101.937L236.696 101.129ZM235.991 100.859L235.982 101.236L237.655 101.279L237.665 100.903L235.991 100.859ZM236.797 102.094L260.272 102.709L260.316 101.035L236.84 100.421L236.797 102.094ZM261.131 101.894L261.141 101.517L259.467 101.474L259.457 101.85L261.131 101.894ZM260.545 100.694C259.255 100.306 258.381 99.8258 257.758 99.278L256.652 100.536C257.503 101.283 258.61 101.86 260.063 102.297L260.545 100.694ZM257.758 99.278C257.245 98.8277 256.813 97.9306 256.488 96.1952L254.842 96.503C255.179 98.3024 255.691 99.6913 256.652 100.536L257.758 99.278ZM256.488 96.1952C256.171 94.5022 255.989 91.9189 255.956 88.4125L254.282 88.4284C254.315 91.9587 254.498 94.6612 254.842 96.503L256.488 96.1952ZM255.956 88.4125C255.923 84.9128 256.05 80.0348 256.212 73.8766L254.538 73.8328C254.377 79.9774 254.248 84.8914 254.282 88.4284L255.956 88.4125ZM256.212 73.8766L257.218 35.4619L255.544 35.4181L254.538 73.8328L256.212 73.8766ZM257.218 35.4619C257.379 29.3037 257.507 24.4258 257.723 20.9326L256.052 20.829C255.833 24.3594 255.705 29.2735 255.544 35.4181L257.218 35.4619ZM257.723 20.9326C257.94 17.4327 258.257 14.8625 258.662 13.1884L257.034 12.7948C256.594 14.6161 256.27 17.3053 256.052 20.829L257.723 20.9326ZM258.662 13.1884C259.077 11.4723 259.555 10.5992 260.091 10.1763L259.053 8.86231C258.049 9.65534 257.464 11.0156 257.034 12.7948L258.662 13.1884ZM260.091 10.1763C260.742 9.66188 261.64 9.22853 262.949 8.9082L262.551 7.2818C261.078 7.64239 259.941 8.16075 259.053 8.86231L260.091 10.1763ZM263.587 8.11692L263.597 7.7403L261.923 7.69647L261.913 8.07309L263.587 8.11692ZM262.782 6.88146L239.306 6.26673L239.262 7.94058L262.738 8.55531L262.782 6.88146ZM238.447 7.08174L238.437 7.45836L240.111 7.50219L240.121 7.12557L238.447 7.08174ZM239.013 8.2756C240.185 8.66105 241.066 9.14222 241.695 9.69454L242.8 8.43672C241.955 7.69421 240.854 7.11847 239.536 6.68494L239.013 8.2756ZM241.695 9.69454C241.93 9.90082 242.169 10.2499 242.392 10.8016C242.614 11.3493 242.801 12.0484 242.961 12.9029L244.607 12.595C244.436 11.6821 244.224 10.8633 243.944 10.173C243.666 9.48672 243.302 8.87786 242.8 8.43672L241.695 9.69454ZM242.961 12.9029C243.278 14.5959 243.46 17.1792 243.493 20.6856L245.168 20.6697C245.134 17.1393 244.952 14.4368 244.607 12.595L242.961 12.9029ZM243.493 20.6856C243.526 24.1853 243.399 29.0632 243.238 35.2214L244.911 35.2653C245.072 29.1207 245.201 24.2066 245.168 20.6697L243.493 20.6856ZM243.238 35.2214L242.232 73.6362L243.906 73.68L244.911 35.2653L243.238 35.2214ZM242.232 73.6362C242.07 79.7944 241.943 84.6723 241.726 88.1655L243.397 88.269C243.616 84.7387 243.745 79.8246 243.906 73.68L242.232 73.6362ZM241.726 88.1655C241.509 91.6654 241.193 94.2356 240.788 95.9097L242.415 96.3033C242.856 94.482 243.179 91.7928 243.397 88.269L241.726 88.1655ZM240.788 95.9097C240.381 97.5923 239.78 98.6096 239.23 99.0441L240.268 100.358C241.257 99.5766 241.977 98.116 242.415 96.3033L240.788 95.9097ZM239.23 99.0441C238.573 99.5628 237.668 99.9971 236.477 100.321L236.916 101.937C238.255 101.573 239.385 101.055 240.268 100.358L239.23 99.0441ZM237.435 101.523L237.567 101.275L236.09 100.487L235.957 100.735L237.435 101.523ZM263.299 101.951L262.462 101.929L262.44 102.766L263.277 102.788L263.299 101.951ZM274.974 102.257L274.952 103.094L275.789 103.115L275.811 102.279L274.974 102.257ZM274.984 101.88L275.821 101.902L275.836 101.316L275.291 101.101L274.984 101.88ZM271.892 100.04L272.444 99.4113L271.892 100.04ZM270.355 96.3569L271.178 96.203L270.355 96.3569ZM269.806 88.5538L270.643 88.5447L269.806 88.5538ZM271.718 10.7167L272.466 10.3401L270.881 10.6948L271.718 10.7167ZM318.648 103.903L317.901 104.279L318.126 104.727L318.627 104.74L318.648 103.903ZM320.406 103.949L320.384 104.786L321.221 104.808L321.243 103.971L320.406 103.949ZM322.649 23.1053L323.484 23.1582L322.649 23.1053ZM323.606 15.3417L324.419 15.5385L324.419 15.5385L323.606 15.3417ZM325.333 11.7438L325.852 12.4008L325.852 12.4008L325.333 11.7438ZM328.392 10.0651L328.682 10.8504L329.214 10.6537L329.229 10.0871L328.392 10.0651ZM328.402 9.68854L329.239 9.71045L329.261 8.87353L328.424 8.85162L328.402 9.68854ZM316.727 9.38282L316.749 8.54589L315.912 8.52398L315.89 9.3609L316.727 9.38282ZM316.717 9.75943L315.88 9.73751L315.865 10.3237L316.41 10.5385L316.717 9.75943ZM319.809 11.5992L319.257 12.2281L319.257 12.2281L319.809 11.5992ZM321.346 15.2825L322.169 15.1286L322.169 15.1286L321.346 15.2825ZM321.895 23.0856L321.058 23.0947L321.895 23.0856ZM320.551 79.2046L319.805 79.5832L321.388 79.2265L320.551 79.2046ZM286.268 11.6002L287.014 11.2215L287.013 11.2187L286.268 11.6002ZM284.579 8.91787L285.186 8.34157L285.186 8.34157L284.579 8.91787ZM265.887 7.92591L265.909 7.08899L265.072 7.06707L265.05 7.90399L265.887 7.92591ZM265.877 8.30252L265.04 8.2806L265.024 8.9033L265.616 9.09785L265.877 8.30252ZM268.851 9.88788L268.298 10.5168L268.851 9.88788ZM270.387 13.5712L269.564 13.7252L270.387 13.5712ZM270.933 21.4999L270.096 21.5078L270.933 21.4999ZM269.175 88.6629L268.339 88.61L269.175 88.6629ZM268.218 96.4266L267.404 96.2298L268.218 96.4266ZM266.365 100.021L266.884 100.678L266.365 100.021ZM263.306 101.7L262.469 101.678L262.436 102.914L263.596 102.485L263.306 101.7ZM262.472 101.552L262.462 101.929L264.136 101.973L264.146 101.596L262.472 101.552ZM263.277 102.788L274.952 103.094L274.996 101.42L263.321 101.114L263.277 102.788ZM275.811 102.279L275.821 101.902L274.147 101.858L274.137 102.235L275.811 102.279ZM275.291 101.101C274.014 100.598 273.109 99.9954 272.444 99.4113L271.339 100.669C272.148 101.38 273.219 102.085 274.678 102.659L275.291 101.101ZM272.444 99.4113C272.21 99.2051 271.97 98.856 271.747 98.3042C271.525 97.7566 271.338 97.0574 271.178 96.203L269.532 96.5108C269.703 97.4238 269.915 98.2426 270.195 98.9329C270.473 99.6192 270.837 100.228 271.339 100.669L272.444 99.4113ZM271.178 96.203C270.861 94.5092 270.679 91.9253 270.643 88.5447L268.968 88.5629C269.005 91.968 269.188 94.6698 269.532 96.5108L271.178 96.203ZM270.643 88.5447C270.606 85.1712 270.73 80.4196 270.888 74.3866L269.215 74.3428C269.057 80.3614 268.931 85.1507 268.968 88.5629L270.643 88.5447ZM270.888 74.3866L272.555 10.7386L270.881 10.6948L269.215 74.3428L270.888 74.3866ZM270.97 11.0933L317.901 104.279L319.396 103.526L272.466 10.3401L270.97 11.0933ZM318.627 104.74L320.384 104.786L320.428 103.112L318.67 103.066L318.627 104.74ZM321.243 103.971L322.989 37.3098L321.315 37.266L319.569 103.927L321.243 103.971ZM322.989 37.3098C323.146 31.2767 323.271 26.5251 323.484 23.1582L321.813 23.0524C321.598 26.458 321.472 31.2473 321.315 37.266L322.989 37.3098ZM323.484 23.1582C323.698 19.7842 324.014 17.2133 324.419 15.5385L322.792 15.1449C322.352 16.9654 322.028 19.654 321.813 23.0524L323.484 23.1582ZM324.419 15.5385C324.624 14.6935 324.847 14.0051 325.098 13.4699C325.35 12.9306 325.607 12.5945 325.852 12.4008L324.814 11.0868C324.29 11.5011 323.894 12.0901 323.581 12.7608C323.265 13.4356 323.01 14.2421 322.792 15.1449L324.419 15.5385ZM325.852 12.4008C326.551 11.8485 327.494 11.2899 328.682 10.8504L328.101 9.27995C326.752 9.779 325.654 10.4231 324.814 11.0868L325.852 12.4008ZM329.229 10.0871L329.239 9.71045L327.565 9.66662L327.555 10.0432L329.229 10.0871ZM328.424 8.85162L316.749 8.54589L316.705 10.2197L328.38 10.5255L328.424 8.85162ZM315.89 9.3609L315.88 9.73751L317.554 9.78134L317.564 9.40473L315.89 9.3609ZM316.41 10.5385C317.687 11.0411 318.592 11.644 319.257 12.2281L320.362 10.9702C319.553 10.2594 318.482 9.55441 317.023 8.98038L316.41 10.5385ZM319.257 12.2281C319.491 12.4343 319.73 12.7835 319.954 13.3352C320.176 13.8828 320.363 14.582 320.523 15.4364L322.169 15.1286C321.998 14.2156 321.786 13.3969 321.506 12.7065C321.228 12.0202 320.864 11.4114 320.362 10.9702L319.257 12.2281ZM320.523 15.4364C320.84 17.1302 321.022 19.7141 321.058 23.0947L322.733 23.0765C322.696 19.6715 322.513 16.9696 322.169 15.1286L320.523 15.4364ZM321.058 23.0947C321.095 26.4682 320.97 31.2198 320.813 37.2528L322.486 37.2966C322.644 31.278 322.77 26.4887 322.733 23.0765L321.058 23.0947ZM320.813 37.2528L319.715 79.1826L321.388 79.2265L322.486 37.2966L320.813 37.2528ZM321.298 78.8259L287.014 11.2215L285.521 11.9789L319.805 79.5832L321.298 78.8259ZM287.013 11.2187C286.287 9.80062 285.638 8.81776 285.186 8.34157L283.972 9.49416C284.253 9.79093 284.814 10.5985 285.522 11.9817L287.013 11.2187ZM285.186 8.34157C284.566 7.68808 283.622 7.55283 282.731 7.52949L282.687 9.20333C283.554 9.22602 283.858 9.37471 283.972 9.49417L285.186 8.34157ZM282.731 7.52949L265.909 7.08899L265.865 8.76283L282.687 9.20333L282.731 7.52949ZM265.05 7.90399L265.04 8.2806L266.714 8.32443L266.724 7.94782L265.05 7.90399ZM265.616 9.09785C266.788 9.4833 267.669 9.96446 268.298 10.5168L269.403 9.25897C268.558 8.51646 267.457 7.94072 266.139 7.50719L265.616 9.09785ZM268.298 10.5168C268.533 10.7231 268.772 11.0722 268.995 11.6239C269.217 12.1715 269.404 12.8707 269.564 13.7252L271.21 13.4173C271.039 12.5044 270.827 11.6856 270.547 10.9952C270.269 10.309 269.905 9.70011 269.403 9.25897L268.298 10.5168ZM269.564 13.7252C269.881 15.4182 270.063 18.0014 270.096 21.5078L271.771 21.4919C271.737 17.9616 271.555 15.2591 271.21 13.4173L269.564 13.7252ZM270.096 21.5078C270.13 25.0076 270.002 29.8855 269.841 36.0437L271.514 36.0875C271.675 29.943 271.804 25.0289 271.771 21.4919L270.096 21.5078ZM269.841 36.0437L268.835 74.4584L270.509 74.5023L271.514 36.0875L269.841 36.0437ZM268.835 74.4584C268.677 80.4915 268.552 85.2431 268.339 88.61L270.01 88.7158C270.226 85.3102 270.351 80.5209 270.509 74.5023L268.835 74.4584ZM268.339 88.61C268.126 91.984 267.809 94.5549 267.404 96.2298L269.031 96.6233C269.472 94.8028 269.795 92.1143 270.01 88.7158L268.339 88.61ZM267.404 96.2298C266.997 97.9124 266.396 98.9297 265.846 99.3642L266.884 100.678C267.873 99.8967 268.593 98.4361 269.031 96.6233L267.404 96.2298ZM265.846 99.3642C265.147 99.9164 264.203 100.475 263.015 100.915L263.596 102.485C264.945 101.986 266.043 101.342 266.884 100.678L265.846 99.3642ZM264.143 101.722L264.146 101.596L262.472 101.552L262.469 101.678L264.143 101.722ZM365.656 105.636L365.678 104.799L365.41 104.792L365.188 104.942L365.656 105.636ZM374.728 104.617L374.495 103.813L374.728 104.617ZM392.246 92.8906L392.93 93.3731L393.076 93.1659L393.083 92.9125L392.246 92.8906ZM392.871 73.8121L393.706 73.8758L392.871 73.8121ZM393.772 68.1826L394.567 68.4441L394.567 68.4441L393.772 68.1826ZM395.599 65.5923L396.045 66.3008L396.045 66.3008L395.599 65.5923ZM398.77 64.4191L398.969 65.2323L399.59 65.0802L399.607 64.441L398.77 64.4191ZM398.78 64.0425L399.617 64.0644L399.639 63.2275L398.802 63.2056L398.78 64.0425ZM375.555 63.4343L375.577 62.5974L374.74 62.5755L374.718 63.4124L375.555 63.4343ZM375.545 63.8109L374.708 63.789L374.692 64.4117L375.284 64.6063L375.545 63.8109ZM378.525 65.1452L378.043 65.8294L378.043 65.8294L378.525 65.1452ZM380.214 67.8275L379.406 68.047L380.214 67.8275ZM380.829 73.1199L379.992 73.1444L380.829 73.1199ZM379.771 94.3227L380.597 94.4628L379.771 94.3227ZM377.337 100.917L378.029 101.388L377.337 100.917ZM372.719 104.565L372.429 103.78L372.719 104.565ZM349.391 93.5272L348.633 93.8819L349.391 93.5272ZM345.276 77.9676L344.446 78.0782L345.276 77.9676ZM351.568 19.9683L352.284 20.4025L351.568 19.9683ZM358.921 12.6233L359.303 13.3686L359.303 13.3686L358.921 12.6233ZM375.522 11.9274L375.249 12.7189L375.249 12.7189L375.522 11.9274ZM381.829 15.7357L382.394 15.1176L381.829 15.7357ZM386.557 22.2664L385.806 22.6353L386.557 22.2664ZM389.324 31.7606L388.495 31.8812L388.597 32.5791L389.302 32.5975L389.324 31.7606ZM389.7 31.7705L389.679 32.6074L390.515 32.6293L390.537 31.7924L389.7 31.7705ZM390.217 12.061L391.053 12.0829L391.075 11.246L390.238 11.224L390.217 12.061ZM389.84 12.0511L389.862 11.2142L389.226 11.1975L389.039 11.806L389.84 12.0511ZM382.992 14.5099L383.352 13.754L383.352 13.754L382.992 14.5099ZM379.265 12.9048L379.572 12.1258L379.572 12.1258L379.265 12.9048ZM374.534 11.2734L374.785 10.4747L374.534 11.2734ZM354.772 12.7659L354.454 11.9914L354.772 12.7659ZM334.325 35.5967L333.546 35.2914L334.325 35.5967ZM332.613 77.0079L333.427 76.8103L332.613 77.0079ZM339.242 92.5077L338.552 92.9822L339.242 92.5077ZM350.162 102.467L349.76 103.201L350.162 102.467ZM364.761 106.241L364.739 107.078L365.007 107.085L365.23 106.935L364.761 106.241ZM365.634 106.473C368.961 106.56 372.073 106.258 374.961 105.422L374.495 103.813C371.813 104.59 368.879 104.883 365.678 104.799L365.634 106.473ZM374.961 105.422C377.78 104.605 380.373 103.648 382.73 102.419L381.955 100.934C379.727 102.097 377.246 103.017 374.495 103.813L374.961 105.422ZM382.73 102.419C385.101 101.181 387.086 99.6755 388.809 98.0409L387.656 96.8263C386.029 98.3703 384.169 99.7789 381.955 100.934L382.73 102.419ZM388.809 98.0409C390.515 96.4219 391.848 94.9071 392.93 93.3731L391.561 92.4082C390.556 93.8345 389.299 95.2669 387.656 96.8263L388.809 98.0409ZM393.083 92.9125L393.316 83.9993L391.642 83.9555L391.409 92.8687L393.083 92.9125ZM393.316 83.9993C393.428 79.7219 393.516 76.3573 393.706 73.8758L392.036 73.7484C391.843 76.2818 391.754 79.6963 391.642 83.9555L393.316 83.9993ZM393.706 73.8758C393.895 71.3861 394.19 69.5911 394.567 68.4441L392.977 67.9211C392.535 69.2651 392.229 71.2231 392.036 73.7484L393.706 73.8758ZM394.567 68.4441C394.932 67.3349 395.482 66.655 396.045 66.3008L395.153 64.8838C394.182 65.4944 393.431 66.5392 392.977 67.9211L394.567 68.4441ZM396.045 66.3008C396.693 65.8926 397.599 65.5675 398.969 65.2323L398.571 63.6059C397.159 63.9516 396.037 64.3272 395.153 64.8838L396.045 66.3008ZM399.607 64.441L399.617 64.0644L397.943 64.0206L397.933 64.3972L399.607 64.441ZM398.802 63.2056L375.577 62.5974L375.533 64.2712L398.758 64.8794L398.802 63.2056ZM374.718 63.4124L374.708 63.789L376.382 63.8328L376.392 63.4562L374.718 63.4124ZM375.284 64.6063C376.519 65.0123 377.411 65.384 378.043 65.8294L379.008 64.461C378.159 63.8627 377.063 63.4286 375.807 63.0156L375.284 64.6063ZM378.043 65.8294C378.586 66.2126 379.1 66.9203 379.406 68.047L381.022 67.6081C380.64 66.2042 379.945 65.1216 379.008 64.461L378.043 65.8294ZM379.406 68.047C379.724 69.219 379.926 70.9071 379.992 73.1444L381.666 73.0953C381.599 70.8067 381.391 68.9666 381.022 67.6081L379.406 68.047ZM379.992 73.1444C380.058 75.3786 379.98 78.3638 379.878 82.2656L381.551 82.3094C381.653 78.4278 381.733 75.3871 381.666 73.0953L379.992 73.1444ZM379.878 82.2656L379.818 84.5252L381.492 84.5691L381.551 82.3094L379.878 82.2656ZM379.818 84.5252C379.717 88.3816 379.384 91.5993 378.946 94.1827L380.597 94.4628C381.05 91.7932 381.389 88.4961 381.492 84.5691L379.818 84.5252ZM378.946 94.1827C378.514 96.7274 377.735 98.8445 376.645 100.446L378.029 101.388C379.291 99.5338 380.137 97.1709 380.597 94.4628L378.946 94.1827ZM376.645 100.446C375.564 102.035 374.163 103.138 372.429 103.78L373.01 105.35C375.081 104.584 376.759 103.255 378.029 101.388L376.645 100.446ZM372.429 103.78C370.664 104.433 368.261 104.741 365.305 104.664L365.261 106.338C368.331 106.418 370.969 106.105 373.01 105.35L372.429 103.78ZM365.305 104.664C362.202 104.583 359.377 103.676 356.806 101.823L355.827 103.181C358.681 105.239 361.836 106.248 365.261 106.338L365.305 104.664ZM356.806 101.823C354.238 99.9719 352.009 97.1495 350.149 93.1725L348.633 93.8819C350.579 98.0445 352.97 101.122 355.827 103.181L356.806 101.823ZM350.149 93.1725C348.294 89.2046 346.939 84.1078 346.106 77.857L344.446 78.0782C345.293 84.4338 346.682 89.7101 348.633 93.8819L350.149 93.1725ZM346.106 77.857C345.273 71.611 344.969 64.1124 345.201 55.2276L343.528 55.1838C343.293 64.1255 343.598 71.7178 344.446 78.0782L346.106 77.857ZM345.201 55.2276C345.424 46.7173 346.111 39.6346 347.376 33.9636L345.741 33.5992C344.444 39.4185 343.752 46.621 343.528 55.1838L345.201 55.2276ZM347.376 33.9636C348.647 28.2627 350.25 23.7557 352.284 20.4025L350.853 19.534C348.686 23.1058 347.032 27.8097 345.741 33.5992L347.376 33.9636ZM352.284 20.4025C354.327 17.0352 356.674 14.7144 359.303 13.3686L358.54 11.8781C355.566 13.4005 353.011 15.9764 350.853 19.534L352.284 20.4025ZM359.303 13.3686C361.975 12.0007 364.868 11.3553 367.997 11.4373L368.041 9.76341C364.643 9.67442 361.471 10.3777 358.54 11.8781L359.303 13.3686ZM367.997 11.4373C370.553 11.5042 372.969 11.9326 375.249 12.7189L375.795 11.1359C373.344 10.2909 370.758 9.83457 368.041 9.76341L367.997 11.4373ZM375.249 12.7189C377.495 13.4934 379.499 14.7411 381.264 16.3538L382.394 15.1176C380.478 13.3676 378.28 11.9928 375.795 11.1359L375.249 12.7189ZM381.264 16.3538C383.014 17.9522 384.531 20.039 385.806 22.6353L387.309 21.8974C385.96 19.1488 384.325 16.8818 382.394 15.1176L381.264 16.3538ZM385.806 22.6353C387.071 25.2132 387.973 28.2905 388.495 31.8812L390.152 31.64C389.61 27.9166 388.667 24.6644 387.309 21.8974L385.806 22.6353ZM389.302 32.5975L389.679 32.6074L389.722 30.9336L389.346 30.9237L389.302 32.5975ZM390.537 31.7924L391.053 12.0829L389.38 12.039L388.864 31.7486L390.537 31.7924ZM390.238 11.224L389.862 11.2142L389.818 12.888L390.195 12.8979L390.238 11.224ZM389.039 11.806C388.72 12.8492 388.315 13.5415 387.886 13.96C387.478 14.3589 387.027 14.5318 386.509 14.5182L386.465 16.1921C387.453 16.218 388.336 15.8605 389.056 15.1583C389.755 14.4757 390.273 13.4963 390.64 12.2962L389.039 11.806ZM386.509 14.5182C385.375 14.4885 384.367 14.2373 383.352 13.754L382.632 15.2658C383.85 15.846 385.088 16.156 386.465 16.1921L386.509 14.5182ZM383.352 13.754C382.215 13.2126 380.954 12.6699 379.572 12.1258L378.959 13.6839C380.311 14.2163 381.536 14.7437 382.632 15.2658L383.352 13.754ZM379.572 12.1258C378.177 11.5769 376.537 11.0252 374.785 10.4747L374.283 12.0721C376.02 12.618 377.618 13.1561 378.959 13.6839L379.572 12.1258ZM374.785 10.4747C372.94 9.89501 370.603 9.57924 367.922 9.50905L367.878 11.1829C370.47 11.2508 372.639 11.5555 374.283 12.0721L374.785 10.4747ZM367.922 9.50905C363.414 9.391 358.882 10.175 354.454 11.9914L355.09 13.5405C359.298 11.8142 363.599 11.0708 367.878 11.1829L367.922 9.50905ZM354.454 11.9914C350.015 13.8125 345.948 16.6722 342.379 20.5594L343.612 21.6918C347.026 17.9732 350.894 15.262 355.09 13.5405L354.454 11.9914ZM342.379 20.5594C338.804 24.453 335.864 29.3709 333.546 35.2914L335.105 35.9019C337.364 30.1336 340.204 25.4041 343.612 21.6918L342.379 20.5594ZM333.546 35.2914C331.211 41.2528 330.013 48.3592 329.798 56.583L331.472 56.6269C331.684 48.5306 332.862 41.6294 335.105 35.9019L333.546 35.2914ZM329.798 56.583C329.599 64.1801 330.306 71.0568 331.799 77.2055L333.427 76.8103C331.972 70.8219 331.276 64.0944 331.472 56.6269L329.798 56.583ZM331.799 77.2055C333.293 83.3555 335.581 88.6628 338.552 92.9822L339.932 92.0331C337.095 87.9093 334.881 82.7975 333.427 76.8103L331.799 77.2055ZM338.552 92.9822C341.528 97.307 345.305 100.761 349.76 103.201L350.564 101.732C346.349 99.4233 342.765 96.1517 339.932 92.0331L338.552 92.9822ZM349.76 103.201C354.222 105.645 359.22 106.933 364.739 107.078L364.783 105.404C359.505 105.266 354.771 104.037 350.564 101.732L349.76 103.201ZM365.23 106.935L366.125 106.33L365.188 104.942L364.292 105.547L365.23 106.935ZM399.881 105.151L400.718 105.172L400.748 104.011L399.637 104.35L399.881 105.151ZM399.871 105.527L399.034 105.505L399.012 106.342L399.849 106.364L399.871 105.527ZM454.388 105.698L455.204 105.884L455.212 105.85L455.217 105.814L454.388 105.698ZM456.243 92.4308L457.072 92.5468L457.202 91.6184L456.265 91.5939L456.243 92.4308ZM455.741 92.4177L455.762 91.5808L455.103 91.5635L454.932 92.2011L455.741 92.4177ZM448.276 104.031L447.88 103.293L448.276 104.031ZM442.075 105.753L442.141 106.588L442.075 105.753ZM417.711 105.492L416.874 105.47L416.852 106.307L417.689 106.329L417.711 105.492ZM419.042 54.6487L419.064 53.8118L418.227 53.7899L418.205 54.6268L419.042 54.6487ZM435.28 58.2146L434.63 58.7426L434.63 58.7426L435.28 58.2146ZM436.833 61.2702L437.634 61.0263L436.833 61.2702ZM437.623 64.6828L436.801 64.8429L436.93 65.5021L437.601 65.5197L437.623 64.6828ZM437.874 64.6893L437.852 65.5263L438.689 65.5482L438.711 64.7112L437.874 64.6893ZM438.397 44.7287L439.234 44.7506L439.256 43.9137L438.419 43.8918L438.397 44.7287ZM438.146 44.7222L438.168 43.8852L437.496 43.8676L437.334 44.5192L438.146 44.7222ZM437.178 48.0887L437.965 48.3741L437.178 48.0887ZM435.467 51.0589L434.846 50.4976L435.467 51.0589ZM432.144 53.2331L432.471 54.0041L432.144 53.2331ZM419.065 53.77L418.228 53.7481L418.206 54.585L419.043 54.6069L419.065 53.77ZM420.16 11.9657L420.182 11.1288L419.345 11.1068L419.323 11.9438L420.16 11.9657ZM441.987 13.1654L441.828 13.9873L441.987 13.1654ZM447.709 15.3252L447.252 16.0265L447.709 15.3252ZM451.75 19.3254L451.05 19.7837L451.05 19.7837L451.75 19.3254ZM454.351 25.5491L453.543 25.7686L453.706 26.3697L454.329 26.386L454.351 25.5491ZM454.853 25.5622L454.831 26.3992L455.832 26.4254L455.681 25.4357L454.853 25.5622ZM453.137 14.3367L452.305 14.4334L452.307 14.4483L452.309 14.4632L453.137 14.3367ZM452.549 12.8138L452.155 13.5526L452.155 13.5526L452.549 12.8138ZM402.089 11.2412L402.111 10.4043L401.274 10.3824L401.252 11.2193L402.089 11.2412ZM402.079 11.6178L401.242 11.5959L401.226 12.2186L401.818 12.4132L402.079 11.6178ZM405.053 13.2032L405.605 12.5743L405.605 12.5743L405.053 13.2032ZM407.135 24.8152L407.973 24.8072L407.135 24.8152ZM405.367 92.3548L406.202 92.4066L405.367 92.3548ZM404.406 100.244L405.22 100.441L404.406 100.244ZM402.554 103.839L402.035 103.182L402.554 103.839ZM399.501 105.266L399.257 104.465L399.721 106.074L399.501 105.266ZM399.044 105.129L399.034 105.505L400.708 105.549L400.718 105.172L399.044 105.129ZM399.849 106.364L453.078 107.758L453.121 106.084L399.893 104.69L399.849 106.364ZM453.078 107.758C453.308 107.764 453.753 107.788 454.211 107.574L453.501 106.057C453.451 106.08 453.394 106.091 453.121 106.084L453.078 107.758ZM454.211 107.574C454.603 107.39 454.81 107.052 454.928 106.788C455.048 106.521 455.132 106.203 455.204 105.884L453.571 105.513C453.502 105.818 453.447 105.999 453.4 106.104C453.351 106.214 453.363 106.121 453.501 106.057L454.211 107.574ZM455.217 105.814L457.072 92.5468L455.414 92.3149L453.559 105.583L455.217 105.814ZM456.265 91.5939L455.762 91.5808L455.719 93.2546L456.221 93.2678L456.265 91.5939ZM454.932 92.2011C454.113 95.2586 453.072 97.6598 451.95 99.425L453.362 100.324C454.598 98.382 455.697 95.8142 456.549 92.6343L454.932 92.2011ZM451.95 99.425C450.841 101.168 449.526 102.409 447.88 103.293L448.672 104.768C450.593 103.737 452.113 102.288 453.362 100.324L451.95 99.425ZM447.88 103.293C446.211 104.19 444.301 104.738 442.009 104.918L442.141 106.588C444.633 106.391 446.773 105.789 448.672 104.768L447.88 103.293ZM442.009 104.918C439.655 105.104 436.796 105.154 433.551 105.069L433.507 106.743C436.79 106.829 439.711 106.779 442.141 106.588L442.009 104.918ZM433.551 105.069L417.733 104.655L417.689 106.329L433.507 106.743L433.551 105.069ZM418.548 105.514L419.879 54.6707L418.205 54.6268L416.874 105.47L418.548 105.514ZM419.02 55.4857L426.427 55.6796L426.471 54.0058L419.064 53.8118L419.02 55.4857ZM426.427 55.6796C428.777 55.7412 430.508 56.038 431.709 56.6222L432.441 55.1166C430.913 54.373 428.891 54.0691 426.471 54.0058L426.427 55.6796ZM431.709 56.6222C433.013 57.2565 434.005 57.9734 434.63 58.7426L435.93 57.6865C435.094 56.6587 433.867 55.81 432.441 55.1166L431.709 56.6222ZM434.63 58.7426C435.274 59.5349 435.707 60.4467 436.032 61.5141L437.634 61.0263C437.265 59.8142 436.746 58.6911 435.93 57.6865L434.63 58.7426ZM436.032 61.5141C436.365 62.6059 436.579 63.7003 436.801 64.8429L438.445 64.5226C438.225 63.3924 437.996 62.214 437.634 61.0263L436.032 61.5141ZM437.601 65.5197L437.852 65.5263L437.896 63.8524L437.645 63.8458L437.601 65.5197ZM438.711 64.7112L439.234 44.7506L437.56 44.7068L437.037 64.6674L438.711 64.7112ZM438.419 43.8918L438.168 43.8852L438.124 45.5591L438.375 45.5656L438.419 43.8918ZM437.334 44.5192C437.051 45.6486 436.78 46.7303 436.391 47.8032L437.965 48.3741C438.389 47.2071 438.679 46.0422 438.958 44.9251L437.334 44.5192ZM436.391 47.8032C436.011 48.8521 435.531 49.74 434.846 50.4976L436.089 51.6202C436.956 50.6597 437.533 49.5652 437.965 48.3741L436.391 47.8032ZM434.846 50.4976C434.182 51.2329 433.153 51.897 431.818 52.4621L432.471 54.0041C433.93 53.3861 435.201 52.6029 436.089 51.6202L434.846 50.4976ZM431.818 52.4621C430.588 52.9826 428.844 53.1885 426.494 53.127L426.45 54.8008C428.87 54.8642 430.906 54.6666 432.471 54.0041L431.818 52.4621ZM426.494 53.127L419.087 52.933L419.043 54.6069L426.45 54.8008L426.494 53.127ZM419.902 53.7919L420.997 11.9876L419.323 11.9438L418.228 53.7481L419.902 53.7919ZM420.138 12.8026L434.073 13.1675L434.117 11.4937L420.182 11.1288L420.138 12.8026ZM434.073 13.1675C437.039 13.2452 439.623 13.5602 441.828 13.9873L442.146 12.3434C439.852 11.899 437.176 11.5738 434.117 11.4937L434.073 13.1675ZM441.828 13.9873C444.004 14.4087 445.761 15.0541 447.252 16.0265L448.167 14.6239C446.446 13.5022 444.47 12.7936 442.146 12.3434L441.828 13.9873ZM447.252 16.0265C448.769 17.0156 450.031 18.2269 451.05 19.7837L452.451 18.867C451.295 17.1007 449.861 15.7289 448.167 14.6239L447.252 16.0265ZM451.05 19.7837C452.072 21.347 452.869 23.2885 453.543 25.7686L455.159 25.3296C454.458 22.7487 453.602 20.6269 452.451 18.867L451.05 19.7837ZM454.329 26.386L454.831 26.3992L454.875 24.7253L454.373 24.7122L454.329 26.386ZM455.681 25.4357L453.965 14.2102L452.309 14.4632L454.025 25.6887L455.681 25.4357ZM453.969 14.24C453.912 13.7499 453.813 13.3233 453.673 12.9787C453.547 12.6689 453.33 12.2815 452.943 12.0751L452.155 13.5526C452.073 13.5091 452.046 13.465 452.056 13.4788C452.064 13.4895 452.089 13.5284 452.122 13.6094C452.188 13.7727 452.26 14.0415 452.305 14.4334L453.969 14.24ZM452.943 12.0751C452.618 11.9017 452.116 11.7137 451.573 11.6995L451.529 13.3734C451.739 13.3789 451.984 13.4617 452.155 13.5526L452.943 12.0751ZM451.573 11.6995L402.111 10.4043L402.067 12.0782L451.529 13.3734L451.573 11.6995ZM401.252 11.2193L401.242 11.5959L402.916 11.6398L402.926 11.2631L401.252 11.2193ZM401.818 12.4132C402.99 12.7986 403.871 13.2798 404.5 13.8321L405.605 12.5743C404.76 11.8318 403.659 11.256 402.341 10.8225L401.818 12.4132ZM404.5 13.8321C404.735 14.0384 404.974 14.3875 405.197 14.9392C405.419 15.4868 405.606 16.186 405.766 17.0405L407.412 16.7326C407.241 15.8197 407.029 15.0009 406.749 14.3106C406.471 13.6243 406.107 13.0154 405.605 12.5743L404.5 13.8321ZM405.766 17.0405C406.083 18.7335 406.265 21.3167 406.298 24.8232L407.973 24.8072C407.939 21.2769 407.757 18.5744 407.412 16.7326L405.766 17.0405ZM406.298 24.8232C406.331 28.3229 406.204 33.2008 406.043 39.359L407.716 39.4029C407.877 33.2583 408.006 28.3442 407.973 24.8072L406.298 24.8232ZM406.043 39.359L405.037 77.7738L406.711 77.8176L407.716 39.4029L406.043 39.359ZM405.037 77.7738C404.875 83.932 404.748 88.8099 404.531 92.3031L406.202 92.4066C406.421 88.8762 406.55 83.9622 406.711 77.8176L405.037 77.7738ZM404.531 92.3031C404.314 95.8029 403.998 98.3732 403.593 100.047L405.22 100.441C405.661 98.6196 405.984 95.9303 406.202 92.4066L404.531 92.3031ZM403.593 100.047C403.186 101.73 402.585 102.747 402.035 103.182L403.072 104.496C404.062 103.714 404.782 102.254 405.22 100.441L403.593 100.047ZM402.035 103.182C401.378 103.7 400.473 104.135 399.282 104.458L399.721 106.074C401.06 105.71 402.19 105.193 403.072 104.496L402.035 103.182ZM399.745 106.067L400.125 105.951L399.637 104.35L399.257 104.465L399.745 106.067ZM458.472 107.062L457.635 107.04L457.613 107.877L458.45 107.899L458.472 107.062ZM482.073 107.68L482.051 108.517L482.888 108.539L482.91 107.702L482.073 107.68ZM482.083 107.303L482.92 107.325L482.937 106.686L482.325 106.501L482.083 107.303ZM478.984 105.714L478.432 106.343L478.984 105.714ZM477.444 102.157L476.621 102.311L477.444 102.157ZM476.898 94.228L477.735 94.22L476.898 94.228ZM477.66 60.3293L477.682 59.4924L476.845 59.4705L476.823 60.3074L477.66 60.3293ZM486.682 61.1937L486.924 60.392L486.682 61.1937ZM490.119 64.2987L490.843 63.8787L490.119 64.2987ZM492.558 71.9L493.379 71.7398L492.558 71.9ZM494.948 86.1582L494.121 86.2908L494.122 86.2922L494.948 86.1582ZM497.784 97.7899L497.003 98.0915L497.784 97.7899ZM501.868 104.932L502.476 104.355L502.476 104.355L501.868 104.932ZM507.429 108.469L507.172 109.266L507.429 108.469ZM520.997 108.448L521.374 109.195L520.997 108.448ZM524.839 105.659L525.454 106.227L525.985 105.651L525.446 105.083L524.839 105.659ZM524.472 105.272L525.079 104.696L524.457 104.04L523.851 104.711L524.472 105.272ZM522.034 107.219L521.638 106.481L522.034 107.219ZM514.763 106.651L514.28 107.336L514.763 106.651ZM511.848 102.806L511.09 103.161L511.848 102.806ZM509.518 95.8359L508.703 96.026L509.518 95.8359ZM507.535 85.2315L506.706 85.3513L506.707 85.3597L507.535 85.2315ZM504.808 74.2308L505.584 73.9172L504.808 74.2308ZM500.476 66.9567L501.103 66.4017L500.476 66.9567ZM494.559 62.6562L494.882 61.8841L494.559 62.6562ZM487.069 60.8269L487.133 59.9922L486.971 61.6584L487.069 60.8269ZM489.576 61.0182L489.513 61.853L489.534 61.8546L489.555 61.8551L489.576 61.0182ZM501.04 59.8109L500.838 58.9983L501.04 59.8109ZM510.699 55.5414L510.225 54.8516L510.699 55.5414ZM517.428 48.0545L516.695 47.6489L517.428 48.0545ZM512.386 19.9082L511.911 20.5976L512.386 19.9082ZM461.053 13.2878L461.075 12.4508L460.238 12.4289L460.216 13.2658L461.053 13.2878ZM461.043 13.6644L460.207 13.6425L460.19 14.2652L460.782 14.4597L461.043 13.6644ZM464.017 15.2497L463.464 15.8786L463.464 15.8786L464.017 15.2497ZM465.554 18.9331L464.731 19.087L465.554 18.9331ZM466.1 26.8617L465.263 26.8697L465.263 26.8697L466.1 26.8617ZM464.331 94.4014L463.496 94.3496L464.331 94.4014ZM463.371 102.291L462.557 102.094L463.371 102.291ZM461.518 105.885L460.999 105.228L461.518 105.885ZM458.466 107.313L457.629 107.291L457.599 108.416L458.685 108.121L458.466 107.313ZM478.986 14.5111L479.007 13.6742L478.173 13.6523L478.149 14.4869L478.986 14.5111ZM497.278 16.372L497.003 17.1628L497.278 16.372ZM503.698 20.6857L503.051 21.2172L503.698 20.6857ZM503.173 55.093L503.84 55.5993L503.173 55.093ZM477.657 60.4548L476.82 60.4306L476.796 61.2698L477.635 61.2918L477.657 60.4548ZM457.645 106.663L457.635 107.04L459.309 107.084L459.319 106.707L457.645 106.663ZM458.45 107.899L482.051 108.517L482.095 106.843L458.494 106.225L458.45 107.899ZM482.91 107.702L482.92 107.325L481.246 107.281L481.236 107.658L482.91 107.702ZM482.325 106.501C481.035 106.113 480.16 105.633 479.537 105.085L478.432 106.343C479.282 107.09 480.39 107.668 481.842 108.105L482.325 106.501ZM479.537 105.085C479.024 104.635 478.592 103.738 478.267 102.003L476.621 102.311C476.958 104.11 477.471 105.499 478.432 106.343L479.537 105.085ZM478.267 102.003C477.951 100.31 477.769 97.7264 477.735 94.22L476.061 94.2359C476.095 97.7662 476.277 100.469 476.621 102.311L478.267 102.003ZM477.735 94.22C477.702 90.7203 477.83 85.8423 477.991 79.6841L476.317 79.6403C476.156 85.7849 476.027 90.6989 476.061 94.2359L477.735 94.22ZM477.991 79.6841L478.497 60.3512L476.823 60.3074L476.317 79.6403L477.991 79.6841ZM477.638 61.1662L480.777 61.2484L480.821 59.5746L477.682 59.4924L477.638 61.1662ZM480.777 61.2484C483.241 61.3129 485.164 61.6107 486.441 61.9954L486.924 60.392C485.459 59.9511 483.378 59.6415 480.821 59.5746L480.777 61.2484ZM486.441 61.9954C487.535 62.3247 488.493 63.1648 489.394 64.7186L490.843 63.8787C489.821 62.116 488.572 60.8883 486.924 60.392L486.441 61.9954ZM489.394 64.7186C490.286 66.2557 491.077 68.6807 491.736 72.0602L493.379 71.7398C492.709 68.3008 491.875 65.6582 490.843 63.8787L489.394 64.7186ZM491.736 72.0602C492.397 75.4518 493.148 80.2261 494.121 86.2908L495.775 86.0255C494.804 79.9793 494.047 75.1667 493.379 71.7398L491.736 72.0602ZM494.122 86.2922C494.882 90.9812 495.796 94.9656 497.003 98.0915L498.565 97.4882C497.42 94.5225 496.528 90.671 495.775 86.0241L494.122 86.2922ZM497.003 98.0915C498.196 101.18 499.563 103.718 501.261 105.508L502.476 104.355C500.996 102.796 499.725 100.491 498.565 97.4882L497.003 98.0915ZM501.261 105.508C502.943 107.28 504.916 108.538 507.172 109.266L507.686 107.673C505.707 107.034 503.972 105.933 502.476 104.355L501.261 105.508ZM507.172 109.266C509.365 109.974 511.819 110.427 514.536 110.498L514.58 108.824C512.025 108.757 509.728 108.332 507.686 107.673L507.172 109.266ZM514.536 110.498C517.275 110.57 519.567 110.108 521.374 109.195L520.619 107.7C519.117 108.459 517.114 108.89 514.58 108.824L514.536 110.498ZM521.374 109.195C523.104 108.321 524.471 107.292 525.454 106.227L524.223 105.091C523.396 105.988 522.199 106.902 520.619 107.7L521.374 109.195ZM525.446 105.083L525.079 104.696L523.865 105.849L524.231 106.235L525.446 105.083ZM523.851 104.711C523.133 105.506 522.437 106.052 521.638 106.481L522.43 107.956C523.414 107.427 524.259 106.757 525.093 105.834L523.851 104.711ZM521.638 106.481C520.917 106.868 519.94 107.08 518.521 107.043L518.477 108.717C520.071 108.758 521.367 108.527 522.43 107.956L521.638 106.481ZM518.521 107.043C517.302 107.011 516.218 106.653 515.245 105.967L514.28 107.336C515.528 108.215 516.934 108.676 518.477 108.717L518.521 107.043ZM515.245 105.967C514.296 105.298 513.404 104.155 512.607 102.452L511.09 103.161C511.959 105.018 513.009 106.439 514.28 107.336L515.245 105.967ZM512.607 102.452C511.801 100.729 510.999 98.502 510.334 95.6458L508.703 96.026C509.393 98.984 510.23 101.323 511.09 103.161L512.607 102.452ZM510.334 95.6458C509.662 92.7656 509.005 89.2528 508.362 85.1034L506.707 85.3597C507.354 89.5352 508.019 93.092 508.703 96.026L510.334 95.6458ZM508.363 85.1117C507.719 80.6568 506.797 76.9195 505.584 73.9172L504.032 74.5444C505.178 77.3826 506.074 80.9791 506.706 85.3513L508.363 85.1117ZM505.584 73.9172C504.376 70.9275 502.886 68.416 501.103 66.4017L499.849 67.5118C501.482 69.3556 502.88 71.6935 504.032 74.5444L505.584 73.9172ZM501.103 66.4017C499.316 64.3844 497.242 62.8737 494.882 61.8841L494.235 63.4282C496.348 64.3145 498.219 65.6709 499.849 67.5118L501.103 66.4017ZM494.882 61.8841C492.553 60.9072 489.974 60.3249 487.167 59.9954L486.971 61.6584C489.675 61.9757 492.091 62.5292 494.235 63.4282L494.882 61.8841ZM487.005 61.6617L489.513 61.853L489.64 60.1834L487.133 59.9922L487.005 61.6617ZM489.555 61.8551C493.643 61.9622 497.498 61.5514 501.241 60.6235L500.838 58.9983C497.248 59.8883 493.544 60.2846 489.598 60.1813L489.555 61.8551ZM501.241 60.6235C505 59.6918 508.271 58.2278 511.174 56.2311L510.225 54.8516C507.498 56.7275 504.414 58.1121 500.838 58.9983L501.241 60.6235ZM511.174 56.2311C514.1 54.218 516.386 51.6639 518.16 48.46L516.695 47.6489C515.041 50.6365 512.927 52.9922 510.225 54.8516L511.174 56.2311ZM518.16 48.46C519.954 45.2206 520.825 41.4608 520.936 37.217L519.262 37.1732C519.156 41.2149 518.33 44.6969 516.695 47.6489L518.16 48.46ZM520.936 37.217C521.149 29.0897 518.449 23.0694 512.861 19.2188L511.911 20.5976C516.935 24.0598 519.463 29.4827 519.262 37.1732L520.936 37.217ZM512.861 19.2188C507.358 15.4264 499.05 13.4452 488.066 13.1576L488.022 14.8315C498.882 15.1158 506.802 17.0771 511.911 20.5976L512.861 19.2188ZM488.066 13.1576L461.075 12.4508L461.031 14.1247L488.022 14.8315L488.066 13.1576ZM460.216 13.2658L460.207 13.6425L461.88 13.6863L461.89 13.3097L460.216 13.2658ZM460.782 14.4597C461.954 14.8452 462.836 15.3263 463.464 15.8786L464.57 14.6208C463.725 13.8783 462.624 13.3026 461.305 12.8691L460.782 14.4597ZM463.464 15.8786C463.699 16.0849 463.938 16.434 464.162 16.9857C464.383 17.5334 464.571 18.2326 464.731 19.087L466.377 18.7792C466.206 17.8662 465.993 17.0474 465.714 16.3571C465.436 15.6708 465.072 15.062 464.57 14.6208L463.464 15.8786ZM464.731 19.087C465.047 20.78 465.229 23.3633 465.263 26.8697L466.937 26.8538C466.903 23.3234 466.721 20.621 466.377 18.7792L464.731 19.087ZM465.263 26.8697C465.296 30.3694 465.168 35.2473 465.007 41.4055L466.681 41.4494C466.842 35.3048 466.971 30.3907 466.937 26.8538L465.263 26.8697ZM465.007 41.4055L464.001 79.8203L465.675 79.8641L466.681 41.4494L465.007 41.4055ZM464.001 79.8203C463.84 85.9785 463.712 90.8564 463.496 94.3496L465.167 94.4531C465.385 90.9228 465.514 86.0087 465.675 79.8641L464.001 79.8203ZM463.496 94.3496C463.279 97.8495 462.962 100.42 462.557 102.094L464.185 102.487C464.625 100.666 464.948 97.9769 465.167 94.4531L463.496 94.3496ZM462.557 102.094C462.15 103.776 461.549 104.794 460.999 105.228L462.037 106.542C463.026 105.761 463.746 104.3 464.185 102.487L462.557 102.094ZM460.999 105.228C460.342 105.747 459.437 106.181 458.246 106.505L458.685 108.121C460.025 107.757 461.154 107.239 462.037 106.542L460.999 105.228ZM459.302 107.335L459.319 106.707L457.645 106.663L457.629 107.291L459.302 107.335ZM478.964 15.348L487.375 15.5683L487.419 13.8944L479.007 13.6742L478.964 15.348ZM487.375 15.5683C491.195 15.6683 494.358 16.2443 497.003 17.1628L497.553 15.5811C494.72 14.5974 491.382 13.9982 487.419 13.8944L487.375 15.5683ZM497.003 17.1628C499.613 18.0691 501.576 19.4233 503.051 21.2172L504.344 20.1541C502.653 18.0964 500.421 16.577 497.553 15.5811L497.003 17.1628ZM503.051 21.2172C504.544 23.0346 505.684 25.3329 506.335 28.1267L507.966 27.7466C507.262 24.7263 506.016 22.1884 504.344 20.1541L503.051 21.2172ZM506.335 28.1267C506.992 30.9443 507.275 34.394 507.171 38.364L508.845 38.4079C508.951 34.3435 508.665 30.7433 507.966 27.7466L506.335 28.1267ZM507.171 38.364C506.986 45.4142 505.358 50.8316 502.507 54.5868L503.84 55.5993C506.974 51.4712 508.655 45.6691 508.845 38.4079L507.171 38.364ZM502.507 54.5868C499.73 58.2441 495.212 60.077 488.726 59.9072L488.682 61.5811C495.504 61.7597 500.632 59.8252 503.84 55.5993L502.507 54.5868ZM488.726 59.9072L477.679 59.6179L477.635 61.2918L488.682 61.5811L488.726 59.9072ZM478.494 60.479L479.822 14.5353L478.149 14.4869L476.82 60.4306L478.494 60.479ZM523.948 108.399L524.785 108.421L523.21 108.005L523.948 108.399ZM523.938 108.776L523.101 108.754L523.08 109.591L523.916 109.613L523.938 108.776ZM547.414 109.391L547.392 110.228L548.229 110.25L548.251 109.413L547.414 109.391ZM547.424 109.014L548.261 109.036L548.278 108.397L547.665 108.212L547.424 109.014ZM544.325 107.425L543.772 108.054L544.325 107.425ZM542.785 103.868L543.608 103.714L543.608 103.714L542.785 103.868ZM542.239 95.939L541.402 95.9469L542.239 95.939ZM544.007 28.3993L543.172 28.3475L544.007 28.3993ZM544.968 20.5101L545.782 20.7069L545.782 20.7069L544.968 20.5101ZM549.87 15.6135L550.069 16.4267L550.69 16.2747L550.707 15.6354L549.87 15.6135ZM549.88 15.2369L550.717 15.2588L550.738 14.4219L549.902 14.4L549.88 15.2369ZM526.404 14.6222L526.426 13.7852L525.589 13.7633L525.567 14.6002L526.404 14.6222ZM526.394 14.9988L525.557 14.9769L525.541 15.5996L526.133 15.7941L526.394 14.9988ZM531.45 28.1961L532.288 28.1882L531.45 28.1961ZM529.682 95.7358L530.517 95.7875L529.682 95.7358ZM528.721 103.625L527.908 103.428L528.721 103.625ZM526.869 107.22L526.35 106.563L526.869 107.22ZM523.816 108.647L523.077 108.253L522.166 109.963L524.036 109.455L523.816 108.647ZM523.111 108.377L523.101 108.754L524.775 108.798L524.785 108.421L523.111 108.377ZM523.916 109.613L547.392 110.228L547.436 108.554L523.96 107.939L523.916 109.613ZM548.251 109.413L548.261 109.036L546.587 108.992L546.577 109.369L548.251 109.413ZM547.665 108.212C546.375 107.824 545.501 107.344 544.878 106.797L543.772 108.054C544.623 108.801 545.731 109.379 547.183 109.816L547.665 108.212ZM544.878 106.797C544.365 106.346 543.933 105.449 543.608 103.714L541.962 104.022C542.299 105.821 542.811 107.21 543.772 108.054L544.878 106.797ZM543.608 103.714C543.291 102.021 543.109 99.4374 543.076 95.931L541.402 95.9469C541.435 99.4773 541.618 102.18 541.962 104.022L543.608 103.714ZM543.076 95.931C543.043 92.4313 543.17 87.5534 543.332 81.3951L541.658 81.3513C541.497 87.4959 541.368 92.41 541.402 95.9469L543.076 95.931ZM543.332 81.3951L544.338 42.9804L542.664 42.9366L541.658 81.3513L543.332 81.3951ZM544.338 42.9804C544.499 36.8222 544.627 31.9443 544.843 28.4511L543.172 28.3475C542.953 31.8779 542.825 36.792 542.664 42.9366L544.338 42.9804ZM544.843 28.4511C545.06 24.9512 545.377 22.381 545.782 20.7069L544.154 20.3133C543.714 22.1346 543.39 24.8238 543.172 28.3475L544.843 28.4511ZM545.782 20.7069C546.197 18.9908 546.675 18.1177 547.211 17.6948L546.173 16.3808C545.169 17.1738 544.584 18.5341 544.154 20.3133L545.782 20.7069ZM547.211 17.6948C547.862 17.1804 548.76 16.747 550.069 16.4267L549.671 14.8003C548.198 15.1609 547.061 15.6793 546.173 16.3808L547.211 17.6948ZM550.707 15.6354L550.717 15.2588L549.043 15.215L549.033 15.5916L550.707 15.6354ZM549.902 14.4L526.426 13.7852L526.382 15.4591L549.858 16.0738L549.902 14.4ZM525.567 14.6002L525.557 14.9769L527.231 15.0207L527.241 14.6441L525.567 14.6002ZM526.133 15.7941C527.305 16.1796 528.186 16.6607 528.815 17.213L529.92 15.9552C529.075 15.2127 527.974 14.637 526.656 14.2034L526.133 15.7941ZM528.815 17.213C529.05 17.4193 529.289 17.7684 529.512 18.3201C529.734 18.8678 529.921 19.5669 530.081 20.4214L531.727 20.1135C531.556 19.2006 531.344 18.3818 531.064 17.6915C530.786 17.0052 530.422 16.3964 529.92 15.9552L528.815 17.213ZM530.081 20.4214C530.398 22.1144 530.58 24.6977 530.613 28.2041L532.288 28.1882C532.254 24.6578 532.072 21.9554 531.727 20.1135L530.081 20.4214ZM530.613 28.2041C530.646 31.7038 530.519 36.5817 530.358 42.7399L532.031 42.7838C532.192 36.6392 532.321 31.7251 532.288 28.1882L530.613 28.2041ZM530.358 42.7399L529.352 81.1547L531.026 81.1985L532.031 42.7838L530.358 42.7399ZM529.352 81.1547C529.19 87.3129 529.063 92.1908 528.846 95.684L530.517 95.7875C530.736 92.2572 530.865 87.3431 531.026 81.1985L529.352 81.1547ZM528.846 95.684C528.629 99.1839 528.313 101.754 527.908 103.428L529.535 103.822C529.976 102.001 530.299 99.3113 530.517 95.7875L528.846 95.684ZM527.908 103.428C527.501 105.111 526.9 106.128 526.35 106.563L527.388 107.877C528.377 107.095 529.097 105.635 529.535 103.822L527.908 103.428ZM526.35 106.563C525.693 107.081 524.788 107.516 523.597 107.839L524.036 109.455C525.375 109.091 526.505 108.574 527.388 107.877L526.35 106.563ZM524.555 109.041L524.687 108.793L523.21 108.005L523.077 108.253L524.555 109.041ZM550.429 109.093L551.266 109.115L551.296 107.954L550.185 108.292L550.429 109.093ZM550.419 109.469L549.582 109.447L549.56 110.284L550.397 110.306L550.419 109.469ZM604.936 109.641L605.752 109.826L605.76 109.792L605.765 109.757L604.936 109.641ZM606.791 96.3731L607.62 96.489L607.75 95.5607L606.813 95.5361L606.791 96.3731ZM606.288 96.3599L606.31 95.523L605.651 95.5057L605.48 96.1433L606.288 96.3599ZM598.824 107.973L598.428 107.236L598.824 107.973ZM592.623 109.695L592.689 110.53L592.623 109.695ZM568.259 109.434L567.422 109.412L567.4 110.249L568.237 110.271L568.259 109.434ZM569.59 58.591L569.612 57.7541L568.775 57.7321L568.753 58.5691L569.59 58.591ZM585.828 62.1568L585.178 62.6848L585.178 62.6848L585.828 62.1568ZM587.381 65.2124L588.182 64.9686L587.381 65.2124ZM588.171 68.625L587.349 68.7852L587.478 69.4443L588.149 69.4619L588.171 68.625ZM588.422 68.6316L588.4 69.4685L589.237 69.4904L589.259 68.6535L588.422 68.6316ZM588.945 48.671L589.782 48.6929L589.804 47.856L588.967 47.834L588.945 48.671ZM588.694 48.6644L588.716 47.8275L588.044 47.8099L587.882 48.4614L588.694 48.6644ZM587.726 52.0309L588.513 52.3164L587.726 52.0309ZM586.015 55.0011L585.394 54.4398L586.015 55.0011ZM582.692 57.1753L583.019 57.9463L582.692 57.1753ZM569.613 57.7122L568.776 57.6903L568.754 58.5272L569.591 58.5491L569.613 57.7122ZM570.708 15.9079L570.73 15.071L569.893 15.0491L569.871 15.886L570.708 15.9079ZM592.535 17.1076L592.376 17.9295L592.376 17.9295L592.535 17.1076ZM598.257 19.2674L597.8 19.9687L598.257 19.2674ZM602.298 23.2676L601.598 23.726L601.598 23.726L602.298 23.2676ZM604.899 29.4913L604.091 29.7108L604.254 30.3119L604.877 30.3282L604.899 29.4913ZM605.401 29.5045L605.379 30.3414L606.38 30.3676L606.229 29.378L605.401 29.5045ZM603.685 18.2789L602.853 18.3756L602.855 18.3906L602.857 18.4055L603.685 18.2789ZM603.097 16.7561L602.703 17.4948L602.703 17.4948L603.097 16.7561ZM552.637 15.1835L552.659 14.3465L551.822 14.3246L551.8 15.1615L552.637 15.1835ZM552.627 15.5601L551.79 15.5382L551.774 16.1609L552.366 16.3554L552.627 15.5601ZM555.6 17.1454L556.153 16.5165L556.153 16.5165L555.6 17.1454ZM557.683 28.7574L558.52 28.7495L557.683 28.7574ZM555.915 96.2971L556.75 96.3489L555.915 96.2971ZM554.954 104.186L555.768 104.383L554.954 104.186ZM553.101 107.781L552.583 107.124L553.101 107.781ZM550.049 109.208L549.805 108.408L550.269 110.016L550.049 109.208ZM549.592 109.071L549.582 109.447L551.256 109.491L551.266 109.115L549.592 109.071ZM550.397 110.306L603.626 111.7L603.669 110.026L550.441 108.632L550.397 110.306ZM603.626 111.7C603.856 111.706 604.3 111.73 604.759 111.516L604.049 109.999C603.999 110.023 603.942 110.033 603.669 110.026L603.626 111.7ZM604.759 111.516C605.151 111.332 605.358 110.994 605.476 110.731C605.596 110.464 605.68 110.145 605.752 109.826L604.119 109.455C604.05 109.761 603.995 109.941 603.948 110.046C603.899 110.156 603.911 110.064 604.049 109.999L604.759 111.516ZM605.765 109.757L607.62 96.489L605.961 96.2571L604.107 109.525L605.765 109.757ZM606.813 95.5361L606.31 95.523L606.267 97.1968L606.769 97.21L606.813 95.5361ZM605.48 96.1433C604.661 99.2008 603.62 101.602 602.497 103.367L603.91 104.266C605.146 102.324 606.245 99.7565 607.097 96.5765L605.48 96.1433ZM602.497 103.367C601.389 105.11 600.074 106.351 598.428 107.236L599.22 108.711C601.141 107.679 602.661 106.23 603.91 104.266L602.497 103.367ZM598.428 107.236C596.759 108.132 594.849 108.68 592.557 108.861L592.689 110.53C595.18 110.333 597.321 109.731 599.22 108.711L598.428 107.236ZM592.557 108.861C590.203 109.046 587.344 109.096 584.098 109.011L584.055 110.685C587.338 110.771 590.259 110.721 592.689 110.53L592.557 108.861ZM584.098 109.011L568.281 108.597L568.237 110.271L584.055 110.685L584.098 109.011ZM569.096 109.456L570.427 58.6129L568.753 58.5691L567.422 109.412L569.096 109.456ZM569.568 59.4279L576.975 59.6218L577.019 57.948L569.612 57.7541L569.568 59.4279ZM576.975 59.6218C579.325 59.6834 581.056 59.9803 582.257 60.5645L582.989 59.0588C581.461 58.3153 579.439 58.0114 577.019 57.948L576.975 59.6218ZM582.257 60.5645C583.56 61.1987 584.553 61.9157 585.178 62.6848L586.478 61.6288C585.642 60.6009 584.415 59.7522 582.989 59.0588L582.257 60.5645ZM585.178 62.6848C585.822 63.4772 586.255 64.389 586.58 65.4563L588.182 64.9686C587.813 63.7565 587.294 62.6334 586.478 61.6288L585.178 62.6848ZM586.58 65.4563C586.913 66.5481 587.127 67.6425 587.349 68.7852L588.993 68.4648C588.773 67.3346 588.544 66.1562 588.182 64.9686L586.58 65.4563ZM588.149 69.4619L588.4 69.4685L588.444 67.7946L588.193 67.7881L588.149 69.4619ZM589.259 68.6535L589.782 48.6929L588.108 48.649L587.585 68.6097L589.259 68.6535ZM588.967 47.834L588.716 47.8275L588.672 49.5013L588.923 49.5079L588.967 47.834ZM587.882 48.4614C587.599 49.5908 587.328 50.6726 586.939 51.7455L588.513 52.3164C588.937 51.1493 589.227 49.9845 589.506 48.8673L587.882 48.4614ZM586.939 51.7455C586.559 52.7943 586.079 53.6822 585.394 54.4398L586.636 55.5624C587.504 54.6019 588.081 53.5075 588.513 52.3164L586.939 51.7455ZM585.394 54.4398C584.73 55.1752 583.701 55.8392 582.366 56.4043L583.019 57.9463C584.478 57.3284 585.748 56.5451 586.636 55.5624L585.394 54.4398ZM582.366 56.4043C581.136 56.9249 579.392 57.1308 577.042 57.0692L576.998 58.7431C579.418 58.8065 581.453 58.6088 583.019 57.9463L582.366 56.4043ZM577.042 57.0692L569.635 56.8753L569.591 58.5491L576.998 58.7431L577.042 57.0692ZM570.45 57.7341L571.545 15.9298L569.871 15.886L568.776 57.6903L570.45 57.7341ZM570.686 16.7448L584.621 17.1097L584.664 15.4359L570.73 15.071L570.686 16.7448ZM584.621 17.1097C587.587 17.1874 590.171 17.5024 592.376 17.9295L592.694 16.2857C590.4 15.8412 587.724 15.516 584.664 15.4359L584.621 17.1097ZM592.376 17.9295C594.552 18.351 596.309 18.9963 597.8 19.9687L598.715 18.5662C596.994 17.4445 595.018 16.7358 592.694 16.2857L592.376 17.9295ZM597.8 19.9687C599.317 20.9578 600.579 22.1691 601.598 23.726L602.999 22.8092C601.843 21.0429 600.409 19.6712 598.715 18.5662L597.8 19.9687ZM601.598 23.726C602.62 25.2893 603.417 27.2308 604.091 29.7108L605.707 29.2718C605.006 26.6909 604.15 24.5691 602.999 22.8092L601.598 23.726ZM604.877 30.3282L605.379 30.3414L605.423 28.6675L604.921 28.6544L604.877 30.3282ZM606.229 29.378L604.513 18.1524L602.857 18.4055L604.573 29.631L606.229 29.378ZM604.517 18.1823C604.46 17.6921 604.361 17.2656 604.221 16.9209C604.095 16.6111 603.878 16.2237 603.491 16.0173L602.703 17.4948C602.621 17.4513 602.594 17.4072 602.604 17.4211C602.612 17.4318 602.637 17.4706 602.67 17.5517C602.736 17.7149 602.808 17.9837 602.853 18.3756L604.517 18.1823ZM603.491 16.0173C603.166 15.844 602.664 15.656 602.121 15.6418L602.077 17.3156C602.287 17.3211 602.532 17.4039 602.703 17.4948L603.491 16.0173ZM602.121 15.6418L552.659 14.3465L552.615 16.0204L602.077 17.3156L602.121 15.6418ZM551.8 15.1615L551.79 15.5382L553.464 15.582L553.474 15.2054L551.8 15.1615ZM552.366 16.3554C553.538 16.7409 554.419 17.222 555.048 17.7743L556.153 16.5165C555.308 15.774 554.207 15.1983 552.889 14.7648L552.366 16.3554ZM555.048 17.7743C555.283 17.9806 555.522 18.3297 555.745 18.8815C555.967 19.4291 556.154 20.1283 556.314 20.9827L557.96 20.6749C557.789 19.7619 557.577 18.9431 557.297 18.2528C557.019 17.5665 556.655 16.9577 556.153 16.5165L555.048 17.7743ZM556.314 20.9827C556.631 22.6757 556.813 25.259 556.846 28.7654L558.52 28.7495C558.487 25.2191 558.305 22.5167 557.96 20.6749L556.314 20.9827ZM556.846 28.7654C556.879 32.2651 556.752 37.1431 556.591 43.3013L558.264 43.3451C558.425 37.2005 558.554 32.2864 558.52 28.7495L556.846 28.7654ZM556.591 43.3013L555.585 81.716L557.258 81.7598L558.264 43.3451L556.591 43.3013ZM555.585 81.716C555.423 87.8742 555.295 92.7521 555.079 96.2453L556.75 96.3489C556.969 92.8185 557.098 87.9044 557.258 81.7598L555.585 81.716ZM555.079 96.2453C554.862 99.7452 554.545 102.315 554.141 103.989L555.768 104.383C556.209 102.562 556.532 99.8726 556.75 96.3489L555.079 96.2453ZM554.141 103.989C553.734 105.672 553.133 106.689 552.583 107.124L553.62 108.438C554.61 107.656 555.33 106.196 555.768 104.383L554.141 103.989ZM552.583 107.124C551.926 107.643 551.021 108.077 549.83 108.401L550.269 110.016C551.608 109.652 552.738 109.135 553.62 108.438L552.583 107.124ZM550.293 110.009L550.673 109.894L550.185 108.292L549.805 108.408L550.293 110.009Z" fill="#580300"/>
</g>
</svg>
