<svg width="80" height="85" viewBox="0 0 80 85" fill="none" xmlns="http://www.w3.org/2000/svg">
<g style="mix-blend-mode:darken">
<path d="M-383.476 83.8451L-382.639 83.8232L-384.234 83.4905L-383.476 83.8451ZM-383.468 84.133L-384.305 84.155L-384.283 84.9919L-383.446 84.97L-383.468 84.133ZM-365.522 83.6631L-365.5 84.5L-364.663 84.4781L-364.685 83.6412L-365.522 83.6631ZM-365.53 83.3752L-364.693 83.3533L-364.71 82.7141L-365.331 82.562L-365.53 83.3752ZM-367.959 82.2864L-368.478 82.9434L-367.959 82.2864ZM-369.277 79.632L-368.463 79.4352L-368.463 79.4352L-369.277 79.632ZM-370.011 73.6012L-370.847 73.653L-370.011 73.6012ZM-371.363 21.9709L-372.2 21.9629L-371.363 21.9709ZM-370.946 15.9099L-370.123 16.0638L-370.123 16.0638L-370.946 15.9099ZM-367.399 11.9757L-367.158 12.7774L-366.546 12.593L-366.562 11.9538L-367.399 11.9757ZM-367.407 11.6878L-366.57 11.6659L-366.592 10.8289L-367.429 10.8509L-367.407 11.6878ZM-385.353 12.1577L-385.375 11.3208L-386.212 11.3427L-386.19 12.1796L-385.353 12.1577ZM-385.345 12.4456L-386.182 12.4675L-386.166 13.0902L-385.565 13.2535L-385.345 12.4456ZM-380.957 22.3181L-380.122 22.2664L-380.957 22.3181ZM-379.605 73.9484L-378.768 73.9564L-379.605 73.9484ZM-380.023 80.0095L-380.846 79.8555L-380.846 79.8555L-380.023 80.0095ZM-381.293 82.8277L-381.846 82.1988L-381.293 82.8277ZM-383.567 84.0396L-384.325 83.6849L-385.146 85.4401L-383.305 84.8349L-383.567 84.0396ZM-384.312 83.8671L-384.305 84.155L-382.631 84.1111L-382.639 83.8232L-384.312 83.8671ZM-383.446 84.97L-365.5 84.5L-365.544 82.8262L-383.49 83.2961L-383.446 84.97ZM-364.685 83.6412L-364.693 83.3533L-366.367 83.3971L-366.359 83.685L-364.685 83.6412ZM-365.331 82.562C-366.312 82.3219 -366.97 82.0006 -367.44 81.6295L-368.478 82.9434C-367.771 83.5018 -366.874 83.908 -365.729 84.1884L-365.331 82.562ZM-367.44 81.6295C-367.794 81.3498 -368.148 80.7396 -368.463 79.4352L-370.091 79.8288C-369.76 81.1964 -369.301 82.2936 -368.478 82.9434L-367.44 81.6295ZM-368.463 79.4352C-368.769 78.1728 -369.01 76.222 -369.175 73.5494L-370.847 73.653C-370.68 76.3494 -370.432 78.4192 -370.091 79.8288L-368.463 79.4352ZM-369.175 73.5494C-369.341 70.8834 -369.438 67.1588 -369.562 62.4496L-371.235 62.4934C-371.113 67.189 -371.014 70.9498 -370.847 73.653L-369.175 73.5494ZM-369.562 62.4496L-370.331 33.0837L-372.004 33.1275L-371.235 62.4934L-369.562 62.4496ZM-370.331 33.0837C-370.454 28.3744 -370.551 24.6498 -370.526 21.9788L-372.2 21.9629C-372.226 24.6711 -372.127 28.4319 -372.004 33.1275L-370.331 33.0837ZM-370.526 21.9788C-370.5 19.3012 -370.361 17.3405 -370.123 16.0638L-371.769 15.7559C-372.035 17.1814 -372.175 19.2614 -372.2 21.9629L-370.526 21.9788ZM-370.123 16.0638C-369.876 14.7447 -369.555 14.1169 -369.216 13.819L-370.321 12.5612C-371.109 13.2532 -371.51 14.3729 -371.769 15.7559L-370.123 16.0638ZM-369.216 13.819C-368.766 13.4238 -368.125 13.0685 -367.158 12.7774L-367.641 11.174C-368.77 11.514 -369.644 11.9666 -370.321 12.5612L-369.216 13.819ZM-366.562 11.9538L-366.57 11.6659L-368.244 11.7097L-368.236 11.9976L-366.562 11.9538ZM-367.429 10.8509L-385.375 11.3208L-385.331 12.9946L-367.385 12.5247L-367.429 10.8509ZM-386.19 12.1796L-386.182 12.4675L-384.508 12.4237L-384.516 12.1358L-386.19 12.1796ZM-385.565 13.2535C-384.672 13.4961 -384.006 13.8184 -383.531 14.1939L-382.493 12.8799C-383.194 12.3259 -384.084 11.9206 -385.126 11.6377L-385.565 13.2535ZM-383.531 14.1939C-383.376 14.316 -383.196 14.5432 -383.011 14.9399C-382.827 15.3326 -382.66 15.845 -382.505 16.4841L-380.878 16.0905C-381.046 15.3936 -381.245 14.7631 -381.494 14.2309C-381.741 13.7026 -382.059 13.2226 -382.493 12.8799L-383.531 14.1939ZM-382.505 16.4841C-382.2 17.7465 -381.958 19.6973 -381.793 22.3699L-380.122 22.2664C-380.289 19.5699 -380.537 17.5001 -380.878 16.0905L-382.505 16.4841ZM-381.793 22.3699C-381.628 25.0359 -381.53 28.7605 -381.407 33.4697L-379.733 33.4259C-379.856 28.7303 -379.954 24.9695 -380.122 22.2664L-381.793 22.3699ZM-381.407 33.4697L-380.638 62.8357L-378.964 62.7918L-379.733 33.4259L-381.407 33.4697ZM-380.638 62.8357C-380.514 67.5449 -380.417 71.2695 -380.442 73.9405L-378.768 73.9564C-378.742 71.2482 -378.841 67.4874 -378.964 62.7918L-380.638 62.8357ZM-380.442 73.9405C-380.468 76.6181 -380.607 78.5788 -380.846 79.8555L-379.2 80.1634C-378.933 78.7379 -378.794 76.658 -378.768 73.9564L-380.442 73.9405ZM-380.846 79.8555C-381.086 81.1408 -381.493 81.8885 -381.846 82.1988L-380.741 83.4566C-379.967 82.777 -379.465 81.5803 -379.2 80.1634L-380.846 79.8555ZM-381.846 82.1988C-382.301 82.5986 -382.949 82.9553 -383.828 83.2443L-383.305 84.8349C-382.28 84.4979 -381.412 84.0466 -380.741 83.4566L-381.846 82.1988ZM-382.808 84.3943L-382.717 84.1998L-384.234 83.4905L-384.325 83.6849L-382.808 84.3943ZM-363.225 83.603L-364.062 83.6249L-364.04 84.4618L-363.203 84.4399L-363.225 83.603ZM-354.3 83.3693L-354.278 84.2062L-353.441 84.1843L-353.463 83.3473L-354.3 83.3693ZM-354.308 83.0814L-353.471 83.0594L-353.486 82.4732L-354.042 82.2873L-354.308 83.0814ZM-356.742 81.8006L-356.223 81.1437L-356.742 81.8006ZM-358.062 79.0503L-357.249 78.8535L-358.062 79.0503ZM-358.794 73.1154L-357.958 73.0625L-358.794 73.1154ZM-360.448 13.6183L-359.721 13.2031L-361.285 13.6402L-360.448 13.6183ZM-320.893 82.8786L-321.62 83.2938L-321.372 83.7286L-320.872 83.7155L-320.893 82.8786ZM-319.55 82.8434L-319.528 83.6803L-318.691 83.6584L-318.713 82.8215L-319.55 82.8434ZM-321.072 21.0381L-320.235 21.0472L-321.072 21.0381ZM-320.652 15.0731L-319.829 15.227L-319.829 15.227L-320.652 15.0731ZM-319.478 12.2573L-318.925 12.8863L-318.925 12.8863L-319.478 12.2573ZM-317.21 10.8535L-316.878 11.6224L-316.358 11.3982L-316.373 10.8316L-317.21 10.8535ZM-317.217 10.5656L-316.38 10.5437L-316.402 9.70675L-317.239 9.72867L-317.217 10.5656ZM-326.142 10.7993L-326.164 9.96237L-327.001 9.98429L-326.979 10.8212L-326.142 10.7993ZM-326.134 11.0872L-326.971 11.1091L-326.956 11.6953L-326.4 11.8812L-326.134 11.0872ZM-323.7 12.3679L-324.219 13.0249L-324.219 13.0249L-323.7 12.3679ZM-322.38 15.1183L-321.566 14.9215L-321.566 14.9215L-322.38 15.1183ZM-321.648 21.0532L-322.484 21.106L-321.648 21.0532ZM-320.429 63.948L-321.155 64.3652L-319.592 63.926L-320.429 63.948ZM-349.306 13.7106L-348.58 13.2934L-348.582 13.2906L-349.306 13.7106ZM-350.702 11.7305L-350.126 11.1232L-350.126 11.1232L-350.702 11.7305ZM-365.011 11.7211L-365.033 10.8842L-365.87 10.9061L-365.848 11.743L-365.011 11.7211ZM-365.004 12.009L-365.841 12.0309L-365.824 12.6536L-365.223 12.8169L-365.004 12.009ZM-362.67 13.1003L-363.189 13.7573L-362.67 13.1003ZM-361.35 15.8507L-362.164 16.0474L-361.35 15.8507ZM-360.616 21.8815L-361.451 21.9333L-360.616 21.8815ZM-359.271 73.2239L-360.108 73.2148L-359.271 73.2239ZM-359.691 79.189L-360.514 79.035L-359.691 79.189ZM-360.962 82.0072L-360.409 82.6361L-360.962 82.0072ZM-363.23 83.411L-364.067 83.4329L-364.035 84.6691L-362.899 84.18L-363.23 83.411ZM-364.069 83.337L-364.062 83.6249L-362.388 83.5811L-362.396 83.2931L-364.069 83.337ZM-363.203 84.4399L-354.278 84.2062L-354.322 82.5323L-363.247 82.766L-363.203 84.4399ZM-353.463 83.3473L-353.471 83.0594L-355.144 83.1033L-355.137 83.3912L-353.463 83.3473ZM-354.042 82.2873C-355.015 81.962 -355.71 81.5489 -356.223 81.1437L-357.261 82.4576C-356.597 82.9819 -355.731 83.4882 -354.573 83.8754L-354.042 82.2873ZM-356.223 81.1437C-356.378 81.0216 -356.558 80.7944 -356.743 80.3977C-356.927 80.0049 -357.094 79.4926 -357.249 78.8535L-358.876 79.2471C-358.708 79.944 -358.509 80.5744 -358.26 81.1067C-358.013 81.6349 -357.695 82.115 -357.261 82.4576L-356.223 81.1437ZM-357.249 78.8535C-357.554 77.5903 -357.795 75.6389 -357.958 73.0625L-359.63 73.1683C-359.465 75.7691 -359.217 77.8382 -358.876 79.2471L-357.249 78.8535ZM-357.958 73.0625C-358.121 70.4932 -358.216 66.8653 -358.337 62.2517L-360.011 62.2955C-359.89 66.8947 -359.795 70.5604 -359.63 73.1683L-357.958 73.0625ZM-358.337 62.2517L-359.611 13.5964L-361.285 13.6402L-360.011 62.2955L-358.337 62.2517ZM-361.175 14.0335L-321.62 83.2938L-320.166 82.4634L-359.721 13.2031L-361.175 14.0335ZM-320.872 83.7155L-319.528 83.6803L-319.572 82.0065L-320.915 82.0417L-320.872 83.7155ZM-318.713 82.8215L-320.047 31.863L-321.721 31.9068L-320.387 82.8653L-318.713 82.8215ZM-320.047 31.863C-320.168 27.2494 -320.263 23.6215 -320.235 21.0472L-321.909 21.029C-321.938 23.642 -321.842 27.3076 -321.721 31.9068L-320.047 31.863ZM-320.235 21.0472C-320.207 18.4658 -320.068 16.5044 -319.829 15.227L-321.475 14.9191C-321.742 16.3438 -321.881 18.4231 -321.909 21.029L-320.235 21.0472ZM-319.829 15.227C-319.708 14.5807 -319.568 14.0603 -319.405 13.6585C-319.241 13.2526 -319.073 13.0163 -318.925 12.8863L-320.03 11.6284C-320.445 11.9933 -320.738 12.4894 -320.957 13.0298C-321.178 13.5744 -321.343 14.2144 -321.475 14.9191L-319.829 15.227ZM-318.925 12.8863C-318.429 12.4507 -317.749 11.9975 -316.878 11.6224L-317.541 10.0846C-318.569 10.5275 -319.399 11.0742 -320.03 11.6284L-318.925 12.8863ZM-316.373 10.8316L-316.38 10.5437L-318.054 10.5875L-318.046 10.8754L-316.373 10.8316ZM-317.239 9.72867L-326.164 9.96237L-326.12 11.6362L-317.195 11.4025L-317.239 9.72867ZM-326.979 10.8212L-326.971 11.1091L-325.298 11.0653L-325.305 10.7774L-326.979 10.8212ZM-326.4 11.8812C-325.427 12.2065 -324.732 12.6197 -324.219 13.0249L-323.181 11.7109C-323.845 11.1866 -324.711 10.6803 -325.869 10.2932L-326.4 11.8812ZM-324.219 13.0249C-324.065 13.147 -323.884 13.3742 -323.699 13.7709C-323.515 14.1636 -323.348 14.676 -323.193 15.3151L-321.566 14.9215C-321.734 14.2246 -321.933 13.5941 -322.182 13.0619C-322.429 12.5336 -322.747 12.0536 -323.181 11.7109L-324.219 13.0249ZM-323.193 15.3151C-322.888 16.5783 -322.647 18.5297 -322.484 21.106L-320.813 21.0003C-320.977 18.3995 -321.225 16.3303 -321.566 14.9215L-323.193 15.3151ZM-322.484 21.106C-322.321 23.6753 -322.226 27.3032 -322.105 31.9169L-320.431 31.873C-320.552 27.2738 -320.647 23.6082 -320.813 21.0003L-322.484 21.106ZM-322.105 31.9169L-321.266 63.9699L-319.592 63.926L-320.431 31.873L-322.105 31.9169ZM-319.703 63.5307L-348.58 13.2934L-350.032 14.1279L-321.155 64.3652L-319.703 63.5307ZM-348.582 13.2906C-349.195 12.2332 -349.741 11.4887 -350.126 11.1232L-351.278 12.3378C-351.073 12.533 -350.624 13.107 -350.03 14.1307L-348.582 13.2906ZM-350.126 11.1232C-350.688 10.5895 -351.489 10.5295 -352.174 10.5474L-352.13 12.2213C-351.47 12.204 -351.307 12.3108 -351.278 12.3378L-350.126 11.1232ZM-352.174 10.5474L-365.033 10.8842L-364.989 12.558L-352.13 12.2213L-352.174 10.5474ZM-365.848 11.743L-365.841 12.0309L-364.167 11.9871L-364.174 11.6992L-365.848 11.743ZM-365.223 12.8169C-364.33 13.0595 -363.665 13.3818 -363.189 13.7573L-362.151 12.4433C-362.853 11.8893 -363.743 11.484 -364.784 11.2011L-365.223 12.8169ZM-363.189 13.7573C-363.035 13.8794 -362.855 14.1065 -362.669 14.5033C-362.485 14.896 -362.318 15.4084 -362.164 16.0474L-360.536 15.6539C-360.705 14.957 -360.903 14.3265 -361.152 13.7942C-361.399 13.266 -361.718 12.786 -362.151 12.4433L-363.189 13.7573ZM-362.164 16.0474C-361.858 17.3099 -361.617 19.2606 -361.451 21.9333L-359.78 21.8297C-359.947 19.1332 -360.195 17.0634 -360.536 15.6539L-362.164 16.0474ZM-361.451 21.9333C-361.286 24.5993 -361.189 28.3239 -361.065 33.0331L-359.391 32.9893C-359.514 28.2937 -359.613 24.5329 -359.78 21.8297L-361.451 21.9333ZM-361.065 33.0331L-360.296 62.399L-358.622 62.3552L-359.391 32.9893L-361.065 33.0331ZM-360.296 62.399C-360.175 67.0127 -360.081 70.6406 -360.108 73.2148L-358.434 73.233C-358.406 70.62 -358.502 66.9544 -358.622 62.3552L-360.296 62.399ZM-360.108 73.2148C-360.136 75.7962 -360.275 77.7576 -360.514 79.035L-358.868 79.3429C-358.602 77.9182 -358.462 75.8389 -358.434 73.233L-360.108 73.2148ZM-360.514 79.035C-360.755 80.3203 -361.162 81.068 -361.515 81.3783L-360.409 82.6361C-359.636 81.9565 -359.133 80.7598 -358.868 79.3429L-360.514 79.035ZM-361.515 81.3783C-362.01 81.8138 -362.69 82.2671 -363.561 82.6421L-362.899 84.18C-361.87 83.737 -361.04 83.1904 -360.409 82.6361L-361.515 81.3783ZM-362.393 83.3891L-362.396 83.2931L-364.069 83.337L-364.067 83.4329L-362.393 83.3891ZM-313.468 82.0119L-313.49 81.175L-314.327 81.1969L-314.305 82.0339L-313.468 82.0119ZM-313.461 82.2998L-314.298 82.3218L-314.276 83.1587L-313.439 83.1368L-313.461 82.2998ZM-295.515 81.8299L-295.493 82.6668L-294.656 82.6449L-294.678 81.808L-295.515 81.8299ZM-295.522 81.542L-294.686 81.5201L-294.702 80.8809L-295.323 80.7288L-295.522 81.542ZM-297.952 80.4532L-298.471 81.1102L-297.952 80.4532ZM-299.27 77.7988L-298.456 77.602L-299.27 77.7988ZM-300.004 71.768L-300.839 71.8197L-300.004 71.768ZM-300.856 42.8844L-300.152 42.4309L-301.771 39.9189L-301.693 42.9063L-300.856 42.8844ZM-281.137 73.4827L-280.423 73.0455L-280.428 73.0372L-280.433 73.0291L-281.137 73.4827ZM-278.69 78.8925L-277.858 78.8011L-278.69 78.8925ZM-280.643 81.3444L-280.928 80.5574L-281.495 80.7631L-281.479 81.3664L-280.643 81.3444ZM-280.638 81.5364L-281.474 81.5583L-281.453 82.3952L-280.616 82.3733L-280.638 81.5364ZM-263.651 81.0916L-263.629 81.9285L-262.792 81.9066L-262.814 81.0697L-263.651 81.0916ZM-263.656 80.8996L-262.819 80.8777L-262.833 80.3605L-263.302 80.1413L-263.656 80.8996ZM-265.121 79.9777L-264.545 79.3704L-265.121 79.9777ZM-266.502 78.5733L-265.873 78.0207L-266.502 78.5733ZM-267.997 76.4998L-268.718 76.9254L-267.997 76.4998ZM-269.807 73.3781L-269.081 72.962L-269.09 72.9468L-269.099 72.9321L-269.807 73.3781ZM-293.655 35.4934L-294.286 34.9431L-294.695 35.4124L-294.364 35.9394L-293.655 35.4934ZM-276.687 16.0345L-277.318 15.484L-277.318 15.4843L-276.687 16.0345ZM-271.635 10.9085L-272.163 10.2585L-271.635 10.9085ZM-268.804 9.00975L-268.454 9.77037L-267.953 9.53969L-267.967 8.98783L-268.804 9.00975ZM-268.809 8.81781L-267.972 8.7959L-267.994 7.95898L-268.831 7.98089L-268.809 8.81781ZM-278.022 9.05906L-278.044 8.22214L-278.881 8.24405L-278.859 9.08098L-278.022 9.05906ZM-278.017 9.25099L-278.854 9.27291L-278.837 9.8956L-278.236 10.0589L-278.017 9.25099ZM-275.782 10.2488L-276.288 10.9161L-276.288 10.9161L-275.782 10.2488ZM-275.163 11.8652L-275.995 11.7685L-275.995 11.7685L-275.163 11.8652ZM-279.225 18.1177L-279.852 17.5626L-279.856 17.5671L-279.225 18.1177ZM-300.669 42.6874L-301.506 42.7093L-301.45 44.8552L-300.039 43.2379L-300.669 42.6874ZM-300.751 13.8797L-301.574 13.7258L-301.574 13.7258L-300.751 13.8797ZM-299.574 11.16L-299.022 11.7889L-299.574 11.16ZM-297.205 9.94553L-296.964 10.7472L-296.352 10.5629L-296.368 9.92361L-297.205 9.94553ZM-297.213 9.65762L-296.376 9.63571L-296.398 8.79879L-297.235 8.8207L-297.213 9.65762ZM-315.159 10.1276L-315.181 9.29063L-316.017 9.31255L-315.996 10.1495L-315.159 10.1276ZM-315.151 10.4155L-315.988 10.4374L-315.972 11.0601L-315.371 11.2234L-315.151 10.4155ZM-311.497 14.2571L-312.311 14.4539L-312.311 14.4539L-311.497 14.2571ZM-310.763 20.288L-309.928 20.2362L-310.763 20.288ZM-309.411 71.9183L-308.574 71.9262L-309.411 71.9183ZM-309.829 77.9793L-309.006 78.1332L-309.829 77.9793ZM-311.099 80.7975L-311.652 80.1686L-311.099 80.7975ZM-313.372 82.0094L-313.35 82.8464L-313.228 82.8431L-313.111 82.8048L-313.372 82.0094ZM-314.305 82.0339L-314.298 82.3218L-312.624 82.2779L-312.631 81.99L-314.305 82.0339ZM-313.439 83.1368L-295.493 82.6668L-295.537 80.993L-313.483 81.4629L-313.439 83.1368ZM-294.678 81.808L-294.686 81.5201L-296.359 81.5639L-296.352 81.8518L-294.678 81.808ZM-295.323 80.7288C-296.304 80.4887 -296.963 80.1674 -297.433 79.7963L-298.471 81.1102C-297.764 81.6686 -296.867 82.0748 -295.722 82.3552L-295.323 80.7288ZM-297.433 79.7963C-297.787 79.5166 -298.141 78.9064 -298.456 77.602L-300.083 77.9956C-299.753 79.3632 -299.293 80.4604 -298.471 81.1102L-297.433 79.7963ZM-298.456 77.602C-298.761 76.3396 -299.003 74.3888 -299.168 71.7162L-300.839 71.8197C-300.672 74.5162 -300.424 76.586 -300.083 77.9956L-298.456 77.602ZM-299.168 71.7162C-299.333 69.0502 -299.431 65.3256 -299.554 60.6164L-301.228 60.6602C-301.105 65.3558 -301.007 69.1166 -300.839 71.8197L-299.168 71.7162ZM-299.554 60.6164L-300.019 42.8625L-301.693 42.9063L-301.228 60.6602L-299.554 60.6164ZM-301.56 43.3379L-281.84 73.9362L-280.433 73.0291L-300.152 42.4309L-301.56 43.3379ZM-281.85 73.9199C-281.109 75.131 -280.548 76.164 -280.159 77.0232C-279.766 77.8931 -279.571 78.5377 -279.522 78.9838L-277.858 78.8011C-277.935 78.0982 -278.211 77.2666 -278.633 76.3332C-279.06 75.3892 -279.659 74.2918 -280.423 73.0455L-281.85 73.9199ZM-279.522 78.9838C-279.481 79.3625 -279.565 79.618 -279.736 79.8305C-279.929 80.07 -280.291 80.3262 -280.928 80.5574L-280.357 82.1315C-279.567 81.8451 -278.89 81.4499 -278.432 80.8801C-277.951 80.2833 -277.773 79.5716 -277.858 78.8011L-279.522 78.9838ZM-281.479 81.3664L-281.474 81.5583L-279.801 81.5145L-279.806 81.3225L-281.479 81.3664ZM-280.616 82.3733L-263.629 81.9285L-263.673 80.2546L-280.659 80.6994L-280.616 82.3733ZM-262.814 81.0697L-262.819 80.8777L-264.493 80.9216L-264.488 81.1135L-262.814 81.0697ZM-263.302 80.1413C-263.86 79.8801 -264.25 79.6503 -264.545 79.3704L-265.697 80.585C-265.204 81.0526 -264.619 81.3735 -264.011 81.658L-263.302 80.1413ZM-264.545 79.3704C-264.94 78.9955 -265.406 78.552 -265.873 78.0207L-267.131 79.126C-266.608 79.7211 -266.09 80.2121 -265.697 80.585L-264.545 79.3704ZM-265.873 78.0207C-266.336 77.4944 -266.802 76.8775 -267.276 76.0741L-268.718 76.9254C-268.187 77.8243 -267.659 78.5258 -267.131 79.126L-265.873 78.0207ZM-267.276 76.0741C-267.776 75.2272 -268.378 74.19 -269.081 72.962L-270.534 73.7942C-269.828 75.0261 -269.223 76.07 -268.718 76.9254L-267.276 76.0741ZM-269.099 72.9321L-292.947 35.0474L-294.364 35.9394L-270.516 73.8241L-269.099 72.9321ZM-293.024 36.0436L-276.056 16.5847L-277.318 15.4843L-294.286 34.9431L-293.024 36.0436ZM-276.056 16.585C-273.924 14.1423 -272.276 12.5068 -271.108 11.5585L-272.163 10.2585C-273.44 11.2949 -275.161 13.0127 -277.318 15.484L-276.056 16.585ZM-271.108 11.5585C-269.912 10.588 -269.029 10.0348 -268.454 9.77037L-269.154 8.24913C-269.907 8.59572 -270.914 9.24432 -272.163 10.2585L-271.108 11.5585ZM-267.967 8.98783L-267.972 8.7959L-269.646 8.83973L-269.641 9.03166L-267.967 8.98783ZM-268.831 7.98089L-278.044 8.22214L-278 9.89598L-268.787 9.65474L-268.831 7.98089ZM-278.859 9.08098L-278.854 9.27291L-277.18 9.22908L-277.185 9.03715L-278.859 9.08098ZM-278.236 10.0589C-277.334 10.304 -276.665 10.63 -276.288 10.9161L-275.276 9.58162C-275.879 9.12509 -276.765 8.7235 -277.797 8.44307L-278.236 10.0589ZM-276.288 10.9161C-276.076 11.0767 -275.944 11.3326 -275.995 11.7685L-274.332 11.9619C-274.226 11.0493 -274.508 10.1636 -275.276 9.58162L-276.288 10.9161ZM-275.995 11.7685C-276.052 12.259 -276.337 13.0052 -276.948 13.9285L-275.551 14.8525C-274.869 13.8213 -274.432 12.8199 -274.332 11.9619L-275.995 11.7685ZM-276.948 13.9285C-277.562 14.8573 -278.555 16.0985 -279.852 17.5626L-278.598 18.6727C-277.283 17.1875 -276.23 15.8782 -275.551 14.8525L-276.948 13.9285ZM-279.856 17.5671L-301.3 42.1369L-300.039 43.2379L-278.594 18.6682L-279.856 17.5671ZM-299.832 42.6655L-300.136 31.0535L-301.81 31.0973L-301.506 42.7093L-299.832 42.6655ZM-300.136 31.0535C-300.26 26.3443 -300.357 22.6196 -300.332 19.9487L-302.006 19.9327C-302.032 22.641 -301.933 26.4018 -301.81 31.0973L-300.136 31.0535ZM-300.332 19.9487C-300.306 17.271 -300.167 15.3103 -299.929 14.0336L-301.574 13.7258C-301.841 15.1513 -301.98 17.2312 -302.006 19.9327L-300.332 19.9487ZM-299.929 14.0336C-299.682 12.7145 -299.361 12.0867 -299.022 11.7889L-300.127 10.531C-300.914 11.223 -301.316 12.3427 -301.574 13.7258L-299.929 14.0336ZM-299.022 11.7889C-298.572 11.3936 -297.931 11.0383 -296.964 10.7472L-297.447 9.14386C-298.576 9.48381 -299.45 9.93646 -300.127 10.531L-299.022 11.7889ZM-296.368 9.92361L-296.376 9.63571L-298.05 9.67954L-298.042 9.96744L-296.368 9.92361ZM-297.235 8.8207L-315.181 9.29063L-315.137 10.9645L-297.191 10.4945L-297.235 8.8207ZM-315.996 10.1495L-315.988 10.4374L-314.314 10.3935L-314.322 10.1056L-315.996 10.1495ZM-315.371 11.2234C-314.478 11.466 -313.812 11.7883 -313.337 12.1637L-312.299 10.8498C-313 10.2957 -313.89 9.89048 -314.932 9.60753L-315.371 11.2234ZM-313.337 12.1637C-313.182 12.2858 -313.002 12.513 -312.816 12.9097C-312.633 13.3025 -312.466 13.8148 -312.311 14.4539L-310.683 14.0603C-310.852 13.3634 -311.051 12.733 -311.3 12.2007C-311.546 11.6725 -311.865 11.1924 -312.299 10.8498L-313.337 12.1637ZM-312.311 14.4539C-312.006 15.7163 -311.764 17.6671 -311.599 20.3397L-309.928 20.2362C-310.095 17.5397 -310.343 15.4699 -310.683 14.0603L-312.311 14.4539ZM-311.599 20.3397C-311.434 23.0057 -311.336 26.7304 -311.213 31.4396L-309.539 31.3957C-309.662 26.7002 -309.76 22.9394 -309.928 20.2362L-311.599 20.3397ZM-311.213 31.4396L-310.444 60.8055L-308.77 60.7617L-309.539 31.3957L-311.213 31.4396ZM-310.444 60.8055C-310.32 65.5147 -310.223 69.2393 -310.248 71.9103L-308.574 71.9262C-308.548 69.218 -308.647 65.4572 -308.77 60.7617L-310.444 60.8055ZM-310.248 71.9103C-310.274 74.588 -310.413 76.5487 -310.652 77.8254L-309.006 78.1332C-308.739 76.7077 -308.6 74.6278 -308.574 71.9262L-310.248 71.9103ZM-310.652 77.8254C-310.892 79.1106 -311.299 79.8584 -311.652 80.1686L-310.547 81.4264C-309.773 80.7468 -309.271 79.5501 -309.006 78.1332L-310.652 77.8254ZM-311.652 80.1686C-312.107 80.5684 -312.755 80.9251 -313.634 81.2141L-313.111 82.8048C-312.086 82.4677 -311.218 82.0164 -310.547 81.4264L-311.652 80.1686ZM-313.394 81.1725L-313.49 81.175L-313.446 82.8489L-313.35 82.8464L-313.394 81.1725ZM-245.898 80.2425L-245.061 80.2206L-246.656 79.8879L-245.898 80.2425ZM-245.89 80.5304L-246.727 80.5524L-246.705 81.3893L-245.868 81.3674L-245.89 80.5304ZM-206.473 78.5379L-205.648 78.6806L-205.645 78.6629L-205.643 78.6451L-206.473 78.5379ZM-204.956 66.7822L-204.126 66.8893L-204.001 65.9197L-204.978 65.9453L-204.956 66.7822ZM-205.244 66.7897L-205.266 65.9528L-205.891 65.9692L-206.053 66.573L-205.244 66.7897ZM-207.669 73.1914L-206.937 73.5969L-206.937 73.5969L-207.669 73.1914ZM-211.026 77.0246L-210.555 77.7168L-211.026 77.0246ZM-215.587 78.8726L-215.746 78.0507L-215.587 78.8726ZM-232.177 79.7872L-233.014 79.8091L-232.992 80.6461L-232.155 80.6241L-232.177 79.7872ZM-233.272 12.3048L-234.095 12.1508L-234.095 12.1508L-233.272 12.3048ZM-229.726 8.37057L-229.484 9.17224L-228.872 8.9879L-228.889 8.34866L-229.726 8.37057ZM-229.733 8.08267L-228.896 8.06076L-228.918 7.22383L-229.755 7.24575L-229.733 8.08267ZM-247.775 8.55511L-247.797 7.71819L-248.634 7.74011L-248.612 8.57703L-247.775 8.55511ZM-247.767 8.84302L-248.604 8.86493L-248.588 9.48763L-247.987 9.65094L-247.767 8.84302ZM-243.379 18.7155L-242.544 18.6638L-243.379 18.7155ZM-242.027 70.3458L-241.19 70.3538L-242.027 70.3458ZM-242.445 76.4069L-243.268 76.2529L-242.445 76.4069ZM-243.716 79.2251L-244.268 78.5962L-243.716 79.2251ZM-245.989 80.437L-246.747 80.0823L-247.568 81.8375L-245.727 81.2323L-245.989 80.437ZM-246.735 80.2645L-246.727 80.5524L-245.053 80.5085L-245.061 80.2206L-246.735 80.2645ZM-245.868 81.3674L-207.481 80.3622L-207.525 78.6883L-245.912 79.6935L-245.868 81.3674ZM-207.481 80.3622C-207.311 80.3577 -206.924 80.3598 -206.536 80.153L-207.324 78.6754C-207.316 78.6713 -207.316 78.6741 -207.341 78.678C-207.356 78.6802 -207.376 78.6824 -207.407 78.6842C-207.44 78.686 -207.475 78.687 -207.525 78.6883L-207.481 80.3622ZM-206.536 80.153C-206 79.8672 -205.746 79.2465 -205.648 78.6806L-207.298 78.3953C-207.327 78.5662 -207.369 78.6679 -207.396 78.7163C-207.409 78.7398 -207.414 78.7438 -207.407 78.7359C-207.4 78.7285 -207.374 78.7022 -207.324 78.6754L-206.536 80.153ZM-205.643 78.6451L-204.126 66.8893L-205.786 66.6751L-207.303 78.4308L-205.643 78.6451ZM-204.978 65.9453L-205.266 65.9528L-205.222 67.6267L-204.934 67.6191L-204.978 65.9453ZM-206.053 66.573C-206.742 69.1439 -207.528 71.2083 -208.402 72.786L-206.937 73.5969C-205.976 71.8614 -205.146 69.658 -204.435 67.0065L-206.053 66.573ZM-208.402 72.786C-209.267 74.3489 -210.303 75.5198 -211.497 76.3325L-210.555 77.7168C-209.107 76.7316 -207.905 75.3471 -206.937 73.5969L-208.402 72.786ZM-211.497 76.3325C-212.715 77.1614 -214.127 77.7371 -215.746 78.0507L-215.428 79.6946C-213.607 79.3419 -211.979 78.6856 -210.555 77.7168L-211.497 76.3325ZM-215.746 78.0507C-217.422 78.3752 -219.386 78.6148 -221.642 78.6739L-221.599 80.3477C-219.249 80.2862 -217.192 80.0364 -215.428 79.6946L-215.746 78.0507ZM-221.642 78.6739L-232.199 78.9503L-232.155 80.6241L-221.599 80.3477L-221.642 78.6739ZM-231.34 79.7653L-232.657 29.4785L-234.331 29.5224L-233.014 79.8091L-231.34 79.7653ZM-232.657 29.4785C-232.78 24.7693 -232.878 21.0447 -232.852 18.3737L-234.526 18.3578C-234.552 21.066 -234.454 24.8268 -234.331 29.5224L-232.657 29.4785ZM-232.852 18.3737C-232.827 15.6961 -232.688 13.7354 -232.449 12.4587L-234.095 12.1508C-234.361 13.5763 -234.501 15.6562 -234.526 18.3578L-232.852 18.3737ZM-232.449 12.4587C-232.202 11.1396 -231.881 10.5118 -231.542 10.2139L-232.647 8.95609C-233.435 9.64808 -233.836 10.7678 -234.095 12.1508L-232.449 12.4587ZM-231.542 10.2139C-231.092 9.81867 -230.451 9.46338 -229.484 9.17224L-229.967 7.56891C-231.096 7.90886 -231.971 8.36151 -232.647 8.95609L-231.542 10.2139ZM-228.889 8.34866L-228.896 8.06076L-230.57 8.10459L-230.562 8.39249L-228.889 8.34866ZM-229.755 7.24575L-247.797 7.71819L-247.753 9.39204L-229.711 8.91959L-229.755 7.24575ZM-248.612 8.57703L-248.604 8.86493L-246.93 8.8211L-246.938 8.5332L-248.612 8.57703ZM-247.987 9.65094C-247.094 9.89354 -246.428 10.2158 -245.953 10.5913L-244.915 9.27734C-245.616 8.72329 -246.506 8.31804 -247.548 8.03509L-247.987 9.65094ZM-245.953 10.5913C-245.798 10.7134 -245.618 10.9405 -245.433 11.3373C-245.249 11.73 -245.082 12.2424 -244.927 12.8815L-243.3 12.4879C-243.468 11.791 -243.667 11.1605 -243.916 10.6283C-244.163 10.1 -244.481 9.62 -244.915 9.27734L-245.953 10.5913ZM-244.927 12.8815C-244.622 14.1439 -244.381 16.0947 -244.215 18.7673L-242.544 18.6638C-242.711 15.9673 -242.959 13.8975 -243.3 12.4879L-244.927 12.8815ZM-244.215 18.7673C-244.05 21.4333 -243.952 25.1579 -243.829 29.8671L-242.155 29.8233C-242.278 25.1277 -242.376 21.3669 -242.544 18.6638L-244.215 18.7673ZM-243.829 29.8671L-243.06 59.2331L-241.386 59.1892L-242.155 29.8233L-243.829 29.8671ZM-243.06 59.2331C-242.937 63.9423 -242.839 67.6669 -242.865 70.3379L-241.19 70.3538C-241.165 67.6456 -241.263 63.8848 -241.386 59.1892L-243.06 59.2331ZM-242.865 70.3379C-242.89 73.0155 -243.029 74.9762 -243.268 76.2529L-241.622 76.5608C-241.355 75.1353 -241.216 73.0554 -241.19 70.3538L-242.865 70.3379ZM-243.268 76.2529C-243.508 77.5382 -243.915 78.2859 -244.268 78.5962L-243.163 79.854C-242.39 79.1744 -241.887 77.9777 -241.622 76.5608L-243.268 76.2529ZM-244.268 78.5962C-244.723 78.996 -245.371 79.3527 -246.25 79.6417L-245.727 81.2323C-244.702 80.8953 -243.834 80.444 -243.163 79.854L-244.268 78.5962ZM-245.23 80.7917L-245.139 80.5972L-246.656 79.8879L-246.747 80.0823L-245.23 80.7917ZM-202.788 79.1137L-201.951 79.0917L-203.546 78.759L-202.788 79.1137ZM-202.78 79.4016L-203.617 79.4235L-203.595 80.2604L-202.758 80.2385L-202.78 79.4016ZM-184.834 78.9316L-184.812 79.7686L-183.975 79.7466L-183.997 78.9097L-184.834 78.9316ZM-184.842 78.6437L-184.005 78.6218L-184.021 77.9826L-184.643 77.8305L-184.842 78.6437ZM-187.271 77.555L-187.79 78.2119L-187.271 77.555ZM-188.589 74.9005L-187.775 74.7038L-188.589 74.9005ZM-189.323 68.8697L-190.159 68.9215L-189.323 68.8697ZM-190.675 17.2394L-191.512 17.2314L-190.675 17.2394ZM-190.258 11.1784L-189.435 11.3323L-189.435 11.3323L-190.258 11.1784ZM-186.711 7.24421L-186.47 8.04587L-185.858 7.86153L-185.874 7.22229L-186.711 7.24421ZM-186.719 6.9563L-185.882 6.93439L-185.904 6.09746L-186.741 6.11938L-186.719 6.9563ZM-204.665 7.42623L-204.687 6.58931L-205.524 6.61122L-205.502 7.44815L-204.665 7.42623ZM-204.657 7.71414L-205.494 7.73605L-205.478 8.35875L-204.877 8.52206L-204.657 7.71414ZM-200.269 17.5867L-199.434 17.5349L-200.269 17.5867ZM-198.917 69.217L-198.08 69.2249L-198.917 69.217ZM-199.335 75.278L-200.158 75.124L-199.335 75.278ZM-200.605 78.0962L-201.158 77.4673L-200.605 78.0962ZM-202.878 79.3081L-203.637 78.9534L-204.458 80.7086L-202.617 80.1034L-202.878 79.3081ZM-203.624 79.1356L-203.617 79.4235L-201.943 79.3796L-201.951 79.0917L-203.624 79.1356ZM-202.758 80.2385L-184.812 79.7686L-184.856 78.0947L-202.802 78.5646L-202.758 80.2385ZM-183.997 78.9097L-184.005 78.6218L-185.679 78.6656L-185.671 78.9536L-183.997 78.9097ZM-184.643 77.8305C-185.624 77.5904 -186.282 77.2691 -186.752 76.898L-187.79 78.2119C-187.083 78.7703 -186.186 79.1765 -185.041 79.4569L-184.643 77.8305ZM-186.752 76.898C-187.106 76.6183 -187.46 76.0082 -187.775 74.7038L-189.403 75.0973C-189.072 76.4649 -188.613 77.5621 -187.79 78.2119L-186.752 76.898ZM-187.775 74.7038C-188.08 73.4413 -188.322 71.4906 -188.487 68.8179L-190.159 68.9215C-189.992 71.618 -189.744 73.6878 -189.403 75.0973L-187.775 74.7038ZM-188.487 68.8179C-188.653 66.1519 -188.75 62.4273 -188.874 57.7181L-190.547 57.7619C-190.424 62.4575 -190.326 66.2183 -190.159 68.9215L-188.487 68.8179ZM-188.874 57.7181L-189.643 28.3522L-191.316 28.396L-190.547 57.7619L-188.874 57.7181ZM-189.643 28.3522C-189.766 23.643 -189.863 19.9183 -189.838 17.2474L-191.512 17.2314C-191.538 19.9396 -191.439 23.7004 -191.316 28.396L-189.643 28.3522ZM-189.838 17.2474C-189.812 14.5697 -189.673 12.609 -189.435 11.3323L-191.08 11.0245C-191.347 12.4499 -191.486 14.5299 -191.512 17.2314L-189.838 17.2474ZM-189.435 11.3323C-189.188 10.0132 -188.867 9.38539 -188.528 9.08755L-189.633 7.82973C-190.42 8.52171 -190.822 9.64143 -191.08 11.0245L-189.435 11.3323ZM-188.528 9.08755C-188.078 8.69231 -187.437 8.33701 -186.47 8.04587L-186.953 6.44254C-188.082 6.78249 -188.956 7.23515 -189.633 7.82973L-188.528 9.08755ZM-185.874 7.22229L-185.882 6.93439L-187.556 6.97822L-187.548 7.26612L-185.874 7.22229ZM-186.741 6.11938L-204.687 6.58931L-204.643 8.26315L-186.697 7.79323L-186.741 6.11938ZM-205.502 7.44815L-205.494 7.73605L-203.82 7.69222L-203.828 7.40432L-205.502 7.44815ZM-204.877 8.52206C-203.984 8.76465 -203.318 9.08694 -202.843 9.4624L-201.805 8.14846C-202.506 7.59441 -203.396 7.18916 -204.438 6.90621L-204.877 8.52206ZM-202.843 9.4624C-202.688 9.5845 -202.508 9.81167 -202.323 10.2084C-202.139 10.6012 -201.972 11.1135 -201.817 11.7526L-200.19 11.359C-200.358 10.6621 -200.557 10.0316 -200.806 9.49939C-201.053 8.97114 -201.371 8.49112 -201.805 8.14846L-202.843 9.4624ZM-201.817 11.7526C-201.512 13.015 -201.27 14.9658 -201.105 17.6384L-199.434 17.5349C-199.601 14.8384 -199.849 12.7686 -200.19 11.359L-201.817 11.7526ZM-201.105 17.6384C-200.94 20.3044 -200.842 24.029 -200.719 28.7382L-199.045 28.6944C-199.168 23.9988 -199.266 20.238 -199.434 17.5349L-201.105 17.6384ZM-200.719 28.7382L-199.95 58.1042L-198.276 58.0603L-199.045 28.6944L-200.719 28.7382ZM-199.95 58.1042C-199.826 62.8134 -199.729 66.538 -199.754 69.209L-198.08 69.2249C-198.054 66.5167 -198.153 62.7559 -198.276 58.0603L-199.95 58.1042ZM-199.754 69.209C-199.78 71.8866 -199.919 73.8474 -200.158 75.124L-198.512 75.4319C-198.245 74.0064 -198.106 71.9265 -198.08 69.2249L-199.754 69.209ZM-200.158 75.124C-200.398 76.4093 -200.805 77.1571 -201.158 77.4673L-200.053 78.7251C-199.279 78.0455 -198.777 76.8488 -198.512 75.4319L-200.158 75.124ZM-201.158 77.4673C-201.613 77.8671 -202.261 78.2238 -203.14 78.5128L-202.617 80.1034C-201.592 79.7664 -200.724 79.3151 -200.053 78.7251L-201.158 77.4673ZM-202.12 79.6628L-202.029 79.4683L-203.546 78.759L-203.637 78.9534L-202.12 79.6628ZM-182.537 78.8715L-183.374 78.8934L-183.352 79.7303L-182.515 79.7084L-182.537 78.8715ZM-173.612 78.6378L-173.59 79.4747L-172.753 79.4528L-172.775 78.6159L-173.612 78.6378ZM-173.619 78.3499L-172.783 78.328L-172.798 77.7418L-173.354 77.5558L-173.619 78.3499ZM-176.054 77.0692L-175.535 76.4122L-176.054 77.0692ZM-177.374 74.3188L-176.561 74.122L-177.374 74.3188ZM-178.106 68.3839L-177.27 68.331L-178.106 68.3839ZM-179.76 8.8868L-179.033 8.47161L-180.597 8.90872L-179.76 8.8868ZM-140.205 78.1471L-140.932 78.5623L-140.684 78.9972L-140.183 78.984L-140.205 78.1471ZM-138.862 78.1119L-138.84 78.9489L-138.003 78.9269L-138.025 78.09L-138.862 78.1119ZM-140.384 16.3066L-139.547 16.3157L-140.384 16.3066ZM-139.964 10.3416L-139.141 10.4955L-139.141 10.4955L-139.964 10.3416ZM-138.79 7.52586L-138.237 8.15477L-138.237 8.15477L-138.79 7.52586ZM-136.521 6.122L-136.19 6.89093L-135.67 6.66671L-135.685 6.10009L-136.521 6.122ZM-136.529 5.83411L-135.692 5.81219L-135.714 4.97527L-136.551 4.99718L-136.529 5.83411ZM-145.454 6.06781L-145.476 5.23089L-146.313 5.25281L-146.291 6.08973L-145.454 6.06781ZM-145.446 6.35571L-146.283 6.37763L-146.268 6.96383L-145.712 7.14974L-145.446 6.35571ZM-143.012 7.63643L-143.531 8.2934L-143.531 8.2934L-143.012 7.63643ZM-141.692 10.3868L-140.878 10.19L-140.878 10.19L-141.692 10.3868ZM-140.96 16.3217L-141.796 16.3746L-140.96 16.3217ZM-139.741 59.2165L-140.467 59.6337L-138.904 59.1946L-139.741 59.2165ZM-168.618 8.97917L-167.892 8.56194L-167.893 8.55916L-168.618 8.97917ZM-170.014 6.99904L-169.438 6.39175L-169.438 6.39174L-170.014 6.99904ZM-184.323 6.98961L-184.345 6.15268L-185.182 6.1746L-185.16 7.01152L-184.323 6.98961ZM-184.316 7.2775L-185.153 7.29942L-185.136 7.92212L-184.535 8.08543L-184.316 7.2775ZM-181.982 8.3688L-182.501 9.02577L-181.982 8.3688ZM-180.662 11.1192L-181.476 11.316L-180.662 11.1192ZM-179.928 17.15L-180.763 17.2018L-179.928 17.15ZM-178.583 68.4924L-179.42 68.4834L-178.583 68.4924ZM-179.003 74.4575L-179.826 74.3035L-179.003 74.4575ZM-180.274 77.2757L-179.721 77.9046L-180.274 77.2757ZM-182.542 78.6795L-183.379 78.7015L-183.346 79.9376L-182.211 79.4485L-182.542 78.6795ZM-183.381 78.6055L-183.374 78.8934L-181.7 78.8496L-181.708 78.5617L-183.381 78.6055ZM-182.515 79.7084L-173.59 79.4747L-173.634 77.8008L-182.559 78.0346L-182.515 79.7084ZM-172.775 78.6159L-172.783 78.328L-174.456 78.3718L-174.449 78.6597L-172.775 78.6159ZM-173.354 77.5558C-174.327 77.2305 -175.022 76.8174 -175.535 76.4122L-176.573 77.7261C-175.909 78.2504 -175.043 78.7568 -173.885 79.1439L-173.354 77.5558ZM-175.535 76.4122C-175.689 76.2901 -175.87 76.0629 -176.055 75.6662C-176.239 75.2734 -176.406 74.7611 -176.561 74.122L-178.188 74.5156C-178.02 75.2125 -177.821 75.8429 -177.572 76.3752C-177.325 76.9035 -177.007 77.3835 -176.573 77.7261L-175.535 76.4122ZM-176.561 74.122C-176.866 72.8588 -177.107 70.9074 -177.27 68.331L-178.941 68.4368C-178.777 71.0376 -178.529 73.1067 -178.188 74.5156L-176.561 74.122ZM-177.27 68.331C-177.433 65.7617 -177.528 62.1338 -177.649 57.5202L-179.323 57.564C-179.202 62.1633 -179.106 65.8289 -178.941 68.4368L-177.27 68.331ZM-177.649 57.5202L-178.923 8.86489L-180.597 8.90872L-179.323 57.564L-177.649 57.5202ZM-180.487 9.302L-140.932 78.5623L-139.478 77.7319L-179.033 8.47161L-180.487 9.302ZM-140.183 78.984L-138.84 78.9489L-138.884 77.275L-140.227 77.3102L-140.183 78.984ZM-138.025 78.09L-139.359 27.1315L-141.033 27.1753L-139.699 78.1339L-138.025 78.09ZM-139.359 27.1315C-139.48 22.5179 -139.575 18.89 -139.547 16.3157L-141.221 16.2975C-141.25 18.9105 -141.154 22.5761 -141.033 27.1753L-139.359 27.1315ZM-139.547 16.3157C-139.519 13.7343 -139.38 11.7729 -139.141 10.4955L-140.787 10.1876C-141.054 11.6124 -141.193 13.6917 -141.221 16.2975L-139.547 16.3157ZM-139.141 10.4955C-139.02 9.8492 -138.88 9.3288 -138.717 8.92699C-138.553 8.52108 -138.385 8.28479 -138.237 8.15477L-139.342 6.89695C-139.757 7.26184 -140.05 7.75787 -140.269 8.29832C-140.49 8.84287 -140.655 9.48287 -140.787 10.1876L-139.141 10.4955ZM-138.237 8.15477C-137.741 7.7192 -137.061 7.26598 -136.19 6.89093L-136.853 5.35308C-137.881 5.79602 -138.711 6.34268 -139.342 6.89695L-138.237 8.15477ZM-135.685 6.10009L-135.692 5.81219L-137.366 5.85602L-137.358 6.14392L-135.685 6.10009ZM-136.551 4.99718L-145.476 5.23089L-145.432 6.90474L-136.507 6.67103L-136.551 4.99718ZM-146.291 6.08973L-146.283 6.37763L-144.61 6.3338L-144.617 6.0459L-146.291 6.08973ZM-145.712 7.14974C-144.739 7.47504 -144.044 7.88818 -143.531 8.2934L-142.493 6.97946C-143.157 6.45516 -144.023 5.94883 -145.181 5.56169L-145.712 7.14974ZM-143.531 8.2934C-143.376 8.4155 -143.196 8.64267 -143.011 9.03941C-142.827 9.43216 -142.66 9.9445 -142.505 10.5836L-140.878 10.19C-141.046 9.49311 -141.245 8.86265 -141.494 8.33039C-141.741 7.80214 -142.059 7.32212 -142.493 6.97946L-143.531 8.2934ZM-142.505 10.5836C-142.2 11.8468 -141.959 13.7982 -141.796 16.3746L-140.124 16.2688C-140.289 13.668 -140.537 11.5988 -140.878 10.19L-142.505 10.5836ZM-141.796 16.3746C-141.633 18.9439 -141.538 22.5718 -141.417 27.1854L-139.743 27.1415C-139.864 22.5423 -139.959 18.8767 -140.124 16.2688L-141.796 16.3746ZM-141.417 27.1854L-140.578 59.2384L-138.904 59.1946L-139.743 27.1415L-141.417 27.1854ZM-139.015 58.7993L-167.892 8.56194L-169.344 9.39639L-140.467 59.6337L-139.015 58.7993ZM-167.893 8.55916C-168.507 7.50168 -169.053 6.75724 -169.438 6.39175L-170.59 7.60632C-170.385 7.80156 -169.936 8.37553 -169.342 9.39917L-167.893 8.55916ZM-169.438 6.39174C-170 5.858 -170.801 5.79803 -171.485 5.81594L-171.442 7.48979C-170.782 7.47252 -170.619 7.57936 -170.59 7.60633L-169.438 6.39174ZM-171.485 5.81594L-184.345 6.15268L-184.301 7.82653L-171.442 7.48979L-171.485 5.81594ZM-185.16 7.01152L-185.153 7.29942L-183.479 7.25559L-183.486 6.96769L-185.16 7.01152ZM-184.535 8.08543C-183.642 8.32802 -182.977 8.65031 -182.501 9.02577L-181.463 7.71183C-182.165 7.15778 -183.055 6.75253 -184.096 6.46958L-184.535 8.08543ZM-182.501 9.02577C-182.347 9.14787 -182.166 9.37504 -181.981 9.77178C-181.797 10.1645 -181.63 10.6769 -181.476 11.316L-179.848 10.9224C-180.017 10.2255 -180.215 9.59502 -180.464 9.06276C-180.711 8.53451 -181.03 8.05449 -181.463 7.71183L-182.501 9.02577ZM-181.476 11.316C-181.17 12.5784 -180.929 14.5292 -180.763 17.2018L-179.092 17.0983C-179.259 14.4018 -179.507 12.332 -179.848 10.9224L-181.476 11.316ZM-180.763 17.2018C-180.598 19.8678 -180.5 23.5924 -180.377 28.3016L-178.703 28.2578C-178.826 23.5622 -178.925 19.8014 -179.092 17.0983L-180.763 17.2018ZM-180.377 28.3016L-179.608 57.6675L-177.934 57.6237L-178.703 28.2578L-180.377 28.3016ZM-179.608 57.6675C-179.487 62.2812 -179.392 65.9091 -179.42 68.4834L-177.746 68.5015C-177.718 65.8885 -177.814 62.2229 -177.934 57.6237L-179.608 57.6675ZM-179.42 68.4834C-179.448 71.0647 -179.587 73.0261 -179.826 74.3035L-178.18 74.6114C-177.914 73.1867 -177.774 71.1074 -177.746 68.5015L-179.42 68.4834ZM-179.826 74.3035C-180.067 75.5888 -180.473 76.3366 -180.827 76.6468L-179.721 77.9046C-178.948 77.225 -178.445 76.0283 -178.18 74.6114L-179.826 74.3035ZM-180.827 76.6468C-181.322 77.0824 -182.002 77.5356 -182.873 77.9106L-182.211 79.4485C-181.182 79.0055 -180.352 78.4589 -179.721 77.9046L-180.827 76.6468ZM-181.705 78.6576L-181.708 78.5617L-183.381 78.6055L-183.379 78.7015L-181.705 78.6576ZM-104.25 77.5897L-104.272 76.7528L-104.541 76.7598L-104.755 76.9214L-104.25 77.5897ZM-97.3659 76.4491L-97.6405 75.6583L-97.3659 76.4491ZM-84.4621 66.796L-83.7536 67.242L-83.6186 67.0275L-83.6252 66.7741L-84.4621 66.796ZM-84.7481 52.2065L-83.9112 52.2264L-83.9112 52.2264L-84.7481 52.2065ZM-84.2854 47.8729L-83.4775 48.0924L-83.4775 48.0924L-84.2854 47.8729ZM-82.9946 45.8224L-82.5122 46.5066L-82.9946 45.8224ZM-80.6206 44.7999L-80.3793 45.6016L-79.767 45.4173L-79.7837 44.778L-80.6206 44.7999ZM-80.6281 44.512L-79.7912 44.4901L-79.8132 43.6532L-80.6501 43.6751L-80.6281 44.512ZM-98.3821 44.977L-98.404 44.14L-99.2409 44.1619L-99.219 44.9989L-98.3821 44.977ZM-98.3745 45.2648L-99.2115 45.2868L-99.1952 45.9095L-98.594 46.0728L-98.3745 45.2648ZM-96.0462 46.1642L-96.4922 46.8727L-96.0462 46.1642ZM-94.6499 48.1443L-95.4452 48.4058L-94.6499 48.1443ZM-93.9685 52.1599L-94.8029 52.2282L-94.8029 52.2282L-93.9685 52.1599ZM-93.9277 68.3884L-93.0961 68.485L-93.9277 68.3884ZM-95.5219 73.5199L-94.8061 73.954L-95.5219 73.5199ZM-98.9013 76.4893L-99.2325 75.7204L-98.9013 76.4893ZM-117.152 68.9965L-117.891 69.3904L-117.152 68.9965ZM-120.916 57.283L-121.739 57.4369L-120.916 57.283ZM-118.432 12.7548L-117.695 13.151L-118.432 12.7548ZM-113.113 6.8535L-112.693 7.57774L-112.693 7.57773L-113.113 6.8535ZM-100.468 5.65808L-100.699 6.46275L-100.468 5.65808ZM-95.5008 8.31296L-94.9693 7.66616L-94.9693 7.66616L-95.5008 8.31296ZM-91.6299 13.1093L-92.3611 13.517L-91.6299 13.1093ZM-89.1383 20.2465L-89.9593 20.4103L-89.8213 21.1019L-89.1163 21.0834L-89.1383 20.2465ZM-88.8504 20.239L-88.8285 21.0759L-87.9915 21.054L-88.0134 20.217L-88.8504 20.239ZM-89.2449 5.17212L-88.408 5.15021L-88.4299 4.31328L-89.2668 4.3352L-89.2449 5.17212ZM-89.5328 5.17966L-89.5547 4.34274L-90.1909 4.3594L-90.3451 4.97678L-89.5328 5.17966ZM-94.6622 7.33067L-94.3424 6.55699L-94.3424 6.55698L-94.6622 7.33067ZM-97.5714 6.25446L-97.306 5.46043L-97.5714 6.25446ZM-101.248 5.19834L-101.039 4.3876L-101.039 4.3876L-101.248 5.19834ZM-116.275 7.12836L-116.633 6.37149L-116.275 7.12836ZM-130.97 25.3753L-131.765 25.1112L-130.97 25.3753ZM-130.621 57.057L-129.819 56.8171L-130.621 57.057ZM-124.94 68.6243L-125.604 69.1342L-124.94 68.6243ZM-116.206 75.7901L-116.569 76.5444L-116.206 75.7901ZM-104.91 78.0872L-104.888 78.9241L-104.619 78.9171L-104.405 78.7555L-104.91 78.0872ZM-104.228 78.4267C-101.671 78.3597 -99.2857 78.0021 -97.0912 77.24L-97.6405 75.6583C-99.6334 76.3503 -101.84 76.6891 -104.272 76.7528L-104.228 78.4267ZM-97.0912 77.24C-94.9638 76.5012 -93.0097 75.6619 -91.2451 74.6201L-92.0963 73.1782C-93.7362 74.1463 -95.5806 74.9429 -97.6405 75.6583L-97.0912 77.24ZM-91.2451 74.6201C-89.4662 73.57 -87.9971 72.329 -86.7369 71.001L-87.9514 69.8484C-89.121 71.0809 -90.4706 72.2185 -92.0963 73.1782L-91.2451 74.6201ZM-86.7369 71.001C-85.4921 69.6894 -84.5263 68.4695 -83.7536 67.242L-85.1707 66.35C-85.8732 67.466 -86.7663 68.5996 -87.9514 69.8484L-86.7369 71.001ZM-83.6252 66.7741L-83.8036 59.9605L-85.4775 60.0043L-85.2991 66.818L-83.6252 66.7741ZM-83.8036 59.9605C-83.8893 56.6885 -83.9563 54.1223 -83.9112 52.2264L-85.5851 52.1866C-85.6314 54.1344 -85.5627 56.7505 -85.4775 60.0043L-83.8036 59.9605ZM-83.9112 52.2264C-83.8659 50.3224 -83.7131 48.9596 -83.4775 48.0924L-85.0933 47.6534C-85.3833 48.7206 -85.539 50.2469 -85.5851 52.1866L-83.9112 52.2264ZM-83.4775 48.0924C-83.2524 47.2638 -82.8813 46.7669 -82.5122 46.5066L-83.4771 45.1382C-84.2396 45.6759 -84.7929 46.5477 -85.0933 47.6534L-83.4775 48.0924ZM-82.5122 46.5066C-82.0602 46.1879 -81.4063 45.9108 -80.3793 45.6016L-80.862 43.9983C-81.9311 44.3202 -82.7976 44.6591 -83.4771 45.1382L-82.5122 46.5066ZM-79.7837 44.778L-79.7912 44.4901L-81.4651 44.534L-81.4575 44.8219L-79.7837 44.778ZM-80.6501 43.6751L-98.404 44.14L-98.3601 45.8139L-80.6062 45.349L-80.6501 43.6751ZM-99.219 44.9989L-99.2115 45.2868L-97.5376 45.2429L-97.5451 44.955L-99.219 44.9989ZM-98.594 46.0728C-97.6376 46.3326 -96.9657 46.5746 -96.4922 46.8727L-95.6002 45.4557C-96.2984 45.0162 -97.177 44.7226 -98.155 44.4569L-98.594 46.0728ZM-96.4922 46.8727C-96.11 47.1133 -95.7134 47.5901 -95.4452 48.4058L-93.8546 47.8829C-94.2124 46.7943 -94.8107 45.9527 -95.6002 45.4557L-96.4922 46.8727ZM-95.4452 48.4058C-95.1624 49.2661 -94.942 50.5289 -94.8029 52.2282L-93.1341 52.0916C-93.2774 50.3411 -93.5113 48.9268 -93.8546 47.8829L-95.4452 48.4058ZM-94.8029 52.2282C-94.6641 53.9243 -94.6042 56.1998 -94.526 59.1849L-92.8522 59.141C-92.9298 56.1762 -92.9905 53.8452 -93.1341 52.0916L-94.8029 52.2282ZM-94.526 59.1849L-94.4808 60.9123L-92.807 60.8685L-92.8522 59.141L-94.526 59.1849ZM-94.4808 60.9123C-94.4038 63.852 -94.5292 66.3123 -94.7593 68.2917L-93.0961 68.485C-92.8559 66.4188 -92.7281 63.8787 -92.807 60.8685L-94.4808 60.9123ZM-94.7593 68.2917C-94.9849 70.2323 -95.4885 71.8503 -96.2378 73.0857L-94.8061 73.954C-93.8983 72.4571 -93.3408 70.5902 -93.0961 68.485L-94.7593 68.2917ZM-96.2378 73.0857C-96.9789 74.3078 -97.9731 75.178 -99.2325 75.7204L-98.5702 77.2583C-96.9807 76.5737 -95.722 75.4642 -94.8061 73.954L-96.2378 73.0857ZM-99.2325 75.7204C-100.522 76.2758 -102.316 76.6056 -104.563 76.6644L-104.519 78.3382C-102.159 78.2764 -100.129 77.9298 -98.5702 77.2583L-99.2325 75.7204ZM-104.563 76.6644C-106.897 76.7255 -109.051 76.1566 -111.052 74.8671L-111.959 76.2748C-109.663 77.7538 -107.175 78.4078 -104.519 78.3382L-104.563 76.6644ZM-111.052 74.8671C-113.051 73.5794 -114.845 71.543 -116.413 68.6026L-117.891 69.3904C-116.226 72.5115 -114.258 74.7941 -111.959 76.2748L-111.052 74.8671ZM-116.413 68.6026C-117.976 65.6712 -119.209 61.8554 -120.093 57.1292L-121.739 57.4369C-120.835 62.2671 -119.559 66.2603 -117.891 69.3904L-116.413 68.6026ZM-120.093 57.1292C-120.975 52.4076 -121.507 46.7064 -121.685 39.9212L-123.359 39.9651C-123.18 46.8072 -122.643 52.6019 -121.739 57.4369L-120.093 57.1292ZM-121.685 39.9212C-121.855 33.4217 -121.614 28.0015 -120.879 23.6393L-122.53 23.3609C-123.291 27.8729 -123.531 33.4131 -123.359 39.9651L-121.685 39.9212ZM-120.879 23.6393C-120.138 19.2469 -119.1 15.7657 -117.695 13.151L-119.17 12.3586C-120.696 15.1985 -121.774 18.8791 -122.53 23.3609L-120.879 23.6393ZM-117.695 13.151C-116.282 10.5217 -114.607 8.68742 -112.693 7.57774L-113.533 6.12926C-115.782 7.43335 -117.652 9.53321 -119.17 12.3586L-117.695 13.151ZM-112.693 7.57773C-110.738 6.4438 -108.587 5.84389 -106.227 5.78208L-106.271 4.10823C-108.9 4.17709 -111.326 4.84941 -113.533 6.12926L-112.693 7.57773ZM-106.227 5.78208C-104.292 5.73142 -102.451 5.95955 -100.699 6.46275L-100.237 4.85341C-102.162 4.30049 -104.174 4.05334 -106.271 4.10823L-106.227 5.78208ZM-100.699 6.46275C-98.982 6.95596 -97.4259 7.81449 -96.0324 8.95977L-94.9693 7.66616C-96.52 6.39167 -98.2771 5.41631 -100.237 4.85341L-100.699 6.46275ZM-96.0324 8.95977C-94.6552 10.0916 -93.4282 11.6035 -92.3611 13.517L-90.8987 12.7015C-92.0485 10.6398 -93.4021 8.95409 -94.9693 7.66616L-96.0324 8.95977ZM-92.3611 13.517C-91.304 15.4127 -90.4989 17.7056 -89.9593 20.4103L-88.3172 20.0827C-88.8831 17.2465 -89.7391 14.7811 -90.8987 12.7015L-92.3611 13.517ZM-89.1163 21.0834L-88.8285 21.0759L-88.8723 19.402L-89.1602 19.4096L-89.1163 21.0834ZM-88.0134 20.217L-88.408 5.15021L-90.0818 5.19404L-89.6873 20.2609L-88.0134 20.217ZM-89.2668 4.3352L-89.5547 4.34274L-89.5109 6.01658L-89.223 6.00905L-89.2668 4.3352ZM-90.3451 4.97678C-90.5425 5.76718 -90.8125 6.27744 -91.0929 6.58138C-91.3542 6.8646 -91.641 6.99026 -91.982 6.99919L-91.9382 8.67304C-91.1275 8.65181 -90.4181 8.31923 -89.8622 7.71676C-89.3255 7.135 -88.9577 6.33212 -88.7205 5.38254L-90.3451 4.97678ZM-91.982 6.99919C-92.8203 7.02114 -93.5728 6.87516 -94.3424 6.55699L-94.9821 8.10436C-94.0042 8.50869 -93.0193 8.70134 -91.9382 8.67304L-91.982 6.99919ZM-94.3424 6.55698C-95.237 6.1871 -96.2252 5.8217 -97.306 5.46043L-97.8368 7.04848C-96.7862 7.39967 -95.835 7.75174 -94.9821 8.10437L-94.3424 6.55698ZM-97.306 5.46043C-98.3991 5.09505 -99.6785 4.73818 -101.039 4.3876L-101.457 6.00908C-100.111 6.35588 -98.8751 6.70141 -97.8368 7.04848L-97.306 5.46043ZM-101.039 4.3876C-102.495 4.01267 -104.312 3.86487 -106.372 3.91881L-106.328 5.59265C-104.357 5.54105 -102.709 5.68666 -101.457 6.00908L-101.039 4.3876ZM-106.372 3.91881C-109.844 4.00975 -113.3 4.7958 -116.633 6.37149L-115.917 7.88523C-112.799 6.41103 -109.573 5.67762 -106.328 5.59265L-106.372 3.91881ZM-116.633 6.37149C-119.977 7.95251 -122.99 10.3171 -125.576 13.4481L-124.285 14.5144C-121.845 11.5598 -119.024 9.3541 -115.917 7.88523L-116.633 6.37149ZM-125.576 13.4481C-128.168 16.5858 -130.226 20.4805 -131.765 25.1112L-130.176 25.6393C-128.688 21.1637 -126.72 17.4624 -124.285 14.5144L-125.576 13.4481ZM-131.765 25.1112C-133.318 29.7836 -133.949 35.2809 -133.784 41.5825L-132.11 41.5387C-132.272 35.3646 -131.65 30.0733 -130.176 25.6393L-131.765 25.1112ZM-133.784 41.5825C-133.632 47.4053 -132.815 52.6441 -131.423 57.2969L-129.819 56.8171C-131.163 52.3224 -131.961 47.232 -132.11 41.5387L-133.784 41.5825ZM-131.423 57.2969C-130.031 61.9509 -128.063 65.9335 -125.604 69.1342L-124.276 68.1143C-126.59 65.1018 -128.475 61.3106 -129.819 56.8171L-131.423 57.2969ZM-125.604 69.1342C-123.142 72.3401 -120.096 74.8457 -116.569 76.5444L-115.842 75.0358C-119.123 73.4556 -121.966 71.1216 -124.276 68.1143L-125.604 69.1342ZM-116.569 76.5444C-113.034 78.2468 -109.135 79.0353 -104.888 78.9241L-104.931 77.2502C-108.938 77.3551 -112.569 76.6122 -115.842 75.0358L-116.569 76.5444ZM-104.405 78.7555L-103.746 78.258L-104.755 76.9214L-105.414 77.4189L-104.405 78.7555ZM-78.1427 75.8497L-77.3058 75.8278L-77.3362 74.6666L-78.4282 75.0627L-78.1427 75.8497ZM-78.1352 76.1376L-78.9721 76.1595L-78.9502 76.9965L-78.1133 76.9746L-78.1352 76.1376ZM-36.5106 74.0873L-35.6856 74.23L-35.6796 74.195L-35.6765 74.1597L-36.5106 74.0873ZM-35.6253 63.8846L-34.7913 63.957L-34.7103 63.0232L-35.6473 63.0477L-35.6253 63.8846ZM-36.0092 63.8947L-36.0311 63.0578L-36.691 63.0751L-36.8282 63.7207L-36.0092 63.8947ZM-41.2431 73.0589L-41.6774 72.3431L-41.6774 72.3431L-41.2431 73.0589ZM-45.9078 74.6215L-45.7984 75.4515L-45.9078 74.6215ZM-64.5179 75.3969L-65.3548 75.4188L-65.3329 76.2558L-64.496 76.2338L-64.5179 75.3969ZM-65.5357 36.5302L-65.5576 35.6933L-66.3945 35.7152L-66.3726 36.5522L-65.5357 36.5302ZM-52.9971 38.6027L-53.6183 39.164L-52.9971 38.6027ZM-51.6892 40.8733L-50.9022 40.5878L-50.9022 40.5878L-51.6892 40.8733ZM-50.9496 43.4468L-51.7619 43.6497L-51.5991 44.3013L-50.9277 44.2837L-50.9496 43.4468ZM-50.7577 43.4418L-50.7358 44.2787L-49.8988 44.2568L-49.9207 43.4198L-50.7577 43.4418ZM-51.1572 28.183L-50.3203 28.1611L-50.3422 27.3242L-51.1792 27.3461L-51.1572 28.183ZM-51.3492 28.188L-51.3711 27.3511L-52.0424 27.3687L-52.1709 28.0279L-51.3492 28.188ZM-51.9531 30.7967L-51.1522 31.0406L-51.1522 31.0406L-51.9531 30.7967ZM-53.1404 33.1326L-53.79 32.6046L-53.79 32.6046L-53.1404 33.1326ZM-55.5903 34.9253L-55.224 35.6782L-55.5903 34.9253ZM-65.5533 35.8585L-66.3902 35.8804L-66.3683 36.7173L-65.5313 36.6954L-65.5533 35.8585ZM-66.3901 3.90142L-66.412 3.0645L-67.2489 3.08641L-67.227 3.92334L-66.3901 3.90142ZM-49.6792 3.944L-49.7952 4.77313L-49.7952 4.77314L-49.6792 3.944ZM-45.2246 5.36387L-45.6445 6.08813L-45.6445 6.08813L-45.2246 5.36387ZM-41.9797 8.25592L-42.6554 8.75032L-42.6554 8.75033L-41.9797 8.25592ZM-39.7453 12.903L-40.5406 13.1645L-40.3461 13.7563L-39.7234 13.74L-39.7453 12.903ZM-39.3615 12.893L-39.3395 13.7299L-38.3387 13.7037L-38.5416 12.7233L-39.3615 12.893ZM-41.1206 4.39211L-41.946 4.53216L-41.9435 4.54701L-41.9404 4.56176L-41.1206 4.39211ZM-41.6306 3.25307L-41.9853 4.01143L-41.9853 4.01144L-41.6306 3.25307ZM-80.2144 4.07135L-80.2363 3.23443L-81.0732 3.25635L-81.0513 4.09327L-80.2144 4.07135ZM-80.2068 4.35926L-81.0437 4.38117L-81.0274 5.00387L-80.4263 5.16718L-80.2068 4.35926ZM-77.8735 5.45055L-77.3545 4.79358L-77.3545 4.79358L-77.8735 5.45055ZM-75.8189 14.2318L-74.9833 14.18L-75.8189 14.2318ZM-74.4669 65.8621L-73.6297 65.8701L-74.4669 65.8621ZM-74.8844 71.9231L-74.0615 72.077L-74.8844 71.9231ZM-76.1551 74.7413L-76.7077 74.1124L-76.1551 74.7413ZM-78.4281 75.9532L-78.7136 75.1662L-78.1666 76.7486L-78.4281 75.9532ZM-78.9796 75.8716L-78.9721 76.1595L-77.2983 76.1157L-77.3058 75.8278L-78.9796 75.8716ZM-78.1133 76.9746L-37.4232 75.909L-37.4671 74.2352L-78.1571 75.3007L-78.1133 76.9746ZM-37.4232 75.909C-37.2524 75.9046 -36.8659 75.9067 -36.4779 75.6998L-37.2657 74.2223C-37.258 74.2182 -37.2578 74.221 -37.2831 74.2248C-37.2975 74.227 -37.3181 74.2292 -37.3493 74.231C-37.382 74.2329 -37.4169 74.2339 -37.4671 74.2352L-37.4232 75.909ZM-36.4779 75.6998C-36.1247 75.5115 -35.957 75.1929 -35.8705 74.9689C-35.7824 74.7408 -35.7285 74.4777 -35.6856 74.23L-37.3356 73.9447C-37.3548 74.0561 -37.3726 74.1461 -37.3901 74.2195C-37.4078 74.2938 -37.4224 74.3395 -37.4324 74.3655C-37.4429 74.3926 -37.4418 74.381 -37.4202 74.3518C-37.3956 74.3186 -37.3462 74.2652 -37.2657 74.2223L-36.4779 75.6998ZM-35.6765 74.1597L-34.7913 63.957L-36.4594 63.8123L-37.3447 74.015L-35.6765 74.1597ZM-35.6473 63.0477L-36.0311 63.0578L-35.9873 64.7316L-35.6034 64.7216L-35.6473 63.0477ZM-36.8282 63.7207C-37.328 66.073 -38.0201 67.9277 -38.7946 69.2987L-37.3368 70.1223C-36.4593 68.5691 -35.7164 66.5449 -35.1903 64.0687L-36.8282 63.7207ZM-38.7946 69.2987C-39.5562 70.6469 -40.4869 71.6208 -41.6774 72.3431L-40.8089 73.7746C-39.3525 72.8911 -38.2272 71.6984 -37.3368 70.1223L-38.7946 69.2987ZM-41.6774 72.3431C-42.8889 73.0781 -44.2981 73.5649 -46.0172 73.7915L-45.7984 75.4515C-43.8808 75.1988 -42.2443 74.6455 -40.8089 73.7746L-41.6774 72.3431ZM-46.0172 73.7915C-47.7979 74.0262 -49.9718 74.1785 -52.448 74.2434L-52.4041 75.9172C-49.89 75.8514 -47.6544 75.6962 -45.7984 75.4515L-46.0172 73.7915ZM-52.448 74.2434L-64.5398 74.56L-64.496 76.2338L-52.4041 75.9172L-52.448 74.2434ZM-63.681 75.375L-64.6987 36.5083L-66.3726 36.5522L-65.3548 75.4188L-63.681 75.375ZM-65.5138 37.3672L-59.8517 37.2189L-59.8955 35.545L-65.5576 35.6933L-65.5138 37.3672ZM-59.8517 37.2189C-58.0633 37.1721 -56.7644 37.3304 -55.8639 37.7116L-55.2111 36.1697C-56.447 35.6465 -58.0371 35.4964 -59.8955 35.545L-59.8517 37.2189ZM-55.8639 37.7116C-54.858 38.1374 -54.0999 38.631 -53.6183 39.164L-52.3759 38.0414C-53.0811 37.261 -54.0806 36.6483 -55.2111 36.1697L-55.8639 37.7116ZM-53.6183 39.164C-53.1166 39.7193 -52.761 40.3737 -52.4763 41.1587L-50.9022 40.5878C-51.2385 39.6605 -51.6909 38.7996 -52.3759 38.0414L-53.6183 39.164ZM-52.4763 41.1587C-52.1828 41.9678 -51.9779 42.7849 -51.7619 43.6497L-50.1374 43.2438C-50.3504 42.3913 -50.5746 41.4911 -50.9022 40.5878L-52.4763 41.1587ZM-50.9277 44.2837L-50.7358 44.2787L-50.7796 42.6048L-50.9715 42.6099L-50.9277 44.2837ZM-49.9207 43.4198L-50.3203 28.1611L-51.9942 28.2049L-51.5946 43.4637L-49.9207 43.4198ZM-51.1792 27.3461L-51.3711 27.3511L-51.3273 29.0249L-51.1353 29.0199L-51.1792 27.3461ZM-52.1709 28.0279C-52.3414 28.9028 -52.5033 29.7295 -52.754 30.5529L-51.1522 31.0406C-50.8723 30.1214 -50.6955 29.2107 -50.5274 28.3482L-52.1709 28.0279ZM-52.754 30.5529C-52.9973 31.3517 -53.3181 32.0239 -53.79 32.6046L-52.4907 33.6606C-51.8462 32.8677 -51.4395 31.9842 -51.1522 31.0406L-52.754 30.5529ZM-53.79 32.6046C-54.2431 33.1621 -54.9743 33.6946 -55.9565 34.1725L-55.224 35.6782C-54.1201 35.1411 -53.154 34.4768 -52.4907 33.6606L-53.79 32.6046ZM-55.9565 34.1725C-56.8359 34.6003 -58.1248 34.8265 -59.9131 34.8733L-59.8693 36.5471C-58.0109 36.4985 -56.4308 36.2653 -55.224 35.6782L-55.9565 34.1725ZM-59.9131 34.8733L-65.5752 35.0215L-65.5313 36.6954L-59.8693 36.5471L-59.9131 34.8733ZM-64.7163 35.8366L-65.5532 3.87951L-67.227 3.92334L-66.3902 35.8804L-64.7163 35.8366ZM-66.3682 4.73834L-55.7158 4.4594L-55.7596 2.78556L-66.412 3.0645L-66.3682 4.73834ZM-55.7158 4.4594C-53.4593 4.40031 -51.4851 4.53676 -49.7952 4.77313L-49.5633 3.11486C-51.3433 2.86589 -53.4097 2.72402 -55.7596 2.78556L-55.7158 4.4594ZM-49.7952 4.77314C-48.1351 5.00533 -46.794 5.4216 -45.6445 6.08813L-44.8046 4.63961C-46.1905 3.836 -47.7535 3.36799 -49.5633 3.11486L-49.7952 4.77314ZM-45.6445 6.08813C-44.4687 6.76996 -43.4778 7.62637 -42.6554 8.75032L-41.3041 7.76152C-42.2744 6.43556 -43.4451 5.42792 -44.8046 4.63961L-45.6445 6.08813ZM-42.6554 8.75033C-41.8284 9.88049 -41.1504 11.3099 -40.5406 13.1645L-38.95 12.6415C-39.5924 10.6876 -40.3383 9.08127 -41.3041 7.76152L-42.6554 8.75033ZM-39.7234 13.74L-39.3395 13.7299L-39.3834 12.0561L-39.7672 12.0661L-39.7234 13.74ZM-38.5416 12.7233L-40.3008 4.22245L-41.9404 4.56176L-40.1813 13.0626L-38.5416 12.7233ZM-40.2952 4.25205C-40.3602 3.86866 -40.4567 3.52858 -40.5873 3.25019C-40.7018 3.00592 -40.9084 2.66658 -41.2759 2.4947L-41.9853 4.01144C-42.0839 3.96528 -42.129 3.91013 -42.1329 3.90529C-42.1393 3.89747 -42.1267 3.91128 -42.1032 3.96125C-42.0558 4.06233 -41.9945 4.2463 -41.946 4.53216L-40.2952 4.25205ZM-41.2759 2.49471C-41.5497 2.36664 -41.9708 2.23241 -42.4253 2.24431L-42.3814 3.91816C-42.3275 3.91675 -42.2586 3.92442 -42.181 3.94342C-42.104 3.96226 -42.0348 3.98825 -41.9853 4.01143L-41.2759 2.49471ZM-42.4253 2.24431L-80.2363 3.23443L-80.1925 4.90828L-42.3814 3.91816L-42.4253 2.24431ZM-81.0513 4.09327L-81.0437 4.38117L-79.3699 4.33734L-79.3775 4.04944L-81.0513 4.09327ZM-80.4263 5.16718C-79.5334 5.40977 -78.8677 5.73206 -78.3924 6.10752L-77.3545 4.79358C-78.0559 4.23952 -78.9459 3.83428 -79.9873 3.55133L-80.4263 5.16718ZM-78.3924 6.10752C-78.2378 6.22962 -78.0577 6.45679 -77.8722 6.85353C-77.6886 7.24628 -77.5213 7.75863 -77.3668 8.39772L-75.7393 8.00414C-75.9078 7.30723 -76.1065 6.67677 -76.3553 6.14451C-76.6022 5.61626 -76.9207 5.13624 -77.3545 4.79358L-78.3924 6.10752ZM-77.3668 8.39772C-77.0615 9.66015 -76.8201 11.6109 -76.6545 14.2835L-74.9833 14.18C-75.1504 11.4835 -75.3984 9.41371 -75.7393 8.00414L-77.3668 8.39772ZM-76.6545 14.2835C-76.4893 16.9495 -76.3917 20.6742 -76.2683 25.3834L-74.5945 25.3395C-74.7175 20.644 -74.8158 16.8832 -74.9833 14.18L-76.6545 14.2835ZM-76.2683 25.3834L-75.4994 54.7493L-73.8255 54.7055L-74.5945 25.3395L-76.2683 25.3834ZM-75.4994 54.7493C-75.376 59.4585 -75.2787 63.1831 -75.3041 65.8541L-73.6297 65.8701C-73.604 63.1618 -73.7026 59.401 -73.8255 54.7055L-75.4994 54.7493ZM-75.3041 65.8541C-75.3296 68.5318 -75.4685 70.4925 -75.7073 71.7692L-74.0615 72.077C-73.7948 70.6515 -73.6555 68.5716 -73.6297 65.8701L-75.3041 65.8541ZM-75.7073 71.7692C-75.9477 73.0544 -76.3546 73.8022 -76.7077 74.1124L-75.6024 75.3702C-74.829 74.6906 -74.3265 73.4939 -74.0615 72.077L-75.7073 71.7692ZM-76.7077 74.1124C-77.1627 74.5122 -77.8106 74.8689 -78.6896 75.1579L-78.1666 76.7486C-77.1414 76.4115 -76.2739 75.9602 -75.6024 75.3702L-76.7077 74.1124ZM-78.1427 76.7403L-77.8573 76.6368L-78.4282 75.0627L-78.7136 75.1662L-78.1427 76.7403ZM-33.338 74.9646L-34.175 74.9865L-34.1531 75.8234L-33.3161 75.8015L-33.338 74.9646ZM-15.2962 74.4921L-15.2743 75.3291L-14.4374 75.3071L-14.4593 74.4702L-15.2962 74.4921ZM-15.3038 74.2042L-14.4669 74.1823L-14.4836 73.5431L-15.1047 73.391L-15.3038 74.2042ZM-17.7331 73.1154L-18.252 73.7724L-17.7331 73.1154ZM-19.051 70.461L-19.8648 70.6578L-19.051 70.461ZM-19.7851 64.4302L-18.9495 64.3784L-19.7851 64.4302ZM-20.5596 38.5216L-20.5815 37.6847L-21.4185 37.7066L-21.3966 38.5435L-20.5596 38.5216ZM-13.6374 38.8205L-13.4384 38.0073L-13.6374 38.8205ZM-10.89 41.0533L-10.1887 40.596L-10.89 41.0533ZM-8.72395 46.7586L-7.91173 46.5556L-8.72395 46.7586ZM-6.32871 57.5476L-7.14726 57.7234L-7.14698 57.7247L-6.32871 57.5476ZM-3.69834 66.3137L-4.46244 66.6559L-3.69834 66.3137ZM-0.294726 71.6024L0.281585 70.9952L-0.294726 71.6024ZM4.09165 74.0805L3.87652 74.8896L4.09165 74.0805ZM14.4485 73.5212L14.8646 74.2477L14.4485 73.5212ZM17.2698 71.2385L17.914 71.7732L18.4142 71.1704L17.8461 70.6312L17.2698 71.2385ZM16.9743 70.9582L17.5506 70.3509L16.8948 69.7286L16.3246 70.4302L16.9743 70.9582ZM15.1912 72.5414L14.7569 71.8256L15.1912 72.5414ZM9.61753 72.3992L9.17151 73.1078L9.61753 72.3992ZM7.23891 69.5805L6.50016 69.9744L7.23891 69.5805ZM5.18137 64.3526L4.37709 64.5851L5.18137 64.3526ZM3.24288 56.3366L2.42164 56.4996L2.42338 56.5079L3.24288 56.3366ZM0.721022 48.0478L1.47981 47.694L0.721022 48.0478ZM-2.87703 42.6681L-2.28013 42.0811L-2.87703 42.6681ZM-7.56638 39.6218L-7.28347 38.8339L-7.56638 39.6218ZM-13.3571 38.525L-13.3372 37.6881L-13.411 39.3605L-13.3571 38.525ZM-11.4352 38.5707L-11.4551 39.4077L-11.4342 39.4082L-11.4133 39.4077L-11.4352 38.5707ZM-2.73237 37.1905L-2.97605 36.3895L-2.73237 37.1905ZM4.47068 33.5447L3.96069 32.8807L4.47068 33.5447ZM9.30765 27.56L8.55503 27.1933L8.55503 27.1933L9.30765 27.56ZM4.33278 6.27492L3.89446 6.98822L4.33278 6.27492ZM-35.1193 3.27463L-35.1412 2.43771L-35.9781 2.45962L-35.9562 3.29654L-35.1193 3.27463ZM-35.1118 3.56253L-35.9487 3.58445L-35.9323 4.20715L-35.3312 4.37046L-35.1118 3.56253ZM-32.7784 4.65382L-33.2973 5.3108L-32.7784 4.65382ZM-31.4579 7.4042L-32.2717 7.60099L-31.4579 7.4042ZM-30.7238 13.4351L-31.5594 13.4868L-30.7238 13.4351ZM-29.3718 65.0654L-30.209 65.0574L-29.3718 65.0654ZM-29.7893 71.1264L-30.6122 70.9724L-29.7893 71.1264ZM-31.06 73.9446L-31.6126 73.3157L-31.06 73.9446ZM-33.333 75.1565L-34.1699 75.1784L-34.1405 76.3033L-33.0715 75.9518L-33.333 75.1565ZM-21.3809 3.49107L-21.4028 2.65415L-22.2374 2.67601L-22.2179 3.5107L-21.3809 3.49107ZM-7.34206 4.17982L-7.57493 4.98399L-7.57493 4.98399L-7.34206 4.17982ZM-2.26884 7.21606L-2.88696 7.78075L-2.88696 7.78075L-2.26884 7.21606ZM-1.29238 33.5035L-0.599984 33.9742L-1.29238 33.5035ZM-20.5571 38.6175L-21.3941 38.6372L-21.3744 39.4764L-20.5352 39.4545L-20.5571 38.6175ZM-34.1825 74.6986L-34.175 74.9865L-32.5011 74.9427L-32.5087 74.6548L-34.1825 74.6986ZM-33.3161 75.8015L-15.2743 75.3291L-15.3181 73.6552L-33.3599 74.1276L-33.3161 75.8015ZM-14.4593 74.4702L-14.4669 74.1823L-16.1407 74.2261L-16.1331 74.514L-14.4593 74.4702ZM-15.1047 73.391C-16.0857 73.1509 -16.7443 72.8296 -17.2142 72.4585L-18.252 73.7724C-17.5452 74.3308 -16.6482 74.737 -15.5028 75.0174L-15.1047 73.391ZM-17.2142 72.4585C-17.5682 72.1788 -17.9218 71.5687 -18.2373 70.2642L-19.8648 70.6578C-19.5341 72.0254 -19.0747 73.1226 -18.252 73.7724L-17.2142 72.4585ZM-18.2373 70.2642C-18.5426 69.0018 -18.7839 67.0511 -18.9495 64.3784L-20.6208 64.482C-20.4537 67.1785 -20.2057 69.2483 -19.8648 70.6578L-18.2373 70.2642ZM-18.9495 64.3784C-19.1147 61.7124 -19.2124 57.9878 -19.3357 53.2786L-21.0096 53.3224C-20.8866 58.018 -20.7882 61.7788 -20.6208 64.482L-18.9495 64.3784ZM-19.3357 53.2786L-19.7227 38.4997L-21.3966 38.5435L-21.0096 53.3224L-19.3357 53.2786ZM-20.5377 39.3585L-18.1385 39.2957L-18.1824 37.6218L-20.5815 37.6847L-20.5377 39.3585ZM-18.1385 39.2957C-16.2662 39.2467 -14.8049 39.3966 -13.8365 39.6337L-13.4384 38.0073C-14.5963 37.7238 -16.2161 37.5703 -18.1824 37.6218L-18.1385 39.2957ZM-13.8365 39.6337C-13.0545 39.8251 -12.3258 40.3843 -11.5913 41.5106L-10.1887 40.596C-11.0551 39.2674 -12.094 38.3364 -13.4384 38.0073L-13.8365 39.6337ZM-11.5913 41.5106C-10.8674 42.6207 -10.1725 44.415 -9.53618 46.9615L-7.91173 46.5556C-8.56273 43.9501 -9.31185 41.9409 -10.1887 40.596L-11.5913 41.5106ZM-9.53618 46.9615C-8.8969 49.5201 -8.13356 53.1303 -7.14726 57.7234L-5.51015 57.3718C-6.49251 52.7972 -7.26372 49.1491 -7.91173 46.5556L-9.53618 46.9615ZM-7.14698 57.7247C-6.37772 61.2787 -5.51753 64.2994 -4.46244 66.6559L-2.93421 65.9716C-3.9191 63.7719 -4.7502 60.8828 -5.51046 57.3705L-7.14698 57.7247ZM-4.46244 66.6559C-3.42376 68.9757 -2.26644 70.8855 -0.871037 72.2097L0.281585 70.9952C-0.883498 69.8895 -1.93294 68.2079 -2.93421 65.9716L-4.46244 66.6559ZM-0.871037 72.2097C0.506864 73.5173 2.09194 74.4151 3.87652 74.8896L4.30678 73.2714C2.80331 72.8716 1.46417 72.1174 0.281585 70.9952L-0.871037 72.2097ZM3.87652 74.8896C5.59703 75.347 7.50773 75.5968 9.60378 75.5419L9.55995 73.868C7.6254 73.9187 5.87429 73.6881 4.30678 73.2714L3.87652 74.8896ZM9.60378 75.5419C11.7212 75.4864 13.4864 75.037 14.8646 74.2477L14.0325 72.7947C12.9508 73.4142 11.4731 73.8179 9.55995 73.868L9.60378 75.5419ZM14.8646 74.2477C16.1676 73.5014 17.1889 72.6471 17.914 71.7732L16.6255 70.7039C16.0473 71.4007 15.1894 72.132 14.0325 72.7947L14.8646 74.2477ZM17.8461 70.6312L17.5506 70.3509L16.398 71.5655L16.6935 71.8458L17.8461 70.6312ZM16.3246 70.4302C15.8211 71.0497 15.329 71.4785 14.7569 71.8256L15.6254 73.2572C16.3767 72.8013 17.0111 72.2403 17.624 71.4862L16.3246 70.4302ZM14.7569 71.8256C14.2617 72.126 13.5618 72.3228 12.4972 72.3506L12.5411 74.0245C13.7798 73.992 14.7972 73.7597 15.6254 73.2572L14.7569 71.8256ZM12.4972 72.3506C11.6038 72.374 10.7999 72.1543 10.0635 71.6907L9.17151 73.1078C10.1927 73.7506 11.3232 74.0564 12.5411 74.0245L12.4972 72.3506ZM10.0635 71.6907C9.3511 71.2423 8.64483 70.4379 7.9777 69.1867L6.50016 69.9744C7.24692 71.3751 8.1264 72.4499 9.17151 73.1078L10.0635 71.6907ZM7.9777 69.1867C7.3008 67.9171 6.60474 66.2621 5.98565 64.1201L4.37709 64.5851C5.02522 66.8275 5.76316 68.5921 6.50016 69.9744L7.9777 69.1867ZM5.98565 64.1201C5.35972 61.9545 4.71841 59.3042 4.06238 56.1653L2.42338 56.5079C3.08482 59.6727 3.73582 62.3664 4.37709 64.5851L5.98565 64.1201ZM4.06406 56.1736C3.39216 52.7889 2.53469 49.9563 1.47981 47.694L-0.0377382 48.4016C0.942302 50.5035 1.76605 53.1968 2.4217 56.4996L4.06406 56.1736ZM1.47981 47.694C0.430687 45.444 -0.819052 43.5666 -2.28013 42.0811L-3.47389 43.2552C-2.17252 44.5783 -1.02357 46.2873 -0.0377382 48.4016L1.47981 47.694ZM-2.28013 42.0811C-3.74397 40.5928 -5.41271 39.5056 -7.28347 38.8339L-7.84929 40.4098C-6.23006 40.9912 -4.77254 41.9349 -3.47389 43.2552L-2.28013 42.0811ZM-7.28347 38.8339C-9.12317 38.1733 -11.1345 37.8296 -13.3031 37.6896L-13.411 39.3605C-11.347 39.4938 -9.49958 39.8173 -7.84929 40.4098L-7.28347 38.8339ZM-13.377 39.362L-11.4551 39.4077L-11.4153 37.7338L-13.3372 37.6881L-13.377 39.362ZM-11.4133 39.4077C-8.2707 39.3254 -5.3269 38.8549 -2.48867 37.9914L-2.97605 36.3895C-5.66369 37.2072 -8.45785 37.6553 -11.4571 37.7338L-11.4133 39.4077ZM-2.48867 37.9914C0.364679 37.1233 2.82506 35.8643 4.98064 34.2086L3.96069 32.8807C1.97417 34.4065 -0.303516 35.5764 -2.97605 36.3895L-2.48867 37.9914ZM4.98064 34.2086C7.1592 32.5353 8.82143 30.4696 10.0603 27.9267L8.55503 27.1933C7.42441 29.514 5.92427 31.3725 3.96069 32.8807L4.98064 34.2086ZM10.0603 27.9267C11.317 25.3471 11.8349 22.4092 11.7493 19.1412L10.0755 19.185C10.1558 22.2509 9.66783 24.9092 8.55503 27.1933L10.0603 27.9267ZM11.7493 19.1412C11.5853 12.8769 9.25961 8.31981 4.77111 5.56162L3.89446 6.98822C7.79983 9.38807 9.9229 13.3575 10.0755 19.185L11.7493 19.1412ZM4.77111 5.56162C0.369948 2.85712 -6.09733 1.67717 -14.5083 1.89741L-14.4644 3.57126C-6.17708 3.35425 -0.0982613 4.53469 3.89446 6.98822L4.77111 5.56162ZM-14.5083 1.89741L-35.1412 2.43771L-35.0974 4.11155L-14.4644 3.57126L-14.5083 1.89741ZM-35.9562 3.29654L-35.9487 3.58445L-34.2748 3.54062L-34.2824 3.25271L-35.9562 3.29654ZM-35.3312 4.37046C-34.4383 4.61305 -33.7727 4.93533 -33.2973 5.3108L-32.2594 3.99685C-32.9608 3.4428 -33.8508 3.03755 -34.8923 2.75461L-35.3312 4.37046ZM-33.2973 5.3108C-33.1427 5.4329 -32.9626 5.66006 -32.7771 6.05681C-32.5935 6.44955 -32.4262 6.9619 -32.2717 7.60099L-30.6442 7.20742C-30.8127 6.51051 -31.0114 5.88004 -31.2602 5.34779C-31.5071 4.81953 -31.8256 4.33951 -32.2594 3.99685L-33.2973 5.3108ZM-32.2717 7.60099C-31.9664 8.86342 -31.725 10.8142 -31.5594 13.4868L-29.8882 13.3833C-30.0553 10.6868 -30.3033 8.61699 -30.6442 7.20742L-32.2717 7.60099ZM-31.5594 13.4868C-31.3942 16.1528 -31.2966 19.8774 -31.1732 24.5866L-29.4994 24.5428C-29.6224 19.8472 -29.7207 16.0864 -29.8882 13.3833L-31.5594 13.4868ZM-31.1732 24.5866L-30.4043 53.9526L-28.7304 53.9087L-29.4994 24.5428L-31.1732 24.5866ZM-30.4043 53.9526C-30.281 58.6618 -30.1835 62.3864 -30.209 65.0574L-28.5346 65.0733C-28.5089 62.3651 -28.6075 58.6043 -28.7304 53.9087L-30.4043 53.9526ZM-30.209 65.0574C-30.2345 67.735 -30.3734 69.6958 -30.6122 70.9724L-28.9664 71.2803C-28.6997 69.8548 -28.5604 67.7749 -28.5346 65.0733L-30.209 65.0574ZM-30.6122 70.9724C-30.8527 72.2577 -31.2595 73.0055 -31.6126 73.3157L-30.5073 74.5735C-29.7339 73.8939 -29.2314 72.6972 -28.9664 71.2803L-30.6122 70.9724ZM-31.6126 73.3157C-32.0676 73.7155 -32.7155 74.0722 -33.5945 74.3612L-33.0715 75.9518C-32.0463 75.6148 -31.1788 75.1635 -30.5073 74.5735L-31.6126 73.3157ZM-32.4961 75.1346L-32.5087 74.6548L-34.1825 74.6986L-34.1699 75.1784L-32.4961 75.1346ZM-21.359 4.328L-14.9292 4.15963L-14.973 2.48578L-21.4028 2.65415L-21.359 4.328ZM-14.9292 4.15963C-12.0261 4.08361 -9.60841 4.39512 -7.57493 4.98399L-7.10918 3.37565C-9.33344 2.73154 -11.9262 2.406 -14.973 2.48578L-14.9292 4.15963ZM-7.57493 4.98399C-5.57726 5.56248 -4.05708 6.49993 -2.88696 7.78075L-1.65075 6.65137C-3.05115 5.11851 -4.84915 4.03012 -7.10918 3.37565L-7.57493 4.98399ZM-2.88696 7.78075C-1.6964 9.08391 -0.748159 10.7653 -0.146832 12.8458L1.46173 12.3808C0.795843 10.0769 -0.270767 8.16187 -1.65075 6.65137L-2.88696 7.78075ZM-0.146832 12.8458C0.461212 14.9496 0.81363 17.5541 0.89281 20.5779L2.56664 20.534C2.48499 17.4159 2.12086 14.6614 1.46173 12.3808L-0.146832 12.8458ZM0.89281 20.5779C1.03329 25.9424 0.010422 30.0977 -1.98478 33.0328L-0.599984 33.9742C1.65846 30.6518 2.71265 26.1097 2.56664 20.534L0.89281 20.5779ZM-1.98478 33.0328C-3.91093 35.8664 -7.21584 37.4307 -12.1339 37.5595L-12.0901 39.2333C-6.83567 39.0957 -2.92747 37.3981 -0.599984 33.9742L-1.98478 33.0328ZM-12.1339 37.5595L-20.579 37.7806L-20.5352 39.4545L-12.0901 39.2333L-12.1339 37.5595ZM-19.7201 38.5979L-20.5439 3.47144L-22.2179 3.5107L-21.3941 38.6372L-19.7201 38.5979ZM16.6998 73.3662L17.5367 73.3443L15.9414 73.0115L16.6998 73.3662ZM16.7073 73.6541L15.8704 73.676L15.8923 74.5129L16.7292 74.491L16.7073 73.6541ZM34.6532 73.1842L34.6751 74.0211L35.512 73.9992L35.4901 73.1622L34.6532 73.1842ZM34.6456 72.8963L35.4825 72.8743L35.4658 72.2351L34.8447 72.0831L34.6456 72.8963ZM32.2163 71.8075L31.6973 72.4645L32.2163 71.8075ZM30.8983 69.1531L31.7121 68.9563L30.8983 69.1531ZM30.1642 63.1222L29.3286 63.174L30.1642 63.1222ZM28.8122 11.4919L27.9751 11.4839L28.8122 11.4919ZM29.2297 5.43091L30.0527 5.58484L30.0527 5.58484L29.2297 5.43091ZM32.776 1.49673L33.0173 2.2984L33.6296 2.11405L33.6129 1.47481L32.776 1.49673ZM32.7684 1.20883L33.6053 1.18691L33.5834 0.349988L32.7465 0.371904L32.7684 1.20883ZM14.8226 1.67876L14.8007 0.841833L13.9637 0.863749L13.9856 1.70067L14.8226 1.67876ZM14.8301 1.96666L13.9932 1.98857L14.0095 2.61127L14.6106 2.77458L14.8301 1.96666ZM19.218 11.8392L20.0536 11.7874L19.218 11.8392ZM20.57 63.4695L21.4072 63.4775L20.57 63.4695ZM20.1526 69.5305L19.3296 69.3766L20.1526 69.5305ZM18.8819 72.3487L18.3293 71.7198L18.8819 72.3487ZM16.6088 73.5606L15.8505 73.206L15.0296 74.9611L16.8703 74.356L16.6088 73.5606ZM15.8628 73.3881L15.8704 73.676L17.5442 73.6322L17.5367 73.3443L15.8628 73.3881ZM16.7292 74.491L34.6751 74.0211L34.6312 72.3472L16.6854 72.8172L16.7292 74.491ZM35.4901 73.1622L35.4825 72.8743L33.8087 72.9182L33.8162 73.2061L35.4901 73.1622ZM34.8447 72.0831C33.8637 71.8429 33.2051 71.5217 32.7352 71.1505L31.6973 72.4645C32.4042 73.0228 33.3012 73.4291 34.4466 73.7095L34.8447 72.0831ZM32.7352 71.1505C32.3812 70.8708 32.0275 70.2607 31.7121 68.9563L30.0846 69.3499C30.4153 70.7175 30.8747 71.8146 31.6973 72.4645L32.7352 71.1505ZM31.7121 68.9563C31.4068 67.6938 31.1654 65.7431 30.9998 63.0704L29.3286 63.174C29.4957 65.8705 29.7437 67.9403 30.0846 69.3499L31.7121 68.9563ZM30.9998 63.0704C30.8346 60.4045 30.737 56.6798 30.6137 51.9706L28.9398 52.0145C29.0628 56.71 29.1611 60.4708 29.3286 63.174L30.9998 63.0704ZM30.6137 51.9706L29.8447 22.6047L28.1708 22.6485L28.9398 52.0145L30.6137 51.9706ZM29.8447 22.6047C29.7214 17.8955 29.624 14.1708 29.6494 11.4999L27.9751 11.4839C27.9493 14.1922 28.0479 17.953 28.1708 22.6485L29.8447 22.6047ZM29.6494 11.4999C29.6749 8.82224 29.8138 6.86152 30.0527 5.58484L28.4068 5.27698C28.1402 6.70246 28.0008 8.7824 27.9751 11.4839L29.6494 11.4999ZM30.0527 5.58484C30.2994 4.26571 30.6206 3.63792 30.9595 3.34008L29.8543 2.08225C29.0668 2.77424 28.6655 3.89395 28.4068 5.27698L30.0527 5.58484ZM30.9595 3.34008C31.4094 2.94483 32.0503 2.58954 33.0173 2.2984L32.5346 0.695064C31.4055 1.03501 30.531 1.48767 29.8543 2.08225L30.9595 3.34008ZM33.6129 1.47481L33.6053 1.18691L31.9315 1.23074L31.939 1.51865L33.6129 1.47481ZM32.7465 0.371904L14.8007 0.841833L14.8445 2.51568L32.7903 2.04575L32.7465 0.371904ZM13.9856 1.70067L13.9932 1.98857L15.667 1.94474L15.6595 1.65684L13.9856 1.70067ZM14.6106 2.77458C15.5035 3.01718 16.1692 3.33946 16.6445 3.71493L17.6824 2.40098C16.981 1.84693 16.0911 1.44169 15.0496 1.15874L14.6106 2.77458ZM16.6445 3.71493C16.7991 3.83703 16.9793 4.06419 17.1647 4.46094C17.3483 4.85368 17.5156 5.36603 17.6702 6.00512L19.2977 5.61154C19.1291 4.91463 18.9304 4.28417 18.6816 3.75191C18.4347 3.22366 18.1162 2.74364 17.6824 2.40098L16.6445 3.71493ZM17.6702 6.00512C17.9754 7.26755 18.2168 9.21832 18.3824 11.891L20.0536 11.7874C19.8866 9.09091 19.6385 7.02111 19.2977 5.61154L17.6702 6.00512ZM18.3824 11.891C18.5476 14.5569 18.6453 18.2816 18.7686 22.9908L20.4424 22.9469C20.3195 18.2514 20.2211 14.4906 20.0536 11.7874L18.3824 11.891ZM18.7686 22.9908L19.5376 52.3567L21.2114 52.3129L20.4424 22.9469L18.7686 22.9908ZM19.5376 52.3567C19.6609 57.0659 19.7583 60.7905 19.7329 63.4615L21.4072 63.4775C21.433 60.7692 21.3344 57.0084 21.2114 52.3129L19.5376 52.3567ZM19.7329 63.4615C19.7074 66.1392 19.5684 68.0999 19.3296 69.3766L20.9755 69.6844C21.2421 68.2589 21.3815 66.179 21.4072 63.4775L19.7329 63.4615ZM19.3296 69.3766C19.0892 70.6618 18.6823 71.4096 18.3293 71.7198L19.4345 72.9776C20.2079 72.298 20.7104 71.1013 20.9755 69.6844L19.3296 69.3766ZM18.3293 71.7198C17.8742 72.1196 17.2264 72.4763 16.3473 72.7653L16.8703 74.356C17.8956 74.0189 18.763 73.5676 19.4345 72.9776L18.3293 71.7198ZM17.3672 73.9153L17.4581 73.7209L15.9414 73.0115L15.8505 73.206L17.3672 73.9153ZM36.9428 72.8361L37.7797 72.8142L37.7493 71.653L36.6574 72.0491L36.9428 72.8361ZM36.9504 73.124L36.1134 73.1459L36.1354 73.9828L36.9723 73.9609L36.9504 73.124ZM78.575 71.0737L79.3999 71.2163L79.406 71.1814L79.409 71.1461L78.575 71.0737ZM79.4602 60.871L80.2943 60.9434L80.3753 60.0096L79.4383 60.0341L79.4602 60.871ZM79.0763 60.8811L79.0544 60.0442L78.3946 60.0614L78.2574 60.7071L79.0763 60.8811ZM73.8424 70.0452L73.4082 69.3294L73.4082 69.3295L73.8424 70.0452ZM69.1777 71.6079L69.2871 72.4379L69.1777 71.6079ZM50.5676 72.3833L49.7307 72.4052L49.7526 73.2421L50.5896 73.2202L50.5676 72.3833ZM49.5499 33.5166L49.528 32.6797L48.691 32.7016L48.7129 33.5385L49.5499 33.5166ZM62.0884 35.5891L61.4673 36.1504L62.0884 35.5891ZM63.3963 37.8596L64.1834 37.5742L64.1834 37.5742L63.3963 37.8596ZM64.1359 40.4332L63.3237 40.6361L63.4865 41.2877L64.1578 41.2701L64.1359 40.4332ZM64.3279 40.4281L64.3498 41.2651L65.1867 41.2431L65.1648 40.4062L64.3279 40.4281ZM63.9283 25.1694L64.7652 25.1475L64.7433 24.3105L63.9064 24.3324L63.9283 25.1694ZM63.7364 25.1744L63.7144 24.3375L63.0431 24.3551L62.9146 25.0142L63.7364 25.1744ZM63.1324 27.7831L63.9334 28.027L63.9334 28.027L63.1324 27.7831ZM61.9452 30.119L61.2955 29.591L61.2955 29.591L61.9452 30.119ZM59.4953 31.9117L59.8616 32.6646L59.4953 31.9117ZM49.5323 32.8448L48.6954 32.8668L48.7173 33.7037L49.5542 33.6818L49.5323 32.8448ZM48.6955 0.8878L48.6735 0.0508772L47.8366 0.0727931L47.8585 0.909716L48.6955 0.8878ZM65.4063 0.930375L65.2903 1.75951L65.2903 1.75951L65.4063 0.930375ZM69.861 2.35025L69.441 3.07451L69.441 3.07451L69.861 2.35025ZM73.1058 5.2423L72.4302 5.7367L72.4302 5.73671L73.1058 5.2423ZM75.3402 9.88941L74.5449 10.1509L74.7395 10.7426L75.3621 10.7263L75.3402 9.88941ZM75.7241 9.87936L75.746 10.7163L76.7468 10.6901L76.5439 9.7097L75.7241 9.87936ZM73.965 1.37849L73.1396 1.51854L73.1421 1.53339L73.1451 1.54814L73.965 1.37849ZM73.455 0.239449L73.1003 0.99781L73.1003 0.997819L73.455 0.239449ZM34.8712 1.05773L34.8493 0.22081L34.0124 0.242725L34.0343 1.07965L34.8712 1.05773ZM34.8787 1.34564L34.0418 1.36755L34.0581 1.99025L34.6592 2.15356L34.8787 1.34564ZM37.2121 2.43693L37.731 1.77996L37.731 1.77995L37.2121 2.43693ZM39.2667 11.2182L40.1023 11.1664L39.2667 11.2182ZM40.6187 62.8485L41.4558 62.8564L40.6187 62.8485ZM40.2011 68.9095L41.0241 69.0634L40.2011 68.9095ZM38.9305 71.7277L38.3779 71.0988L38.9305 71.7277ZM36.6575 72.9396L36.372 72.1526L36.9189 73.7349L36.6575 72.9396ZM36.1059 72.858L36.1134 73.1459L37.7873 73.1021L37.7797 72.8142L36.1059 72.858ZM36.9723 73.9609L77.6623 72.8954L77.6185 71.2216L36.9285 72.2871L36.9723 73.9609ZM77.6623 72.8954C77.8332 72.891 78.2197 72.8931 78.6076 72.6862L77.8198 71.2087C77.8275 71.2046 77.8278 71.2074 77.8025 71.2112C77.788 71.2134 77.7675 71.2156 77.7363 71.2174C77.7036 71.2193 77.6687 71.2203 77.6185 71.2216L77.6623 72.8954ZM78.6076 72.6862C78.9609 72.4979 79.1285 72.1793 79.2151 71.9552C79.3032 71.7272 79.3571 71.4641 79.3999 71.2163L77.75 70.9311C77.7307 71.0425 77.7129 71.1325 77.6955 71.2058C77.6778 71.2802 77.6632 71.3259 77.6531 71.3519C77.6427 71.3789 77.6438 71.3673 77.6653 71.3382C77.6899 71.305 77.7394 71.2516 77.8198 71.2087L78.6076 72.6862ZM79.409 71.1461L80.2943 60.9434L78.6261 60.7987L77.7409 71.0013L79.409 71.1461ZM79.4383 60.0341L79.0544 60.0442L79.0982 61.718L79.4821 61.708L79.4383 60.0341ZM78.2574 60.7071C77.7576 63.0594 77.0654 64.9141 76.2909 66.2851L77.7488 67.1087C78.6263 65.5554 79.3691 63.5313 79.8953 61.0551L78.2574 60.7071ZM76.2909 66.2851C75.5293 67.6332 74.5987 68.6072 73.4082 69.3294L74.2767 70.761C75.733 69.8774 76.8584 68.6848 77.7488 67.1087L76.2909 66.2851ZM73.4082 69.3295C72.1967 70.0645 70.7874 70.5512 69.0683 70.7778L69.2871 72.4379C71.2047 72.1851 72.8413 71.6318 74.2767 70.761L73.4082 69.3295ZM69.0683 70.7778C67.2877 71.0126 65.1138 71.1649 62.6376 71.2297L62.6814 72.9036C65.1955 72.8377 67.4311 72.6826 69.2871 72.4379L69.0683 70.7778ZM62.6376 71.2297L50.5457 71.5464L50.5896 73.2202L62.6814 72.9036L62.6376 71.2297ZM51.4046 72.3614L50.3868 33.4947L48.7129 33.5385L49.7307 72.4052L51.4046 72.3614ZM49.5718 34.3535L55.2339 34.2053L55.19 32.5314L49.528 32.6797L49.5718 34.3535ZM55.2339 34.2053C57.0222 34.1584 58.3212 34.3168 59.2217 34.698L59.8744 33.1561C58.6385 32.6329 57.0484 32.4828 55.19 32.5314L55.2339 34.2053ZM59.2217 34.698C60.2276 35.1238 60.9856 35.6174 61.4673 36.1504L62.7096 35.0278C62.0045 34.2474 61.0049 33.6346 59.8744 33.1561L59.2217 34.698ZM61.4673 36.1504C61.969 36.7056 62.3245 37.3601 62.6093 38.1451L64.1834 37.5742C63.847 36.6469 63.3947 35.786 62.7096 35.0278L61.4673 36.1504ZM62.6093 38.1451C62.9027 38.9542 63.1076 39.7713 63.3237 40.6361L64.9482 40.2302C64.7351 39.3777 64.5109 38.4774 64.1834 37.5742L62.6093 38.1451ZM64.1578 41.2701L64.3498 41.2651L64.306 39.5912L64.114 39.5962L64.1578 41.2701ZM65.1648 40.4062L64.7652 25.1475L63.0914 25.1913L63.4909 40.4501L65.1648 40.4062ZM63.9064 24.3324L63.7144 24.3375L63.7583 26.0113L63.9502 26.0063L63.9064 24.3324ZM62.9146 25.0142C62.7441 25.8892 62.5823 26.7159 62.3315 27.5392L63.9334 28.027C64.2132 27.1078 64.39 26.1971 64.5581 25.3346L62.9146 25.0142ZM62.3315 27.5392C62.0883 28.3381 61.7675 29.0102 61.2955 29.591L62.5949 30.647C63.2394 29.854 63.646 28.9706 63.9334 28.027L62.3315 27.5392ZM61.2955 29.591C60.8424 30.1484 60.1112 30.681 59.129 31.1589L59.8616 32.6646C60.9655 32.1275 61.9316 31.4632 62.5949 30.647L61.2955 29.591ZM59.129 31.1589C58.2497 31.5867 56.9608 31.8128 55.1724 31.8597L55.2163 33.5335C57.0747 33.4848 58.6547 33.2517 59.8616 32.6646L59.129 31.1589ZM55.1724 31.8597L49.5104 32.0079L49.5542 33.6818L55.2163 33.5335L55.1724 31.8597ZM50.3692 32.8229L49.5324 0.865884L47.8585 0.909716L48.6954 32.8668L50.3692 32.8229ZM48.7174 1.72472L59.3697 1.44578L59.3259 -0.228064L48.6735 0.0508772L48.7174 1.72472ZM59.3697 1.44578C61.6262 1.38669 63.6004 1.52314 65.2903 1.75951L65.5223 0.101237C63.7423 -0.147732 61.6758 -0.2896 59.3259 -0.228064L59.3697 1.44578ZM65.2903 1.75951C66.9504 1.99171 68.2916 2.40798 69.441 3.07451L70.281 1.62599C68.8951 0.822379 67.3321 0.354368 65.5223 0.101237L65.2903 1.75951ZM69.441 3.07451C70.6169 3.75633 71.6077 4.61275 72.4302 5.7367L73.7815 4.7479C72.8112 3.42194 71.6405 2.4143 70.281 1.62599L69.441 3.07451ZM72.4302 5.73671C73.2572 6.86687 73.9352 8.29627 74.5449 10.1509L76.1356 9.62793C75.4932 7.67401 74.7472 6.06765 73.7815 4.7479L72.4302 5.73671ZM75.3621 10.7263L75.746 10.7163L75.7022 9.04243L75.3183 9.05248L75.3621 10.7263ZM76.5439 9.7097L74.7848 1.20883L73.1451 1.54814L74.9042 10.049L76.5439 9.7097ZM74.7904 1.23843C74.7253 0.855038 74.6289 0.514957 74.4983 0.236568C74.3837 -0.00770535 74.1772 -0.347036 73.8097 -0.51892L73.1003 0.997819C73.0016 0.951654 72.9566 0.896513 72.9526 0.891673C72.9463 0.883846 72.9589 0.897654 72.9823 0.947632C73.0298 1.04871 73.0911 1.23268 73.1396 1.51854L74.7904 1.23843ZM73.8097 -0.518911C73.5358 -0.646982 73.1147 -0.781207 72.6603 -0.769307L72.7041 0.904539C72.758 0.903127 72.827 0.910801 72.9046 0.9298C72.9815 0.948636 73.0507 0.97463 73.1003 0.99781L73.8097 -0.518911ZM72.6603 -0.769307L34.8493 0.22081L34.8931 1.89466L72.7041 0.904539L72.6603 -0.769307ZM34.0343 1.07965L34.0418 1.36755L35.7156 1.32372L35.7081 1.03582L34.0343 1.07965ZM34.6592 2.15356C35.5522 2.39615 36.2178 2.71844 36.6931 3.0939L37.731 1.77995C37.0296 1.2259 36.1397 0.820657 35.0982 0.537711L34.6592 2.15356ZM36.6931 3.09389C36.8477 3.216 37.0279 3.44317 37.2134 3.83991C37.3969 4.23266 37.5642 4.74501 37.7188 5.3841L39.3463 4.99052C39.1777 4.29361 38.979 3.66315 38.7302 3.13089C38.4833 2.60264 38.1648 2.12262 37.731 1.77996L36.6931 3.09389ZM37.7188 5.3841C38.0241 6.64652 38.2655 8.59729 38.431 11.2699L40.1023 11.1664C39.9352 8.46989 39.6872 6.40009 39.3463 4.99052L37.7188 5.3841ZM38.431 11.2699C38.5962 13.9359 38.6939 17.6605 38.8172 22.3697L40.491 22.3259C40.3681 17.6303 40.2697 13.8695 40.1023 11.1664L38.431 11.2699ZM38.8172 22.3697L39.5862 51.7357L41.26 51.6918L40.491 22.3259L38.8172 22.3697ZM39.5862 51.7357C39.7095 56.4449 39.8069 60.1695 39.7815 62.8405L41.4558 62.8564C41.4816 60.1482 41.383 56.3874 41.26 51.6918L39.5862 51.7357ZM39.7815 62.8405C39.756 65.5181 39.617 67.4789 39.3782 68.7555L41.0241 69.0634C41.2907 67.6379 41.4301 65.558 41.4558 62.8564L39.7815 62.8405ZM39.3782 68.7555C39.1378 70.0408 38.7309 70.7886 38.3779 71.0988L39.4831 72.3566C40.2566 71.677 40.7591 70.4803 41.0241 69.0634L39.3782 68.7555ZM38.3779 71.0988C37.9228 71.4986 37.275 71.8553 36.396 72.1443L36.9189 73.7349C37.9441 73.3979 38.8117 72.9466 39.4831 72.3566L38.3779 71.0988ZM36.9429 73.7267L37.2283 73.6232L36.6574 72.0491L36.372 72.1526L36.9429 73.7267Z" fill="#580300"/>
</g>
</svg>
