<svg width="26" height="43" viewBox="0 0 26 43" fill="none" xmlns="http://www.w3.org/2000/svg">
<g style="mix-blend-mode:darken">
<path d="M-206.251 42.8235L-205.414 42.8016L-207.009 42.4688L-206.251 42.8235ZM-206.247 42.9675L-207.084 42.9894L-207.062 43.8263L-206.225 43.8044L-206.247 42.9675ZM-197.274 42.7325L-197.252 43.5694L-196.415 43.5475L-196.437 42.7106L-197.274 42.7325ZM-197.278 42.5886L-196.441 42.5666L-196.458 41.9274L-197.079 41.7754L-197.278 42.5886ZM-198.493 42.0442L-199.012 42.7011L-198.493 42.0442ZM-199.152 40.717L-198.338 40.5202L-198.338 40.5202L-199.152 40.717ZM-199.519 37.7015L-200.354 37.7533L-199.519 37.7015ZM-200.195 11.8864L-201.032 11.8784L-201.032 11.8784L-200.195 11.8864ZM-199.986 8.85588L-199.163 9.00981L-199.163 9.00981L-199.986 8.85588ZM-198.213 6.88879L-197.971 7.69045L-197.359 7.50611L-197.376 6.86687L-198.213 6.88879ZM-198.217 6.74484L-197.38 6.72292L-197.402 5.886L-198.238 5.90791L-198.217 6.74484ZM-207.189 6.9798L-207.211 6.14288L-208.048 6.16479L-208.026 7.00172L-207.189 6.9798ZM-207.186 7.12375L-208.023 7.14567L-208.006 7.76836L-207.405 7.93168L-207.186 7.12375ZM-204.992 12.06L-204.156 12.0082L-204.992 12.06ZM-204.316 37.8752L-203.479 37.8831L-204.316 37.8752ZM-204.524 40.9057L-205.347 40.7517L-204.524 40.9057ZM-205.16 42.3148L-205.712 41.6859L-205.16 42.3148ZM-206.296 42.9207L-207.055 42.5661L-207.876 44.3212L-206.035 43.7161L-206.296 42.9207ZM-207.088 42.8454L-207.084 42.9894L-205.41 42.9456L-205.414 42.8016L-207.088 42.8454ZM-206.225 43.8044L-197.252 43.5694L-197.296 41.8956L-206.269 42.1305L-206.225 43.8044ZM-196.437 42.7106L-196.441 42.5666L-198.115 42.6105L-198.111 42.7544L-196.437 42.7106ZM-197.079 41.7754C-197.528 41.6654 -197.798 41.526 -197.974 41.3872L-199.012 42.7011C-198.599 43.0271 -198.091 43.2515 -197.477 43.4018L-197.079 41.7754ZM-197.974 41.3872C-198.034 41.3399 -198.184 41.1566 -198.338 40.5202L-199.965 40.9137C-199.796 41.6133 -199.54 42.2837 -199.012 42.7011L-197.974 41.3872ZM-198.338 40.5202C-198.482 39.9257 -198.601 38.9801 -198.683 37.6498L-200.354 37.7533C-200.27 39.1075 -200.145 40.1722 -199.965 40.9137L-198.338 40.5202ZM-198.683 37.6498C-198.765 36.3261 -198.814 34.4728 -198.875 32.1148L-200.549 32.1586C-200.488 34.503 -200.439 36.3924 -200.354 37.7533L-198.683 37.6498ZM-198.875 32.1148L-199.26 17.4318L-200.934 17.4756L-200.549 32.1586L-198.875 32.1148ZM-199.26 17.4318C-199.322 15.0738 -199.37 13.2205 -199.357 11.8943L-201.032 11.8784C-201.045 13.2418 -200.995 15.1313 -200.934 17.4756L-199.26 17.4318ZM-199.357 11.8943C-199.345 10.5615 -199.275 9.61095 -199.163 9.00981L-200.809 8.70195C-200.949 9.45189 -201.019 10.5217 -201.032 11.8784L-199.357 11.8943ZM-199.163 9.00981C-199.043 8.36622 -198.902 8.1753 -198.845 8.12492L-199.95 6.86709C-200.456 7.31162 -200.676 7.99446 -200.809 8.70195L-199.163 9.00981ZM-198.845 8.12492C-198.676 7.97713 -198.414 7.82382 -197.971 7.69045L-198.454 6.08712C-199.059 6.2693 -199.555 6.51997 -199.95 6.86709L-198.845 8.12492ZM-197.376 6.86687L-197.38 6.72292L-199.053 6.76675L-199.05 6.9107L-197.376 6.86687ZM-198.238 5.90791L-207.211 6.14288L-207.168 7.81672L-198.195 7.58176L-198.238 5.90791ZM-208.026 7.00172L-208.023 7.14567L-206.349 7.10184L-206.353 6.95789L-208.026 7.00172ZM-207.405 7.93168C-206.996 8.04289 -206.719 8.18329 -206.538 8.32637L-205.5 7.01243C-205.907 6.69075 -206.408 6.46739 -206.966 6.31583L-207.405 7.93168ZM-206.538 8.32637C-206.53 8.33228 -206.475 8.38265 -206.398 8.54815C-206.322 8.70964 -206.246 8.93629 -206.173 9.24138L-204.545 8.8478C-204.633 8.48489 -204.74 8.14013 -204.881 7.83912C-205.02 7.54212 -205.213 7.2389 -205.5 7.01243L-206.538 8.32637ZM-206.173 9.24138C-206.029 9.8358 -205.91 10.7814 -205.827 12.1118L-204.156 12.0082C-204.24 10.654 -204.366 9.58937 -204.545 8.8478L-206.173 9.24138ZM-205.827 12.1118C-205.745 13.4355 -205.697 15.2887 -205.635 17.6468L-203.961 17.6029C-204.022 15.2586 -204.072 13.3691 -204.156 12.0082L-205.827 12.1118ZM-205.635 17.6468L-205.25 32.3297L-203.577 32.2859L-203.961 17.6029L-205.635 17.6468ZM-205.25 32.3297C-205.189 34.6877 -205.14 36.541 -205.153 37.8672L-203.479 37.8831C-203.466 36.5197 -203.515 34.6303 -203.577 32.2859L-205.25 32.3297ZM-205.153 37.8672C-205.166 39.2 -205.235 40.1506 -205.347 40.7517L-203.702 41.0596C-203.561 40.3097 -203.491 39.2399 -203.479 37.8831L-205.153 37.8672ZM-205.347 40.7517C-205.461 41.3615 -205.641 41.6231 -205.712 41.6859L-204.607 42.9437C-204.115 42.5115 -203.84 41.801 -203.702 41.0596L-205.347 40.7517ZM-205.712 41.6859C-205.886 41.8382 -206.155 41.9929 -206.558 42.1254L-206.035 43.7161C-205.486 43.5355 -204.997 43.2862 -204.607 42.9437L-205.712 41.6859ZM-205.538 43.2754L-205.493 43.1782L-207.009 42.4688L-207.055 42.5661L-205.538 43.2754ZM-196.126 42.7024L-196.962 42.7243L-196.941 43.5613L-196.104 43.5393L-196.126 42.7024ZM-191.663 42.5856L-191.641 43.4225L-190.804 43.4006L-190.826 42.5637L-191.663 42.5856ZM-191.667 42.4416L-190.83 42.4197L-190.845 41.8335L-191.401 41.6476L-191.667 42.4416ZM-192.884 41.8013L-192.365 41.1443L-192.884 41.8013ZM-193.544 40.4261L-192.731 40.2293L-192.731 40.2293L-193.544 40.4261ZM-193.91 37.4586L-193.075 37.4058L-193.91 37.4586ZM-194.737 7.71009L-194.01 7.29489L-195.574 7.732L-194.737 7.71009ZM-174.96 42.3402L-175.687 42.7554L-175.438 43.1903L-174.938 43.1772L-174.96 42.3402ZM-174.288 42.3227L-174.266 43.1596L-173.429 43.1377L-173.451 42.3007L-174.288 42.3227ZM-175.049 11.42L-174.212 11.4291L-174.212 11.4291L-175.049 11.42ZM-174.839 8.43747L-174.016 8.5914L-174.016 8.5914L-174.839 8.43747ZM-174.252 7.02962L-173.699 7.65853L-173.699 7.65852L-174.252 7.02962ZM-173.118 6.32769L-172.787 7.09661L-172.266 6.87239L-172.281 6.30577L-173.118 6.32769ZM-173.122 6.18374L-172.285 6.16182L-172.307 5.3249L-173.144 5.34682L-173.122 6.18374ZM-177.584 6.30059L-177.606 5.46367L-178.443 5.48558L-178.421 6.32251L-177.584 6.30059ZM-177.58 6.44454L-178.417 6.46646L-178.402 7.05266L-177.846 7.23856L-177.58 6.44454ZM-176.363 7.0849L-176.882 7.74187L-176.882 7.74187L-176.363 7.0849ZM-175.703 8.46009L-174.889 8.2633L-174.889 8.2633L-175.703 8.46009ZM-175.337 11.4275L-176.173 11.4804L-176.173 11.4804L-175.337 11.4275ZM-174.727 32.8749L-175.453 33.2921L-173.891 32.853L-174.727 32.8749ZM-189.166 7.75627L-188.44 7.33904L-188.442 7.33626L-189.166 7.75627ZM-189.864 6.7662L-189.288 6.15891L-189.288 6.15891L-189.864 6.7662ZM-197.019 6.76149L-197.041 5.92457L-197.878 5.94648L-197.856 6.7834L-197.019 6.76149ZM-197.015 6.90544L-197.852 6.92735L-197.836 7.55005L-197.234 7.71336L-197.015 6.90544ZM-195.848 7.45109L-196.367 8.10806L-195.848 7.45109ZM-195.188 8.82627L-196.002 9.02306L-195.188 8.82627ZM-194.821 11.8417L-195.657 11.8935L-194.821 11.8417ZM-194.149 37.5129L-194.986 37.5038L-194.149 37.5129ZM-194.359 40.4954L-195.182 40.3415L-194.359 40.4954ZM-194.994 41.9045L-194.441 42.5334L-194.441 42.5334L-194.994 41.9045ZM-196.128 42.6065L-196.965 42.6284L-196.933 43.8645L-195.797 43.3754L-196.128 42.6065ZM-196.966 42.5804L-196.962 42.7243L-195.289 42.6805L-195.292 42.5366L-196.966 42.5804ZM-196.104 43.5393L-191.641 43.4225L-191.685 41.7487L-196.147 41.8655L-196.104 43.5393ZM-190.826 42.5637L-190.83 42.4197L-192.504 42.4635L-192.5 42.6075L-190.826 42.5637ZM-191.401 41.6476C-191.842 41.5004 -192.146 41.3171 -192.365 41.1443L-193.403 42.4582C-193.033 42.7502 -192.558 43.0266 -191.932 43.2356L-191.401 41.6476ZM-192.365 41.1443C-192.373 41.1384 -192.428 41.088 -192.505 40.9225C-192.581 40.761 -192.657 40.5344 -192.731 40.2293L-194.358 40.6229C-194.27 40.9858 -194.163 41.3305 -194.022 41.6315C-193.884 41.9285 -193.69 42.2318 -193.403 42.4582L-192.365 41.1443ZM-192.731 40.2293C-192.874 39.6341 -192.993 38.6878 -193.075 37.4058L-194.746 37.5115C-194.663 38.818 -194.537 39.882 -194.358 40.6229L-192.731 40.2293ZM-193.075 37.4058C-193.155 36.1308 -193.203 34.3262 -193.263 32.0158L-194.937 32.0597C-194.877 34.3557 -194.829 36.1979 -194.746 37.5115L-193.075 37.4058ZM-193.263 32.0158L-193.9 7.68817L-195.574 7.732L-194.937 32.0597L-193.263 32.0158ZM-195.464 8.12528L-175.687 42.7554L-174.233 41.9251L-194.01 7.29489L-195.464 8.12528ZM-174.938 43.1772L-174.266 43.1596L-174.31 41.4857L-174.982 41.5033L-174.938 43.1772ZM-173.451 42.3007L-174.118 16.8215L-175.792 16.8653L-175.125 42.3446L-173.451 42.3007ZM-174.118 16.8215C-174.179 14.5111 -174.226 12.7065 -174.212 11.4291L-175.886 11.4109C-175.901 12.7271 -175.852 14.5693 -175.792 16.8653L-174.118 16.8215ZM-174.212 11.4291C-174.198 10.1445 -174.129 9.1933 -174.016 8.5914L-175.662 8.28354C-175.802 9.03272 -175.872 10.1018 -175.886 11.4109L-174.212 11.4291ZM-174.016 8.5914C-173.959 8.28287 -173.895 8.05257 -173.828 7.88734C-173.759 7.71803 -173.706 7.66482 -173.699 7.65853L-174.805 6.4007C-175.079 6.64187 -175.257 6.95482 -175.38 7.25868C-175.504 7.56664 -175.594 7.91654 -175.662 8.28354L-174.016 8.5914ZM-173.699 7.65852C-173.485 7.47041 -173.183 7.26716 -172.787 7.09661L-173.449 5.55876C-174.003 5.79721 -174.455 6.0939 -174.805 6.40071L-173.699 7.65852ZM-172.281 6.30577L-172.285 6.16182L-173.959 6.20565L-173.955 6.3496L-172.281 6.30577ZM-173.144 5.34682L-177.606 5.46367L-177.562 7.13751L-173.1 7.02066L-173.144 5.34682ZM-178.421 6.32251L-178.417 6.46646L-176.743 6.42263L-176.747 6.27868L-178.421 6.32251ZM-177.846 7.23856C-177.405 7.38576 -177.101 7.56903 -176.882 7.74187L-175.844 6.42793C-176.214 6.13601 -176.69 5.85955 -177.315 5.65052L-177.846 7.23856ZM-176.882 7.74187C-176.875 7.74778 -176.819 7.79815 -176.742 7.96365C-176.666 8.12514 -176.59 8.35179 -176.517 8.65688L-174.889 8.2633C-174.977 7.90039 -175.084 7.55563 -175.225 7.25462C-175.364 6.95762 -175.558 6.6544 -175.844 6.42793L-176.882 7.74187ZM-176.517 8.65688C-176.373 9.25205 -176.254 10.1983 -176.173 11.4804L-174.502 11.3747C-174.584 10.0681 -174.71 9.00412 -174.889 8.2633L-176.517 8.65688ZM-176.173 11.4804C-176.092 12.7554 -176.045 14.5599 -175.984 16.8703L-174.31 16.8265C-174.37 14.5305 -174.418 12.6883 -174.502 11.3747L-176.173 11.4804ZM-175.984 16.8703L-175.564 32.8968L-173.891 32.853L-174.31 16.8265L-175.984 16.8703ZM-174.002 32.4577L-188.44 7.33905L-189.892 8.17349L-175.453 33.2921L-174.002 32.4577ZM-188.442 7.33626C-188.753 6.79906 -189.05 6.38423 -189.288 6.15891L-190.44 7.37349C-190.382 7.42854 -190.182 7.67291 -189.89 8.17627L-188.442 7.33626ZM-189.288 6.15891C-189.703 5.76534 -190.263 5.74708 -190.611 5.7562L-190.567 7.43004C-190.502 7.42834 -190.451 7.42936 -190.411 7.43205C-190.371 7.43476 -190.348 7.43879 -190.338 7.44105C-190.318 7.44549 -190.374 7.43684 -190.44 7.3735L-189.288 6.15891ZM-190.611 5.7562L-197.041 5.92457L-196.997 7.59841L-190.567 7.43004L-190.611 5.7562ZM-197.856 6.7834L-197.852 6.92735L-196.178 6.88352L-196.182 6.73957L-197.856 6.7834ZM-197.234 7.71336C-196.825 7.82457 -196.548 7.96497 -196.367 8.10806L-195.329 6.79411C-195.737 6.47244 -196.238 6.24908 -196.795 6.09751L-197.234 7.71336ZM-196.367 8.10806C-196.36 8.11397 -196.304 8.16434 -196.227 8.32983C-196.151 8.49133 -196.076 8.71797 -196.002 9.02306L-194.374 8.62948C-194.462 8.26658 -194.569 7.92182 -194.71 7.62081C-194.849 7.32381 -195.043 7.02058 -195.329 6.79411L-196.367 8.10806ZM-196.002 9.02306C-195.858 9.61749 -195.739 10.5631 -195.657 11.8935L-193.985 11.7899C-194.069 10.4357 -194.195 9.37106 -194.374 8.62948L-196.002 9.02306ZM-195.657 11.8935C-195.575 13.2172 -195.526 15.0704 -195.464 17.4285L-193.79 17.3846C-193.852 15.0402 -193.901 13.1508 -193.985 11.7899L-195.657 11.8935ZM-195.464 17.4285L-195.08 32.1114L-193.406 32.0676L-193.79 17.3846L-195.464 17.4285ZM-195.08 32.1114C-195.019 34.4218 -194.972 36.2264 -194.986 37.5038L-193.312 37.522C-193.297 36.2058 -193.346 34.3636 -193.406 32.0676L-195.08 32.1114ZM-194.986 37.5038C-195 38.7884 -195.069 39.7396 -195.182 40.3415L-193.536 40.6493C-193.396 39.9002 -193.326 38.831 -193.312 37.522L-194.986 37.5038ZM-195.182 40.3415C-195.296 40.9512 -195.475 41.2129 -195.547 41.2756L-194.441 42.5334C-193.95 42.1013 -193.674 41.3907 -193.536 40.6493L-195.182 40.3415ZM-195.547 41.2756C-195.761 41.4637 -196.063 41.667 -196.459 41.8375L-195.797 43.3754C-195.243 43.1369 -194.791 42.8403 -194.441 42.5334L-195.547 41.2756ZM-195.291 42.5845L-195.292 42.5366L-196.966 42.5804L-196.965 42.6284L-195.291 42.5845ZM-171.247 41.9069L-171.269 41.07L-172.106 41.0919L-172.084 41.9288L-171.247 41.9069ZM-171.243 42.0509L-172.08 42.0728L-172.058 42.9097L-171.222 42.8878L-171.243 42.0509ZM-162.271 41.8159L-162.249 42.6528L-161.412 42.6309L-161.434 41.794L-162.271 41.8159ZM-162.274 41.6719L-161.437 41.65L-161.454 41.0108L-162.075 40.8588L-162.274 41.6719ZM-163.489 41.1276L-164.008 41.7845L-163.489 41.1276ZM-164.148 39.8004L-163.334 39.6036L-163.334 39.6036L-164.148 39.8004ZM-164.515 36.7849L-165.351 36.8367L-164.515 36.7849ZM-164.941 22.3431L-164.237 21.8896L-165.856 19.3777L-165.778 22.3651L-164.941 22.3431ZM-155.081 37.6423L-154.367 37.2051L-154.372 37.1968L-154.378 37.1887L-155.081 37.6423ZM-153.858 40.3472L-153.026 40.2558L-153.026 40.2558L-153.858 40.3472ZM-154.834 41.5732L-155.12 40.7861L-155.687 40.9919L-155.671 41.5951L-154.834 41.5732ZM-154.832 41.6691L-155.669 41.691L-155.647 42.528L-154.81 42.506L-154.832 41.6691ZM-146.339 41.4467L-146.317 42.2837L-145.48 42.2617L-145.502 41.4248L-146.339 41.4467ZM-146.341 41.3508L-145.504 41.3288L-145.518 40.8116L-145.987 40.5924L-146.341 41.3508ZM-147.074 40.8898L-146.497 40.2825L-147.074 40.8898ZM-147.764 40.1876L-147.135 39.635L-147.764 40.1876ZM-148.512 39.1508L-149.233 39.5764L-148.512 39.1508ZM-149.417 37.59L-148.69 37.1739L-148.699 37.1587L-148.708 37.144L-149.417 37.59ZM-161.341 18.6476L-161.972 18.0974L-162.381 18.5667L-162.049 19.0936L-161.341 18.6476ZM-152.856 8.9182L-153.487 8.36768L-153.487 8.36796L-152.856 8.9182ZM-150.331 6.3552L-150.858 5.7052L-150.858 5.7052L-150.331 6.3552ZM-148.915 5.40582L-148.565 6.16644L-148.064 5.93576L-148.078 5.3839L-148.915 5.40582ZM-148.918 5.30985L-148.081 5.28794L-148.103 4.45101L-148.94 4.47293L-148.918 5.30985ZM-153.524 5.43047L-153.546 4.59355L-154.383 4.61547L-154.361 5.45239L-153.524 5.43047ZM-153.521 5.52644L-154.358 5.54836L-154.342 6.17105L-153.741 6.33436L-153.521 5.52644ZM-152.404 6.02536L-152.91 6.69258L-152.91 6.69258L-152.404 6.02536ZM-152.095 6.83354L-152.926 6.73687L-152.926 6.73688L-152.095 6.83354ZM-154.126 9.95977L-154.752 9.40473L-154.756 9.40926L-154.126 9.95977ZM-164.848 22.2447L-165.685 22.2666L-165.628 24.4124L-164.217 22.7952L-164.848 22.2447ZM-164.889 7.84079L-165.712 7.68686L-165.712 7.68686L-164.889 7.84079ZM-164.3 6.48092L-163.748 7.10983L-163.748 7.10983L-164.3 6.48092ZM-163.116 5.87371L-162.874 6.67537L-162.262 6.49103L-162.279 5.85179L-163.116 5.87371ZM-163.119 5.72976L-162.283 5.70784L-162.304 4.87092L-163.141 4.89283L-163.119 5.72976ZM-172.092 5.96472L-172.114 5.1278L-172.951 5.14971L-172.929 5.98664L-172.092 5.96472ZM-172.089 6.10867L-172.926 6.13059L-172.909 6.75329L-172.308 6.9166L-172.089 6.10867ZM-170.262 8.02951L-171.075 8.2263L-171.075 8.2263L-170.262 8.02951ZM-169.895 11.0449L-169.059 10.9932L-169.895 11.0449ZM-169.219 36.8601L-168.381 36.8681L-169.219 36.8601ZM-169.427 39.8906L-168.604 40.0445L-169.427 39.8906ZM-170.063 41.2997L-170.615 40.6708L-170.063 41.2997ZM-171.199 41.9057L-171.177 42.7426L-171.055 42.7394L-170.938 42.701L-171.199 41.9057ZM-172.084 41.9288L-172.08 42.0728L-170.407 42.029L-170.41 41.885L-172.084 41.9288ZM-171.222 42.8878L-162.249 42.6528L-162.292 40.979L-171.265 41.2139L-171.222 42.8878ZM-161.434 41.794L-161.437 41.65L-163.111 41.6939L-163.107 41.8378L-161.434 41.794ZM-162.075 40.8588C-162.525 40.7487 -162.794 40.6094 -162.97 40.4706L-164.008 41.7845C-163.595 42.1105 -163.087 42.3349 -162.473 42.4851L-162.075 40.8588ZM-162.97 40.4706C-163.03 40.4233 -163.18 40.24 -163.334 39.6036L-164.962 39.9971C-164.793 40.6967 -164.536 41.3671 -164.008 41.7845L-162.97 40.4706ZM-163.334 39.6036C-163.478 39.0091 -163.597 38.0635 -163.679 36.7332L-165.351 36.8367C-165.267 38.1909 -165.141 39.2556 -164.962 39.9971L-163.334 39.6036ZM-163.679 36.7332C-163.761 35.4095 -163.81 33.5562 -163.872 31.1982L-165.546 31.242C-165.484 33.5864 -165.435 35.4758 -165.351 36.8367L-163.679 36.7332ZM-163.872 31.1982L-164.104 22.3212L-165.778 22.3651L-165.546 31.242L-163.872 31.1982ZM-165.645 22.7967L-155.785 38.0958L-154.378 37.1887L-164.237 21.8896L-165.645 22.7967ZM-155.795 38.0795C-155.43 38.6762 -155.159 39.1767 -154.974 39.585C-154.785 40.0041 -154.708 40.2796 -154.69 40.4385L-153.026 40.2558C-153.072 39.8402 -153.23 39.3777 -153.448 38.8951C-153.671 38.4018 -153.98 37.837 -154.367 37.2051L-155.795 38.0795ZM-154.69 40.4385C-154.684 40.4933 -154.69 40.5193 -154.692 40.5266C-154.694 40.5322 -154.696 40.5395 -154.707 40.5538C-154.737 40.5909 -154.839 40.6844 -155.12 40.7861L-154.549 42.3602C-154.116 42.2032 -153.698 41.9709 -153.403 41.6034C-153.085 41.2089 -152.973 40.739 -153.026 40.2558L-154.69 40.4385ZM-155.671 41.5951L-155.669 41.691L-153.995 41.6472L-153.997 41.5512L-155.671 41.5951ZM-154.81 42.506L-146.317 42.2837L-146.361 40.6098L-154.854 40.8322L-154.81 42.506ZM-145.502 41.4248L-145.504 41.3288L-147.178 41.3727L-147.176 41.4686L-145.502 41.4248ZM-145.987 40.5924C-146.253 40.4676 -146.399 40.3755 -146.497 40.2825L-147.65 41.4971C-147.354 41.7778 -147.013 41.9611 -146.696 42.1091L-145.987 40.5924ZM-146.497 40.2825C-146.695 40.0946 -146.916 39.8847 -147.135 39.635L-148.393 40.7402C-148.118 41.0538 -147.846 41.3112 -147.65 41.4971L-146.497 40.2825ZM-147.135 39.635C-147.35 39.3903 -147.568 39.103 -147.791 38.7252L-149.233 39.5764C-148.953 40.0498 -148.673 40.4217 -148.393 40.7402L-147.135 39.635ZM-147.791 38.7252C-148.039 38.3038 -148.339 37.7869 -148.69 37.1739L-150.143 38.0061C-149.79 38.623 -149.486 39.1467 -149.233 39.5764L-147.791 38.7252ZM-148.708 37.144L-160.632 18.2016L-162.049 19.0936L-150.125 38.036L-148.708 37.144ZM-160.71 19.1979L-152.225 9.46844L-153.487 8.36796L-161.972 18.0974L-160.71 19.1979ZM-152.226 9.46871C-151.166 8.25452 -150.36 7.45728 -149.803 7.0052L-150.858 5.7052C-151.524 6.24546 -152.403 7.1249 -153.487 8.36768L-152.226 9.46871ZM-149.803 7.0052C-149.219 6.53088 -148.808 6.27809 -148.565 6.16644L-149.265 4.6452C-149.686 4.83904 -150.22 5.18718 -150.858 5.7052L-149.803 7.0052ZM-148.078 5.3839L-148.081 5.28794L-149.755 5.33177L-149.752 5.42773L-148.078 5.3839ZM-148.94 4.47293L-153.546 4.59355L-153.502 6.2674L-148.896 6.14677L-148.94 4.47293ZM-154.361 5.45239L-154.358 5.54836L-152.685 5.50452L-152.687 5.40856L-154.361 5.45239ZM-153.741 6.33436C-153.322 6.4481 -153.042 6.59215 -152.91 6.69258L-151.898 5.35814C-152.256 5.08727 -152.753 4.86756 -153.302 4.71852L-153.741 6.33436ZM-152.91 6.69258C-152.909 6.69334 -152.912 6.69079 -152.917 6.68443C-152.922 6.67804 -152.925 6.67196 -152.926 6.66829C-152.929 6.66042 -152.92 6.67865 -152.926 6.73687L-151.263 6.93021C-151.196 6.35476 -151.375 5.75445 -151.898 5.35814L-152.91 6.69258ZM-152.926 6.73688C-152.944 6.89025 -153.048 7.19948 -153.336 7.6342L-151.94 8.55818C-151.581 8.01565 -151.324 7.45112 -151.263 6.9302L-152.926 6.73688ZM-153.336 7.6342C-153.627 8.07441 -154.109 8.67792 -154.752 9.40475L-153.499 10.5148C-152.837 9.76694 -152.295 9.09524 -151.94 8.55818L-153.336 7.6342ZM-154.756 9.40926L-165.479 21.6941L-164.217 22.7952L-153.495 10.5103L-154.756 9.40926ZM-164.011 22.2227L-164.163 16.4167L-165.837 16.4606L-165.685 22.2666L-164.011 22.2227ZM-164.163 16.4167C-164.225 14.0587 -164.273 12.2054 -164.26 10.8793L-165.935 10.8633C-165.948 12.2267 -165.898 14.1162 -165.837 16.4606L-164.163 16.4167ZM-164.26 10.8793C-164.248 9.54642 -164.178 8.59586 -164.066 7.99472L-165.712 7.68686C-165.852 8.43681 -165.922 9.50658 -165.935 10.8633L-164.26 10.8793ZM-164.066 7.99473C-163.945 7.35114 -163.805 7.16022 -163.748 7.10983L-164.853 5.85201C-165.359 6.29654 -165.579 6.97937 -165.712 7.68686L-164.066 7.99473ZM-163.748 7.10983C-163.579 6.96204 -163.317 6.80874 -162.874 6.67537L-163.357 5.07204C-163.962 5.25421 -164.458 5.50488 -164.853 5.85201L-163.748 7.10983ZM-162.279 5.85179L-162.283 5.70784L-163.956 5.75167L-163.953 5.89562L-162.279 5.85179ZM-163.141 4.89283L-172.114 5.1278L-172.07 6.80164L-163.098 6.56668L-163.141 4.89283ZM-172.929 5.98664L-172.926 6.13059L-171.252 6.08676L-171.255 5.9428L-172.929 5.98664ZM-172.308 6.9166C-171.899 7.0278 -171.622 7.16821 -171.441 7.31129L-170.403 5.99734C-170.81 5.67567 -171.311 5.45231 -171.869 5.30075L-172.308 6.9166ZM-171.441 7.31129C-171.433 7.3172 -171.378 7.36757 -171.301 7.53306C-171.225 7.69456 -171.149 7.9212 -171.075 8.2263L-169.448 7.83272C-169.536 7.46981 -169.643 7.12505 -169.784 6.82404C-169.922 6.52704 -170.116 6.22381 -170.403 5.99734L-171.441 7.31129ZM-171.075 8.2263C-170.932 8.82072 -170.813 9.76635 -170.73 11.0967L-169.059 10.9932C-169.143 9.63894 -169.269 8.57429 -169.448 7.83272L-171.075 8.2263ZM-170.73 11.0967C-170.648 12.4204 -170.6 14.2737 -170.538 16.6317L-168.864 16.5879C-168.925 14.2435 -168.975 12.354 -169.059 10.9932L-170.73 11.0967ZM-170.538 16.6317L-170.153 31.3147L-168.48 31.2708L-168.864 16.5879L-170.538 16.6317ZM-170.153 31.3147C-170.092 33.6727 -170.043 35.5259 -170.056 36.8521L-168.381 36.8681C-168.369 35.5046 -168.418 33.6152 -168.48 31.2708L-170.153 31.3147ZM-170.056 36.8521C-170.069 38.185 -170.138 39.1355 -170.25 39.7367L-168.604 40.0445C-168.464 39.2946 -168.394 38.2248 -168.381 36.8681L-170.056 36.8521ZM-170.25 39.7367C-170.364 40.3464 -170.544 40.608 -170.615 40.6708L-169.51 41.9286C-169.018 41.4965 -168.743 40.7859 -168.604 40.0445L-170.25 39.7367ZM-170.615 40.6708C-170.789 40.8232 -171.058 40.9779 -171.461 41.1103L-170.938 42.701C-170.389 42.5204 -169.9 42.2712 -169.51 41.9286L-170.615 40.6708ZM-171.221 41.0687L-171.269 41.07L-171.225 42.7438L-171.177 42.7426L-171.221 41.0687ZM-137.462 41.0222L-136.625 41.0003L-138.22 40.6675L-137.462 41.0222ZM-137.458 41.1662L-138.295 41.1881L-138.273 42.025L-137.436 42.0031L-137.458 41.1662ZM-117.75 40.1699L-116.925 40.3126L-116.921 40.2949L-116.919 40.277L-117.75 40.1699ZM-116.991 34.292L-116.161 34.3992L-116.036 33.4295L-117.013 33.4551L-116.991 34.292ZM-117.135 34.2958L-117.157 33.4589L-117.782 33.4753L-117.944 34.0791L-117.135 34.2958ZM-118.348 37.4967L-117.615 37.9021L-118.348 37.4967ZM-120.026 39.4132L-119.555 40.1054L-120.026 39.4132ZM-122.307 40.3373L-122.466 39.5153L-122.307 40.3373ZM-130.602 40.7946L-131.438 40.8165L-131.417 41.6534L-130.58 41.6315L-130.602 40.7946ZM-131.149 7.05332L-131.972 6.89939L-131.972 6.89939L-131.149 7.05332ZM-129.376 5.08623L-129.135 5.8879L-128.522 5.70355L-128.539 5.06432L-129.376 5.08623ZM-129.38 4.94228L-128.543 4.92036L-128.565 4.08344L-129.402 4.10536L-129.38 4.94228ZM-138.401 5.1785L-138.422 4.34158L-139.259 4.36349L-139.237 5.20042L-138.401 5.1785ZM-138.397 5.32245L-139.234 5.34437L-139.217 5.96706L-138.616 6.13038L-138.397 5.32245ZM-136.203 10.2587L-135.367 10.2069L-136.203 10.2587ZM-135.527 36.0739L-134.69 36.0818L-135.527 36.0739ZM-135.736 39.1044L-136.559 38.9504L-135.736 39.1044ZM-136.371 40.5135L-136.924 39.8846L-136.371 40.5135ZM-137.507 41.1194L-138.266 40.7648L-139.087 42.5199L-137.246 41.9148L-137.507 41.1194ZM-138.299 41.0441L-138.295 41.1881L-136.621 41.1443L-136.625 41.0003L-138.299 41.0441ZM-137.436 42.0031L-118.243 41.5005L-118.287 39.8266L-137.48 40.3292L-137.436 42.0031ZM-118.243 41.5005C-118.168 41.4985 -117.877 41.5031 -117.584 41.3468L-118.372 39.8693C-118.317 39.8399 -118.269 39.8295 -118.247 39.8261C-118.237 39.8246 -118.234 39.8247 -118.241 39.8251C-118.25 39.8256 -118.261 39.826 -118.287 39.8266L-118.243 41.5005ZM-117.584 41.3468C-117.143 41.1115 -116.981 40.6373 -116.925 40.3126L-118.574 40.0273C-118.583 40.0775 -118.591 40.0824 -118.578 40.0577C-118.571 40.0446 -118.555 40.0181 -118.525 39.9856C-118.495 39.9536 -118.446 39.9086 -118.372 39.8693L-117.584 41.3468ZM-116.919 40.277L-116.161 34.3992L-117.821 34.1849L-118.58 40.0628L-116.919 40.277ZM-117.013 33.4551L-117.157 33.4589L-117.113 35.1327L-116.969 35.129L-117.013 33.4551ZM-117.944 34.0791C-118.283 35.3444 -118.665 36.3418 -119.08 37.0912L-117.615 37.9021C-117.113 36.9949 -116.687 35.8584 -116.326 34.5126L-117.944 34.0791ZM-119.08 37.0912C-119.487 37.8259 -119.963 38.3579 -120.497 38.7211L-119.555 40.1054C-118.768 39.5697 -118.126 38.824 -117.615 37.9021L-119.08 37.0912ZM-120.497 38.7211C-121.055 39.1006 -121.707 39.3683 -122.466 39.5153L-122.147 41.1592C-121.187 40.9731 -120.318 40.6248 -119.555 40.1054L-120.497 38.7211ZM-122.466 39.5153C-123.281 39.6732 -124.24 39.7905 -125.345 39.8194L-125.301 41.4933C-124.103 41.4619 -123.052 41.3344 -122.147 41.1592L-122.466 39.5153ZM-125.345 39.8194L-130.623 39.9576L-130.58 41.6315L-125.301 41.4933L-125.345 39.8194ZM-129.765 40.7726L-130.423 15.6293L-132.097 15.6731L-131.438 40.8165L-129.765 40.7726ZM-130.423 15.6293C-130.485 13.2712 -130.533 11.418 -130.521 10.0918L-132.195 10.0759C-132.208 11.4393 -132.158 13.3287 -132.097 15.6731L-130.423 15.6293ZM-130.521 10.0918C-130.508 8.75895 -130.438 7.80839 -130.326 7.20725L-131.972 6.89939C-132.112 7.64933 -132.182 8.7191 -132.195 10.0759L-130.521 10.0918ZM-130.326 7.20725C-130.206 6.56366 -130.065 6.37274 -130.008 6.32236L-131.113 5.06454C-131.619 5.50906 -131.84 6.1919 -131.972 6.89939L-130.326 7.20725ZM-130.008 6.32236C-129.84 6.17457 -129.578 6.02127 -129.135 5.8879L-129.617 4.28456C-130.222 4.46674 -130.718 4.71741 -131.113 5.06454L-130.008 6.32236ZM-128.539 5.06432L-128.543 4.92036L-130.217 4.96419L-130.213 5.10815L-128.539 5.06432ZM-129.402 4.10536L-138.422 4.34158L-138.379 6.01542L-129.358 5.7792L-129.402 4.10536ZM-139.237 5.20042L-139.234 5.34437L-137.56 5.30054L-137.564 5.15658L-139.237 5.20042ZM-138.616 6.13038C-138.207 6.24158 -137.93 6.38199 -137.749 6.52507L-136.711 5.21113C-137.118 4.88945 -137.619 4.66609 -138.177 4.51453L-138.616 6.13038ZM-137.749 6.52507C-137.742 6.53098 -137.686 6.58135 -137.609 6.74685C-137.533 6.90834 -137.457 7.13499 -137.384 7.44008L-135.756 7.0465C-135.844 6.68359 -135.951 6.33883 -136.092 6.03782C-136.231 5.74082 -136.424 5.43759 -136.711 5.21113L-137.749 6.52507ZM-137.384 7.44008C-137.24 8.0345 -137.121 8.98013 -137.038 10.3105L-135.367 10.2069C-135.451 8.85273 -135.577 7.78807 -135.756 7.0465L-137.384 7.44008ZM-137.038 10.3105C-136.956 11.6342 -136.908 13.4874 -136.846 15.8455L-135.172 15.8016C-135.234 13.4573 -135.283 11.5678 -135.367 10.2069L-137.038 10.3105ZM-136.846 15.8455L-136.462 30.5284L-134.788 30.4846L-135.172 15.8016L-136.846 15.8455ZM-136.462 30.5284C-136.4 32.8864 -136.351 34.7397 -136.364 36.0659L-134.69 36.0818C-134.677 34.7184 -134.726 32.829 -134.788 30.4846L-136.462 30.5284ZM-136.364 36.0659C-136.377 37.3987 -136.446 38.3493 -136.559 38.9504L-134.913 39.2583C-134.772 38.5084 -134.703 37.4386 -134.69 36.0818L-136.364 36.0659ZM-136.559 38.9504C-136.673 39.5602 -136.852 39.8218 -136.924 39.8846L-135.818 41.1424C-135.326 40.7102 -135.051 39.9997 -134.913 39.2583L-136.559 38.9504ZM-136.924 39.8846C-137.097 40.0369 -137.366 40.1916 -137.769 40.3241L-137.246 41.9148C-136.697 41.7342 -136.208 41.4849 -135.818 41.1424L-136.924 39.8846ZM-136.749 41.4741L-136.704 41.3769L-138.22 40.6675L-138.266 40.7648L-136.749 41.4741ZM-115.907 40.4578L-115.07 40.4359L-116.665 40.1031L-115.907 40.4578ZM-115.903 40.6017L-116.74 40.6236L-116.718 41.4606L-115.881 41.4386L-115.903 40.6017ZM-106.93 40.3668L-106.908 41.2037L-106.071 41.1818L-106.093 40.3448L-106.93 40.3668ZM-106.934 40.2228L-106.097 40.2009L-106.114 39.5617L-106.735 39.4096L-106.934 40.2228ZM-108.149 39.6784L-108.668 40.3354L-108.149 39.6784ZM-108.808 38.3512L-107.994 38.1544L-107.994 38.1544L-108.808 38.3512ZM-109.175 35.3358L-110.01 35.3876L-109.175 35.3358ZM-109.851 9.52064L-110.688 9.51267L-110.688 9.51267L-109.851 9.52064ZM-109.642 6.49014L-108.819 6.64407L-108.819 6.64407L-109.642 6.49014ZM-107.869 4.52305L-107.627 5.32471L-107.015 5.14037L-107.032 4.50113L-107.869 4.52305ZM-107.873 4.3791L-107.036 4.35718L-107.058 3.52026L-107.894 3.54217L-107.873 4.3791ZM-116.845 4.61406L-116.867 3.77714L-117.704 3.79905L-117.682 4.63597L-116.845 4.61406ZM-116.842 4.75801L-117.679 4.77993L-117.662 5.40262L-117.061 5.56593L-116.842 4.75801ZM-114.648 9.69427L-113.812 9.6425L-114.648 9.69427ZM-113.972 35.5094L-113.135 35.5174L-113.972 35.5094ZM-114.18 38.5399L-115.003 38.386L-114.18 38.5399ZM-114.816 39.949L-115.368 39.3201L-114.816 39.949ZM-115.952 40.555L-116.711 40.2003L-117.532 41.9555L-115.691 41.3503L-115.952 40.555ZM-116.744 40.4797L-116.74 40.6236L-115.066 40.5798L-115.07 40.4359L-116.744 40.4797ZM-115.881 41.4386L-106.908 41.2037L-106.952 39.5298L-115.925 39.7648L-115.881 41.4386ZM-106.093 40.3448L-106.097 40.2009L-107.771 40.2447L-107.767 40.3887L-106.093 40.3448ZM-106.735 39.4096C-107.184 39.2996 -107.454 39.1602 -107.63 39.0214L-108.668 40.3354C-108.255 40.6614 -107.747 40.8858 -107.133 41.036L-106.735 39.4096ZM-107.63 39.0214C-107.69 38.9741 -107.84 38.7908 -107.994 38.1544L-109.621 38.548C-109.452 39.2476 -109.196 39.9179 -108.668 40.3354L-107.63 39.0214ZM-107.994 38.1544C-108.138 37.56 -108.257 36.6144 -108.339 35.284L-110.01 35.3876C-109.926 36.7418 -109.801 37.8064 -109.621 38.548L-107.994 38.1544ZM-108.339 35.284C-108.421 33.9603 -108.47 32.1071 -108.531 29.749L-110.205 29.7929C-110.144 32.1372 -110.095 34.0267 -110.01 35.3876L-108.339 35.284ZM-108.531 29.749L-108.916 15.0661L-110.59 15.1099L-110.205 29.7929L-108.531 29.749ZM-108.916 15.0661C-108.978 12.7081 -109.026 10.8548 -109.013 9.52861L-110.688 9.51267C-110.701 10.8761 -110.651 12.7655 -110.59 15.1099L-108.916 15.0661ZM-109.013 9.52861C-109.001 8.19576 -108.931 7.2452 -108.819 6.64407L-110.465 6.33621C-110.605 7.08615 -110.675 8.15592 -110.688 9.51267L-109.013 9.52861ZM-108.819 6.64407C-108.699 6.00048 -108.558 5.80956 -108.501 5.75917L-109.606 4.50135C-110.112 4.94588 -110.332 5.62871 -110.465 6.33621L-108.819 6.64407ZM-108.501 5.75917C-108.332 5.61139 -108.07 5.45808 -107.627 5.32471L-108.11 3.72138C-108.715 3.90356 -109.211 4.15423 -109.606 4.50135L-108.501 5.75917ZM-107.032 4.50113L-107.036 4.35718L-108.709 4.40101L-108.706 4.54496L-107.032 4.50113ZM-107.894 3.54217L-116.867 3.77714L-116.824 5.45098L-107.851 5.21602L-107.894 3.54217ZM-117.682 4.63597L-117.679 4.77993L-116.005 4.7361L-116.009 4.59214L-117.682 4.63597ZM-117.061 5.56593C-116.652 5.67714 -116.375 5.81755 -116.194 5.96063L-115.156 4.64669C-115.563 4.32501 -116.064 4.10165 -116.622 3.95009L-117.061 5.56593ZM-116.194 5.96063C-116.186 5.96654 -116.131 6.01691 -116.054 6.18241C-115.978 6.3439 -115.902 6.57054 -115.829 6.87564L-114.201 6.48206C-114.289 6.11915 -114.396 5.77439 -114.537 5.47338C-114.676 5.17638 -114.869 4.87315 -115.156 4.64669L-116.194 5.96063ZM-115.829 6.87564C-115.685 7.47006 -115.566 8.41569 -115.483 9.74605L-113.812 9.6425C-113.896 8.28829 -114.022 7.22363 -114.201 6.48206L-115.829 6.87564ZM-115.483 9.74605C-115.401 11.0697 -115.353 12.923 -115.291 15.281L-113.617 15.2372C-113.678 12.8928 -113.728 11.0034 -113.812 9.6425L-115.483 9.74605ZM-115.291 15.281L-114.906 29.964L-113.233 29.9202L-113.617 15.2372L-115.291 15.281ZM-114.906 29.964C-114.845 32.322 -114.796 34.1753 -114.809 35.5015L-113.135 35.5174C-113.122 34.154 -113.171 32.2645 -113.233 29.9202L-114.906 29.964ZM-114.809 35.5015C-114.822 36.8343 -114.891 37.7849 -115.003 38.386L-113.358 38.6939C-113.217 37.9439 -113.147 36.8741 -113.135 35.5174L-114.809 35.5015ZM-115.003 38.386C-115.117 38.9957 -115.297 39.2574 -115.368 39.3201L-114.263 40.578C-113.771 40.1458 -113.496 39.4352 -113.358 38.6939L-115.003 38.386ZM-115.368 39.3201C-115.542 39.4725 -115.811 39.6272 -116.214 39.7597L-115.691 41.3503C-115.142 41.1698 -114.653 40.9205 -114.263 40.578L-115.368 39.3201ZM-115.194 40.9097L-115.148 40.8125L-116.665 40.1031L-116.711 40.2003L-115.194 40.9097ZM-105.782 40.3367L-106.618 40.3586L-106.597 41.1955L-105.76 41.1736L-105.782 40.3367ZM-101.319 40.2198L-101.297 41.0568L-100.46 41.0348L-100.482 40.1979L-101.319 40.2198ZM-101.323 40.0759L-100.486 40.054L-100.501 39.4678L-101.057 39.2819L-101.323 40.0759ZM-102.54 39.4355L-102.021 38.7785L-102.54 39.4355ZM-103.2 38.0603L-102.386 37.8635L-103.2 38.0603ZM-103.566 35.0929L-102.731 35.04L-103.566 35.0929ZM-104.393 5.34435L-103.666 4.92915L-105.23 5.36626L-104.393 5.34435ZM-84.6158 39.9745L-85.3428 40.3897L-85.0944 40.8245L-84.5938 40.8114L-84.6158 39.9745ZM-83.944 39.9569L-83.9221 40.7938L-83.0852 40.7719L-83.1071 39.935L-83.944 39.9569ZM-84.7052 9.05425L-83.868 9.06332L-83.868 9.06332L-84.7052 9.05425ZM-84.4952 6.07173L-83.6723 6.22566L-83.6723 6.22566L-84.4952 6.07173ZM-83.9078 4.66387L-83.3552 5.29278L-83.3552 5.29278L-83.9078 4.66387ZM-82.7738 3.96195L-82.4427 4.73087L-81.9221 4.50665L-81.9369 3.94003L-82.7738 3.96195ZM-82.7776 3.818L-81.9407 3.79608L-81.9626 2.95916L-82.7995 2.98107L-82.7776 3.818ZM-87.2401 3.93485L-87.262 3.09793L-88.0989 3.11984L-88.077 3.95677L-87.2401 3.93485ZM-87.2363 4.0788L-88.0732 4.10071L-88.0579 4.68692L-87.5017 4.87282L-87.2363 4.0788ZM-86.0191 4.71916L-86.5381 5.37613L-86.5381 5.37613L-86.0191 4.71916ZM-85.3589 6.09435L-84.5451 5.89756L-84.5451 5.89756L-85.3589 6.09435ZM-84.9931 9.06179L-85.8286 9.11466L-85.8286 9.11466L-84.9931 9.06179ZM-84.3835 30.5092L-85.1093 30.9264L-83.5465 30.4873L-84.3835 30.5092ZM-98.8219 5.39053L-98.0961 4.9733L-98.0977 4.97052L-98.8219 5.39053ZM-99.5201 4.40046L-98.9438 3.79317L-98.9438 3.79317L-99.5201 4.40046ZM-106.675 4.39575L-106.697 3.55882L-107.534 3.58074L-107.512 4.41766L-106.675 4.39575ZM-106.671 4.5397L-107.508 4.56161L-107.492 5.18431L-106.89 5.34762L-106.671 4.5397ZM-105.504 5.08534L-106.023 5.74232L-105.504 5.08534ZM-104.844 6.46053L-105.658 6.65732L-104.844 6.46053ZM-104.477 9.47596L-105.313 9.52773L-104.477 9.47596ZM-103.805 35.1472L-104.642 35.1381L-103.805 35.1472ZM-104.015 38.1297L-104.838 37.9757L-104.015 38.1297ZM-104.65 39.5388L-104.097 40.1677L-104.097 40.1677L-104.65 39.5388ZM-105.784 40.2407L-106.621 40.2626L-106.589 41.4988L-105.453 41.0096L-105.784 40.2407ZM-106.622 40.2146L-106.618 40.3586L-104.945 40.3148L-104.948 40.1708L-106.622 40.2146ZM-105.76 41.1736L-101.297 41.0568L-101.341 39.3829L-105.803 39.4998L-105.76 41.1736ZM-100.482 40.1979L-100.486 40.054L-102.16 40.0978L-102.156 40.2417L-100.482 40.1979ZM-101.057 39.2819C-101.498 39.1347 -101.802 38.9514 -102.021 38.7785L-103.059 40.0925C-102.689 40.3844 -102.214 40.6609 -101.588 40.8699L-101.057 39.2819ZM-102.021 38.7785C-102.029 38.7726 -102.084 38.7223 -102.161 38.5568C-102.237 38.3953 -102.313 38.1686 -102.386 37.8635L-104.014 38.2571C-103.926 38.62 -103.819 38.9648 -103.678 39.2658C-103.539 39.5628 -103.346 39.866 -103.059 40.0925L-102.021 38.7785ZM-102.386 37.8635C-102.53 37.2684 -102.649 36.3221 -102.731 35.04L-104.402 35.1458C-104.319 36.4523 -104.193 37.5163 -104.014 38.2571L-102.386 37.8635ZM-102.731 35.04C-102.811 33.765 -102.859 31.9605 -102.919 29.6501L-104.593 29.6939C-104.533 31.9899 -104.485 33.8322 -104.402 35.1458L-102.731 35.04ZM-102.919 29.6501L-103.556 5.32243L-105.23 5.36626L-104.593 29.6939L-102.919 29.6501ZM-105.12 5.75954L-85.3428 40.3897L-83.8888 39.5593L-103.666 4.92915L-105.12 5.75954ZM-84.5938 40.8114L-83.9221 40.7938L-83.9659 39.12L-84.6377 39.1376L-84.5938 40.8114ZM-83.1071 39.935L-83.7743 14.4557L-85.4481 14.4996L-84.7809 39.9788L-83.1071 39.935ZM-83.7743 14.4557C-83.8348 12.1453 -83.8819 10.3408 -83.868 9.06332L-85.5424 9.04517C-85.5566 10.3613 -85.5082 12.2036 -85.4481 14.4996L-83.7743 14.4557ZM-83.868 9.06332C-83.8541 7.77876 -83.7848 6.82756 -83.6723 6.22566L-85.3181 5.9178C-85.4583 6.66698 -85.5282 7.73611 -85.5424 9.04517L-83.868 9.06332ZM-83.6723 6.22566C-83.6145 5.91713 -83.5507 5.68682 -83.4838 5.5216C-83.4152 5.35228 -83.3624 5.29908 -83.3552 5.29278L-84.4605 4.03496C-84.7349 4.27612 -84.9126 4.58908 -85.0357 4.89294C-85.1605 5.2009 -85.2495 5.5508 -85.3181 5.9178L-83.6723 6.22566ZM-83.3552 5.29278C-83.1411 5.10467 -82.8386 4.90142 -82.4427 4.73087L-83.105 3.19302C-83.6586 3.43147 -84.1113 3.72816 -84.4605 4.03496L-83.3552 5.29278ZM-81.9369 3.94003L-81.9407 3.79608L-83.6145 3.83991L-83.6108 3.98386L-81.9369 3.94003ZM-82.7995 2.98107L-87.262 3.09793L-87.2182 4.77177L-82.7557 4.65492L-82.7995 2.98107ZM-88.077 3.95677L-88.0732 4.10071L-86.3994 4.05688L-86.4032 3.91293L-88.077 3.95677ZM-87.5017 4.87282C-87.0614 5.02002 -86.7569 5.20329 -86.5381 5.37613L-85.5002 4.06219C-85.8697 3.77027 -86.3455 3.49381 -86.9709 3.28478L-87.5017 4.87282ZM-86.5381 5.37613C-86.5306 5.38204 -86.4751 5.43241 -86.3977 5.59791C-86.3222 5.7594 -86.2464 5.98604 -86.1727 6.29114L-84.5451 5.89756C-84.6329 5.53465 -84.7401 5.18989 -84.8808 4.88888C-85.0196 4.59188 -85.2135 4.28865 -85.5002 4.06219L-86.5381 5.37613ZM-86.1727 6.29114C-86.0287 6.88631 -85.9098 7.83259 -85.8286 9.11466L-84.1576 9.00891C-84.2402 7.70238 -84.366 6.63838 -84.5451 5.89756L-86.1727 6.29114ZM-85.8286 9.11466C-85.7479 10.3897 -85.7005 12.1942 -85.64 14.5046L-83.9662 14.4608C-84.0263 12.1647 -84.0744 10.3225 -84.1576 9.00891L-85.8286 9.11466ZM-85.64 14.5046L-85.2204 30.5311L-83.5465 30.4873L-83.9662 14.4608L-85.64 14.5046ZM-83.6576 30.092L-98.0961 4.9733L-99.5478 5.80775L-85.1093 30.9264L-83.6576 30.092ZM-98.0977 4.97052C-98.4092 4.43332 -98.7064 4.01849 -98.9438 3.79317L-100.096 5.00775C-100.038 5.0628 -99.8381 5.30717 -99.5462 5.81053L-98.0977 4.97052ZM-98.9438 3.79317C-99.3585 3.3996 -99.9185 3.38133 -100.267 3.39045L-100.223 5.0643C-100.158 5.0626 -100.107 5.06362 -100.067 5.06631C-100.027 5.06902 -100.004 5.07305 -99.9936 5.0753C-99.9737 5.07974 -100.03 5.07109 -100.096 5.00775L-98.9438 3.79317ZM-100.267 3.39045L-106.697 3.55882L-106.653 5.23267L-100.223 5.0643L-100.267 3.39045ZM-107.512 4.41766L-107.508 4.56161L-105.834 4.51778L-105.838 4.37383L-107.512 4.41766ZM-106.89 5.34762C-106.481 5.45883 -106.204 5.59923 -106.023 5.74232L-104.985 4.42837C-105.392 4.1067 -105.894 3.88334 -106.451 3.73177L-106.89 5.34762ZM-106.023 5.74232C-106.016 5.74823 -105.96 5.79859 -105.883 5.96409C-105.807 6.12558 -105.732 6.35223 -105.658 6.65732L-104.03 6.26374C-104.118 5.90083 -104.225 5.55607 -104.366 5.25507C-104.505 4.95806 -104.699 4.65484 -104.985 4.42837L-106.023 5.74232ZM-105.658 6.65732C-105.514 7.25175 -105.395 8.19738 -105.313 9.52773L-103.641 9.42418C-103.725 8.06997 -103.851 7.00532 -104.03 6.26374L-105.658 6.65732ZM-105.313 9.52773C-105.231 10.8514 -105.182 12.7047 -105.12 15.0627L-103.446 15.0189C-103.508 12.6745 -103.557 10.7851 -103.641 9.42418L-105.313 9.52773ZM-105.12 15.0627L-104.736 29.7457L-103.062 29.7018L-103.446 15.0189L-105.12 15.0627ZM-104.736 29.7457C-104.675 32.0561 -104.628 33.8606 -104.642 35.1381L-102.968 35.1562C-102.953 33.8401 -103.002 31.9979 -103.062 29.7018L-104.736 29.7457ZM-104.642 35.1381C-104.656 36.4226 -104.725 37.3739 -104.838 37.9757L-103.192 38.2836C-103.052 37.5344 -102.982 36.4653 -102.968 35.1562L-104.642 35.1381ZM-104.838 37.9757C-104.952 38.5855 -105.131 38.8471 -105.203 38.9099L-104.097 40.1677C-103.606 39.7356 -103.33 39.025 -103.192 38.2836L-104.838 37.9757ZM-105.203 38.9099C-105.417 39.098 -105.719 39.3012 -106.115 39.4718L-105.453 41.0096C-104.899 40.7712 -104.447 40.4745 -104.097 40.1677L-105.203 38.9099ZM-104.947 40.2188L-104.948 40.1708L-106.622 40.2146L-106.621 40.2626L-104.947 40.2188ZM-66.6383 39.6958L-66.6602 38.8589L-66.9284 38.8659L-67.1426 39.0275L-66.6383 39.6958ZM-63.196 39.1255L-63.4707 38.3346L-63.196 39.1255ZM-56.7442 34.299L-56.0356 34.745L-55.9006 34.5304L-55.9072 34.2771L-56.7442 34.299ZM-56.8872 27.0042L-56.0502 27.0241L-56.0502 27.0241L-56.8872 27.0042ZM-56.6558 24.8374L-55.8479 25.0569L-55.8479 25.0569L-56.6558 24.8374ZM-56.0104 23.8122L-55.5279 24.4964L-55.5279 24.4964L-56.0104 23.8122ZM-54.8234 23.3009L-54.582 24.1026L-53.9697 23.9182L-53.9865 23.279L-54.8234 23.3009ZM-54.8272 23.157L-53.9902 23.1351L-54.0122 22.2981L-54.8491 22.32L-54.8272 23.157ZM-63.7041 23.3894L-63.726 22.5525L-64.563 22.5744L-64.541 23.4113L-63.7041 23.3894ZM-63.7004 23.5334L-64.5373 23.5553L-64.521 24.178L-63.9198 24.3413L-63.7004 23.5334ZM-62.5362 23.983L-62.9822 24.6916L-62.5362 23.983ZM-61.838 24.9731L-62.6334 25.2346L-61.838 24.9731ZM-61.4974 26.9809L-62.3318 27.0492L-62.3318 27.0492L-61.4974 26.9809ZM-61.4769 35.0951L-60.6453 35.1918L-61.4769 35.0951ZM-62.274 37.6609L-61.5582 38.095L-62.274 37.6609ZM-63.9638 39.1456L-64.2949 38.3767L-63.9638 39.1456ZM-73.089 35.3992L-73.8277 35.7931L-73.089 35.3992ZM-74.9709 29.5425L-75.7939 29.6963L-74.9709 29.5425ZM-73.7293 7.27833L-72.9918 7.67453L-72.9918 7.67453L-73.7293 7.27833ZM-71.0696 4.32769L-70.6496 5.05193L-70.6496 5.05193L-71.0696 4.32769ZM-64.7471 3.72998L-64.9782 4.53466L-64.9782 4.53466L-64.7471 3.72998ZM-62.2635 5.05742L-61.7319 4.41062L-61.7319 4.41062L-62.2635 5.05742ZM-60.3281 7.45558L-61.0593 7.86333L-61.0593 7.86333L-60.3281 7.45558ZM-59.0822 11.0242L-59.9033 11.188L-59.7653 11.8796L-59.0603 11.8611L-59.0822 11.0242ZM-58.9383 11.0204L-58.9164 11.8573L-58.0794 11.8354L-58.1014 10.9985L-58.9383 11.0204ZM-59.1355 3.487L-58.2986 3.46509L-58.3205 2.62817L-59.1575 2.65008L-59.1355 3.487ZM-59.2795 3.49077L-59.3014 2.65385L-59.9375 2.67051L-60.0917 3.28789L-59.2795 3.49077ZM-61.8442 4.56628L-61.5243 3.79259L-61.5243 3.79259L-61.8442 4.56628ZM-63.2988 4.02817L-63.0334 3.23415L-63.0334 3.23415L-63.2988 4.02817ZM-65.1373 3.50012L-64.9284 2.68937L-64.9284 2.68937L-65.1373 3.50012ZM-72.6506 4.46512L-73.0084 3.70825L-73.0084 3.70825L-72.6506 4.46512ZM-79.9983 13.5886L-80.7927 13.3245L-79.9983 13.5886ZM-79.8235 29.4294L-79.0214 29.1895L-79.8235 29.4294ZM-76.9832 35.2131L-77.6471 35.7231L-76.9832 35.2131ZM-72.6159 38.796L-72.9792 39.5503L-72.6159 38.796ZM-66.9679 39.9445L-66.946 40.7814L-66.6778 40.7744L-66.4636 40.6128L-66.9679 39.9445ZM-66.6164 40.5327C-65.306 40.4984 -64.069 40.3149 -62.9214 39.9164L-63.4707 38.3346C-64.4167 38.6632 -65.4754 38.8279 -66.6602 38.8589L-66.6164 40.5327ZM-62.9214 39.9164C-61.8408 39.5411 -60.8363 39.1108 -59.9228 38.5715L-60.774 37.1296C-61.5628 37.5952 -62.4576 37.9828 -63.4707 38.3346L-62.9214 39.9164ZM-59.9228 38.5715C-58.9951 38.0238 -58.2306 37.3775 -57.5779 36.6896L-58.7925 35.537C-59.3546 36.1294 -59.9994 36.6723 -60.774 37.1296L-59.9228 38.5715ZM-57.5779 36.6896C-56.9406 36.0181 -56.4395 35.3865 -56.0356 34.745L-57.4527 33.853C-57.7864 34.3831 -58.2148 34.9283 -58.7925 35.537L-57.5779 36.6896ZM-55.9072 34.2771L-55.9965 30.8702L-57.6703 30.9141L-57.5811 34.3209L-55.9072 34.2771ZM-55.9965 30.8702C-56.0394 29.2296 -56.0724 27.9591 -56.0502 27.0241L-57.7241 26.9843C-57.7476 27.9712 -57.7128 29.2917 -57.6703 30.9141L-55.9965 30.8702ZM-56.0502 27.0241C-56.0278 26.081 -55.9521 25.4405 -55.8479 25.0569L-57.4637 24.6179C-57.6223 25.2015 -57.7009 26.0055 -57.7241 26.9843L-56.0502 27.0241ZM-55.8479 25.0569C-55.7541 24.7119 -55.6141 24.5572 -55.5279 24.4964L-56.4929 23.128C-56.9724 23.4661 -57.2947 23.9958 -57.4637 24.6179L-55.8479 25.0569ZM-55.5279 24.4964C-55.3589 24.3771 -55.085 24.254 -54.582 24.1026L-55.0647 22.4993C-55.6099 22.6634 -56.0962 22.8482 -56.4929 23.128L-55.5279 24.4964ZM-53.9865 23.279L-53.9902 23.1351L-55.6641 23.1789L-55.6603 23.3228L-53.9865 23.279ZM-54.8491 22.32L-63.726 22.5525L-63.6822 24.2263L-54.8052 23.9939L-54.8491 22.32ZM-64.541 23.4113L-64.5373 23.5553L-62.8634 23.5115L-62.8672 23.3675L-64.541 23.4113ZM-63.9198 24.3413C-63.4471 24.4697 -63.1628 24.5779 -62.9822 24.6916L-62.0902 23.2745C-62.4954 23.0194 -62.9864 22.8598 -63.4809 22.7254L-63.9198 24.3413ZM-62.9822 24.6916C-62.8929 24.7478 -62.745 24.8949 -62.6334 25.2346L-61.0427 24.7116C-61.2441 24.0992 -61.5936 23.5871 -62.0902 23.2745L-62.9822 24.6916ZM-62.6334 25.2346C-62.507 25.6188 -62.4003 26.2124 -62.3318 27.0492L-60.6629 26.9126C-60.7356 26.0245 -60.856 25.2796 -61.0427 24.7116L-62.6334 25.2346ZM-62.3318 27.0492C-62.2635 27.8829 -62.2338 29.0067 -62.1946 30.5043L-60.5207 30.4605C-60.5594 28.9831 -60.59 27.8038 -60.6629 26.9126L-62.3318 27.0492ZM-62.1946 30.5043L-62.172 31.368L-60.4981 31.3242L-60.5207 30.4605L-62.1946 30.5043ZM-62.172 31.368C-62.1339 32.8202 -62.196 34.0304 -62.3086 34.9985L-60.6453 35.1918C-60.5227 34.137 -60.4582 32.847 -60.4981 31.3242L-62.172 31.368ZM-62.3086 34.9985C-62.4165 35.9276 -62.6549 36.6744 -62.9899 37.2267L-61.5582 38.095C-61.0647 37.2812 -60.7725 36.2855 -60.6453 35.1918L-62.3086 34.9985ZM-62.9899 37.2267C-63.3168 37.7657 -63.7477 38.141 -64.2949 38.3767L-63.6326 39.9145C-62.7554 39.5367 -62.0598 38.9222 -61.5582 38.095L-62.9899 37.2267ZM-64.2949 38.3767C-64.8723 38.6254 -65.7108 38.786 -66.8054 38.8147L-66.7616 40.4885C-65.553 40.4569 -64.4796 40.2794 -63.6326 39.9145L-64.2949 38.3767ZM-66.8054 38.8147C-67.8917 38.8431 -68.8852 38.5799 -69.8126 37.9826L-70.7193 39.3903C-69.4977 40.1772 -68.1705 40.5254 -66.7616 40.4885L-66.8054 38.8147ZM-69.8126 37.9826C-70.7372 37.387 -71.5904 36.4303 -72.3502 35.0053L-73.8277 35.7931C-72.9716 37.3989 -71.9436 38.6016 -70.7193 39.3903L-69.8126 37.9826ZM-72.3502 35.0053C-73.1052 33.5893 -73.711 31.7257 -74.148 29.3886L-75.7939 29.6963C-75.3374 32.1374 -74.6886 34.1784 -73.8277 35.7931L-72.3502 35.0053ZM-74.148 29.3886C-74.584 27.0562 -74.8488 24.2289 -74.9372 20.8506L-76.6111 20.8944C-76.5211 24.3298 -76.2512 27.2505 -75.7939 29.6963L-74.148 29.3886ZM-74.9372 20.8506C-75.022 17.6139 -74.9011 14.9338 -74.5397 12.7902L-76.1908 12.5118C-76.5775 14.8053 -76.6972 17.6053 -76.6111 20.8944L-74.9372 20.8506ZM-74.5397 12.7902C-74.1731 10.6164 -73.6638 8.92557 -72.9918 7.67453L-74.4668 6.88212C-75.2599 8.35837 -75.8092 10.2485 -76.1908 12.5118L-74.5397 12.7902ZM-72.9918 7.67453C-72.3119 6.40894 -71.5226 5.55817 -70.6496 5.05193L-71.4896 3.60346C-72.6978 4.3041 -73.6816 5.42042 -74.4668 6.88213L-72.9918 7.67453ZM-70.6496 5.05193C-69.7349 4.52144 -68.7285 4.23959 -67.6155 4.21044L-67.6593 2.5366C-69.0415 2.57279 -70.3233 2.92705 -71.4896 3.60346L-70.6496 5.05193ZM-67.6155 4.21044C-66.6887 4.18617 -65.8109 4.29549 -64.9782 4.53466L-64.516 2.92531C-65.5218 2.63642 -66.5708 2.50809 -67.6593 2.5366L-67.6155 4.21044ZM-64.9782 4.53466C-64.1803 4.76383 -63.4525 5.1639 -62.7951 5.70423L-61.7319 4.41062C-62.5466 3.74107 -63.4754 3.22419 -64.516 2.92531L-64.9782 4.53466ZM-62.7951 5.70423C-62.1539 6.23112 -61.5722 6.9436 -61.0593 7.86333L-59.5969 7.04783C-60.1924 5.97989 -60.9009 5.09361 -61.7319 4.41062L-62.7951 5.70423ZM-61.0593 7.86333C-60.5563 8.76522 -60.1665 9.86849 -59.9033 11.188L-58.2612 10.8604C-58.5507 9.40942 -58.9914 8.13361 -59.5969 7.04783L-61.0593 7.86333ZM-59.0603 11.8611L-58.9164 11.8573L-58.9602 10.1835L-59.1041 10.1873L-59.0603 11.8611ZM-58.1014 10.9985L-58.2986 3.46509L-59.9725 3.50892L-59.7752 11.0423L-58.1014 10.9985ZM-59.1575 2.65008L-59.3014 2.65385L-59.2576 4.3277L-59.1136 4.32393L-59.1575 2.65008ZM-60.0917 3.28789C-60.1805 3.6433 -60.2911 3.82527 -60.3672 3.90779C-60.4242 3.96958 -60.462 3.98069 -60.5151 3.98208L-60.4712 5.65592C-59.9485 5.64223 -59.4881 5.42422 -59.1365 5.04316C-58.8041 4.68283 -58.5958 4.20824 -58.4672 3.69366L-60.0917 3.28789ZM-60.5151 3.98208C-60.8735 3.99146 -61.1916 3.93014 -61.5243 3.79259L-62.1641 5.33997C-61.623 5.56367 -61.0725 5.67167 -60.4712 5.65592L-60.5151 3.98208ZM-61.5243 3.79259C-61.9821 3.60334 -62.4855 3.4173 -63.0334 3.23415L-63.5642 4.8222C-63.0465 4.99527 -62.5801 5.16797 -62.1641 5.33997L-61.5243 3.79259ZM-63.0334 3.23415C-63.5936 3.04688 -64.2443 2.86561 -64.9284 2.68937L-65.3461 4.31086C-64.6766 4.48331 -64.0697 4.65324 -63.5642 4.8222L-63.0334 3.23415ZM-64.9284 2.68937C-65.7071 2.48878 -66.6577 2.41433 -67.7098 2.44189L-67.666 4.11573C-66.7028 4.09051 -65.921 4.16277 -65.3461 4.31086L-64.9284 2.68937ZM-67.7098 2.44189C-69.5032 2.48885 -71.2885 2.89504 -73.0084 3.70825L-72.2927 5.22199C-70.7874 4.51026 -69.2315 4.15672 -67.666 4.11573L-67.7098 2.44189ZM-73.0084 3.70825C-74.7396 4.5268 -76.2944 5.7488 -77.6239 7.35844L-76.3329 8.42473C-75.1491 6.99154 -73.7867 5.92839 -72.2927 5.22199L-73.0084 3.70825ZM-77.6239 7.35844C-78.9588 8.97473 -80.0103 10.9704 -80.7927 13.3245L-79.2038 13.8526C-78.4729 11.6536 -77.5111 9.85127 -76.3329 8.42473L-77.6239 7.35844ZM-80.7927 13.3245C-81.589 15.7203 -81.907 18.5204 -81.8237 21.7032L-80.1498 21.6593C-80.2298 18.6042 -79.9208 16.0101 -79.2038 13.8526L-80.7927 13.3245ZM-81.8237 21.7032C-81.7466 24.6469 -81.3334 27.3034 -80.6256 29.6694L-79.0214 29.1895C-79.6819 26.9817 -80.0761 24.4736 -80.1498 21.6593L-81.8237 21.7032ZM-80.6256 29.6694C-79.9175 32.0365 -78.9125 34.0756 -77.6471 35.7231L-76.3192 34.7031C-77.44 33.2439 -78.3614 31.3962 -79.0214 29.1895L-80.6256 29.6694ZM-77.6471 35.7231C-76.3778 37.3756 -74.8042 38.6713 -72.9792 39.5503L-72.2526 38.0417C-73.8316 37.2812 -75.2024 36.1571 -76.3192 34.7031L-77.6471 35.7231ZM-72.9792 39.5503C-71.1463 40.433 -69.1298 40.8386 -66.946 40.7814L-66.9898 39.1076C-68.9325 39.1585 -70.6814 38.7984 -72.2526 38.0417L-72.9792 39.5503ZM-66.4636 40.6128L-66.134 40.3641L-67.1426 39.0275L-67.4722 39.2762L-66.4636 40.6128ZM-53.5844 38.8258L-52.7475 38.8039L-52.7779 37.6427L-53.8699 38.0388L-53.5844 38.8258ZM-53.5807 38.9698L-54.4176 38.9917L-54.3957 39.8286L-53.5588 39.8067L-53.5807 38.9698ZM-32.7684 37.9446L-31.9434 38.0872L-31.9374 38.0523L-31.9343 38.017L-32.7684 37.9446ZM-32.3258 32.8433L-31.4917 32.9156L-31.4107 31.9818L-32.3477 32.0063L-32.3258 32.8433ZM-32.5177 32.8483L-32.5396 32.0114L-33.1995 32.0287L-33.3366 32.6743L-32.5177 32.8483ZM-35.1347 37.4304L-35.5689 36.7146L-35.1347 37.4304ZM-37.467 38.2117L-37.3576 39.0417L-37.467 38.2117ZM-46.772 38.5994L-47.609 38.6213L-47.587 39.4582L-46.7501 39.4363L-46.772 38.5994ZM-47.2809 19.1661L-47.3028 18.3291L-48.1398 18.3511L-48.1178 19.188L-47.2809 19.1661ZM-41.0116 20.2023L-41.6328 20.7636L-41.6328 20.7636L-41.0116 20.2023ZM-40.3577 21.3376L-39.5707 21.0521L-39.5707 21.0521L-40.3577 21.3376ZM-39.9879 22.6243L-40.8001 22.8273L-40.6373 23.4788L-39.966 23.4613L-39.9879 22.6243ZM-39.8919 22.6218L-39.87 23.4587L-39.0331 23.4368L-39.055 22.5999L-39.8919 22.6218ZM-40.0917 14.9924L-39.2548 14.9705L-39.2767 14.1336L-40.1136 14.1555L-40.0917 14.9924ZM-40.1877 14.995L-40.2096 14.158L-40.881 14.1756L-41.0094 14.8348L-40.1877 14.995ZM-40.4896 16.2993L-39.6887 16.5432L-39.6887 16.5432L-40.4896 16.2993ZM-41.0833 17.4672L-41.733 16.9392L-41.733 16.9392L-41.0833 17.4672ZM-42.3082 18.3636L-41.942 19.1165L-41.942 19.1165L-42.3082 18.3636ZM-47.2897 18.8302L-48.1266 18.8521L-48.1047 19.689L-47.2678 19.6671L-47.2897 18.8302ZM-47.7081 2.85165L-47.73 2.01473L-48.567 2.03665L-48.545 2.87357L-47.7081 2.85165ZM-39.3527 2.87294L-39.4687 3.70208L-39.4687 3.70208L-39.3527 2.87294ZM-37.1254 3.58288L-37.5453 4.30714L-37.5453 4.30714L-37.1254 3.58288ZM-35.503 5.02891L-36.1786 5.52331L-36.1786 5.52331L-35.503 5.02891ZM-34.3858 7.35246L-35.1811 7.61394L-34.9865 8.20569L-34.3638 8.18938L-34.3858 7.35246ZM-34.1938 7.34743L-34.1719 8.18435L-33.1711 8.15815L-33.374 7.17778L-34.1938 7.34743ZM-35.0734 3.097L-35.8988 3.23705L-35.8963 3.2519L-35.8932 3.26665L-35.0734 3.097ZM-35.3284 2.52748L-35.6831 3.28584L-35.683 3.28585L-35.3284 2.52748ZM-54.6203 2.93662L-54.6422 2.0997L-55.4791 2.12161L-55.4572 2.95854L-54.6203 2.93662ZM-54.6165 3.08057L-55.4534 3.10249L-55.4371 3.72519L-54.836 3.8885L-54.6165 3.08057ZM-53.4498 3.62622L-52.9309 2.96925L-52.9309 2.96924L-53.4498 3.62622ZM-52.4225 8.01683L-51.5869 7.96506L-52.4225 8.01683ZM-51.7465 33.832L-50.9094 33.84L-51.7465 33.832ZM-51.9553 36.8625L-51.1323 37.0164L-51.9553 36.8625ZM-52.5906 38.2716L-53.1432 37.6427L-52.5906 38.2716ZM-53.7271 38.8776L-54.0126 38.0905L-53.4657 39.6729L-53.7271 38.8776ZM-54.4214 38.8477L-54.4176 38.9917L-52.7438 38.9478L-52.7475 38.8039L-54.4214 38.8477ZM-53.5588 39.8067L-33.2137 39.2739L-33.2576 37.6001L-53.6026 38.1328L-53.5588 39.8067ZM-33.2137 39.2739C-33.1389 39.272 -32.8483 39.2766 -32.5551 39.1202L-33.3429 37.6427C-33.2878 37.6134 -33.2399 37.6029 -33.2174 37.5995C-33.2079 37.5981 -33.2046 37.5981 -33.2117 37.5985C-33.2205 37.599 -33.2314 37.5994 -33.2576 37.6001L-33.2137 39.2739ZM-32.5551 39.1202C-32.2492 38.9571 -32.1163 38.6875 -32.0578 38.5362C-31.9979 38.3809 -31.9654 38.2144 -31.9434 38.0872L-33.5934 37.802C-33.6022 37.8531 -33.6094 37.8888 -33.6154 37.9138C-33.6216 37.9399 -33.6238 37.9433 -33.6198 37.9329C-33.6175 37.9271 -33.5541 37.7553 -33.3429 37.6427L-32.5551 39.1202ZM-31.9343 38.017L-31.4917 32.9156L-33.1599 32.7709L-33.6025 37.8722L-31.9343 38.017ZM-32.3477 32.0063L-32.5396 32.0114L-32.4958 33.6852L-32.3038 33.6802L-32.3477 32.0063ZM-33.3366 32.6743C-33.58 33.8194 -33.9134 34.7045 -34.2749 35.3444L-32.817 36.168C-32.3525 35.3458 -31.9684 34.2914 -31.6988 33.0223L-33.3366 32.6743ZM-34.2749 35.3444C-34.6235 35.9615 -35.0401 36.3938 -35.5689 36.7146L-34.7004 38.1461C-33.9058 37.664 -33.2944 37.0131 -32.817 36.168L-34.2749 35.3444ZM-35.5689 36.7146C-36.1187 37.0481 -36.7665 37.2749 -37.5764 37.3817L-37.3576 39.0417C-36.3492 38.9088 -35.4741 38.6155 -34.7004 38.1461L-35.5689 36.7146ZM-37.5764 37.3817C-38.4479 37.4965 -39.5194 37.572 -40.748 37.6042L-40.7042 39.278C-39.4376 39.2448 -38.3045 39.1665 -37.3576 39.0417L-37.5764 37.3817ZM-40.748 37.6042L-46.794 37.7625L-46.7501 39.4363L-40.7042 39.278L-40.748 37.6042ZM-45.9351 38.5775L-46.444 19.1441L-48.1178 19.188L-47.609 38.6213L-45.9351 38.5775ZM-47.259 20.003L-44.428 19.9289L-44.4718 18.255L-47.3028 18.3291L-47.259 20.003ZM-44.428 19.9289C-43.5513 19.9059 -42.9746 19.9871 -42.6082 20.1422L-41.9555 18.6003C-42.6573 18.3032 -43.5251 18.2302 -44.4718 18.255L-44.428 19.9289ZM-42.6082 20.1422C-42.1364 20.342 -41.8178 20.5589 -41.6328 20.7636L-40.3905 19.641C-40.7989 19.189 -41.3591 18.8528 -41.9555 18.6003L-42.6082 20.1422ZM-41.6328 20.7636C-41.4278 20.9905 -41.2742 21.2661 -41.1447 21.623L-39.5707 21.0521C-39.7517 20.5529 -40.0021 20.0708 -40.3905 19.641L-41.6328 20.7636ZM-41.1447 21.623C-41.0066 22.004 -40.9089 22.3918 -40.8001 22.8273L-39.1757 22.4214C-39.2814 21.9982 -39.3983 21.5273 -39.5707 21.0521L-41.1447 21.623ZM-39.966 23.4613L-39.87 23.4587L-39.9138 21.7849L-40.0098 21.7874L-39.966 23.4613ZM-39.055 22.5999L-39.2548 14.9705L-40.9286 15.0144L-40.7289 22.6437L-39.055 22.5999ZM-40.1136 14.1555L-40.2096 14.158L-40.1658 15.8319L-40.0698 15.8294L-40.1136 14.1555ZM-41.0094 14.8348C-41.0953 15.2754 -41.1725 15.6677 -41.2905 16.0554L-39.6887 16.5432C-39.5415 16.0596 -39.4494 15.5833 -39.3659 15.1551L-41.0094 14.8348ZM-41.2905 16.0554C-41.4012 16.4187 -41.5401 16.7019 -41.733 16.9392L-40.4336 17.9953C-40.0682 17.5457 -39.8434 17.0512 -39.6887 16.5432L-41.2905 16.0554ZM-41.733 16.9392C-41.9069 17.1533 -42.2138 17.3866 -42.6745 17.6108L-41.942 19.1165C-41.3596 18.8331 -40.8178 18.4681 -40.4336 17.9953L-41.733 16.9392ZM-42.6745 17.6108C-43.0323 17.7848 -43.604 17.8962 -44.4806 17.9191L-44.4368 19.593C-43.4901 19.5682 -42.6272 19.4499 -41.942 19.1165L-42.6745 17.6108ZM-44.4806 17.9191L-47.3116 17.9933L-47.2678 19.6671L-44.4368 19.593L-44.4806 17.9191ZM-46.4528 18.8083L-46.8712 2.82974L-48.545 2.87357L-48.1266 18.8521L-46.4528 18.8083ZM-47.6862 3.68858L-42.36 3.54911L-42.4039 1.87526L-47.73 2.01473L-47.6862 3.68858ZM-42.36 3.54911C-41.2552 3.52017 -40.2911 3.58704 -39.4687 3.70208L-39.2367 2.0438C-40.1493 1.91617 -41.2055 1.84388 -42.4039 1.87526L-42.36 3.54911ZM-39.4687 3.70208C-38.676 3.81294 -38.061 4.00814 -37.5453 4.30714L-36.7054 2.85862C-37.4574 2.42254 -38.2944 2.1756 -39.2367 2.0438L-39.4687 3.70208ZM-37.5453 4.30714C-37.0033 4.62143 -36.5529 5.01183 -36.1786 5.52331L-34.8273 4.5345C-35.3494 3.82102 -35.9797 3.2794 -36.7054 2.85862L-37.5453 4.30714ZM-36.1786 5.52331C-35.7998 6.04099 -35.4778 6.71145 -35.1811 7.61394L-33.5904 7.09098C-33.9198 6.0892 -34.3098 5.24177 -34.8273 4.5345L-36.1786 5.52331ZM-34.3638 8.18938L-34.1719 8.18435L-34.2157 6.51051L-34.4077 6.51553L-34.3638 8.18938ZM-33.374 7.17778L-34.2535 2.92734L-35.8932 3.26665L-35.0136 7.51709L-33.374 7.17778ZM-34.248 2.95694C-34.2846 2.74086 -34.3417 2.53179 -34.4277 2.34827C-34.4978 2.19887 -34.6548 1.91826 -34.9737 1.76911L-35.683 3.28585C-35.8061 3.22832 -35.8756 3.15281 -35.9036 3.11859C-35.9196 3.09897 -35.9299 3.08328 -35.9355 3.07406C-35.9384 3.06924 -35.9405 3.06555 -35.9417 3.06317C-35.943 3.06078 -35.9436 3.05945 -35.9437 3.05934C-35.9437 3.05923 -35.942 3.06292 -35.939 3.07106C-35.936 3.07913 -35.9321 3.09068 -35.9277 3.10607C-35.9187 3.13717 -35.9084 3.1804 -35.8988 3.23705L-34.248 2.95694ZM-34.9737 1.76912C-35.1503 1.68652 -35.4262 1.59651 -35.7367 1.60464L-35.6928 3.27848C-35.7029 3.27875 -35.7084 3.27808 -35.7089 3.27802C-35.7095 3.27795 -35.7075 3.27818 -35.7031 3.27925C-35.6988 3.28031 -35.694 3.28174 -35.6895 3.28334C-35.6849 3.28498 -35.6825 3.28609 -35.6831 3.28584L-34.9737 1.76912ZM-35.7367 1.60464L-54.6422 2.0997L-54.5984 3.77354L-35.6928 3.27848L-35.7367 1.60464ZM-55.4572 2.95854L-55.4534 3.10249L-53.7796 3.05866L-53.7833 2.9147L-55.4572 2.95854ZM-54.836 3.8885C-54.4267 3.9997 -54.1499 4.14011 -53.9688 4.28319L-52.9309 2.96924C-53.3381 2.64757 -53.8391 2.42421 -54.397 2.27265L-54.836 3.8885ZM-53.9688 4.28319C-53.9613 4.2891 -53.9058 4.33947 -53.8284 4.50497C-53.7529 4.66646 -53.6771 4.89311 -53.6033 5.1982L-51.9758 4.80462C-52.0636 4.44171 -52.1708 4.09695 -52.3115 3.79594C-52.4504 3.49894 -52.6442 3.19572 -52.9309 2.96925L-53.9688 4.28319ZM-53.6033 5.1982C-53.4596 5.79262 -53.3406 6.73825 -53.2581 8.0686L-51.5869 7.96506C-51.6708 6.61085 -51.7965 5.54619 -51.9758 4.80462L-53.6033 5.1982ZM-53.2581 8.0686C-53.1761 9.3923 -53.1275 11.2456 -53.0657 13.6036L-51.3919 13.5598C-51.4533 11.2154 -51.5026 9.32593 -51.5869 7.96506L-53.2581 8.0686ZM-53.0657 13.6036L-52.6812 28.2866L-51.0074 28.2427L-51.3919 13.5598L-53.0657 13.6036ZM-52.6812 28.2866C-52.6195 30.6446 -52.5711 32.4978 -52.5837 33.824L-50.9094 33.84C-50.8964 32.4765 -50.946 30.5871 -51.0074 28.2427L-52.6812 28.2866ZM-52.5837 33.824C-52.5964 35.1569 -52.6658 36.1074 -52.7782 36.7086L-51.1323 37.0164C-50.9921 36.2665 -50.9223 35.1967 -50.9094 33.84L-52.5837 33.824ZM-52.7782 36.7086C-52.8923 37.3183 -53.0718 37.5799 -53.1432 37.6427L-52.038 38.9005C-51.5462 38.4684 -51.271 37.7578 -51.1323 37.0164L-52.7782 36.7086ZM-53.1432 37.6427C-53.3166 37.7951 -53.5857 37.9498 -53.9886 38.0822L-53.4657 39.6729C-52.9165 39.4923 -52.4278 39.2431 -52.038 38.9005L-53.1432 37.6427ZM-53.4417 39.6646L-53.299 39.6128L-53.8699 38.0388L-54.0126 38.0905L-53.4417 39.6646ZM-31.1821 38.3832L-32.019 38.4051L-31.9971 39.2421L-31.1602 39.2202L-31.1821 38.3832ZM-22.1612 38.147L-22.1393 38.9839L-21.3024 38.962L-21.3243 38.1251L-22.1612 38.147ZM-22.165 38.0031L-21.328 37.9811L-21.3448 37.3419L-21.9659 37.1899L-22.165 38.0031ZM-23.3796 37.4587L-23.8986 38.1156L-23.3796 37.4587ZM-24.0386 36.1315L-24.8524 36.3283L-24.8524 36.3283L-24.0386 36.1315ZM-24.4057 33.116L-23.5701 33.0643L-24.4057 33.116ZM-24.7929 20.1617L-24.8148 19.3248L-25.6517 19.3467L-25.6298 20.1837L-24.7929 20.1617ZM-21.3318 20.3112L-21.1327 19.498L-21.3318 20.3112ZM-19.9581 21.4276L-19.2568 20.9703L-19.9581 21.4276ZM-18.8751 24.2802L-18.0628 24.0773L-18.8751 24.2802ZM-17.6774 29.6747L-18.496 29.8505L-18.4957 29.8518L-17.6774 29.6747ZM-16.3623 34.0578L-17.1264 34.3999L-16.3623 34.0578ZM-14.6605 36.7022L-14.0842 36.0949L-14.6605 36.7022ZM-12.4673 37.9412L-12.6824 38.7503L-12.4673 37.9412ZM-7.28882 37.6615L-6.87273 38.388L-7.28882 37.6615ZM-5.87821 36.5202L-5.23393 37.0548L-4.73376 36.4521L-5.30191 35.9129L-5.87821 36.5202ZM-6.02593 36.38L-5.44963 35.7727L-6.10543 35.1504L-6.67564 35.852L-6.02593 36.38ZM-6.91751 37.1716L-7.35177 36.4559L-6.91751 37.1716ZM-9.70432 37.1006L-10.1503 37.8091L-9.70432 37.1006ZM-10.8936 35.6912L-11.6324 36.0851L-10.8936 35.6912ZM-11.9224 33.0773L-12.7267 33.3097L-11.9224 33.0773ZM-12.8916 29.0692L-13.7129 29.2323L-13.7112 29.2405L-12.8916 29.0692ZM-14.1526 24.9248L-13.3938 24.571L-14.1526 24.9248ZM-15.9516 22.235L-15.3547 21.6479L-15.9516 22.235ZM-18.2963 20.7119L-18.0134 19.9239L-18.2963 20.7119ZM-21.1916 20.1635L-21.1717 19.3265L-21.2456 20.9989L-21.1916 20.1635ZM-20.2307 20.1863L-20.2506 21.0233L-20.2297 21.0238L-20.2088 21.0232L-20.2307 20.1863ZM-15.8793 19.4962L-16.123 18.6952L-16.123 18.6952L-15.8793 19.4962ZM-12.2777 17.6733L-12.7877 17.0093L-12.2777 17.6733ZM-9.85926 14.6809L-10.6119 14.3143L-10.6119 14.3143L-9.85926 14.6809ZM-12.3467 4.0384L-12.785 4.7517L-12.3467 4.0384ZM-32.0727 2.53826L-32.0946 1.70134L-32.9316 1.72325L-32.9097 2.56017L-32.0727 2.53826ZM-32.069 2.68221L-32.9059 2.70413L-32.8896 3.32682L-32.2884 3.49013L-32.069 2.68221ZM-30.9023 3.22785L-31.4212 3.88483L-30.9023 3.22785ZM-30.2421 4.60305L-31.0558 4.79983L-30.2421 4.60305ZM-29.875 7.61847L-30.7106 7.67024L-29.875 7.61847ZM-29.199 33.4336L-30.0362 33.4257L-29.199 33.4336ZM-29.4077 36.4641L-30.2307 36.3102L-29.4077 36.4641ZM-30.0431 37.8732L-30.5957 37.2443L-30.0431 37.8732ZM-31.1796 38.4792L-32.0165 38.5011L-31.9871 39.626L-30.9181 39.2745L-31.1796 38.4792ZM-25.2035 2.64648L-25.2254 1.80956L-26.0601 1.83141L-26.0405 2.66611L-25.2035 2.64648ZM-18.1841 2.99085L-18.417 3.79502L-18.417 3.79502L-18.1841 2.99085ZM-15.6475 4.50897L-16.2656 5.07366L-16.2656 5.07366L-15.6475 4.50897ZM-15.1593 17.6527L-14.4669 18.1234L-15.1593 17.6527ZM-24.7916 20.2097L-25.6286 20.2293L-25.6089 21.0686L-24.7697 21.0466L-24.7916 20.2097ZM-32.0228 38.2612L-32.019 38.4051L-30.3452 38.3613L-30.349 38.2174L-32.0228 38.2612ZM-31.1602 39.2202L-22.1393 38.9839L-22.1831 37.3101L-31.204 37.5463L-31.1602 39.2202ZM-21.3243 38.1251L-21.328 37.9811L-23.0019 38.025L-22.9981 38.1689L-21.3243 38.1251ZM-21.9659 37.1899C-22.4153 37.0799 -22.685 36.9405 -22.8607 36.8017L-23.8986 38.1156C-23.4859 38.4416 -22.9778 38.666 -22.364 38.8163L-21.9659 37.1899ZM-22.8607 36.8017C-22.9206 36.7544 -23.071 36.5711 -23.2249 35.9347L-24.8524 36.3283C-24.6832 37.0278 -24.427 37.6982 -23.8986 38.1156L-22.8607 36.8017ZM-23.2249 35.9347C-23.3686 35.3402 -23.4876 34.3946 -23.5701 33.0643L-25.2413 33.1678C-25.1574 34.522 -25.0317 35.5867 -24.8524 36.3283L-23.2249 35.9347ZM-23.5701 33.0643C-23.6521 31.7406 -23.7007 29.8873 -23.7625 27.5293L-25.4363 27.5731C-25.3749 29.9175 -25.3256 31.8069 -25.2413 33.1678L-23.5701 33.0643ZM-23.7625 27.5293L-23.956 20.1398L-25.6298 20.1837L-25.4363 27.5731L-23.7625 27.5293ZM-24.771 20.9987L-23.5714 20.9672L-23.6152 19.2934L-24.8148 19.3248L-24.771 20.9987ZM-23.5714 20.9672C-22.6587 20.9433 -21.9677 21.0175 -21.5309 21.1244L-21.1327 19.498C-21.7591 19.3447 -22.6086 19.267 -23.6152 19.2934L-23.5714 20.9672ZM-21.5309 21.1244C-21.2805 21.1857 -20.9937 21.3723 -20.6594 21.8849L-19.2568 20.9703C-19.723 20.2555 -20.32 19.6969 -21.1327 19.498L-21.5309 21.1244ZM-20.6594 21.8849C-20.3357 22.3813 -20.0018 23.2246 -19.6873 24.4832L-18.0628 24.0773C-18.392 22.7598 -18.7801 21.7014 -19.2568 20.9703L-20.6594 21.8849ZM-19.6873 24.4832C-19.3698 25.7538 -18.9901 27.5494 -18.496 29.8505L-16.8589 29.499C-17.3491 27.2163 -17.7367 25.3827 -18.0628 24.0773L-19.6873 24.4832ZM-18.4957 29.8518C-18.1088 31.6393 -17.6714 33.1825 -17.1264 34.3999L-15.5981 33.7157C-16.073 32.655 -16.4813 31.2434 -16.8592 29.4976L-18.4957 29.8518ZM-17.1264 34.3999C-16.5977 35.5807 -15.992 36.5927 -15.2367 37.3095L-14.0842 36.0949C-14.6091 35.5967 -15.1068 34.813 -15.5981 33.7157L-17.1264 34.3999ZM-15.2367 37.3095C-14.499 38.0096 -13.645 38.4944 -12.6824 38.7503L-12.2521 37.1321C-12.9336 36.9509 -13.5417 36.6097 -14.0842 36.0949L-15.2367 37.3095ZM-12.6824 38.7503C-11.7839 38.9892 -10.7886 39.1189 -9.70024 39.0904L-9.74407 37.4165C-10.671 37.4408 -11.5066 37.3303 -12.2521 37.1321L-12.6824 38.7503ZM-9.70024 39.0904C-8.59047 39.0613 -7.63601 38.8252 -6.87273 38.388L-7.70489 36.935C-8.17159 37.2023 -8.83853 37.3928 -9.74407 37.4165L-9.70024 39.0904ZM-6.87273 38.388C-6.18475 37.994 -5.63324 37.5361 -5.23393 37.0548L-6.52249 35.9856C-6.77484 36.2897 -7.1629 36.6246 -7.70489 36.935L-6.87273 38.388ZM-5.30191 35.9129L-5.44963 35.7727L-6.60222 36.9873L-6.4545 37.1275L-5.30191 35.9129ZM-6.67564 35.852C-6.90007 36.1282 -7.11053 36.3095 -7.35177 36.4559L-6.48325 37.8874C-6.06278 37.6323 -5.71 37.3187 -5.37623 36.9081L-6.67564 35.852ZM-7.35177 36.4559C-7.51607 36.5555 -7.78671 36.645 -8.27542 36.6578L-8.23159 38.3316C-7.5687 38.3143 -6.98066 38.1892 -6.48325 37.8874L-7.35177 36.4559ZM-8.27542 36.6578C-8.64099 36.6674 -8.96131 36.579 -9.25832 36.3921L-10.1503 37.8091C-9.56855 38.1753 -8.92166 38.3497 -8.23159 38.3316L-8.27542 36.6578ZM-9.25832 36.3921C-9.53136 36.2202 -9.8412 35.8856 -10.1549 35.2973L-11.6324 36.0851C-11.2391 36.8227 -10.7561 37.4278 -10.1503 37.8091L-9.25832 36.3921ZM-10.1549 35.2973C-10.4783 34.6907 -10.8158 33.8906 -11.1181 32.8448L-12.7267 33.3097C-12.3954 34.456 -12.0159 35.3658 -11.6324 36.0851L-10.1549 35.2973ZM-11.1181 32.8448C-11.4272 31.7752 -11.7455 30.4609 -12.0722 28.898L-13.7112 29.2405C-13.3791 30.8294 -13.0511 32.1871 -12.7267 33.3097L-11.1181 32.8448ZM-12.0705 28.9062C-12.4105 27.1934 -12.8477 25.7423 -13.3938 24.571L-14.9114 25.2786C-14.44 26.2895 -14.0366 27.6013 -13.7128 29.2323L-12.0705 28.9062ZM-13.3938 24.571C-13.9342 23.4121 -14.5843 22.4313 -15.3547 21.6479L-16.5485 22.8221C-15.9377 23.4431 -15.3885 24.2554 -14.9114 25.2786L-13.3938 24.571ZM-15.3547 21.6479C-16.1279 20.8618 -17.0151 20.2823 -18.0134 19.9239L-18.5792 21.4998C-17.8324 21.7679 -17.1565 22.2039 -16.5485 22.8221L-15.3547 21.6479ZM-18.0134 19.9239C-18.9806 19.5766 -20.0272 19.3997 -21.1377 19.328L-21.2456 20.9989C-20.2397 21.0639 -19.357 21.2206 -18.5792 21.4998L-18.0134 19.9239ZM-21.2115 21.0004L-20.2506 21.0233L-20.2108 19.3493L-21.1717 19.3265L-21.2115 21.0004ZM-20.2088 21.0232C-18.6017 20.9812 -17.0923 20.7403 -15.6356 20.2971L-16.123 18.6952C-17.4291 19.0926 -18.7888 19.3111 -20.2526 19.3494L-20.2088 21.0232ZM-15.6356 20.2971C-14.1637 19.8493 -12.8879 19.1975 -11.7678 18.3372L-12.7877 17.0093C-13.7387 17.7398 -14.8319 18.3024 -16.123 18.6952L-15.6356 20.2971ZM-11.7678 18.3372C-10.6248 17.4593 -9.75312 16.3747 -9.10661 15.0476L-10.6119 14.3143C-11.1501 15.4191 -11.8597 16.2965 -12.7877 17.0093L-11.7678 18.3372ZM-9.10661 15.0476C-8.44229 13.684 -8.17584 12.1451 -8.21996 10.4606L-9.8938 10.5044C-9.85499 11.9868 -10.0915 13.246 -10.6119 14.3143L-9.10661 15.0476ZM-8.21996 10.4606C-8.30483 7.21921 -9.51834 4.79379 -11.9084 3.32511L-12.785 4.7517C-10.9781 5.86204 -9.96724 7.69986 -9.8938 10.5044L-8.21996 10.4606ZM-11.9084 3.32511C-14.2111 1.91011 -17.5418 1.32026 -21.7782 1.43119L-21.7343 3.10503C-17.6216 2.99734 -14.6793 3.58768 -12.785 4.7517L-11.9084 3.32511ZM-21.7782 1.43119L-32.0946 1.70134L-32.0508 3.37518L-21.7343 3.10503L-21.7782 1.43119ZM-32.9097 2.56017L-32.9059 2.70413L-31.232 2.66029L-31.2358 2.51634L-32.9097 2.56017ZM-32.2884 3.49013C-31.8791 3.60134 -31.6024 3.74174 -31.4212 3.88483L-30.3833 2.57088C-30.7906 2.24921 -31.2916 2.02585 -31.8495 1.87429L-32.2884 3.49013ZM-31.4212 3.88483C-31.4137 3.89074 -31.3582 3.94111 -31.2809 4.1066C-31.2054 4.2681 -31.1296 4.49474 -31.0558 4.79983L-29.4283 4.40626C-29.5161 4.04335 -29.6233 3.69859 -29.764 3.39758C-29.9028 3.10058 -30.0966 2.79735 -30.3833 2.57088L-31.4212 3.88483ZM-31.0558 4.79983C-30.912 5.39426 -30.793 6.33989 -30.7106 7.67024L-29.0394 7.5667C-29.1233 6.21248 -29.249 5.14783 -29.4283 4.40626L-31.0558 4.79983ZM-30.7106 7.67024C-30.6286 8.99393 -30.5799 10.8472 -30.5182 13.2052L-28.8443 13.1614C-28.9057 10.817 -28.9551 8.92757 -29.0394 7.5667L-30.7106 7.67024ZM-30.5182 13.2052L-30.1337 27.8882L-28.4598 27.8444L-28.8443 13.1614L-30.5182 13.2052ZM-30.1337 27.8882C-30.0719 30.2462 -30.0235 32.0995 -30.0362 33.4257L-28.3618 33.4416C-28.3489 32.0782 -28.3985 30.1887 -28.4598 27.8444L-30.1337 27.8882ZM-30.0362 33.4257C-30.0488 34.7585 -30.1182 35.7091 -30.2307 36.3102L-28.5848 36.6181C-28.4445 35.8681 -28.3747 34.7983 -28.3618 33.4416L-30.0362 33.4257ZM-30.2307 36.3102C-30.3447 36.9199 -30.5243 37.1816 -30.5957 37.2443L-29.4905 38.5022C-28.9986 38.07 -28.7235 37.3594 -28.5848 36.6181L-30.2307 36.3102ZM-30.5957 37.2443C-30.7691 37.3967 -31.0381 37.5514 -31.4411 37.6839L-30.9181 39.2745C-30.3689 39.094 -29.8803 38.8447 -29.4905 38.5022L-30.5957 37.2443ZM-30.3427 38.4573L-30.349 38.2174L-32.0228 38.2612L-32.0165 38.5011L-30.3427 38.4573ZM-25.1816 3.4834L-21.9667 3.39922L-22.0106 1.72537L-25.2254 1.80956L-25.1816 3.4834ZM-21.9667 3.39922C-20.5511 3.36215 -19.386 3.5144 -18.417 3.79502L-17.9512 2.18668C-19.1111 1.85082 -20.4512 1.68454 -22.0106 1.72537L-21.9667 3.39922ZM-18.417 3.79502C-17.4837 4.06527 -16.7931 4.49626 -16.2656 5.07366L-15.0294 3.94428C-15.7872 3.11485 -16.7556 2.53291 -17.9512 2.18668L-18.417 3.79502ZM-16.2656 5.07366C-15.7177 5.67341 -15.2732 6.45571 -14.9887 7.44006L-13.3801 6.97513C-13.7292 5.76732 -14.2921 4.75137 -15.0294 3.94428L-16.2656 5.07366ZM-14.9887 7.44006C-14.6974 8.44779 -14.5241 9.71252 -14.4851 11.2008L-12.8113 11.157C-12.8527 9.57437 -13.0377 8.15957 -13.3801 6.97513L-14.9887 7.44006ZM-14.4851 11.2008C-14.4163 13.8303 -14.9199 15.8113 -15.8517 17.182L-14.4669 18.1234C-13.2719 16.3654 -12.7369 13.9976 -12.8113 11.157L-14.4851 11.2008ZM-15.8517 17.182C-16.7144 18.4512 -18.2161 19.2 -20.591 19.2622L-20.5472 20.9361C-17.8359 20.8651 -15.731 19.9829 -14.4669 18.1234L-15.8517 17.182ZM-20.591 19.2622L-24.8136 19.3728L-24.7697 21.0466L-20.5472 20.9361L-20.591 19.2622ZM-23.9547 20.1901L-24.3666 2.62685L-26.0405 2.66611L-25.6286 20.2293L-23.9547 20.1901ZM-6.1632 37.584L-5.32629 37.5621L-6.92157 37.2294L-6.1632 37.584ZM-6.15943 37.728L-6.99637 37.7499L-6.97445 38.5868L-6.13752 38.5649L-6.15943 37.728ZM2.81349 37.493L2.8354 38.3299L3.67232 38.308L3.65041 37.4711L2.81349 37.493ZM2.80972 37.3491L3.64664 37.3272L3.6299 36.6879L3.00878 36.5359L2.80972 37.3491ZM1.59506 36.8047L1.0761 37.4617L1.59506 36.8047ZM0.93608 35.4775L1.74984 35.2807L1.74984 35.2807L0.93608 35.4775ZM0.569025 32.4621L-0.266591 32.5138L0.569025 32.4621ZM-0.106968 6.6469L-0.944149 6.63893L-0.944149 6.63893L-0.106968 6.6469ZM0.101768 3.6164L0.924714 3.77033L0.924714 3.77033L0.101768 3.6164ZM1.87489 1.64931L2.11625 2.45097L2.72854 2.26663L2.71181 1.62739L1.87489 1.64931ZM1.87112 1.50536L2.70804 1.48344L2.68612 0.646519L1.8492 0.668434L1.87112 1.50536ZM-7.1018 1.74032L-7.12372 0.903399L-7.96065 0.925314L-7.93874 1.76224L-7.1018 1.74032ZM-7.09803 1.88427L-7.93497 1.90619L-7.91866 2.52888L-7.31753 2.6922L-7.09803 1.88427ZM-4.90407 6.82053L-4.06847 6.76876L-4.90407 6.82053ZM-4.22808 32.6357L-3.39091 32.6437L-4.22808 32.6357ZM-4.43681 35.6662L-5.25976 35.5123L-4.43681 35.6662ZM-5.07216 37.0753L-5.62477 36.4464L-5.07216 37.0753ZM-6.20868 37.6813L-6.96705 37.3266L-7.78793 39.0818L-5.9472 38.4766L-6.20868 37.6813ZM-7.00013 37.606L-6.99637 37.7499L-5.32252 37.7061L-5.32629 37.5621L-7.00013 37.606ZM-6.13752 38.5649L2.8354 38.3299L2.79157 36.6561L-6.18135 36.8911L-6.13752 38.5649ZM3.65041 37.4711L3.64664 37.3272L1.9728 37.371L1.97657 37.5149L3.65041 37.4711ZM3.00878 36.5359C2.55942 36.4259 2.28969 36.2865 2.114 36.1477L1.0761 37.4617C1.48878 37.7876 1.99684 38.012 2.61065 38.1623L3.00878 36.5359ZM2.114 36.1477C2.0541 36.1004 1.90373 35.9171 1.74984 35.2807L0.122334 35.6743C0.291508 36.3739 0.547638 37.0442 1.0761 37.4617L2.114 36.1477ZM1.74984 35.2807C1.60609 34.6863 1.48706 33.7406 1.40463 32.4103L-0.266591 32.5138C-0.182682 33.868 -0.0570063 34.9327 0.122334 35.6743L1.74984 35.2807ZM1.40463 32.4103C1.32262 31.0866 1.27396 29.2333 1.21222 26.8753L-0.461633 26.9191C-0.400243 29.2635 -0.350904 31.153 -0.266591 32.5138L1.40463 32.4103ZM1.21222 26.8753L0.82773 12.1923L-0.84612 12.2362L-0.461633 26.9191L1.21222 26.8753ZM0.82773 12.1923C0.765983 9.83432 0.717575 7.98104 0.730197 6.65487L-0.944149 6.63893C-0.957124 8.00235 -0.907509 9.89179 -0.84612 12.2362L0.82773 12.1923ZM0.730197 6.65487C0.742888 5.32203 0.812268 4.37147 0.924714 3.77033L-0.721162 3.46247C-0.861445 4.21241 -0.931229 5.28218 -0.944149 6.63893L0.730197 6.65487ZM0.924714 3.77033C1.04508 3.12674 1.18566 2.93582 1.243 2.88544L0.137748 1.62761C-0.368138 2.07214 -0.588834 2.75498 -0.721162 3.46247L0.924714 3.77033ZM1.243 2.88544C1.41118 2.73765 1.67325 2.58434 2.11625 2.45097L1.63353 0.847643C1.02843 1.02982 0.532804 1.28049 0.137748 1.62761L1.243 2.88544ZM2.71181 1.62739L2.70804 1.48344L1.0342 1.52727L1.03797 1.67122L2.71181 1.62739ZM1.8492 0.668434L-7.12372 0.903399L-7.07989 2.57724L1.89303 2.34228L1.8492 0.668434ZM-7.93874 1.76224L-7.93497 1.90619L-6.26112 1.86236L-6.26489 1.71841L-7.93874 1.76224ZM-7.31753 2.6922C-6.9082 2.80341 -6.63145 2.94381 -6.4503 3.08689L-5.41241 1.77295C-5.81964 1.45128 -6.32067 1.22791 -6.87854 1.07635L-7.31753 2.6922ZM-6.4503 3.08689C-6.44282 3.0928 -6.3873 3.14317 -6.30994 3.30867C-6.23446 3.47016 -6.15866 3.69681 -6.08489 4.0019L-4.45738 3.60832C-4.54514 3.24541 -4.65236 2.90065 -4.79306 2.59964C-4.93187 2.30264 -5.1257 1.99942 -5.41241 1.77295L-6.4503 3.08689ZM-6.08489 4.0019C-5.94113 4.59633 -5.8221 5.54195 -5.73967 6.87231L-4.06847 6.76876C-4.15236 5.41455 -4.27804 4.34989 -4.45738 3.60832L-6.08489 4.0019ZM-5.73967 6.87231C-5.65766 8.196 -5.60901 10.0493 -5.54726 12.4073L-3.87341 12.3635C-3.9348 10.0191 -3.98414 8.12963 -4.06847 6.76876L-5.73967 6.87231ZM-5.54726 12.4073L-5.16277 27.0903L-3.48893 27.0464L-3.87341 12.3635L-5.54726 12.4073ZM-5.16277 27.0903C-5.10103 29.4483 -5.05262 31.3015 -5.06524 32.6277L-3.39091 32.6437C-3.37792 31.2802 -3.42754 29.3908 -3.48893 27.0464L-5.16277 27.0903ZM-5.06524 32.6277C-5.07793 33.9606 -5.14731 34.9111 -5.25976 35.5123L-3.61388 35.8201C-3.4736 35.0702 -3.40382 34.0004 -3.39091 32.6437L-5.06524 32.6277ZM-5.25976 35.5123C-5.3738 36.122 -5.55335 36.3836 -5.62477 36.4464L-4.51952 37.7042C-4.02772 37.2721 -3.75256 36.5615 -3.61388 35.8201L-5.25976 35.5123ZM-5.62477 36.4464C-5.79817 36.5988 -6.06721 36.7535 -6.47016 36.8859L-5.9472 38.4766C-5.39803 38.296 -4.90936 38.0468 -4.51952 37.7042L-5.62477 36.4464ZM-5.45031 38.0359L-5.40483 37.9387L-6.92157 37.2294L-6.96705 37.3266L-5.45031 38.0359ZM3.95833 37.319L4.79525 37.2971L4.76484 36.1359L3.67287 36.532L3.95833 37.319ZM3.9621 37.4629L3.12517 37.4849L3.14708 38.3218L3.98401 38.2999L3.9621 37.4629ZM24.7744 36.4378L25.5994 36.5804L25.6054 36.5455L25.6085 36.5102L24.7744 36.4378ZM25.217 31.3365L26.0511 31.4088L26.1321 30.475L25.1951 30.4995L25.217 31.3365ZM25.0251 31.3415L25.0032 30.5046L24.3433 30.5218L24.2061 31.1675L25.0251 31.3415ZM22.4081 35.9236L21.9739 35.2078L22.4081 35.9236ZM20.0758 36.7049L20.1852 37.5349L20.0758 36.7049ZM10.7707 37.0926L9.93381 37.1145L9.95573 37.9514L10.7926 37.9295L10.7707 37.0926ZM10.2619 17.6593L10.2399 16.8223L9.40302 16.8442L9.42493 17.6812L10.2619 17.6593ZM16.5311 18.6955L15.9099 19.2568L15.9099 19.2568L16.5311 18.6955ZM17.1851 19.8308L17.9721 19.5453L17.9721 19.5453L17.1851 19.8308ZM17.5549 21.1175L16.7426 21.3205L16.9054 21.972L17.5768 21.9544L17.5549 21.1175ZM17.6508 21.115L17.6728 21.9519L18.5097 21.93L18.4878 21.0931L17.6508 21.115ZM17.4511 13.4856L18.288 13.4637L18.2661 12.6268L17.4292 12.6487L17.4511 13.4856ZM17.3551 13.4881L17.3332 12.6512L16.6618 12.6688L16.5334 13.328L17.3551 13.4881ZM17.0531 14.7925L17.854 15.0364L17.854 15.0364L17.0531 14.7925ZM16.4595 15.9604L15.8098 15.4324L15.8098 15.4324L16.4595 15.9604ZM15.2346 16.8568L15.6008 17.6096L15.6008 17.6096L15.2346 16.8568ZM10.2531 17.3234L9.41614 17.3453L9.43805 18.1822L10.275 18.1603L10.2531 17.3234ZM9.83464 1.34484L9.81273 0.507921L8.97581 0.529836L8.99773 1.36676L9.83464 1.34484ZM18.1901 1.36613L18.0741 2.19527L18.0741 2.19527L18.1901 1.36613ZM20.4174 2.07607L19.9974 2.80033L19.9974 2.80033L20.4174 2.07607ZM22.0398 3.52209L21.3642 4.0165L21.3642 4.0165L22.0398 3.52209ZM23.157 5.84565L22.3617 6.10713L22.5562 6.69888L23.1789 6.68257L23.157 5.84565ZM23.349 5.84062L23.3709 6.67754L24.3717 6.65134L24.1688 5.67097L23.349 5.84062ZM22.4694 1.59019L21.644 1.73024L21.6465 1.74509L21.6496 1.75984L22.4694 1.59019ZM22.2144 1.02067L21.8597 1.77903L21.8597 1.77904L22.2144 1.02067ZM2.9225 1.42981L2.90058 0.592887L2.06366 0.614803L2.08558 1.45173L2.9225 1.42981ZM2.92627 1.57376L2.08935 1.59568L2.10565 2.21838L2.70677 2.38169L2.92627 1.57376ZM4.09296 2.11941L4.6119 1.46244L4.6119 1.46243L4.09296 2.11941ZM5.12024 6.51002L5.95584 6.45825L5.12024 6.51002ZM5.79624 32.3252L6.6334 32.3331L5.79624 32.3252ZM5.58749 35.3557L6.41043 35.5096L5.58749 35.3557ZM4.95216 36.7648L4.39954 36.1359L4.95216 36.7648ZM3.81564 37.3707L3.53018 36.5837L4.07712 38.1661L3.81564 37.3707ZM3.1214 37.3409L3.12517 37.4849L4.79901 37.441L4.79525 37.2971L3.1214 37.3409ZM3.98401 38.2999L24.329 37.7671L24.2852 36.0933L3.94018 36.626L3.98401 38.2999ZM24.329 37.7671C24.4039 37.7652 24.6944 37.7698 24.9876 37.6134L24.1999 36.1359C24.255 36.1065 24.3028 36.0961 24.3254 36.0927C24.3349 36.0912 24.3382 36.0913 24.331 36.0917C24.3223 36.0922 24.3114 36.0926 24.2852 36.0933L24.329 37.7671ZM24.9876 37.6134C25.2936 37.4503 25.4265 37.1807 25.4849 37.0294C25.5449 36.8741 25.5774 36.7076 25.5994 36.5804L23.9494 36.2952C23.9406 36.3463 23.9334 36.382 23.9274 36.407C23.9212 36.4331 23.919 36.4365 23.923 36.4261C23.9252 36.4203 23.9887 36.2485 24.1999 36.1359L24.9876 37.6134ZM25.6085 36.5102L26.0511 31.4088L24.3829 31.2641L23.9403 36.3654L25.6085 36.5102ZM25.1951 30.4995L25.0032 30.5046L25.047 32.1784L25.2389 32.1734L25.1951 30.4995ZM24.2061 31.1675C23.9628 32.3126 23.6294 33.1977 23.2679 33.8376L24.7258 34.6612C25.1903 33.839 25.5743 32.7846 25.844 31.5155L24.2061 31.1675ZM23.2679 33.8376C22.9193 34.4547 22.5027 34.887 21.9739 35.2078L22.8424 36.6393C23.637 36.1572 24.2484 35.5063 24.7258 34.6612L23.2679 33.8376ZM21.9739 35.2078C21.4241 35.5413 20.7763 35.7681 19.9664 35.8748L20.1852 37.5349C21.1936 37.402 22.0687 37.1087 22.8424 36.6393L21.9739 35.2078ZM19.9664 35.8748C19.0949 35.9897 18.0233 36.0652 16.7947 36.0973L16.8386 37.7712C18.1051 37.738 19.2383 37.6597 20.1852 37.5349L19.9664 35.8748ZM16.7947 36.0973L10.7488 36.2557L10.7926 37.9295L16.8386 37.7712L16.7947 36.0973ZM11.6077 37.0707L11.0988 17.6373L9.42493 17.6812L9.93381 37.1145L11.6077 37.0707ZM10.2838 18.4962L13.1148 18.422L13.071 16.7482L10.2399 16.8223L10.2838 18.4962ZM13.1148 18.422C13.9914 18.3991 14.5682 18.4803 14.9346 18.6354L15.5873 17.0935C14.8855 16.7964 14.0177 16.7234 13.071 16.7482L13.1148 18.422ZM14.9346 18.6354C15.4064 18.8352 15.725 19.0521 15.9099 19.2568L17.1523 18.1342C16.7438 17.6822 16.1837 17.346 15.5873 17.0935L14.9346 18.6354ZM15.9099 19.2568C16.115 19.4837 16.2686 19.7593 16.398 20.1162L17.9721 19.5453C17.7911 19.0461 17.5407 18.564 17.1523 18.1342L15.9099 19.2568ZM16.398 20.1162C16.5362 20.4972 16.6338 20.885 16.7426 21.3205L18.3671 20.9146C18.2614 20.4914 18.1444 20.0205 17.9721 19.5453L16.398 20.1162ZM17.5768 21.9544L17.6728 21.9519L17.6289 20.2781L17.533 20.2806L17.5768 21.9544ZM18.4878 21.0931L18.288 13.4637L16.6141 13.5075L16.8139 21.1369L18.4878 21.0931ZM17.4292 12.6487L17.3332 12.6512L17.377 14.3251L17.473 14.3226L17.4292 12.6487ZM16.5334 13.328C16.4475 13.7686 16.3703 14.1609 16.2522 14.5486L17.854 15.0364C18.0013 14.5528 18.0934 14.0765 18.1768 13.6483L16.5334 13.328ZM16.2522 14.5486C16.1416 14.9119 16.0027 15.1951 15.8098 15.4324L17.1092 16.4885C17.4746 16.0389 17.6994 15.5444 17.854 15.0364L16.2522 14.5486ZM15.8098 15.4324C15.6358 15.6465 15.329 15.8798 14.8683 16.104L15.6008 17.6096C16.1832 17.3263 16.725 16.9612 17.1092 16.4885L15.8098 15.4324ZM14.8683 16.104C14.5105 16.278 13.9388 16.3894 13.0622 16.4123L13.106 18.0862C14.0527 18.0614 14.9155 17.9431 15.6008 17.6096L14.8683 16.104ZM13.0622 16.4123L10.2311 16.4864L10.275 18.1603L13.106 18.0862L13.0622 16.4123ZM11.09 17.3015L10.6716 1.32293L8.99773 1.36676L9.41614 17.3453L11.09 17.3015ZM9.85656 2.18177L15.1827 2.0423L15.1389 0.36845L9.81273 0.507921L9.85656 2.18177ZM15.1827 2.0423C16.2876 2.01336 17.2517 2.08023 18.0741 2.19527L18.306 0.536993C17.3935 0.409358 16.3372 0.337071 15.1389 0.36845L15.1827 2.0423ZM18.0741 2.19527C18.8667 2.30613 19.4818 2.50133 19.9974 2.80033L20.8374 1.35181C20.0853 0.915734 19.2483 0.668793 18.306 0.536993L18.0741 2.19527ZM19.9974 2.80033C20.5395 3.11462 20.9899 3.50502 21.3642 4.0165L22.7155 3.02769C22.1934 2.31421 21.563 1.77259 20.8374 1.35181L19.9974 2.80033ZM21.3642 4.0165C21.743 4.53418 22.065 5.20464 22.3617 6.10713L23.9524 5.58417C23.623 4.58239 23.233 3.73496 22.7155 3.02769L21.3642 4.0165ZM23.1789 6.68257L23.3709 6.67754L23.327 5.0037L23.1351 5.00872L23.1789 6.68257ZM24.1688 5.67097L23.2892 1.42053L21.6496 1.75984L22.5291 6.01028L24.1688 5.67097ZM23.2948 1.45013C23.2581 1.23405 23.2011 1.02498 23.115 0.841462C23.045 0.692056 22.888 0.411448 22.5691 0.262299L21.8597 1.77904C21.7367 1.72151 21.6672 1.646 21.6392 1.61178C21.6231 1.59216 21.6129 1.57647 21.6073 1.56724C21.6044 1.56243 21.6023 1.55874 21.601 1.55636C21.5998 1.55397 21.5991 1.55264 21.5991 1.55253C21.5991 1.55242 21.6008 1.55611 21.6038 1.56425C21.6067 1.57232 21.6106 1.58387 21.6151 1.59926C21.6241 1.63036 21.6344 1.67358 21.644 1.73024L23.2948 1.45013ZM22.5691 0.262307C22.3925 0.179709 22.1166 0.0896988 21.8061 0.0978288L21.8499 1.77167C21.8398 1.77194 21.8343 1.77127 21.8338 1.77121C21.8332 1.77114 21.8353 1.77137 21.8397 1.77244C21.844 1.7735 21.8488 1.77493 21.8533 1.77653C21.8579 1.77817 21.8602 1.77928 21.8597 1.77903L22.5691 0.262307ZM21.8061 0.0978288L2.90058 0.592887L2.94441 2.26673L21.8499 1.77167L21.8061 0.0978288ZM2.08558 1.45173L2.08935 1.59568L3.7632 1.55185L3.75943 1.40789L2.08558 1.45173ZM2.70677 2.38169C3.11612 2.49289 3.39287 2.6333 3.57401 2.77638L4.6119 1.46243C4.20468 1.14076 3.70365 0.917398 3.14576 0.765837L2.70677 2.38169ZM3.574 2.77638C3.58149 2.78229 3.637 2.83266 3.71436 2.99816C3.78984 3.15965 3.86565 3.38629 3.93943 3.69139L5.56694 3.29781C5.47917 2.9349 5.37195 2.59014 5.23126 2.28913C5.09242 1.99213 4.8986 1.68891 4.6119 1.46244L3.574 2.77638ZM3.93943 3.69139C4.08318 4.28581 4.2022 5.23144 4.28463 6.56179L5.95584 6.45825C5.87194 5.10403 5.74626 4.03938 5.56694 3.29781L3.93943 3.69139ZM4.28463 6.56179C4.36664 7.88549 4.41531 9.73876 4.47705 12.0968L6.1509 12.0529C6.08951 9.70857 6.04016 7.81912 5.95584 6.45825L4.28463 6.56179ZM4.47705 12.0968L4.86154 26.7797L6.53539 26.7359L6.1509 12.0529L4.47705 12.0968ZM4.86154 26.7797C4.92329 29.1378 4.97168 30.991 4.95906 32.3172L6.6334 32.3331C6.64638 30.9697 6.59678 29.0803 6.53539 26.7359L4.86154 26.7797ZM4.95906 32.3172C4.94637 33.65 4.877 34.6006 4.76456 35.2017L6.41043 35.5096C6.5507 34.7597 6.62048 33.6899 6.6334 32.3331L4.95906 32.3172ZM4.76456 35.2017C4.6505 35.8115 4.47096 36.0731 4.39954 36.1359L5.50477 37.3937C5.99659 36.9616 6.27175 36.251 6.41043 35.5096L4.76456 35.2017ZM4.39954 36.1359C4.22613 36.2882 3.95711 36.4429 3.55416 36.5754L4.07712 38.1661C4.62629 37.9855 5.11494 37.7362 5.50477 37.3937L4.39954 36.1359ZM4.10108 38.1578L4.24377 38.106L3.67287 36.532L3.53018 36.5837L4.10108 38.1578Z" fill="#580300"/>
</g>
</svg>
