<svg width="80" height="85" viewBox="0 0 80 85" fill="none" xmlns="http://www.w3.org/2000/svg">
<g style="mix-blend-mode:darken">
<path d="M0.589227 71.7234L1.42615 71.7453L-0.149538 71.3295L0.589227 71.7234ZM0.581688 72.0113L-0.255234 71.9894L-0.27715 72.8263L0.559773 72.8482L0.581688 72.0113ZM18.5275 72.4812L18.5056 73.3181L19.3425 73.34L19.3645 72.5031L18.5275 72.4812ZM18.5351 72.1933L19.372 72.2152L19.3887 71.576L18.7764 71.3916L18.5351 72.1933ZM16.1661 70.9789L15.6134 71.6078L16.1661 70.9789ZM14.9888 68.2591L15.8118 68.1052L15.8118 68.1052L14.9888 68.2591ZM14.5714 62.1981L13.7342 62.2061L14.5714 62.1981ZM15.9233 10.5678L15.0877 10.516L15.9233 10.5678ZM16.6575 4.53696L17.4712 4.73375L17.4712 4.73375L16.6575 4.53696ZM20.4047 0.793768L20.6038 1.60697L21.2249 1.45492L21.2417 0.815683L20.4047 0.793768ZM20.4123 0.505864L21.2492 0.52778L21.2711 -0.309143L20.4342 -0.331059L20.4123 0.505864ZM2.46643 0.0359356L2.48834 -0.800987L1.65142 -0.822903L1.62951 0.01402L2.46643 0.0359356ZM2.45889 0.323839L1.62197 0.301923L1.60566 0.924618L2.19741 1.11917L2.45889 0.323839ZM6.32412 10.4125L7.1613 10.4045L6.32412 10.4125ZM4.97214 62.0428L5.80774 62.0946L4.97214 62.0428ZM4.23802 68.0736L3.42426 67.8768L3.42426 67.8768L4.23802 68.0736ZM2.8216 70.8215L2.30265 70.1645L2.8216 70.8215ZM0.488234 71.9128L-0.250531 71.5189L-1.16215 73.2287L0.707731 72.7207L0.488234 71.9128ZM-0.247695 71.7015L-0.255234 71.9894L1.41861 72.0332L1.42615 71.7453L-0.247695 71.7015ZM0.559773 72.8482L18.5056 73.3181L18.5495 71.6443L0.603604 71.1743L0.559773 72.8482ZM19.3645 72.5031L19.372 72.2152L17.6982 72.1714L17.6906 72.4593L19.3645 72.5031ZM18.7764 71.3916C17.8094 71.1005 17.1685 70.7452 16.7187 70.35L15.6134 71.6078C16.2901 72.2024 17.1646 72.655 18.2937 72.995L18.7764 71.3916ZM16.7187 70.35C16.3797 70.0521 16.0585 69.4243 15.8118 68.1052L14.1659 68.413C14.4246 69.7961 14.8259 70.9158 15.6134 71.6078L16.7187 70.35ZM15.8118 68.1052C15.573 66.8285 15.434 64.8678 15.4085 62.1901L13.7342 62.2061C13.7599 64.9076 13.8993 66.9876 14.1659 68.413L15.8118 68.1052ZM15.4085 62.1901C15.3831 59.5192 15.4805 55.7945 15.6038 51.0853L13.93 51.0415C13.807 55.7371 13.7084 59.4979 13.7342 62.2061L15.4085 62.1901ZM15.6038 51.0853L16.3728 21.7194L14.699 21.6756L13.93 51.0415L15.6038 51.0853ZM16.3728 21.7194C16.4961 17.0102 16.5938 13.2856 16.759 10.6196L15.0877 10.516C14.9203 13.2192 14.8219 16.98 14.699 21.6756L16.3728 21.7194ZM16.759 10.6196C16.9245 7.94694 17.1659 5.99618 17.4712 4.73375L15.8437 4.34017C15.5028 5.74974 15.2548 7.81954 15.0877 10.516L16.759 10.6196ZM17.4712 4.73375C17.7867 3.42934 18.1403 2.81922 18.4944 2.53952L17.4565 1.22558C16.6338 1.8754 16.1744 2.97258 15.8437 4.34017L17.4712 4.73375ZM18.4944 2.53952C18.9642 2.16836 19.6228 1.8471 20.6038 1.60697L20.2057 -0.0194313C19.0603 0.260957 18.1633 0.667226 17.4565 1.22558L18.4944 2.53952ZM21.2417 0.815683L21.2492 0.52778L19.5754 0.483949L19.5678 0.771852L21.2417 0.815683ZM20.4342 -0.331059L2.48834 -0.800987L2.44451 0.872858L20.3904 1.34279L20.4342 -0.331059ZM1.62951 0.01402L1.62197 0.301923L3.29581 0.345754L3.30335 0.0578512L1.62951 0.01402ZM2.19741 1.11917C3.07643 1.40816 3.7243 1.76485 4.17932 2.16467L5.28456 0.906846C4.61311 0.316844 3.74561 -0.13442 2.72037 -0.47149L2.19741 1.11917ZM4.17932 2.16467C4.3273 2.29469 4.49535 2.53098 4.65978 2.93689C4.82255 3.3387 4.96281 3.8591 5.0837 4.5054L6.72958 4.19754C6.59775 3.49277 6.43229 2.85277 6.2117 2.30822C5.99277 1.76777 5.69983 1.27174 5.28456 0.906846L4.17932 2.16467ZM5.0837 4.5054C5.32251 5.78208 5.46146 7.74281 5.48695 10.4204L7.1613 10.4045C7.13558 7.70297 6.99621 5.62302 6.72958 4.19754L5.0837 4.5054ZM5.48695 10.4204C5.51238 13.0914 5.41498 16.816 5.29166 21.5253L6.96551 21.5691C7.08847 16.8735 7.18708 13.1127 7.1613 10.4045L5.48695 10.4204ZM5.29166 21.5253L4.52269 50.8912L6.19653 50.935L6.96551 21.5691L5.29166 21.5253ZM4.52269 50.8912C4.39937 55.6004 4.30171 59.325 4.13653 61.991L5.80774 62.0946C5.97523 59.3914 6.07358 55.6306 6.19653 50.935L4.52269 50.8912ZM4.13653 61.991C3.97094 64.6636 3.72955 66.6144 3.42426 67.8768L5.05177 68.2704C5.39264 66.8608 5.64067 64.791 5.80774 62.0946L4.13653 61.991ZM3.42426 67.8768C3.11692 69.1478 2.67145 69.8732 2.30265 70.1645L3.34055 71.4785C4.14849 70.8403 4.71295 69.6715 5.05177 68.2704L3.42426 67.8768ZM2.30265 70.1645C1.82733 70.54 1.16168 70.8623 0.268738 71.1049L0.707731 72.7207C1.74921 72.4378 2.63914 72.0325 3.34055 71.4785L2.30265 70.1645ZM1.227 72.3067L1.32799 72.1173L-0.149538 71.3295L-0.250531 71.5189L1.227 72.3067ZM20.8247 72.5414L19.9878 72.5194L19.9659 73.3564L20.8028 73.3783L20.8247 72.5414ZM29.7497 72.7751L29.7278 73.612L30.5647 73.6339L30.5866 72.797L29.7497 72.7751ZM29.7572 72.4872L30.5942 72.5091L30.6095 71.9229L30.0638 71.7081L29.7572 72.4872ZM27.3932 71.0808L27.9459 70.4519L27.3932 71.0808ZM26.2185 68.2651L27.0415 68.1111L26.2185 68.2651ZM25.7985 62.3L26.6357 62.291L25.7985 62.3ZM27.2606 2.79792L28.0084 2.42135L26.4237 2.776L27.2606 2.79792ZM63.1362 74.0335L62.3885 74.41L62.6137 74.8573L63.1143 74.8704L63.1362 74.0335ZM64.4797 74.0686L64.4578 74.9055L65.2947 74.9275L65.3167 74.0905L64.4797 74.0686ZM66.1941 12.2683L67.0296 12.3212L66.1941 12.2683ZM66.9257 6.33344L67.7394 6.53023L67.7394 6.53023L66.9257 6.33344ZM68.2461 3.58307L68.7651 4.24004L68.7651 4.24004L68.2461 3.58307ZM70.5845 2.29983L70.875 3.08504L71.4066 2.88837L71.4214 2.32175L70.5845 2.29983ZM70.592 2.01194L71.429 2.03385L71.4509 1.19693L70.614 1.17501L70.592 2.01194ZM61.6671 1.77823L61.689 0.941306L60.8521 0.919391L60.8302 1.75631L61.6671 1.77823ZM61.6596 2.06613L60.8226 2.04421L60.8073 2.63041L61.353 2.84517L61.6596 2.06613ZM64.0236 3.4725L63.4709 4.10141L63.4709 4.10141L64.0236 3.4725ZM65.1983 6.28821L66.0212 6.13428L66.0212 6.13428L65.1983 6.28821ZM65.6183 12.2532L64.7811 12.2623L65.6183 12.2532ZM64.5909 55.1531L63.8442 55.5317L65.4278 55.175L64.5909 55.1531ZM38.3828 3.4733L39.1294 3.09463L39.128 3.09177L38.3828 3.4733ZM37.092 1.4228L37.6993 0.846506L37.6993 0.846502L37.092 1.4228ZM22.8029 0.664503L22.8249 -0.172419L21.9879 -0.194335L21.966 0.642588L22.8029 0.664503ZM22.7954 0.952401L21.9585 0.930485L21.9422 1.55318L22.5339 1.74773L22.7954 0.952401ZM25.0685 2.16432L24.5158 2.79323L25.0685 2.16432ZM26.2432 4.98003L25.4202 5.13396L26.2432 4.98003ZM26.6606 11.041L25.8235 11.049L26.6606 11.041ZM25.3162 62.3834L24.4807 62.3306L25.3162 62.3834ZM24.5846 68.3183L23.7708 68.1215L24.5846 68.3183ZM23.1682 71.0662L23.6871 71.7232L23.1682 71.0662ZM20.8298 72.3494L19.9929 72.3275L19.9605 73.5637L21.1203 73.1346L20.8298 72.3494ZM19.9954 72.2315L19.9878 72.5194L21.6617 72.5633L21.6692 72.2754L19.9954 72.2315ZM20.8028 73.3783L29.7278 73.612L29.7716 71.9381L20.8467 71.7044L20.8028 73.3783ZM30.5866 72.797L30.5942 72.5091L28.9203 72.4652L28.9128 72.7531L30.5866 72.797ZM30.0638 71.7081C29.109 71.3323 28.4369 70.8834 27.9459 70.4519L26.8406 71.7097C27.476 72.268 28.3143 72.819 29.4506 73.2662L30.0638 71.7081ZM27.9459 70.4519C27.7979 70.3219 27.6298 70.0856 27.4654 69.6797C27.3026 69.2779 27.1624 68.7575 27.0415 68.1111L25.3956 68.419C25.5274 69.1238 25.6929 69.7638 25.9135 70.3083C26.1324 70.8488 26.4253 71.3448 26.8406 71.7097L27.9459 70.4519ZM27.0415 68.1111C26.8025 66.8337 26.6637 64.8723 26.6357 62.291L24.9614 62.3091C24.9896 64.915 25.1291 66.9943 25.3956 68.419L27.0415 68.1111ZM26.6357 62.291C26.6078 59.7167 26.7027 56.0888 26.8235 51.4752L25.1496 51.4313C25.0292 56.0305 24.9331 59.6962 24.9614 62.3091L26.6357 62.291ZM26.8235 51.4752L28.0975 2.81984L26.4237 2.776L25.1496 51.4313L26.8235 51.4752ZM26.5129 3.17449L62.3885 74.41L63.8839 73.6569L28.0084 2.42135L26.5129 3.17449ZM63.1143 74.8704L64.4578 74.9055L64.5016 73.2317L63.1581 73.1965L63.1143 74.8704ZM65.3167 74.0905L66.6511 23.132L64.9772 23.0882L63.6428 74.0467L65.3167 74.0905ZM66.6511 23.132C66.7719 18.5184 66.867 14.8905 67.0296 12.3212L65.3585 12.2154C65.1935 14.8234 65.0976 18.489 64.9772 23.0882L66.6511 23.132ZM67.0296 12.3212C67.1926 9.74483 67.4339 7.79341 67.7394 6.53023L66.1119 6.13665C65.7712 7.54548 65.5231 9.61462 65.3585 12.2154L67.0296 12.3212ZM67.7394 6.53023C67.894 5.89114 68.0613 5.37879 68.2449 4.98605C68.4303 4.5893 68.6105 4.36214 68.7651 4.24004L67.7272 2.9261C67.2934 3.26875 66.9749 3.74878 66.728 4.27703C66.4792 4.80928 66.2805 5.43975 66.1119 6.13666L67.7394 6.53023ZM68.7651 4.24004C69.2829 3.83101 69.9857 3.414 70.875 3.08504L70.294 1.51463C69.2438 1.90315 68.3861 2.4056 67.7272 2.9261L68.7651 4.24004ZM71.4214 2.32175L71.429 2.03385L69.7551 1.99002L69.7476 2.27792L71.4214 2.32175ZM70.614 1.17501L61.689 0.941306L61.6452 2.61515L70.5701 2.84886L70.614 1.17501ZM60.8302 1.75631L60.8226 2.04421L62.4965 2.08804L62.504 1.80014L60.8302 1.75631ZM61.353 2.84517C62.3078 3.22097 62.9799 3.66989 63.4709 4.10141L64.5762 2.84359C63.9408 2.28526 63.1025 1.73431 61.9662 1.28708L61.353 2.84517ZM63.4709 4.10141C63.6189 4.23143 63.787 4.46771 63.9514 4.87362C64.1142 5.27543 64.2544 5.79584 64.3753 6.44214L66.0212 6.13428C65.8894 5.4295 65.7239 4.78951 65.5033 4.24496C65.2844 3.70451 64.9915 3.20847 64.5762 2.84358L63.4709 4.10141ZM64.3753 6.44214C64.6143 7.71957 64.7531 9.68095 64.7811 12.2623L66.4554 12.2442C66.4272 9.63829 66.2877 7.559 66.0212 6.13428L64.3753 6.44214ZM64.7811 12.2623C64.809 14.8366 64.7142 18.4645 64.5933 23.0781L66.2672 23.122C66.3876 18.5227 66.4837 14.8571 66.4554 12.2442L64.7811 12.2623ZM64.5933 23.0781L63.754 55.1311L65.4278 55.175L66.2672 23.122L64.5933 23.0781ZM65.3376 54.7744L39.1294 3.09463L37.6361 3.85196L63.8442 55.5317L65.3376 54.7744ZM39.128 3.09177C38.5709 2.00365 38.0648 1.23166 37.6993 0.846506L36.4847 1.9991C36.6799 2.20483 37.0983 2.80152 37.6375 3.85482L39.128 3.09177ZM37.6993 0.846502C37.1655 0.284051 36.3687 0.182237 35.6845 0.164321L35.6406 1.83817C36.3 1.85543 36.4577 1.97068 36.4847 1.9991L37.6993 0.846502ZM35.6845 0.164321L22.8249 -0.172419L22.781 1.50143L35.6406 1.83817L35.6845 0.164321ZM21.966 0.642588L21.9585 0.930485L23.6323 0.974317L23.6399 0.686419L21.966 0.642588ZM22.5339 1.74773C23.4129 2.03673 24.0608 2.39341 24.5158 2.79323L25.6211 1.53541C24.9496 0.945406 24.0821 0.494142 23.0569 0.157072L22.5339 1.74773ZM24.5158 2.79323C24.6638 2.92325 24.8319 3.15954 24.9963 3.56545C25.1591 3.96726 25.2993 4.48766 25.4202 5.13396L27.0661 4.8261C26.9343 4.12133 26.7688 3.48133 26.5482 2.93678C26.3293 2.39633 26.0363 1.9003 25.6211 1.53541L24.5158 2.79323ZM25.4202 5.13396C25.659 6.41064 25.798 8.37137 25.8235 11.049L27.4978 11.0331C27.4721 8.33153 27.3327 6.25158 27.0661 4.8261L25.4202 5.13396ZM25.8235 11.049C25.8489 13.72 25.7515 17.4446 25.6282 22.1538L27.302 22.1977C27.425 17.5021 27.5236 13.7413 27.4978 11.0331L25.8235 11.049ZM25.6282 22.1538L24.8592 51.5198L26.533 51.5636L27.302 22.1977L25.6282 22.1538ZM24.8592 51.5198C24.7384 56.1334 24.6433 59.7613 24.4807 62.3306L26.1517 62.4363C26.3168 59.8284 26.4126 56.1628 26.533 51.5636L24.8592 51.5198ZM24.4807 62.3306C24.3176 64.9069 24.0763 66.8584 23.7708 68.1215L25.3983 68.5151C25.739 67.1063 25.9871 65.0371 26.1517 62.4363L24.4807 62.3306ZM23.7708 68.1215C23.4635 69.3925 23.018 70.1179 22.6492 70.4092L23.6871 71.7232C24.4951 71.085 25.0595 69.9162 25.3983 68.5151L23.7708 68.1215ZM22.6492 70.4092C22.1314 70.8182 21.4285 71.2353 20.5393 71.5642L21.1203 73.1346C22.1705 72.7461 23.0282 72.2437 23.6871 71.7232L22.6492 70.4092ZM21.6667 72.3713L21.6692 72.2754L19.9954 72.2315L19.9929 72.3275L21.6667 72.3713ZM70.5965 73.5566L70.6184 72.7197L69.7815 72.6977L69.7596 73.5347L70.5965 73.5566ZM70.5889 73.8445L69.752 73.8226L69.7301 74.6595L70.567 74.6814L70.5889 73.8445ZM88.5348 74.3144L88.5129 75.1513L89.3498 75.1732L89.3717 74.3363L88.5348 74.3144ZM88.5423 74.0265L89.3792 74.0484L89.396 73.4092L88.7837 73.2248L88.5423 74.0265ZM86.1733 72.8121L85.6207 73.441L86.1733 72.8121ZM84.9961 70.0923L85.819 69.9384L84.9961 70.0923ZM84.5786 64.0313L83.7414 64.0393L84.5786 64.0313ZM85.2391 35.1427L85.9656 34.7266L84.4804 32.1334L84.4021 35.1208L85.2391 35.1427ZM103.33 66.7311L104.066 66.3319L104.062 66.3234L104.057 66.315L103.33 66.7311ZM105.49 72.2615L106.326 72.2139L105.49 72.2615ZM103.412 74.6079L103.168 73.807L102.591 73.9828L102.575 74.586L103.412 74.6079ZM103.407 74.7999L102.57 74.778L102.548 75.6149L103.385 75.6368L103.407 74.7999ZM120.393 75.2447L120.371 76.0816L121.208 76.1035L121.23 75.2666L120.393 75.2447ZM120.398 75.0527L121.235 75.0747L121.249 74.5574L120.792 74.314L120.398 75.0527ZM118.984 74.0554L119.591 73.4791L118.984 74.0554ZM117.678 72.5807L118.335 72.0617L117.678 72.5807ZM116.294 70.4317L115.552 70.819L116.294 70.4317ZM114.649 67.2196L115.397 66.8421L115.389 66.8265L115.38 66.8113L114.649 67.2196ZM92.817 28.1387L92.2157 27.5562L91.7824 28.0034L92.0861 28.547L92.817 28.1387ZM110.781 9.59455L110.18 9.01178L110.179 9.01204L110.781 9.59455ZM116.093 4.73996L115.601 4.06323L116.093 4.73996ZM119.02 2.99197L119.33 3.76986L119.843 3.56575L119.857 3.01389L119.02 2.99197ZM119.025 2.80004L119.862 2.82196L119.884 1.98503L119.047 1.96312L119.025 2.80004ZM109.812 2.55879L109.834 1.72187L108.997 1.69996L108.976 2.53688L109.812 2.55879ZM109.807 2.75073L108.97 2.72881L108.954 3.35151L109.546 3.54605L109.807 2.75073ZM111.987 3.86417L111.447 4.504L111.447 4.50401L111.987 3.86417ZM112.52 5.51068L111.695 5.37062L111.695 5.37063L112.52 5.51068ZM108.137 11.542L107.54 10.9549L107.536 10.9592L108.137 11.542ZM85.436 34.9558L84.5991 34.9339L84.5429 37.0797L86.0371 35.5386L85.436 34.9558ZM86.8617 6.18325L86.0479 5.98646L86.0479 5.98647L86.8617 6.18325ZM88.1796 3.52884L88.6986 4.18582L88.1796 3.52884ZM90.6089 2.44007L90.808 3.25327L91.4291 3.10122L91.4459 2.46198L90.6089 2.44007ZM90.6165 2.15216L91.4534 2.17408L91.4753 1.33716L90.6384 1.31524L90.6165 2.15216ZM72.6706 1.68223L72.6926 0.845311L71.8556 0.823396L71.8337 1.66032L72.6706 1.68223ZM72.6631 1.97014L71.8262 1.94822L71.8099 2.57092L72.4016 2.76547L72.6631 1.97014ZM76.1109 5.99777L75.2879 6.1517L75.2879 6.1517L76.1109 5.99777ZM76.5283 12.0588L77.3655 12.0508L76.5283 12.0588ZM75.1764 63.6891L76.012 63.7409L75.1764 63.6891ZM74.4422 69.7199L75.256 69.9167L74.4422 69.7199ZM73.0258 72.4678L72.5069 71.8108L73.0258 72.4678ZM70.6924 73.5591L70.6705 74.396L70.7934 74.3992L70.9119 74.367L70.6924 73.5591ZM69.7596 73.5347L69.752 73.8226L71.4259 73.8664L71.4334 73.5785L69.7596 73.5347ZM70.567 74.6814L88.5129 75.1513L88.5567 73.4775L70.6109 73.0075L70.567 74.6814ZM89.3717 74.3363L89.3792 74.0484L87.7054 74.0046L87.6979 74.2925L89.3717 74.3363ZM88.7837 73.2248C87.8166 72.9337 87.1757 72.5784 86.7259 72.1832L85.6207 73.441C86.2974 74.0356 87.1718 74.4882 88.301 74.8282L88.7837 73.2248ZM86.7259 72.1832C86.387 71.8853 86.0658 71.2575 85.819 69.9384L84.1732 70.2463C84.4319 71.6293 84.8332 72.749 85.6207 73.441L86.7259 72.1832ZM85.819 69.9384C85.5802 68.6617 85.4413 66.701 85.4158 64.0234L83.7414 64.0393C83.7672 66.7408 83.9065 68.8208 84.1732 70.2463L85.819 69.9384ZM85.4158 64.0234C85.3904 61.3524 85.4878 57.6277 85.6111 52.9185L83.9372 52.8747C83.8143 57.5703 83.7157 61.3311 83.7414 64.0393L85.4158 64.0234ZM85.6111 52.9185L86.076 35.1646L84.4021 35.1208L83.9372 52.8747L85.6111 52.9185ZM84.5126 35.5588L102.604 67.1472L104.057 66.315L85.9656 34.7266L84.5126 35.5588ZM102.594 67.1304C103.272 68.3786 103.778 69.4396 104.121 70.3179C104.468 71.2072 104.629 71.8611 104.654 72.3092L106.326 72.2139C106.286 71.5079 106.054 70.663 105.681 69.7088C105.304 68.7436 104.763 67.6164 104.066 66.3319L102.594 67.1304ZM104.654 72.3092C104.676 72.6895 104.578 72.9403 104.396 73.1436C104.192 73.3726 103.817 73.6096 103.168 73.807L103.656 75.4089C104.46 75.1642 105.157 74.805 105.644 74.2599C106.155 73.6891 106.37 72.9877 106.326 72.2139L104.654 72.3092ZM102.575 74.586L102.57 74.778L104.244 74.8218L104.249 74.6299L102.575 74.586ZM103.385 75.6368L120.371 76.0816L120.415 74.4078L103.429 73.963L103.385 75.6368ZM121.23 75.2666L121.235 75.0747L119.561 75.0308L119.556 75.2228L121.23 75.2666ZM120.792 74.314C120.248 74.0239 119.871 73.7741 119.591 73.4791L118.377 74.6317C118.844 75.1245 119.412 75.4756 120.005 75.7915L120.792 74.314ZM119.591 73.4791C119.216 73.0841 118.774 72.6167 118.335 72.0617L117.021 73.0996C117.512 73.7214 118.004 74.2388 118.377 74.6317L119.591 73.4791ZM118.335 72.0617C117.901 71.512 117.468 70.8715 117.036 70.0444L115.552 70.819C116.035 71.7445 116.526 72.4727 117.021 73.0996L118.335 72.0617ZM117.036 70.0444C116.581 69.1725 116.035 68.1052 115.397 66.8421L113.902 67.5971C114.542 68.8642 115.092 69.9384 115.552 70.819L117.036 70.0444ZM115.38 66.8113L93.5479 27.7304L92.0861 28.547L113.919 67.6279L115.38 66.8113ZM93.4183 28.7212L111.382 10.1771L110.179 9.01204L92.2157 27.5562L93.4183 28.7212ZM111.382 10.1773C113.639 7.84956 115.37 6.3025 116.586 5.41668L115.601 4.06323C114.271 5.03142 112.463 6.65677 110.18 9.01178L111.382 10.1773ZM116.586 5.41668C117.831 4.51009 118.742 4.00381 119.33 3.76986L118.711 2.21409C117.94 2.52076 116.901 3.11582 115.601 4.06323L116.586 5.41668ZM119.857 3.01389L119.862 2.82196L118.188 2.77813L118.183 2.97006L119.857 3.01389ZM119.047 1.96312L109.834 1.72187L109.791 3.39572L119.003 3.63696L119.047 1.96312ZM108.976 2.53688L108.97 2.72881L110.644 2.77264L110.649 2.58071L108.976 2.53688ZM109.546 3.54605C110.434 3.83806 111.085 4.19856 111.447 4.504L112.527 3.22433C111.949 2.73691 111.085 2.28946 110.069 1.9554L109.546 3.54605ZM111.447 4.50401C111.65 4.67552 111.768 4.9379 111.695 5.37062L113.345 5.65074C113.499 4.74496 113.263 3.84567 112.527 3.22433L111.447 4.50401ZM111.695 5.37063C111.612 5.85748 111.289 6.58766 110.63 7.47777L111.976 8.47357C112.712 7.47953 113.201 6.5024 113.345 5.65073L111.695 5.37063ZM110.63 7.47777C109.968 8.37317 108.911 9.56063 107.54 10.9549L108.734 12.1291C110.125 10.7147 111.245 9.46233 111.976 8.47357L110.63 7.47777ZM107.536 10.9592L84.8349 34.373L86.0371 35.5386L108.738 12.1248L107.536 10.9592ZM86.2729 34.9777L86.577 23.3657L84.9032 23.3219L84.5991 34.9339L86.2729 34.9777ZM86.577 23.3657C86.7003 18.6565 86.798 14.9319 86.9632 12.2659L85.292 12.1623C85.1245 14.8655 85.0261 18.6263 84.9032 23.3219L86.577 23.3657ZM86.9632 12.2659C87.1288 9.59324 87.3701 7.64247 87.6754 6.38004L86.0479 5.98647C85.7071 7.39604 85.459 9.46584 85.292 12.1623L86.9632 12.2659ZM87.6754 6.38004C87.9909 5.07564 88.3445 4.46551 88.6986 4.18582L87.6607 2.87187C86.838 3.52169 86.3787 4.61887 86.0479 5.98646L87.6754 6.38004ZM88.6986 4.18582C89.1684 3.81465 89.8271 3.49339 90.808 3.25327L90.4099 1.62687C89.2645 1.90725 88.3675 2.31352 87.6607 2.87187L88.6986 4.18582ZM91.4459 2.46198L91.4534 2.17408L89.7796 2.13025L89.772 2.41815L91.4459 2.46198ZM90.6384 1.31524L72.6926 0.845311L72.6487 2.51916L90.5946 2.98909L90.6384 1.31524ZM71.8337 1.66032L71.8262 1.94822L73.5 1.99205L73.5076 1.70415L71.8337 1.66032ZM72.4016 2.76547C73.2806 3.05446 73.9285 3.41114 74.3835 3.81096L75.4888 2.55314C74.8173 1.96314 73.9498 1.51187 72.9246 1.17481L72.4016 2.76547ZM74.3835 3.81096C74.5315 3.94099 74.6996 4.17727 74.864 4.58318C75.0268 4.98499 75.167 5.50539 75.2879 6.1517L76.9338 5.84384C76.802 5.13906 76.6365 4.49906 76.4159 3.95451C76.197 3.41406 75.904 2.91803 75.4888 2.55314L74.3835 3.81096ZM75.2879 6.1517C75.5267 7.42838 75.6657 9.3891 75.6912 12.0667L77.3655 12.0508C77.3398 9.34926 77.2004 7.26932 76.9338 5.84384L75.2879 6.1517ZM75.6912 12.0667C75.7166 14.7377 75.6192 18.4623 75.4959 23.1716L77.1697 23.2154C77.2927 18.5198 77.3913 14.759 77.3655 12.0508L75.6912 12.0667ZM75.4959 23.1716L74.7269 52.5375L76.4007 52.5813L77.1697 23.2154L75.4959 23.1716ZM74.7269 52.5375C74.6036 57.2467 74.5059 60.9713 74.3407 63.6373L76.012 63.7409C76.1794 61.0377 76.2778 57.2769 76.4007 52.5813L74.7269 52.5375ZM74.3407 63.6373C74.1751 66.3099 73.9338 68.2607 73.6285 69.5231L75.256 69.9167C75.5969 68.5071 75.8449 66.4373 76.012 63.7409L74.3407 63.6373ZM73.6285 69.5231C73.3211 70.7941 72.8757 71.5195 72.5069 71.8108L73.5448 73.1248C74.3527 72.4866 74.9172 71.3178 75.256 69.9167L73.6285 69.5231ZM72.5069 71.8108C72.0315 72.1863 71.3659 72.5086 70.473 72.7512L70.9119 74.367C71.9534 74.0841 72.8433 73.6788 73.5448 73.1248L72.5069 71.8108ZM70.7144 72.7222L70.6184 72.7197L70.5746 74.3935L70.6705 74.396L70.7144 72.7222ZM138.167 75.326L139.004 75.3479L137.428 74.9321L138.167 75.326ZM138.16 75.6139L137.323 75.592L137.301 76.4289L138.138 76.4508L138.16 75.6139ZM177.627 75.687L178.444 75.8727L178.447 75.8551L178.451 75.8375L177.627 75.687ZM179.757 64.0268L180.581 64.1772L180.756 63.2155L179.779 63.1899L179.757 64.0268ZM179.469 64.0193L179.491 63.1823L178.866 63.166L178.673 63.7605L179.469 64.0193ZM176.712 70.2852L177.422 70.7285L177.422 70.7285L176.712 70.2852ZM173.159 73.9375L173.594 74.6533L173.159 73.9375ZM168.508 75.5443L168.392 74.7151L168.508 75.5443ZM151.893 75.5894L151.056 75.5674L151.034 76.4044L151.871 76.4263L151.893 75.5894ZM154.331 8.14208L153.518 7.94529L153.518 7.94529L154.331 8.14208ZM158.079 4.39888L158.278 5.21208L158.899 5.06004L158.915 4.4208L158.079 4.39888ZM158.086 4.11098L158.923 4.1329L158.945 3.29597L158.108 3.27406L158.086 4.11098ZM140.044 3.63854L140.066 2.80162L139.229 2.7797L139.207 3.61662L140.044 3.63854ZM140.037 3.92644L139.2 3.90453L139.183 4.52722L139.775 4.72177L140.037 3.92644ZM143.902 14.0151L144.739 14.0071L143.902 14.0151ZM142.55 65.6454L143.386 65.6972L142.55 65.6454ZM141.816 71.6762L141.002 71.4794L141.816 71.6762ZM140.399 74.4241L139.88 73.7671L140.399 74.4241ZM138.066 75.5154L137.327 75.1215L136.416 76.8313L138.286 76.3233L138.066 75.5154ZM137.33 75.3041L137.323 75.592L138.996 75.6358L139.004 75.3479L137.33 75.3041ZM138.138 76.4508L176.524 77.456L176.568 75.7821L138.181 74.7769L138.138 76.4508ZM176.524 77.456C176.695 77.4605 177.081 77.4828 177.479 77.2965L176.77 75.7798C176.778 75.7761 176.778 75.7789 176.753 75.7814C176.738 75.7829 176.717 75.784 176.686 75.7841C176.653 75.7843 176.618 75.7835 176.568 75.7821L176.524 77.456ZM177.479 77.2965C178.03 77.0392 178.316 76.4327 178.444 75.8727L176.811 75.5014C176.772 75.6705 176.725 75.7699 176.696 75.8169C176.682 75.8396 176.676 75.8434 176.684 75.8359C176.691 75.8288 176.719 75.8039 176.77 75.7798L177.479 77.2965ZM178.451 75.8375L180.581 64.1772L178.934 63.8764L176.804 75.5366L178.451 75.8375ZM179.779 63.1899L179.491 63.1823L179.447 64.8562L179.735 64.8637L179.779 63.1899ZM178.673 63.7605C177.85 66.2918 176.957 68.3122 176.002 69.842L177.422 70.7285C178.473 69.0456 179.417 66.8887 180.265 64.278L178.673 63.7605ZM176.002 69.842C175.056 71.3575 173.96 72.4726 172.725 73.2216L173.594 74.6533C175.091 73.7453 176.363 72.4256 177.422 70.7285L176.002 69.842ZM172.725 73.2216C171.465 73.9857 170.025 74.4867 168.392 74.7151L168.624 76.3734C170.46 76.1165 172.121 75.5463 173.594 74.6533L172.725 73.2216ZM168.392 74.7151C166.702 74.9515 164.728 75.088 162.471 75.0289L162.427 76.7027C164.777 76.7642 166.844 76.6224 168.624 76.3734L168.392 74.7151ZM162.471 75.0289L151.915 74.7524L151.871 76.4263L162.427 76.7027L162.471 75.0289ZM152.73 75.6113L154.047 25.3245L152.373 25.2807L151.056 75.5674L152.73 75.6113ZM154.047 25.3245C154.17 20.6153 154.268 16.8907 154.433 14.2247L152.762 14.1211C152.594 16.8243 152.496 20.5851 152.373 25.2807L154.047 25.3245ZM154.433 14.2247C154.598 11.5521 154.84 9.60129 155.145 8.33886L153.518 7.94529C153.177 9.35486 152.929 11.4247 152.762 14.1211L154.433 14.2247ZM155.145 8.33886C155.46 7.03446 155.814 6.42433 156.168 6.14464L155.13 4.83069C154.308 5.48051 153.848 6.57769 153.518 7.94529L155.145 8.33886ZM156.168 6.14464C156.638 5.77348 157.297 5.45221 158.278 5.21208L157.879 3.58568C156.734 3.86607 155.837 4.27234 155.13 4.83069L156.168 6.14464ZM158.915 4.4208L158.923 4.1329L157.249 4.08906L157.242 4.37697L158.915 4.4208ZM158.108 3.27406L140.066 2.80162L140.022 4.47546L158.064 4.9479L158.108 3.27406ZM139.207 3.61662L139.2 3.90453L140.874 3.94836L140.881 3.66045L139.207 3.61662ZM139.775 4.72177C140.654 5.01077 141.302 5.36745 141.757 5.76727L142.862 4.50945C142.191 3.91945 141.323 3.46818 140.298 3.13111L139.775 4.72177ZM141.757 5.76727C141.905 5.8973 142.073 6.13358 142.238 6.53949C142.4 6.9413 142.541 7.4617 142.662 8.108L144.307 7.80014C144.176 7.09537 144.01 6.45537 143.79 5.91082C143.571 5.37037 143.278 4.87434 142.862 4.50945L141.757 5.76727ZM142.662 8.108C142.9 9.38468 143.039 11.3454 143.065 14.0231L144.739 14.0071C144.713 11.3056 144.574 9.22562 144.307 7.80014L142.662 8.108ZM143.065 14.0231C143.09 16.694 142.993 20.4187 142.87 25.1279L144.543 25.1717C144.666 20.4761 144.765 16.7153 144.739 14.0071L143.065 14.0231ZM142.87 25.1279L142.101 54.4938L143.774 54.5376L144.543 25.1717L142.87 25.1279ZM142.101 54.4938C141.977 59.203 141.88 62.9276 141.714 65.5936L143.386 65.6972C143.553 62.994 143.651 59.2332 143.774 54.5376L142.101 54.4938ZM141.714 65.5936C141.549 68.2662 141.307 70.217 141.002 71.4794L142.63 71.873C142.97 70.4634 143.219 68.3937 143.386 65.6972L141.714 65.5936ZM141.002 71.4794C140.695 72.7504 140.249 73.4758 139.88 73.7671L140.918 75.0811C141.726 74.4429 142.291 73.2741 142.63 71.873L141.002 71.4794ZM139.88 73.7671C139.405 74.1426 138.74 74.4649 137.847 74.7075L138.286 76.3233C139.327 76.0404 140.217 75.6351 140.918 75.0811L139.88 73.7671ZM138.805 75.9093L138.906 75.7199L137.428 74.9321L137.327 75.1215L138.805 75.9093ZM181.277 76.4548L182.114 76.4768L180.539 76.061L181.277 76.4548ZM181.27 76.7428L180.433 76.7208L180.411 77.5578L181.248 77.5797L181.27 76.7428ZM199.216 77.2127L199.194 78.0496L200.031 78.0715L200.053 77.2346L199.216 77.2127ZM199.223 76.9248L200.06 76.9467L200.077 76.3075L199.464 76.1231L199.223 76.9248ZM196.854 75.7103L196.301 76.3393L196.854 75.7103ZM195.677 72.9906L196.5 72.8367L195.677 72.9906ZM195.259 66.9296L194.422 66.9376L195.259 66.9296ZM196.611 15.2993L195.776 15.2475L196.611 15.2993ZM197.346 9.26844L198.159 9.46523L198.159 9.46523L197.346 9.26844ZM201.093 5.52525L201.292 6.33845L201.913 6.1864L201.93 5.54717L201.093 5.52525ZM201.1 5.23735L201.937 5.25926L201.959 4.42234L201.122 4.40042L201.1 5.23735ZM183.154 4.76742L183.176 3.9305L182.339 3.90858L182.318 4.7455L183.154 4.76742ZM183.147 5.05532L182.31 5.03341L182.294 5.6561L182.885 5.85065L183.147 5.05532ZM187.012 15.144L187.849 15.136L187.012 15.144ZM185.66 66.7743L186.496 66.826L185.66 66.7743ZM184.926 72.8051L184.112 72.6083L184.926 72.8051ZM183.51 75.553L182.991 74.896L183.51 75.553ZM181.176 76.6443L180.438 76.2504L179.526 77.9602L181.396 77.4522L181.176 76.6443ZM180.44 76.4329L180.433 76.7208L182.107 76.7647L182.114 76.4768L180.44 76.4329ZM181.248 77.5797L199.194 78.0496L199.238 76.3758L181.292 75.9058L181.248 77.5797ZM200.053 77.2346L200.06 76.9467L198.386 76.9029L198.379 77.1908L200.053 77.2346ZM199.464 76.1231C198.497 75.832 197.857 75.4767 197.407 75.0814L196.301 76.3393C196.978 76.9338 197.853 77.3865 198.982 77.7264L199.464 76.1231ZM197.407 75.0814C197.068 74.7836 196.747 74.1558 196.5 72.8367L194.854 73.1445C195.113 74.5276 195.514 75.6473 196.301 76.3393L197.407 75.0814ZM196.5 72.8367C196.261 71.56 196.122 69.5993 196.097 66.9216L194.422 66.9376C194.448 69.6391 194.587 71.7191 194.854 73.1445L196.5 72.8367ZM196.097 66.9216C196.071 64.2507 196.169 60.526 196.292 55.8168L194.618 55.773C194.495 60.4685 194.396 64.2294 194.422 66.9376L196.097 66.9216ZM196.292 55.8168L197.061 26.4509L195.387 26.4071L194.618 55.773L196.292 55.8168ZM197.061 26.4509C197.184 21.7417 197.282 18.017 197.447 15.3511L195.776 15.2475C195.608 17.9507 195.51 21.7115 195.387 26.4071L197.061 26.4509ZM197.447 15.3511C197.613 12.6784 197.854 10.7277 198.159 9.46523L196.532 9.07165C196.191 10.4812 195.943 12.551 195.776 15.2475L197.447 15.3511ZM198.159 9.46523C198.475 8.16083 198.828 7.5507 199.182 7.27101L198.145 5.95706C197.322 6.60688 196.863 7.70406 196.532 9.07166L198.159 9.46523ZM199.182 7.27101C199.652 6.89984 200.311 6.57858 201.292 6.33845L200.894 4.71205C199.748 4.99244 198.851 5.39871 198.145 5.95706L199.182 7.27101ZM201.93 5.54717L201.937 5.25926L200.263 5.21543L200.256 5.50334L201.93 5.54717ZM201.122 4.40042L183.176 3.9305L183.133 5.60434L201.078 6.07427L201.122 4.40042ZM182.318 4.7455L182.31 5.03341L183.984 5.07724L183.991 4.78933L182.318 4.7455ZM182.885 5.85065C183.764 6.13965 184.412 6.49633 184.867 6.89615L185.973 5.63833C185.301 5.04833 184.434 4.59706 183.408 4.25999L182.885 5.85065ZM184.867 6.89615C185.015 7.02618 185.183 7.26246 185.348 7.66837C185.511 8.07018 185.651 8.59058 185.772 9.23689L187.418 8.92902C187.286 8.22425 187.12 7.58425 186.9 7.0397C186.681 6.49925 186.388 6.00322 185.973 5.63833L184.867 6.89615ZM185.772 9.23689C186.011 10.5136 186.15 12.4743 186.175 15.1519L187.849 15.136C187.824 12.4344 187.684 10.3545 187.418 8.92902L185.772 9.23689ZM186.175 15.1519C186.2 17.8229 186.103 21.5475 185.98 26.2567L187.654 26.3006C187.777 21.605 187.875 17.8442 187.849 15.136L186.175 15.1519ZM185.98 26.2567L185.211 55.6227L186.885 55.6665L187.654 26.3006L185.98 26.2567ZM185.211 55.6227C185.087 60.3319 184.99 64.0565 184.825 66.7225L186.496 66.826C186.663 64.1229 186.762 60.3621 186.885 55.6665L185.211 55.6227ZM184.825 66.7225C184.659 69.3951 184.418 71.3459 184.112 72.6083L185.74 73.0019C186.081 71.5923 186.329 69.5225 186.496 66.826L184.825 66.7225ZM184.112 72.6083C183.805 73.8792 183.36 74.6047 182.991 74.896L184.029 76.21C184.837 75.5717 185.401 74.403 185.74 73.0019L184.112 72.6083ZM182.991 74.896C182.515 75.2715 181.85 75.5938 180.957 75.8363L181.396 77.4522C182.437 77.1693 183.327 76.764 184.029 76.21L182.991 74.896ZM181.915 77.0382L182.016 76.8487L180.539 76.061L180.438 76.2504L181.915 77.0382ZM201.513 77.2728L200.676 77.2509L200.654 78.0878L201.491 78.1098L201.513 77.2728ZM210.438 77.5065L210.416 78.3435L211.253 78.3654L211.275 77.5285L210.438 77.5065ZM210.445 77.2186L211.282 77.2406L211.298 76.6544L210.752 76.4396L210.445 77.2186ZM208.081 75.8123L208.634 75.1834L208.081 75.8123ZM206.907 72.9966L207.73 72.8426L206.907 72.9966ZM206.487 67.0315L207.324 67.0224L206.487 67.0315ZM207.949 7.5294L208.696 7.15283L207.112 7.50749L207.949 7.5294ZM243.824 78.7649L243.077 79.1415L243.302 79.5887L243.802 79.6019L243.824 78.7649ZM245.168 78.8001L245.146 79.637L245.983 79.6589L246.005 78.822L245.168 78.8001ZM246.882 16.9998L247.718 17.0527L246.882 16.9998ZM247.614 11.0649L248.427 11.2617L248.427 11.2617L247.614 11.0649ZM248.934 8.31455L249.453 8.97152L249.453 8.97152L248.934 8.31455ZM251.273 7.03132L251.563 7.81652L252.095 7.61986L252.11 7.05323L251.273 7.03132ZM251.28 6.74342L252.117 6.76534L252.139 5.92841L251.302 5.9065L251.28 6.74342ZM242.355 6.50971L242.377 5.67279L241.54 5.65087L241.518 6.4878L242.355 6.50971ZM242.348 6.79761L241.511 6.77569L241.495 7.3619L242.041 7.57665L242.348 6.79761ZM244.712 8.20398L244.159 8.83289L244.159 8.83289L244.712 8.20398ZM245.886 11.0197L246.709 10.8658L246.709 10.8658L245.886 11.0197ZM246.306 16.9847L245.469 16.9938L246.306 16.9847ZM245.279 59.8845L244.532 60.2632L246.116 59.9065L245.279 59.8845ZM219.071 8.20478L219.818 7.82611L219.816 7.82326L219.071 8.20478ZM217.78 6.15429L218.387 5.57799L218.387 5.57799L217.78 6.15429ZM203.491 5.39599L203.513 4.55906L202.676 4.53715L202.654 5.37407L203.491 5.39599ZM203.483 5.68388L202.647 5.66197L202.63 6.28466L203.222 6.47921L203.483 5.68388ZM205.757 6.8958L205.204 7.52472L205.757 6.8958ZM206.931 9.71152L206.108 9.86545L206.931 9.71152ZM207.349 15.7725L206.512 15.7805L207.349 15.7725ZM206.004 67.1149L205.169 67.0621L206.004 67.1149ZM205.273 73.0498L204.459 72.853L205.273 73.0498ZM203.856 75.7977L204.375 76.4546L203.856 75.7977ZM201.518 77.0809L200.681 77.059L200.649 78.2951L201.808 77.8661L201.518 77.0809ZM200.683 76.963L200.676 77.2509L202.35 77.2948L202.357 77.0068L200.683 76.963ZM201.491 78.1098L210.416 78.3435L210.46 76.6696L201.535 76.4359L201.491 78.1098ZM211.275 77.5285L211.282 77.2406L209.608 77.1967L209.601 77.4846L211.275 77.5285ZM210.752 76.4396C209.797 76.0638 209.125 75.6149 208.634 75.1834L207.529 76.4412C208.164 76.9995 209.002 77.5505 210.139 77.9977L210.752 76.4396ZM208.634 75.1834C208.486 75.0533 208.318 74.8171 208.153 74.4111C207.991 74.0093 207.85 73.4889 207.73 72.8426L206.084 73.1505C206.215 73.8553 206.381 74.4953 206.602 75.0398C206.82 75.5803 207.113 76.0763 207.529 76.4412L208.634 75.1834ZM207.73 72.8426C207.491 71.5652 207.352 69.6038 207.324 67.0224L205.649 67.0406C205.678 69.6465 205.817 71.7258 206.084 73.1505L207.73 72.8426ZM207.324 67.0224C207.296 64.4482 207.391 60.8203 207.512 56.2066L205.838 56.1628C205.717 60.762 205.621 64.4276 205.649 67.0406L207.324 67.0224ZM207.512 56.2066L208.786 7.55132L207.112 7.50749L205.838 56.1628L207.512 56.2066ZM207.201 7.90598L243.077 79.1415L244.572 78.3884L208.696 7.15283L207.201 7.90598ZM243.802 79.6019L245.146 79.637L245.19 77.9632L243.846 77.928L243.802 79.6019ZM246.005 78.822L247.339 27.8635L245.665 27.8197L244.331 78.7782L246.005 78.822ZM247.339 27.8635C247.46 23.2499 247.555 19.622 247.718 17.0527L246.047 16.9469C245.882 19.5548 245.786 23.2204 245.665 27.8197L247.339 27.8635ZM247.718 17.0527C247.881 14.4763 248.122 12.5249 248.427 11.2617L246.8 10.8681C246.459 12.277 246.211 14.3461 246.047 16.9469L247.718 17.0527ZM248.427 11.2617C248.582 10.6226 248.749 10.1103 248.933 9.71753C249.118 9.32079 249.299 9.09362 249.453 8.97152L248.415 7.65758C247.981 8.00024 247.663 8.48026 247.416 9.00851C247.167 9.54077 246.969 10.1712 246.8 10.8681L248.427 11.2617ZM249.453 8.97152C249.971 8.56249 250.674 8.14549 251.563 7.81652L250.982 6.24612C249.932 6.63463 249.074 7.13709 248.415 7.65758L249.453 8.97152ZM252.11 7.05323L252.117 6.76534L250.443 6.7215L250.436 7.0094L252.11 7.05323ZM251.302 5.9065L242.377 5.67279L242.333 7.34664L251.258 7.58034L251.302 5.9065ZM241.518 6.4878L241.511 6.77569L243.185 6.81953L243.192 6.53163L241.518 6.4878ZM242.041 7.57665C242.996 7.95245 243.668 8.40137 244.159 8.83289L245.264 7.57507C244.629 7.01675 243.791 6.46579 242.654 6.01857L242.041 7.57665ZM244.159 8.83289C244.307 8.96292 244.475 9.1992 244.639 9.60511C244.802 10.0069 244.942 10.5273 245.063 11.1736L246.709 10.8658C246.577 10.161 246.412 9.52099 246.191 8.97644C245.972 8.43599 245.68 7.93996 245.264 7.57507L244.159 8.83289ZM245.063 11.1736C245.302 12.4511 245.441 14.4124 245.469 16.9938L247.143 16.9757C247.115 14.3698 246.976 12.2905 246.709 10.8658L245.063 11.1736ZM245.469 16.9938C245.497 19.5681 245.402 23.196 245.281 27.8096L246.955 27.8534C247.076 23.2542 247.172 19.5886 247.143 16.9757L245.469 16.9938ZM245.281 27.8096L244.442 59.8626L246.116 59.9065L246.955 27.8534L245.281 27.8096ZM246.026 59.5059L219.818 7.82612L218.324 8.58344L244.532 60.2632L246.026 59.5059ZM219.816 7.82326C219.259 6.73513 218.753 5.96314 218.387 5.57799L217.173 6.73058C217.368 6.93631 217.786 7.533 218.326 8.5863L219.816 7.82326ZM218.387 5.57799C217.854 5.01553 217.057 4.91372 216.373 4.8958L216.329 6.56965C216.988 6.58692 217.146 6.70216 217.173 6.73058L218.387 5.57799ZM216.373 4.8958L203.513 4.55906L203.469 6.23291L216.329 6.56965L216.373 4.8958ZM202.654 5.37407L202.647 5.66197L204.32 5.7058L204.328 5.4179L202.654 5.37407ZM203.222 6.47921C204.101 6.76821 204.749 7.12489 205.204 7.52472L206.309 6.26689C205.638 5.67689 204.77 5.22563 203.745 4.88856L203.222 6.47921ZM205.204 7.52472C205.352 7.65474 205.52 7.89102 205.684 8.29693C205.847 8.69874 205.987 9.21914 206.108 9.86545L207.754 9.55759C207.622 8.85281 207.457 8.21281 207.236 7.66827C207.017 7.12782 206.724 6.63178 206.309 6.26689L205.204 7.52472ZM206.108 9.86545C206.347 11.1421 206.486 13.1029 206.512 15.7805L208.186 15.7646C208.16 13.063 208.021 10.9831 207.754 9.55759L206.108 9.86545ZM206.512 15.7805C206.537 18.4515 206.44 22.1761 206.316 26.8853L207.99 26.9291C208.113 22.2336 208.212 18.4728 208.186 15.7646L206.512 15.7805ZM206.316 26.8853L205.547 56.2512L207.221 56.2951L207.99 26.9291L206.316 26.8853ZM205.547 56.2512C205.426 60.8649 205.331 64.4928 205.169 67.0621L206.84 67.1678C207.005 64.5599 207.101 60.8943 207.221 56.2951L205.547 56.2512ZM205.169 67.0621C205.006 69.6384 204.764 71.5898 204.459 72.853L206.086 73.2466C206.427 71.8378 206.675 69.7686 206.84 67.1678L205.169 67.0621ZM204.459 72.853C204.152 74.1239 203.706 74.8494 203.337 75.1407L204.375 76.4546C205.183 75.8165 205.748 74.6477 206.086 73.2466L204.459 72.853ZM203.337 75.1407C202.819 75.5497 202.117 75.9667 201.227 76.2957L201.808 77.8661C202.859 77.4776 203.716 76.9751 204.375 76.4546L203.337 75.1407ZM202.355 77.1028L202.357 77.0068L200.683 76.963L200.681 77.059L202.355 77.1028ZM279.759 80.09L279.781 79.2531L279.513 79.2461L279.29 79.3963L279.759 80.09ZM286.694 79.3113L286.461 78.5071L286.694 79.3113ZM300.085 70.3468L300.769 70.8293L300.915 70.6221L300.922 70.3687L300.085 70.3468ZM300.563 55.7623L301.398 55.826L301.398 55.826L300.563 55.7623ZM301.252 51.4589L302.047 51.7203L302.047 51.7203L301.252 51.4589ZM302.648 49.4787L303.094 50.1872L302.648 49.4787ZM305.073 48.5819L305.272 49.3951L305.893 49.243L305.91 48.6038L305.073 48.5819ZM305.08 48.294L305.917 48.3159L305.939 47.479L305.102 47.4571L305.08 48.294ZM287.326 47.8291L287.348 46.9922L286.511 46.9702L286.489 47.8072L287.326 47.8291ZM287.319 48.117L286.482 48.0951L286.465 48.7178L287.057 48.9123L287.319 48.117ZM289.597 49.137L289.114 49.8212L289.597 49.137ZM290.888 51.1875L290.08 51.407L290.888 51.1875ZM291.358 55.2331L290.521 55.2577L290.521 55.2577L291.358 55.2331ZM290.549 71.4415L291.375 71.5816L290.549 71.4415ZM288.689 76.4826L289.381 76.9536L288.689 76.4826ZM285.158 79.2711L284.868 78.4859L285.158 79.2711ZM267.325 70.8334L266.567 71.1881L267.325 70.8334ZM264.179 58.939L263.35 59.0496L264.179 58.939ZM268.99 14.6017L269.705 15.036L268.99 14.6017ZM274.611 8.98691L274.992 9.73214L274.992 9.73214L274.611 8.98691ZM287.301 8.45492L287.028 9.2464L287.301 8.45492ZM292.122 11.3661L292.687 10.748L292.687 10.748L292.122 11.3661ZM295.737 16.3585L294.985 16.7274L295.737 16.3585ZM297.852 23.6163L297.023 23.7369L297.125 24.4348L297.83 24.4532L297.852 23.6163ZM298.14 23.6238L298.118 24.4608L298.955 24.4827L298.976 23.6458L298.14 23.6238ZM298.534 8.557L299.371 8.57892L299.393 7.742L298.556 7.72008L298.534 8.557ZM298.246 8.54947L298.268 7.71254L297.632 7.69589L297.446 8.30435L298.246 8.54947ZM293.011 10.4291L293.371 9.67319L293.371 9.67319L293.011 10.4291ZM290.162 9.20208L290.469 8.42303L290.162 9.20208ZM286.546 7.95498L286.797 7.15628L286.797 7.15628L286.546 7.95498ZM271.439 9.09592L271.121 8.32135L271.439 9.09592ZM255.808 26.5487L255.029 26.2435L255.808 26.5487ZM254.499 58.2053L255.313 58.0077L254.499 58.2053ZM259.567 70.054L258.877 70.5286L259.567 70.054ZM267.915 77.6672L267.512 78.4014L267.915 77.6672ZM279.075 80.5523L279.053 81.3892L279.321 81.3962L279.543 81.2461L279.075 80.5523ZM279.737 80.927C282.295 80.994 284.695 80.7616 286.927 80.1155L286.461 78.5071C284.435 79.0939 282.213 79.3168 279.781 79.2531L279.737 80.927ZM286.927 80.1155C289.09 79.4891 291.085 78.7531 292.902 77.8052L292.127 76.3207C290.439 77.2016 288.556 77.9006 286.461 78.5071L286.927 80.1155ZM292.902 77.8052C294.733 76.8496 296.265 75.6872 297.593 74.427L296.441 73.2124C295.208 74.382 293.801 75.4474 292.127 76.3207L292.902 77.8052ZM297.593 74.427C298.905 73.1822 299.934 72.0146 300.769 70.8293L299.401 69.8643C298.641 70.942 297.69 72.0273 296.441 73.2124L297.593 74.427ZM300.922 70.3687L301.1 63.555L299.427 63.5112L299.248 70.3249L300.922 70.3687ZM301.1 63.555C301.186 60.283 301.254 57.7169 301.398 55.826L299.728 55.6986C299.58 57.6413 299.512 60.2575 299.427 63.5112L301.1 63.555ZM301.398 55.826C301.543 53.9269 301.767 52.574 302.047 51.7203L300.457 51.1974C300.111 52.2479 299.876 53.764 299.728 55.6986L301.398 55.826ZM302.047 51.7203C302.315 50.9046 302.712 50.4278 303.094 50.1872L302.202 48.7702C301.413 49.2672 300.815 50.1088 300.457 51.1974L302.047 51.7203ZM303.094 50.1872C303.562 49.8926 304.23 49.6501 305.272 49.3951L304.874 47.7687C303.789 48.0342 302.906 48.3272 302.202 48.7702L303.094 50.1872ZM305.91 48.6038L305.917 48.3159L304.243 48.2721L304.236 48.56L305.91 48.6038ZM305.102 47.4571L287.348 46.9922L287.304 48.666L305.058 49.1309L305.102 47.4571ZM286.489 47.8072L286.482 48.0951L288.156 48.1389L288.163 47.851L286.489 47.8072ZM287.057 48.9123C287.999 49.2218 288.657 49.4987 289.114 49.8212L290.079 48.4528C289.405 47.9773 288.543 47.6382 287.58 47.3216L287.057 48.9123ZM289.114 49.8212C289.483 50.0814 289.854 50.5783 290.08 51.407L291.695 50.968C291.395 49.8622 290.842 48.9904 290.079 48.4528L289.114 49.8212ZM290.08 51.407C290.317 52.2809 290.471 53.5535 290.521 55.2577L292.195 55.2086C292.143 53.453 291.984 52.0285 291.695 50.968L290.08 51.407ZM290.521 55.2577C290.571 56.9588 290.512 59.2343 290.433 62.2193L292.107 62.2632C292.185 59.2983 292.246 56.9674 292.195 55.2086L290.521 55.2577ZM290.433 62.2193L290.388 63.9468L292.062 63.9906L292.107 62.2632L290.433 62.2193ZM290.388 63.9468C290.311 66.8864 290.057 69.3368 289.724 71.3015L291.375 71.5816C291.723 69.5307 291.983 67.0009 292.062 63.9906L290.388 63.9468ZM289.724 71.3015C289.397 73.2276 288.809 74.817 287.996 76.0116L289.381 76.9536C290.366 75.5063 291.02 73.671 291.375 71.5816L289.724 71.3015ZM287.996 76.0116C287.192 77.1932 286.154 78.0101 284.868 78.4859L285.449 80.0563C287.072 79.4559 288.387 78.4138 289.381 76.9536L287.996 76.0116ZM284.868 78.4859C283.551 78.9731 281.742 79.2084 279.496 79.1496L279.452 80.8235C281.812 80.8853 283.857 80.6454 285.449 80.0563L284.868 78.4859ZM279.496 79.1496C277.162 79.0885 275.041 78.4076 273.109 77.0152L272.13 78.3735C274.345 79.9706 276.795 80.7539 279.452 80.8235L279.496 79.1496ZM273.109 77.0152C271.18 75.6246 269.495 73.4971 268.084 70.4787L266.567 71.1881C268.065 74.392 269.912 76.7744 272.13 78.3735L273.109 77.0152ZM268.084 70.4787C266.676 67.4695 265.644 63.5944 265.009 58.8284L263.35 59.0496C263.999 63.9204 265.064 67.975 266.567 71.1881L268.084 70.4787ZM265.009 58.8284C264.375 54.0671 264.142 48.3459 264.32 41.5607L262.646 41.5169C262.467 48.359 262.7 54.1739 263.35 59.0496L265.009 58.8284ZM264.32 41.5607C264.49 35.0612 265.014 29.661 265.977 25.3433L264.343 24.9789C263.347 29.4449 262.817 34.9649 262.646 41.5169L264.32 41.5607ZM265.977 25.3433C266.947 20.9957 268.166 17.5735 269.705 15.036L268.274 14.1674C266.602 16.9236 265.332 20.5427 264.343 24.9789L265.977 25.3433ZM269.705 15.036C271.254 12.4842 273.023 10.7402 274.992 9.73214L274.229 8.24169C271.915 9.4263 269.938 11.4254 268.274 14.1674L269.705 15.036ZM274.992 9.73214C277.004 8.70209 279.183 8.21555 281.544 8.27736L281.587 6.60352C278.958 6.53465 276.5 7.07909 274.229 8.24169L274.992 9.73214ZM281.544 8.27736C283.478 8.32802 285.305 8.6522 287.028 9.2464L287.574 7.66345C285.68 7.01054 283.684 6.65841 281.587 6.60352L281.544 8.27736ZM287.028 9.2464C288.717 9.82879 290.226 10.7676 291.558 11.9842L292.687 10.748C291.205 9.39413 289.501 8.32815 287.574 7.66345L287.028 9.2464ZM291.558 11.9842C292.874 13.1866 294.02 14.7606 294.985 16.7274L296.488 15.9895C295.448 13.8704 294.185 12.1162 292.687 10.748L291.558 11.9842ZM294.985 16.7274C295.942 18.6758 296.626 21.0076 297.023 23.7369L298.68 23.4957C298.264 20.6338 297.538 18.127 296.488 15.9895L294.985 16.7274ZM297.83 24.4532L298.118 24.4608L298.161 22.7869L297.874 22.7794L297.83 24.4532ZM298.976 23.6458L299.371 8.57892L297.697 8.53509L297.303 23.6019L298.976 23.6458ZM298.556 7.72008L298.268 7.71254L298.224 9.38639L298.512 9.39393L298.556 7.72008ZM297.446 8.30435C297.207 9.08334 296.911 9.57877 296.615 9.86761C296.339 10.1368 296.046 10.2472 295.705 10.2383L295.661 11.9122C296.472 11.9334 297.198 11.6384 297.784 11.0658C298.351 10.513 298.76 9.73044 299.047 8.79458L297.446 8.30435ZM295.705 10.2383C294.867 10.2164 294.123 10.0312 293.371 9.67319L292.651 11.185C293.607 11.6399 294.58 11.8839 295.661 11.9122L295.705 10.2383ZM293.371 9.67319C292.497 9.25699 291.529 8.84037 290.469 8.42303L289.856 9.98112C290.887 10.3868 291.818 10.7882 292.651 11.185L293.371 9.67319ZM290.469 8.42303C289.396 8.00095 288.137 7.5776 286.797 7.15628L286.295 8.75368C287.621 9.17046 288.837 9.58019 289.856 9.98112L290.469 8.42303ZM286.797 7.15628C285.363 6.70568 283.556 6.463 281.496 6.40907L281.453 8.08291C283.423 8.13452 285.062 8.36618 286.295 8.75368L286.797 7.15628ZM281.496 6.40907C278.024 6.31813 274.531 6.92223 271.121 8.32135L271.756 9.87048C274.947 8.56147 278.208 7.99794 281.453 8.08291L281.496 6.40907ZM271.121 8.32135C267.699 9.72521 264.566 11.9288 261.82 14.9203L263.053 16.0527C265.645 13.2298 268.577 11.1748 271.756 9.87048L271.121 8.32135ZM261.82 14.9203C259.067 17.918 256.808 21.6996 255.029 26.2435L256.588 26.854C258.308 22.4624 260.467 18.8691 263.053 16.0527L261.82 14.9203ZM255.029 26.2435C253.234 30.8281 252.315 36.2848 252.15 42.5865L253.824 42.6303C253.986 36.4562 254.884 31.2048 256.588 26.854L255.029 26.2435ZM252.15 42.5865C251.998 48.4093 252.539 53.6837 253.686 58.403L255.313 58.0077C254.205 53.4488 253.675 48.3236 253.824 42.6303L252.15 42.5865ZM253.686 58.403C254.833 63.1234 256.59 67.2036 258.877 70.5286L260.257 69.5795C258.104 66.4501 256.42 62.5654 255.313 58.0077L253.686 58.403ZM258.877 70.5286C261.168 73.8589 264.079 76.5204 267.512 78.4014L268.317 76.9329C265.123 75.1832 262.406 72.7036 260.257 69.5795L258.877 70.5286ZM267.512 78.4014C270.953 80.2865 274.806 81.278 279.053 81.3892L279.097 79.7154C275.091 79.6105 271.503 78.6785 268.317 76.9329L267.512 78.4014ZM279.543 81.2461L280.228 80.7838L279.29 79.3963L278.606 79.8585L279.543 81.2461ZM305.922 79.7188L306.759 79.7407L306.789 78.5795L305.678 78.9179L305.922 79.7188ZM305.915 80.0067L305.078 79.9848L305.056 80.8217L305.893 80.8436L305.915 80.0067ZM347.589 80.1377L348.406 80.3233L348.414 80.2887L348.419 80.2536L347.589 80.1377ZM349.007 69.9953L349.837 70.1112L349.966 69.1829L349.029 69.1584L349.007 69.9953ZM348.624 69.9852L348.645 69.1483L347.986 69.131L347.815 69.7686L348.624 69.9852ZM342.917 78.8629L342.521 78.1254L342.521 78.1254L342.917 78.8629ZM338.177 80.1793L338.243 81.0139L338.177 80.1793ZM319.552 79.9797L318.715 79.9577L318.693 80.7947L319.53 80.8166L319.552 79.9797ZM320.57 41.113L320.592 40.2761L319.755 40.2541L319.733 41.0911L320.57 41.113ZM332.983 43.8389L332.333 44.3669L332.983 43.8389ZM334.17 46.1747L334.971 45.9309L334.971 45.9309L334.17 46.1747ZM334.774 48.7834L333.952 48.9436L334.08 49.6028L334.752 49.6204L334.774 48.7834ZM334.966 48.7885L334.944 49.6254L335.781 49.6473L335.803 48.8104L334.966 48.7885ZM335.365 33.5297L336.202 33.5516L336.224 32.7147L335.387 32.6928L335.365 33.5297ZM335.173 33.5247L335.195 32.6877L334.524 32.6702L334.361 33.3217L335.173 33.5247ZM334.434 36.0982L335.221 36.3836L335.221 36.3836L334.434 36.0982ZM333.126 38.3687L332.505 37.8074L332.505 37.8074L333.126 38.3687ZM330.585 40.0308L330.912 40.8018L330.585 40.0308ZM320.587 40.4412L319.75 40.4193L319.728 41.2562L320.565 41.2781L320.587 40.4412ZM321.424 8.48417L321.446 7.64725L320.609 7.62533L320.587 8.46226L321.424 8.48417ZM338.11 9.40127L337.951 10.2232L337.951 10.2232L338.11 9.40127ZM342.484 11.0523L342.027 11.7536L342.027 11.7536L342.484 11.0523ZM345.573 14.1102L344.873 14.5686L344.873 14.5686L345.573 14.1102ZM347.561 18.8679L346.753 19.0874L346.917 19.6885L347.539 19.7048L347.561 18.8679ZM347.945 18.878L347.923 19.7149L348.924 19.7411L348.773 18.7515L347.945 18.878ZM346.633 10.2967L345.802 10.3934L345.803 10.4083L345.806 10.4232L346.633 10.2967ZM346.184 9.13252L345.79 9.87128L345.79 9.87129L346.184 9.13252ZM307.61 7.93037L307.632 7.09344L306.795 7.07153L306.773 7.90845L307.61 7.93037ZM307.602 8.21827L306.765 8.19635L306.749 8.81905L307.341 9.0136L307.602 8.21827ZM309.875 9.43018L310.428 8.80127L310.428 8.80127L309.875 9.43018ZM311.468 18.3069L312.305 18.2989L311.468 18.3069ZM310.116 69.9372L310.951 69.989L310.116 69.9372ZM309.381 75.9681L310.195 76.1648L309.381 75.9681ZM307.965 78.7159L307.446 78.059L307.965 78.7159ZM305.632 79.8072L305.388 79.0063L305.851 80.6151L305.632 79.8072ZM305.085 79.6969L305.078 79.9848L306.751 80.0286L306.759 79.7407L305.085 79.6969ZM305.893 80.8436L346.583 81.9091L346.626 80.2353L305.936 79.1698L305.893 80.8436ZM346.583 81.9091C346.754 81.9136 347.139 81.9359 347.538 81.7497L346.828 80.2329C346.836 80.2292 346.836 80.2321 346.811 80.2346C346.796 80.236 346.776 80.2371 346.744 80.2373C346.712 80.2374 346.677 80.2366 346.626 80.2353L346.583 81.9091ZM347.538 81.7497C347.9 81.5801 348.084 81.2707 348.182 81.0515C348.282 80.8283 348.35 80.5685 348.406 80.3233L346.773 79.952C346.748 80.0623 346.725 80.1512 346.704 80.2236C346.683 80.2969 346.666 80.3418 346.654 80.3673C346.642 80.3937 346.644 80.3822 346.667 80.3542C346.693 80.3223 346.746 80.2716 346.828 80.2329L347.538 81.7497ZM348.419 80.2536L349.837 70.1112L348.178 69.8794L346.76 80.0217L348.419 80.2536ZM349.029 69.1584L348.645 69.1483L348.602 70.8222L348.985 70.8322L349.029 69.1584ZM347.815 69.7686C347.193 72.0915 346.404 73.9075 345.559 75.2361L346.972 76.1349C347.929 74.6296 348.777 72.6472 349.432 70.2019L347.815 69.7686ZM345.559 75.2361C344.728 76.5425 343.748 77.4664 342.521 78.1254L343.313 79.6004C344.814 78.7943 346 77.6622 346.972 76.1349L345.559 75.2361ZM342.521 78.1254C341.273 78.796 339.84 79.2084 338.111 79.3447L338.243 81.0139C340.171 80.8618 341.834 80.395 343.313 79.6004L342.521 78.1254ZM338.111 79.3447C336.321 79.4859 334.142 79.5242 331.666 79.4594L331.622 81.1332C334.136 81.1991 336.377 81.1611 338.243 81.0139L338.111 79.3447ZM331.666 79.4594L319.574 79.1427L319.53 80.8166L331.622 81.1332L331.666 79.4594ZM320.389 80.0016L321.407 41.1349L319.733 41.0911L318.715 79.9577L320.389 80.0016ZM320.548 41.9499L326.21 42.0982L326.254 40.4243L320.592 40.2761L320.548 41.9499ZM326.21 42.0982C327.998 42.145 329.287 42.3711 330.166 42.7989L330.899 41.2933C329.692 40.7061 328.112 40.473 326.254 40.4243L326.21 42.0982ZM330.166 42.7989C331.149 43.2768 331.88 43.8094 332.333 44.3669L333.632 43.3108C332.969 42.4946 332.003 41.8304 330.899 41.2933L330.166 42.7989ZM332.333 44.3669C332.805 44.9476 333.126 45.6197 333.369 46.4186L334.971 45.9309C334.683 44.9872 334.277 44.1038 333.632 43.3108L332.333 44.3669ZM333.369 46.4186C333.62 47.2419 333.781 48.0687 333.952 48.9436L335.595 48.6233C335.427 47.7608 335.251 46.85 334.971 45.9309L333.369 46.4186ZM334.752 49.6204L334.944 49.6254L334.988 47.9515L334.796 47.9465L334.752 49.6204ZM335.803 48.8104L336.202 33.5516L334.528 33.5078L334.129 48.7665L335.803 48.8104ZM335.387 32.6928L335.195 32.6877L335.151 34.3616L335.343 34.3666L335.387 32.6928ZM334.361 33.3217C334.145 34.1865 333.94 35.0036 333.647 35.8127L335.221 36.3836C335.548 35.4804 335.773 34.5802 335.986 33.7276L334.361 33.3217ZM333.647 35.8127C333.362 36.5978 333.006 37.2522 332.505 37.8074L333.747 38.93C334.432 38.1719 334.884 37.3109 335.221 36.3836L333.647 35.8127ZM332.505 37.8074C332.023 38.3404 331.265 38.834 330.259 39.2598L330.912 40.8018C332.042 40.3232 333.042 39.7104 333.747 38.93L332.505 37.8074ZM330.259 39.2598C329.359 39.641 328.06 39.7994 326.271 39.7526L326.227 41.4264C328.086 41.4751 329.676 41.325 330.912 40.8018L330.259 39.2598ZM326.271 39.7526L320.609 39.6043L320.565 41.2781L326.227 41.4264L326.271 39.7526ZM321.424 40.4631L322.261 8.50609L320.587 8.46226L319.75 40.4193L321.424 40.4631ZM321.402 9.3211L332.055 9.60004L332.098 7.92619L321.446 7.64725L321.402 9.3211ZM332.055 9.60004C334.311 9.65913 336.275 9.89871 337.951 10.2232L338.269 8.57934C336.504 8.23755 334.448 7.98773 332.098 7.92619L332.055 9.60004ZM337.951 10.2232C339.596 10.542 340.914 11.0278 342.027 11.7536L342.941 10.3511C341.599 9.47601 340.063 8.92684 338.269 8.57934L337.951 10.2232ZM342.027 11.7536C343.165 12.4961 344.11 13.4032 344.873 14.5686L346.274 13.6519C345.374 12.277 344.258 11.2094 342.941 10.351L342.027 11.7536ZM344.873 14.5686C345.639 15.7405 346.241 17.2034 346.753 19.0874L348.369 18.6484C347.83 16.6636 347.169 15.0204 346.274 13.6519L344.873 14.5686ZM347.539 19.7048L347.923 19.7149L347.967 18.0411L347.583 18.031L347.539 19.7048ZM348.773 18.7515L347.461 10.1702L345.806 10.4232L347.117 19.0045L348.773 18.7515ZM347.465 10.2C347.42 9.81375 347.341 9.46909 347.226 9.18425C347.124 8.93431 346.935 8.58464 346.577 8.39376L345.79 9.87129C345.694 9.82002 345.652 9.7626 345.648 9.75756C345.642 9.74941 345.654 9.76386 345.675 9.815C345.717 9.91842 345.768 10.1053 345.802 10.3934L347.465 10.2ZM346.577 8.39377C346.311 8.25154 345.897 8.09546 345.443 8.08356L345.399 9.7574C345.453 9.75882 345.521 9.77009 345.598 9.79312C345.674 9.81596 345.741 9.84554 345.79 9.87128L346.577 8.39377ZM345.443 8.08356L307.632 7.09344L307.588 8.76729L345.399 9.7574L345.443 8.08356ZM306.773 7.90845L306.765 8.19635L308.439 8.24018L308.447 7.95228L306.773 7.90845ZM307.341 9.0136C308.22 9.30259 308.868 9.65927 309.323 10.0591L310.428 8.80127C309.757 8.21127 308.889 7.76 307.864 7.42294L307.341 9.0136ZM309.323 10.0591C309.471 10.1891 309.639 10.4254 309.803 10.8313C309.966 11.2331 310.106 11.7535 310.227 12.3998L311.873 12.092C311.741 11.3872 311.576 10.7472 311.355 10.2027C311.136 9.6622 310.843 9.16617 310.428 8.80127L309.323 10.0591ZM310.227 12.3998C310.466 13.6765 310.605 15.6372 310.63 18.3149L312.305 18.2989C312.279 15.5974 312.14 13.5175 311.873 12.092L310.227 12.3998ZM310.63 18.3149C310.656 20.9858 310.558 24.7105 310.435 29.4197L312.109 29.4635C312.232 24.768 312.33 21.0071 312.305 18.2989L310.63 18.3149ZM310.435 29.4197L309.666 58.7856L311.34 58.8295L312.109 29.4635L310.435 29.4197ZM309.666 58.7856C309.543 63.4948 309.445 67.2195 309.28 69.8854L310.951 69.989C311.119 67.2858 311.217 63.525 311.34 58.8295L309.666 58.7856ZM309.28 69.8854C309.114 72.5581 308.873 74.5088 308.568 75.7713L310.195 76.1648C310.536 74.7553 310.784 72.6855 310.951 69.989L309.28 69.8854ZM308.568 75.7713C308.26 77.0422 307.815 77.7676 307.446 78.059L308.484 79.3729C309.292 78.7347 309.856 77.5659 310.195 76.1648L308.568 75.7713ZM307.446 78.059C306.971 78.4344 306.305 78.7567 305.412 78.9993L305.851 80.6151C306.893 80.3322 307.783 79.9269 308.484 79.3729L307.446 78.059ZM305.876 80.6081L306.166 80.5197L305.678 78.9179L305.388 79.0063L305.876 80.6081ZM350.712 81.1797L349.875 81.1578L349.853 81.9948L350.69 82.0167L350.712 81.1797ZM368.753 81.6522L368.732 82.4891L369.568 82.511L369.59 81.6741L368.753 81.6522ZM368.761 81.3643L369.598 81.3862L369.615 80.747L369.002 80.5626L368.761 81.3643ZM366.392 80.1499L365.839 80.7788L366.392 80.1499ZM365.215 77.4301L364.392 77.584L365.215 77.4301ZM364.797 71.3691L365.634 71.3611L364.797 71.3691ZM365.38 45.4555L365.402 44.6185L364.565 44.5966L364.543 45.4336L365.38 45.4555ZM372.277 46.1162L372.518 45.3146L372.277 46.1162ZM374.904 48.4898L375.628 48.0699L374.904 48.4898ZM376.768 54.3006L377.59 54.1405L376.768 54.3006ZM378.596 65.2002L377.769 65.3329L377.769 65.3342L378.596 65.2002ZM380.763 74.092L379.983 74.3936L380.763 74.092ZM383.886 79.5516L384.493 78.9753L383.886 79.5516ZM388.136 82.2558L387.879 83.0525L388.136 82.2558ZM398.508 82.2393L398.886 82.9866L398.508 82.2393ZM401.445 80.1074L402.061 80.675L402.592 80.0993L402.052 79.5311L401.445 80.1074ZM401.165 79.812L401.772 79.2357L401.15 78.5799L400.544 79.2507L401.165 79.812ZM399.301 81.2997L398.905 80.5622L399.301 81.2997ZM393.743 80.8661L393.26 81.5503L393.743 80.8661ZM391.515 77.9267L390.756 78.2814L391.515 77.9267ZM389.734 72.5983L388.918 72.7883L389.734 72.5983ZM388.217 64.4918L387.389 64.6116L387.39 64.62L388.217 64.4918ZM386.133 56.0824L386.909 55.7688L386.133 56.0824ZM382.821 50.5218L383.448 49.9667L382.821 50.5218ZM378.298 47.2342L378.621 46.4622L378.298 47.2342ZM372.572 45.8359L372.636 45.0011L372.475 46.6674L372.572 45.8359ZM374.489 45.9821L374.426 46.8169L374.446 46.8185L374.467 46.819L374.489 45.9821ZM383.252 45.0592L383.051 44.2466L383.252 45.0592ZM390.636 41.7954L390.162 41.1056L390.636 41.7954ZM395.78 36.072L395.047 35.6665L395.047 35.6665L395.78 36.072ZM391.926 14.5558L391.451 15.2452L391.926 14.5558ZM352.685 9.49483L352.707 8.6579L351.87 8.63599L351.848 9.47291L352.685 9.49483ZM352.677 9.78273L351.84 9.76082L351.824 10.3835L352.416 10.5781L352.677 9.78273ZM354.95 10.9946L354.398 11.6236L354.95 10.9946ZM356.125 13.8104L355.302 13.9643L356.125 13.8104ZM356.543 19.8714L355.705 19.8793L356.543 19.8714ZM355.191 71.5017L354.355 71.4499L355.191 71.5017ZM354.456 77.5325L353.643 77.3357L354.456 77.5325ZM353.04 80.2804L352.521 79.6234L353.04 80.2804ZM350.707 81.3717L349.87 81.3498L349.84 82.4746L350.926 82.1796L350.707 81.3717ZM366.393 10.43L366.415 9.59306L365.58 9.57121L365.556 10.4058L366.393 10.43ZM380.377 11.8525L380.102 12.6434L380.102 12.6434L380.377 11.8525ZM385.284 15.1501L384.637 15.6817L384.637 15.6817L385.284 15.1501ZM384.883 41.4526L385.55 41.9589L384.883 41.4526ZM365.377 45.5514L364.54 45.5272L364.516 46.3664L365.355 46.3884L365.377 45.5514ZM349.882 80.8699L349.875 81.1578L351.549 81.2017L351.556 80.9138L349.882 80.8699ZM350.69 82.0167L368.732 82.4891L368.775 80.8153L350.734 80.3428L350.69 82.0167ZM369.59 81.6741L369.598 81.3862L367.924 81.3424L367.917 81.6303L369.59 81.6741ZM369.002 80.5626C368.035 80.2715 367.394 79.9162 366.945 79.5209L365.839 80.7788C366.516 81.3734 367.391 81.826 368.52 82.1659L369.002 80.5626ZM366.945 79.5209C366.606 79.2231 366.284 78.5953 366.038 77.2762L364.392 77.584C364.651 78.9671 365.052 80.0868 365.839 80.7788L366.945 79.5209ZM366.038 77.2762C365.799 75.9995 365.66 74.0388 365.634 71.3611L363.96 71.3771C363.986 74.0786 364.125 76.1586 364.392 77.584L366.038 77.2762ZM365.634 71.3611C365.609 68.6902 365.706 64.9655 365.83 60.2563L364.156 60.2125C364.033 64.9081 363.934 68.6689 363.96 71.3771L365.634 71.3611ZM365.83 60.2563L366.217 45.4774L364.543 45.4336L364.156 60.2125L365.83 60.2563ZM365.358 46.2924L367.757 46.3552L367.801 44.6814L365.402 44.6185L365.358 46.2924ZM367.757 46.3552C369.629 46.4042 371.081 46.6305 372.036 46.9179L372.518 45.3146C371.377 44.9709 369.767 44.7329 367.801 44.6814L367.757 46.3552ZM372.036 46.9179C372.806 47.15 373.505 47.7465 374.179 48.9098L375.628 48.0699C374.832 46.6977 373.844 45.7136 372.518 45.3146L372.036 46.9179ZM374.179 48.9098C374.844 50.0563 375.444 51.8844 375.946 54.4608L377.59 54.1405C377.076 51.5045 376.433 49.4587 375.628 48.0699L374.179 48.9098ZM375.946 54.4608C376.451 57.0493 377.024 60.6945 377.769 65.3329L379.422 65.0675C378.681 60.4478 378.101 56.7643 377.59 54.1405L375.946 54.4608ZM377.769 65.3342C378.351 68.9236 379.052 71.9852 379.983 74.3936L381.544 73.7903C380.676 71.5421 379.997 68.6135 379.422 65.0661L377.769 65.3342ZM379.983 74.3936C380.898 76.7647 381.954 78.7325 383.278 80.1279L384.493 78.9753C383.387 77.8102 382.427 76.076 381.544 73.7903L379.983 74.3936ZM383.278 80.1279C384.586 81.5058 386.122 82.4853 387.879 83.0525L388.394 81.459C386.913 80.9812 385.615 80.1579 384.493 78.9753L383.278 80.1279ZM387.879 83.0525C389.573 83.5994 391.468 83.9488 393.564 84.0037L393.608 82.3298C391.674 82.2792 389.937 81.9573 388.394 81.459L387.879 83.0525ZM393.564 84.0037C395.682 84.0591 397.468 83.7027 398.886 82.9866L398.131 81.492C397.018 82.0541 395.521 82.3799 393.608 82.3298L393.564 84.0037ZM398.886 82.9866C400.226 82.3095 401.291 81.5098 402.061 80.675L400.83 79.5398C400.216 80.2054 399.321 80.8908 398.131 81.492L398.886 82.9866ZM402.052 79.5311L401.772 79.2357L400.557 80.3883L400.838 80.6837L402.052 79.5311ZM400.544 79.2507C400.008 79.8431 399.494 80.2455 398.905 80.5622L399.697 82.0372C400.472 81.6214 401.134 81.0943 401.786 80.3733L400.544 79.2507ZM398.905 80.5622C398.395 80.8363 397.685 80.9961 396.621 80.9682L396.577 82.6421C397.816 82.6745 398.844 82.4957 399.697 82.0372L398.905 80.5622ZM396.621 80.9682C395.728 80.9448 394.936 80.6833 394.225 80.1818L393.26 81.5503C394.246 82.2456 395.359 82.6102 396.577 82.6421L396.621 80.9682ZM394.225 80.1819C393.537 79.6967 392.874 78.8565 392.273 77.5721L390.756 78.2814C391.429 79.7192 392.251 80.8386 393.26 81.5503L394.225 80.1819ZM392.273 77.5721C391.664 76.2688 391.055 74.5796 390.549 72.4082L388.918 72.7883C389.448 75.0616 390.093 76.8624 390.756 78.2814L392.273 77.5721ZM390.549 72.4082C390.037 70.2128 389.536 67.5326 389.045 64.3637L387.39 64.62C387.885 67.815 388.394 70.5391 388.918 72.7883L390.549 72.4082ZM389.046 64.372C388.552 60.9567 387.844 58.0832 386.909 55.7688L385.357 56.396C386.225 58.5463 386.907 61.279 387.389 64.6116L389.046 64.372ZM386.909 55.7688C385.979 53.467 384.829 51.5267 383.448 49.9667L382.194 51.0768C383.425 52.4662 384.483 54.233 385.357 56.396L386.909 55.7688ZM383.448 49.9667C382.064 48.4039 380.455 47.2308 378.621 46.4622L377.974 48.0063C379.561 48.6716 380.967 49.6903 382.194 51.0768L383.448 49.9667ZM378.621 46.4622C376.819 45.7062 374.828 45.2577 372.67 45.0044L372.475 46.6674C374.529 46.9085 376.357 47.3282 377.974 48.0063L378.621 46.4622ZM372.509 46.6707L374.426 46.8169L374.553 45.1473L372.636 45.0011L372.509 46.6707ZM374.467 46.819C377.61 46.9013 380.574 46.5856 383.454 45.8718L383.051 44.2466C380.324 44.9225 377.51 45.2237 374.511 45.1452L374.467 46.819ZM383.454 45.8718C386.349 45.1542 388.872 44.0257 391.111 42.4851L390.162 41.1056C388.098 42.5254 385.762 43.5744 383.051 44.2466L383.454 45.8718ZM391.111 42.4851C393.374 40.9281 395.142 38.9523 396.512 36.4776L395.047 35.6665C393.797 37.9248 392.202 39.7022 390.162 41.1056L391.111 42.4851ZM396.512 36.4776C397.902 33.9674 398.573 31.0605 398.659 27.7926L396.985 27.7487C396.905 30.8146 396.278 33.4437 395.047 35.6665L396.512 36.4776ZM398.659 27.7926C398.823 21.5282 396.739 16.8557 392.401 13.8664L391.451 15.2452C395.225 17.8461 397.138 21.9212 396.985 27.7487L398.659 27.7926ZM392.401 13.8664C388.147 10.9353 381.751 9.41845 373.34 9.1982L373.296 10.872C381.583 11.0891 387.592 12.586 391.451 15.2452L392.401 13.8664ZM373.34 9.1982L352.707 8.6579L352.663 10.3318L373.296 10.872L373.34 9.1982ZM351.848 9.47291L351.84 9.76082L353.514 9.80465L353.522 9.51674L351.848 9.47291ZM352.416 10.5781C353.295 10.8671 353.943 11.2237 354.398 11.6236L355.503 10.3657C354.832 9.77573 353.964 9.32447 352.939 8.9874L352.416 10.5781ZM354.398 11.6236C354.546 11.7536 354.714 11.9899 354.878 12.3958C355.041 12.7976 355.181 13.318 355.302 13.9643L356.948 13.6564C356.816 12.9517 356.651 12.3117 356.43 11.7671C356.211 11.2267 355.918 10.7306 355.503 10.3657L354.398 11.6236ZM355.302 13.9643C355.541 15.241 355.68 17.2017 355.705 19.8793L357.38 19.8634C357.354 17.1619 357.215 15.0819 356.948 13.6564L355.302 13.9643ZM355.705 19.8793C355.731 22.5503 355.633 26.2749 355.51 30.9841L357.184 31.028C357.307 26.3324 357.405 22.5716 357.38 19.8634L355.705 19.8793ZM355.51 30.9841L354.741 60.3501L356.415 60.3939L357.184 31.028L355.51 30.9841ZM354.741 60.3501C354.618 65.0593 354.52 68.7839 354.355 71.4499L356.026 71.5534C356.194 68.8503 356.292 65.0895 356.415 60.3939L354.741 60.3501ZM354.355 71.4499C354.189 74.1225 353.948 76.0733 353.643 77.3357L355.27 77.7293C355.611 76.3197 355.859 74.2499 356.026 71.5534L354.355 71.4499ZM353.643 77.3357C353.335 78.6066 352.89 79.3321 352.521 79.6234L353.559 80.9374C354.367 80.2992 354.931 79.1304 355.27 77.7293L353.643 77.3357ZM352.521 79.6234C352.046 79.9989 351.38 80.3212 350.487 80.5638L350.926 82.1796C351.968 81.8967 352.858 81.4914 353.559 80.9374L352.521 79.6234ZM351.544 81.3936L351.556 80.9138L349.882 80.8699L349.87 81.3498L351.544 81.3936ZM366.371 11.2669L372.801 11.4353L372.845 9.76143L366.415 9.59306L366.371 11.2669ZM372.801 11.4353C375.704 11.5113 378.102 11.9489 380.102 12.6434L380.651 11.0616C378.464 10.302 375.892 9.84122 372.845 9.76143L372.801 11.4353ZM380.102 12.6434C382.067 13.3257 383.536 14.3414 384.637 15.6817L385.931 14.6185C384.613 13.0145 382.874 11.8335 380.651 11.0616L380.102 12.6434ZM384.637 15.6817C385.758 17.0454 386.617 18.7741 387.108 20.8832L388.739 20.5031C388.195 18.1675 387.23 16.1992 385.931 14.6185L384.637 15.6817ZM387.108 20.8832C387.606 23.0159 387.821 25.6353 387.742 28.6591L389.416 28.7029C389.497 25.5848 389.278 22.815 388.739 20.5031L387.108 20.8832ZM387.742 28.6591C387.602 34.0236 386.363 38.1197 384.217 40.9464L385.55 41.9589C387.979 38.7593 389.27 34.2786 389.416 28.7029L387.742 28.6591ZM384.217 40.9464C382.145 43.6753 378.762 45.0644 373.844 44.9357L373.801 46.6095C379.055 46.7471 383.047 45.2563 385.55 41.9589L384.217 40.9464ZM373.844 44.9357L365.399 44.7145L365.355 46.3884L373.801 46.6095L373.844 44.9357ZM366.214 45.5756L367.23 10.4542L365.556 10.4058L364.54 45.5272L366.214 45.5756ZM400.765 82.2023L401.601 82.2242L400.026 81.8084L400.765 82.2023ZM400.757 82.4902L399.92 82.4683L399.898 83.3052L400.735 83.3272L400.757 82.4902ZM418.703 82.9602L418.681 83.7971L419.518 83.819L419.54 82.9821L418.703 82.9602ZM418.71 82.6723L419.547 82.6942L419.564 82.0549L418.952 81.8706L418.71 82.6723ZM416.341 81.4578L415.789 82.0867L416.341 81.4578ZM415.164 78.7381L415.987 78.5841L415.164 78.7381ZM414.747 72.6771L413.91 72.685L414.747 72.6771ZM416.099 21.0468L415.263 20.995L416.099 21.0468ZM416.833 15.0159L417.647 15.2127L417.647 15.2127L416.833 15.0159ZM420.58 11.2727L420.779 12.0859L421.4 11.9339L421.417 11.2946L420.58 11.2727ZM420.588 10.9848L421.425 11.0067L421.446 10.1698L420.61 10.1479L420.588 10.9848ZM402.642 10.5149L402.664 9.67797L401.827 9.65606L401.805 10.493L402.642 10.5149ZM402.634 10.8028L401.797 10.7809L401.781 11.4036L402.373 11.5981L402.634 10.8028ZM406.499 20.8914L407.337 20.8835L406.499 20.8914ZM405.147 72.5217L405.983 72.5735L405.147 72.5217ZM404.413 78.5526L403.6 78.3558L404.413 78.5526ZM402.997 81.3005L402.478 80.6435L402.997 81.3005ZM400.664 82.3917L399.925 81.9979L399.013 83.7077L400.883 83.1997L400.664 82.3917ZM399.928 82.1804L399.92 82.4683L401.594 82.5121L401.601 82.2242L399.928 82.1804ZM400.735 83.3272L418.681 83.7971L418.725 82.1232L400.779 81.6533L400.735 83.3272ZM419.54 82.9821L419.547 82.6942L417.873 82.6503L417.866 82.9382L419.54 82.9821ZM418.952 81.8706C417.985 81.5795 417.344 81.2242 416.894 80.8289L415.789 82.0867C416.465 82.6813 417.34 83.134 418.469 83.4739L418.952 81.8706ZM416.894 80.8289C416.555 80.5311 416.234 79.9033 415.987 78.5841L414.341 78.892C414.6 80.275 415.001 81.3948 415.789 82.0867L416.894 80.8289ZM415.987 78.5841C415.748 77.3075 415.609 75.3467 415.584 72.6691L413.91 72.685C413.935 75.3866 414.075 77.4665 414.341 78.892L415.987 78.5841ZM415.584 72.6691C415.558 69.9981 415.656 66.2735 415.779 61.5643L414.105 61.5205C413.982 66.216 413.884 69.9768 413.91 72.685L415.584 72.6691ZM415.779 61.5643L416.548 32.1984L414.874 32.1545L414.105 61.5205L415.779 61.5643ZM416.548 32.1984C416.671 27.4891 416.769 23.7645 416.934 21.0985L415.263 20.995C415.096 23.6981 414.997 27.459 414.874 32.1545L416.548 32.1984ZM416.934 21.0985C417.1 18.4259 417.341 16.4751 417.647 15.2127L416.019 14.8191C415.678 16.2287 415.43 18.2985 415.263 20.995L416.934 21.0985ZM417.647 15.2127C417.962 13.9083 418.316 13.2982 418.67 13.0185L417.632 11.7045C416.809 12.3544 416.35 13.4515 416.019 14.8191L417.647 15.2127ZM418.67 13.0185C419.14 12.6473 419.798 12.3261 420.779 12.0859L420.381 10.4595C419.236 10.7399 418.339 11.1462 417.632 11.7045L418.67 13.0185ZM421.417 11.2946L421.425 11.0067L419.751 10.9629L419.743 11.2508L421.417 11.2946ZM420.61 10.1479L402.664 9.67797L402.62 11.3518L420.566 11.8217L420.61 10.1479ZM401.805 10.493L401.797 10.7809L403.471 10.8247L403.479 10.5368L401.805 10.493ZM402.373 11.5981C403.252 11.8871 403.9 12.2438 404.355 12.6436L405.46 11.3858C404.788 10.7958 403.921 10.3445 402.896 10.0075L402.373 11.5981ZM404.355 12.6436C404.503 12.7737 404.671 13.0099 404.835 13.4158C404.998 13.8177 405.138 14.3381 405.259 14.9844L406.905 14.6765C406.773 13.9717 406.608 13.3317 406.387 12.7872C406.168 12.2467 405.875 11.7507 405.46 11.3858L404.355 12.6436ZM405.259 14.9844C405.498 16.261 405.637 18.2218 405.662 20.8994L407.337 20.8835C407.311 18.1819 407.172 16.102 406.905 14.6765L405.259 14.9844ZM405.662 20.8994C405.688 23.5704 405.59 27.295 405.467 32.0042L407.141 32.0481C407.264 27.3525 407.362 23.5917 407.337 20.8835L405.662 20.8994ZM405.467 32.0042L404.698 61.3702L406.372 61.414L407.141 32.0481L405.467 32.0042ZM404.698 61.3702C404.575 66.0794 404.477 69.804 404.312 72.47L405.983 72.5735C406.151 69.8704 406.249 66.1096 406.372 61.414L404.698 61.3702ZM404.312 72.47C404.146 75.1426 403.905 77.0934 403.6 78.3558L405.227 78.7494C405.568 77.3398 405.816 75.27 405.983 72.5735L404.312 72.47ZM403.6 78.3558C403.292 79.6267 402.847 80.3522 402.478 80.6435L403.516 81.9574C404.324 81.3192 404.888 80.1505 405.227 78.7494L403.6 78.3558ZM402.478 80.6435C402.003 81.0189 401.337 81.3412 400.444 81.5838L400.883 83.1997C401.925 82.9167 402.814 82.5115 403.516 81.9574L402.478 80.6435ZM401.402 82.7856L401.503 82.5962L400.026 81.8084L399.925 81.9979L401.402 82.7856ZM421.008 82.7324L421.845 82.7543L421.875 81.5932L420.764 81.9315L421.008 82.7324ZM421 83.0203L420.163 82.9984L420.141 83.8353L420.978 83.8572L421 83.0203ZM462.675 83.1513L463.491 83.3369L463.499 83.3023L463.504 83.2672L462.675 83.1513ZM464.093 73.0089L464.922 73.1248L465.052 72.1965L464.115 72.172L464.093 73.0089ZM463.709 72.9989L463.731 72.1619L463.071 72.1447L462.9 72.7822L463.709 72.9989ZM458.003 81.8765L457.606 81.139L457.606 81.139L458.003 81.8765ZM453.263 83.1929L453.328 84.0275L453.263 83.1929ZM434.637 82.9933L433.801 82.9714L433.779 83.8083L434.616 83.8302L434.637 82.9933ZM435.655 44.1266L435.677 43.2897L434.84 43.2678L434.818 44.1047L435.655 44.1266ZM448.068 46.8525L447.418 47.3805L448.068 46.8525ZM449.255 49.1884L450.056 48.9445L450.056 48.9445L449.255 49.1884ZM449.859 51.7971L449.038 51.9572L449.166 52.6164L449.837 52.634L449.859 51.7971ZM450.051 51.8021L450.029 52.639L450.866 52.6609L450.888 51.824L450.051 51.8021ZM450.451 36.5433L451.288 36.5652L451.31 35.7283L450.473 35.7064L450.451 36.5433ZM450.259 36.5383L450.281 35.7014L449.609 35.6838L449.447 36.3353L450.259 36.5383ZM449.519 39.1118L450.306 39.3973L450.306 39.3973L449.519 39.1118ZM448.211 41.3823L447.59 40.821L447.59 40.8211L448.211 41.3823ZM445.671 43.0444L445.997 43.8154L445.671 43.0444ZM435.673 43.4548L434.836 43.4329L434.814 44.2698L435.651 44.2918L435.673 43.4548ZM436.51 11.4978L436.532 10.6609L435.695 10.639L435.673 11.4759L436.51 11.4978ZM453.195 12.4149L453.036 13.2368L453.036 13.2368L453.195 12.4149ZM457.57 14.066L457.112 14.7672L457.112 14.7672L457.57 14.066ZM460.659 17.1239L459.958 17.5822L459.958 17.5822L460.659 17.1239ZM462.647 21.8815L461.839 22.101L462.002 22.7022L462.625 22.7185L462.647 21.8815ZM463.031 21.8916L463.009 22.7285L464.01 22.7547L463.858 21.7651L463.031 21.8916ZM461.719 13.3103L460.887 13.407L460.889 13.4219L460.891 13.4368L461.719 13.3103ZM461.269 12.1461L460.875 12.8849L460.875 12.8849L461.269 12.1461ZM422.695 10.944L422.717 10.1071L421.88 10.0851L421.858 10.9221L422.695 10.944ZM422.688 11.2319L421.851 11.21L421.835 11.8327L422.426 12.0272L422.688 11.2319ZM424.961 12.4438L425.514 11.8149L425.514 11.8149L424.961 12.4438ZM426.553 21.3205L427.39 21.3126L426.553 21.3205ZM425.201 72.9508L426.037 73.0026L425.201 72.9508ZM424.467 78.9817L425.281 79.1785L424.467 78.9817ZM423.051 81.7295L422.532 81.0726L423.051 81.7295ZM420.717 82.8208L420.473 82.0199L420.937 83.6288L420.717 82.8208ZM420.171 82.7105L420.163 82.9984L421.837 83.0422L421.845 82.7543L420.171 82.7105ZM420.978 83.8572L461.668 84.9227L461.712 83.2489L421.022 82.1834L420.978 83.8572ZM461.668 84.9227C461.839 84.9272 462.225 84.9495 462.623 84.7633L461.914 83.2466C461.922 83.2429 461.922 83.2457 461.896 83.2482C461.882 83.2496 461.861 83.2507 461.83 83.2509C461.797 83.2511 461.762 83.2502 461.712 83.2489L461.668 84.9227ZM462.623 84.7633C462.986 84.5937 463.17 84.2844 463.268 84.0651C463.368 83.842 463.436 83.5821 463.491 83.3369L461.859 82.9657C461.833 83.0759 461.811 83.1648 461.79 83.2372C461.768 83.3105 461.751 83.3554 461.74 83.3809C461.728 83.4073 461.73 83.3958 461.753 83.3678C461.779 83.3359 461.831 83.2852 461.914 83.2466L462.623 84.7633ZM463.504 83.2672L464.922 73.1248L463.264 72.893L461.846 83.0354L463.504 83.2672ZM464.115 72.172L463.731 72.1619L463.687 73.8358L464.071 73.8458L464.115 72.172ZM462.9 72.7822C462.278 75.1052 461.49 76.9211 460.645 78.2497L462.057 79.1485C463.015 77.6433 463.863 75.6608 464.518 73.2155L462.9 72.7822ZM460.645 78.2497C459.814 79.5561 458.833 80.48 457.606 81.139L458.399 82.6141C459.899 81.8079 461.086 80.6758 462.057 79.1485L460.645 78.2497ZM457.606 81.139C456.358 81.8096 454.925 82.222 453.197 82.3583L453.328 84.0275C455.257 83.8755 456.92 83.4086 458.399 82.6141L457.606 81.139ZM453.197 82.3583C451.406 82.4995 449.227 82.5378 446.751 82.473L446.707 84.1468C449.222 84.2127 451.462 84.1747 453.328 84.0275L453.197 82.3583ZM446.751 82.473L434.659 82.1564L434.616 83.8302L446.707 84.1468L446.751 82.473ZM435.474 83.0152L436.492 44.1485L434.818 44.1047L433.801 82.9714L435.474 83.0152ZM435.633 44.9635L441.295 45.1118L441.339 43.438L435.677 43.2897L435.633 44.9635ZM441.295 45.1118C443.084 45.1586 444.373 45.3848 445.252 45.8126L445.984 44.3069C444.778 43.7197 443.198 43.4866 441.339 43.438L441.295 45.1118ZM445.252 45.8126C446.234 46.2904 446.965 46.823 447.418 47.3805L448.718 46.3245C448.054 45.5082 447.088 44.844 445.984 44.3069L445.252 45.8126ZM447.418 47.3805C447.89 47.9612 448.211 48.6334 448.454 49.4322L450.056 48.9445C449.769 48.0009 449.362 47.1174 448.718 46.3245L447.418 47.3805ZM448.454 49.4322C448.705 50.2556 448.867 51.0823 449.038 51.9572L450.681 51.6369C450.513 50.7744 450.336 49.8636 450.056 48.9445L448.454 49.4322ZM449.837 52.634L450.029 52.639L450.073 50.9652L449.881 50.9601L449.837 52.634ZM450.888 51.824L451.288 36.5652L449.614 36.5214L449.214 51.7802L450.888 51.824ZM450.473 35.7064L450.281 35.7014L450.237 37.3752L450.429 37.3802L450.473 35.7064ZM449.447 36.3353C449.231 37.2002 449.026 38.0173 448.732 38.8264L450.306 39.3973C450.634 38.494 450.858 37.5938 451.071 36.7412L449.447 36.3353ZM448.732 38.8264C448.447 39.6114 448.092 40.2658 447.59 40.821L448.833 41.9437C449.518 41.1855 449.97 40.3246 450.306 39.3973L448.732 38.8264ZM447.59 40.8211C447.109 41.3541 446.35 41.8476 445.345 42.2734L445.997 43.8154C447.128 43.3368 448.127 42.724 448.833 41.9437L447.59 40.8211ZM445.345 42.2734C444.444 42.6546 443.145 42.813 441.357 42.7662L441.313 44.44C443.171 44.4887 444.761 44.3386 445.997 43.8154L445.345 42.2734ZM441.357 42.7662L435.695 42.6179L435.651 44.2918L441.313 44.44L441.357 42.7662ZM436.51 43.4768L437.347 11.5197L435.673 11.4759L434.836 43.4329L436.51 43.4768ZM436.488 12.3347L447.14 12.6137L447.184 10.9398L436.532 10.6609L436.488 12.3347ZM447.14 12.6137C449.397 12.6727 451.361 12.9123 453.036 13.2368L453.355 11.593C451.59 11.2512 449.534 11.0013 447.184 10.9398L447.14 12.6137ZM453.036 13.2368C454.682 13.5556 455.999 14.0415 457.112 14.7672L458.027 13.3647C456.685 12.4896 455.149 11.9405 453.355 11.593L453.036 13.2368ZM457.112 14.7672C458.251 15.5097 459.196 16.4168 459.958 17.5822L461.359 16.6655C460.46 15.2906 459.343 14.2231 458.027 13.3647L457.112 14.7672ZM459.958 17.5822C460.725 18.7541 461.327 20.2171 461.839 22.101L463.455 21.662C462.915 19.6772 462.255 18.034 461.359 16.6655L459.958 17.5822ZM462.625 22.7185L463.009 22.7285L463.053 21.0547L462.669 21.0446L462.625 22.7185ZM463.858 21.7651L462.546 13.1838L460.891 13.4368L462.203 22.0181L463.858 21.7651ZM462.55 13.2136C462.506 12.8274 462.427 12.4827 462.311 12.1979C462.21 11.9479 462.021 11.5983 461.663 11.4074L460.875 12.8849C460.779 12.8336 460.737 12.7762 460.733 12.7712C460.727 12.763 460.739 12.7775 460.76 12.8286C460.802 12.932 460.854 13.119 460.887 13.407L462.55 13.2136ZM461.663 11.4074C461.396 11.2652 460.983 11.1091 460.528 11.0972L460.485 12.771C460.538 12.7724 460.607 12.7837 460.683 12.8067C460.759 12.8296 460.827 12.8592 460.875 12.8849L461.663 11.4074ZM460.528 11.0972L422.717 10.1071L422.673 11.7809L460.485 12.771L460.528 11.0972ZM421.858 10.9221L421.851 11.21L423.525 11.2538L423.532 10.9659L421.858 10.9221ZM422.426 12.0272C423.305 12.3162 423.953 12.6729 424.408 13.0727L425.514 11.8149C424.842 11.2249 423.975 10.7736 422.949 10.4366L422.426 12.0272ZM424.408 13.0727C424.556 13.2027 424.724 13.439 424.889 13.8449C425.052 14.2467 425.192 14.7671 425.313 15.4135L426.959 15.1056C426.827 14.4008 426.661 13.7608 426.441 13.2163C426.222 12.6758 425.929 12.1798 425.514 11.8149L424.408 13.0727ZM425.313 15.4135C425.551 16.6901 425.69 18.6509 425.716 21.3285L427.39 21.3126C427.365 18.611 427.225 16.5311 426.959 15.1056L425.313 15.4135ZM425.716 21.3285C425.741 23.9995 425.644 27.7241 425.521 32.4333L427.194 32.4771C427.317 27.7816 427.416 24.0208 427.39 21.3126L425.716 21.3285ZM425.521 32.4333L424.752 61.7992L426.425 61.8431L427.194 32.4771L425.521 32.4333ZM424.752 61.7992C424.628 66.5085 424.531 70.2331 424.365 72.8991L426.037 73.0026C426.204 70.2995 426.303 66.5386 426.425 61.8431L424.752 61.7992ZM424.365 72.8991C424.2 75.5717 423.959 77.5225 423.653 78.7849L425.281 79.1785C425.622 77.7689 425.87 75.6991 426.037 73.0026L424.365 72.8991ZM423.653 78.7849C423.346 80.0558 422.9 80.7813 422.532 81.0726L423.57 82.3865C424.377 81.7483 424.942 80.5796 425.281 79.1785L423.653 78.7849ZM422.532 81.0726C422.056 81.448 421.391 81.7703 420.498 82.0129L420.937 83.6288C421.978 83.3458 422.868 82.9406 423.57 82.3865L422.532 81.0726ZM420.961 83.6217L421.251 83.5333L420.764 81.9315L420.473 82.0199L420.961 83.6217Z" fill="#580300"/>
</g>
</svg>
