<?xml version="1.0" encoding="utf-8"?>
<!-- Generator: Adobe Illustrator 21.0.0, SVG Export Plug-In . SVG Version: 6.00 Build 0)  -->
<svg version="1.1" id="Layer_1" xmlns="http://www.w3.org/2000/svg" xmlns:xlink="http://www.w3.org/1999/xlink" x="0px" y="0px"
	 viewBox="0 0 16 15" style="enable-background:new 0 0 16 15;" xml:space="preserve">
<style type="text/css">
	.st0{fill:#FFFFFF;}
</style>
<g>
	<path class="st0" d="M8,1.5c1.4,0,2.5,1.1,2.5,2.5l0,2c0,0,0,0.1,0,0.1c0,0.1,0,0.1,0,0.2l-0.1,1.1l1.1,0.4
		c1.8,0.7,3.1,2.5,3.1,4.4v1.3h-13v-1.3c0-2,1.2-3.7,3.1-4.4l1.1-0.4L5.5,6.3c0-0.1,0-0.1,0-0.2c0,0,0-0.1,0-0.1V4
		C5.5,2.6,6.6,1.5,8,1.5 M8,0C5.8,0,4,1.8,4,4v2c0,0.1,0,0.3,0,0.4c-2.4,0.9-4,3.2-4,5.8V15h16v-2.8c0-2.7-1.7-4.9-4-5.8
		c0-0.1,0-0.3,0-0.4V4C12,1.8,10.2,0,8,0L8,0z"/>
</g>
</svg>
