<?xml version="1.0" encoding="utf-8"?>
<!-- Generator: Adobe Illustrator 21.0.0, SVG Export Plug-In . SVG Version: 6.00 Build 0)  -->
<svg version="1.1" id="Layer_1" xmlns="http://www.w3.org/2000/svg" xmlns:xlink="http://www.w3.org/1999/xlink" x="0px" y="0px"
	 viewBox="0 0 52.7 25.3" style="enable-background:new 0 0 52.7 25.3;" xml:space="preserve">
<style type="text/css">
	.st0{fill:#FF9000;}
</style>
<g>
	<path class="st0" d="M35.2,21H17.4c-0.8,0-1.5-0.7-1.5-1.5s0.7-1.5,1.5-1.5h17.8c0.8,0,1.5,0.7,1.5,1.5S36,21,35.2,21z"/>
</g>
<g>
	<path class="st0" d="M7.2,21c-0.3,0-0.6,0-0.9,0C0.6,20.7,0,17.7,0,16.4C0,12.4,4.6,8.7,7.7,8c0.4-0.1,0.9-0.2,1.4-0.3
		c2.6-0.5,6.4-1.2,10.4-4.3c2.3-1.8,5.2-2.9,8.3-3.2c1-0.1,2-0.2,3.1-0.2c3.2,0,6.4,0.9,9.2,2.7l3.2,2.1c1.2,0.8,2.7,1.3,4.1,1.4
		L49,6.3c2.1,0.2,3.7,1.9,3.7,4v6c0,0.2-0.2,4.6-7.7,4.6c-0.8,0-1.5-0.7-1.5-1.5S44.1,18,45,18c3.5,0,4.6-1.1,4.7-1.7v-5.9
		c0-0.6-0.4-1-1-1.1l-1.7-0.2c-2-0.2-3.9-0.8-5.5-1.9l-3.2-2.1c-2.3-1.5-4.8-2.2-7.5-2.2c-1,0-1.9,0.1-2.8,0.2
		c-2.5,0.2-4.8,1.2-6.7,2.6c-4.6,3.6-9,4.4-11.7,4.9c-0.5,0.1-0.9,0.2-1.3,0.3C6.3,11.4,3,14.1,3,16.4C3,17.7,5.4,18,6.5,18
		c0.9,0,1.6,0,1.6,0c0.8-0.1,1.6,0.5,1.6,1.4c0.1,0.8-0.5,1.6-1.4,1.6C8.4,21,7.9,21,7.2,21z"/>
</g>
<g>
	<path class="st0" d="M13,25.3c-3.2,0-5.8-2.6-5.8-5.8c0-3.2,2.6-5.8,5.8-5.8s5.8,2.6,5.8,5.8C18.8,22.7,16.2,25.3,13,25.3z
		 M13,16.7c-1.5,0-2.8,1.3-2.8,2.8s1.3,2.8,2.8,2.8s2.8-1.3,2.8-2.8S14.5,16.7,13,16.7z"/>
</g>
<g>
	<path class="st0" d="M40,25.3c-3.2,0-5.8-2.6-5.8-5.8c0-3.2,2.6-5.8,5.8-5.8s5.8,2.6,5.8,5.8C45.8,22.7,43.2,25.3,40,25.3z
		 M40,16.7c-1.5,0-2.8,1.3-2.8,2.8s1.3,2.8,2.8,2.8s2.8-1.3,2.8-2.8S41.5,16.7,40,16.7z"/>
</g>
<g>
	<path class="st0" d="M30.2,9.9H13c-0.8,0-1.5-0.7-1.5-1.5s0.7-1.5,1.5-1.5h17.3c0.8,0,1.5,0.7,1.5,1.5S31.1,9.9,30.2,9.9z"/>
</g>
</svg>
