<?xml version="1.0" encoding="utf-8"?>
<!-- Generator: Adobe Illustrator 21.0.0, SVG Export Plug-In . SVG Version: 6.00 Build 0)  -->
<svg version="1.1" id="Layer_1" xmlns="http://www.w3.org/2000/svg" xmlns:xlink="http://www.w3.org/1999/xlink" x="0px" y="0px"
	 viewBox="0 0 47.5 24.6" style="enable-background:new 0 0 47.5 24.6;" xml:space="preserve">
<style type="text/css">
	.st0{fill:#FF9000;}
	.st1{fill:#FF8500;}
</style>
<g>
	<path class="st0" d="M46,24.6H7.5c-0.5,0-1-0.3-1.3-0.8L0.2,13c-0.3-0.5-0.3-1,0-1.5l6-10.8C6.5,0.3,7,0,7.5,0H46
		c0.8,0,1.5,0.7,1.5,1.5v21.6C47.5,24,46.8,24.6,46,24.6z M8.4,21.6h36.1V3H8.4l-5.2,9.3L8.4,21.6z"/>
</g>
<g>
	<path class="st1" d="M11.9,17.2c-2.6,0-4.8-2.2-4.8-4.8s2.2-4.8,4.8-4.8s4.8,2.2,4.8,4.8S14.5,17.2,11.9,17.2z M11.9,10.6
		c-1,0-1.8,0.8-1.8,1.8c0,1,0.8,1.8,1.8,1.8c1,0,1.8-0.8,1.8-1.8C13.7,11.4,12.9,10.6,11.9,10.6z"/>
</g>
<g>
	<g>
		<path class="st0" d="M23.3,15.2l-2.5-3.4v3.4h-2V8.5h2.1l2.3,3.2V8.5h2v6.7H23.3z"/>
	</g>
	<g>
		<path class="st0" d="M26.4,15.2V8.5h5.1v1.8h-3v0.7h3v1.8h-3v0.7h3v1.8H26.4z"/>
	</g>
	<g>
		<path class="st0" d="M37.4,15.2l-0.9-3.8l-0.9,3.8h-2.1l-1.9-6.7h2.3l0.9,4.1l1-4.1h1.5l1,4.1l0.8-4.1h2.3l-1.9,6.7H37.4z"/>
	</g>
</g>
</svg>
