<?xml version="1.0" encoding="utf-8"?>
<!-- Generator: Adobe Illustrator 21.0.0, SVG Export Plug-In . SVG Version: 6.00 Build 0)  -->
<svg version="1.1" id="Shape_1_1_" xmlns="http://www.w3.org/2000/svg" xmlns:xlink="http://www.w3.org/1999/xlink" x="0px" y="0px"
	 viewBox="0 0 16 9" style="enable-background:new 0 0 16 9;" xml:space="preserve">
<style type="text/css">
	.st0{fill-rule:evenodd;clip-rule:evenodd;fill:#FFFFFF;}
</style>
<g id="Shape_1">
	<path class="st0" d="M15.3,7.3c-0.5-0.6-1-1.1-1.6-1.6c-0.5-0.5-0.5-0.7-0.1-1.3c0.4-0.6,0.9-1.1,1.3-1.7c0.4-0.5,0.8-1.1,1-1.7
		c0.1-0.4,0-0.6-0.4-0.7c-0.1,0-0.1,0-0.2,0l-2.5,0c-0.3,0-0.5,0.1-0.6,0.4c-0.1,0.4-0.3,0.7-0.5,1.1c-0.4,0.8-0.9,1.6-1.5,2.3
		c-0.1,0.1-0.3,0.3-0.5,0.3C9.4,4.2,9.3,3.8,9.3,3.6l0-2.9C9.3,0.3,9.2,0.1,8.8,0H6.1C5.8,0,5.6,0.1,5.4,0.4
		C5.3,0.5,5.3,0.6,5.5,0.6C5.9,0.7,6.2,1,6.2,1.4c0.1,0.7,0.1,1.4,0,2.1c0,0.2-0.1,0.4-0.1,0.6C6,4.4,5.8,4.5,5.5,4.3
		C5.3,4.1,5.1,3.9,5,3.6C4.3,2.7,3.8,1.8,3.4,0.8C3.3,0.5,3.1,0.3,2.8,0.3c-0.8,0-1.5,0-2.3,0C0,0.3-0.1,0.5,0.1,1
		c0.8,1.8,1.8,3.6,3,5.2C3.7,7,4.4,7.8,5.3,8.3C6.3,8.9,7.4,9,8.6,9c0.6,0,0.7-0.2,0.7-0.7c0-0.4,0.1-0.7,0.2-1.1
		c0.2-0.3,0.5-0.4,0.8-0.2c0.2,0.1,0.3,0.2,0.4,0.4c0.3,0.3,0.6,0.7,0.9,1C12.1,8.8,12.6,9,13.2,9l2.3,0c0.4,0,0.6-0.5,0.4-0.9
		C15.7,7.8,15.5,7.5,15.3,7.3z"/>
</g>
</svg>
