<svg width="60" height="60" viewBox="0 0 60 60" fill="none" xmlns="http://www.w3.org/2000/svg">
<g clip-path="url(#clip0)">
<path d="M59.9898 14.8285C59.9571 14.4971 59.828 14.1645 59.6013 13.8878C59.5138 13.7808 60.4091 14.6831 46.2414 0.515403C45.9037 0.177673 45.4452 0.000371153 44.9978 0.000488339C43.9319 0.000488339 6.33433 0.000488339 5.27239 0.000488339C2.36466 0.000488339 -0.000976562 2.36612 -0.000976562 5.27385V54.7263C-0.000976562 57.634 2.36466 59.9997 5.27239 59.9997H54.7248C57.6326 59.9997 59.9982 57.634 59.9982 54.7263C59.9983 12.0488 60.003 14.9633 59.9898 14.8285ZM40.4283 3.51607V15.0003C40.4283 15.9695 39.6397 16.7581 38.6705 16.7581H36.444V3.51607H40.4283ZM32.9284 3.51607V16.7581H16.6395C15.6703 16.7581 14.8817 15.9695 14.8817 15.0003V3.51607H32.9284ZM40.4283 37.6172H14.8817V35.3906C14.8817 34.4214 15.6703 33.6328 16.6395 33.6328H38.6705C39.6397 33.6328 40.4283 34.4214 40.4283 35.3906V37.6172ZM14.8817 56.4841V41.1327H40.4283V56.4841H14.8817ZM56.4827 54.7263C56.4827 55.6955 55.6942 56.4841 54.725 56.4841H43.9439C43.9439 54.1925 43.9439 38.0029 43.9439 35.3906C43.9439 32.4829 41.5782 30.1173 38.6705 30.1173H16.6395C13.7318 30.1173 11.3662 32.4829 11.3662 35.3906V56.4841H5.27251C4.30326 56.4841 3.51472 55.6955 3.51472 54.7263V5.27385C3.51472 4.30461 4.30326 3.51607 5.27251 3.51607H11.3662V15.0003C11.3662 17.908 13.7318 20.2736 16.6395 20.2736H38.6705C41.5782 20.2736 43.9439 17.908 43.9439 15.0003V3.51607H44.2705L56.4827 15.7285V54.7263Z" fill="#DA00DE"/>
</g>
<defs>
<clipPath id="clip0">
<rect width="60" height="60" fill="white"/>
</clipPath>
</defs>
</svg>
