<svg width="60" height="60" viewBox="0 0 60 60" fill="none" xmlns="http://www.w3.org/2000/svg">
<path d="M29.2609 0.75L29.2606 0.75C20.6493 0.762499 13.6533 7.81076 13.6533 16.4806V25.4474C10.4412 25.9383 8.12012 28.6787 8.12012 31.9735V52.6061C8.12012 56.2441 11.0311 59.25 14.6779 59.25H43.8808C47.5276 59.25 50.4386 56.2441 50.4386 52.6061V31.9735V31.9725C50.4262 28.6909 48.1056 25.9388 44.8932 25.4474L44.8932 16.4821C44.8932 16.4819 44.8932 16.4816 44.8932 16.4814C44.918 12.2584 43.2313 8.19787 40.2203 5.23654C37.3094 2.33842 33.4963 0.75 29.4577 0.75H29.4573H29.457H29.4566H29.4562H29.4559H29.4555H29.4551H29.4548H29.4544H29.4541H29.4537H29.4533H29.453H29.4526H29.4522H29.4519H29.4515H29.4511H29.4508H29.4504H29.45H29.4497H29.4493H29.4489H29.4486H29.4482H29.4478H29.4475H29.4471H29.4467H29.4464H29.446H29.4456H29.4453H29.4449H29.4445H29.4442H29.4438H29.4434H29.4431H29.4427H29.4423H29.4419H29.4416H29.4412H29.4408H29.4405H29.4401H29.4397H29.4393H29.439H29.4386H29.4382H29.4378H29.4375H29.4371H29.4367H29.4363H29.436H29.4356H29.4352H29.4348H29.4345H29.4341H29.4337H29.4333H29.433H29.4326H29.4322H29.4318H29.4315H29.4311H29.4307H29.4303H29.4299H29.4296H29.4292H29.4288H29.4284H29.428H29.4277H29.4273H29.4269H29.4265H29.4261H29.4258H29.4254H29.425H29.4246H29.4242H29.4239H29.4235H29.4231H29.4227H29.4223H29.422H29.4216H29.4212H29.4208H29.4204H29.42H29.4197H29.4193H29.4189H29.4185H29.4181H29.4177H29.4174H29.417H29.4166H29.4162H29.4158H29.4154H29.4151H29.4147H29.4143H29.4139H29.4135H29.4131H29.4127H29.4123H29.412H29.4116H29.4112H29.4108H29.4104H29.41H29.4096H29.4093H29.4089H29.4085H29.4081H29.4077H29.4073H29.4069H29.4065H29.4062H29.4058H29.4054H29.405H29.4046H29.4042H29.4038H29.4034H29.403H29.4027H29.4023H29.4019H29.4015H29.4011H29.4007H29.4003H29.3999H29.3995H29.3991H29.3987H29.3984H29.398H29.3976H29.3972H29.3968H29.3964H29.396H29.3956H29.3952H29.3948H29.3944H29.3941H29.3937H29.3933H29.3929H29.3925H29.3921H29.3917H29.3913H29.3909H29.3905H29.3901H29.3897H29.3893H29.3889H29.3886H29.3882H29.3878H29.3874H29.387H29.3866H29.3862H29.3858H29.3854H29.385H29.3846H29.3842H29.3838H29.3834H29.383H29.3826H29.3823H29.3819H29.3815H29.3811H29.3807H29.3803H29.3799H29.3795H29.3791H29.3787H29.3783H29.3779H29.3775H29.3771H29.3767H29.3763H29.3759H29.3755H29.3751H29.3747H29.3744H29.374H29.3736H29.3732H29.3728H29.3724H29.372H29.3716H29.3712H29.3708H29.3704H29.37H29.3696H29.3692H29.3688H29.3684H29.368H29.3676H29.3672H29.3668H29.3664H29.366H29.3656H29.3652H29.3649H29.3645H29.3641H29.3637H29.3633H29.3629H29.3625H29.3621H29.3617H29.3613H29.3609H29.3605H29.3601H29.3597H29.3593H29.3589H29.3585H29.3581H29.3577H29.3573H29.3569H29.3565H29.3561H29.3557H29.3553H29.3549H29.3546H29.3542H29.3538H29.3534H29.353H29.3526H29.3522H29.3518H29.3514H29.351H29.3506H29.3502H29.3498H29.3494H29.349H29.3486H29.3482H29.3478H29.3474H29.347H29.3466H29.3462H29.3458H29.3454H29.345H29.3447H29.3443H29.3439H29.3435H29.3431H29.3427H29.3423H29.3419H29.3415H29.3411H29.3407H29.3403H29.3399H29.3395H29.3391H29.3387H29.3383H29.3379H29.3375H29.3371H29.3368H29.3364H29.336H29.3356H29.3352H29.3348H29.3344H29.334H29.3336H29.3332H29.3328H29.3324H29.332H29.3316H29.3312H29.3308H29.3305H29.3301H29.3297H29.3293H29.3289H29.3285H29.3281H29.3277H29.3273H29.3269H29.3265H29.3261H29.3257H29.3253H29.325H29.3246H29.3242H29.3238H29.3234H29.323H29.3226H29.3222H29.3218H29.3214H29.321H29.3206H29.3203H29.3199H29.3195H29.3191H29.3187H29.3183H29.3179H29.3175H29.3171H29.3167H29.3164H29.316H29.3156H29.3152H29.3148H29.3144H29.314H29.3136H29.3132H29.3128H29.3125H29.3121H29.3117H29.3113H29.3109H29.3105H29.3101H29.3097H29.3094H29.309H29.3086H29.3082H29.3078H29.3074H29.307H29.3066H29.3063H29.3059H29.3055H29.3051H29.3047H29.3043H29.3039H29.3036H29.3032H29.3028H29.3024H29.302H29.3016H29.3013H29.3009H29.3005H29.3001H29.2997H29.2993H29.299H29.2986H29.2982H29.2978H29.2974H29.297H29.2967H29.2963H29.2959H29.2955H29.2951H29.2947H29.2944H29.294H29.2936H29.2932H29.2928H29.2925H29.2921H29.2917H29.2913H29.2909H29.2906H29.2902H29.2898H29.2894H29.289H29.2887H29.2883H29.2879H29.2875H29.2872H29.2868H29.2864H29.286H29.2856H29.2853H29.2849H29.2845H29.2841H29.2838H29.2834H29.283H29.2826H29.2823H29.2819H29.2815H29.2811H29.2808H29.2804H29.28H29.2796H29.2793H29.2789H29.2785H29.2782H29.2778H29.2774H29.277H29.2767H29.2763H29.2759H29.2756H29.2752H29.2748H29.2744H29.2741H29.2737H29.2733H29.273H29.2726H29.2722H29.2719H29.2715H29.2711H29.2708H29.2704H29.27H29.2697H29.2693H29.2689H29.2686H29.2682H29.2678H29.2675H29.2671H29.2667H29.2664H29.266H29.2656H29.2653H29.2649H29.2646H29.2642H29.2638H29.2635H29.2631H29.2627H29.2624H29.262H29.2617H29.2613L29.2609 0.75ZM16.6002 16.7306H16.6125V16.4806C16.6125 9.4349 22.2949 3.6723 29.2732 3.6723L29.2855 3.6723L29.2864 3.6723C32.601 3.66025 35.7835 4.97405 38.1344 7.31291L38.1349 7.31333C40.5831 9.73742 41.9458 13.0418 41.9217 16.4788V16.4806V25.428H39.4666H39.4403H39.4138H39.3872H39.3603H39.3332H39.306H39.2785H39.2508H39.223H39.1949H39.1667H39.1382H39.1096H39.0808H39.0518H39.0226H38.9932H38.9636H38.9339H38.9039H38.8738H38.8435H38.813H38.7823H38.7514H38.7204H38.6892H38.6578H38.6262H38.5944H38.5625H38.5304H38.4981H38.4657H38.433H38.4002H38.3673H38.3341H38.3008H38.2674H38.2337H38.1999H38.1659H38.1318H38.0975H38.063H38.0284H37.9936H37.9586H37.9235H37.8883H37.8528H37.8172H37.7815H37.7456H37.7096H37.6734H37.637H37.6005H37.5638H37.527H37.4901H37.453H37.4157H37.3783H37.3408H37.3031H37.2652H37.2273H37.1891H37.1509H37.1125H37.0739H37.0353H36.9964H36.9575H36.9184H36.8792H36.8398H36.8003H36.7607H36.7209H36.6811H36.641H36.6009H36.5606H36.5202H36.4797H36.439H36.3983H36.3574H36.3163H36.2752H36.2339H36.1925H36.151H36.1094H36.0677H36.0258H35.9838H35.9417H35.8995H35.8572H35.8148H35.7722H35.7296H35.6868H35.6439H35.601H35.5579H35.5147H35.4714H35.428H35.3845H35.3409H35.2971H35.2533H35.2094H35.1654H35.1213H35.0771H35.0328H34.9884H34.9439H34.8993H34.8546H34.8098H34.7649H34.72H34.6749H34.6298H34.5846H34.5393H34.4939H34.4484H34.4028H34.3571H34.3114H34.2656H34.2197H34.1737H34.1276H34.0815H34.0353H33.989H33.9426H33.8962H33.8497H33.8031H33.7564H33.7097H33.6629H33.616H33.5691H33.522H33.475H33.4278H33.3806H33.3333H33.286H33.2386H33.1911H33.1436H33.096H33.0484H33.0007H32.9529H32.9051H32.8572H32.8093H32.7613H32.7133H32.6652H32.617H32.5689H32.5206H32.4723H32.424H32.3756H32.3272H32.2787H32.2302H32.1816H32.133H32.0844H32.0357H31.987H31.9382H31.8894H31.8405H31.7917H31.7427H31.6938H31.6448H31.5958H31.5467H31.4976H31.4485H31.3994H31.3502H31.301H31.2518H31.2025H31.1533H31.104H31.0546H31.0053H30.9559H30.9065H30.8571H30.8077H30.7582H30.7088H30.6593H30.6098H30.5603H30.5107H30.4612H30.4116H30.3621H30.3125H30.2629H30.2133H30.1637H30.1141H30.0645H30.0149H29.9653H29.9156H29.866H29.8164H29.7667H29.7171H29.6675H29.6178H29.5682H29.5186H29.469H29.4193H29.3697H29.3201H29.2705H29.221H29.1714H29.1218H29.0723H29.0227H28.9732H28.9237H28.8742H28.8247H28.7752H28.7258H28.6763H28.6269H28.5775H28.5281H28.4788H28.4295H28.3802H28.3309H28.2816H28.2324H28.1832H28.134H28.0849H28.0357H27.9867H27.9376H27.8886H27.8396H27.7906H27.7417H27.6928H27.644H27.5952H27.5464H27.4977H27.449H27.4003H27.3517H27.3031H27.2546H27.2061H27.1577H27.1093H27.061H27.0127H26.9644H26.9162H26.8681H26.82H26.7719H26.7239H26.676H26.6281H26.5803H26.5325H26.4848H26.4372H26.3896H26.3421H26.2946H26.2472H26.1998H26.1525H26.1053H26.0582H26.0111H25.9641H25.9171H25.8702H25.8234H25.7767H25.73H25.6834H25.6369H25.5904H25.544H25.4977H25.4515H25.4053H25.3593H25.3133H25.2674H25.2215H25.1758H25.1301H25.0846H25.0391H24.9936H24.9483H24.9031H24.8579H24.8129H24.7679H24.723H24.6782H24.6335H24.5889H24.5444H24.5H24.4557H24.4114H24.3673H24.3233H24.2794H24.2355H24.1918H24.1482H24.1047H24.0612H24.0179H23.9747H23.9316H23.8886H23.8457H23.803H23.7603H23.7177H23.6753H23.633H23.5907H23.5486H23.5066H23.4648H23.423H23.3814H23.3398H23.2984H23.2572H23.216H23.1749H23.134H23.0932H23.0526H23.012H22.9716H22.9313H22.8912H22.8511H22.8112H22.7714H22.7318H22.6923H22.6529H22.6137H22.5746H22.5356H22.4968H22.4581H22.4195H22.3811H22.3428H22.3047H22.2667H22.2288H22.1911H22.1535H22.1161H22.0789H22.0417H22.0048H21.9679H21.9312H21.8947H21.8583H21.8221H21.786H21.7501H21.7144H21.6788H21.6433H21.608H21.5729H21.5379H21.5031H21.4685H21.434H21.3996H21.3655H21.3315H21.2976H21.264H21.2305H21.1972H21.164H21.131H21.0982H21.0655H21.0331H21.0007H20.9686H20.9367H20.9049H20.8733H20.8419H20.8106H20.7795H20.7487H20.718H20.6874H20.6571H20.6269H20.597H20.5672H20.5376H20.5082H20.479H20.4499H20.4211H20.3924H20.364H20.3357H20.3076H20.2797H20.252H20.2246H20.1973H20.1702H20.1433H20.1166H20.0901H20.0638H20.0377H20.0118H19.9861H19.9606H19.9353H19.9103H19.8854H19.8608H19.8363H19.8121H19.788H19.7642H19.7406H19.7172H19.6941H19.6711H19.6484H19.6258H19.6035H19.5815H19.5596H19.5379H19.5165H19.4953H19.4743H19.4536H19.433H19.4127H19.3926H19.3728H19.3532H19.3338H19.3146H19.2957H19.277H19.2585H19.2403H19.2222H19.2045H19.1869H19.1697H19.1526H19.1358H19.1192H19.1029H19.0868H19.0709H19.0553H16.6002V16.7306ZM47.5901 52.643C47.5901 54.6567 45.956 56.2908 43.9423 56.2908H14.7271C12.7134 56.2908 11.0793 54.6567 11.0793 52.643V32.035C11.0793 30.0213 12.7134 28.3872 14.7271 28.3872H43.9423C45.956 28.3872 47.5901 30.0213 47.5901 32.035V52.643Z" fill="#DA00DE" stroke="#DA00DE" stroke-width="0.5"/>
<path d="M34.6346 41.9066C34.0439 39.8275 32.152 38.406 29.9933 38.406C27.3244 38.406 25.1514 40.5654 25.1514 43.2479C25.1514 45.3436 26.491 47.1877 28.4713 47.8341V51.2106C28.4713 52.0483 29.1556 52.7326 29.9933 52.7326C30.8309 52.7326 31.5153 52.0483 31.5153 51.2106V47.8334C33.9653 47.0243 35.3676 44.4088 34.6346 41.9066ZM29.9933 45.0331C28.9993 45.0331 28.1954 44.2292 28.1954 43.2352C28.1954 42.2412 28.9993 41.4373 29.9933 41.4373C30.9873 41.4373 31.7912 42.2412 31.7912 43.2352C31.7912 44.2292 30.9873 45.0331 29.9933 45.0331Z" fill="#DA00DE" stroke="#DA00DE" stroke-width="0.5"/>
</svg>
