<svg width="55" height="55" viewBox="0 0 55 55" fill="none" xmlns="http://www.w3.org/2000/svg">
<path d="M6.44922 8.06201C6.44922 8.95193 7.17171 9.67334 8.06162 9.67334C8.95153 9.67334 9.67402 8.95193 9.67402 8.06201C9.67402 7.1721 8.95153 6.45068 8.06162 6.45068C7.17171 6.45068 6.44922 7.1721 6.44922 8.06201Z" fill="#DA00DE"/>
<path d="M12.8994 8.06201C12.8994 8.95193 13.6219 9.67334 14.5118 9.67334C15.4017 9.67334 16.1242 8.95193 16.1242 8.06201C16.1242 7.1721 15.4017 6.45068 14.5118 6.45068C13.6219 6.45068 12.8994 7.1721 12.8994 8.06201Z" fill="#DA00DE"/>
<path d="M19.3496 8.06201C19.3496 8.95193 20.0721 9.67334 20.962 9.67334C21.8519 9.67334 22.5744 8.95193 22.5744 8.06201C22.5744 7.1721 21.8519 6.45068 20.962 6.45068C20.0721 6.45068 19.3496 7.1721 19.3496 8.06201Z" fill="#DA00DE"/>
<path d="M2 0C0.895432 0 0 0.895431 0 2V46.5495C0 47.6541 0.895431 48.5495 2 48.5495H12.6616C13.7662 48.5495 14.6616 49.445 14.6616 50.5495V53C14.6616 54.1046 15.557 55 16.6616 55H38.3383C39.4429 55 40.3383 54.1046 40.3383 53V50.5495C40.3383 49.445 41.2337 48.5495 42.3383 48.5495H53C54.1046 48.5495 55 47.6541 55 46.5495V2C55 0.89543 54.1046 0 53 0H2ZM19.8842 51.7773C18.7797 51.7773 17.8842 50.8819 17.8842 49.7773V39.677C17.8842 38.5725 18.7797 37.677 19.8842 37.677H35.1157C36.2202 37.677 37.1157 38.5725 37.1157 39.677V49.7773C37.1157 50.8819 36.2202 51.7773 35.1157 51.7773H19.8842ZM23.1096 34.4544C22.005 34.4544 21.1096 33.559 21.1096 32.4544V28.9646C21.1096 25.4408 23.9763 22.5742 27.5 22.5742C31.0237 22.5742 33.8904 25.4409 33.8904 28.9646V32.4544C33.8904 33.559 32.995 34.4544 31.8904 34.4544H23.1096ZM51.7773 43.3269C51.7773 44.4314 50.8819 45.3269 49.7773 45.3269H42.3384C41.2338 45.3269 40.3384 44.4314 40.3384 43.3269V36.067C40.3384 35.1764 39.6164 34.4544 38.7258 34.4544C37.8352 34.4544 37.1132 33.7324 37.1132 32.8418V28.9646C37.1132 23.6639 32.8007 19.3515 27.5001 19.3515C22.1995 19.3515 17.887 23.664 17.887 28.9646V32.8418C17.887 33.7324 17.165 34.4544 16.2744 34.4544C15.3838 34.4544 14.6618 35.1764 14.6618 36.067V43.3269C14.6618 44.4314 13.7664 45.3269 12.6618 45.3269H5.22265C4.11809 45.3269 3.22266 44.4314 3.22266 43.3269V18.1236C3.22266 17.019 4.11809 16.1236 5.22266 16.1236H49.7773C50.8819 16.1236 51.7773 17.019 51.7773 18.1236V43.3269ZM51.7773 10.9009C51.7773 12.0055 50.8819 12.9009 49.7773 12.9009H5.22266C4.11809 12.9009 3.22266 12.0055 3.22266 10.9009V5.22266C3.22266 4.11809 4.11809 3.22266 5.22266 3.22266H49.7773C50.8819 3.22266 51.7773 4.11809 51.7773 5.22266V10.9009Z" fill="#DA00DE"/>
</svg>
