<svg width="57" height="57" viewBox="0 0 57 57" fill="none" xmlns="http://www.w3.org/2000/svg">
<g clip-path="url(#clip0)">
<path d="M52.002 22.7809H51.3814L46.1455 4.85142C45.8015 3.67421 44.9683 2.7014 43.8594 2.18259C42.7535 1.66465 41.4767 1.64726 40.3569 2.13519L32.3721 5.61376C29.9112 6.68573 27.0884 6.68573 24.6279 5.61376L16.6431 2.13519C15.5233 1.64726 14.247 1.66465 13.1406 2.18216C12.0317 2.7014 11.1985 3.67465 10.8549 4.85186L5.61903 22.7809H4.99846C2.24222 22.7809 0 25.0231 0 27.7794V27.8089C0 30.5652 2.24222 32.8074 4.99846 32.8074H52.002C54.7578 32.8074 57 30.5652 57 27.8089V27.7794C57 25.0231 54.7578 22.7809 52.002 22.7809ZM14.0608 5.78814C14.163 5.43676 14.4157 5.27369 14.557 5.20759C14.6962 5.14192 14.9797 5.05364 15.3094 5.19715L23.2941 8.67572C26.6026 10.1173 30.3978 10.1173 33.7059 8.67572L41.6906 5.19715C42.0198 5.05364 42.3038 5.14192 42.4434 5.20759C42.5847 5.27369 42.837 5.43676 42.9392 5.78771L45.1649 13.4085H11.8351L14.0608 5.78814ZM11.8351 13.4085H45.1649L47.902 22.7809H9.09803L11.8351 13.4085ZM53.6602 27.8089C53.6602 28.7235 52.9161 29.4676 52.002 29.4676H4.99846C4.08392 29.4676 3.33984 28.7235 3.33984 27.8089V27.7794C3.33984 26.8644 4.08392 26.1207 4.99846 26.1207H52.002C52.9161 26.1207 53.6602 26.8648 53.6602 27.7794V27.8089Z" fill="#DA00DE"/>
<path d="M55.3301 40.656H52.613C52.5151 40.412 52.4081 40.1741 52.2929 39.9432C50.69 36.7378 47.5149 34.9722 43.3523 34.9722C42.8452 34.9722 42.3817 34.9752 41.935 34.9817C38.3856 35.0335 36.2769 35.3349 34.6561 36.0228C33.992 36.3046 33.3971 36.6617 32.8888 37.0831C32.1273 37.7141 31.5415 38.5055 31.1484 39.4349C30.9657 39.8654 30.8253 40.2468 30.7261 40.656H26.2769C26.1769 40.2503 26.0351 39.8676 25.852 39.4353C25.458 38.5055 24.8727 37.7141 24.1117 37.0831C23.6029 36.6617 23.0084 36.3051 22.3435 36.0228C20.7231 35.3349 18.6144 35.0335 15.0654 34.9817C14.6183 34.9752 14.1548 34.9722 13.6477 34.9722C9.4855 34.9722 6.31048 36.7378 4.70709 39.9432C4.59185 40.1741 4.48487 40.4116 4.38702 40.656H1.66992C0.747551 40.656 0 41.4035 0 42.3259C0 43.2478 0.747551 43.9958 1.66992 43.9958H3.63425C3.60642 44.3533 3.59251 44.7234 3.59251 45.0952C3.59251 50.6773 8.10303 55.2187 13.6473 55.2187C17.0328 55.2187 20.2982 53.7118 22.8423 50.9765C23.7655 49.9845 24.5387 48.8886 25.1406 47.7197C25.4754 47.0695 25.7516 46.4042 25.9616 45.7427C26.1473 45.1578 26.2817 44.5712 26.3635 43.9958H30.637C30.7183 44.5712 30.8527 45.1574 31.0388 45.7427C31.2484 46.4046 31.525 47.0695 31.8594 47.7192C32.4613 48.8882 33.2345 49.9841 34.1577 50.9765C36.7018 53.7123 39.9672 55.2187 43.3523 55.2187C48.897 55.2187 53.4075 50.6777 53.4075 45.0956C53.4075 44.7225 53.3936 44.3524 53.3657 43.9958H55.3301C56.2524 43.9958 57 43.2483 57 42.3259C57 41.4035 56.2524 40.656 55.3301 40.656ZM23.0806 43.3366L23.0801 43.3374C23.0306 43.788 22.9292 44.2572 22.7779 44.7329C22.6248 45.2161 22.4209 45.7066 22.1713 46.1907C21.709 47.0882 21.1123 47.9332 20.397 48.7021C18.4918 50.7508 16.0947 51.8788 13.6477 51.8788C9.94473 51.8788 6.93235 48.836 6.93235 45.0956C6.93235 44.8091 6.94279 44.5259 6.9641 44.2537C7.00323 43.7506 7.08021 43.2652 7.19328 42.8108C7.31591 42.319 7.48464 41.8567 7.69425 41.437C8.98627 38.8543 11.6447 38.312 13.6477 38.312C14.1382 38.312 14.5862 38.3151 15.0171 38.3216C18.0612 38.3655 19.8621 38.5977 21.0388 39.097C21.4046 39.2522 21.7216 39.4401 21.9803 39.6545C22.3304 39.9445 22.5909 40.299 22.7766 40.7373C23.0336 41.344 23.1167 41.601 23.1167 42.3259C23.1162 42.6129 23.0984 43.1761 23.0806 43.3366ZM43.3523 51.8788C40.9053 51.8788 38.5082 50.7508 36.603 48.7021C35.8877 47.9332 35.2906 47.0882 34.8287 46.1902C34.5796 45.7066 34.3752 45.2165 34.2221 44.7329V44.7325C34.0712 44.2572 33.9694 43.788 33.9199 43.337C33.9055 43.2074 33.8916 42.716 33.8916 42.3259C33.8916 41.5875 33.9777 41.3183 34.2238 40.7373C34.4091 40.299 34.6696 39.945 35.0197 39.6549C35.2788 39.4401 35.5954 39.2522 35.9612 39.0974C37.1379 38.5977 38.9392 38.3655 41.9833 38.3216C42.4138 38.3151 42.8618 38.312 43.3523 38.312C45.3553 38.312 48.0142 38.8543 49.3057 41.4375C49.5158 41.8571 49.6841 42.319 49.8067 42.8112C49.9198 43.2657 49.9972 43.751 50.0359 44.2546C50.0572 44.5259 50.0681 44.8091 50.0681 45.0956C50.0676 48.836 47.0553 51.8788 43.3523 51.8788Z" fill="#DA00DE"/>
</g>
<defs>
<clipPath id="clip0">
<rect width="57" height="57" fill="white"/>
</clipPath>
</defs>
</svg>
