<svg width="62" height="63" viewBox="0 0 62 63" fill="none" xmlns="http://www.w3.org/2000/svg">
<path d="M29.1305 25.7735H16.0527L17.4668 24.3202C17.8648 23.9112 17.8648 23.2564 17.4668 22.8474C17.0644 22.4339 16.4133 22.4339 16.0108 22.8474L12.8618 26.0837C12.4638 26.4927 12.4638 27.1475 12.8618 27.5565L16.0108 30.7928C16.2107 30.9982 16.4726 31.103 16.7418 31.103C17.011 31.103 17.2729 30.9982 17.4728 30.7928C17.8707 30.3838 17.8707 29.729 17.4728 29.32L16.0586 27.8667H29.1365C30.9763 27.8667 32.461 26.3289 32.461 24.4584V7.34461C32.461 5.4741 30.9763 3.93633 29.1365 3.93633H27.126C26.5494 3.93633 26.0966 4.41363 26.0966 4.98597C26.0966 5.55832 26.5494 6.03562 27.126 6.03562H29.1365C29.829 6.03562 30.408 6.61879 30.408 7.3507V24.4633C30.4027 25.19 29.8232 25.7735 29.1305 25.7735Z" fill="#DA00DE" stroke="#DA00DE" stroke-width="0.6"/>
<path d="M20.1381 4.24037L20.1377 4.23996L16.9831 1.01019C16.9831 1.01017 16.9831 1.01015 16.983 1.01013C16.5806 0.596603 15.9295 0.596622 15.5271 1.01019C15.1291 1.4192 15.1291 2.074 15.5271 2.483L16.9412 3.93627H3.8634C2.02359 3.93627 0.538867 5.47404 0.538867 7.34455V24.4584C0.538867 26.3289 2.02359 27.8666 3.8634 27.8666H5.87383C6.45046 27.8666 6.90328 27.3894 6.90328 26.817C6.90328 26.2447 6.45046 25.7674 5.87383 25.7674H3.8634C3.17091 25.7674 2.59183 25.1842 2.59183 24.4523V7.34455C2.59183 6.61264 3.17091 6.02946 3.8634 6.02946H16.9412L15.5271 7.48273C15.1291 7.89173 15.1291 8.54653 15.5271 8.95554C15.727 9.16095 15.9889 9.26573 16.2581 9.26573C16.5273 9.26573 16.7892 9.16095 16.989 8.95554L20.1381 5.71927L19.9231 5.51005L20.1381 5.71927C20.3296 5.52251 20.4366 5.25828 20.4366 4.97982C20.4366 4.70135 20.3296 4.43713 20.1381 4.24037Z" fill="#DA00DE" stroke="#DA00DE" stroke-width="0.6"/>
<path d="M26.9304 40.3135C20.9031 40.3135 16 45.3523 16 51.5464C16 57.7405 20.9031 62.7793 26.9304 62.7793C32.9576 62.7793 37.8607 57.741 37.8607 51.5468C37.8607 45.3527 32.9577 40.3135 26.9304 40.3135ZM26.9304 59.5852C22.6172 59.5852 19.1081 55.9789 19.1081 51.5464C19.1081 47.1139 22.6172 43.5076 26.9304 43.5076C31.2435 43.5076 34.7526 47.1133 34.7526 51.5464C34.7526 55.9794 31.2435 59.5852 26.9304 59.5852Z" fill="#DA00DE"/>
<path d="M57.6601 19.9661C57.053 19.3426 56.0698 19.3421 55.4627 19.9661L32.4622 43.6036C31.855 44.227 31.855 45.2385 32.4622 45.8619C32.7652 46.1739 33.1631 46.3298 33.5609 46.3298C33.9582 46.3298 34.3566 46.1739 34.6597 45.8624L57.6601 22.2249C58.2673 21.6011 58.2673 20.59 57.6601 19.9661Z" fill="#DA00DE"/>
<path d="M60.8209 29.5477L54.5522 23.106L52.3548 25.3648L57.5205 30.6737L51.7948 36.5192L46.6223 31.247L44.4336 33.515L50.7017 39.9035C51.0047 40.2123 51.4 40.3667 51.7957 40.3667C52.1916 40.3667 52.5878 40.2123 52.8908 39.9025L60.8172 31.8103C61.1104 31.5111 61.2756 31.1038 61.2761 30.6795C61.2767 30.2552 61.1131 29.848 60.8209 29.5477Z" fill="#DA00DE"/>
</svg>
