<svg width="72" height="72" viewBox="0 0 72 72" fill="none" xmlns="http://www.w3.org/2000/svg">
<path d="M21.7648 38.8415L21.7647 38.8419H21.7785H21.7786H21.7788H21.7789H21.7791H21.7793H21.7794H21.7796H21.7797H21.7799H21.7801H21.7802H21.7804H21.7805H21.7807H21.7809H21.781H21.7812H21.7813H21.7815H21.7817H21.7818H21.782H21.7822H21.7823H21.7825H21.7826H21.7828H21.783H21.7831H21.7833H21.7834H21.7836H21.7838H21.7839H21.7841H21.7842H21.7844H21.7846H21.7847H21.7849H21.785H21.7852H21.7854H21.7855H21.7857H21.7858H21.786H21.7862H21.7863H21.7865H21.7867H21.7868H21.787H21.7871H21.7873H21.7875H21.7876H21.7878H21.7879H21.7881H21.7883H21.7884H21.7886H21.7887H21.7889H21.7891H21.7892H21.7894H21.7895H21.7897H21.7899H21.79H21.7902H21.7903H21.7905H21.7907H21.7908H21.791H21.7912H21.7913H21.7915H21.7916H21.7918H21.792H21.7921H21.7923H21.7924H21.7926H21.7928H21.7929H21.7931H21.7932H21.7934H21.7936H21.7937H21.7939H21.794H21.7942H21.7944H21.7945H21.7947H21.7948H21.795H21.7952H21.7953H21.7955H21.7957H21.7958H21.796H21.7961H21.7963H21.7965H21.7966H21.7968H21.7969H21.7971H21.7973H21.7974H21.7976H21.7977H21.7979H21.7981H21.7982H21.7984H21.7985H21.7987H21.7989H21.799H21.7992H21.7993H21.7995H21.7997H21.7998H21.8H21.8001H21.8003H21.8005H21.8006H21.8008H21.801H21.8011H21.8013H21.8014H21.8016H21.8018H21.8019H21.8021H21.8022H21.8024H21.8026H21.8027H21.8029H21.803H21.8032H21.8034H21.8035H21.8037H21.8038H21.804H21.8042H21.8043H21.8045H21.8047H21.8048H21.805H21.8051H21.8053H21.8055H21.8056H21.8058H21.8059H21.8061H21.8063H21.8064H21.8066H21.8067H21.8069H21.8071H21.8072H21.8074H21.8075H21.8077H21.8079H21.808H21.8082H21.8083H21.8085H21.8087H21.8088H21.809H21.8091H21.8093H21.8095H21.8096H21.8098H21.81H21.8101H21.8103H21.8104H21.8106H21.8108H21.8109H21.8111H21.8112H21.8114H21.8116H21.8117H21.8119H21.812H21.8122H21.8124H21.8125H21.8127H21.8128H21.813H21.8132H21.8133H21.8135H21.8137H21.8138H21.814H21.8141H21.8143H21.8145H21.8146H21.8148H21.8149H21.8151H21.8153H21.8154H21.8156H21.8157H21.8159H21.8161H21.8162H21.8164H21.8165H21.8167H21.8169H21.817H21.8172H21.8173H21.8175H21.8177H21.8178H21.818H21.8181H21.8183H21.8185H21.8186H21.8188H21.819H21.8191H21.8193H21.8194H21.8196H21.8198H21.8199H21.8201H21.8202H21.8204H21.8206H21.8207H21.8209H21.821H21.8212H21.8214H21.8215H21.8217H21.8218H21.822H21.8222H21.8223H21.8225H21.8226H21.8228H21.823H21.8231H21.8233H21.8235H21.8236H21.8238H21.8239H21.8241H21.8243H21.8244H21.8246H21.8247H21.8249H21.8251H21.8252H21.8254H21.8255H21.8257H21.8259H21.826H21.8262H21.8263H21.8265H21.8267H21.8268H21.827H21.8271H21.8273H21.8275H21.8276H21.8278H21.828H21.8281H21.8283H21.8284H21.8286H21.8288H21.8289H21.8291H21.8292H21.8294H21.8296H21.8297H21.8299H21.83H21.8302H21.8304H21.8305H21.8307H21.8308H21.831H21.8312H21.8313H21.8315H21.8316H21.8318H21.832H21.8321H21.8323H21.8325H21.8326H21.8328H21.8329H21.8331H21.8333H21.8334H21.8336H21.8337H21.8339H21.8341H21.8342H21.8344H21.8345H21.8347H21.8349H21.835H21.8352H21.8353H21.8355H21.8357H21.8358H21.836H21.8361H21.8363H21.8365H21.8366H21.8368H21.837H21.8371H21.8373H21.8374H21.8376H21.8378H21.8379H21.8381H21.8382H21.8384H21.8386H21.8387H21.8389H21.839H21.8392H21.8394H21.8395H21.8397H21.8398H21.84H21.8402H21.8403H21.8405H21.8406H21.8408H21.841H21.8411H21.8413H21.8415H21.8416H21.8418H21.8419H21.8421H21.8423H21.8424H21.8426H21.8427H21.8429H21.8431H21.8432H21.8434H21.8435H21.8437H21.8439H21.844H21.8442H21.8443H21.8445H21.8447H21.8448H21.845H21.8451H21.8453H21.8455H21.8456H21.8458H21.846H21.8461H21.8463H21.8464H21.8466H21.8468H21.8469H21.8471H21.8472H21.8474H21.8476H21.8477H21.8479H21.848H21.8482H21.8484H21.8485H21.8487H21.8488H21.849H21.8492H21.8493H21.8495H21.8496H21.8498H21.85H21.8501H21.8503H21.8505H21.8506H21.8508H21.8509H21.8511H21.8513H21.8514H21.8516H21.8517H21.8519H21.8521H21.8522H21.8524H21.8525H21.8527H21.8529H21.853H21.8532H21.8533H21.8535H21.8537H21.8538H21.854H21.8541H21.8543H21.8545H21.8546H21.8548H21.855H21.8551H21.8553H21.8554H21.8556H21.8558H21.8559H21.8561H21.8562H21.8564H21.8566H21.8567H21.8569H21.857H21.8572H21.8574H21.8575H21.8577H21.8578H21.858H21.8582H21.8583H21.8585H21.8586H21.8588H21.859H21.8591H21.8593H21.8595H21.8596H21.8598H21.8599H21.8601H21.8603H21.8604H21.8606H21.8607H48.9739H48.9746C48.9832 38.8419 49.0082 38.8419 49.0375 38.8387C49.0533 38.8369 49.0785 38.8334 49.1076 38.8251C55.5763 38.3462 60.6205 32.8102 60.6205 26.1942C60.6205 20.4894 56.7825 15.4253 51.4972 13.9535C50.2887 7.15268 44.4063 2.1499 37.3579 2.1499C32.2672 2.1499 27.5457 4.87646 24.9838 9.19862C24.5385 9.12222 24.0775 9.08933 23.6299 9.08933C19.2267 9.08933 15.645 12.671 15.645 17.0742C15.645 17.5843 15.6911 18.0836 15.7833 18.5719C13.0398 20.6272 11.3799 23.8906 11.3799 27.3462C11.3799 33.2552 16.1219 38.5319 21.7648 38.8415ZM19.146 18.7001L19.1455 18.6987C18.9522 18.1961 18.8605 17.651 18.8605 17.0742C18.8605 14.442 20.9977 12.3048 23.6299 12.3048C24.1922 12.3048 24.7382 12.3962 25.2564 12.5906C26.0376 12.8835 26.9144 12.5249 27.2711 11.7632C29.0948 7.87449 33.0656 5.36533 37.3716 5.36533C43.1536 5.36533 47.9275 9.69692 48.478 15.4374C48.5432 16.1684 49.0956 16.7537 49.8107 16.8682C54.1406 17.6151 57.4187 21.6194 57.4187 26.1942C57.4187 31.0441 53.5968 35.2616 48.9094 35.6265H21.8958C17.9445 35.3842 14.5953 31.6145 14.5953 27.3462C14.5953 24.5966 16.07 22.0323 18.4474 20.6507C19.1304 20.2598 19.4221 19.4308 19.146 18.7001Z" fill="#DA00DE" stroke="#DA00DE" stroke-width="0.5"/>
<path d="M40.9265 65.0384C40.9554 63.7256 40.4789 62.468 39.5683 61.514C39.0194 60.9384 38.3466 60.5118 37.6077 60.2569V44.5301C37.6077 43.6377 36.8924 42.9224 36 42.9224C35.1076 42.9224 34.3923 43.6377 34.3923 44.5301V60.2575C32.5042 60.9162 31.1157 62.7033 31.0735 64.7945C31.0447 66.1073 31.5212 67.3648 32.4317 68.3187C33.3409 69.2711 34.5694 69.8208 35.8848 69.8497L35.8848 69.8498H35.8903H36C38.6592 69.8498 40.8687 67.6842 40.9265 65.0384ZM40.9265 65.0384L40.6766 65.0329M40.9265 65.0384C40.9265 65.0384 40.9265 65.0384 40.9265 65.0384L40.6766 65.0329M40.6766 65.0329C40.704 63.7849 40.2514 62.5918 39.3874 61.6867M40.6766 65.0329C40.6217 67.5427 38.5234 69.5998 36 69.5998L39.3874 61.6867M39.3874 61.6867C38.8251 61.0969 38.1257 60.6718 37.3577 60.4387V44.5301C37.3577 43.7758 36.7543 43.1724 36 43.1724C35.2457 43.1724 34.6423 43.7758 34.6423 44.5301L39.3874 61.6867ZM37.7249 64.9578L37.7249 64.9579C37.701 65.8799 36.9327 66.6344 36.0137 66.6344H35.9623C35.5088 66.6216 35.0793 66.4305 34.7691 66.1092C34.4534 65.7684 34.277 65.3373 34.2888 64.8887L34.2888 64.8886C34.3127 63.9666 35.0811 63.2121 36 63.2121H36.0549C36.5015 63.2121 36.9176 63.3989 37.2447 63.7374C37.5603 64.0781 37.7368 64.5092 37.7249 64.9578Z" fill="#DA00DE" stroke="#DA00DE" stroke-width="0.5"/>
<path d="M27.0276 44.5301V52.1415C27.0276 53.3191 26.0707 54.2641 24.905 54.2641H21.0815C20.4084 52.3342 18.5771 50.9315 16.4159 50.9315C13.7 50.9315 11.4756 53.1412 11.4756 55.8718C11.4756 58.6019 13.6858 60.8121 16.4159 60.8121C18.5766 60.8121 20.4088 59.4226 21.0819 57.4795H24.905C27.855 57.4795 30.243 55.0769 30.243 52.1415V44.5301C30.243 43.6377 29.5277 42.9224 28.6353 42.9224C27.7583 42.9224 27.0276 43.6361 27.0276 44.5301ZM16.4159 57.5967C15.4694 57.5967 14.691 56.8297 14.691 55.8718C14.691 54.9127 15.4568 54.1469 16.4159 54.1469C17.3624 54.1469 18.1407 54.9139 18.1407 55.8718C18.1407 56.8309 17.3749 57.5967 16.4159 57.5967Z" fill="#DA00DE" stroke="#DA00DE" stroke-width="0.5"/>
<path d="M47.0948 57.4934H50.9183C51.5915 59.4233 53.4228 60.826 55.584 60.826C58.2999 60.826 60.5243 58.6163 60.5243 55.8857C60.5243 53.1556 58.314 50.9454 55.584 50.9454C53.4233 50.9454 51.591 52.3349 50.9179 54.278H47.0948C45.9173 54.278 44.9723 53.3211 44.9723 52.1554V44.544C44.9723 43.6516 44.2569 42.9363 43.3646 42.9363C42.4722 42.9363 41.7568 43.6516 41.7568 44.544V52.1554C41.7568 55.0908 44.1449 57.4934 47.0948 57.4934ZM55.584 54.1608C56.5305 54.1608 57.3088 54.9278 57.3088 55.8857C57.3088 56.8448 56.5431 57.6106 55.584 57.6106C54.6249 57.6106 53.8591 56.8448 53.8591 55.8857C53.8591 54.9266 54.6249 54.1608 55.584 54.1608Z" fill="#DA00DE" stroke="#DA00DE" stroke-width="0.5"/>
</svg>
