<svg width="40" height="40" viewBox="0 0 40 40" fill="none" xmlns="http://www.w3.org/2000/svg">
<path d="M16.2689 7.92291C16.413 8.06716 16.6021 8.13917 16.7911 8.13917C16.9801 8.13917 17.169 8.06716 17.3131 7.92291L19.6485 5.58788C19.9366 5.29939 19.9366 4.83179 19.6485 4.54352C19.3603 4.25502 18.8927 4.25502 18.6044 4.54352L16.2689 6.87878C15.9807 7.16727 15.9807 7.63487 16.2689 7.92291Z" fill="#DA00DE"/>
<path d="M20.1539 7.92291C20.2981 8.06716 20.4869 8.13917 20.6756 8.13917C20.8648 8.13917 21.0536 8.06716 21.1978 7.92291L23.5333 5.58788C23.8218 5.29939 23.8218 4.83179 23.5333 4.54352C23.245 4.25502 22.7774 4.25502 22.4889 4.54352L20.1537 6.87878C19.8654 7.16727 19.8654 7.63487 20.1539 7.92291Z" fill="#DA00DE"/>
<path d="M37.0445 29.8204H34.4322V27.3693C34.4322 26.9618 34.1013 26.6309 33.6938 26.6309H30.9187V24.9517H33.5312C34.1416 24.9517 34.6386 24.4552 34.6386 23.8443V17.1426C34.6386 16.5322 34.1416 16.0352 33.5312 16.0352H30.9187V13.6433C30.9187 13.2353 30.588 12.9049 30.1802 12.9049H20.6828V11.2289H26.047C26.6818 11.2289 27.1985 10.7123 27.1985 10.077V2.38899C27.1985 1.75398 26.6818 1.2373 26.047 1.2373H22.7825C22.3746 1.2373 22.0441 1.56777 22.0441 1.97574C22.0441 2.38349 22.3746 2.71418 22.7825 2.71418H25.7221V9.75205H14.1676V2.71418H16.8585C17.2663 2.71418 17.5969 2.38349 17.5969 1.97574C17.5969 1.56777 17.2663 1.2373 16.8585 1.2373H13.8421C13.2074 1.2373 12.6907 1.75398 12.6907 2.38899V10.077C12.6907 10.7123 13.2074 11.2289 13.8421 11.2289H19.2064V12.9049H9.31772C8.90997 12.9049 8.57928 13.2353 8.57928 13.6433V16.0352H5.967C5.35607 16.0352 4.85934 16.5322 4.85934 17.1426V23.8443C4.85934 24.4552 5.35607 24.9517 5.967 24.9517H8.57928V26.6309H6.29907C5.89109 26.6309 5.56063 26.9618 5.56063 27.3693V29.8204H2.90821C2.29728 29.8204 1.80078 30.3173 1.80078 30.9278V37.6295C1.80078 38.2404 2.29728 38.7374 2.90821 38.7374H9.60989C10.2204 38.7374 10.7173 38.2404 10.7173 37.6295V30.9278C10.7173 30.3173 10.2204 29.8204 9.60989 29.8204H7.03727V28.1075H19.2064V29.8204H16.6379C16.0029 29.8204 15.4864 30.3371 15.4864 30.9723V37.5855C15.4864 38.2207 16.0029 38.7374 16.6379 38.7374H17.0119C17.4197 38.7374 17.7504 38.4067 17.7504 37.9989C17.7504 37.5912 17.4197 37.2605 17.0119 37.2605H16.9631V31.2973H22.9263V37.2605H22.8747C22.467 37.2605 22.1363 37.5912 22.1363 37.9989C22.1363 38.4067 22.467 38.7374 22.8747 38.7374H23.2513C23.8863 38.7374 24.4027 38.2207 24.4027 37.5855V30.9723C24.4027 30.3371 23.8863 29.8204 23.2513 29.8204H20.6828V28.1075H32.9553V29.8204H30.3428C29.7321 29.8204 29.2354 30.3173 29.2354 30.9278V37.6295C29.2354 38.2404 29.7321 38.7374 30.3428 38.7374H37.0445C37.655 38.7374 38.1519 38.2404 38.1519 37.6295V30.9278C38.1519 30.3173 37.655 29.8204 37.0445 29.8204ZM9.24044 31.2973V37.2605H3.2772V31.2973H9.24044ZM6.33599 23.4753V17.5121H12.2992V23.4753H6.33599ZM29.442 26.6309H10.0562V24.9517H12.6687C13.2791 24.9517 13.7761 24.4552 13.7761 23.8443V17.1426C13.7761 16.5322 13.2791 16.0352 12.6687 16.0352H10.0562V14.3815H29.442V16.0352H26.8295C26.2186 16.0352 25.7221 16.5322 25.7221 17.1426V23.8443C25.7221 24.4552 26.2186 24.9517 26.8295 24.9517H29.442V26.6309ZM27.1985 23.4753V17.5121H33.1617V23.4753H27.1985ZM36.675 37.2605H30.7118V31.2973H36.675V37.2605Z" fill="#DA00DE"/>
<path d="M19.3933 2.56413L19.4148 2.58042C19.5486 2.68201 19.7054 2.73132 19.8614 2.73132C20.084 2.73132 20.3044 2.63064 20.4496 2.43938C20.6964 2.11465 20.6333 1.65186 20.3086 1.40488L20.2868 1.38837C19.962 1.14161 19.4988 1.20467 19.2523 1.52963C19.0053 1.85413 19.0686 2.31715 19.3933 2.56413Z" fill="#DA00DE"/>
<path d="M20.4018 37.3937L20.3805 37.3775C20.0558 37.1309 19.5925 37.194 19.3455 37.5187C19.099 37.8435 19.1625 38.3067 19.4873 38.5535L19.5086 38.57C19.6423 38.6713 19.7992 38.7204 19.9546 38.7204C20.1778 38.7204 20.3981 38.6197 20.5435 38.4287C20.7901 38.1035 20.7268 37.6405 20.4018 37.3937Z" fill="#DA00DE"/>
</svg>
