<svg width="65" height="65" viewBox="0 0 65 65" fill="none" xmlns="http://www.w3.org/2000/svg">
<g clip-path="url(#clip0)">
<path d="M54.5729 32.5C54.5729 20.329 44.671 10.4271 32.5 10.4271C20.329 10.4271 10.4271 20.329 10.4271 32.5C10.4271 38.231 12.6231 43.4583 16.2171 47.3862L11.523 52.0803C10.8383 52.7648 11.3328 53.9297 12.2891 53.9297C12.5663 53.9297 12.8436 53.8239 13.0551 53.6124L17.756 48.9116C21.6894 52.4489 26.8668 54.5733 32.5012 54.5731C44.6718 54.5722 54.5729 44.6706 54.5729 32.5ZM43.1519 31.4167H33.5833V13.6105C36.5992 15.9915 42.7126 21.9539 43.1519 31.4167ZM31.4167 12.6235V31.4167H21.8496C22.1601 24.8747 25.2293 20.0219 27.8274 17.0504C28.2212 16.6001 28.1753 15.9157 27.7249 15.5219C27.2745 15.1279 26.5901 15.174 26.1964 15.6244C23.3531 18.8761 19.992 24.2044 19.6811 31.4167H12.6235C13.1687 21.3009 21.3009 13.1687 31.4167 12.6235ZM12.6235 33.5833H19.6801C20.0715 42.7829 25.3736 48.9672 28.8794 52.0753C20.0296 50.4423 13.1254 42.8955 12.6235 33.5833ZM21.8475 33.5833H31.4167V51.3788C26.0562 47.1236 22.1836 40.8862 21.8475 33.5833ZM33.5833 52.3765V33.5833H43.1501C42.8296 40.3528 39.5652 45.3294 36.8027 48.3635C36.3999 48.8059 36.4321 49.4911 36.8745 49.8939C37.3169 50.2967 38.0021 50.2645 38.4048 49.8221C41.4259 46.5041 44.9981 41.0436 45.319 33.5833H48.75C49.3483 33.5833 49.8333 33.0983 49.8333 32.5C49.8333 31.9017 49.3483 31.4167 48.75 31.4167H45.32C44.9294 22.2193 39.6296 16.0343 36.1252 12.9257C45.3765 14.6349 52.4063 22.7615 52.4063 32.5C52.4063 43.1129 44.0578 51.8119 33.5833 52.3765ZM56.8663 55.4697L51.615 50.2183C51.192 49.7953 50.5061 49.7953 50.083 50.2183C49.6599 50.6414 49.6599 51.3273 50.083 51.7503L55.3636 57.0309C53.2022 60.4875 55.7016 65 59.7865 65C62.6612 65 65 62.6612 65 59.7865C65 55.6025 60.3009 53.1387 56.8663 55.4697ZM59.7865 62.8333C58.1063 62.8333 56.7396 61.4666 56.7396 59.7865C56.7396 58.1063 58.1063 56.7396 59.7865 56.7396C61.4666 56.7396 62.8333 58.1063 62.8333 59.7865C62.8333 61.4666 61.4666 62.8333 59.7865 62.8333ZM7.969 9.63652L13.2496 14.9171C13.6728 15.3403 14.3585 15.3401 14.7815 14.9171C15.2047 14.4941 15.2047 13.8082 14.7815 13.3851L9.53035 8.13367C11.8611 4.69909 9.39724 0 5.21354 0C2.33878 0 0 2.33878 0 5.21354C0 9.30421 4.51858 11.7938 7.969 9.63652ZM5.21354 2.16667C6.89366 2.16667 8.26042 3.53343 8.26042 5.21354C8.26042 6.89366 6.89366 8.26042 5.21354 8.26042C3.53343 8.26042 2.16667 6.89366 2.16667 5.21354C2.16667 3.53343 3.53343 2.16667 5.21354 2.16667ZM5.21354 54.5729C2.33878 54.5729 0 56.9117 0 59.7865C0 62.6612 2.33878 65 5.21354 65C8.0883 65 10.4271 62.6612 10.4271 59.7865C10.4271 56.9117 8.0883 54.5729 5.21354 54.5729ZM5.21354 62.8333C3.53343 62.8333 2.16667 61.4666 2.16667 59.7865C2.16667 58.1063 3.53343 56.7396 5.21354 56.7396C6.89366 56.7396 8.26042 58.1063 8.26042 59.7865C8.26042 61.4666 6.89366 62.8333 5.21354 62.8333ZM51.615 14.7817L56.8663 9.53035C60.3009 11.8611 65 9.39724 65 5.21354C65 2.33878 62.6612 0 59.7865 0C55.6958 0 53.2062 4.51858 55.3635 7.969L50.0829 13.2496C49.6597 13.6726 49.6597 14.3585 50.0829 14.7815C50.5061 15.2047 51.192 15.2047 51.615 14.7817ZM59.7865 2.16667C61.4666 2.16667 62.8333 3.53343 62.8333 5.21354C62.8333 6.89366 61.4666 8.26042 59.7865 8.26042C58.1063 8.26042 56.7396 6.89366 56.7396 5.21354C56.7396 3.53343 58.1063 2.16667 59.7865 2.16667Z" fill="#DA00DE"/>
</g>
<defs>
<clipPath id="clip0">
<rect width="65" height="65" fill="white"/>
</clipPath>
</defs>
</svg>
