<svg width="73" height="74" viewBox="0 0 73 74" fill="none" xmlns="http://www.w3.org/2000/svg">
<path d="M41.8515 41.8814C41.3551 42.2027 41.2081 42.8708 41.5237 43.3754C41.7274 43.7012 42.0738 43.8793 42.428 43.8793C42.6238 43.8793 42.822 43.8248 42.9995 43.7108C43.0664 43.6678 44.1476 42.9607 45.0472 41.7073L45.5759 42.0292C45.7483 42.1342 45.9381 42.184 46.1255 42.184C46.4885 42.184 46.8426 41.9964 47.0434 41.6579C47.3475 41.1446 47.1834 40.4787 46.6772 40.1703L46.0198 39.7701C46.0463 39.6824 46.0713 39.5936 46.0938 39.5033C46.4345 38.1415 45.9732 36.6886 44.8899 35.7118C43.8976 34.8166 42.5983 34.5253 41.499 34.9504C40.9636 35.1577 40.4012 35.4686 39.7277 35.9391L35.4884 33.3581C35.8376 32.9023 36.1992 32.6367 36.9021 32.2921C37.4338 32.0313 37.6562 31.383 37.3989 30.844C37.1416 30.3053 36.5024 30.0796 35.9703 30.3404C34.7929 30.9179 34.192 31.4576 33.6455 32.2363L32.9816 31.8321C32.4752 31.5242 31.8184 31.6902 31.5141 32.2033C31.21 32.7166 31.3741 33.3825 31.8803 33.6909L32.6296 34.147C32.0441 36.0338 32.797 37.9313 34.0202 38.9914C35.6007 40.3614 37.6805 40.3606 39.3183 38.9897C39.4937 38.843 39.6737 38.6942 39.8562 38.5468L43.2054 40.5859C42.5847 41.391 41.8737 41.8668 41.8515 41.8814ZM35.4102 37.3436C34.8928 36.895 34.508 36.1502 34.5691 35.3279L37.9049 37.3589C36.7113 38.3131 35.6958 37.591 35.4102 37.3436ZM42.262 36.9761C42.6073 36.8427 43.0804 36.9819 43.4681 37.3317C43.7738 37.6074 44.0563 38.0572 44.0651 38.5802L41.7913 37.1958C41.9533 37.1094 42.111 37.0345 42.262 36.9761Z" fill="#DA00DE"/>
<path d="M33.5089 46.6685C33.0025 46.3604 32.3455 46.5264 32.0415 47.0397L30.4878 49.6621C30.1836 50.1754 30.3477 50.8413 30.8539 51.1497C31.3583 51.4565 32.0161 51.2939 32.3214 50.7785L33.8751 48.1561C34.1792 47.6428 34.0153 46.9769 33.5089 46.6685Z" fill="#DA00DE"/>
<path d="M46.4347 26.9584L47.9884 24.3362C48.2925 23.8229 48.1284 23.157 47.6222 22.8486C47.116 22.5406 46.459 22.7066 46.1548 23.2198L44.601 25.8421C44.2969 26.3554 44.461 27.0213 44.9672 27.3296C45.478 27.6405 46.1329 27.4674 46.4347 26.9584Z" fill="#DA00DE"/>
<path d="M36.8949 64.4777C36.3884 64.1695 35.7318 64.3354 35.4274 64.8484C35.1231 65.3617 35.287 66.0276 35.7931 66.3361L36.0422 66.4879C36.2148 66.593 36.4046 66.6428 36.5921 66.6428C36.9551 66.6428 37.309 66.4554 37.5098 66.117C37.8141 65.6037 37.6501 64.9378 37.1441 64.6293L36.8949 64.4777Z" fill="#DA00DE"/>
<path d="M16.4103 52.0059L16.1611 51.8543C15.6545 51.5459 14.9979 51.7122 14.6937 52.2257C14.3897 52.7392 14.5538 53.405 15.0602 53.7133L15.3093 53.8649C15.4817 53.9699 15.6713 54.0196 15.8588 54.0196C16.222 54.0196 16.5761 53.832 16.7769 53.4933C17.0807 52.98 16.9167 52.3141 16.4103 52.0059Z" fill="#DA00DE"/>
<path d="M62.0666 21.9921L62.3157 22.1439C62.4882 22.249 62.678 22.2988 62.8655 22.2988C63.2286 22.2988 63.5825 22.1114 63.7833 21.773C64.0876 21.2597 63.9236 20.5938 63.4175 20.2853L63.1684 20.1335C62.6619 19.8252 62.0051 19.9911 61.7008 20.5043C61.3965 21.0174 61.5604 21.6836 62.0666 21.9921Z" fill="#DA00DE"/>
<path d="M41.5826 9.52096C41.755 9.6259 41.9446 9.67563 42.1321 9.67563C42.4953 9.67563 42.8494 9.48801 43.0502 9.14933C43.3542 8.6359 43.19 7.97011 42.6837 7.66179L42.4346 7.51016C41.9279 7.20199 41.2713 7.36822 40.9671 7.88165C40.6631 8.39508 40.8273 9.06087 41.3336 9.36919L41.5826 9.52096Z" fill="#DA00DE"/>
<path d="M59.0808 16.8224L47.4869 9.7636C47.2438 9.61587 46.9526 9.5715 46.6774 9.64102C46.4022 9.71055 46.1655 9.8882 46.0194 10.1348C44.4931 12.7108 41.1838 13.548 38.6426 12.0008C38.1363 11.6927 37.4795 11.8587 37.1752 12.372L16.8226 46.7228C16.6765 46.9693 16.633 47.2645 16.7018 47.5434C16.7704 47.8226 16.9456 48.0624 17.1887 48.2104C19.7301 49.7576 20.5558 53.1121 19.0295 55.6883C18.7253 56.2016 18.8895 56.8675 19.3957 57.1758L30.9896 64.2346C31.4938 64.5417 32.1517 64.3786 32.457 63.8634C33.1964 62.6156 34.3709 61.7343 35.7641 61.3817C37.1574 61.0292 38.6025 61.248 39.8338 61.9976C40.3431 62.3077 40.999 62.1365 41.3013 61.6264L45.322 54.8403C45.6262 54.3271 45.462 53.6611 44.9558 53.3528C44.4496 53.0449 43.7927 53.2109 43.4884 53.724L39.9797 59.646C38.49 59.0071 36.8439 58.8739 35.2464 59.2781C33.6491 59.6821 32.2574 60.5835 31.2384 61.857L21.3489 55.8358C22.6393 52.7311 21.7459 49.1019 19.1679 46.9758L38.4972 14.3518C41.5598 15.6596 45.1399 14.7541 47.2373 12.141L57.1277 18.1627C55.8373 21.2673 56.7307 24.8964 59.3087 27.0226L45.6902 50.0075C45.386 50.5208 45.5502 51.1868 46.0564 51.4951C46.5627 51.8033 47.2195 51.637 47.5238 51.1239L61.6538 27.2757C61.9579 26.7624 61.7938 26.0965 61.2876 25.7882C58.7464 24.2409 57.9207 20.8864 59.447 18.3103C59.7511 17.7968 59.5872 17.1308 59.0808 16.8224Z" fill="#DA00DE"/>
<path d="M67.181 31.6051L65.7804 28.8893L70.1876 21.4511C70.9122 20.2278 70.5203 18.6349 69.3135 17.9001L52.0554 7.39266C51.5492 7.08477 50.8922 7.25057 50.588 7.76386C50.2838 8.27715 50.448 8.94308 50.9542 9.2514L68.2122 19.7587C68.4079 19.8778 68.4713 20.1361 68.3538 20.3346L38.4047 70.8823C38.2874 71.0805 38.0334 71.1458 37.8367 71.0259L10.2651 54.2395C10.0693 54.1203 10.0057 53.8618 10.1232 53.6635L40.072 3.11593C40.1897 2.91761 40.4448 2.85343 40.6403 2.9721L47.2462 6.99414C47.7482 7.29986 48.4183 7.17425 48.7348 6.67469C49.0624 6.15793 48.9018 5.47278 48.3861 5.15882L41.7416 1.11336C40.5345 0.378917 38.9633 0.776423 38.2385 1.99959L33.8315 9.43772L30.8083 9.46027C23.1514 9.51751 15.4693 11.3593 8.59271 14.7861C8.06254 15.0502 7.84423 15.7 8.10475 16.2372C8.29069 16.6207 8.67042 16.8433 9.06526 16.8433C9.22354 16.8433 9.38453 16.8075 9.53625 16.7319C16.1258 13.4482 23.4871 11.6834 30.8242 11.6285L32.541 11.6156L18.2471 35.7411C17.5352 36.9424 16.4462 37.8668 15.1546 38.3662C14.7188 38.5346 14.2235 38.5062 13.8291 38.254C13.5034 38.0457 13.2784 37.7224 13.1941 37.3399C13.1074 36.9467 13.1814 36.5457 13.4028 36.2108L16.8791 30.9503C17.2751 30.351 17.2355 29.5755 16.7806 29.0209C16.3259 28.4664 15.5815 28.286 14.9277 28.5705L9.5565 30.9134C8.29697 31.4627 6.84079 30.5444 6.73727 29.1754C6.69292 28.5911 6.89099 28.0385 7.29467 27.6192L10.3801 24.4156C10.8751 23.9014 10.9459 23.1254 10.5524 22.528C10.1588 21.9308 9.42446 21.6998 8.76696 21.9664C7.46806 22.4927 5.7354 23.1949 4.47373 23.707C3.31444 24.1781 2.04649 23.2063 2.14445 21.9843C2.21304 21.1306 2.86726 20.752 2.88466 20.7331C3.77102 20.099 4.70815 19.4763 5.67095 18.8822C6.13666 18.5948 6.35155 18.0025 6.12967 17.4977C5.8616 16.8878 5.13936 16.6728 4.59522 17.0078C2.95353 18.0189 1.92229 18.7764 1.59147 19.0045C0.678723 19.6577 0.103213 20.6798 0.0126655 21.8084C-0.213632 24.6269 2.63355 26.7896 5.26883 25.72C5.69961 25.5451 6.18529 25.3481 6.68979 25.1435L5.76421 26.1045C4.93673 26.9638 4.51394 28.1435 4.60463 29.3411C4.81995 32.1902 7.79831 34.041 10.4019 32.905L14.0703 31.3049L11.6258 35.004C10.9968 35.9557 10.8458 37.1223 11.2236 38.2299C11.4362 38.8533 11.8202 39.4091 12.3255 39.8245C12.9902 40.3709 13.7876 40.6499 14.5931 40.6497C14.8614 40.6497 15.1304 40.6151 15.3962 40.5527L8.28955 52.5472C7.56489 53.7705 7.95702 55.3633 9.1638 56.0981L36.7353 72.8846C37.9449 73.6215 39.5118 73.2253 40.2384 71.9987L47.3433 60.0071C47.5817 60.9082 48.1499 61.6796 48.9534 62.1687C50.7018 63.2331 52.979 62.6073 53.9481 60.7719L56.0211 56.8463L56.3509 60.8808C56.5899 63.7996 59.6452 65.5179 62.1782 64.3943C63.2635 63.9128 64.0923 62.9803 64.4519 61.8361L64.8538 60.5564C64.9127 61.104 64.9694 61.6311 65.0194 62.0986C65.3226 64.9271 68.5214 66.5079 70.895 64.9647C71.8354 64.3532 72.455 63.3582 72.5954 62.2327C72.5642 61.0195 75.2491 47.2507 67.181 31.6051ZM70.4736 61.9627C70.3467 62.9799 69.3421 63.6304 68.3812 63.3242C68.3669 63.3145 67.2728 63.0455 67.1462 61.8644C66.9995 60.4945 66.7971 58.6144 66.6451 57.2049C66.5681 56.4912 66.0221 55.9426 65.3173 55.8709C64.6123 55.7982 63.9698 56.2274 63.7546 56.9116L62.4142 61.1778C61.7546 63.2787 58.6611 62.8809 58.483 60.7015L57.9999 54.7943C57.941 54.0755 57.4334 53.4942 56.737 53.3478C56.041 53.2021 55.3465 53.5302 55.0107 54.1661L52.0627 59.7485C51.666 60.4997 50.7212 60.75 50.0098 60.2812C49.6447 60.0407 49.4173 59.6351 49.3633 59.1972L49.3628 59.1932C49.1909 57.8026 49.4843 56.3939 50.1962 55.1925L64.4904 31.067L65.2858 32.6093C73.0708 47.7068 70.4522 61.1398 70.4736 61.9627Z" fill="#DA00DE"/>
<path d="M15.5548 21.2574C15.6068 21.224 20.8292 17.9406 25.7176 19.1964C26.29 19.344 26.8721 18.9924 27.0171 18.4121C27.1624 17.8316 26.8159 17.2418 26.2434 17.0948C20.4756 15.6119 14.6597 19.2661 14.4147 19.4226C13.9149 19.7418 13.7649 20.4112 14.0796 20.9178C14.3931 21.4219 15.0526 21.5778 15.5548 21.2574Z" fill="#DA00DE"/>
<path d="M60.2745 40.6149C59.7767 40.9371 59.6305 41.6074 59.9484 42.112C62.6456 46.3952 61.2327 52.4603 61.2133 52.5408C61.0469 53.2266 61.5607 53.8842 62.2527 53.8842C62.733 53.8842 63.1697 53.5538 63.2901 53.0599C63.3594 52.7751 64.9526 46.0291 61.7513 40.9454C61.4335 40.4407 60.7722 40.2927 60.2745 40.6149Z" fill="#DA00DE"/>
</svg>
