<svg width="68" height="70" viewBox="0 0 68 70" fill="none" xmlns="http://www.w3.org/2000/svg">
<path d="M50.9998 70C52.9267 70 54.3998 68.4836 54.3998 66.5V59.9665L55.1934 60.7834C56.553 62.1831 58.8197 62.1831 60.1799 60.7834C61.5396 59.3832 61.5396 57.0499 60.1799 55.6502L54.3998 49.7001V19.8333H52.1331V47.3668L38.4197 33.25L43.5197 28H45.56C47.4864 28 48.96 26.4836 48.96 24.5C48.96 23.5669 48.6197 22.6332 47.9396 22.0499L38.6466 12.4836C37.2864 11.0833 35.1331 11.0833 33.8864 12.4836C33.2063 13.1831 32.8665 14 32.8665 14.9331V17.0334L16.5466 33.8333H14.5063C12.5799 33.8333 11.1063 35.3498 11.1063 37.3333C11.1063 38.2664 11.4466 39.2001 12.1267 39.7834L21.4197 49.3498C22.7799 50.75 24.9331 50.75 26.1799 49.3498C26.86 48.6502 27.1998 47.8333 27.1998 46.9002V44.7999L33.4331 38.3832L52.1331 57.6332V66.5C52.1331 67.2001 51.6799 67.6667 50.9998 67.6667H18.1331V61.8333C18.1331 59.8498 16.66 58.3333 14.7331 58.3333H9.06647V3.5C9.06647 2.79989 9.51969 2.33333 10.1998 2.33333H50.9998C51.6799 2.33333 52.1331 2.79989 52.1331 3.5V8.16667H54.3998V3.5C54.3998 1.51644 52.9267 0 50.9998 0H10.1998C8.27292 0 6.7998 1.51644 6.7998 3.5V59.9665L16.5466 70H50.9998ZM35.4729 14.1168C35.9267 13.6502 36.6063 13.6502 37.06 14.1168L46.353 23.6831C46.8063 24.1502 46.8063 24.8498 46.353 25.3169C46.1267 25.5499 45.8998 25.6667 45.56 25.6667H43.5197L35.1331 17.0334V14.9331C35.1331 14.7001 35.2466 14.3498 35.4729 14.1168ZM33.9998 19.1332L41.4799 26.8333L26.0665 42.7001L18.5864 35L33.9998 19.1332ZM24.5934 47.7166C24.1396 48.1831 23.46 48.1831 23.0063 47.7166L13.7132 38.1502C13.26 37.6831 13.26 36.9836 13.7132 36.5164C13.9396 36.2834 14.1665 36.1667 14.5063 36.1667H16.5466L24.9331 44.7999V46.9002C24.9331 47.1332 24.8197 47.4836 24.5934 47.7166ZM36.8331 34.8832L58.5934 57.2834C59.0466 57.75 59.0466 58.5669 58.5934 59.1502C58.1396 59.6168 57.3466 59.6168 56.7799 59.1502L35.0197 36.75L36.8331 34.8832ZM15.8665 61.8333V66.0334L10.653 60.6667H14.7331C15.4132 60.6667 15.8665 61.1332 15.8665 61.8333Z" fill="#DA00DE"/>
<path d="M41.1426 10.8304L43.386 8.52039L44.9892 10.1701L42.7452 12.4801L41.1426 10.8304Z" fill="#DA00DE"/>
<path d="M44.5547 14.3184L49.1229 9.61646L50.7255 11.2662L46.1578 15.9682L44.5547 14.3184Z" fill="#DA00DE"/>
<path d="M47.9658 17.8064L54.7774 10.7944L56.38 12.4447L49.5684 19.4567L47.9658 17.8064Z" fill="#DA00DE"/>
<path d="M23.7998 5.83325H37.3998V8.16659H23.7998V5.83325Z" fill="#DA00DE"/>
<path d="M12.4668 11.6667H30.6001V14.0001H12.4668V11.6667Z" fill="#DA00DE"/>
<path d="M12.4668 17.5H26.0668V19.8333H12.4668V17.5Z" fill="#DA00DE"/>
<path d="M12.4668 23.3334H21.5335V25.6667H12.4668V23.3334Z" fill="#DA00DE"/>
<path d="M12.4668 29.1666H15.8668V31.5H12.4668V29.1666Z" fill="#DA00DE"/>
<path d="M12.4668 52.5H44.2001V54.8333H12.4668V52.5Z" fill="#DA00DE"/>
<path d="M21.5332 57.1666H48.7332V59.5H21.5332V57.1666Z" fill="#DA00DE"/>
<path d="M21.5332 61.8333H48.7332V64.1666H21.5332V61.8333Z" fill="#DA00DE"/>
</svg>
