<svg width="72" height="72" viewBox="0 0 72 72" fill="none" xmlns="http://www.w3.org/2000/svg">
<g clip-path="url(#clip0)">
<path d="M2.61092 6.75887C2.29634 7.07345 2.11935 7.49994 2.11875 7.94482C2.11875 7.94489 2.11875 7.94495 2.11875 7.94501M2.61092 6.75887L1.96875 7.94482L2.11875 7.94501M2.61092 6.75887C2.92554 6.44424 3.35211 6.26725 3.79706 6.2667H68.2029C68.6479 6.26725 69.0745 6.44424 69.3891 6.75887C69.7037 7.07349 69.8807 7.50006 69.8812 7.94501V14.6151H2.11875M2.61092 6.75887L2.11875 14.6151M2.11875 7.94501L2.11875 14.6151M2.11875 7.94501L2.11875 14.6151M68.2033 3.99795H68.2031L3.79688 3.99795L3.7967 3.99795C2.75035 3.99919 1.74721 4.4154 1.00733 5.15528C0.267447 5.89516 -0.148762 6.8983 -0.15 7.94465V7.94482L-0.15 56.0543L-0.15 56.0545C-0.148913 57.0227 0.236194 57.951 0.920834 58.6356C1.60547 59.3203 2.53373 59.7054 3.50196 59.7065H3.50212H40.2415C41.3048 62.1551 43.0565 64.2431 45.2846 65.7162C47.5403 67.2075 50.1847 68.0026 52.8888 68.0026C55.5929 68.0026 58.2373 67.2075 60.493 65.7162C62.7211 64.2431 64.4727 62.1551 65.5361 59.7065H68.4979H68.498C69.4663 59.7054 70.3945 59.3203 71.0792 58.6356C71.7638 57.951 72.1489 57.0227 72.15 56.0545V56.0543V7.94482V7.94465C72.1488 6.8983 71.7326 5.89516 70.9927 5.15528C70.2528 4.4154 69.2497 3.99919 68.2033 3.99795ZM53.0385 65.7325V65.7323L52.8885 65.7323C50.5925 65.7323 48.3489 65.0462 46.4456 63.7621C44.5423 62.4781 43.066 60.6546 42.2063 58.5257C41.3465 56.3967 41.1425 54.0595 41.6203 51.8138C42.094 49.5878 43.2162 47.5524 44.8448 45.964H60.9322C62.5612 47.5523 63.6838 49.5878 64.1577 51.814C64.6357 54.0599 64.4318 56.3974 63.572 58.5266C62.7122 60.6557 61.2358 62.4794 59.3322 63.7635C57.4701 65.0197 55.2823 65.7035 53.0385 65.7325ZM62.4834 43.4813V43.4812C62.4822 42.4348 62.066 41.4317 61.3261 40.6918C60.5862 39.9519 59.5831 39.5357 58.5367 39.5345H58.5366H54.0229V38.6159C54.0237 37.9156 54.2265 37.2304 54.6068 36.6424C54.987 36.0544 55.5287 35.5885 56.167 35.3004C56.3029 35.2393 56.4254 35.1519 56.5275 35.0434C56.6296 34.9349 56.7093 34.8074 56.7621 34.6681L56.6219 34.6149L56.7621 34.6681C56.8149 34.5288 56.8398 34.3804 56.8353 34.2315C56.8308 34.0826 56.797 33.936 56.7358 33.8002C56.6746 33.6643 56.5873 33.5418 56.4788 33.4397C56.3703 33.3376 56.2428 33.2579 56.1035 33.205C55.9642 33.1522 55.8158 33.1274 55.6669 33.1319C55.518 33.1364 55.3714 33.1702 55.2355 33.2314L55.2354 33.2314C54.199 33.6993 53.3194 34.456 52.702 35.4109C52.0846 36.3658 51.7555 37.4784 51.7541 38.6155V38.6157V39.5345H47.2399H47.2397C46.1934 39.5357 45.1902 39.9519 44.4503 40.6918C43.7104 41.4317 43.2942 42.4348 43.293 43.4812V43.4813V44.3131C41.5564 45.9954 40.2925 48.1053 39.629 50.4312C38.9772 52.7157 38.9273 55.1289 39.4825 57.4366H3.50229C3.13565 57.4362 2.78413 57.2904 2.52478 57.0313C2.26546 56.7721 2.11945 56.4208 2.11875 56.0542C2.11875 56.0541 2.11875 56.0541 2.11875 56.0541L2.11875 16.8856H69.8812V56.053C69.8808 56.4199 69.735 56.7715 69.4756 57.0309C69.2162 57.2903 68.8645 57.4362 68.4977 57.4366H66.2973C66.8522 55.1286 66.8017 52.7152 66.1494 50.4306C65.4852 48.1048 64.2207 45.995 62.4834 44.3131V43.4813ZM58.5364 41.8032C58.9813 41.8038 59.4079 41.9807 59.7225 42.2954C60.0371 42.61 60.2141 43.0366 60.2147 43.4815V43.6941H45.5618V43.4815C45.5623 43.0366 45.7393 42.61 46.0539 42.2954C46.3685 41.9807 46.7951 41.8038 47.2401 41.8032H58.5364Z" fill="#DA00DE" stroke="#DA00DE" stroke-width="0.3"/>
<path d="M66.5159 9.30691H27.9492C27.6484 9.30691 27.3598 9.42642 27.1471 9.63916C26.9344 9.8519 26.8148 10.1404 26.8148 10.4413C26.8148 10.7421 26.9344 11.0307 27.1471 11.2434C27.3598 11.4561 27.6484 11.5757 27.9492 11.5757H66.5159C66.8168 11.5757 67.1053 11.4561 67.318 11.2434C67.5308 11.0307 67.6503 10.7421 67.6503 10.4413C67.6503 10.1404 67.5308 9.8519 67.318 9.63916C67.1053 9.42642 66.8168 9.30691 66.5159 9.30691Z" fill="#DA00DE" stroke="#DA00DE" stroke-width="0.3"/>
<path d="M8.08706 9.30691H5.48438C5.18352 9.30691 4.89499 9.42642 4.68225 9.63916C4.46951 9.8519 4.35 10.1404 4.35 10.4413C4.35 10.7421 4.46951 11.0307 4.68225 11.2434C4.89499 11.4561 5.18352 11.5757 5.48438 11.5757H8.08706C8.38792 11.5757 8.67645 11.4561 8.88919 11.2434C9.10192 11.0307 9.22144 10.7421 9.22144 10.4413C9.22144 10.1404 9.10192 9.8519 8.88919 9.63916C8.67645 9.42642 8.38792 9.30691 8.08706 9.30691Z" fill="#DA00DE" stroke="#DA00DE" stroke-width="0.3"/>
<path d="M15.5753 9.30691H12.9727C12.6718 9.30691 12.3833 9.42642 12.1705 9.63916C11.9578 9.8519 11.8383 10.1404 11.8383 10.4413C11.8383 10.7421 11.9578 11.0307 12.1705 11.2434C12.3833 11.4561 12.6718 11.5757 12.9727 11.5757H15.5753C15.8762 11.5757 16.1647 11.4561 16.3775 11.2434C16.5902 11.0307 16.7097 10.7421 16.7097 10.4413C16.7097 10.1404 16.5902 9.8519 16.3775 9.63916C16.1647 9.42642 15.8762 9.30691 15.5753 9.30691Z" fill="#DA00DE" stroke="#DA00DE" stroke-width="0.3"/>
<path d="M23.0625 9.30691H20.4609C20.1601 9.30691 19.8715 9.42642 19.6588 9.63916C19.4461 9.8519 19.3266 10.1404 19.3266 10.4413C19.3266 10.7421 19.4461 11.0307 19.6588 11.2434C19.8715 11.4561 20.1601 11.5757 20.4609 11.5757H23.0625C23.3634 11.5757 23.6519 11.4561 23.8646 11.2434C24.0774 11.0307 24.1969 10.7421 24.1969 10.4413C24.1969 10.1404 24.0774 9.8519 23.8646 9.63916C23.6519 9.42642 23.3634 9.30691 23.0625 9.30691Z" fill="#DA00DE" stroke="#DA00DE" stroke-width="0.3"/>
<path d="M55.7011 31.3245C55.8501 31.3246 55.9977 31.2953 56.1353 31.2383L56.6855 30.1901H56.8355V30.19V28.1156C56.8355 27.8147 56.716 27.5262 56.5033 27.3135C56.2906 27.1007 56.002 26.9812 55.7012 26.9812C55.4003 26.9812 55.1118 27.1007 54.899 27.3135C54.6863 27.5262 54.5668 27.8147 54.5668 28.1156V30.1901C54.5668 30.491 54.6863 30.7795 54.899 30.9922C55.1118 31.2049 55.4003 31.3245 55.7011 31.3245ZM55.7011 31.3245L55.7012 31.1745V31.3245C55.7011 31.3245 55.7011 31.3245 55.7011 31.3245Z" fill="#DA00DE" stroke="#DA00DE" stroke-width="0.3"/>
<path d="M59.0201 32.4331C59.1579 32.376 59.283 32.2923 59.3882 32.1867C59.3883 32.1866 59.3883 32.1866 59.3883 32.1865L60.8562 30.7204L60.8563 30.7203C61.069 30.5076 61.1886 30.219 61.1886 29.9181C61.1886 29.6173 61.069 29.3287 60.8563 29.116C60.6435 28.9032 60.355 28.7837 60.0541 28.7837C59.7533 28.7837 59.4647 28.9032 59.252 29.116L59.2519 29.116L57.7855 30.583L57.7855 30.583C57.627 30.7417 57.519 30.9437 57.4753 31.1637C57.4316 31.3837 57.454 31.6117 57.5398 31.8189C57.6256 32.0261 57.771 32.2032 57.9574 32.3279C58.1433 32.4522 58.3619 32.5188 58.5855 32.5192V32.5192C58.7346 32.5195 58.8824 32.4902 59.0201 32.4331Z" fill="#DA00DE" stroke="#DA00DE" stroke-width="0.3"/>
<path d="M58.6469 34.2698C58.6469 34.5706 58.7664 34.8592 58.9791 35.0719C59.1919 35.2846 59.4804 35.4042 59.7812 35.4042H61.8557C62.1566 35.4042 62.4451 35.2846 62.6579 35.0719C62.8706 34.8592 62.9901 34.5706 62.9901 34.2698C62.9901 33.9689 62.8706 33.6804 62.6579 33.4677C62.4451 33.2549 62.1566 33.1354 61.8557 33.1354H59.7812C59.4804 33.1354 59.1919 33.2549 58.9791 33.4677C58.7664 33.6804 58.6469 33.9689 58.6469 34.2698Z" fill="#DA00DE" stroke="#DA00DE" stroke-width="0.3"/>
<path d="M12.0242 34.9508H12.024H7.59384H7.59375H12.0242ZM12.0242 34.9508C12.9214 34.9499 13.7817 34.593 14.4161 33.9586C15.0506 33.3241 15.4074 32.4639 15.4084 31.5666V31.5665M12.0242 34.9508L15.4084 31.5665M15.4084 31.5665V25.7727V25.7725M15.4084 31.5665V25.7725M15.4084 25.7725C15.4074 24.8753 15.0506 24.015 14.4161 23.3806C13.7817 22.7461 12.9214 22.3893 12.0242 22.3883H12.024M15.4084 25.7725L12.024 22.3883M12.024 22.3883H7.59375M12.024 22.3883H7.59375M7.59375 22.3883C7.2929 22.3883 7.00436 22.5078 6.79163 22.7206M7.59375 22.3883L6.79163 22.7206M6.79163 22.7206C6.57889 22.9333 6.45938 23.2219 6.45938 23.5227M6.79163 22.7206L6.45938 23.5227M6.45938 23.5227L6.45938 33.8164M6.45938 23.5227L6.45938 33.8164M6.45938 33.8164C6.45938 33.8164 6.45938 33.8164 6.45938 33.8165L6.45938 33.8164ZM8.72813 24.6571L12.0238 24.6571C12.0239 24.6571 12.0239 24.6571 12.024 24.6571C12.3197 24.6575 12.6032 24.7752 12.8124 24.9843C13.0215 25.1935 13.1392 25.4771 13.1396 25.7729V31.5663C13.1392 31.8621 13.0215 32.1457 12.8124 32.3548C12.6032 32.564 12.3196 32.6817 12.0238 32.6821H8.72813V24.6571Z" fill="#DA00DE" stroke="#DA00DE" stroke-width="0.3"/>
<path d="M22.8528 34.9508H22.8527H18.4226H18.4224V34.8008C18.2931 34.801 18.1651 34.7756 18.0456 34.7263C17.9261 34.6769 17.8175 34.6044 17.7261 34.5131C17.6346 34.4217 17.562 34.3132 17.5125 34.1938C17.463 34.0743 17.4375 33.9463 17.4375 33.817L22.8528 34.9508ZM22.8528 34.9508C23.7501 34.9499 24.6104 34.593 25.2448 33.9586C25.8793 33.3241 26.2361 32.4639 26.2371 31.5666V31.5665V25.7727V25.7725C26.2361 24.8753 25.8793 24.015 25.2448 23.3806C24.6104 22.7461 23.7501 22.3893 22.8528 22.3883H22.8527L18.4225 22.3883C18.4225 22.3883 18.4225 22.3883 18.4225 22.3883C18.4225 22.3883 18.4225 22.3883 18.4224 22.3883C18.2734 22.3883 18.1258 22.4176 17.9881 22.4746C17.8503 22.5316 17.7252 22.6152 17.6198 22.7206C17.5143 22.826 17.4307 22.9512 17.3737 23.0889C17.3167 23.2266 17.2874 23.3742 17.2875 23.5233L22.8528 34.9508ZM19.5568 24.6571L22.8525 24.6571C22.8525 24.6571 22.8526 24.6571 22.8527 24.6571C23.1484 24.6575 23.4319 24.7752 23.6411 24.9843C23.8502 25.1935 23.9679 25.4771 23.9683 25.7729V31.5663C23.9679 31.8621 23.8502 32.1457 23.6411 32.3548C23.4319 32.564 23.1483 32.6817 22.8525 32.6821H19.5563L19.5568 24.6571Z" fill="#DA00DE" stroke="#DA00DE" stroke-width="0.3"/>
<path d="M30.5467 28.4847C30.443 28.5884 30.3846 28.7289 30.3844 28.8756C30.3844 28.8756 30.3844 28.8757 30.3844 28.8757V32.1289L30.3844 32.129M30.5467 28.4847L30.9375 32.8321C30.7511 32.832 30.5723 32.7578 30.4405 32.626C30.3087 32.4942 30.2345 32.3154 30.2344 32.129H30.3844M30.5467 28.4847C30.6504 28.381 30.791 28.3226 30.9376 28.3224C30.9376 28.3224 30.9377 28.3224 30.9377 28.3224H32.2029C32.2029 28.3224 32.203 28.3224 32.203 28.3224M30.5467 28.4847L32.203 28.3224M30.3844 32.129C30.3845 32.2756 30.4428 32.4162 30.5465 32.5199C30.6503 32.6237 30.7909 32.682 30.9376 32.6821M30.3844 32.129L30.9376 32.6821M30.9376 32.6821H32.203C32.3497 32.682 32.4904 32.6237 32.5941 32.5199C32.6978 32.4162 32.7561 32.2756 32.7562 32.1289L32.7563 28.8757L32.7562 28.8755M30.9376 32.6821L32.2031 28.1724C32.3895 28.1727 32.5682 28.2468 32.7 28.3786C32.8318 28.5104 32.906 28.6891 32.9062 28.8755H32.7562M32.7562 28.8755C32.756 28.7289 32.6976 28.5884 32.5939 28.4847C32.4902 28.381 32.3497 28.3226 32.203 28.3224M32.7562 28.8755L32.203 28.3224M30.9373 34.9509H30.9375L32.2031 34.9509L32.2033 34.9509C32.9514 34.9499 33.6685 34.6523 34.1975 34.1234C34.7265 33.5944 35.0241 32.8772 35.025 32.1292V32.129V28.8755V28.8753C35.0241 28.1272 34.7265 27.4101 34.1975 26.8811C33.6685 26.3521 32.9514 26.0546 32.2033 26.0536H32.2031L30.9375 26.0536L30.9373 26.0536C30.1892 26.0546 29.4721 26.3521 28.9431 26.8811C28.4142 27.4101 28.1166 28.1272 28.1156 28.8753V28.8755L28.1156 32.129L28.1156 32.1292C28.1166 32.8772 28.4142 33.5944 28.9431 34.1234C29.4721 34.6523 30.1892 34.9499 30.9373 34.9509Z" fill="#DA00DE" stroke="#DA00DE" stroke-width="0.3"/>
<path d="M42.9343 34.9509H42.9342H38.5039C38.2031 34.9509 37.9145 34.8314 37.7018 34.6186C37.489 34.4059 37.3695 34.1174 37.3695 33.8165C37.3695 33.5156 37.489 33.2271 37.7018 33.0144C37.9145 32.8016 38.2031 32.6821 38.5039 32.6821H42.934C43.2297 32.6817 43.5132 32.5641 43.7224 32.3551C43.9315 32.146 44.0492 31.8627 44.0498 31.5671C44.0498 31.567 44.0498 31.5669 44.0498 31.5668L44.0498 29.8046H38.504H38.5039V29.6546C38.3746 29.6546 38.2466 29.6292 38.1271 29.5798C38.0077 29.5303 37.8991 29.4578 37.8077 29.3664C37.7163 29.275 37.6438 29.1664 37.5943 29.047C37.5449 28.9275 37.5195 28.7995 37.5195 28.6702L42.9343 34.9509ZM42.9343 34.9509C43.8316 34.9499 44.6918 34.5931 45.3263 33.9586C45.9607 33.3242 46.3176 32.4639 46.3185 31.5667V31.5665V28.6703L42.9343 34.9509ZM37.3695 25.7733L37.3695 28.6701L46.1685 28.6702C46.1686 28.5409 46.1432 28.4129 46.0938 28.2934C46.0443 28.1739 45.9718 28.0654 45.8804 27.974C45.789 27.8825 45.6804 27.81 45.5609 27.7606C45.4415 27.7112 45.3134 27.6857 45.1842 27.6858V27.5358H45.1841H39.6372V25.7735C39.6375 25.4777 39.7552 25.1941 39.9644 24.9849C40.1735 24.7758 40.4571 24.6581 40.7528 24.6577C40.7529 24.6577 40.7529 24.6577 40.753 24.6577L45.183 24.6577C45.4839 24.6577 45.7724 24.5382 45.9852 24.3254C46.1979 24.1127 46.3174 23.8242 46.3174 23.5233C46.3174 23.2225 46.1979 22.9339 45.9852 22.7212C45.7724 22.5085 45.4839 22.3889 45.183 22.3889L40.7539 22.3889L40.7538 22.3889C39.8565 22.3899 38.9962 22.7467 38.3618 23.3812C37.7273 24.0156 37.3705 24.8759 37.3695 25.7732V25.7733Z" fill="#DA00DE" stroke="#DA00DE" stroke-width="0.3"/>
</g>
<defs>
<clipPath id="clip0">
<rect width="72" height="72" fill="white"/>
</clipPath>
</defs>
</svg>
