<svg width="74" height="64" viewBox="0 0 74 64" fill="none" xmlns="http://www.w3.org/2000/svg">
<path d="M71.8634 56.9148L70.6667 57.6401C66.6533 60.0725 61.9157 60.7222 57.4485 59.5L65.2672 48.8186C65.6207 48.3355 65.5159 47.6573 65.0328 47.3038C64.5502 46.9502 63.8717 47.0551 63.5182 47.5382L55.2875 58.7826C51.498 57.509 47.3481 57.4541 43.5247 58.6418L37.339 60.5636C34.3545 61.4909 31.1756 61.5744 28.1458 60.805L25.9276 60.2417L52.9248 25.165C53.1585 24.8614 53.2745 24.4835 53.2514 24.1015L53.1325 22.1205L66.4454 6.82355C69.7042 11.862 71.5444 17.6328 71.8015 23.6988C72.106 30.8857 70.1652 37.8467 66.1885 43.8294C65.8571 44.328 65.9927 45.0007 66.4913 45.3321C66.9898 45.6636 67.6624 45.5279 67.9938 45.0294C72.2257 38.6625 74.2913 31.2548 73.9672 23.607C73.642 15.9368 70.9392 8.71002 66.1506 2.70754L65.1415 1.44262C64.678 0.861529 63.986 0.520478 63.2428 0.506605C62.5 0.493744 61.795 0.808203 61.3106 1.37195L51.1287 13.2132C50.705 13.7063 50.4932 14.335 50.5321 14.9838L51.018 23.0755L45.6443 22.7746C45.6443 22.7746 45.6443 22.7746 45.6441 22.7746L39.7843 22.4466C39.1389 22.41 38.5222 22.6915 38.1257 23.198L37.5018 23.9953L32.1135 23.6936C31.4722 23.6579 30.8516 23.9384 30.4554 24.4446L30.1558 24.827L8.48074 7.51895C8.25616 7.33961 7.96916 7.25724 7.68375 7.28874C7.39805 7.32082 7.13691 7.4649 6.95757 7.68962L0.88803 15.2907C0.536141 15.7312 0.377032 16.2822 0.439751 16.8425C0.502614 17.4026 0.77979 17.9048 1.22012 18.2565L6.36594 22.3655C6.7434 22.6671 7.20238 22.8271 7.67869 22.8271C7.75803 22.8271 7.8378 22.8227 7.91757 22.8138C8.47785 22.7509 8.98017 22.4737 9.33163 22.0334L14.725 15.2791L28.8192 26.5335L25.8617 30.3096L17.4251 25.5014C16.218 24.8135 14.7152 25.1039 13.8514 26.1913L10.4617 30.4575C9.59768 31.5448 9.65462 33.0745 10.5973 34.0946L17.2547 41.299L2.13243 60.6071L0.871555 60.8592C0.284544 60.9767 -0.0961031 61.5477 0.0212414 62.1346C0.13873 62.7216 0.709701 63.1024 1.29657 62.9849L12.4258 60.7591C14.8903 60.2662 17.4801 60.3328 19.9158 60.9513L27.6121 62.9058C29.1571 63.2982 30.7364 63.494 32.3147 63.494C34.2269 63.494 36.1375 63.2066 37.982 62.6334L44.1678 60.7117C47.7474 59.5995 51.6506 59.7144 55.1588 61.0351C60.6817 63.1141 66.7436 62.5525 71.7904 59.4939L72.9871 58.7686C73.499 58.4583 73.6624 57.7918 73.3521 57.2799C73.0419 56.7682 72.3757 56.6048 71.8634 56.9148ZM7.67392 20.636L2.6177 16.5986L7.97509 9.88925L13.0313 13.9267L7.67392 20.636ZM52.7725 14.6261L62.9539 2.78514C63.0391 2.68586 63.1449 2.67343 63.2024 2.67372C63.2586 2.67473 63.365 2.69178 63.4467 2.7941L64.4558 4.05902C64.6997 4.36481 64.9369 4.67465 65.1693 4.98723L52.9466 19.0314L52.6958 14.8537C52.691 14.7705 52.7182 14.6894 52.7725 14.6261ZM12.159 31.8059L15.5487 27.5398C15.7428 27.2955 16.0808 27.2302 16.3519 27.3847L18.3989 28.5514L13.7886 34.3538L12.1894 32.6233C11.9775 32.3942 11.9649 32.0504 12.159 31.8059ZM15.2772 35.9647L20.3046 29.6375L24.5108 32.0348L18.6089 39.5703L15.2772 35.9647ZM13.3187 58.4202L18.0913 52.3205C18.4602 51.8491 18.3771 51.1679 17.9057 50.7991C17.4342 50.4303 16.7531 50.5133 16.3841 50.9848L10.2036 58.8839C10.1721 58.9242 10.1449 58.9666 10.1201 59.0096L5.39727 59.9542L32.0975 25.8638L35.8745 26.0753L19.2331 47.3435C18.8643 47.8149 18.9474 48.4962 19.4188 48.865C19.617 49.02 19.8523 49.0953 20.086 49.0953C20.408 49.0953 20.7266 48.9525 20.9404 48.6793L39.7681 24.6167L43.4491 24.8228L40.9857 27.9964C40.6187 28.4693 40.7045 29.1501 41.1774 29.5171C41.3749 29.6706 41.6089 29.7449 41.8413 29.7449C42.1645 29.7449 42.4845 29.6007 42.6982 29.3255L46.079 24.97L50.163 25.1987L40.2324 38.1016L37.4861 36.0409L39.8639 32.9774C40.2309 32.5045 40.1451 31.8236 39.6723 31.4566C39.1994 31.0897 38.5189 31.1754 38.1516 31.6483L35.6771 34.8365C35.3435 35.2662 35.1999 35.7995 35.2723 36.3384C35.3447 36.8773 35.6242 37.3539 36.059 37.6802L38.9102 39.8196L23.6393 59.6605L20.4492 58.8504C18.1328 58.2619 15.6929 58.1183 13.3187 58.4202Z" fill="#DA00DE"/>
<path d="M32.1602 40.7115C32.3612 40.8746 32.6028 40.9541 32.843 40.9541C33.1582 40.9541 33.4708 40.8174 33.6849 40.5536L34.3829 39.6945C34.7603 39.2299 34.6897 38.5474 34.2251 38.1699C33.7602 37.7924 33.0777 37.8631 32.7004 38.3277L32.0024 39.1869C31.6251 39.6515 31.6956 40.334 32.1602 40.7115Z" fill="#DA00DE"/>
<path d="M28.7803 44.8318C28.9813 44.9949 29.2229 45.0744 29.4631 45.0744C29.7783 45.0744 30.0909 44.9377 30.3051 44.674L31.0031 43.8148C31.3804 43.3502 31.3099 42.6677 30.8452 42.2902C30.3803 41.9126 29.698 41.9834 29.3205 42.448L28.6225 43.3071C28.2452 43.7718 28.3157 44.4544 28.7803 44.8318Z" fill="#DA00DE"/>
<path d="M25.4004 48.9522C25.6014 49.1153 25.8431 49.1948 26.0832 49.1948C26.3984 49.1948 26.711 49.0581 26.9252 48.7944L27.6232 47.9352C28.0005 47.4706 27.93 46.7881 27.4654 46.4106C27.0005 46.0332 26.3181 46.1038 25.9406 46.5684L25.2426 47.4276C24.8653 47.8922 24.9358 48.5747 25.4004 48.9522Z" fill="#DA00DE"/>
<path d="M24.2433 52.0553C24.6207 51.5908 24.5502 50.9082 24.0856 50.5307C23.6208 50.1532 22.9385 50.2237 22.561 50.6884L21.8628 51.5475C21.4854 52.0119 21.5559 52.6946 22.0205 53.0721C22.2215 53.2354 22.4632 53.3147 22.7033 53.3147C23.0185 53.3147 23.331 53.178 23.5451 52.9143L24.2433 52.0553Z" fill="#DA00DE"/>
<path d="M20.7057 54.6511C20.241 54.2735 19.5586 54.3442 19.1811 54.8088L18.483 55.6679C18.1055 56.1324 18.176 56.815 18.6406 57.1925C18.8416 57.3558 19.0833 57.4351 19.3234 57.4351C19.6386 57.4351 19.9511 57.2984 20.1652 57.0347L20.8634 56.1756C21.2408 55.7113 21.1703 55.0286 20.7057 54.6511Z" fill="#DA00DE"/>
<path d="M64.9249 27.4053C64.9249 25.275 63.1918 23.5419 61.0615 23.5419C58.9312 23.5419 57.1982 25.275 57.1982 27.4053C57.1982 29.5355 58.9312 31.2687 61.0615 31.2687C63.1918 31.2687 64.9249 29.5355 64.9249 27.4053ZM59.3658 27.4053C59.3658 26.4703 60.1265 25.7096 61.0614 25.7096C61.9965 25.7096 62.7571 26.4703 62.7571 27.4053C62.7571 28.3403 61.9964 29.101 61.0614 29.101C60.1265 29.101 59.3658 28.3403 59.3658 27.4053Z" fill="#DA00DE"/>
<path d="M58.5344 36.7318C58.5344 34.6016 56.8013 32.8684 54.671 32.8684C52.5408 32.8684 50.8076 34.6016 50.8076 36.7318C50.8076 38.8621 52.5408 40.5952 54.671 40.5952C56.8013 40.5952 58.5344 38.8621 58.5344 36.7318ZM52.9752 36.7318C52.9752 35.7968 53.7359 35.0361 54.6709 35.0361C55.6059 35.0361 56.3666 35.7968 56.3666 36.7318C56.3666 37.6668 55.6059 38.4275 54.6709 38.4275C53.7359 38.4275 52.9752 37.6668 52.9752 36.7318Z" fill="#DA00DE"/>
<path d="M48.2803 42.1949C46.15 42.1949 44.417 43.9281 44.417 46.0583C44.417 48.1886 46.15 49.9218 48.2803 49.9218C50.4105 49.9218 52.1437 48.1886 52.1437 46.0583C52.1437 43.9281 50.4107 42.1949 48.2803 42.1949ZM48.2803 47.7541C47.3453 47.7541 46.5847 46.9933 46.5847 46.0583C46.5847 45.1234 47.3454 44.3626 48.2803 44.3626C49.2154 44.3626 49.976 45.1234 49.976 46.0583C49.976 46.9933 49.2154 47.7541 48.2803 47.7541Z" fill="#DA00DE"/>
</svg>
