<svg width="74" height="74" viewBox="0 0 74 74" fill="none" xmlns="http://www.w3.org/2000/svg">
<path d="M70.2157 38.2817L64.7421 32.8082C64.8393 32.4613 64.8923 32.0962 64.8923 31.7189V23.315C64.8923 22.5167 64.2451 21.8697 63.447 21.8697H53.7712L43.5808 0.815687C43.3699 0.379926 42.9548 0.0787235 42.4753 0.013251C41.9956 -0.052077 41.5149 0.126852 41.1952 0.490203L30.8941 12.1913L21.2948 8.6974C20.9348 8.56631 20.5373 8.5835 20.1898 8.74567C19.8424 8.90769 19.5735 9.20094 19.4425 9.56126L16.5682 17.4581C16.3698 18.003 16.2929 18.5718 16.3335 19.1333L14.6113 20.0156C10.7828 21.9772 7.864 25.2836 6.39282 29.3259L0.931429 44.3312C-0.135787 47.263 0.00267324 50.4351 1.32123 53.2629C2.63979 56.0908 4.98061 58.2357 7.91256 59.3028L23.5554 64.9964C24.3809 65.2969 25.2243 65.4403 26.0529 65.4403C28.7788 65.4401 31.3439 63.889 32.5703 61.273L35.335 55.3753V62.3191C35.335 68.7598 40.5751 74 47.0159 74H58.7139C65.1546 74 70.3948 68.7598 70.3948 62.3191V56.3899C72.463 54.6473 73.7802 52.0404 73.7802 49.1307V46.888C73.7804 43.637 72.5144 40.5805 70.2157 38.2817ZM52.866 24.7607C52.8682 24.7607 52.8702 24.7604 52.8724 24.7604H62.0017V27.3724H53.9377C53.1396 27.3724 52.4924 28.0195 52.4924 28.8177C52.4924 29.6159 53.1396 30.263 53.9377 30.263H62.0017V31.719C62.0017 32.3565 61.4831 32.8751 60.8457 32.8751H44.8845C44.2469 32.8751 43.7284 32.3565 43.7284 31.719V24.7604H52.861C52.8627 24.7604 52.8643 24.7607 52.866 24.7607ZM41.9269 4.03367L50.5599 21.8698H42.2832C41.4851 21.8698 40.8379 22.5169 40.8379 23.3151V31.3324L38.6589 26.6594C38.8705 26.3633 39.0441 26.0371 39.1719 25.6857L42.0462 17.7885C42.3193 17.0386 41.9326 16.2091 41.1823 15.9361L33.8108 13.253L41.9269 4.03367ZM19.2841 18.4469L19.9753 16.548L28.7745 19.7507C28.9376 19.8101 29.1044 19.8383 29.2686 19.8383C29.859 19.8383 30.4133 19.4738 30.6268 18.8868C30.8999 18.1367 30.5132 17.3074 29.7629 17.0344L20.9637 13.8319L21.6641 11.9081L38.8354 18.158L36.4554 24.697C36.3499 24.987 36.1376 25.2187 35.8578 25.3492C35.5777 25.4798 35.2643 25.4938 34.9737 25.3878L19.9751 19.9288C19.685 19.8232 19.4534 19.6108 19.3229 19.331C19.1923 19.051 19.1786 18.7372 19.2841 18.4469ZM35.3352 48.5654L29.9531 60.0461C28.9936 62.0929 26.6681 63.0526 24.5442 62.2801L8.9013 56.5866C6.69489 55.7834 4.93335 54.1693 3.94114 52.0414C2.94894 49.9134 2.84459 47.5264 3.64774 45.3198L9.10899 30.3149C10.33 26.9603 12.7522 24.2164 15.9293 22.5886L17.5584 21.7539C17.9612 22.1433 18.4443 22.4479 18.9865 22.6454L33.9851 28.1044C34.4367 28.2688 34.9047 28.3507 35.3716 28.3507C35.6547 28.3507 35.9373 28.3199 36.2155 28.26L38.5995 33.3727C38.9016 34.0205 39.1519 34.6953 39.3468 35.3863C36.7542 38.452 35.3352 42.3152 35.3352 46.3513V48.5654ZM70.8899 49.1307C70.8898 52.7708 67.9285 55.7321 64.2885 55.7321H61.9297C59.9233 55.7321 58.2911 54.0999 58.2911 52.0935C58.2911 50.0873 59.9233 48.4551 61.9297 48.4551H64.5304C65.3285 48.4551 65.9757 47.8079 65.9757 47.0098C65.9757 46.2117 65.3285 45.5645 64.5304 45.5645H61.9297C58.3296 45.5645 55.4005 48.4934 55.4005 52.0935C55.4005 55.6937 58.3296 58.6227 61.9297 58.6227H64.2885C65.417 58.6227 66.4995 58.4239 67.5043 58.0609V62.3191C67.5043 67.1661 63.561 71.1093 58.714 71.1093H47.016C42.169 71.1093 38.2258 67.1661 38.2258 62.3191V46.3509C38.2258 42.7811 39.5634 39.3742 41.9924 36.7578L43.2393 35.4145C43.7424 35.6394 44.2988 35.7654 44.8845 35.7654H60.8457C61.634 35.7654 62.3698 35.5381 62.9926 35.1466L68.1717 40.3255C69.9246 42.0783 70.8899 44.4088 70.8899 46.8877V49.1307Z" fill="#DA00DE"/>
</svg>
