<svg width="12" height="13" viewBox="0 0 12 13" fill="none" xmlns="http://www.w3.org/2000/svg">
<g clip-path="url(#clip0)">
<path d="M11.9966 12.3108V12.3103H11.9996V7.90934C11.9996 5.75634 11.5361 4.09784 9.01914 4.09784C7.80914 4.09784 6.99714 4.76184 6.66564 5.39134H6.63064V4.29884H4.24414V12.3103H6.72914V8.34334C6.72914 7.29884 6.92714 6.28884 8.22064 6.28884C9.49514 6.28884 9.51414 7.48084 9.51414 8.41034V12.3108H11.9966Z" fill="white"/>
<path d="M0.198242 4.29938H2.68624V12.3109H0.198242V4.29938Z" fill="white"/>
<path d="M1.441 0.310852C0.6455 0.310852 0 0.956352 0 1.75185C0 2.54735 0.6455 3.20635 1.441 3.20635C2.2365 3.20635 2.882 2.54735 2.882 1.75185C2.8815 0.956352 2.236 0.310852 1.441 0.310852V0.310852Z" fill="white"/>
</g>
<defs>
<clipPath id="clip0">
<rect width="12" height="12" fill="white" transform="translate(0 0.310852)"/>
</clipPath>
</defs>
</svg>
