<svg width="144" height="41" viewBox="0 0 144 41" fill="none" xmlns="http://www.w3.org/2000/svg">
<path fill-rule="evenodd" clip-rule="evenodd" d="M83.0872 29.1667C88.1561 29.1667 92.2654 25.0461 92.2654 19.963C92.2654 14.88 88.1561 10.7594 83.0872 10.7594C78.0182 10.7594 73.909 14.88 73.909 19.963C73.909 25.0461 78.0182 29.1667 83.0872 29.1667ZM83.0872 31.7963C89.6044 31.7963 94.8877 26.4984 94.8877 19.963C94.8877 13.4277 89.6044 8.12974 83.0872 8.12974C76.5699 8.12974 71.2866 13.4277 71.2866 19.963C71.2866 26.4984 76.5699 31.7963 83.0872 31.7963Z" fill="white"/>
<path fill-rule="evenodd" clip-rule="evenodd" d="M56.8638 29.1667C61.9328 29.1667 66.042 25.0461 66.042 19.963C66.042 14.88 61.9328 10.7594 56.8638 10.7594C51.7948 10.7594 47.6856 14.88 47.6856 19.963C47.6856 25.0461 51.7948 29.1667 56.8638 29.1667ZM56.8638 31.7963C63.381 31.7963 68.6643 26.4984 68.6643 19.963C68.6643 13.4277 63.381 8.12974 56.8638 8.12974C50.3465 8.12974 45.0633 13.4277 45.0633 19.963C45.0633 26.4984 50.3465 31.7963 56.8638 31.7963Z" fill="white"/>
<path fill-rule="evenodd" clip-rule="evenodd" d="M109.311 10.7594C104.242 10.7594 100.132 14.88 100.132 19.963C100.132 25.0461 104.242 29.1667 109.311 29.1667C111.871 29.1667 114.184 28.1174 115.85 26.421L117.718 28.2662C115.58 30.4438 112.601 31.7963 109.311 31.7963C102.793 31.7963 97.51 26.4984 97.51 19.963C97.51 13.4277 102.793 8.12974 109.311 8.12974C112.601 8.12974 115.58 9.48226 117.718 11.6599L115.85 13.5051C114.184 11.8087 111.871 10.7594 109.311 10.7594Z" fill="white"/>
<path fill-rule="evenodd" clip-rule="evenodd" d="M45.0633 41V8.12974H47.6856V41H45.0633Z" fill="white"/>
<path fill-rule="evenodd" clip-rule="evenodd" d="M92.2654 31.7963V8.12974H94.8877V31.7963H92.2654Z" fill="white"/>
<path fill-rule="evenodd" clip-rule="evenodd" d="M132.912 10.7594C127.843 10.7594 123.733 14.88 123.733 19.963C123.733 25.0461 127.843 29.1667 132.912 29.1667C135.472 29.1667 137.785 28.1174 139.451 26.421L141.319 28.2662C139.181 30.4438 136.202 31.7963 132.912 31.7963C126.394 31.7963 121.111 26.4984 121.111 19.963C121.111 13.4277 126.394 8.12974 132.912 8.12974C137.983 8.12974 142.305 11.3376 143.974 15.836L141.517 16.7532C140.217 13.2508 136.853 10.7594 132.912 10.7594Z" fill="white"/>
<path d="M127.998 21.8899L142.689 13.3845L144 15.6618L129.309 24.1672L127.998 21.8899Z" fill="white"/>
<path d="M29.3292 18.6482H39.8186V21.2778H29.3292V18.6482Z" fill="white"/>
<path d="M16.8384 23.0715C16.8384 21.9839 16.4511 21.1365 15.6764 20.5291C14.9158 19.9218 13.5707 19.2933 11.6411 18.6436C9.71149 17.9939 8.13399 17.3654 6.90861 16.7581C2.9226 14.7948 0.929599 12.0972 0.929599 8.66504C0.929599 6.95604 1.42257 5.45184 2.40851 4.15244C3.40853 2.83891 4.81701 1.82199 6.63395 1.10167C8.4509 0.367222 10.4932 0 12.7609 0C14.9722 0 16.9511 0.39547 18.6976 1.18641C20.4582 1.97735 21.8244 3.10727 22.7963 4.57616C23.7681 6.03092 24.2541 7.69755 24.2541 9.57603H16.8595C16.8595 8.319 16.4722 7.34445 15.6975 6.65238C14.937 5.9603 13.9017 5.61427 12.5918 5.61427C11.2679 5.61427 10.2185 5.91087 9.44388 6.50407C8.6833 7.08316 8.30301 7.82466 8.30301 8.72859C8.30301 9.51954 8.72555 10.2399 9.57064 10.8896C10.4157 11.5251 11.9017 12.189 14.0285 12.881C16.1553 13.559 17.9018 14.2934 19.268 15.0844C22.5921 17.0052 24.2541 19.6535 24.2541 23.0291C24.2541 25.7268 23.24 27.8453 21.2118 29.3849C19.1835 30.9244 16.4018 31.6941 12.8665 31.6941C10.3735 31.6941 8.11286 31.2492 6.08465 30.3594C4.07052 29.4555 2.54935 28.2267 1.52116 26.6731C0.507054 25.1053 0 23.3045 0 21.2707H7.43679C7.43679 22.9232 7.85933 24.1449 8.70442 24.9358C9.5636 25.7126 10.951 26.101 12.8665 26.101C14.0919 26.101 15.0567 25.8397 15.7609 25.3172C16.4792 24.7805 16.8384 24.0319 16.8384 23.0715Z" fill="white"/>
</svg>
