<svg width="14" height="18" viewBox="0 0 14 18" fill="none" xmlns="http://www.w3.org/2000/svg">
<path d="M3.23075 7.28783C4.27684 10.0568 5.10458 11.2432 7.36948 13.2197L9.80706 11.6347C10.8012 12.094 12.0505 12.7023 13.1103 12.9019C13.4638 12.9672 13.7479 13.3761 13.693 13.704L13.0592 16.7866C12.9903 17.1277 12.5681 17.4022 12.2043 17.3538C3.38332 15.6718 -0.740249 9.76149 0.661342 1.16341C0.697302 0.827685 1.11947 0.553169 1.47273 0.61969L4.96954 1.29268C5.35848 1.35257 5.64287 1.76016 5.68563 1.98391C5.36732 3.12448 5.59596 4.63446 5.66821 5.70347L3.23075 7.28783Z" fill="white"/>
</svg>
