<svg width="12" height="11" viewBox="0 0 12 11" fill="none" xmlns="http://www.w3.org/2000/svg">
<path d="M12 1.5901C11.5538 1.78585 11.0782 1.9156 10.5825 1.9786C11.0925 1.6741 11.4818 1.1956 11.6648 0.618852C11.1892 0.902352 10.6642 1.1026 10.1047 1.21435C9.65325 0.733602 9.00975 0.435852 8.30775 0.435852C6.94575 0.435852 5.84925 1.54135 5.84925 2.8966C5.84925 3.0916 5.86575 3.2791 5.90625 3.4576C3.861 3.35785 2.05125 2.3776 0.8355 0.884352C0.62325 1.2526 0.49875 1.6741 0.49875 2.12785C0.49875 2.97985 0.9375 3.7351 1.5915 4.17235C1.19625 4.16485 0.8085 4.0501 0.48 3.86935C0.48 3.87685 0.48 3.8866 0.48 3.89635C0.48 5.09185 1.33275 6.08485 2.451 6.3136C2.25075 6.36835 2.0325 6.3946 1.806 6.3946C1.6485 6.3946 1.4895 6.3856 1.34025 6.3526C1.659 7.32685 2.5635 8.0431 3.639 8.06635C2.802 8.7211 1.73925 9.1156 0.58875 9.1156C0.387 9.1156 0.1935 9.1066 0 9.08185C1.08975 9.7846 2.38125 10.1859 3.774 10.1859C8.301 10.1859 10.776 6.43585 10.776 3.18535C10.776 3.0766 10.7723 2.9716 10.767 2.86735C11.2552 2.52085 11.6655 2.0881 12 1.5901Z" fill="white"/>
</svg>
