<svg width="48" height="38" viewBox="0 0 48 38" fill="none" xmlns="http://www.w3.org/2000/svg">
<path fill-rule="evenodd" clip-rule="evenodd" d="M10.2384 3.73713L0.858398 0.958825L1.1424 0L10.7942 2.85882L11.066 2.93934L11.1365 3.21394L17.2358 26.9794H41.6308V27.9794H16.8479H16.4601L16.3636 27.6037L10.2384 3.73713ZM46.3121 7.65H15.1919V6.65H47.0004H47.6887L47.4759 7.30458L42.5193 22.5516L42.407 22.8971H42.0438H19.3224V21.8971H41.6806L46.3121 7.65ZM37.5004 36.4794C36.1197 36.4794 35.0004 35.3601 35.0004 33.9794C35.0004 32.5987 36.1197 31.4794 37.5004 31.4794C38.8811 31.4794 40.0004 32.5987 40.0004 33.9794C40.0004 35.3601 38.8811 36.4794 37.5004 36.4794ZM37.5004 37.4794C35.5674 37.4794 34.0004 35.9124 34.0004 33.9794C34.0004 32.0464 35.5674 30.4794 37.5004 30.4794C39.4334 30.4794 41.0004 32.0464 41.0004 33.9794C41.0004 35.9124 39.4334 37.4794 37.5004 37.4794ZM19.0004 33.9794C19.0004 35.3601 20.1197 36.4794 21.5004 36.4794C22.8811 36.4794 24.0004 35.3601 24.0004 33.9794C24.0004 32.5987 22.8811 31.4794 21.5004 31.4794C20.1197 31.4794 19.0004 32.5987 19.0004 33.9794ZM18.0004 33.9794C18.0004 35.9124 19.5674 37.4794 21.5004 37.4794C23.4334 37.4794 25.0004 35.9124 25.0004 33.9794C25.0004 32.0464 23.4334 30.4794 21.5004 30.4794C19.5674 30.4794 18.0004 32.0464 18.0004 33.9794Z" fill="#FF0000"/>
</svg>
