<svg width="16" height="14" viewBox="0 0 16 14" fill="none" xmlns="http://www.w3.org/2000/svg">
<path d="M1.03224 10.3916C1.03223 10.3915 1.03201 10.3923 1.03164 10.394L1.03224 10.3916ZM1.02364 10.4589C1.01884 10.525 1.0189 10.6214 1.02965 10.7446C1.05226 11.0034 1.1193 11.3484 1.25712 11.7238C1.35125 11.9802 1.67985 12.3173 2.15309 12.6198C2.6188 12.9174 3.07855 13.0891 3.29677 13.1099C3.46761 13.1262 3.65852 13.1801 3.81394 13.2239C3.85868 13.2366 3.90048 13.2484 3.93801 13.2582C4.13587 13.31 4.36986 13.3586 4.689 13.367C5.33414 13.384 6.37977 13.2376 8.19422 12.5274C9.93332 11.8466 11.4361 10.4943 12.5548 9.13756C13.6822 7.77016 14.3596 6.47271 14.4992 5.96852C14.5627 5.73883 14.6155 5.56304 14.6567 5.42552C14.6704 5.37989 14.6828 5.33848 14.694 5.30071C14.7392 5.14731 14.7627 5.05547 14.7784 4.95384C14.8127 4.73092 14.8145 4.43908 14.8145 3.52873C14.8145 2.05441 14.0951 1.30277 13.7341 0.925631C13.712 0.902516 13.6912 0.880809 13.672 0.860428C13.5954 0.779076 13.4336 0.696454 13.2295 0.63403C13.1373 0.605814 13.0527 0.586557 12.9914 0.574467C12.9611 0.568479 12.9372 0.564397 12.9219 0.561938L12.9058 0.559462L12.9033 0.559113L12.9032 0.559106L12.9031 0.559088L12.9031 0.55908L12.8967 0.558251L12.8891 0.557023L12.8891 0.557018L12.8891 0.557016L12.8891 0.557014L12.889 0.557008L12.8886 0.556935L12.886 0.556518L12.8747 0.554746L12.8311 0.548108C12.7936 0.542536 12.7417 0.535118 12.6839 0.527735C12.5601 0.51194 12.4376 0.500065 12.3669 0.500065C12.2593 0.500065 12.2575 0.50372 12.2565 0.505632C12.2564 0.505865 12.2563 0.506073 12.256 0.506244C12.244 0.513579 12.1474 0.579379 12.0138 0.892329C11.9054 1.15025 11.7454 1.53921 11.579 1.94354C11.5115 2.10764 11.443 2.27427 11.3764 2.4357C11.1552 2.97234 10.9377 3.49707 10.8754 3.61477C10.8469 3.66849 10.838 3.70268 10.8359 3.72375C10.8344 3.7387 10.8344 3.7604 10.8529 3.79899C10.8614 3.81684 10.8695 3.83388 10.8773 3.85017C10.9787 4.06285 11.0202 4.14986 11.142 4.29309C11.211 4.37431 11.2742 4.45146 11.3329 4.52316C11.4544 4.67143 11.5568 4.79643 11.6523 4.88604L11.6582 4.89155L11.6639 4.89726C11.6673 4.90063 11.6708 4.90417 11.6746 4.90787C11.757 4.98995 11.9213 5.15364 12.005 5.3794C12.1099 5.66235 12.0673 5.9591 11.8998 6.24386L11.8999 6.24392L11.8942 6.2531L11.8893 6.2611C11.6595 6.63323 10.9014 7.86079 9.77345 8.86714C8.53568 9.97263 7.43425 10.4395 6.93459 10.6513C6.84854 10.6878 6.78034 10.7167 6.73236 10.74C6.51548 10.8454 6.26407 10.9312 5.99564 10.8972C5.70598 10.8607 5.49739 10.6994 5.34424 10.5233C5.14098 10.2895 4.41976 9.44979 4.15583 9.05963L4.15575 9.05969L4.15019 9.0511C4.1391 9.03396 4.12979 9.02134 4.12248 9.01225C4.11704 9.01325 4.11073 9.01452 4.10349 9.01615C4.0594 9.0261 4.00451 9.04336 3.92166 9.07181C3.78679 9.12022 3.29005 9.35134 2.74299 9.61339C2.20984 9.86878 1.6737 10.1316 1.49734 10.2198C1.41559 10.2607 1.34762 10.2936 1.28861 10.3222C1.20002 10.3651 1.13164 10.3983 1.06719 10.4338C1.04963 10.4434 1.03527 10.4518 1.02364 10.4589Z" stroke="#C4C4C4"/>
</svg>
