<svg width="16" height="16" viewBox="0 0 16 16" fill="none" xmlns="http://www.w3.org/2000/svg">
<path fill-rule="evenodd" clip-rule="evenodd" d="M7.95329 14.7861C12.019 14.7861 15.3145 11.5168 15.3145 7.4826C15.3145 3.44313 12.019 0.173828 7.94805 0.173828C3.88239 0.173828 0.586895 3.44313 0.586895 7.4826C0.586895 8.86052 0.9746 10.1546 1.64523 11.2549L0.314453 15.1738L4.39584 13.8745C5.44893 14.4561 6.66444 14.7861 7.95329 14.7861ZM1.75525 7.47736C1.75525 4.09279 4.53206 1.33694 7.94805 1.33694C11.3641 1.33694 14.1409 4.09279 14.1304 7.47736C14.1304 10.8619 11.3536 13.6178 7.94282 13.6178C6.68539 13.6178 5.51704 13.2405 4.5373 12.6014L2.15867 13.3558L2.93408 11.0767C2.19535 10.0656 1.75525 8.81861 1.75525 7.47736ZM11.3697 9.06548C11.341 9.05151 11.3102 9.03655 11.2774 9.02018C11.0993 8.93111 10.2086 8.49625 10.0462 8.43862C9.87855 8.38099 9.75804 8.34955 9.64278 8.52769C9.52228 8.70582 9.17649 9.10924 9.0717 9.22975C8.96692 9.35025 8.86213 9.36597 8.67876 9.2769C8.65017 9.26302 8.61191 9.24671 8.56509 9.22676C8.31153 9.11872 7.80684 8.90367 7.22748 8.38622C6.6951 7.91126 6.33431 7.3271 6.22281 7.14656L6.22154 7.14452C6.11676 6.96639 6.21107 6.86684 6.30013 6.77777C6.35985 6.72179 6.42754 6.63922 6.49374 6.55847C6.52047 6.52587 6.54695 6.49356 6.57257 6.46342C6.65442 6.36713 6.6876 6.29738 6.73716 6.1932C6.74154 6.18401 6.74604 6.17455 6.75071 6.16478C6.80834 6.04428 6.78214 5.93949 6.73499 5.85042C6.70464 5.7931 6.54623 5.40802 6.39667 5.04446C6.31387 4.84317 6.23377 4.64848 6.17963 4.51965C6.03187 4.17317 5.88906 4.17356 5.78494 4.17384C5.782 4.17385 5.77909 4.17386 5.77621 4.17386C5.67142 4.17386 5.47757 4.2053 5.47757 4.2053C5.47757 4.2053 5.11606 4.25245 4.9484 4.43058C4.93905 4.44053 4.92876 4.45127 4.91768 4.46284C4.73015 4.65864 4.31445 5.0927 4.31445 5.92377C4.31445 6.80397 4.95888 7.65797 5.05319 7.77323C5.05944 7.78169 5.07095 7.79874 5.08759 7.82338C5.30809 8.14986 6.42882 9.80928 8.13387 10.4767C9.65408 11.0717 9.91401 11.0078 10.1465 10.9507C10.1945 10.9389 10.2413 10.9274 10.2977 10.922C10.6278 10.8906 11.3665 10.4872 11.5184 10.0733C11.6704 9.65936 11.6704 9.3031 11.6232 9.22975C11.5847 9.16988 11.4974 9.12747 11.3697 9.06548Z" fill="#C4C4C4"/>
</svg>
