<svg width="17" height="17" viewBox="0 0 17 17" fill="none" xmlns="http://www.w3.org/2000/svg">
<path fill-rule="evenodd" clip-rule="evenodd" d="M8.5 16C10.4907 16 12.3003 15.2244 13.643 13.9589C13.5346 13.2871 13.0569 12.6338 12.2374 12.109C11.3039 11.5111 9.98396 11.125 8.50016 11.125C7.01636 11.125 5.6964 11.5111 4.76288 12.109C3.94335 12.6338 3.46561 13.2873 3.35725 13.9592C4.69995 15.2245 6.50941 16 8.5 16ZM12.7768 11.2669C13.5201 11.7429 14.1143 12.3674 14.4265 13.0969C15.4128 11.8272 16 10.2322 16 8.5C16 4.35786 12.6421 1 8.5 1C4.35786 1 1 4.35786 1 8.5C1 10.2323 1.58732 11.8275 2.57369 13.0972C2.88591 12.3676 3.48017 11.743 4.22357 11.2669C4.85996 10.8593 5.62479 10.5456 6.46938 10.351C5.57993 9.71641 5 8.67593 5 7.5C5 5.567 6.567 4 8.5 4C10.433 4 12 5.567 12 7.5C12 8.67589 11.4201 9.71634 10.5307 10.351C11.3754 10.5455 12.1403 10.8593 12.7768 11.2669ZM8.5 17C13.1944 17 17 13.1944 17 8.5C17 3.80558 13.1944 0 8.5 0C3.80558 0 0 3.80558 0 8.5C0 13.1944 3.80558 17 8.5 17ZM11 7.5C11 8.88071 9.88071 10 8.5 10C7.11929 10 6 8.88071 6 7.5C6 6.11929 7.11929 5 8.5 5C9.88071 5 11 6.11929 11 7.5Z" fill="black"/>
</svg>
