<?xml version="1.0" encoding="utf-8"?>
<!-- Generator: Adobe Illustrator 22.1.0, SVG Export Plug-In . SVG Version: 6.00 Build 0)  -->
<svg version="1.1" xmlns="http://www.w3.org/2000/svg" xmlns:xlink="http://www.w3.org/1999/xlink" x="0px" y="0px"
	 viewBox="0 0 29 12" enable-background="new 0 0 29 12" xml:space="preserve">
<g id="Rounded_Rectangle_4_1_" enable-background="new    ">
	<g id="Rounded_Rectangle_4">
		<g>
			<path fill-rule="evenodd" clip-rule="evenodd" fill="#FFFFFF" d="M14.4,0.4c-0.3-0.4-0.9-0.5-1.4-0.2l-12.7,10
				c-0.4,0.3-0.5,0.9-0.2,1.4C0.5,12,1.1,12,1.6,11.7l12.7-10C14.7,1.4,14.7,0.8,14.4,0.4z"/>
		</g>
	</g>
</g>
<g id="Rounded_Rectangle_4_copy_5_1_" enable-background="new    ">
	<g id="Rounded_Rectangle_4_copy_5">
		<g>
			<path fill-rule="evenodd" clip-rule="evenodd" fill="#FFFFFF" d="M27.6,10.3L14.9,0.4c-0.4-0.3-1-0.2-1.4,0.2
				c-0.3,0.4-0.2,1,0.2,1.4l12.8,9.9c0.4,0.3,1,0.2,1.4-0.2C28.1,11.2,28.1,10.6,27.6,10.3z"/>
		</g>
	</g>
</g>
</svg>
