<?xml version="1.0" encoding="utf-8"?>
<!-- Generator: Adobe Illustrator 22.1.0, SVG Export Plug-In . SVG Version: 6.00 Build 0)  -->
<svg version="1.1" id="Forma_1_1_" xmlns="http://www.w3.org/2000/svg" xmlns:xlink="http://www.w3.org/1999/xlink" x="0px" y="0px"
	 viewBox="0 0 40 40" enable-background="new 0 0 40 40" xml:space="preserve">
<g id="Forma_1">
	<g>
		<path fill-rule="evenodd" clip-rule="evenodd" fill="#FFFFFF" d="M19.7,24.4c2.6,0,4.6-2,4.6-4.5c0-2.5-2.1-4.5-4.6-4.5
			c-2.6,0-4.6,2-4.6,4.5C15,22.4,17.1,24.4,19.7,24.4z M26.8,20.2c0,3.8-3.2,6.9-7.2,6.9c-4,0-7.2-3.1-7.2-6.9c0-0.7,0.1-1.3,0.3-2
			h-2.1V28c0,0.5,0.4,0.9,0.9,0.9h16.1c0.5,0,0.9-0.4,0.9-0.9v-9.7h-2C26.7,18.9,26.8,19.5,26.8,20.2z M24.9,15.6h2.6
			c0.6,0,1-0.5,1-1v-2.5c0-0.6-0.5-1-1-1h-2.6c-0.6,0-1,0.5-1,1v2.5C23.9,15.1,24.3,15.6,24.9,15.6z M19.8,0.4C8.9,0.4,0,9.3,0,20.2
			S8.9,40,19.8,40s19.8-8.9,19.8-19.8S30.8,0.4,19.8,0.4z M31.2,28.6c0,1.8-1.3,3-3,3H11.1c-1.6,0-3-1.2-3-3V11.4c0-1.8,1.3-3,3-3
			h17.2c1.6,0,3,1.2,3,3V28.6z"/>
	</g>
</g>
</svg>
