<?xml version="1.0" encoding="utf-8"?>
<!-- Generator: Adobe Illustrator 22.1.0, SVG Export Plug-In . SVG Version: 6.00 Build 0)  -->
<svg version="1.1" id="Shape_3_1_" xmlns="http://www.w3.org/2000/svg" xmlns:xlink="http://www.w3.org/1999/xlink" x="0px" y="0px"
	 viewBox="0 0 15 22" enable-background="new 0 0 15 22" xml:space="preserve">
<g id="Shape_3">
	<g>
		<path fill-rule="evenodd" clip-rule="evenodd" fill="#FFFFFF" d="M7.5,0C3.4,0,0,3.4,0,7.6C0,12.9,7.5,22,7.5,22S15,12.7,15,7.6
			C15,3.4,11.6,0,7.5,0z M9.8,9.9c-0.6,0.6-1.4,1-2.3,1c-0.8,0-1.6-0.3-2.3-1C4,8.6,4,6.5,5.2,5.3c0.6-0.6,1.4-1,2.3-1
			c0.9,0,1.7,0.3,2.3,1C11,6.5,11,8.6,9.8,9.9z"/>
	</g>
</g>
</svg>
