<?xml version="1.0" encoding="utf-8"?>
<!-- Generator: Adobe Illustrator 21.1.0, SVG Export Plug-In . SVG Version: 6.00 Build 0)  -->
<svg version="1.1" id="Layer_1" xmlns="http://www.w3.org/2000/svg" xmlns:xlink="http://www.w3.org/1999/xlink" x="0px" y="0px"
	 viewBox="0 0 279 219" style="enable-background:new 0 0 279 219;" xml:space="preserve">
<style type="text/css">
	.st0{fill:#FFFFFF;}
	.st1{fill:url(#SVGID_1_);}
</style>
<g>
	<path class="st0" d="M149.2,108.8c0.6-1.2,1.9-2.7,3.9-4.4H122l-6.4,5.7l-6.2-5.7H79.3c2.6,2.1,4.2,3.7,4.7,4.9
		c0.6,1.2,0.8,3.5,0.8,7v70.3c0,5.1-0.5,8.9-1.4,11.7c-0.9,3-2.8,6.2-5.6,9.7c3.1-0.4,5.8-1.3,8.1-2.8c1.1-0.8,3.4-2.7,6.9-5.9
		c2.7-2.5,6.1-4.2,10.3-5.3c-1.5-1.9-2.3-3.1-2.6-3.7c-0.6-1.3-0.9-2.8-0.9-4.5v-64.4c0-2.6,0.3-4.4,0.8-5.5c0.6-1.5,2-2.2,4-2.2
		c2,0,3.4,0.8,4.1,2.5c0.5,1.1,0.7,3.1,0.7,5.9V186c0,2.5-0.2,3.7-0.7,4.6c-0.5,0.9-1,2-2.7,3.2l21.7,0c-1.7-1.3-2.2-2.4-2.8-3.2
		c-0.7-1.1-1-2.8-1-5.1v-63.9c0-2.7,0.2-4.6,0.7-5.7c0.7-1.5,2-2.3,4-2.3c2,0,3.4,0.8,4.1,2.5c0.5,1.1,0.7,3.1,0.7,5.9v62.5
		c0,2.4-0.2,4.1-0.7,5.3c-0.5,1.1-1.5,2.5-3,4h22.6c-1.7-1.5-2.8-2.8-3.3-4.1c-0.5-1.3-0.7-3.2-0.7-5.8v-68.7
		C148.3,112.3,148.6,110.2,149.2,108.8z M196.3,185.7v-23.5c0-6.1-0.4-10-1.3-11.6c-1-2.1-3.8-3.5-8.3-4.1c2.6-0.4,4.8-1.5,6.7-3.5
		c1.9-2,2.8-5.5,2.8-10.4c0-7.8,0-12-0.1-12.6c-0.3-5.7-1.2-9.5-2.8-11.4c-1.6-1.9-3.6-3.2-6.1-3.7c-1.3-0.4-3.6-0.5-6.9-0.5h-25.7
		c2,1.5,3.3,2.8,3.8,4c0.5,1.2,0.8,3.3,0.8,6.2v69c0,2.9-0.3,5-0.8,6.2c-0.5,1.2-1.8,2.5-3.8,4h22.2c-1.4-0.9-2.3-2-2.8-3.2
		c-0.3-0.9-0.4-2.4-0.4-4.5v-33.7c3.1,0,4.8,0,5,0.1c2,0.4,3,1.8,3,4v29.2c0,2.2-0.1,3.7-0.3,4.5c-0.4,1.4-1.1,2.6-2.2,3.5
		c1.9,0.8,3.2,1.5,3.9,1.9c1.5,1.3,2.6,2.5,3.5,3.5c2.6,3.1,4.7,5.1,6.3,6.1c2.3,1.4,4.9,2.1,7.8,2.1c0.8,0,1.5,0,2.3-0.1
		c-2.8-3.4-4.7-6.7-5.6-9.9C196.6,194.7,196.3,190.8,196.3,185.7z M181.7,136.6c0,3-1.5,4.5-4.4,4.5h-3.7v-27.6h3.7
		c2.9,0,4.4,1.4,4.4,4.1V136.6z M18.5,157v-5.2H24c0.1-0.3,0.2-0.6,0.2-0.9s-0.1-0.6-0.2-0.9h-5.5v-5.1h6.6c0.1-0.3,0.2-0.6,0.2-1
		c0-0.3-0.1-0.6-0.2-0.9h-8.9v15.7h9.1c0.1-0.3,0.2-0.6,0.2-0.9c0-0.3-0.1-0.6-0.2-0.9H18.5z M38.1,150c-2-0.7-3.9-1-3.9-2.7
		c0-1.6,1.1-2.5,3.4-2.5c1.9,0,3.4,0.5,3.4,0.5c0.4-0.4,0.6-1.1,0.6-1.7c0,0-1.7-0.6-4.3-0.6c-3.6,0-5.3,1.8-5.3,4.5
		c0,3.3,2.9,3.8,5.2,4.6c1.5,0.5,2.8,1,2.8,2.6c0,1.6-1.1,2.5-3.3,2.5c-2,0-4.1-0.7-4.1-0.7c-0.3,0.5-0.5,1.2-0.5,1.8
		c0,0,1.8,0.9,4.7,0.9c3.6,0,5.5-1.6,5.5-4.6C42.2,151.6,40.2,150.7,38.1,150z M48.3,143.1c0,0-0.2,0.4-0.2,1c0,0.6,0.2,1,0.2,1h4.2
		v13.6c0,0,0.3,0.2,1.1,0.2c0.7,0,1.1-0.2,1.1-0.2V145h4.1c0,0,0.2-0.4,0.2-1c0-0.5-0.2-0.9-0.2-0.9H48.3z M66.3,156.3
		c-0.8,0-1.3,0.6-1.3,1.4c0,0.8,0.5,1.4,1.3,1.4c0.8,0,1.3-0.6,1.3-1.4C67.6,156.9,67.1,156.3,66.3,156.3z M219.4,153
		c2.6-1.6,4.2-2.5,4.2-5.3c0-2.9-2.1-4-4.8-4c-2.3,0-4,0.8-4,0.8c-0.1,0.7,0.2,1.2,0.6,1.6c0,0,1.5-0.5,3.1-0.5c2,0,2.9,0.9,2.9,2.2
		c0,1.6-0.9,2.3-2.9,3.6c-2,1.3-4.2,2.5-4.2,5.9c0,0.8,0.1,1.5,0.1,1.5h8.8c0.1-0.3,0.2-0.6,0.2-1c0-0.4-0.1-0.7-0.2-1h-6.8
		c0-0.1,0-0.3,0-0.5C216.4,154.6,218.1,153.8,219.4,153z M233.7,143.8c-3.5,0-5.4,2.3-5.4,7.6c0,5.4,1.9,7.6,5.4,7.6
		c3.5,0,5.5-2.2,5.5-7.6S237.2,143.8,233.7,143.8z M233.7,157.2c-2,0-3.1-1.3-3.1-5.8c0-4.5,1.1-5.8,3.1-5.8c2.1,0,3.1,1.2,3.1,5.8
		C236.8,155.9,235.8,157.2,233.7,157.2z M247.5,144.1c-1,1.5-2.4,2.4-4.2,2.9c-0.1,0.7,0.1,1.4,0.5,1.8c1.3-0.3,2.7-1,3.7-2
		c-0.1,0.7-0.1,1.7-0.1,2.8v9c0,0,0.4,0.2,1.1,0.2c0.8,0,1.1-0.2,1.1-0.2v-14.5c0,0-0.3-0.2-1.1-0.2
		C247.8,144,247.5,144.1,247.5,144.1z M263.8,144h-9c0,0-0.2,0.3-0.2,1c0,0.6,0.2,1,0.2,1h7c-0.7,3.9-5.3,5.5-5.3,12.8
		c0.3,0.1,0.7,0.1,1.1,0.1s0.8,0,1-0.1c0-7,5.2-8.4,5.4-13.5C264,144.8,264,144.4,263.8,144z"/>
</g>
<g>
	<linearGradient id="SVGID_1_" gradientUnits="userSpaceOnUse" x1="139.0928" y1="113.4311" x2="139.0928" y2="10.676">
		<stop  offset="0" style="stop-color:#FF0700"/>
		<stop  offset="0.7978" style="stop-color:#FA8F00"/>
		<stop  offset="0.9999" style="stop-color:#FA9400"/>
	</linearGradient>
	<path class="st1" d="M190.5,10.7c3.1,6.1,6.1,11.4,5.1,29.4c-1,18-21.4,33.8-21.4,33.8s14.9-8.2,20.7-15.7
		c5.8-7.5,7.6-13.2,7.6-13.2s-1.1,17.6-12.2,26.4c-11.1,8.7-20.7,10.6-26,11.5c-5.3,0.9-14.5,0-14.5,0s10.4-6.2,19.4-13.1
		c12.7-9,18.1-24.8,18.1-24.8s-8,12.5-22.2,19.8c-14.2,7.3-35.2,12.4-35.2,12.4s25.9-12.2,36.7-21.4c10.8-9.3,16.2-14.4,17.6-23.1
		c1.4-8.6-2.7-13.8-2.7-13.8s5.6,16.7-17.2,27c-22.8,10.3-30,14-35.2,19c-5.2,5,5.2-8.1,9.9-10.7c4.7-2.7-11,0.2-26.8,13.2
		c-8.3,6.9-11.5,9.7-12.6,10.8c-0.3,0.5-0.4,0.7-0.4,0.7s-0.6,0.3,0.4-0.7c2-3.5,11.6-19.5,25.6-25.7c15.9-7,21.4-6.6,21.4-6.6
		s-36.5-7.5-54,15.8c3.7-17.4,32.6-20.7,32.6-20.7s-18.5-2.2-33.7,4.1c-15.2,6.3-19,24.7-19.9,31.3c-0.5,3.6-0.5,5.3-0.3,6
		c0.2,0.4,0.3,0.6,0.3,0.6s-0.2,0-0.3-0.6c-0.9-1.7-3.2-7-2.7-12.6c0.6-6.9,2.3-5.8,2.3-5.8s-2.2-1.9-6.1,12.4
		c-3.9,14.2,0,29.7,9.1,37.1c-3.1-4.2-1.3-17.1,12.1-16.5c13.4,0.6,28.6,0.8,50.8,0.8c22.2,0,37.3-3.4,46.7-8.2
		c9.4-4.8,15.3-9.9,15.3-9.9s-4.4,8.4-8.4,11.5c-4,3.2-10.7,7.4-10.7,7.4s16,1.8,29.8-18.1C223.2,60.5,208.8,23.3,190.5,10.7z
		 M202,111.8c0,0,0-0.1,0-0.2C201.9,111.8,202,111.8,202,111.8z M203.6,95.3c-3.2,2.7-9,4.1-9,4.1c8.2,4.9,7.7,10.8,7.4,12.1
		c0.2-0.4,0.9-1.6,3.2-4.7c3.8-5,3.3-18.1,3.3-18.1S206.8,92.6,203.6,95.3z"/>
</g>
</svg>
