<?xml version="1.0" encoding="utf-8"?>
<!-- Generator: Adobe Illustrator 22.1.0, SVG Export Plug-In . SVG Version: 6.00 Build 0)  -->
<svg version="1.1" id="Forma_1_1_" xmlns="http://www.w3.org/2000/svg" xmlns:xlink="http://www.w3.org/1999/xlink" x="0px" y="0px"
	 viewBox="0 0 41 40" enable-background="new 0 0 41 40" xml:space="preserve">
<g id="Forma_1">
	<g>
		<path fill-rule="evenodd" clip-rule="evenodd" fill="#FFFFFF" d="M20.8,0C9.8,0,1,8.9,1,19.8c0,10.9,8.9,19.8,19.8,19.8
			s19.8-8.9,19.8-19.8C40.6,8.9,31.8,0,20.8,0z M30.9,21.9c0.9,0.9,1.9,1.7,2.7,2.7c0.4,0.4,0.7,0.9,1,1.4c0.4,0.7,0,1.5-0.6,1.6
			l-4.1,0c-1,0.1-1.9-0.3-2.6-1.1c-0.6-0.6-1.1-1.2-1.6-1.8c-0.2-0.2-0.5-0.5-0.7-0.6c-0.6-0.4-1-0.2-1.4,0.3
			c-0.3,0.6-0.4,1.2-0.4,1.9c0,1-0.3,1.2-1.3,1.3c-2.1,0.1-4-0.2-5.8-1.2c-1.6-0.9-2.8-2.2-3.9-3.7c-2.1-2.8-3.7-6-5.2-9.2
			c-0.3-0.7-0.1-1.1,0.7-1.1c1.3,0,2.7,0,4,0c0.5,0,0.9,0.3,1.1,0.8c0.7,1.8,1.6,3.4,2.7,5c0.3,0.4,0.6,0.8,1,1.1
			c0.5,0.3,0.8,0.2,1.1-0.3c0.1-0.3,0.2-0.7,0.2-1c0.1-1.2,0.1-2.4-0.1-3.7c-0.1-0.8-0.5-1.3-1.3-1.4c-0.4-0.1-0.3-0.2-0.1-0.4
			c0.3-0.4,0.6-0.6,1.2-0.6l4.6,0c0.7,0.1,0.9,0.5,1,1.2l0,5.1c0,0.3,0.1,1.1,0.6,1.3c0.4,0.1,0.7-0.2,0.9-0.4
			c1.1-1.2,1.9-2.5,2.6-4c0.3-0.6,0.6-1.3,0.8-1.9c0.2-0.5,0.5-0.7,1-0.7l4.4,0c0.1,0,0.3,0,0.4,0c0.7,0.1,0.9,0.4,0.7,1.2
			c-0.4,1.1-1.1,2.1-1.8,3c-0.7,1-1.5,2-2.3,3C30,20.7,30,21.1,30.9,21.9z"/>
	</g>
</g>
</svg>
