<?xml version="1.0" encoding="utf-8"?>
<!-- Generator: Adobe Illustrator 22.1.0, SVG Export Plug-In . SVG Version: 6.00 Build 0)  -->
<svg version="1.1" id="Rounded_Rectangle_2_copy_4_1_"
	 xmlns="http://www.w3.org/2000/svg" xmlns:xlink="http://www.w3.org/1999/xlink" x="0px" y="0px" viewBox="0 0 32 33"
	 enable-background="new 0 0 32 33" xml:space="preserve">
<g id="Rounded_Rectangle_2_copy_4">
	<g>
		<path fill-rule="evenodd" clip-rule="evenodd" fill="#FFFFFF" d="M19,16.5l12-12c0.8-0.8,0.8-2,0-2.8c-0.8-0.8-2-0.8-2.8,0l-12,12
			L3.5,0.9c-0.8-0.8-2-0.8-2.8,0c-0.8,0.8-0.8,2,0,2.8l12.7,12.7L0.7,29.2c-0.8,0.8-0.8,2,0,2.8c0.8,0.8,2,0.8,2.8,0l12.7-12.7
			l12,12c0.8,0.8,2,0.8,2.8,0c0.8-0.8,0.8-2,0-2.8L19,16.5z"/>
	</g>
</g>
</svg>
