<?xml version="1.0" encoding="utf-8"?>
<!-- Generator: Adobe Illustrator 22.1.0, SVG Export Plug-In . SVG Version: 6.00 Build 0)  -->
<svg version="1.1" id="Shape_4_1_" xmlns="http://www.w3.org/2000/svg" xmlns:xlink="http://www.w3.org/1999/xlink" x="0px" y="0px"
	 viewBox="0 0 47 46" enable-background="new 0 0 47 46" xml:space="preserve">
<g id="Shape_4">
	<g>
		<path fill-rule="evenodd" clip-rule="evenodd" fill="#FFFFFF" d="M35.5,30.3c2.2-3.1,3.4-6.9,3.4-11C38.9,8.7,30.2,0,19.4,0
			S0,8.7,0,19.3s8.7,19.3,19.4,19.3c4.5,0,8.6-1.5,11.9-4L42.8,46l4.2-4.2L35.5,30.3z M19.4,34.5c-8.4,0-15.3-6.8-15.3-15.2
			C4.2,11,11,4.2,19.4,4.2c8.4,0,15.3,6.8,15.3,15.2C34.7,27.7,27.9,34.5,19.4,34.5z M21.5,10.1h-4.2v7.4H9.9v4.2h7.5v7.4h4.2v-7.4
			H29v-4.2h-7.5V10.1z"/>
	</g>
</g>
</svg>
