<?xml version="1.0"?>
<svg xmlns="http://www.w3.org/2000/svg" id="Layer_5" enable-background="new 0 0 64 64" height="512px" viewBox="0 0 64 64" width="512px" class=""><g><g><path d="m23 51h2v6h-2z" data-original="#000000" class="active-path" data-old_color="#000000" fill="#F0B400"/><path d="m15 47h2v10h-2z" data-original="#000000" class="active-path" data-old_color="#000000" fill="#F0B400"/><path d="m37.051 15h-33.051c-.552 0-1 .448-1 1v5h36.063c-1.129-1.758-1.844-3.802-2.012-6zm-30.051 4h-2v-2h2zm4 0h-2v-2h2zm4 0h-2v-2h2z" data-original="#000000" class="active-path" data-old_color="#000000" fill="#F0B400"/><path d="m33 43h18v14h-18z" data-original="#000000" class="active-path" data-old_color="#000000" fill="#F0B400"/><path d="m7 43h2v14h-2z" data-original="#000000" class="active-path" data-old_color="#000000" fill="#F0B400"/><path d="m50 3c-6.065 0-11 4.935-11 11s4.935 11 11 11 11-4.935 11-11-4.935-11-11-11zm0 10c2.206 0 4 1.794 4 4v4h-3v2h-2v-2.142c-1.721-.447-3-1.999-3-3.858h2c0 1.103.897 2 2 2h2v-2c0-1.103-.897-2-2-2-2.206 0-4-1.794-4-4v-4h3v-2h2v2.142c1.721.447 3 1.999 3 3.858h-2c0-1.103-.897-2-2-2h-2v2c0 1.103.897 2 2 2z" data-original="#000000" class="active-path" data-old_color="#000000" fill="#F0B400"/><circle cx="12" cy="32" r="1" data-original="#000000" class="active-path" data-old_color="#000000" fill="#F0B400"/><path d="m12 27c-2.757 0-5 2.243-5 5s2.243 5 5 5 5-2.243 5-5-2.243-5-5-5zm0 8c-1.654 0-3-1.346-3-3s1.346-3 3-3 3 1.346 3 3-1.346 3-3 3z" data-original="#000000" class="active-path" data-old_color="#000000" fill="#F0B400"/><path d="m41.553 23.861-19.553 19.553-5.816-5.816c-1.169.876-2.614 1.402-4.184 1.402-3.859 0-7-3.141-7-7s3.141-7 7-7 7 3.141 7 7c0 1.57-.526 3.015-1.402 4.184l4.402 4.402 17.586-17.586h-36.586v37c0 .552.448 1 1 1h50c.552 0 1-.448 1-1v-34.003c-1.54.644-3.229 1.003-5 1.003-3.225 0-6.173-1.187-8.447-3.139zm-30.553 35.139h-6v-18h6zm28-22h10v2h-10zm-20 22h-6v-14h6zm8 0h-6v-10h6zm26 0h-22v-18h22zm0-20h-2v-2h2zm0-4h-14v-2h14zm0-4h-14v-2h14z" data-original="#000000" class="active-path" data-old_color="#000000" fill="#F0B400"/></g></g> </svg>
