<?xml version="1.0"?>
<svg xmlns="http://www.w3.org/2000/svg" xmlns:xlink="http://www.w3.org/1999/xlink" version="1.1" id="Layer_1" x="0px" y="0px" viewBox="0 0 512 512" style="enable-background:new 0 0 512 512;" xml:space="preserve" width="512px" height="512px"><g><g>
	<g>
		<path d="M336.184,114.857c-1.23-3.783-4.499-6.54-8.435-7.112l-43.103-6.263L265.37,62.424c-1.76-3.566-5.393-5.824-9.37-5.824    c-3.977,0-7.609,2.258-9.37,5.824l-19.276,39.058l-43.103,6.263c-3.936,0.573-7.207,3.329-8.435,7.112    c-1.229,3.783-0.204,7.935,2.645,10.711l31.189,30.402l-7.362,42.929c-0.673,3.92,0.938,7.883,4.157,10.22    c3.217,2.337,7.484,2.647,11.004,0.795L256,189.647l38.553,20.267c1.529,0.805,3.197,1.201,4.861,1.201    c2.167,0,4.323-0.673,6.143-1.995c3.218-2.339,4.83-6.301,4.157-10.22l-7.362-42.929l31.189-30.402    C336.388,122.792,337.414,118.64,336.184,114.857z M283.83,144.841c-2.463,2.4-3.587,5.859-3.005,9.248l4.712,27.476    l-24.675-12.972c-1.521-0.799-3.191-1.2-4.862-1.2c-1.671,0-3.34,0.4-4.862,1.2l-24.675,12.972l4.713-27.476    c0.582-3.39-0.542-6.848-3.005-9.248l-19.962-19.459l27.587-4.008c3.403-0.494,6.345-2.632,7.867-5.716L256,90.66l12.337,24.997    c1.522,3.085,4.466,5.223,7.87,5.717l27.584,4.008L283.83,144.841z" data-original="#000000" class="active-path" data-old_color="#000000" fill="#EBD943"/>
	</g>
</g><g>
	<g>
		<path d="M297.621,382.433h-0.316c-5.771,0-10.449,4.678-10.449,10.449c0,5.771,4.678,10.449,10.449,10.449h0.316    c5.771,0,10.449-4.678,10.449-10.449C308.07,387.111,303.392,382.433,297.621,382.433z" data-original="#000000" class="active-path" data-old_color="#000000" fill="#EBD943"/>
	</g>
</g><g>
	<g>
		<path d="M360.824,159.984c-5.771,0-10.449,4.678-10.449,10.449v0.137c0,5.771,4.678,10.449,10.449,10.449    c5.771,0,10.449-4.678,10.449-10.449v-0.137C371.273,164.662,366.595,159.984,360.824,159.984z" data-original="#000000" class="active-path" data-old_color="#000000" fill="#EBD943"/>
	</g>
</g><g>
	<g>
		<path d="M456.62,0H55.38c-5.771,0-10.449,4.678-10.449,10.449v127.413c0,4.214,2.531,8.015,6.42,9.641l43.735,18.279v42.152    c0,2.771,1.101,5.429,3.06,7.388l85.756,85.757v43.736h-18.808c-5.771,0-10.449,4.678-10.449,10.449v27.167h-17.763    c-5.771,0-10.449,4.678-10.449,10.449v108.669c0,5.771,4.678,10.449,10.449,10.449h238.237c5.771,0,10.449-4.678,10.449-10.449    V392.882c0-5.771-4.678-10.449-10.449-10.449h-17.763v-27.167c0-5.771-4.678-10.449-10.449-10.449h-18.808V301.08l85.756-85.756    c1.959-1.959,3.06-4.617,3.06-7.388v-42.152l43.735-18.28c3.888-1.625,6.42-5.427,6.42-9.641V10.449    C467.069,4.678,462.391,0,456.62,0z M95.086,143.132l-29.257-12.228V20.898h29.257V143.132z M336.457,365.714v16.718H332.8    c-5.771,0-10.449,4.678-10.449,10.449c0,5.771,4.678,10.449,10.449,10.449h31.869v87.771H147.331v-87.771h115.984    c5.771,0,10.449-4.678,10.449-10.449c0-5.771-4.678-10.449-10.449-10.449h-87.771v-16.718h18.808h123.298H336.457z M204.8,344.816    V307.2h102.4v37.616H204.8z M396.016,158.825v44.782l-82.695,82.695H198.679l-82.695-82.695v-44.782V20.898h234.391V136.63    c0,5.771,4.678,10.449,10.449,10.449s10.449-4.678,10.449-10.449V20.898h24.743V158.825z M446.171,130.904l-29.257,12.228V20.898    h29.257V130.904z" data-original="#000000" class="active-path" data-old_color="#000000" fill="#EBD943"/>
	</g>
</g></g> </svg>
